<svg xmlns="http://www.w3.org/2000/svg" data-name="Layer 1" viewBox="0 0 1000 1000">
  <path d="m65.35 368.54 15.49-42.66h6.3l15.69 42.66H97.1l-9.05-25.31c-.55-1.56-1.2-3.52-1.93-5.86-.74-2.34-1.63-5.32-2.68-8.95h1.03c-1.03 3.67-1.92 6.69-2.68 9.06-.75 2.38-1.38 4.29-1.88 5.74l-8.79 25.31h-5.78Zm7.79-11.91v-4.75h21.9v4.75zM116.96 369.28c-2.02 0-3.86-.38-5.51-1.15-1.65-.76-2.96-1.88-3.94-3.35-.97-1.47-1.46-3.25-1.46-5.35 0-1.83.36-3.32 1.09-4.47a7.74 7.74 0 0 1 2.91-2.71q1.815-.99 4.02-1.47c1.47-.32 2.95-.58 4.44-.77 1.91-.25 3.46-.44 4.67-.57 1.2-.13 2.09-.36 2.68-.69.58-.32.87-.88.87-1.66v-.17q0-2.01-.75-3.39c-.5-.93-1.24-1.64-2.23-2.13s-2.23-.74-3.72-.74-2.83.24-3.92.72-1.97 1.07-2.65 1.79-1.19 1.45-1.53 2.19l-4.95-1.63c.82-1.95 1.93-3.47 3.32-4.57s2.93-1.88 4.61-2.33q2.52-.69 4.98-.69c1.07 0 2.29.13 3.65.39 1.37.26 2.68.77 3.95 1.53q1.905 1.14 3.15 3.39c1.245 2.25 1.25 3.5 1.25 6v21.1h-5.07v-4.35h-.34c-.36.74-.95 1.51-1.75 2.3s-1.84 1.46-3.12 1.99-2.83.8-4.64.8Zm.89-4.55c1.91 0 3.52-.37 4.84-1.12 1.32-.74 2.32-1.71 3.01-2.91.69-1.19 1.03-2.44 1.03-3.74v-4.44c-.21.25-.67.47-1.38.67s-1.51.38-2.42.53-1.79.28-2.63.39c-.85.1-1.52.19-2.02.24-1.24.15-2.4.42-3.48.79s-1.94.92-2.59 1.63c-.65.72-.97 1.69-.97 2.91 0 1.11.29 2.03.86 2.78.57.74 1.36 1.31 2.35 1.69s2.13.57 3.41.57ZM140.47 368.54v-42.66h25.48v4.78h-20.04v13.11h9.79q4.35 0 7.53 1.47c2.12.98 3.75 2.38 4.91 4.19s1.73 3.97 1.73 6.47-.57 4.81-1.72 6.7-2.78 3.35-4.9 4.38-4.64 1.55-7.56 1.55h-15.23Zm5.44-4.75h9.68c2.86 0 5.07-.69 6.61-2.06 1.55-1.37 2.32-3.33 2.32-5.87 0-2.35-.77-4.16-2.32-5.44s-3.75-1.92-6.61-1.92h-9.68zM190.09 369.23c-2.75 0-5.22-.65-7.42-1.96s-3.94-3.17-5.23-5.6c-1.29-2.42-1.93-5.31-1.93-8.65v-1.09c0-3.3.19-6.18.56-8.63s.97-4.53 1.79-6.24 1.89-3.11 3.22-4.19c1.33-1.09 2.94-1.91 4.84-2.48s4.12-.92 6.66-1.07c1.3-.08 2.29-.25 2.96-.53.68-.28 1.14-.65 1.39-1.13s.37-1.07.37-1.78h4.58c0 1.58-.3 2.93-.89 4.02-.59 1.1-1.57 1.95-2.92 2.55-1.36.6-3.19.99-5.5 1.16q-4.32.285-7.02 1.35c-1.79.71-3.15 1.95-4.07 3.72s-1.52 4.37-1.8 7.79h.14c.57-1.49 1.46-2.87 2.65-4.15s2.61-2.31 4.24-3.11 3.38-1.19 5.25-1.19c2.31 0 4.4.67 6.27 2.02s3.36 3.17 4.47 5.47 1.66 4.9 1.66 7.8-.62 5.73-1.85 8.13c-1.23 2.41-2.92 4.3-5.08 5.7s-4.61 2.09-7.36 2.09Zm.05-4.53c1.89 0 3.51-.45 4.87-1.35q2.04-1.35 3.12-3.84c.72-1.66 1.09-3.65 1.09-5.96s-.34-4.26-1.03-5.9-1.69-2.91-3.01-3.79-2.91-1.33-4.78-1.33-3.6.48-5.07 1.43c-1.47.96-2.62 2.28-3.44 3.98s-1.23 3.66-1.23 5.87c0 2.08.38 3.94 1.15 5.58.76 1.64 1.85 2.94 3.26 3.88s3.1 1.42 5.07 1.42ZM211.27 368.54v-42.66h15.12c2.98 0 5.44.51 7.37 1.53 1.94 1.02 3.38 2.39 4.32 4.09.94 1.71 1.42 3.6 1.42 5.68 0 1.83-.33 3.35-.97 4.54-.65 1.19-1.5 2.14-2.56 2.85s-2.21 1.23-3.45 1.57v.4c1.34.08 2.67.53 3.99 1.37 1.33.84 2.43 2.03 3.32 3.58s1.33 3.44 1.33 5.67-.49 4.07-1.47 5.78q-1.47 2.58-4.62 4.08t-8.19 1.5h-15.6Zm5.44-23.94h9.39c1.53 0 2.91-.3 4.15-.9s2.22-1.45 2.95-2.55 1.09-2.38 1.09-3.85c0-1.85-.64-3.42-1.93-4.7s-3.32-1.92-6.08-1.92h-9.56v13.92Zm0 19.13h10.02c3.32 0 5.68-.64 7.09-1.92s2.1-2.84 2.1-4.7c0-1.43-.36-2.75-1.09-3.95s-1.75-2.17-3.08-2.89c-1.33-.73-2.91-1.09-4.74-1.09H216.7v14.55ZM248.26 368.54v-32.01h13.08c3.47 0 6.24.78 8.29 2.33 2.05 1.56 3.08 3.62 3.08 6.2 0 1.87-.56 3.35-1.69 4.44s-2.64 1.82-4.55 2.2c1.24.17 2.43.6 3.56 1.27a8.4 8.4 0 0 1 2.81 2.75c.73 1.16 1.1 2.56 1.1 4.22s-.42 3.11-1.27 4.41-2.06 2.32-3.64 3.06-3.46 1.12-5.66 1.12h-15.12Zm4.9-18.58h8.22c1.93 0 3.44-.4 4.52-1.2 1.09-.8 1.63-1.89 1.63-3.26s-.55-2.38-1.65-3.14c-1.1-.75-2.61-1.13-4.54-1.13h-8.19v8.73Zm0 13.88h10.22q2.46 0 3.87-1.17c.93-.78 1.4-1.84 1.4-3.18 0-1.64-.47-2.92-1.4-3.84-.94-.92-2.22-1.37-3.87-1.37h-10.22zM307.16 325.88v4.78h-20.53v37.88h-5.44v-42.66z"/>
  <path d="M323.79 336.53v4.75h-14.72v27.26h-5.15v-32.01zM323.18 377.7v-13.94h3.49c.71-.63 1.37-1.45 1.99-2.45s1.19-2.27 1.7-3.81.97-3.42 1.36-5.65.71-4.9.96-7.99l1.46-17.98h26.71v37.88h4.75v13.94h-5.24v-9.16h-31.98v9.16h-5.21Zm9.77-13.94h22.48v-33.1h-16.29l-1.09 13.2c-.25 3-.59 5.8-1.03 8.42s-.99 4.91-1.65 6.89-1.46 3.51-2.42 4.6ZM370.18 377.73v-13.94h2.63c.65-.67 1.21-1.4 1.69-2.19q.72-1.185 1.23-2.85c.34-1.11.64-2.45.89-4.02s.47-3.46.66-5.65l1.06-12.54h20.64v27.26h4.87v13.94h-5.12v-9.19h-23.39v9.19h-5.15Zm8.47-13.94h15.2v-22.51H383l-.69 7.79c-.31 3.4-.72 6.33-1.25 8.8s-1.33 4.44-2.42 5.91ZM69.01 450.64v-42.66h26v4.81H74.45v13.92h19.16v4.81H74.45v14.32h20.82v4.81H69.01ZM115.21 451.32c-3.09 0-5.76-.69-8-2.06s-3.97-3.29-5.18-5.75-1.82-5.33-1.82-8.62.59-6.17 1.78-8.68c1.18-2.5 2.86-4.46 5.03-5.87s4.7-2.12 7.6-2.12c1.7 0 3.37.28 5.03.84 1.65.56 3.15 1.47 4.5 2.72s2.42 2.9 3.22 4.94q1.2 3.06 1.2 7.5v2.15h-24.85v-4.35h22.08l-2.41 1.6c0-2.1-.33-3.97-.99-5.6s-1.64-2.91-2.93-3.84c-1.3-.93-2.91-1.39-4.84-1.39s-3.58.47-4.95 1.42c-1.38.94-2.42 2.18-3.15 3.69-.73 1.52-1.09 3.15-1.09 4.88v2.89q0 3.555 1.23 6.03t3.45 3.75c1.48.85 3.19 1.27 5.14 1.27 1.26 0 2.41-.18 3.44-.54s1.92-.91 2.66-1.65c.75-.73 1.32-1.65 1.72-2.73l4.98 1.37c-.5 1.6-1.34 3.02-2.52 4.24s-2.65 2.18-4.4 2.86c-1.75.69-3.72 1.03-5.91 1.03ZM135.87 450.64v-42.66h26v4.81h-20.56v13.92h19.16v4.81h-19.16v14.32h20.82v4.81h-26.26Zm7.13-47.91c-.94 0-1.74-.33-2.41-1s-1-1.47-1-2.41.33-1.73 1-2.39 1.47-.99 2.41-.99 1.73.33 2.39.99.99 1.46.99 2.39-.33 1.74-.99 2.41-1.46 1-2.39 1m12.06 0c-.94 0-1.74-.33-2.41-1s-1-1.47-1-2.41.33-1.73 1-2.39 1.47-.99 2.41-.99 1.73.33 2.39.99.99 1.46.99 2.39-.33 1.74-.99 2.41-1.46 1-2.39 1M182.07 451.32c-3.09 0-5.76-.69-8-2.06s-3.97-3.29-5.18-5.75-1.82-5.33-1.82-8.62.59-6.17 1.78-8.68c1.18-2.5 2.86-4.46 5.03-5.87s4.7-2.12 7.6-2.12c1.7 0 3.37.28 5.03.84 1.65.56 3.15 1.47 4.5 2.72s2.42 2.9 3.22 4.94q1.2 3.06 1.2 7.5v2.15h-24.85v-4.35h22.08l-2.41 1.6c0-2.1-.33-3.97-.99-5.6s-1.64-2.91-2.93-3.84c-1.3-.93-2.91-1.39-4.84-1.39s-3.58.47-4.95 1.42c-1.38.94-2.42 2.18-3.15 3.69-.73 1.52-1.09 3.15-1.09 4.88v2.89q0 3.555 1.23 6.03t3.45 3.75c1.48.85 3.19 1.27 5.14 1.27 1.26 0 2.41-.18 3.44-.54s1.92-.91 2.66-1.65c.75-.73 1.32-1.65 1.72-2.73l4.98 1.37c-.5 1.6-1.34 3.02-2.52 4.24s-2.65 2.18-4.4 2.86c-1.75.69-3.72 1.03-5.91 1.03Zm-6.73-37.94c-.94 0-1.74-.33-2.41-1s-1-1.47-1-2.41.33-1.73 1-2.39 1.47-.99 2.41-.99 1.73.33 2.39.99.99 1.46.99 2.39-.33 1.74-.99 2.41-1.46 1-2.39 1m12.05 0c-.94 0-1.74-.33-2.41-1s-1-1.47-1-2.41.33-1.73 1-2.39 1.47-.99 2.41-.99 1.73.33 2.39.99.99 1.46.99 2.39-.33 1.74-.99 2.41-1.46 1-2.39 1M198.06 450.64l13.77-22.25-12.68-20.42h6.61l11 18.95h15.75l10.94-18.95h6.59l-12.68 20.47 13.74 22.19h-6.24l-11.4-18.9h-17.75l-11.48 18.9h-6.16Zm29.24-42.67v42.66h-5.44v-42.66zM255.46 450.64l12.86-16.29-12.68-15.72h6.1l10.54 13.6h2.55v-13.6h5.15v13.6h2.49l10.48-13.6h6.16l-12.66 15.72 12.8 16.29h-6.21l-10.62-13.66h-2.43v13.66h-5.15v-13.66h-2.43l-10.68 13.66h-6.24ZM318.51 451.21c-2.79 0-5.26-.48-7.42-1.43s-3.87-2.28-5.14-3.98-1.95-3.67-2.05-5.93h5.5c.12 1.36.58 2.52 1.39 3.51.81.98 1.88 1.74 3.21 2.26 1.33.53 2.8.79 4.42.79q2.685 0 4.77-.93c1.38-.62 2.48-1.49 3.28-2.62s1.2-2.42 1.2-3.89c0-1.55-.39-2.91-1.16-4.08q-1.155-1.755-3.36-2.76c-1.47-.67-3.26-1-5.38-1h-3.46v-4.72h3.46c1.66 0 3.12-.3 4.39-.9s2.26-1.45 2.96-2.53c.71-1.09 1.06-2.37 1.06-3.84s-.31-2.64-.93-3.69-1.5-1.87-2.65-2.45-2.49-.87-4.04-.87c-1.45 0-2.81.26-4.08.79s-2.31 1.27-3.12 2.25c-.81.97-1.25 2.16-1.3 3.55h-5.24c.08-2.23.75-4.2 2-5.9 1.26-1.7 2.92-3.02 5-3.98 2.07-.95 4.36-1.43 6.86-1.43 2.65 0 4.94.53 6.86 1.6s3.39 2.47 4.42 4.21 1.55 3.62 1.55 5.64c0 2.41-.63 4.45-1.9 6.13s-2.99 2.84-5.17 3.49v.34q2.715.435 4.65 1.83c1.29.94 2.27 2.12 2.95 3.55s1.02 3.04 1.02 4.84q0 3.495-1.89 6.24c-1.89 2.745-2.99 3.28-5.18 4.34q-3.3 1.59-7.47 1.59ZM350.22 451.01c-2.12 0-4.06-.34-5.83-1.02s-3.18-1.64-4.24-2.88-1.62-2.69-1.67-4.35h5.27c.08 1.09.75 2 2.02 2.75 1.27.74 2.75 1.12 4.45 1.12 1.91 0 3.46-.49 4.67-1.47 1.2-.98 1.8-2.21 1.8-3.68 0-1.56-.64-2.83-1.93-3.81-1.29-.97-3.04-1.46-5.25-1.46h-2.09v-3.84h2.09c1.81 0 3.32-.46 4.52-1.37 1.2-.92 1.8-2.13 1.8-3.64s-.5-2.6-1.5-3.51-2.32-1.36-3.97-1.36-3.03.4-4.27 1.2q-1.86 1.2-1.92 3.18h-4.98c.04-1.72.57-3.22 1.59-4.51s2.38-2.29 4.07-3.01 3.54-1.07 5.57-1.07q3.21 0 5.55 1.2c2.34 1.2 2.77 1.87 3.62 3.21s1.27 2.82 1.27 4.44c0 1.91-.59 3.46-1.78 4.64s-2.63 1.94-4.35 2.26v.23c2.44.38 4.29 1.24 5.53 2.58q1.86 2.01 1.86 4.98c0 1.78-.51 3.35-1.53 4.74-1.02 1.38-2.43 2.47-4.22 3.26s-3.85 1.19-6.16 1.19ZM403.11 450.64h-5.47V426.3c0-.76.02-1.81.07-3.15s.11-2.9.2-4.7c.09-1.79.17-3.75.24-5.87h1c-1.36 2.41-2.49 4.42-3.41 6.06-.92 1.63-1.73 3.04-2.43 4.24-.71 1.19-1.42 2.35-2.15 3.48l-15.46 24.28h-6.47v-42.66h5.44v26.17c0 .88 0 1.95-.03 3.21-.02 1.26-.07 2.64-.14 4.14s-.2 3.07-.37 4.71h-.77c.74-1.58 1.49-3.07 2.23-4.47.74-1.39 1.45-2.64 2.1-3.75.66-1.11 1.21-2.01 1.65-2.72l17.35-27.29h6.41v42.66ZM437.6 450.64h-5.18v-23.08h-.37l-15.18 23.08h-4.9v-32.01h5.15v23.16h.37l15.23-23.16h4.87v32.01ZM102.88 532.73h-5.47v-24.34c0-.76.02-1.81.07-3.15s.11-2.9.2-4.7c.09-1.79.17-3.75.24-5.87h1c-1.36 2.41-2.49 4.42-3.41 6.06-.92 1.63-1.73 3.04-2.43 4.24-.71 1.19-1.42 2.35-2.15 3.48l-15.46 24.28H69v-42.66h5.44v26.17c0 .88 0 1.95-.03 3.21-.02 1.26-.07 2.64-.14 4.14s-.2 3.07-.37 4.71h-.77c.74-1.58 1.49-3.07 2.23-4.47.74-1.39 1.45-2.64 2.1-3.75.66-1.11 1.21-2.01 1.65-2.72l17.35-27.29h6.41v42.66Zm-16.92-47.16c-1.55 0-2.94-.36-4.19-1.07a8.2 8.2 0 0 1-2.99-2.92c-.75-1.23-1.12-2.6-1.12-4.11h3.78c0 1.3.42 2.36 1.27 3.19s1.93 1.25 3.25 1.25 2.4-.42 3.25-1.25 1.27-1.89 1.27-3.19h3.78c0 1.51-.37 2.87-1.1 4.09a8.26 8.26 0 0 1-2.98 2.92c-1.25.73-2.66 1.09-4.22 1.09M137.29 532.73h-5.18v-23.08h-.37l-15.18 23.08h-4.9v-32.01h5.15v23.16h.37l15.23-23.16h4.87v32.01Zm-12.83-36.51c-1.55 0-2.94-.36-4.19-1.07s-2.25-1.69-2.99-2.92-1.12-2.6-1.12-4.11h3.78c0 1.3.42 2.36 1.27 3.19s1.93 1.25 3.25 1.25 2.4-.42 3.25-1.25 1.27-1.89 1.27-3.19h3.78c0 1.51-.37 2.87-1.1 4.09a8.2 8.2 0 0 1-2.98 2.92c-1.25.73-2.66 1.09-4.22 1.09M146.11 532.73v-42.66h5.44v18.58h5.98l13.92-18.58h6.58l-15.89 20.67 16.58 21.99h-6.56l-14.4-19.36h-6.21v19.36zM184.3 532.73v-32.01h5.15v13.86h3.21l11.4-13.86h6.53l-12.77 15.49 12.94 16.52h-6.53l-10.34-13.4h-4.44v13.4zM215.18 532.73v-4.78h1.15c1.34 0 2.41-.27 3.22-.8s1.45-1.55 1.9-3.05.8-3.69 1.03-6.57l2.26-27.46h26.34v42.66h-5.44v-37.88h-15.95l-1.89 23.14q-.315 3.81-.99 6.6c-.45 1.86-1.08 3.39-1.9 4.6a7.5 7.5 0 0 1-3.22 2.68c-1.33.58-2.97.87-4.94.87h-1.58ZM256.48 532.73v-4.75h1.15c.94 0 1.72-.18 2.35-.54s1.15-1.01 1.55-1.95.71-2.25.93-3.95.39-3.88.5-6.56l.57-14.26h21.59v32.01h-5.18v-27.26h-11.51l-.49 11.28c-.15 3.53-.54 6.49-1.16 8.86-.62 2.38-1.61 4.16-2.96 5.34s-3.22 1.78-5.58 1.78h-1.75ZM294.02 532.73v-42.66h7.73l10.51 26.92c.25.63.53 1.42.84 2.36.32.95.65 1.97 1 3.08s.69 2.21 1.02 3.31.61 2.11.86 3.05h-1.2c.27-.88.56-1.86.89-2.94s.66-2.18 1.02-3.29c.35-1.12.69-2.16 1.02-3.13.32-.97.61-1.79.86-2.43l10.36-26.92h7.76v42.66h-5.35v-24.37c0-.88 0-1.88.01-3.01 0-1.13.03-2.31.06-3.55s.06-2.5.08-3.78c.03-1.28.05-2.52.07-3.72h.46c-.4 1.32-.83 2.66-1.27 4.02s-.89 2.68-1.32 3.95-.83 2.43-1.22 3.48-.71 1.92-.97 2.61l-9.53 24.37h-4.72l-9.68-24.37c-.27-.67-.58-1.51-.94-2.53s-.76-2.16-1.19-3.41-.87-2.57-1.33-3.95-.93-2.77-1.4-4.17h.52c.04 1.07.07 2.22.1 3.46s.05 2.5.07 3.77l.06 3.67c.02 1.17.03 2.23.03 3.16v24.37h-5.18ZM345.55 532.73v-32.01h7.73l7.3 17.7q.69 1.665 1.2 3.12c.34.97.64 1.9.9 2.78s.5 1.74.72 2.59.43 1.7.64 2.56h-.86a127 127 0 0 1 .6-2.48c.21-.83.44-1.69.7-2.59q.39-1.35.9-2.82c.34-.98.74-2.04 1.2-3.16l7.21-17.7h7.85v32.01h-5.18v-16.72c0-1.09 0-2.18.01-3.26 0-1.09.02-2.19.04-3.29l.06-3.35.06-3.41h.57c-.44 1.7-.86 3.24-1.26 4.61q-.6 2.055-1.35 4.11c-.75 2.055-1.1 2.9-1.8 4.6l-6.99 16.72h-4.52l-7.07-16.72a88 88 0 0 1-1.8-4.57c-.5-1.36-.95-2.74-1.36-4.12a117 117 0 0 1-1.27-4.62h.69c.02.97.04 2 .07 3.09s.05 2.2.07 3.35.03 2.29.04 3.45.01 2.3.01 3.42v16.72h-5.12ZM69.01 614.83v-42.66h5.44v18.44h22.39v-18.44h5.44v42.66h-5.44v-19.41H74.45v19.41zM116.31 582.82v32.01h-5.15v-32.01zm16.32 13.19v4.75h-17.55v-4.75zm3.98-13.19v32.01h-5.15v-32.01zM162.87 615.4c-3.65 0-6.9-.88-9.75-2.65s-5.1-4.29-6.74-7.56q-2.46-4.905-2.46-11.67c0-6.765.82-8.42 2.46-11.7 1.64-3.27 3.89-5.8 6.74-7.57 2.85-1.78 6.1-2.66 9.75-2.66s6.89.89 9.73 2.66 5.08 4.3 6.71 7.57 2.45 7.17 2.45 11.7-.82 8.39-2.45 11.67c-1.63 3.27-3.87 5.79-6.71 7.56s-6.09 2.65-9.73 2.65m0-5.04c2.54 0 4.83-.64 6.89-1.93s3.68-3.19 4.9-5.7c1.21-2.51 1.82-5.58 1.82-9.21s-.61-6.75-1.82-9.26-2.84-4.41-4.9-5.7c-2.05-1.29-4.35-1.93-6.89-1.93s-4.87.65-6.93 1.95-3.7 3.2-4.91 5.71-1.82 5.59-1.82 9.23.61 6.69 1.82 9.19 2.85 4.4 4.91 5.7q3.09 1.95 6.93 1.95M201.99 615.51c-2.9 0-5.45-.69-7.63-2.06-2.19-1.38-3.89-3.3-5.11-5.78s-1.83-5.36-1.83-8.65.61-6.26 1.83-8.75 2.92-4.42 5.11-5.8 4.73-2.06 7.63-2.06 5.48.69 7.67 2.06c2.19 1.38 3.9 3.31 5.12 5.8s1.83 5.41 1.83 8.75-.61 6.17-1.83 8.65-2.93 4.41-5.12 5.78c-2.2 1.37-4.75 2.06-7.67 2.06m0-4.61c2.16 0 3.93-.55 5.33-1.66s2.42-2.56 3.09-4.37c.67-1.8 1-3.75 1-5.86s-.33-4.09-1-5.91q-1.005-2.73-3.09-4.41c-1.39-1.12-3.17-1.67-5.33-1.67s-3.89.56-5.27 1.67c-1.37 1.12-2.4 2.58-3.06 4.4-.67 1.81-1 3.79-1 5.93s.33 4.05 1 5.86c.67 1.8 1.69 3.26 3.06 4.37 1.38 1.11 3.13 1.66 5.27 1.66ZM257.14 572.16v42.66h-5.44v-37.85h-22.39v37.85h-5.44v-42.66zM291.43 582.82v32.01h-5.15v-27.26h-15.09v27.26h-5.18v-32.01zM300.31 614.83v-42.66h14.6c3.32 0 6.06.61 8.2 1.82 2.15 1.21 3.74 2.84 4.78 4.88q1.56 3.06 1.56 6.87c0 3.81-.52 4.84-1.56 6.9s-2.63 3.7-4.77 4.92-4.87 1.83-8.19 1.83h-10.34v-4.78h10.08c2.25 0 4.07-.39 5.44-1.16s2.37-1.83 2.99-3.18.93-2.86.93-4.54-.31-3.18-.93-4.51-1.62-2.37-3.01-3.13-3.21-1.15-5.48-1.15h-8.88v37.88h-5.44ZM335.72 626.79v-43.98h4.98v5.12h.57c.36-.57.87-1.29 1.52-2.16s1.58-1.65 2.81-2.33c1.22-.69 2.87-1.03 4.95-1.03 2.67 0 5.03.67 7.06 2 2.03 1.34 3.63 3.24 4.78 5.71s1.73 5.4 1.73 8.78-.57 6.34-1.72 8.82-2.73 4.4-4.77 5.75-4.39 2.03-7.06 2.03c-2.02 0-3.66-.35-4.9-1.04-1.24-.7-2.2-1.49-2.86-2.38a33 33 0 0 1-1.55-2.22h-.4v16.92h-5.15Zm14.08-15.89c2 0 3.68-.54 5.02-1.62s2.36-2.53 3.04-4.35 1.02-3.85 1.02-6.08-.33-4.21-1-6-1.67-3.2-3.02-4.25-3.03-1.57-5.05-1.57-3.62.5-4.95 1.49c-1.34.99-2.34 2.37-3.02 4.14s-1.02 3.83-1.02 6.2.34 4.46 1.03 6.27 1.7 3.23 3.05 4.25 2.98 1.53 4.91 1.53ZM388.7 615.4c-3.65 0-6.9-.88-9.75-2.65s-5.1-4.29-6.73-7.56-2.45-7.16-2.45-11.67.82-8.42 2.45-11.7 3.88-5.8 6.73-7.57c2.85-1.78 6.1-2.66 9.75-2.66 2.16 0 4.2.31 6.11.95 1.92.63 3.64 1.55 5.17 2.76s2.8 2.68 3.82 4.41q1.53 2.595 2.1 5.88h-5.44q-.465-2.205-1.56-3.87c-.74-1.11-1.63-2.04-2.69-2.81s-2.23-1.34-3.51-1.72-2.62-.57-4.01-.57q-3.84 0-6.93 1.95c-2.06 1.3-3.69 3.2-4.9 5.71-1.2 2.51-1.8 5.59-1.8 9.23s.61 6.7 1.82 9.21 2.85 4.41 4.91 5.7 4.36 1.93 6.9 1.93c1.39 0 2.73-.2 4.01-.59s2.45-.96 3.51-1.72c1.06-.75 1.96-1.69 2.69-2.81s1.25-2.4 1.56-3.85h5.44c-.36 2.18-1.06 4.12-2.08 5.84a16.2 16.2 0 0 1-3.82 4.41 16.7 16.7 0 0 1-5.17 2.79c-1.92.64-3.96.96-6.14.96ZM426.05 615.51c-2.9 0-5.45-.69-7.63-2.06-2.19-1.38-3.89-3.3-5.11-5.78s-1.83-5.36-1.83-8.65.61-6.26 1.83-8.75 2.92-4.42 5.11-5.8 4.73-2.06 7.63-2.06q2.325 0 4.38.6c1.37.4 2.63.98 3.76 1.73 1.14.75 2.11 1.68 2.94 2.78.82 1.1 1.45 2.34 1.89 3.74l-4.95 1.4c-.23-.82-.58-1.58-1.06-2.26a8 8 0 0 0-1.73-1.79c-.68-.51-1.46-.9-2.33-1.17-.88-.28-1.84-.41-2.89-.41-2.14 0-3.89.56-5.27 1.67-1.37 1.12-2.4 2.58-3.06 4.4-.67 1.81-1 3.79-1 5.93s.33 4.05 1 5.86c.67 1.8 1.69 3.26 3.06 4.37 1.38 1.11 3.13 1.66 5.27 1.66 1.07 0 2.05-.14 2.95-.43s1.69-.69 2.39-1.22c.7-.52 1.28-1.15 1.76-1.88s.83-1.52 1.06-2.38l4.92 1.4c-.42 1.43-1.04 2.71-1.88 3.82-.83 1.12-1.82 2.07-2.96 2.86s-2.42 1.39-3.81 1.8-2.87.62-4.44.62M66.66 659.07v-4.81H98.9v4.81H85.53v37.85h-5.44v-37.85z"/>
  <path d="M106.53 696.92v-27.4H95.99v-4.61h26.17v4.61h-10.48v27.4zM129.21 696.92v-4.84h2.98c1.41 0 2.55-.22 3.41-.67q1.29-.675 1.92-2.25l.8-1.95-15-32.96h5.96l5.61 12.71q1.515 3.435 2.61 6.36c.73 1.95 1.39 3.84 1.99 5.67s1.23 3.71 1.88 5.64h-1.52q1.35-3.84 2.82-8.1c1.47-4.26 2.18-6.03 3.59-9.56l5.1-12.71h5.84l-14.75 35.62c-.57 1.37-1.24 2.59-2 3.65s-1.8 1.89-3.11 2.49-3.05.9-5.23.9h-2.89ZM161.45 708.52l1.32-4.47.54.14c1.05.27 2 .34 2.86.21.86-.12 1.63-.55 2.32-1.27.69-.73 1.29-1.85 1.8-3.38l.92-2.66-12.23-32.18h5.64l6.81 18.98c.73 1.99 1.34 3.95 1.83 5.9.5 1.95 1.02 3.84 1.57 5.67h-1.89c.55-1.83 1.08-3.73 1.59-5.68.5-1.96 1.11-3.92 1.82-5.88l6.87-18.98h5.61l-14.06 36.79c-.65 1.7-1.43 3.1-2.33 4.19s-1.96 1.91-3.16 2.43c-1.2.53-2.56.79-4.07.79-.92 0-1.71-.07-2.38-.2s-1.14-.27-1.4-.4ZM211.73 693.86c-3.88 0-7.23-.75-10.06-2.23-2.83-1.49-5.02-3.6-6.56-6.33s-2.3-5.96-2.3-9.71.77-6.98 2.3-9.71c1.54-2.73 3.72-4.84 6.56-6.33 2.83-1.49 6.19-2.23 10.06-2.23h3.72c3.89 0 7.25.74 10.08 2.23q4.23 2.235 6.54 6.33c1.54 2.73 2.3 5.96 2.3 9.71s-.77 6.98-2.3 9.71q-2.31 4.095-6.54 6.33c-2.83 1.49-6.19 2.23-10.08 2.23zm.23-5.01h3.26q4.5 0 7.59-1.53c3.09-1.53 3.63-2.52 4.71-4.5q1.62-2.955 1.62-7.23c0-4.275-.54-5.25-1.62-7.23s-2.65-3.47-4.71-4.5-4.59-1.53-7.59-1.53h-3.26c-2.98 0-5.5.51-7.57 1.53s-3.65 2.52-4.72 4.5-1.62 4.39-1.62 7.23.54 5.25 1.62 7.23 2.65 3.47 4.72 4.5 4.6 1.53 7.57 1.53m-1.09 10.59v-47.7h5.44v47.7zM254.58 697.61c-2.9 0-5.45-.69-7.63-2.06s-3.89-3.3-5.11-5.78-1.83-5.36-1.83-8.65.61-6.26 1.83-8.75 2.92-4.42 5.11-5.8 4.73-2.06 7.63-2.06h5.18c2.9 0 5.44.69 7.63 2.06s3.89 3.31 5.11 5.8 1.83 5.41 1.83 8.75-.61 6.17-1.83 8.65-2.92 4.41-5.11 5.78-4.73 2.06-7.63 2.06zm0-4.32h5.18c2.14 0 3.9-.58 5.3-1.73s2.44-2.66 3.14-4.51 1.04-3.83 1.04-5.93-.35-4.16-1.04-6.06c-.7-1.9-1.74-3.45-3.14-4.65-1.39-1.2-3.16-1.8-5.3-1.8h-5.18c-2.14 0-3.9.6-5.3 1.8-1.39 1.2-2.44 2.75-3.14 4.65s-1.04 3.92-1.04 6.06.35 4.08 1.04 5.93c.7 1.85 1.74 3.35 3.14 4.51 1.39 1.16 3.16 1.73 5.3 1.73m0 15.6v-54.63h5.18v54.63zM276.09 696.92l16.69-23.85v4.04l-15.75-22.85h6.3l6.16 9.05c.92 1.34 1.67 2.46 2.25 3.38s1.12 1.81 1.6 2.69q.735 1.32 1.65 3.15h-.94q.915-1.8 1.65-3.12c.49-.88 1.03-1.78 1.63-2.71s1.36-2.06 2.28-3.39l6.27-9.05h6.16l-15.72 22.62v-4.01l16.52 24.05h-6.27l-7.47-10.82c-.8-1.18-1.48-2.2-2.03-3.05s-1.07-1.7-1.55-2.55-1.01-1.87-1.6-3.05h1.17c-.57 1.13-1.1 2.11-1.59 2.96s-1.01 1.71-1.58 2.58c-.56.87-1.26 1.9-2.1 3.11l-7.53 10.82h-6.18ZM317.19 696.92l12.63-18.41-.03 3.95-11.94-17.55h6.01l3.98 6.21c1.03 1.6 1.92 3.1 2.68 4.49a82 82 0 0 0 2.33 4.04h-2.69c.82-1.3 1.57-2.64 2.25-4.04.68-1.39 1.54-2.89 2.59-4.49l4.07-6.21h5.9l-12 17.78v-3.81l12.51 18.04h-5.98l-4.7-7.19a73 73 0 0 1-2.62-4.37c-.74-1.35-1.49-2.64-2.28-3.88h2.72c-.78 1.24-1.51 2.53-2.18 3.88s-1.52 2.8-2.55 4.37l-4.75 7.19h-5.96ZM383.52 696.92h-32.04v-42.66h5.44v37.88h21.16v-37.88h5.44zm-.97 9.16v-9.16h-2.15v-4.75h7.33l-.03 13.92h-5.15ZM393.09 696.92v-32.01h5.15v27.26h15.09v-27.26h5.18v32.01zm24.46 9.16v-9.16h-2.15v-4.75h7.33l-.03 13.92h-5.15ZM82.67 763.1c-2.96 0-5.51-.48-7.64-1.43-2.14-.95-3.78-2.44-4.92-4.45-1.15-2.01-1.72-4.6-1.72-7.75v-13.11h5.44v13.08c0 3.11.9 5.36 2.69 6.74s4.08 2.08 6.84 2.08c2.35 0 4.57-.39 6.67-1.17s4.08-1.84 5.93-3.18v5.33a27 27 0 0 1-6 2.79c-2.17.72-4.6 1.07-7.29 1.07m11.65 15.92v-42.66h5.44v42.66zM119.77 769c-3.7 0-6.66-.98-8.86-2.93s-3.31-4.89-3.31-8.8v-10.25h5.15v10.25c0 2.41.67 4.17 2 5.3s3.01 1.69 5.01 1.69 3.9-.19 5.58-.57 3.36-.87 5.04-1.46v4.75c-1.11.4-2.21.75-3.31 1.06s-2.24.54-3.44.72-2.49.26-3.88.26Zm7.51 10.02v-32.01h5.15v32.01zM141.32 736.35h5.44v37.88h14.77v-37.88h5.41v37.88h14.77v-37.88h5.44v42.66h-45.84v-42.66ZM196.01 747h5.15v27.26h11.85V747h5.15v27.26h11.85V747h5.15v32.01h-39.17V747ZM244.08 736.35h5.44v37.88h14.77v-37.88h5.41v37.88h14.77v-37.88h5.44v42.66h-45.84v-42.66Zm44.87 51.83v-9.16h-2.15v-4.75h7.33l-.03 13.92h-5.15ZM299.92 747h5.15v27.26h11.85V747h5.15v27.26h11.85V747h5.15v32.01H299.9V747Zm38.2 41.18v-9.16h-2.15v-4.75h7.33l-.03 13.92h-5.15ZM353.34 753.19h11.6c2.94 0 5.48.52 7.63 1.55s3.81 2.5 4.98 4.4 1.76 4.15 1.76 6.74-.58 5.02-1.75 6.99-2.82 3.48-4.97 4.55-4.7 1.6-7.66 1.6h-15.58v-42.66h5.44v37.94h10.14c2.77 0 4.96-.76 6.57-2.29s2.42-3.59 2.42-6.18c0-1.62-.37-3.02-1.1-4.18-.74-1.16-1.77-2.07-3.11-2.71s-2.93-.96-4.78-.96h-11.6v-4.78ZM390.12 758.49h9.19c2.52 0 4.65.44 6.4 1.32s3.07 2.08 3.97 3.61 1.35 3.28 1.35 5.24-.45 3.68-1.36 5.24-2.23 2.81-3.97 3.74-3.87 1.39-6.38 1.39h-13.54v-32.01h5.15v27.26h8.39c1.89 0 3.45-.5 4.67-1.5s1.83-2.29 1.83-3.88-.61-3.01-1.83-4.05-2.78-1.56-4.67-1.56h-9.19v-4.78ZM72.99 835.29h11.6c2.94 0 5.48.51 7.63 1.54s3.81 2.5 4.98 4.39c1.17 1.9 1.76 4.15 1.76 6.74s-.58 5.02-1.75 6.99-2.82 3.48-4.97 4.55-4.7 1.6-7.66 1.6H69v-42.66h5.44v37.94h10.14c2.77 0 4.96-.76 6.57-2.29s2.42-3.59 2.42-6.18c0-1.62-.37-3.02-1.1-4.18-.74-1.16-1.77-2.07-3.11-2.71s-2.93-.96-4.78-.96h-11.6v-4.78Zm37.48-16.84v42.66h-5.44v-42.66zM123.67 840.58h9.19c2.52 0 4.65.44 6.4 1.32s3.07 2.08 3.97 3.61 1.35 3.27 1.35 5.24-.45 3.67-1.36 5.24c-.91 1.56-2.23 2.81-3.97 3.74s-3.87 1.39-6.38 1.39h-13.54v-32.01h5.15v27.26h8.39c1.89 0 3.45-.5 4.67-1.5s1.83-2.3 1.83-3.88-.61-3.01-1.83-4.05-2.78-1.56-4.67-1.56h-9.19v-4.78Zm24.62 20.53V829.1h5.15v32.01zM154.85 823.03v-4.58h13.06v4.58zm16.12 12.26h11.6c2.94 0 5.48.51 7.63 1.54s3.81 2.5 4.98 4.39c1.17 1.9 1.76 4.15 1.76 6.74s-.58 5.02-1.75 6.99-2.82 3.48-4.97 4.55-4.7 1.6-7.66 1.6h-15.58v-42.66h5.44v37.94h10.14c2.77 0 4.96-.76 6.57-2.29s2.42-3.59 2.42-6.18c0-1.62-.37-3.02-1.1-4.18s-1.77-2.07-3.11-2.71-2.93-.96-4.78-.96h-11.6v-4.78ZM197.15 833.28v-4.18h11.22v4.18zm13.28 7.3h9.19q3.78 0 6.39 1.32c1.74.88 3.06 2.08 3.97 3.61s1.36 3.27 1.36 5.24-.45 3.67-1.36 5.24c-.91 1.56-2.23 2.81-3.97 3.74s-3.87 1.39-6.39 1.39h-13.54v-32.01h5.15v27.26h8.39c1.89 0 3.45-.5 4.67-1.5s1.83-2.3 1.83-3.88-.61-3.01-1.83-4.05-2.78-1.56-4.67-1.56h-9.19v-4.78ZM254.09 861.68c-2.2 0-4.26-.32-6.18-.97-1.93-.65-3.66-1.58-5.18-2.79a15.4 15.4 0 0 1-3.79-4.41c-1-1.73-1.69-3.67-2.08-5.83h5.44c.3 1.45.83 2.73 1.56 3.85.74 1.12 1.63 2.06 2.69 2.82s2.23 1.34 3.52 1.72q1.935.57 4.02.57c2.56 0 4.86-.64 6.92-1.93 2.05-1.29 3.68-3.18 4.88-5.68s1.8-5.57 1.8-9.22-.6-6.75-1.8-9.26-2.83-4.41-4.88-5.7-4.36-1.93-6.92-1.93q-2.085 0-4.02.57c-1.29.38-2.46.95-3.52 1.72-1.06.76-1.96 1.7-2.69 2.81q-1.095 1.665-1.56 3.87h-5.44q.57-3.3 2.1-5.88c1.02-1.73 2.29-3.2 3.82-4.41s3.25-2.13 5.17-2.76 3.97-.95 6.14-.95c3.65 0 6.89.89 9.74 2.66 2.84 1.78 5.08 4.3 6.71 7.57 1.63 3.28 2.45 7.17 2.45 11.7s-.82 8.37-2.45 11.64-3.87 5.8-6.71 7.57-6.09 2.66-9.74 2.66Zm-4.21-19.95v-4.78h19.81v4.78zM291.68 861.8c-1.57 0-3.04-.21-4.44-.62a13.4 13.4 0 0 1-3.81-1.8c-1.15-.79-2.13-1.75-2.95-2.86-.82-1.12-1.45-2.39-1.89-3.82l4.92-1.4c.23.86.58 1.65 1.06 2.38s1.06 1.35 1.76 1.88 1.49.93 2.39 1.22 1.88.43 2.95.43c2.14 0 3.89-.55 5.27-1.66s2.4-2.56 3.06-4.37c.67-1.8 1-3.75 1-5.86s-.33-4.11-1-5.93c-.67-1.81-1.69-3.28-3.06-4.39-1.37-1.12-3.13-1.68-5.27-1.68-1.05 0-2.01.14-2.89.42s-1.66.67-2.33 1.17-1.25 1.1-1.73 1.79a7.4 7.4 0 0 0-1.06 2.26l-4.95-1.4a12.5 12.5 0 0 1 1.89-3.74c.82-1.1 1.8-2.02 2.94-2.78 1.13-.75 2.39-1.33 3.76-1.73 1.38-.4 2.83-.6 4.38-.6 2.9 0 5.44.69 7.63 2.06 2.19 1.38 3.89 3.31 5.11 5.8s1.83 5.41 1.83 8.75-.61 6.17-1.83 8.65-2.92 4.41-5.11 5.78c-2.19 1.38-4.73 2.06-7.63 2.06Zm10.14-14.43h-14.8v-4.64h14.8zM318.95 818.45v42.66h-5.44v-42.66zm9.05 18.84v4.58h-11.91v-4.58zm17.47 24.39c-3.65 0-6.9-.88-9.75-2.65s-5.1-4.29-6.74-7.56-2.46-7.16-2.46-11.67.82-8.42 2.46-11.7c1.64-3.27 3.89-5.8 6.74-7.57s6.1-2.66 9.75-2.66 6.89.89 9.74 2.66c2.84 1.78 5.08 4.3 6.71 7.57 1.63 3.28 2.45 7.17 2.45 11.7s-.82 8.39-2.45 11.67c-1.63 3.27-3.87 5.79-6.71 7.56s-6.09 2.65-9.74 2.65m0-5.03c2.54 0 4.83-.64 6.89-1.93 2.05-1.29 3.68-3.19 4.9-5.7 1.21-2.51 1.82-5.58 1.82-9.21s-.61-6.75-1.82-9.26-2.84-4.41-4.9-5.7c-2.05-1.29-4.35-1.93-6.89-1.93s-4.87.65-6.93 1.95-3.7 3.2-4.91 5.71-1.82 5.59-1.82 9.23.61 6.69 1.82 9.19 2.85 4.4 4.91 5.7 4.37 1.95 6.93 1.95M371.67 861.11V829.1h4.87v32.01zm3.72-13.69v-4.58h11.68v4.58zm23.56 14.38c-2.9 0-5.45-.69-7.63-2.06-2.19-1.38-3.89-3.3-5.11-5.78s-1.83-5.36-1.83-8.65.61-6.26 1.83-8.75 2.92-4.42 5.11-5.8c2.18-1.37 4.73-2.06 7.63-2.06s5.48.69 7.67 2.06c2.2 1.38 3.9 3.31 5.12 5.8s1.83 5.41 1.83 8.75-.61 6.17-1.83 8.65-2.93 4.41-5.12 5.78-4.75 2.06-7.67 2.06m0-4.61c2.16 0 3.93-.55 5.33-1.66 1.39-1.11 2.42-2.56 3.09-4.37.67-1.8 1-3.75 1-5.86s-.33-4.09-1-5.91q-1.005-2.73-3.09-4.41c-1.39-1.12-3.17-1.68-5.33-1.68s-3.87.56-5.25 1.68-2.41 2.58-3.08 4.39-1 3.79-1 5.93.33 4.05 1 5.86c.67 1.8 1.69 3.26 3.08 4.37s3.14 1.66 5.25 1.66M423.23 861.11h-6.3l10.48-19.21h6.13zm24.51 0h-5.44v-37.88h-8.88c-2.25 0-4.07.35-5.45 1.04-1.38.7-2.39 1.67-3.02 2.92s-.94 2.72-.94 4.42.31 3.1.94 4.31 1.63 2.15 3.01 2.81 3.18.99 5.41.99h11.34v4.84h-11.6c-3.3 0-6.03-.55-8.17-1.65-2.15-1.1-3.74-2.62-4.78-4.57s-1.56-4.19-1.56-6.73.52-4.8 1.56-6.79 2.63-3.55 4.78-4.68 4.88-1.7 8.2-1.7h14.6v42.66ZM459.68 861.11h-5.93l8.93-14.49h5.75l-8.76 14.49Zm20.71 0h-5.12v-27.52h-7.21c-2.75 0-4.72.5-5.93 1.49-1.2.99-1.8 2.38-1.8 4.15s.6 3.12 1.8 4.09 3.16 1.46 5.87 1.46h9.48v4.32h-9.82c-4.22 0-7.35-.91-9.41-2.72-2.05-1.81-3.08-4.2-3.08-7.16s1.03-5.41 3.08-7.3 5.19-2.83 9.41-2.83h12.74v32.01ZM72.3 943.58c-1.07 0-1.98-.38-2.73-1.13s-1.13-1.65-1.13-2.71.38-1.98 1.13-2.73 1.67-1.13 2.73-1.13 1.98.38 2.72 1.13 1.12 1.67 1.12 2.73-.37 1.95-1.12 2.71c-.75.75-1.65 1.13-2.72 1.13m-2.6-14.09-.34-28.95h5.84l-.37 28.95h-5.12ZM90.11 930.35v-.31c0-2.62.25-4.63.76-6.05s1.24-2.55 2.19-3.38c.96-.83 2.09-1.64 3.41-2.42q1.89-1.14 3.18-2.91c1.29-1.77 1.29-2.59 1.29-4.25q0-2.01-.93-3.45a6.47 6.47 0 0 0-2.5-2.25c-1.05-.54-2.22-.8-3.52-.8-1.13 0-2.21.23-3.25.7s-1.9 1.2-2.59 2.19q-1.035 1.485-1.2 3.87h-5.44c.1-2.4.71-4.45 1.85-6.13s2.63-2.96 4.48-3.85 3.9-1.33 6.16-1.33c2.48 0 4.63.48 6.46 1.45 1.82.96 3.24 2.29 4.25 3.99s1.52 3.64 1.52 5.81c0 2.31-.51 4.29-1.52 5.93s-2.44 3.03-4.29 4.15c-1.22.74-2.21 1.46-2.96 2.16s-1.3 1.54-1.63 2.53-.5 2.34-.5 4.04v.31h-5.18Zm2.66 13.23c-1.07 0-1.98-.38-2.73-1.13s-1.13-1.65-1.13-2.71.38-1.98 1.13-2.73 1.67-1.13 2.73-1.13 1.98.38 2.72 1.13 1.12 1.67 1.12 2.73-.37 1.95-1.12 2.71c-.75.75-1.65 1.13-2.72 1.13M123.44 943.78c-2.81 0-5.23-.52-7.27-1.56s-3.61-2.44-4.71-4.21-1.65-3.75-1.65-5.94c0-1.87.38-3.48 1.15-4.84s1.82-2.62 3.16-3.78c1.35-1.16 2.87-2.38 4.57-3.63l6.33-4.67c.52-.38 1.08-.84 1.69-1.38q.915-.795 1.56-1.92c.645-1.125.64-1.61.64-2.61 0-1.36-.45-2.47-1.36-3.35s-2.13-1.32-3.68-1.32c-1.07 0-2.01.22-2.83.66s-1.46 1.04-1.9 1.82c-.45.77-.67 1.67-.67 2.71s.24 2.09.73 3.06 1.15 1.98 1.99 3.04a328 328 0 0 0 2.86 3.52l19.64 23.82h-6.21l-16.18-19.41c-1.53-1.85-2.9-3.51-4.11-4.97s-2.17-2.91-2.86-4.34c-.7-1.43-1.04-3-1.04-4.7q0-2.835 1.29-5.01c.86-1.45 2.08-2.59 3.65-3.41s3.41-1.23 5.51-1.23 3.98.42 5.53 1.25 2.74 1.94 3.58 3.32q1.26 2.07 1.26 4.62c0 1.3-.24 2.5-.73 3.61s-1.16 2.13-2 3.06-1.83 1.81-2.93 2.63l-8.53 6.33c-1.76 1.3-2.99 2.51-3.71 3.62s-1.07 2.33-1.07 3.65c0 1.39.33 2.62 1 3.68s1.6 1.88 2.81 2.48 2.59.89 4.15.89c1.7 0 3.33-.35 4.9-1.04 1.56-.7 2.97-1.69 4.21-2.99s2.22-2.86 2.95-4.7 1.09-3.89 1.09-6.18h4.95c0 2.82-.32 5.14-.97 6.96-.65 1.81-1.39 3.25-2.22 4.29-.83 1.05-1.52 1.84-2.08 2.38l-1.03 1.29c-1.39 1.51-3.13 2.63-5.23 3.38-2.09.74-4.16 1.12-6.2 1.12ZM155.58 919.41c-1.81 0-3.35-.39-4.6-1.19a7.57 7.57 0 0 1-2.83-3.16q-.96-1.98-.96-4.32v-2.23c0-1.56.32-3 .97-4.31q.975-1.965 2.85-3.15c1.25-.79 2.77-1.19 4.57-1.19s3.36.4 4.6 1.19q1.845 1.185 2.79 3.15c.63 1.31.94 2.74.94 4.31v2.23q0 2.355-.96 4.32c-.96 1.965-1.58 2.37-2.81 3.16s-2.75 1.19-4.57 1.19Zm0-3.75q2.175 0 3.06-1.5c.885-1.5.89-2.14.89-3.42v-2.23c0-1.26-.29-2.39-.86-3.41-.57-1.01-1.6-1.52-3.09-1.52s-2.46.51-3.08 1.52-.93 2.15-.93 3.41v2.23q0 1.92.9 3.42c.9 1.5 1.64 1.5 3.11 1.5m-3.41 27.55 29.32-42.66h4.84l-29.32 42.66zm31.1.83c-1.81 0-3.34-.4-4.59-1.19a7.57 7.57 0 0 1-2.83-3.16q-.96-1.98-.96-4.32v-2.23c0-1.56.32-3 .97-4.31q.975-1.965 2.85-3.15c1.25-.79 2.77-1.19 4.57-1.19s3.37.4 4.61 1.19q1.86 1.185 2.79 3.15c.62 1.31.93 2.74.93 4.31v2.23c0 1.56-.32 3.01-.96 4.32a7.6 7.6 0 0 1-2.81 3.16c-1.23.79-2.75 1.19-4.57 1.19m0-3.75q2.175 0 3.06-1.5c.59-1 .89-2.14.89-3.42v-2.23c0-1.26-.29-2.39-.86-3.41s-1.6-1.52-3.09-1.52-2.46.51-3.08 1.52-.93 2.15-.93 3.41v2.23q0 1.92.9 3.42c.6 1 1.64 1.5 3.11 1.5M199.76 943.21v-42.66h5.15l19.04 32.5h.4v-32.5h5.27v42.66h-5.15l-18.93-32.24h-.46v32.24h-5.33Zm44.21-20.85q-3.06 0-5.31-1.23a8.55 8.55 0 0 1-3.46-3.44c-.81-1.47-1.22-3.19-1.22-5.15v-2.78c0-1.98.4-3.71 1.2-5.18s1.95-2.62 3.45-3.44q2.25-1.23 5.28-1.23c3.03 0 3.84.41 5.33 1.23a8.36 8.36 0 0 1 3.42 3.45c.79 1.48 1.19 3.2 1.19 5.17v2.78c0 1.99-.4 3.71-1.2 5.18a8.4 8.4 0 0 1-3.42 3.42c-1.48.81-3.23 1.22-5.25 1.22Zm-9.05 7.99v-4.32h18.18v4.32zm9.05-12.17c1.6 0 2.81-.52 3.61-1.55s1.2-2.39 1.2-4.09v-2.78c-.02-1.66-.42-3-1.22-4.01s-2.01-1.52-3.65-1.52-2.86.51-3.67 1.52-1.2 2.35-1.2 4.01v2.78c0 1.72.41 3.09 1.22 4.11s2.05 1.53 3.71 1.53M272.24 935.91l.32-12.63 1.57.6-10.74 6.93-2.23-3.92 11.42-5.84v1.66l-11.4-5.96 2.29-3.89 10.65 7.02-1.57.6-.32-12.63h4.52l-.32 12.63-1.6-.6 10.65-7.02 2.29 3.89-11.4 5.96v-1.66l11.42 5.84-2.23 3.92-10.74-6.93 1.6-.6.32 12.63h-4.52ZM295.99 923.14q0-4.665.96-9.78c.64-3.41 1.51-6.69 2.62-9.85s2.38-5.91 3.81-8.26h5.01c-1.47 3-2.74 6.12-3.82 9.36-1.08 3.25-1.9 6.45-2.48 9.61-.57 3.16-.86 6.13-.86 8.92 0 2.54.25 5.11.76 7.7s1.29 5.34 2.35 8.23 2.41 6.04 4.05 9.44h-5.01c-2.42-4.14-4.26-8.36-5.51-12.66s-1.88-8.53-1.88-12.71M313.67 948.5c1.7-3.49 3.07-6.7 4.12-9.61s1.82-5.65 2.3-8.23c.49-2.58.73-5.09.73-7.53 0-2.79-.29-5.76-.86-8.92s-1.39-6.36-2.46-9.61a71 71 0 0 0-3.84-9.36h5.01c1.43 2.35 2.71 5.1 3.82 8.26 1.12 3.16 1.99 6.45 2.62 9.86.63 3.42.94 6.67.94 9.76 0 4.26-.63 8.53-1.9 12.83s-3.1 8.47-5.48 12.54h-5.01ZM391.03 919.56v4.75h-58.64v-4.75zM396.43 924.34v-4.55h27.63v4.55zm11.39 11.57v-27.66h4.84v27.66zM431.85 918.01v-4.75h25.88v4.75zm0 12.43v-4.75h25.88v4.75zM464.21 953.49l2.52-16.24h5.9l-4.47 16.24zm5.58-33.07c-1.07 0-1.98-.38-2.73-1.13s-1.13-1.66-1.13-2.73.38-1.98 1.13-2.73 1.67-1.13 2.73-1.13 1.98.38 2.73 1.13c.75.76 1.13 1.67 1.13 2.73s-.38 1.98-1.13 2.73c-.75.76-1.67 1.13-2.73 1.13M484.46 920.42c-1.07 0-1.98-.38-2.73-1.13s-1.13-1.66-1.13-2.73.38-1.98 1.13-2.73 1.67-1.13 2.73-1.13 1.98.38 2.73 1.13c.75.76 1.13 1.67 1.13 2.73s-.38 1.98-1.13 2.73c-.75.76-1.67 1.13-2.73 1.13m0 23.16c-1.07 0-1.98-.38-2.73-1.13s-1.13-1.66-1.13-2.73.38-1.98 1.13-2.73 1.67-1.13 2.73-1.13 1.98.38 2.73 1.13 1.13 1.67 1.13 2.73-.38 1.98-1.13 2.73-1.67 1.13-2.73 1.13M739.65 323.43v45.11h-9.23v-36.96h-.3l-10.32 7.33v-8.48l9.96-6.99h9.9ZM746.31 368.54v-6.66l15.98-14.99c1.37-1.33 2.53-2.54 3.47-3.62s1.66-2.14 2.15-3.18.74-2.17.74-3.38c0-1.35-.3-2.51-.91-3.48s-1.43-1.71-2.48-2.24c-1.05-.52-2.25-.79-3.6-.79s-2.61.28-3.66.85a5.8 5.8 0 0 0-2.42 2.42c-.57 1.05-.85 2.31-.85 3.78h-8.84c0-2.93.67-5.47 2.01-7.64s3.2-3.85 5.59-5.03c2.38-1.18 5.13-1.77 8.23-1.77s5.97.57 8.36 1.71q3.57 1.71 5.55 4.71c1.98 3 1.98 4.3 1.98 6.9 0 1.68-.33 3.33-.98 4.96-.66 1.63-1.83 3.47-3.51 5.49-1.69 2.03-4.07 4.46-7.16 7.28l-6.81 6.72v.33h19.07v7.6h-31.91ZM799.83 369.15q-4.875 0-8.67-1.65c-2.53-1.1-4.53-2.64-5.99-4.63s-2.25-4.31-2.35-6.98h9.32q.15 1.725 1.2 3c.7.85 1.61 1.49 2.75 1.94 1.14.44 2.4.67 3.77.67 1.49 0 2.8-.26 3.94-.79 1.13-.52 2.02-1.29 2.66-2.29.65-1 .97-2.22.97-3.68 0-1.27-.32-2.45-.97-3.53s-1.61-1.94-2.89-2.59-2.88-.97-4.8-.97h-4.9v-6.18l10.17-10.11v-.3h-18.95v-7.63h30.15v6.72l-14.96 14.35v-1.94c3.35-.46 6.28-.17 8.79.89s4.47 2.63 5.87 4.71q2.1 3.12 2.1 7.14c0 4.02-.75 5.21-2.26 7.28-1.5 2.07-3.55 3.68-6.14 4.83s-5.54 1.73-8.83 1.73ZM821.82 360.52v-7.3l16.92-29.79h8.9l-16.53 29.27v.36h26.79v7.45h-36.09Zm21.59 8.02v-10.2l.27-3.3v-14.65h8.42v28.15zM878.74 369.15q-4.635 0-8.25-1.71c-2.41-1.14-4.32-2.71-5.72-4.71s-2.14-4.28-2.22-6.84h9.02c.06 1.17.42 2.21 1.07 3.1.66.9 1.52 1.59 2.59 2.09s2.24.74 3.51.74c1.51 0 2.85-.34 4.01-1.01 1.16-.68 2.07-1.62 2.74-2.83s1-2.61 1-4.21-.34-3.01-1.01-4.25c-.68-1.24-1.61-2.2-2.79-2.89s-2.55-1.03-4.1-1.03c-1.35 0-2.65.27-3.89.8s-2.21 1.26-2.89 2.16l-8.29-1.45 2.15-23.67h27.31v7.63h-19.65l-1.15 11.41h.24c.81-1.09 2-1.99 3.59-2.69 1.59-.71 3.35-1.06 5.28-1.06 2.04 0 3.92.36 5.65 1.09 1.72.73 3.22 1.75 4.5 3.07q1.905 1.98 2.97 4.71c.71 1.82 1.06 3.8 1.06 5.96 0 3.03-.7 5.71-2.1 8.05s-3.36 4.18-5.87 5.52q-3.765 2.01-8.73 2.01ZM917.87 369.15c-2.28 0-4.49-.38-6.63-1.15s-4.05-2-5.74-3.71c-1.68-1.71-3.02-3.97-4.01-6.8s-1.48-6.31-1.48-10.44c0-3.79.42-7.18 1.27-10.17s2.07-5.53 3.66-7.63 3.51-3.69 5.75-4.78 4.74-1.63 7.51-1.63c2.97 0 5.59.58 7.87 1.74s4.12 2.72 5.52 4.69 2.25 4.19 2.53 6.67h-9.08c-.38-1.59-1.18-2.85-2.38-3.77q-1.8-1.38-4.47-1.38c-1.98 0-3.65.59-5.01 1.76s-2.39 2.83-3.07 4.98c-.69 2.15-1.03 4.71-1.03 7.67h.3c.69-1.31 1.6-2.44 2.74-3.39s2.45-1.67 3.92-2.17c1.47-.49 3.03-.74 4.66-.74 2.66 0 5.04.62 7.13 1.86q3.135 1.86 4.95 5.16c1.21 2.2 1.82 4.71 1.82 7.54 0 3.05-.71 5.75-2.12 8.11s-3.37 4.21-5.87 5.55-5.42 2.01-8.75 2.01Zm-.06-7.33c1.49 0 2.83-.36 4-1.07q1.755-1.08 2.79-2.91c.69-1.22 1.03-2.6 1.03-4.13s-.33-2.88-1-4.09-1.58-2.17-2.75-2.89-2.5-1.07-4-1.07c-1.11 0-2.14.21-3.09.64-.95.42-1.78 1.01-2.5 1.76s-1.27 1.6-1.66 2.57-.59 2.01-.59 3.12c0 1.47.33 2.82 1 4.04s1.59 2.2 2.77 2.94 2.52 1.11 4.01 1.11ZM666.26 450.64l18.77-37.18v-.3h-21.86v-7.63h31.51v7.75l-18.83 37.36h-9.6ZM715.34 451.24c-3.37 0-6.36-.56-8.96-1.67s-4.65-2.62-6.13-4.54-2.23-4.09-2.23-6.51q0-2.82 1.29-5.19a11.85 11.85 0 0 1 3.48-3.97q2.19-1.59 4.95-2.04v-.27c-2.4-.5-4.35-1.68-5.84-3.54s-2.24-4.02-2.24-6.48c0-2.32.68-4.39 2.03-6.22s3.21-3.26 5.57-4.31 5.06-1.57 8.08-1.57 5.7.53 8.07 1.57c2.37 1.05 4.24 2.49 5.6 4.31 1.36 1.83 2.04 3.9 2.04 6.22 0 2.46-.76 4.62-2.27 6.48s-3.44 3.04-5.78 3.54v.27q2.7.45 4.89 2.04c1.46 1.06 2.63 2.38 3.51 3.97q1.32 2.37 1.32 5.19c0 2.42-.75 4.59-2.24 6.51s-3.55 3.43-6.16 4.54-5.61 1.67-8.98 1.67m0-6.84c1.55 0 2.91-.28 4.06-.83 1.15-.56 2.05-1.33 2.69-2.33.65-1 .97-2.14.97-3.44s-.33-2.51-1-3.53-1.58-1.83-2.74-2.42-2.49-.89-3.98-.89-2.82.29-3.98.88-2.07 1.39-2.74 2.41-1 2.21-1 3.56.32 2.43.95 3.42c.64.99 1.54 1.77 2.71 2.33 1.17.57 2.52.85 4.06.85Zm0-20.22c1.29 0 2.44-.26 3.44-.79 1-.52 1.79-1.25 2.36-2.18s.86-1.99.86-3.18-.28-2.27-.85-3.18-1.35-1.61-2.35-2.12c-1-.5-2.15-.76-3.47-.76s-2.47.25-3.47.76c-1 .5-1.78 1.21-2.35 2.12s-.85 1.97-.85 3.18.28 2.25.85 3.18 1.35 1.66 2.36 2.18c1.01.53 2.16.79 3.45.79ZM752.53 404.92c2.99 0 5.72.61 8.19 1.82s4.45 2.95 5.93 5.22q2.22 3.405 2.22 8.19 0 3.54-1.41 7.08c-1.41 3.54-2.41 5.01-4.41 7.93l-10.44 15.47h-9.32l14.17-20.74h2.48c-.42.73-1.09 1.42-2 2.07-.91.66-2 1.2-3.29 1.62s-2.7.64-4.25.64c-2.74 0-5.17-.56-7.27-1.68s-3.74-2.72-4.92-4.81-1.77-4.58-1.77-7.46c0-3.07.69-5.75 2.07-8.05s3.29-4.09 5.72-5.37q3.645-1.92 8.28-1.92Zm.06 7.27c-1.45 0-2.74.34-3.86 1.03s-2 1.62-2.65 2.79-.97 2.52-.97 4.06.32 2.86.97 4.04a7.26 7.26 0 0 0 2.65 2.79c1.12.68 2.41 1.01 3.86 1.01s2.71-.33 3.85-1a7.07 7.07 0 0 0 2.65-2.77c.64-1.18.95-2.53.95-4.04s-.32-2.89-.95-4.07a7.3 7.3 0 0 0-2.63-2.8c-1.12-.69-2.41-1.03-3.86-1.03ZM791.43 451.24c-3.79 0-7.03-.91-9.72-2.74-2.68-1.83-4.74-4.46-6.18-7.9-1.43-3.44-2.15-7.6-2.15-12.49s.72-9.03 2.15-12.49q2.145-5.19 6.18-7.95c2.68-1.84 5.92-2.75 9.72-2.75s7.04.92 9.73 2.77c2.7 1.85 4.76 4.5 6.19 7.95s2.15 7.61 2.15 12.47-.71 9.05-2.13 12.49-3.48 6.07-6.18 7.9-5.95 2.74-9.76 2.74m0-7.66c1.86 0 3.43-.61 4.71-1.82s2.26-2.97 2.94-5.27 1.01-5.1 1.01-8.39-.34-6.12-1.01-8.45c-.68-2.32-1.66-4.09-2.94-5.3s-2.85-1.82-4.71-1.82-3.4.61-4.69 1.83-2.27 2.99-2.94 5.3-1 5.12-1 8.43.33 6.08 1 8.39 1.64 4.06 2.94 5.27 2.86 1.82 4.69 1.82ZM838.28 434.2h-23.95v-7.48H838c1.82 0 3.3-.27 4.47-.8 1.16-.53 2.02-1.3 2.57-2.3s.83-2.17.83-3.53-.28-2.49-.83-3.54-1.39-1.89-2.51-2.51-2.54-.94-4.25-.94h-8.29v37.54h-9.2v-45.11h17.5c3.55 0 6.58.64 9.1 1.91 2.51 1.27 4.43 3 5.77 5.18s1.99 4.64 1.97 7.39c.02 2.87-.65 5.37-2.01 7.51s-3.3 3.78-5.81 4.93-5.51 1.74-9.01 1.76Zm1.54 2.96v7.48h-25.49v-7.48zM890.29 421.12l-2.15 4.75h-29.43l1.79-4.75zm-4.18 9.17-2.33 4.9h-25.07l1.79-4.9zm9.9-21.25-3.45 7.36c-.59-.44-1.3-.91-2.15-1.41s-1.81-.92-2.88-1.27-2.26-.53-3.57-.53q-3.09 0-5.4 1.59t-3.6 4.89c-.86 2.2-1.29 5.03-1.29 8.48s.43 6.28 1.29 8.48 2.06 3.81 3.6 4.84 3.35 1.54 5.4 1.54c1.31 0 2.5-.17 3.56-.51s2-.76 2.82-1.24 1.5-.93 2.04-1.33l3.48 7.3c-1.6 1.33-3.41 2.34-5.44 3.01-2.03.68-4.18 1.01-6.46 1.01-3.81 0-7.2-.91-10.14-2.74-2.95-1.83-5.26-4.46-6.93-7.92-1.67-3.45-2.51-7.6-2.51-12.44s.84-9.03 2.51-12.49c1.68-3.46 3.99-6.12 6.93-7.96 2.95-1.85 6.33-2.77 10.14-2.77 2.34 0 4.52.35 6.54 1.04 2.02.7 3.86 1.72 5.51 3.07M917.45 451.3c-3.61 0-6.76-.56-9.43-1.67s-4.76-2.75-6.25-4.93-2.28-4.86-2.36-8.05h8.99c.12 1.51.58 2.78 1.36 3.8.79 1.02 1.84 1.78 3.15 2.29 1.31.5 2.79.76 4.45.76s3.09-.24 4.31-.71 2.17-1.15 2.86-2.01c.69-.87 1.03-1.88 1.03-3.03 0-1.03-.31-1.89-.92-2.59-.62-.7-1.5-1.3-2.65-1.8s-2.55-.95-4.21-1.33l-4.96-1.24c-3.81-.93-6.8-2.39-8.96-4.38q-3.24-2.985-3.24-7.89c0-2.72.73-5.11 2.19-7.14 1.46-2.04 3.47-3.62 6.03-4.75 2.55-1.13 5.46-1.7 8.73-1.7s6.24.57 8.72 1.71 4.42 2.72 5.81 4.75 2.11 4.37 2.15 7.01h-8.93c-.16-1.82-.93-3.22-2.32-4.21-1.38-.99-3.22-1.48-5.53-1.48-1.55 0-2.89.22-4 .67-1.11.44-1.95 1.06-2.53 1.85s-.86 1.69-.86 2.69c0 1.11.33 2.03 1 2.77s1.55 1.33 2.66 1.79 2.29.83 3.54 1.14l4.09 1c1.9.42 3.66 1 5.3 1.73s3.07 1.62 4.3 2.68 2.18 2.32 2.86 3.77 1.01 3.13 1.01 5.03c0 2.72-.69 5.1-2.06 7.13s-3.36 3.6-5.96 4.71-5.73 1.67-9.38 1.67Zm-1.85 5.42v-57.28h3.63v57.28zM680.26 528.37l-12.14-14.29 12.14-14.29h9.66l-11.93 14.29 11.93 14.29zm14.2 0-12.14-14.29 12.14-14.29h9.66l-11.93 14.29 11.93 14.29zM708.26 528.37l11.93-14.29-11.93-14.29h9.63l12.14 14.29-12.14 14.29zm14.2 0 11.93-14.29-11.93-14.29h9.63l12.14 14.29-12.14 14.29zM748.87 508.6c0-2.76.4-5.03 1.2-6.8s1.91-3.08 3.33-3.94q2.13-1.29 4.95-1.29c1.49 0 2.83.28 4.01.85s2.51 1.44 3.98 2.63c.95.79 1.76 1.36 2.44 1.71s1.36.53 2.04.53c1.13 0 2.01-.42 2.65-1.27s.94-2.08.92-3.69h7.05q.03 4.02-1.2 6.72c-.82 1.8-1.95 3.15-3.41 4.06s-3.14 1.36-5.05 1.36c-1.35 0-2.63-.27-3.85-.8-1.21-.53-2.63-1.45-4.27-2.74-.95-.79-1.7-1.33-2.26-1.62-.55-.29-1.19-.44-1.89-.44-1.11 0-1.99.37-2.65 1.12s-.97 1.95-.95 3.6h-7.05Zm0 14.23c0-2.76.4-5.03 1.2-6.78.8-1.76 1.91-3.05 3.33-3.89q2.13-1.26 4.95-1.26c1.49 0 2.83.28 4.01.83s2.52 1.44 4.01 2.65c.95.79 1.76 1.35 2.42 1.68.67.33 1.34.5 2.03.5 1.13 0 2.01-.42 2.65-1.26s.94-2.06.92-3.68h7.05q.03 3.99-1.2 6.69c-.82 1.8-1.95 3.15-3.39 4.06s-3.13 1.36-5.07 1.36c-1.37 0-2.67-.27-3.89-.8-1.22-.54-2.65-1.45-4.28-2.74-.93-.77-1.67-1.29-2.21-1.57s-1.17-.42-1.88-.42c-1.11 0-1.99.37-2.65 1.11s-.97 1.91-.95 3.53h-7.05ZM788.85 508.42v-7.08h30.85v7.08zm0 18.29v-7.3h30.85v7.3zm11.6-10.57v-22.55h7.69v22.55zM857.16 506.48v7.33h-30.67v-7.33zm-15.35-3.36c-1.43.02-2.66-.48-3.69-1.51s-1.54-2.26-1.54-3.69.51-2.65 1.54-3.66 2.26-1.51 3.69-1.51 2.65.5 3.66 1.51 1.51 2.23 1.51 3.66-.5 2.66-1.51 3.69-2.23 1.53-3.66 1.51m0 24.43c-1.45-.02-2.69-.53-3.71-1.54q-1.53-1.515-1.53-3.72 0-2.085 1.53-3.6c1.02-1.01 2.26-1.51 3.71-1.51s2.63.5 3.65 1.51q1.53 1.515 1.53 3.6 0 2.205-1.53 3.72c-1.02 1.01-2.24 1.52-3.65 1.54M887.56 526.07l-26.22-26.16 5.63-5.69 26.19 26.25zm-20.59 0-5.63-5.6 26.22-26.25 5.6 5.69zM897.86 521.44l1.18-6.84h35.12l-1.18 6.84zm2.6-15.65 1.15-6.87h35.12l-1.15 6.87zm1.79 26.94 7.39-45.11h6.87l-7.39 45.11zm15.83 0 7.42-45.11h6.87l-7.42 45.11zM699.49 607.89l.7-13.65 2.54 1.06-11.47 7.84-3.54-6.15 12.59-6.18v2.88l-12.59-6.21 3.57-6.15 11.44 7.9-2.54 1.06-.7-13.65h7.11l-.67 13.65-2.6-1.06 11.47-7.9 3.57 6.15-12.62 6.21v-2.88l12.62 6.18-3.54 6.15-11.5-7.84 2.6-1.06.67 13.65zM732.77 614.83h-7.33v-45.11h7.33zm-6.87-38.03v-7.08h14.93q4.965 0 8.37 1.86c2.27 1.24 3.99 2.93 5.16 5.06s1.76 4.55 1.76 7.25-.58 5.16-1.76 7.31q-1.755 3.225-5.16 5.07c-2.27 1.23-5.06 1.85-8.37 1.85h-2.6v-21.31h-12.32ZM787.23 595.12v2.06L766.83 623h-6.81v-4.54l18.13-22.28-18.13-21.83v-4.63h6.81zm9.5 20.67V623h-33.27v-7.21zm-1.03-46.07v7.3h-31.64v-7.3zM803.84 620.46v-56.37l49.19 28.21-49.19 28.15ZM882.23 615.52c-3.21 0-6.22-.6-9.02-1.8s-5.28-2.87-7.42-5.01a23.4 23.4 0 0 1-5.01-7.42c-1.2-2.8-1.8-5.81-1.8-9.02s.6-6.22 1.8-9.02 2.87-5.28 5.01-7.42a23.4 23.4 0 0 1 7.42-5.01c2.8-1.2 5.81-1.8 9.02-1.8s6.22.6 9.02 1.8 5.28 2.87 7.42 5.01a23.4 23.4 0 0 1 5.01 7.42c1.2 2.81 1.8 5.81 1.8 9.02s-.6 6.22-1.8 9.02a23.4 23.4 0 0 1-5.01 7.42 23.4 23.4 0 0 1-7.42 5.01c-2.8 1.2-5.81 1.8-9.02 1.8M922.71 601.96c-1.78 0-3.4-.43-4.87-1.3a9.84 9.84 0 0 1-3.51-3.51c-.87-1.47-1.3-3.1-1.3-4.87s.43-3.43 1.3-4.89a9.9 9.9 0 0 1 3.51-3.5c1.47-.87 3.1-1.3 4.87-1.3s3.43.43 4.89 1.3 2.63 2.03 3.5 3.5c.87 1.46 1.3 3.09 1.3 4.89s-.43 3.4-1.3 4.87a9.8 9.8 0 0 1-3.5 3.51c-1.46.87-3.09 1.3-4.89 1.3M663.33 680.79v-28.97h7.08v28.97zm.12 0v-7.17h40.08v7.17zm35.27 11.2v-29.61l15.05 14.8-15.05 14.8ZM721.51 674.85v-7.02h55.19l7.02 7.02zm0 11.75v-7.02h62.21l-7.02 7.02zm47.26 12.62-5.03-4.93 17.1-17.1-17.1-17.07 5.03-4.93 22.01 22.01-22.01 22.04ZM799.11 665.8h7.21v10.02c0 1.05-.06 2.25-.17 3.6s-.25 2.72-.42 4.12c-.17 1.39-.34 2.71-.52 3.94-.17 1.23-.33 2.26-.47 3.09l-1.09-1.42c.44-.69.99-1.5 1.63-2.44.65-.94 1.34-1.89 2.09-2.86s1.47-1.81 2.18-2.51l18.59-18.62 5.15 5.15-18.62 18.59c-.71.71-1.54 1.43-2.51 2.18s-1.92 1.44-2.86 2.09-1.75 1.19-2.44 1.63l-1.42-1.12c1.11-.16 2.53-.36 4.27-.61 1.74-.24 3.54-.45 5.4-.64q2.805-.27 5.1-.27h9.96v7.21h-31.06v-31.12ZM841.92 694.2v-31.12h31.06v7.21h-9.96q-2.295 0-5.1-.27c-1.87-.18-3.67-.39-5.4-.64-1.74-.24-3.16-.44-4.27-.61l1.42-1.12c.69.42 1.5.96 2.44 1.62s1.89 1.36 2.86 2.1c.97.75 1.81 1.47 2.51 2.18l18.62 18.59-5.15 5.15-18.59-18.62c-.71-.73-1.43-1.57-2.18-2.53a56 56 0 0 1-2.09-2.86c-.65-.95-1.19-1.76-1.63-2.42l1.09-1.42c.14.83.3 1.86.47 3.09s.34 2.54.51 3.94c.17 1.39.31 2.77.42 4.12s.17 2.55.17 3.6v10.02h-7.21ZM894.14 697.92c-1.88-.02-3.59-.49-5.15-1.41-1.55-.92-2.79-2.15-3.71-3.71-.92-1.55-1.38-3.28-1.38-5.18s.46-3.62 1.38-5.18c.92-1.55 2.15-2.8 3.71-3.74 1.55-.94 3.27-1.41 5.15-1.41h4.42v-5.93h-4.42c-1.88 0-3.59-.46-5.15-1.38-1.55-.92-2.79-2.15-3.71-3.71-.92-1.55-1.38-3.28-1.38-5.18s.46-3.59 1.38-5.15c.92-1.55 2.15-2.79 3.71-3.72 1.55-.93 3.28-1.39 5.18-1.39s3.62.46 5.18 1.39c1.55.93 2.8 2.17 3.74 3.72s1.41 3.27 1.41 5.15v4.36h5.9v-4.36c0-1.88.46-3.59 1.39-5.15q1.395-2.325 3.72-3.72c1.55-.93 3.28-1.39 5.18-1.39s3.62.46 5.18 1.39c1.55.93 2.79 2.17 3.71 3.72s1.38 3.27 1.38 5.15-.46 3.62-1.38 5.16-2.15 2.78-3.71 3.71c-1.55.93-3.28 1.39-5.18 1.39h-4.39v5.93h4.39c1.9 0 3.62.47 5.18 1.41 1.55.94 2.79 2.18 3.71 3.74.92 1.55 1.38 3.28 1.38 5.18s-.46 3.62-1.38 5.18c-.92 1.55-2.15 2.8-3.71 3.72-1.55.93-3.28 1.39-5.18 1.39s-3.62-.46-5.18-1.39c-1.55-.93-2.8-2.17-3.72-3.72-.93-1.55-1.39-3.28-1.39-5.18v-4.36h-5.9v4.36c0 1.9-.47 3.62-1.41 5.18-.94 1.55-2.19 2.79-3.74 3.71s-3.29 1.39-5.21 1.41Zm0-32.45h4.42v-4.36c0-.81-.2-1.54-.61-2.19q-.6-.99-1.59-1.56c-.66-.38-1.4-.58-2.23-.58s-1.51.19-2.17.58c-.66.38-1.18.9-1.57 1.56s-.59 1.39-.59 2.19.2 1.54.59 2.19c.39.66.92 1.18 1.57 1.57.66.39 1.38.59 2.17.59Zm0 26.55a4.53 4.53 0 0 0 3.81-2.21c.4-.67.61-1.39.61-2.18v-4.36h-4.42c-.79 0-1.51.2-2.17.59s-1.18.92-1.57 1.57c-.39.66-.59 1.39-.59 2.19s.2 1.51.59 2.18a4.43 4.43 0 0 0 3.74 2.21Zm10.35-14.72h5.9v-5.93h-5.9zm11.81-11.83h4.39c.81 0 1.54-.2 2.2-.59s1.17-.92 1.56-1.59c.38-.67.58-1.39.58-2.18s-.2-1.54-.59-2.19a4.3 4.3 0 0 0-1.56-1.56c-.65-.38-1.37-.58-2.18-.58s-1.54.19-2.21.58q-1.005.57-1.59 1.56c-.39.66-.59 1.39-.59 2.19v4.36Zm4.39 26.55c.81-.02 1.54-.23 2.2-.62s1.17-.92 1.56-1.59c.38-.67.58-1.39.58-2.18s-.2-1.54-.59-2.19c-.39-.66-.91-1.18-1.56-1.57s-1.37-.59-2.18-.59h-4.39v4.36c0 .79.2 1.51.59 2.18q.585 1.005 1.59 1.59c.67.39 1.4.6 2.21.62ZM662.05 768.51l-4.96-4.93 18.83-18.83 18.86 18.83-4.96 4.93-13.9-13.83zm-4.85-27.4v-7.21h37.45v7.21zM698.61 779.02v-7.24h14.44l19.1-37.87h18.59v7.3h-14.38l-19.13 37.81zm31.06 0v-7.24h21.07v7.24zM778.33 741.21v-7.3c3.13 0 6.05.59 8.76 1.76s5.11 2.79 7.17 4.86 3.68 4.46 4.84 7.19c1.16 2.72 1.74 5.65 1.74 8.78s-.58 6.02-1.74 8.75a22.5 22.5 0 0 1-4.84 7.17 23 23 0 0 1-7.17 4.84c-2.71 1.17-5.64 1.76-8.76 1.76s-6.03-.58-8.75-1.76a23.3 23.3 0 0 1-7.21-4.84c-2.08-2.06-3.7-4.45-4.87-7.17s-1.76-5.64-1.76-8.75h7.29c0 2.1.39 4.07 1.18 5.92s1.88 3.47 3.28 4.88 3.03 2.5 4.87 3.3c1.85.8 3.83 1.2 5.95 1.2s4.1-.4 5.95-1.2 3.47-1.89 4.86-3.28 2.49-3.02 3.29-4.87c.8-1.86 1.2-3.83 1.2-5.93s-.39-4.1-1.18-5.95-1.88-3.47-3.29-4.87c-1.4-1.4-3.03-2.5-4.87-3.29s-3.83-1.18-5.95-1.18Zm1 11.5-15.04-14.8 15.04-14.8v29.61ZM809.17 779.02v-45.11h42.08l22.46 22.58-22.46 22.52h-42.08Zm7.23-7.06h31.82l15.41-15.47-15.41-15.5H816.4zm11.29-2.78-4.84-4.96 20.83-20.46 4.84 5-20.83 20.43Zm15.99 0-20.83-20.43 4.84-5 20.83 20.46-4.84 4.96ZM905.76 779.74l-22.64-22.64c-1.8-1.82-3-3.92-3.6-6.31-.61-2.39-.61-4.78 0-7.16q.915-3.57 3.6-6.21c1.84-1.8 3.93-2.99 6.28-3.59 2.35-.59 4.7-.59 7.05.02s4.44 1.8 6.28 3.57l3.03 2.91 2.97-2.91c1.84-1.8 3.92-2.99 6.27-3.59 2.34-.59 4.69-.6 7.04-.01s4.45 1.78 6.28 3.57q2.73 2.67 3.63 6.24c.61 2.38.61 4.77.01 7.16-.59 2.39-1.8 4.5-3.62 6.31zm0-9.99 17.62-17.68c.89-.87 1.48-1.9 1.77-3.1q.435-1.8-.03-3.57c-.31-1.18-.93-2.19-1.86-3.04-.89-.83-1.9-1.38-3.03-1.67a6.83 6.83 0 0 0-3.42.02q-1.725.435-3.12 1.83l-7.93 7.66-7.93-7.66q-1.365-1.365-3.09-1.83a6.9 6.9 0 0 0-3.47-.05c-1.16.28-2.21.88-3.16 1.79-.89.85-1.47 1.86-1.76 3.04-.28 1.18-.28 2.36.01 3.53q.435 1.755 1.77 3.06l17.62 17.68ZM715.43 849.55l-16.65 11.99 6.6-19.56-16.71-12.05h20.46l6.3-19.56 6.36 19.56h20.4l-16.65 12.05 6.54 19.56zm0-6.36 6.69 4.78-2.63-7.93 6.87-4.93h-8.26l-2.66-8.08-2.54 8.08h-8.33l6.9 4.93-2.69 7.93 6.66-4.78ZM752.2 865.59c-1.84 0-3.49-.3-4.96-.91s-2.64-1.47-3.5-2.6-1.29-2.47-1.29-4.03c0-1.35.33-2.64 1-3.88a8.25 8.25 0 0 1 2.77-3.01c1.18-.78 2.55-1.17 4.1-1.17 1.19 0 2.3.25 3.32.74 1.02.5 1.9 1.14 2.63 1.92s1.27 1.63 1.59 2.54l7.99-.79c0 2-.63 3.84-1.88 5.54s-2.91 3.06-4.96 4.09-4.33 1.54-6.81 1.54Zm44.29-17.37-6.81.88v-24.43l-23.83 4.75v25.01l-6.81.88v-35.93l37.45-7.45v36.3Zm-13.65 11.17c-1.84 0-3.49-.3-4.96-.91s-2.64-1.47-3.5-2.6-1.29-2.47-1.29-4.03c0-1.37.33-2.67 1-3.89a8.5 8.5 0 0 1 2.77-3.01c1.18-.79 2.55-1.18 4.1-1.18 1.19 0 2.3.25 3.32.74 1.02.5 1.9 1.14 2.63 1.94.74.8 1.27 1.65 1.59 2.56l7.99-.79c0 2-.63 3.84-1.88 5.54s-2.91 3.06-4.96 4.09-4.33 1.54-6.81 1.54M810.22 865.59c-1.84 0-3.49-.3-4.96-.91s-2.64-1.47-3.5-2.6-1.29-2.47-1.29-4.03c0-1.35.33-2.64 1-3.88a8.25 8.25 0 0 1 2.77-3.01c1.18-.78 2.55-1.17 4.1-1.17 1.19 0 2.3.25 3.32.74 1.02.5 1.9 1.14 2.63 1.92s1.27 1.63 1.59 2.54l7.99-.79c0 2-.63 3.84-1.88 5.54s-2.91 3.06-4.96 4.09-4.33 1.54-6.81 1.54Zm6.84-10.29v-39.29h8.42q3.36 0 6.3 1.26t5.16 3.48c1.48 1.48 2.64 3.2 3.48 5.15s1.26 4.03 1.26 6.25-.41 4.16-1.23 6.07-1.87 3.56-3.16 4.95l-4.78-4.27c.81-.87 1.46-1.89 1.95-3.07s.74-2.41.74-3.68c0-1.82-.44-3.46-1.32-4.93a10.14 10.14 0 0 0-3.51-3.53q-2.19-1.32-4.89-1.32h-1.6v32.06l-6.81.88ZM870.45 861.81c-3.21 0-6.22-.6-9.02-1.8s-5.28-2.87-7.42-5.01a23.4 23.4 0 0 1-5.01-7.42c-1.2-2.8-1.8-5.81-1.8-9.02s.6-6.22 1.8-9.02 2.87-5.28 5.01-7.42a23.4 23.4 0 0 1 7.42-5.01c2.81-1.2 5.81-1.8 9.02-1.8s6.22.6 9.02 1.8 5.28 2.87 7.42 5.01a23.4 23.4 0 0 1 5.01 7.42c1.2 2.81 1.8 5.81 1.8 9.02s-.6 6.22-1.8 9.02a23.4 23.4 0 0 1-5.01 7.42 23.4 23.4 0 0 1-7.42 5.01c-2.8 1.2-5.81 1.8-9.02 1.8m0-7.18c2.22 0 4.3-.41 6.24-1.24s3.65-1.98 5.13-3.47 2.64-3.19 3.47-5.13 1.24-4.02 1.24-6.24-.41-4.3-1.24-6.24-1.98-3.65-3.47-5.13-3.19-2.64-5.13-3.47-4.02-1.24-6.24-1.24-4.3.41-6.24 1.24-3.65 1.98-5.13 3.47a16.2 16.2 0 0 0-3.47 5.13c-.83 1.94-1.24 4.02-1.24 6.24s.41 4.3 1.24 6.24 1.98 3.65 3.47 5.13a16.2 16.2 0 0 0 5.13 3.47c1.94.83 4.02 1.24 6.24 1.24m-12.29-16.07q0-3.45 1.68-6.27c1.68-2.82 2.63-3.38 4.53-4.51s4-1.7 6.3-1.7c2.02 0 3.88.44 5.58 1.33 1.71.89 3.11 2.08 4.21 3.59q1.65 2.25 2.01 5.13h-6.42c-.24-1.15-.88-2.09-1.91-2.82s-2.19-1.09-3.48-1.09c-1.15 0-2.21.28-3.18.85s-1.74 1.33-2.32 2.29-.86 2.02-.86 3.19.29 2.21.86 3.16c.58.96 1.35 1.73 2.32 2.3.97.58 2.03.86 3.18.86 1.29 0 2.42-.36 3.38-1.09s1.56-1.65 1.8-2.79h6.39c-.22 1.9-.87 3.6-1.94 5.12a11.64 11.64 0 0 1-4.1 3.59c-1.66.88-3.51 1.32-5.52 1.32q-3.45 0-6.3-1.68c-1.9-1.12-3.41-2.62-4.53-4.51s-1.68-3.98-1.68-6.28ZM916.9 850.64c-2.42 0-4.7-.46-6.83-1.38s-4-2.18-5.6-3.8c-1.6-1.61-2.87-3.49-3.78-5.62-.92-2.13-1.38-4.4-1.38-6.83s.46-4.7 1.38-6.83 2.18-4 3.78-5.62c1.61-1.61 3.47-2.88 5.6-3.8s4.4-1.38 6.83-1.38 4.73.46 6.86 1.38 4 2.19 5.62 3.8c1.61 1.62 2.88 3.49 3.78 5.62.91 2.13 1.36 4.4 1.36 6.83s-.45 4.7-1.36 6.83-2.17 4-3.78 5.62-3.49 2.88-5.62 3.8-4.42 1.38-6.86 1.38m0-4.63c2.4 0 4.59-.58 6.55-1.76a13.15 13.15 0 0 0 4.69-4.71c1.16-1.97 1.74-4.14 1.74-6.52s-.59-4.58-1.76-6.54a13.4 13.4 0 0 0-4.69-4.69c-1.96-1.17-4.14-1.76-6.54-1.76s-4.56.59-6.52 1.76a13.4 13.4 0 0 0-4.71 4.69c-1.17 1.96-1.76 4.13-1.76 6.51s.58 4.59 1.76 6.55q1.755 2.955 4.71 4.71c1.97 1.17 4.14 1.76 6.52 1.76Zm-6.35-5v-16.23h7.96c1.01 0 1.94.21 2.79.62q1.275.615 2.04 1.8c.51.79.77 1.76.77 2.91s-.27 2.13-.8 2.95-1.24 1.43-2.1 1.85c-.87.41-1.83.62-2.88.62h-5.48v-2.75h4.57c.61 0 1.14-.21 1.59-.64.46-.42.68-1.07.68-1.94s-.23-1.45-.68-1.82q-.675-.54-1.56-.54h-2.72v13.17zm9.47 0-3.48-7.51h4.36l3.75 7.51zM668.87 943.78q-2.205 0-3.72-1.5c-1.01-1-1.51-2.23-1.51-3.71s.5-2.71 1.51-3.71q1.515-1.5 3.72-1.5c2.205 0 2.71.5 3.72 1.5s1.51 2.24 1.51 3.71-.5 2.71-1.51 3.71q-1.515 1.5-3.72 1.5m20.7 0q-2.205 0-3.72-1.5c-1.01-1-1.51-2.23-1.51-3.71s.5-2.71 1.51-3.71q1.515-1.5 3.72-1.5c2.205 0 2.71.5 3.72 1.5s1.51 2.24 1.51 3.71-.5 2.71-1.51 3.71q-1.515 1.5-3.72 1.5m20.71 0q-2.205 0-3.72-1.5c-1.01-1-1.51-2.23-1.51-3.71s.5-2.71 1.51-3.71q1.515-1.5 3.72-1.5c2.205 0 2.71.5 3.72 1.5s1.51 2.24 1.51 3.71-.5 2.71-1.51 3.71q-1.515 1.5-3.72 1.5M720.6 916.75l-2.06-18.65h8.9l-1.97 18.65h-4.88Zm15.47 0-2.06-18.65h8.9l-1.97 18.65zM775.39 956.16c-4.64 0-8.77-.64-12.4-1.91s-6.7-3.13-9.22-5.57-4.43-5.43-5.74-8.98q-1.95-5.31-1.95-12.12c0-6.81.63-8.32 1.89-11.88s3.12-6.63 5.59-9.22c2.46-2.58 5.5-4.57 9.13-5.96s7.78-2.09 12.46-2.09q6.57 0 11.79 1.95c3.48 1.3 6.45 3.12 8.9 5.46s4.32 5.09 5.62 8.25c1.29 3.16 1.94 6.59 1.94 10.31 0 2.52-.23 4.87-.7 7.05s-1.2 4.09-2.19 5.72c-1 1.63-2.29 2.91-3.88 3.83-1.58.92-3.51 1.38-5.77 1.38-1.31 0-2.55-.18-3.72-.53s-2.15-.91-2.94-1.66c-.79-.76-1.28-1.71-1.48-2.86h-.24c-.54 1.51-1.61 2.74-3.19 3.68s-3.57 1.41-5.95 1.41c-2.76 0-5.12-.64-7.05-1.91s-3.42-3.04-4.44-5.31q-1.53-3.405-1.53-7.92c0-4.515.55-5.59 1.67-7.86 1.11-2.27 2.66-4.05 4.65-5.33s4.28-1.92 6.89-1.92c1.98 0 3.68.35 5.1 1.06s2.43 1.62 3.01 2.72h.33v-3.09h6.24v20.43c0 .97.22 1.74.67 2.3.44.57 1.13.85 2.06.85q1.905 0 3.03-1.23c.75-.82 1.28-2.07 1.6-3.75.32-1.69.48-3.84.48-6.46 0-2.95-.42-5.63-1.27-8.04s-2.12-4.48-3.81-6.22c-1.7-1.74-3.81-3.07-6.36-4.01-2.54-.94-5.51-1.41-8.9-1.41-3.57 0-6.73.5-9.46 1.5-2.74 1-5.03 2.45-6.89 4.34-1.86 1.9-3.25 4.21-4.19 6.95s-1.41 5.83-1.41 9.28.48 6.62 1.44 9.34c.96 2.71 2.38 4.99 4.27 6.84s4.22 3.24 6.99 4.19c2.78.95 5.99 1.42 9.64 1.42 1.65 0 3.24-.12 4.75-.36s2.9-.54 4.15-.91c1.25-.36 2.29-.72 3.12-1.06l2.39 6.3c-.99.48-2.27.96-3.84 1.42s-3.32.84-5.24 1.13-3.93.44-6.02.44Zm-1.21-20.19c1.67 0 3.06-.33 4.15-1s1.9-1.65 2.44-2.97c.53-1.31.8-2.93.8-4.84s-.28-3.5-.83-4.69-1.38-2.06-2.47-2.6-2.42-.82-4-.82-2.84.34-3.92 1.03-1.9 1.63-2.47 2.85-.85 2.61-.85 4.21c0 1.7.26 3.21.77 4.54s1.3 2.38 2.36 3.15 2.4 1.15 4.01 1.15ZM808.67 916.87l2.66-18.77h9.08l-5.57 18.77h-6.18Zm13.71 0 2.66-18.77h9.08l-5.57 18.77h-6.18ZM838.65 935.09v-19.74l16.29 9.87zM861.79 928.95v-7.48l30.85-13.74v8.75l-21.25 8.66.27-.48v1.09l-.27-.42 21.25 8.63v8.69l-30.85-13.68ZM932.4 928.95l-30.85 13.68v-8.69l21.28-8.63-.27.42v-1.09l.27.48-21.28-8.66v-8.75l30.85 13.74v7.48ZM172.53 60.55l-53.08 84.98c-2.63 4.36-5.35 9.09-8.17 14.2s-5.67 10.78-8.57 17.02c-1.42 3.06-2.84 6.31-4.27 9.75.19-2.81.38-5.67.55-8.62.41-7.06.77-13.82 1.07-20.29.3-6.46.45-11.95.45-16.45V60.55H65.35v167.93h38.43l48.12-77.09c3.68-5.78 6.99-11.4 9.92-16.85s6.05-11.46 9.35-18.03c2.02-4.03 4.28-8.55 6.76-13.55-.26 4.53-.52 8.96-.78 13.27-.45 7.44-.81 14.18-1.07 20.23q-.39 9.075-.39 14.82v77.2h35.16V60.55zM319.52 102.47v47.67h-47v-47.67h-33.81v126h33.81v-51.39h47v51.39h33.81v-126zM407.9 228.47v-99.4h-39.78v-26.6h113.27v26.6h-39.67v99.4h-33.81ZM609.21 164.8c0-10.82-1.52-20.21-4.56-28.18-3.04-7.96-7.27-14.59-12.68-19.89s-11.68-9.26-18.82-11.89-14.84-3.94-23.1-3.94c-12.25 0-22.92 2.74-32.01 8.23s-16.12 13.11-21.08 22.88-7.44 21.15-7.44 34.15 2.5 24.79 7.5 34.49c5 9.69 12.15 17.17 21.47 22.43s20.4 7.89 33.25 7.89c9.84 0 18.54-1.43 26.09-4.28s13.84-6.89 18.88-12.12c5.03-5.22 8.57-11.29 10.59-18.2l-30.66-5.75c-1.2 3.23-2.95 5.96-5.24 8.17-2.29 2.22-5.05 3.89-8.28 5.02s-6.84 1.69-10.82 1.69c-5.86 0-10.99-1.24-15.38-3.72s-7.82-6.2-10.26-11.16c-2.21-4.49-3.41-9.94-3.62-16.34h86.18v-9.47Zm-73.77-34.38c4.09-2.71 9.07-4.06 14.93-4.06s10.65 1.33 14.59 4 6.91 6.42 8.9 11.27c1.39 3.4 2.29 7.21 2.71 11.44h-53.41q.57-6.405 2.97-11.67c2.1-4.62 5.2-8.28 9.3-10.99ZM630.49 275.58V102.47h33.25v21.19h1.58c1.58-3.31 3.81-6.72 6.71-10.26 2.89-3.53 6.71-6.5 11.44-8.9s10.67-3.61 17.81-3.61c9.32 0 17.84 2.41 25.58 7.21 7.74 4.81 13.92 12.02 18.54 21.64s6.93 21.6 6.93 35.95-2.25 25.79-6.76 35.45-10.63 16.98-18.37 21.98-16.46 7.5-26.15 7.5c-6.84 0-12.62-1.17-17.36-3.49s-8.58-5.2-11.55-8.62-5.24-6.82-6.82-10.2h-1.01v67.28H630.5Zm60.18-72.13c5.86 0 10.8-1.61 14.82-4.85 4.02-3.23 7.06-7.7 9.13-13.41s3.1-12.25 3.1-19.61-1.03-13.86-3.1-19.5-5.09-10.07-9.07-13.3-8.94-4.85-14.88-4.85-10.71 1.56-14.76 4.68c-4.06 3.12-7.14 7.48-9.24 13.07-2.1 5.6-3.16 12.23-3.16 19.89s1.07 14.22 3.21 19.89 5.24 10.09 9.3 13.24c4.06 3.16 8.94 4.73 14.65 4.73Z"/>
</svg>
