<svg xmlns="http://www.w3.org/2000/svg" viewBox="0 0 1000 1000"><path d="m108.25 350.55-13.9-31.84h-2.4l-12.43 29.44a47.17 47.17 0 0 1-2.35 4.96 5.43 5.43 0 0 1-1.94 2.14 5.7 5.7 0 0 1-2.64.53v1.76H84.9l.02-.02v-1.76a8.63 8.63 0 0 1-2.99-.38c-.63-.25-.94-.79-.94-1.61 0-.55.07-1.05.21-1.5l.44-1.38 2.61-6.19h15.06l2.26 5.25c.39.86.65 1.57.79 2.14.14.57.21 1.07.21 1.5 0 .67-.22 1.16-.65 1.47a3.3 3.3 0 0 1-1.58.59c-.63.08-1.23.12-1.82.12v1.76h15.77v-1.76c-1.57 0-2.75-.39-3.55-1.17a13.7 13.7 0 0 1-2.49-4.05Zm-16.29-24.64 6.46 16.44H85.15l6.63-16.44h.18ZM128.77 341.52c-1.33.35-2.69.78-4.08 1.29s-2.68 1.14-3.87 1.88a9.39 9.39 0 0 0-2.87 2.73 6.98 6.98 0 0 0-1.08 3.96c0 1.88.6 3.44 1.79 4.69 1.19 1.26 2.92 1.88 5.19 1.88 1.25 0 2.35-.16 3.31-.49.96-.34 1.86-.81 2.7-1.44.84-.62 1.71-1.33 2.61-2.11h.27c.2 1.15.46 2.08.81 2.75.41.78 1.3 1.17 2.67 1.17 1.49 0 2.67-.32 3.55-.97.88-.65 1.81-1.67 2.79-3.08l-.88-.94c-.39.44-.81.79-1.26 1.06-.45.27-.95.41-1.5.41-.63 0-1.08-.18-1.35-.53-.27-.36-.41-1.14-.41-2.35v-13.31c0-3.05-.66-5.31-1.99-6.8-1.33-1.49-3.59-2.23-6.8-2.23-2.11 0-3.94.32-5.48.94a9 9 0 0 0-3.58 2.4 4.72 4.72 0 0 0-1.26 3.11c0 .98.26 1.69.79 2.14.53.45 1.08.67 1.67.67.83 0 1.46-.22 1.91-.67.44-.45.67-1.12.67-2.02 0-1.75.23-2.99.7-3.69.47-.71 1.47-1.06 3.23-1.06s3.08.53 3.96 1.61c.88 1.07 1.32 2.88 1.32 5.42v2.58a79.6 79.6 0 0 1-3.52 1Zm.67 12.45a7.7 7.7 0 0 1-3.2.76 3.93 3.93 0 0 1-3.05-1.29c-.78-.86-1.17-1.94-1.17-3.46s.49-2.75 1.47-3.69 2.25-1.7 3.81-2.29a44.79 44.79 0 0 1 4.98-1.52v9.66a12.9 12.9 0 0 1-2.84 1.83ZM150.33 352.99c-.18 1.08-.64 1.81-1.38 2.2-.75.39-1.96.59-3.64.59v1.76h16.01-.01c4.89 0 8.65-1 11.29-3.02 2.64-2.02 3.96-4.8 3.96-8.36a9.57 9.57 0 0 0-3.4-7.51c-2.27-1.99-5.89-2.99-10.85-2.99-1.09 0-2.18.03-3.25.09-1.08.06-2.1.13-3.08.21v-14.31h7.56c2.31 0 4.03.23 5.16.7a4.23 4.23 0 0 1 2.4 2.4c.47 1.14.86 2.74 1.17 4.81h1.94l-.23-10.55h-28.67v1.76c1.56 0 2.72.14 3.46.41.75.27 1.24.8 1.47 1.58.23.78.35 1.93.35 3.46v22.17c0 1.99-.08 3.53-.26 4.6Zm5.66-14.8a66.43 66.43 0 0 1 3.75-.12c3.21 0 5.81.66 7.8 1.99 1.99 1.33 2.99 3.5 2.99 6.51a9.4 9.4 0 0 1-.91 4.46c-.6 1.13-1.41 2-2.43 2.61a9.58 9.58 0 0 1-3.34 1.23 21.4 21.4 0 0 1-3.64.32c-1.44.01-2.85-.05-4.22-.17v-16.83ZM185.95 329.15a9.13 9.13 0 0 1 3.72-3.08c1.43-.63 2.86-1.1 4.31-1.41 1.4-.36 2.8-.7 4.19-1.03 1.38-.33 2.65-.76 3.78-1.29a6.98 6.98 0 0 0 2.76-2.23 6.67 6.67 0 0 0 1.11-3.84v-.32c0-.14-.02-.28-.06-.44h-1.41c-.24.98-.99 1.68-2.26 2.11a73.8 73.8 0 0 1-5.72 1.58 33.67 33.67 0 0 0-6.25 2.02c-1.9.84-3.54 2.01-4.93 3.49a14.83 14.83 0 0 0-3.2 5.81 30.7 30.7 0 0 0-1.11 8.97c0 6.33 1.13 11.02 3.4 14.07 2.27 3.05 5.43 4.57 9.5 4.57l.02.02c2.39 0 4.59-.52 6.6-1.58a11.94 11.94 0 0 0 4.87-4.84c1.23-2.17 1.85-4.92 1.85-8.24 0-2.89-.49-5.36-1.47-7.39a10.68 10.68 0 0 0-4.13-4.66c-1.78-1.07-4.03-1.61-6.42-1.61s-4.59.61-6.6 1.82-3.57 3.18-4.66 5.92h-.35l.35-2.17c.35-2.74 1.05-4.82 2.11-6.25Zm1.6 7.64c.67-1.68 1.57-2.9 2.7-3.64s2.46-1.11 3.87-1.11 2.69.38 3.84 1.14c1.16.76 2.06 2.02 2.73 3.78.67 1.76 1 4.22 1 7.15s-.34 5.25-1 6.95c-.67 1.7-1.55 2.92-2.64 3.64a6.55 6.55 0 0 1-3.69 1.08h-.02c-2.58 0-4.52-1.06-5.83-3.19s-1.96-5.13-1.96-9c0-2.85.33-5.12 1-6.8ZM215.55 353.73a2.53 2.53 0 0 1-1.64 1.64c-.81.27-2.01.41-3.61.41v1.76h18.06c4.38 0 7.81-.9 10.29-2.7s3.72-4.36 3.72-7.68c0-2.15-.5-3.9-1.52-5.25a10.38 10.38 0 0 0-3.84-3.14 17.7 17.7 0 0 0-4.84-1.52v-.24a15.53 15.53 0 0 0 5.98-2.96c1.57-1.31 2.35-3.27 2.35-5.89 0-1.96-.47-3.61-1.41-4.96-.93-1.35-2.46-2.39-4.57-3.11-2.12-.72-4.91-1.08-8.39-1.08H210.3v1.76c1.61 0 2.81.11 3.61.35.8.24 1.35.74 1.64 1.5.29.76.44 1.93.44 3.49v23.98c0 1.61-.15 2.82-.44 3.64Zm19.12-11.64c1.03 1.23 1.55 2.96 1.55 5.19 0 1.88-.32 3.36-.94 4.43a5.99 5.99 0 0 1-2.49 2.4c-1.04.53-2.18.87-3.43 1.03-1.25.15-2.5.23-3.75.23-.7.01-1.41 0-2.11-.05l-2.11-.12v-16.42h4.1c1.84 0 3.57.24 5.19.73s2.95 1.35 3.99 2.58Zm-13.29-20.61c.59-.07 1.18-.12 1.79-.14.61-.03 1.18-.03 1.73-.03 3.59 0 6.12.64 7.59 1.93 1.47 1.29 2.2 3.09 2.2 5.4 0 2.65-.66 4.6-1.99 5.83-1.33 1.23-3.77 1.85-7.33 1.85h-3.99v-14.84ZM249.15 354.59c-.19.52-.58.87-1.17 1.05-.59.17-1.45.26-2.58.26v1.64h14.73c3.4.01 6.05-.59 7.97-1.78 1.91-1.19 2.87-3.04 2.87-5.54 0-1.64-.4-2.94-1.2-3.9s-1.76-1.68-2.87-2.17a15.37 15.37 0 0 0-3.2-1.03v-.23c1.87-.43 3.4-1.16 4.57-2.2a5.54 5.54 0 0 0 1.76-4.37c0-2.11-.92-3.73-2.76-4.84-1.84-1.11-4.69-1.67-8.56-1.67H245.4v1.7c1.21 0 2.1.07 2.67.23.56.16.94.5 1.11 1.03.17.53.26 1.36.26 2.49v16.95c0 1.06-.09 1.85-.29 2.38Zm5.29-22.5h.01c.47-.07.95-.11 1.44-.11h1.26c2.85 0 4.86.37 6.01 1.11s1.73 1.97 1.73 3.69c0 1.84-.51 3.21-1.53 4.11-1.02.9-2.91 1.35-5.69 1.35h-3.23v-10.15Zm-.01 12.38h3.52c1.29 0 2.52.14 3.67.41 1.15.27 2.09.82 2.81 1.64.72.82 1.08 2.05 1.08 3.69s-.38 2.84-1.14 3.58a5.08 5.08 0 0 1-2.87 1.38 23.9 23.9 0 0 1-3.49.26 36.66 36.66 0 0 1-3.58-.11v-10.85ZM279.48 353.58c-.24.84-.73 1.42-1.47 1.73s-1.9.47-3.46.47v1.76h16.84v-1.76c-1.72 0-3.03-.16-3.93-.47-.9-.31-1.5-.88-1.79-1.7-.29-.82-.44-2-.44-3.52v-28.44h6.92c2.31 0 4.04.24 5.19.73 1.15.49 1.97 1.39 2.46 2.7s.89 3.22 1.2 5.72h1.99l-.47-11.79h-27.97v1.76c1.56 0 2.72.14 3.46.41.75.27 1.24.8 1.47 1.58.23.78.35 1.93.35 3.46v23.87c0 1.49-.11 2.65-.35 3.49ZM320.45 357.54h-.01v.01l.01-.01zM309.98 355.14c-.49.51-1.59.76-3.31.76v1.64h13.77v-1.63c-1.95 0-3.25-.24-3.87-.73-.63-.48-.94-1.59-.94-3.31v-19.88h4.69c1.61 0 2.8.24 3.58.73a4.47 4.47 0 0 1 1.76 2.49c.39 1.18.8 2.8 1.23 4.87h1.82l-.23-10.26h-21.81v1.7a10 10 0 0 1 2.73.26c.56.17.92.54 1.08 1.11.15.57.23 1.44.23 2.61v16.3c0 1.72-.24 2.83-.73 3.34ZM337.74 335.81a86.71 86.71 0 0 1-1.5 6.48c-.58 2.15-1.26 4.12-2.02 5.92s-1.6 3.3-2.52 4.49c-.92 1.19-1.9 1.91-2.96 2.14l-.73.12-1.03.18.18 13.6h1.8c.63-3.09 1.2-5.44 1.73-7.04.52-1.6 1.19-2.69 1.99-3.28.8-.59 1.92-.88 3.37-.88h18.59c1.52 0 2.67.31 3.43.94.76.62 1.37 1.75 1.82 3.37.45 1.62.95 3.92 1.5 6.89h1.88l.35-13.49-2.4-.06c-1.17-.04-1.99-.32-2.46-.85-.47-.52-.7-1.61-.7-3.25v-25.98c0-1.22.16-2.14.47-2.76s.88-1.05 1.7-1.26c.82-.21 2-.32 3.52-.32v-1.76H333.9v1.76c1.52 0 2.65.11 3.37.35.73.23 1.19.63 1.41 1.2a7 7 0 0 1 .32 2.37c0 1.37-.11 3.03-.32 4.96a84.47 84.47 0 0 1-.94 6.16Zm2.25 3.65a89.18 89.18 0 0 0 2.11-17.86h10.56v33.42H333.9v-.35a30.49 30.49 0 0 0 3.58-6.79 59.68 59.68 0 0 0 2.52-8.42ZM376.34 332.82c.19.49.29 1.18.29 2.08 0 1.45-.11 3.04-.35 4.78s-.58 3.49-1.03 5.25-1.02 3.4-1.7 4.9c-.69 1.5-1.47 2.75-2.35 3.75a5.16 5.16 0 0 1-3.66 1.88 6 6 0 0 0-.59.09l.18 12.31h1.95c.55-2.79 1.02-4.93 1.41-6.43.39-1.51.91-2.53 1.58-3.08.67-.55 1.68-.82 3.05-.82h13.19a5.7 5.7 0 0 1 2.43.44c.61.29 1.11.81 1.5 1.55.39.75.75 1.79 1.06 3.14.32 1.35.67 3.08 1.06 5.19h1.93l.29-12.31-2.35-.06c-.86-.03-1.49-.26-1.88-.67-.39-.42-.59-1.34-.59-2.79v-15.83c0-1.29.04-2.26.12-2.93.08-.67.4-1.13.97-1.38s1.57-.38 3.02-.38v-1.7h-23.81v1.7c1.37 0 2.38.09 3.02.29s1.06.54 1.26 1.03Zm2.25 7.36c.33-2.73.52-5.45.56-8.15h7.68v23.28h-13.37v-.23c1.48-2.15 2.63-4.49 3.43-7.01s1.37-5.15 1.7-7.89ZM106.54 439.64h-.01v.02l.01-.02z"/><path d="M79.62 435.92c-.31.73-.87 1.2-1.67 1.41-.8.21-1.94.32-3.43.32v1.99h32.01l1.58-11.06h-2.17a32 32 0 0 1-1.61 4.13 6.76 6.76 0 0 1-1.96 2.49c-.79.59-1.85 1-3.2 1.23-1.35.23-3.1.35-5.25.35h-7.39v-15.66h6.33c1.87 0 3.27.12 4.19.35.92.24 1.54.74 1.85 1.5.31.77.47 1.97.47 3.61h2.17v-13.6h-2.17c0 1.57-.16 2.75-.47 3.55-.32.8-.93 1.34-1.85 1.61s-2.31.41-4.19.41h-6.33v-14.43h8.33c2.35 0 4.14.19 5.37.56a4.19 4.19 0 0 1 2.64 2.05c.53 1 .93 2.43 1.2 4.31h2.23l-.35-9.91H74.52v1.99c1.61 0 2.8.14 3.58.41.78.27 1.31.8 1.58 1.58s.41 1.91.41 3.4v24.04c0 1.52-.16 2.65-.47 3.37ZM113.09 417.59c-1.17 2.15-1.76 4.87-1.76 8.15s.53 5.78 1.61 7.95 2.58 3.81 4.52 4.9a13.33 13.33 0 0 0 6.65 1.64c1.71 0 3.19-.22 4.41-.67a9.81 9.81 0 0 0 3.17-1.85c.88-.78 1.65-1.69 2.32-2.73a35.04 35.04 0 0 0 1.82-3.2l-1.23-.94a17.3 17.3 0 0 1-2.02 2.23 8.03 8.03 0 0 1-2.64 1.58c-1.04.4-2.25.59-3.9.59s-3.13-.4-4.46-1.2a8.2 8.2 0 0 1-3.17-3.75 15.3 15.3 0 0 1-1.15-6.07h18.35c-.12-4.23-1.2-7.45-3.23-9.68-2.03-2.23-4.73-3.34-8.09-3.34-2.39 0-4.56.52-6.51 1.58s-3.52 2.66-4.69 4.81Zm5.65-1.4a5 5 0 0 1 4.66-2.58c1.29 0 2.34.37 3.14 1.11s1.4 1.74 1.79 2.99c.4 1.25.61 2.63.65 4.16h-11.67c.16-2.4.63-4.3 1.43-5.68ZM124.12 440.23h-.03.03ZM169.34 439.64h-.01v.02l.01-.02z"/><path d="M137.32 403.12c1.61 0 2.8.14 3.58.41.78.27 1.31.8 1.58 1.58s.41 1.91.41 3.4v24.04c0 1.52-.16 2.65-.47 3.37-.31.73-.87 1.2-1.67 1.41-.8.21-1.94.32-3.43.32v1.99h32.01l1.58-11.06h-2.17a32 32 0 0 1-1.61 4.13 6.76 6.76 0 0 1-1.96 2.49c-.79.59-1.85 1-3.2 1.23-1.35.23-3.1.35-5.25.35h-7.39v-15.66h6.33c1.87 0 3.27.12 4.19.35.92.24 1.54.74 1.85 1.5.31.77.47 1.97.47 3.61h2.17v-13.6h-2.17c0 1.57-.16 2.75-.47 3.55-.32.8-.93 1.34-1.85 1.61s-2.31.41-4.19.41h-6.33v-14.43h8.33c2.35 0 4.14.19 5.37.56a4.19 4.19 0 0 1 2.64 2.05c.53 1 .93 2.43 1.2 4.31h2.23l-.35-9.91h-31.43v1.99ZM145.47 397.33a3.4 3.4 0 0 0 2.58 1.03c1.14 0 2.03-.35 2.7-1.03s1-1.58 1-2.55-.34-1.81-1-2.49c-.67-.69-1.6-1.03-2.7-1.03s-1.96.35-2.61 1.03c-.65.68-.97 1.57-.97 2.55s.33 1.81 1 2.49ZM158.4 392.29c-.65.68-.97 1.57-.97 2.55s.33 1.81 1 2.49a3.4 3.4 0 0 0 2.58 1.03 3.6 3.6 0 0 0 2.7-1.03c.67-.68 1-1.58 1-2.55s-.34-1.81-1-2.49c-.67-.69-1.6-1.03-2.7-1.03s-1.96.35-2.61 1.03ZM177.68 400.88c-.65.7-.97 1.56-.97 2.58s.33 1.88 1 2.58c.67.71 1.55 1.06 2.64 1.06s2.03-.36 2.7-1.06c.67-.7 1-1.56 1-2.58s-.34-1.88-1-2.58c-.67-.71-1.56-1.06-2.7-1.06s-2.02.36-2.67 1.06ZM186.92 440.23h-.01.02ZM190.61 400.88c-.67.7-1 1.56-1 2.58s.33 1.88 1 2.58c.67.71 1.55 1.06 2.64 1.06s2.03-.36 2.7-1.06 1-1.56 1-2.58-.34-1.88-1-2.58c-.67-.71-1.6-1.06-2.7-1.06s-1.98.36-2.64 1.06ZM174.14 425.74c0 3.13.53 5.78 1.61 7.95a11.09 11.09 0 0 0 4.51 4.9 13.35 13.35 0 0 0 6.65 1.64c1.71 0 3.19-.22 4.42-.67a9.81 9.81 0 0 0 3.17-1.85c.88-.78 1.65-1.69 2.32-2.73a35.04 35.04 0 0 0 1.82-3.2l-1.23-.94c-.62.82-1.3 1.57-2.02 2.23a8.03 8.03 0 0 1-2.64 1.58c-1.04.4-2.25.59-3.9.59s-3.13-.4-4.46-1.2a8.2 8.2 0 0 1-3.17-3.75 15.3 15.3 0 0 1-1.15-6.07h18.35c-.12-4.23-1.2-7.45-3.23-9.68-2.03-2.23-4.73-3.34-8.09-3.34-2.39 0-4.56.52-6.51 1.58a11.64 11.64 0 0 0-4.69 4.81c-1.17 2.15-1.76 4.87-1.76 8.15Zm7.41-9.55a5 5 0 0 1 4.66-2.58c1.29 0 2.34.37 3.14 1.11s1.4 1.74 1.79 2.99c.4 1.25.61 2.63.65 4.16h-11.67c.16-2.4.63-4.3 1.43-5.68ZM205.44 400.53c-1.29 0-2.41.28-3.37.85s-1.44 1.55-1.44 2.96c0 .78.25 1.51.76 2.17.51.67 1.27 1 2.29 1 .62 0 1.14-.14 1.55-.41.41-.27.79-.54 1.14-.79.35-.25.78-.38 1.29-.38.67 0 1.29.33 1.88 1 .58.67 1.11 2 1.58 3.99.47 1.8.96 3.37 1.47 4.72a9.54 9.54 0 0 0 2.87 3.84v.35c-.86.78-1.74 1.79-2.64 3.02a62.75 62.75 0 0 0-3.05 4.66c-1.13 1.88-2.5 4.16-4.1 6.86-.54.9-1.05 1.58-1.52 2.05-.47.47-1.08.78-1.82.94-.75.15-1.8.25-3.17.29v1.99h10.86l3.58-6.66a203 203 0 0 1 5.4-9.53c.54-.86 1.07-1.45 1.58-1.76s1.29-.47 2.35-.47h1.94v10.5c0 1.68-.11 2.95-.32 3.81a2.27 2.27 0 0 1-1.5 1.7c-.78.27-2.03.41-3.75.41v1.99h17.3v-1.99c-1.68 0-2.92-.16-3.72-.47a2.3 2.3 0 0 1-1.5-1.73c-.19-.84-.29-2.08-.29-3.72v-10.5h1.99c1.06 0 1.83.16 2.32.47.48.31 1 .9 1.55 1.76a182.95 182.95 0 0 1 5.4 9.53c.98 1.82 2.15 4.04 3.52 6.66h19.97c.7-1.33 1.43-2.66 2.2-3.99l2.29-3.93 2.2-3.75c.39-.62.78-1.02 1.17-1.2.39-.17.88-.26 1.47-.26h1.58v7.15c0 1.17-.07 2.06-.23 2.67-.16.6-.5 1-1.03 1.17a8.8 8.8 0 0 1-2.49.26v1.88h13.31v-1.88a8.48 8.48 0 0 1-2.46-.26c-.55-.17-.9-.56-1.06-1.17-.15-.61-.23-1.5-.23-2.67v-7.15h1.64c.59 0 1.08.08 1.47.26.39.17.78.58 1.17 1.2.74 1.21 1.49 2.46 2.23 3.75l2.26 3.93c.76 1.33 1.5 2.66 2.2 3.99h9.21v-1.82a15.75 15.75 0 0 1-2.49-.24 2.54 2.54 0 0 1-1.35-.67 9.72 9.72 0 0 1-1.14-1.5 419.52 419.52 0 0 0-3.4-5.22c-.86-1.29-1.57-2.31-2.14-3.05s-1.17-1.4-1.79-1.99v-.18c.86-.9 1.46-1.77 1.79-2.61s.64-1.89.91-3.14c.31-1.29.68-2.14 1.11-2.55.43-.41.88-.62 1.35-.62.43 0 .8.11 1.11.32l1.03.67c.37.23.81.35 1.32.35.9 0 1.58-.26 2.05-.79.47-.52.7-1.17.7-1.96s-.21-1.42-.62-1.91a3.47 3.47 0 0 0-1.52-1.06 5.92 5.92 0 0 0-1.96-.32c-1.45 0-2.64.39-3.58 1.17a8.2 8.2 0 0 0-2.2 2.87 21.28 21.28 0 0 0-1.26 3.4c-.59 2.07-1.23 3.51-1.91 4.31-.69.8-1.73 1.2-3.14 1.2h-3.05v-6.45c0-1.05.08-1.87.26-2.46a1.9 1.9 0 0 1 1.08-1.26 5.93 5.93 0 0 1 2.4-.38v-1.88h-13.25v1.88c1.05 0 1.85.13 2.4.38s.9.67 1.06 1.26c.15.58.23 1.41.23 2.46v6.45h-2.99c-1.41 0-2.47-.4-3.17-1.2-.71-.8-1.33-2.24-1.88-4.31-.27-1.13-.68-2.27-1.23-3.4s-1.28-2.09-2.2-2.87a5.39 5.39 0 0 0-3.61-1.17c-.66 0-1.31.11-1.96.32-.64.22-1.16.57-1.55 1.06s-.59 1.13-.59 1.91.23 1.43.7 1.96 1.15.79 2.05.79c.55 0 1-.12 1.35-.35.35-.23.69-.45 1-.67.31-.21.68-.32 1.11-.32.47 0 .92.21 1.35.62s.79 1.26 1.06 2.55c.31 1.25.64 2.3.97 3.14.33.84.91 1.71 1.73 2.61v.18c-.59.58-1.16 1.25-1.73 1.99s-1.27 1.76-2.11 3.05l-3.43 5.22a9.24 9.24 0 0 1-1.14 1.5 2.6 2.6 0 0 1-1.32.67c-.52.11-1.32.19-2.37.23v-.16a18.98 18.98 0 0 1-3.14-.29 3.42 3.42 0 0 1-1.82-.94 14.7 14.7 0 0 1-1.55-2.05c-1.6-2.74-2.98-5.04-4.13-6.92a85.77 85.77 0 0 0-3.02-4.63 16.86 16.86 0 0 0-2.64-2.99v-.35a9.72 9.72 0 0 0 2.87-3.84c.51-1.35 1-2.92 1.47-4.72.47-2 1-3.32 1.61-3.99.61-.67 1.22-1 1.85-1 .51 0 .94.13 1.29.38.35.25.73.52 1.14.79.41.27.92.41 1.55.41 1.06 0 1.82-.33 2.29-1 .47-.66.7-1.39.7-2.17 0-1.41-.47-2.39-1.41-2.96s-2.05-.85-3.34-.85c-1.45 0-2.67.33-3.67.97a8 8 0 0 0-2.46 2.52 16.27 16.27 0 0 0-1.58 3.37 40.07 40.07 0 0 0-1.03 3.52c-.71 2.73-1.47 4.73-2.29 5.98-.82 1.26-2.11 1.88-3.87 1.88h-4.52v-9.68c0-1.53.08-2.73.26-3.61.18-.88.65-1.5 1.41-1.85.76-.35 2.04-.53 3.84-.53v-1.99h-17.3v1.99c1.8 0 3.09.18 3.87.53.78.35 1.26.97 1.44 1.85.17.88.26 2.09.26 3.61v9.68h-4.52c-1.72 0-3-.63-3.84-1.88-.84-1.25-1.62-3.24-2.32-5.98a42.66 42.66 0 0 0-1.03-3.52 16 16 0 0 0-1.58-3.37 8 8 0 0 0-2.46-2.52c-1-.65-2.22-.97-3.67-.97ZM319.4 435.44a13.2 13.2 0 0 1-4.31.67 13.96 13.96 0 0 1-10.79-4.92l-1.64 1.41a15.06 15.06 0 0 0 6.16 5.86 17.76 17.76 0 0 0 8.15 1.94l.03.03c1.68 0 3.34-.22 4.98-.65a15.53 15.53 0 0 0 4.52-1.96 10.16 10.16 0 0 0 3.28-3.43 9.8 9.8 0 0 0 1.23-5.04c0-1.68-.32-3.13-.97-4.34a9 9 0 0 0-2.55-3.02c-1.06-.8-2.2-1.42-3.43-1.85s-2.44-.72-3.61-.88v-.24c.9-.31 1.85-.7 2.87-1.17a15.77 15.77 0 0 0 2.93-1.79 8.11 8.11 0 0 0 3.23-6.72c0-1.92-.55-3.53-1.67-4.84s-2.61-2.28-4.49-2.93a19.21 19.21 0 0 0-6.33-.97c-2.58 0-4.63.28-6.13.85a25.92 25.92 0 0 0-3.2 1.38h-.12l-1.41-1.93h-1.76l-.12 12.84h2.11c.51-3.36 1.48-5.95 2.93-7.77s3.52-2.73 6.22-2.73c2.39 0 4.15.67 5.28 2.02 1.13 1.34 1.7 3.06 1.7 5.01s-.43 3.49-1.29 4.6a6.8 6.8 0 0 1-3.55 2.35c-1.51.45-3.28.67-5.31.67h-1.06v3.28h1.52c3.64 0 6.37.69 8.21 2.08a6.87 6.87 0 0 1 2.76 5.83c0 1.72-.4 3.09-1.2 4.13a6.64 6.64 0 0 1-3.17 2.23ZM346.54 436.51c-.96.29-2.01.44-3.14.44-1.6 0-3.06-.28-4.37-.85a11.25 11.25 0 0 1-3.61-2.55l-1.35 1.17a10.06 10.06 0 0 0 4.34 4.1c1.87.94 3.96 1.41 6.27 1.41h.03c1.25 0 2.55-.15 3.9-.45 1.35-.3 2.61-.75 3.78-1.38a8.27 8.27 0 0 0 2.87-2.46 6.17 6.17 0 0 0 1.11-3.75c0-2.07-.72-3.69-2.17-4.84s-3.19-1.91-5.22-2.26v-.23c1.14-.39 2.19-.86 3.17-1.41a6.74 6.74 0 0 0 2.35-2.14 5.7 5.7 0 0 0 .88-3.25c0-2.23-.9-3.93-2.7-5.1-1.8-1.17-4.24-1.76-7.33-1.76-2.11 0-3.72.21-4.81.62-1.1.41-1.84.74-2.23.97h-.12l-1.23-1.35h-1.47l-.12 9.44h1.82c.43-2.42 1.11-4.27 2.05-5.54.94-1.27 2.45-1.91 4.52-1.91 1.91 0 3.29.5 4.13 1.52a5.89 5.89 0 0 1 1.26 3.87c0 2.08-.61 3.44-1.82 4.08-1.21.65-2.97.97-5.28.97h-1.52v2.76h1.88c2.15 0 3.92.41 5.31 1.23 1.39.82 2.08 2.17 2.08 4.05 0 1.33-.3 2.36-.91 3.08a4.84 4.84 0 0 1-2.35 1.52ZM384.39 403.11c1.72 0 2.97.14 3.75.41.78.27 1.29.71 1.52 1.32.23.61.37 1.38.41 2.32l-18.53 21.93h-.23v-20c0-1.53.08-2.73.26-3.61s.68-1.5 1.5-1.85c.82-.35 2.13-.53 3.93-.53v-1.99h-17.77v1.99c1.8 0 3.1.18 3.9.53.8.35 1.29.97 1.47 1.85.17.88.26 2.09.26 3.61v22.64c0 1.72-.09 3-.29 3.84-.2.84-.7 1.4-1.5 1.67s-2.08.41-3.84.41v1.99h17.71v-1.98c-1.61 0-2.81-.12-3.61-.35-.8-.23-1.33-.66-1.58-1.29a7.66 7.66 0 0 1-.44-2.58l18.59-21.99h.18v20.29c0 1.72-.11 3-.32 3.84-.22.84-.73 1.4-1.53 1.67s-2.08.41-3.84.41v1.99h17.71v-1.99c-1.72 0-2.97-.16-3.75-.47a2.37 2.37 0 0 1-1.5-1.73c-.21-.84-.32-2.08-.32-3.72V409.1c0-1.53.08-2.73.26-3.61s.67-1.5 1.47-1.85c.8-.35 2.1-.53 3.9-.53v-1.99h-17.77v1.99ZM408 437.09c-.55.45-1.66.67-3.34.67v1.88h14.07l.02-.03v-1.88c-1.57 0-2.6-.22-3.11-.67s-.76-1.26-.76-2.43l13.19-14.07h.12v13.49c0 1.56-.24 2.57-.73 3.02s-1.52.67-3.08.67v1.88h13.9v-1.88c-1.57 0-2.63-.22-3.2-.67-.57-.45-.85-1.46-.85-3.02v-16.19c0-1.21.1-2.11.32-2.7.21-.58.62-.96 1.23-1.14.6-.17 1.46-.26 2.55-.26v-1.88h-13.96v1.88c1.6 0 2.65.19 3.11.56.46.37.7 1.26.7 2.67l-13.19 14.25h-.12v-13.66c0-1.13.07-1.96.23-2.49a1.5 1.5 0 0 1 1.08-1.06 9.5 9.5 0 0 1 2.55-.26v-1.88h-14.01v1.88c1.21 0 2.11.08 2.7.26.58.18.96.53 1.14 1.06.17.53.26 1.32.26 2.38v16.6c0 1.56-.27 2.57-.82 3.02ZM92.82 473.73c.23-.33.35-.79.35-1.38 0-.82-.28-1.46-.85-1.93a3.15 3.15 0 0 0-2.08-.7 3.8 3.8 0 0 0-2.64 1.08c-.78.73-1.17 1.77-1.17 3.14 0 1.56.5 2.83 1.52 3.81a9.11 9.11 0 0 0 3.9 2.14c1.58.45 3.18.67 4.78.67h.02c1.6.01 3.19-.21 4.75-.66s2.86-1.16 3.9-2.14a5.1 5.1 0 0 0 1.55-3.87c0-1.41-.4-2.46-1.2-3.14a3.98 3.98 0 0 0-2.67-1.03c-.78 0-1.46.22-2.05.67-.59.45-.88 1.1-.88 1.96 0 .59.12 1.05.35 1.38.23.33.47.64.7.91.23.27.35.66.35 1.17 0 .28-.11.6-.32.97-.22.38-.67.7-1.35.97-.69.27-1.73.41-3.14.41s-2.47-.14-3.17-.41c-.71-.28-1.17-.6-1.38-.97a2.14 2.14 0 0 1-.32-1.03c0-.47.12-.84.35-1.11a12 12 0 0 0 .7-.91ZM113.49 487.87c.18-.88.66-1.51 1.44-1.88.78-.37 2.05-.56 3.81-.56v-2.23h-18.65v2.23c1.56 0 2.74.14 3.52.41.78.27 1.31.7 1.58 1.29.27.59.43 1.35.47 2.29l-17.94 20.7h-.18v-18.65c0-1.53.08-2.73.26-3.61s.67-1.51 1.47-1.88 2.08-.56 3.84-.56v-2.23H74.46v2.23c1.76 0 3.03.19 3.81.56.79.37 1.27.99 1.47 1.85.19.86.29 2.08.29 3.64v22.11c0 1.68-.11 2.94-.32 3.78a2.33 2.33 0 0 1-1.5 1.7c-.78.29-2.03.44-3.75.44v2.23h18.48v-2.22c-1.57 0-2.74-.13-3.52-.38a2.23 2.23 0 0 1-1.52-1.41 9.21 9.21 0 0 1-.35-2.84l17.89-20.76h.29v19.47c0 1.68-.11 2.94-.32 3.78a2.33 2.33 0 0 1-1.5 1.7c-.78.29-2.05.44-3.81.44v2.23h18.53v-2.23c-1.69 0-2.91-.16-3.67-.47a2.32 2.32 0 0 1-1.44-1.73c-.19-.84-.29-2.08-.29-3.72v-22.11c0-1.53.08-2.73.26-3.61ZM151.3 497.49c.21-.58.62-.96 1.23-1.14a9.91 9.91 0 0 1 2.55-.26v-2.11h-15.07v2.11c1.6 0 2.64.19 3.11.56.47.37.7 1.26.7 2.67l-12.67 13.55h-.12v-12.96c0-1.13.07-1.96.23-2.49a1.5 1.5 0 0 1 1.08-1.05 9.5 9.5 0 0 1 2.55-.26V494H119.7v2.11c1.21 0 2.12.08 2.73.26.6.17 1 .52 1.2 1.05.19.53.29 1.32.29 2.38v16.13c0 1.56-.28 2.57-.85 3.02s-1.71.67-3.43.67v2.11h15.25l.02-.03v-2.11c-1.57 0-2.6-.22-3.11-.67s-.76-1.26-.76-2.43l12.67-13.37h.12v12.78c0 1.56-.24 2.57-.73 3.02-.49.45-1.52.67-3.08.67v2.11h15.01v-2.11c-1.57 0-2.63-.22-3.2-.67s-.85-1.46-.85-3.02v-15.71c0-1.21.11-2.11.32-2.7ZM133.67 484.23c.23-.37.35-.81.35-1.32 0-.85-.27-1.51-.82-1.96s-1.23-.67-2.05-.67a4.1 4.1 0 0 0-2.79 1.05c-.8.7-1.2 1.72-1.2 3.05 0 1.52.51 2.75 1.55 3.69a9.18 9.18 0 0 0 3.9 2.02c1.56.41 3.17.62 4.81.62h.02c1.6 0 3.19-.21 4.75-.62a9.18 9.18 0 0 0 3.9-2.02 4.75 4.75 0 0 0 1.55-3.69c0-1.41-.41-2.44-1.23-3.11-.82-.67-1.72-1-2.7-1a3.6 3.6 0 0 0-2.11.62c-.59.41-.88 1.08-.88 2.02 0 .55.12 1 .35 1.35.23.35.47.66.7.91.23.26.35.56.35.91 0 .23-.11.53-.32.88-.22.35-.66.67-1.32.94-.67.27-1.68.41-3.05.41s-2.41-.14-3.11-.41c-.71-.27-1.17-.59-1.38-.94a1.86 1.86 0 0 1-.32-.88c0-.31.11-.61.35-.88.23-.28.47-.6.7-.97ZM161.06 517.27c-.18.86-.61 1.45-1.29 1.76-.69.31-1.87.47-3.55.47v2.23h17.94v-2.23c-1.61 0-2.79-.14-3.55-.41a2.23 2.23 0 0 1-1.47-1.7c-.21-.86-.32-2.13-.32-3.81v-10.26h2.29c.94 0 1.63.16 2.08.47.45.31.93.9 1.44 1.76a81.55 81.55 0 0 1 2.79 4.57l2.79 4.96c1.02 1.82 2.21 4.04 3.58 6.66h12.2v-2.23a16.7 16.7 0 0 1-3.14-.32 3.93 3.93 0 0 1-1.88-.97 12 12 0 0 1-1.61-2.05c-1.76-2.82-3.22-5.13-4.37-6.95a62.08 62.08 0 0 0-3.05-4.46 17.15 17.15 0 0 0-2.67-2.84v-.41a10.56 10.56 0 0 0 2.79-3.78 32.3 32.3 0 0 0 1.44-4.72c.43-1.87.95-3.11 1.58-3.72.63-.61 1.25-.91 1.88-.91.51 0 .93.13 1.26.38.33.25.71.52 1.14.79.43.27.97.41 1.64.41 1.13 0 1.96-.36 2.49-1.06.53-.71.79-1.45.79-2.23 0-1.53-.51-2.58-1.55-3.17a7.18 7.18 0 0 0-3.61-.88c-1.48 0-2.74.33-3.78.97a8.16 8.16 0 0 0-2.58 2.52 15.57 15.57 0 0 0-1.67 3.37 32.25 32.25 0 0 0-1.06 3.52c-.47 1.8-.95 3.26-1.44 4.37a5.4 5.4 0 0 1-1.91 2.43c-.79.51-1.84.76-3.17.76h-4.69v-9.15c0-1.53.08-2.73.26-3.61s.64-1.5 1.38-1.85c.75-.35 1.96-.53 3.64-.53v-2.23h-17.94v2.23c1.68 0 2.89.18 3.61.53.72.35 1.16.96 1.32 1.82.15.86.23 2.08.23 3.64v22.17c0 1.6-.08 2.83-.26 3.69ZM229.54 519.67c-1.02-.03-1.8-.12-2.35-.26a2.9 2.9 0 0 1-1.35-.7c-.35-.33-.76-.81-1.23-1.44a113.76 113.76 0 0 0-3.28-4.98 69.76 69.76 0 0 0-2.17-2.93c-.59-.74-1.22-1.4-1.88-1.99v-.23a6.8 6.8 0 0 0 1.82-2.64c.31-.89.61-1.99.88-3.28.31-1.29.67-2.09 1.08-2.4.41-.31.85-.47 1.32-.47.43 0 .8.11 1.11.32l1.03.67c.37.23.83.35 1.38.35.98 0 1.72-.28 2.23-.85.51-.56.76-1.22.76-2.08s-.23-1.52-.7-1.99a3.7 3.7 0 0 0-1.67-.97 7.65 7.65 0 0 0-1.96-.26c-1.52 0-2.78.39-3.78 1.17a8.3 8.3 0 0 0-2.35 2.9 19.85 19.85 0 0 0-1.32 3.37c-.51 2.03-1.11 3.42-1.79 4.16-.69.74-1.69 1.11-3.02 1.11h-3.46v-5.98c0-1.09.07-1.93.21-2.52.14-.59.47-1.01 1-1.26s1.4-.38 2.61-.38V494h-14.78v2.11c1.25 0 2.14.13 2.67.38.53.25.86.67 1 1.26.14.58.21 1.43.21 2.52v15.19c0 1.22-.07 2.12-.23 2.73-.16.6-.51.99-1.06 1.17-.55.17-1.43.26-2.64.26v2.11h14.84-.01v-2.12a8.19 8.19 0 0 1-2.58-.29c-.55-.19-.89-.59-1.03-1.2s-.21-1.5-.21-2.67v-6.8h1.35c.55 0 1.02.1 1.41.29.39.19.76.58 1.11 1.17.78 1.18 1.53 2.36 2.23 3.55s1.42 2.44 2.14 3.75c.73 1.31 1.5 2.75 2.32 4.31h10.14v-2.05ZM246.37 502.09a95.25 95.25 0 0 1-1.29 6.3c-.46 1.94-.97 3.53-1.52 4.78s-1.14 2.11-1.76 2.58c-.63.47-1.24.7-1.82.7s-1.13-.15-1.64-.44c-.5-.29-1.01-.58-1.52-.85a3.72 3.72 0 0 0-1.76-.41c-1.05 0-1.86.36-2.43 1.06s-.85 1.5-.85 2.4c0 1.29.5 2.32 1.52 3.08a6.67 6.67 0 0 0 4.1 1.14l-.04.02a8.3 8.3 0 0 0 5.34-1.94c1.6-1.29 2.91-3.19 3.93-5.69a43.61 43.61 0 0 0 1.82-5.75 82.69 82.69 0 0 0 1.44-7.12c.41-2.56.76-5.18 1.03-7.86.28-2.68.45-5.29.53-7.83h9.27v28.21c0 1.44-.16 2.53-.47 3.25-.31.73-.87 1.21-1.67 1.44s-1.99.35-3.55.35v2.23h18.88v-2.23a13.5 13.5 0 0 1-3.69-.38 2.32 2.32 0 0 1-1.61-1.47c-.25-.73-.38-1.79-.38-3.2v-24.34c0-1.99.4-3.27 1.2-3.84s2.3-.85 4.49-.85v-2.23h-32.13v2.23c2.07 0 3.55.19 4.43.56.88.37 1.32 1.42 1.32 3.14a83.2 83.2 0 0 1-1.17 12.96ZM288.53 506.18a63.1 63.1 0 0 1-.91 4.31c-.35 1.4-.74 2.66-1.17 3.75-.39.9-.83 1.56-1.32 1.99s-.99.64-1.5.64c-.63 0-1.23-.2-1.82-.59a4.14 4.14 0 0 0-2.34-.59c-.67 0-1.28.23-1.85.7s-.85 1.21-.85 2.23c0 1.17.41 2.08 1.23 2.7.82.63 1.97.94 3.46.94 1.53 0 2.84-.43 3.93-1.31 1.1-.88 2.04-2.06 2.82-3.55.94-1.76 1.69-3.79 2.26-6.1s1.02-4.73 1.35-7.27c.33-2.54.55-5.01.67-7.39h6.1v20c0 1.21-.26 2.01-.79 2.4-.52.39-1.63.59-3.31.59v2.11h15.3v-2.11c-1.68 0-2.77-.21-3.28-.62s-.76-1.22-.76-2.43v-17.47c0-1.25.28-2.06.85-2.43.56-.37 1.65-.56 3.25-.56v-2.11h-25.27v2.11c1.83 0 3.08.15 3.75.44.67.29 1 1.18 1 2.67 0 .7-.07 1.66-.21 2.9a73.63 73.63 0 0 1-.59 4.05ZM359.04 487.48c.27-.78.78-1.32 1.52-1.61a8.81 8.81 0 0 1 3.11-.44v-2.23h-13.78l-11.49 28.03h-.35L326.5 483.2h-14.78v2.23c1.48 0 2.61.15 3.37.44.76.29 1.28.83 1.55 1.61.27.78.41 1.91.41 3.4v22.05c0 2-.14 3.46-.41 4.4-.27.94-.79 1.54-1.55 1.79a12 12 0 0 1-3.49.38v2.23h14.49v-2.23c-1.48 0-2.6-.13-3.34-.38-.75-.25-1.25-.85-1.5-1.79s-.38-2.41-.38-4.4v-22.4h.29l13.25 31.2h3.46l13.02-31.2h.35v24.04c0 1.33-.12 2.35-.35 3.05a2.3 2.3 0 0 1-1.47 1.47c-.74.27-1.87.41-3.4.41v2.23h17.71v-2.23a9.42 9.42 0 0 1-3.11-.41 2.6 2.6 0 0 1-1.55-1.47 8.3 8.3 0 0 1-.44-3.05v-23.75c0-1.44.14-2.56.41-3.34ZM387.38 512.36h-.29l-8.27-18.35h-12.14v2.11c1.21 0 2.12.08 2.73.26.6.17 1 .52 1.2 1.05.19.52.29 1.34.29 2.43v15.07c0 1.41-.09 2.45-.29 3.11a1.78 1.78 0 0 1-1.23 1.29c-.63.19-1.57.29-2.82.29v2.11h11.62v-2.1c-1.14 0-2-.09-2.61-.29-.61-.2-1.02-.62-1.23-1.29s-.32-1.7-.32-3.11v-14.19h.29l9.62 20.99h2.52l9.03-21.4h.29V516c0 .98-.07 1.73-.21 2.26-.14.52-.47.88-1 1.08-.53.19-1.42.29-2.67.29v2.11h15.13v-2.11c-1.8 0-2.94-.24-3.43-.73-.49-.48-.73-1.45-.73-2.9v-16.07c0-1.64.28-2.69.85-3.14.56-.44 1.67-.67 3.31-.67v-2.11h-11.84l-7.8 18.35ZM93.93 601.31c-1.61 0-2.78-.14-3.55-.41s-1.25-.83-1.44-1.67-.29-2.12-.29-3.84v-9.44h17.01v9.44c0 1.68-.09 2.95-.29 3.81s-.69 1.43-1.47 1.7-2.03.41-3.75.41v2.52h35.94v-2.35a9.04 9.04 0 0 1-2.73-.29c-.57-.19-.92-.59-1.06-1.2s-.21-1.52-.21-2.73v-6.33h11.38v6.33c0 1.22-.06 2.12-.18 2.73-.12.6-.45 1-1 1.2-.55.19-1.47.29-2.76.29v2.35h16.54v-2.35a9.63 9.63 0 0 1-2.79-.29c-.6-.19-.99-.59-1.17-1.2-.17-.61-.26-1.52-.26-2.73v-14.54c0-1.13.06-2 .18-2.61.11-.61.47-1.04 1.08-1.29.6-.25 1.59-.38 2.96-.38v-2.34h-16.54v2.34c1.29 0 2.21.13 2.76.38.55.25.88.68 1 1.29s.18 1.48.18 2.61v5.39h-11.38v-5.39c0-1.13.07-2 .21-2.61.14-.61.49-1.04 1.06-1.29s1.48-.38 2.73-.38v-2.34h-16.6v2.34c1.33 0 2.29.11 2.87.32.58.21.95.62 1.11 1.23.15.61.23 1.52.23 2.73v14.72a8.5 8.5 0 0 1-.29 2.61c-.19.56-.58.94-1.17 1.14a8.6 8.6 0 0 1-2.27.28v-.16c-1.68 0-2.91-.14-3.69-.41-.78-.27-1.29-.84-1.52-1.7s-.35-2.13-.35-3.81v-21.52c0-1.57.09-2.78.29-3.64s.69-1.48 1.47-1.85c.78-.37 2.05-.56 3.81-.56v-2.52h-19.82v2.52c1.72 0 2.96.19 3.72.56.77.38 1.25.99 1.47 1.85.21.86.32 2.08.32 3.64v8.85H88.66v-8.85c0-1.57.09-2.78.29-3.64s.68-1.48 1.44-1.85 2.02-.56 3.78-.56v-2.52h-19.7v2.52c1.76 0 3.02.19 3.78.56.76.38 1.23 1 1.41 1.88.17.88.26 2.08.26 3.61v21.52c0 1.72-.11 3-.32 3.84-.22.84-.7 1.4-1.47 1.67s-1.99.41-3.67.41v2.52h19.47v-2.52ZM167.55 602.3c2.88 1.57 6.37 2.35 10.47 2.35 4.11 0 7.6-.83 10.47-2.49a16.2 16.2 0 0 0 6.57-7.12c1.51-3.08 2.26-6.95 2.26-11.02s-.76-7.55-2.26-10.44a15.53 15.53 0 0 0-6.57-6.66c-2.88-1.55-6.44-2.32-10.47-2.32s-7.49.81-10.38 2.43a16.15 16.15 0 0 0-6.63 6.89c-1.53 2.97-2.29 6.34-2.29 10.61s.75 7.9 2.26 10.91c1.51 3.01 3.7 5.3 6.57 6.86Zm2.99-30.49c1.78-2.85 4.21-4.28 7.3-4.28 2.11 0 3.94.64 5.48 1.91 1.55 1.27 2.74 3.14 3.58 5.6a28.61 28.61 0 0 1 1.26 9.15c0 6.02-.83 10.43-2.49 13.22-1.66 2.79-4.19 4.19-7.59 4.19h-.01c-3.44 0-6-1.53-7.68-4.58-1.68-3.05-2.52-7.45-2.52-12.84s.89-9.52 2.67-12.37ZM227.42 597.53c1.09-2.28 1.64-5.09 1.64-8.41 0-4.23-1.16-7.57-3.49-10.03-2.33-2.47-5.84-3.7-10.53-3.7-3.28 0-5.99.63-8.12 1.88s-3.71 2.96-4.72 5.13-1.52 4.62-1.52 7.36c0 5.08 1.22 8.79 3.64 11.14 2.42 2.35 5.94 3.52 10.55 3.52 3.09 0 5.68-.58 7.77-1.73a11.26 11.26 0 0 0 4.78-5.16Zm-7.75-1.27a8.38 8.38 0 0 1-1.58 3.96 3.78 3.78 0 0 1-3.05 1.32c-1.91-.01-3.3-1.03-4.16-3.06s-1.29-5.14-1.29-9.32c0-3.36.36-6.03 1.08-8 .72-1.97 1.95-2.96 3.9-2.96s3.37.97 4.25 2.93c.88 1.95 1.32 4.77 1.32 8.44 0 2.7-.16 4.93-.47 6.69ZM258.65 599.49c-.27.82-.8 1.33-1.58 1.53-.78.19-1.92.29-3.4.29v2.52h19.88v-2.52c-1.64 0-2.87-.12-3.69-.35s-1.37-.75-1.64-1.55c-.27-.8-.41-2.08-.41-3.84v-22.05c0-1.53.12-2.69.35-3.49.23-.8.75-1.36 1.55-1.67s2.08-.47 3.84-.47v-2.58h-43.86v2.58c1.65 0 2.87.15 3.67.44.8.29 1.34.83 1.61 1.61.27.79.41 1.96.41 3.52v22.34c0 1.64-.13 2.85-.38 3.63a2.23 2.23 0 0 1-1.61 1.53c-.82.23-2.05.35-3.69.35v2.52h19.88-.02v-2.53c-1.61 0-2.8-.13-3.58-.38a2.2 2.2 0 0 1-1.52-1.58c-.23-.8-.35-2.03-.35-3.67V568.7h14.95v26.86c0 1.8-.14 3.11-.41 3.93ZM273.9 578.44c1.33 0 2.29.11 2.87.32.58.21.95.62 1.11 1.23.15.61.23 1.52.23 2.73v14.72a8.5 8.5 0 0 1-.29 2.61c-.19.56-.58.94-1.17 1.14-.59.19-1.51.29-2.76.29v2.35h16.62v-2.35a9.04 9.04 0 0 1-2.73-.29c-.57-.19-.92-.59-1.06-1.2s-.21-1.52-.21-2.73v-18.29h11.38v18.29c0 1.22-.07 2.12-.21 2.73-.14.6-.48 1-1.03 1.2-.55.19-1.45.29-2.7.29v2.35h16.54v-2.35a9.63 9.63 0 0 1-2.79-.29c-.6-.19-.99-.59-1.17-1.2-.17-.61-.26-1.52-.26-2.73v-14.54c0-1.13.06-2 .18-2.61.11-.61.47-1.04 1.08-1.29.6-.25 1.59-.38 2.96-.38v-2.34H273.9v2.34ZM317.39 599.32a2.17 2.17 0 0 1-1.47 1.61c-.77.25-1.99.38-3.67.38v2.52h20.78v-2.51c-2 0-3.46-.13-4.4-.38s-1.54-.77-1.79-1.55-.38-1.96-.38-3.52v-8.68c.66.16 1.39.31 2.17.47.78.15 1.53.23 2.23.23 2.07 0 4.05-.2 5.95-.59a14.81 14.81 0 0 0 5.04-1.99c1.47-.94 2.63-2.2 3.49-3.78s1.29-3.54 1.29-5.89c0-2.15-.42-3.9-1.26-5.25a8.6 8.6 0 0 0-3.43-3.14 15.84 15.84 0 0 0-4.96-1.53 40.23 40.23 0 0 0-5.78-.41h-18.94v2.52c2.07 0 3.5.29 4.28.88.78.58 1.17 1.84 1.17 3.75v23.22c0 1.61-.11 2.82-.32 3.64Zm9.05-30.96a17.98 17.98 0 0 1 2.88-.18c3.01 0 5.14.64 6.39 1.91s1.88 3.25 1.88 5.95c0 2.31-.29 4.08-.88 5.31a4.65 4.65 0 0 1-2.67 2.49c-1.2.43-2.69.64-4.49.64-.86.01-1.49-.03-1.88-.11s-.8-.14-1.23-.18v-15.83ZM378.65 588.54c0-3.09-.39-5.61-1.17-7.54-.78-1.93-1.88-3.36-3.31-4.28s-3.04-1.38-4.96-1.38-3.57.44-4.96 1.32-2.84 2.09-4.37 3.61h-.29v-4.81h-3.34l-9.03 1.64v2.46c.86-.08 1.49-.12 1.88-.12.98 0 1.6.22 1.85.67s.38 1.26.38 2.43v27.62c0 1.64-.25 2.75-.76 3.34s-1.68.88-3.52.88v2.35h18.34v-2.39c-1.53 0-2.7-.12-3.52-.35s-1.39-.69-1.7-1.35-.47-1.62-.47-2.87v-6.8h.18c.9.58 1.82.99 2.76 1.2s1.96.32 3.05.32c2.39 0 4.55-.64 6.51-1.91a13.43 13.43 0 0 0 4.69-5.48 19.25 19.25 0 0 0 1.76-8.56ZM368 598.76c-.99 1.62-2.26 2.43-3.78 2.43h.01c-.78 0-1.45-.15-2.02-.46s-1.06-.7-1.47-1.17c-.41-.47-.76-.9-1.03-1.29v-14.54c.63-.63 1.39-1.27 2.29-1.91.9-.65 1.94-.97 3.11-.97 1.44 0 2.54.71 3.28 2.14.74 1.42 1.11 3.82 1.11 7.18 0 4.1-.51 6.97-1.5 8.59Z"/><path d="M365.4 616.73h-.01v.01l.01-.01zM401.68 567.76c3.01 0 5.45.96 7.33 2.87 1.88 1.92 3.21 4.72 3.99 8.39h2.81v-14.43h-2.52c-.12.43-.3.86-.53 1.29-.24.44-.69.65-1.35.65-.59 0-1.23-.17-1.91-.5a15.7 15.7 0 0 0-2.81-.97c-1.2-.31-2.83-.47-4.9-.47-3.91 0-7.36.76-10.35 2.29a16.37 16.37 0 0 0-7.01 6.83c-1.68 3.03-2.52 6.8-2.52 11.29 0 3.8.65 7.16 1.96 10.09s3.33 5.24 6.07 6.92 6.24 2.52 10.5 2.52h.01c3.13-.01 5.72-.45 7.77-1.33s3.79-2.07 5.22-3.58a43.1 43.1 0 0 0 4.08-5.01l-1.88-1.64c-1.68 1.88-3.43 3.32-5.25 4.34s-4.18 1.53-7.07 1.53c-2.74 0-5.01-.51-6.83-1.55a9.34 9.34 0 0 1-4.05-4.96c-.88-2.26-1.32-5.22-1.32-8.85 0-5.12.87-9.02 2.61-11.7s4.39-4.02 7.95-4.02ZM433.43 578.16c1.05 0 1.84.25 2.37.76s.93 1.13 1.2 1.85l.82 2.2c.27.75.67 1.37 1.2 1.88.52.51 1.3.76 2.43.76s2.12-.32 2.96-.94c.84-.62 1.26-1.58 1.26-2.87 0-1.83-.94-3.37-2.84-4.6-1.9-1.23-4.52-1.85-7.89-1.85s-6.15.65-8.36 1.96a12.12 12.12 0 0 0-4.93 5.39c-1.07 2.29-1.61 4.84-1.61 7.89s.53 5.6 1.61 7.65a10.83 10.83 0 0 0 4.57 4.66c1.98 1.05 4.39 1.58 7.01 1.58s4.74-.44 6.36-1.32 2.95-2.05 3.99-3.52a28.94 28.94 0 0 0 2.73-4.78l-1.5-.93a12.24 12.24 0 0 1-3.55 3.2 9.88 9.88 0 0 1-4.9 1.08c-3.12 0-5.23-.9-6.3-2.7-1.07-1.8-1.61-4.38-1.61-7.74 0-3.12.38-5.51 1.14-7.15s2.04-2.46 3.84-2.46ZM444.79 593.92l.02.01-.02-.01zM97.32 649.68h3.35c2.19 0 3.75.21 4.69.64a3.04 3.04 0 0 1 1.73 2.32c.21 1.12.32 2.75.32 4.9h1.82l1.76-10.14H79.5l-2.4 10.14h1.88c.66-1.6 1.24-2.91 1.73-3.93s1.04-1.81 1.67-2.38a5.33 5.33 0 0 1 2.4-1.2c.98-.23 2.29-.35 3.93-.35h3.33l-5.79 28.56a15.87 15.87 0 0 1-1.17 3.9c-.44.84-1.08 1.39-1.94 1.64s-2.11.38-3.75.38l-.35 1.76h16.72l.35-1.76c-1.65 0-2.86-.13-3.64-.38a1.81 1.81 0 0 1-1.32-1.64c-.1-.84.03-2.14.38-3.9l5.79-28.56ZM147.24 669.38l-2.99 11.38-.18.91c-.08.45-.12.91-.12 1.38 0 .86.27 1.66.82 2.38.55.72 1.56 1.08 3.05 1.08v-.02c1.06 0 2-.21 2.82-.64s1.56-.99 2.2-1.67 1.21-1.38 1.7-2.08l1.32-1.88-1.17-.88a42 42 0 0 1-1.79 1.94 3.5 3.5 0 0 1-2.61 1.11c-.74 0-1.11-.37-1.11-1.11 0-.35.06-.82.18-1.41l3.23-13.54.35-1.94c.15-.86.23-1.66.23-2.4 0-1.05-.25-2.01-.76-2.87-.5-.86-1.46-1.29-2.87-1.29-1.57 0-3.04.46-4.43 1.38s-2.66 2.08-3.81 3.49a38.67 38.67 0 0 0-3.08 4.34 73.52 73.52 0 0 0-2.1 3.69h-.32l1.11-4.4c.04-.15.13-.7.29-1.64.15-.94.23-1.84.23-2.7a5.7 5.7 0 0 0-.73-2.87c-.49-.86-1.45-1.29-2.9-1.29-1.68 0-3.26.49-4.75 1.47a17.65 17.65 0 0 0-4.02 3.63 34.77 34.77 0 0 0-3.14 4.46 89.07 89.07 0 0 0-1.89 3.35h-.45l2.87-12.73h-1.35l-8.03.65v1.58c.86-.08 1.49-.12 1.88-.12.71 0 1.2.14 1.47.41.27.27.41.66.41 1.17 0 .43-.06 1.08-.18 1.94l-4.69 22.28h4.81l1.85-8.1a59.6 59.6 0 0 1 5.43-9.9 25.44 25.44 0 0 1 3.55-4.22c1.18-1.09 2.25-1.64 3.23-1.64.67 0 1.12.22 1.35.67.23.45.35 1.01.35 1.67 0 .46-.09 1.27-.29 2.4a273.28 273.28 0 0 1-2.22 9.65 412.61 412.61 0 0 1-2.46 9.47h4.87l1.58-7.39.09-.27-.07.27c.35-1.02.88-2.22 1.58-3.61a53.65 53.65 0 0 1 5.39-8.53c1.02-1.29 2-2.34 2.96-3.14s1.81-1.2 2.55-1.2c.67 0 1.12.22 1.35.67.23.45.35 1.01.35 1.67s-.11 1.42-.32 2.38l-.62 2.61ZM170.06 685.28a18.4 18.4 0 0 0 4.25-4.22c1.35-1.8 2.81-3.87 4.37-6.22l11.14-16.54a91.4 91.4 0 0 1 3.69-5.13 13.6 13.6 0 0 1 3.11-3.02c1.02-.67 2.19-1 3.52-1l.23-1.76h-12.84l-.23 1.76c1.09 0 1.9.13 2.43.41.53.28.79.77.79 1.47s-.25 1.53-.76 2.49-1.14 2.01-1.88 3.14l-9.68 14.48h-.38l-1.91-6.41-2.58-7.97c-.39-1.25-.7-2.28-.91-3.08a8.1 8.1 0 0 1-.32-1.96c0-.97.35-1.65 1.03-2.02s1.83-.56 3.43-.56l.29-1.76h-14.72l-.23 1.76c1.25 0 2.19.17 2.84.5.65.34 1.14.84 1.47 1.5.33.66.66 1.5.97 2.52l7.23 22.92a26.02 26.02 0 0 1-2.69 3.33 5.2 5.2 0 0 1-3.84 1.73c-.82 0-1.5-.15-2.02-.44l-1.52-.85a3.8 3.8 0 0 0-1.85-.41 2.9 2.9 0 0 0-2.93 3.05 3.4 3.4 0 0 0 1.35 2.67c.9.76 2.23 1.14 3.99 1.14 1.95.01 3.67-.5 5.16-1.52ZM201.98 692.63a290.34 290.34 0 0 0 6.8-9.47l2.61-3.81c1.02-1.48 2.03-3.04 3.05-4.66a78.69 78.69 0 0 0 2.64-4.49c.9-1.68 1.55-3.14 1.94-4.37.39-1.23.59-2.37.59-3.43 0-1.65-.37-2.85-1.11-3.61a3.56 3.56 0 0 0-2.64-1.14c-.82 0-1.45.23-1.88.68a2.3 2.3 0 0 0-.65 1.67c0 .74.24 1.4.73 1.99l1.44 1.7c.47.55.7 1.2.7 1.94 0 .46-.15 1.1-.44 1.9-.3.8-.8 1.77-1.5 2.9l-6.74 10.85h-.33l-.51-5.85-1.29-8.56c-.24-1.56-.46-2.86-.65-3.9s-.43-1.93-.7-2.67c-.28-.75-.63-1.49-1.06-2.23h-.88l-7.86.64v1.7a11.97 11.97 0 0 1 1.58-.12c1.17 0 2.03.25 2.58.76.54.5.92 1.18 1.14 2.02.22.84.4 1.75.56 2.73l3.36 20.58-1.24 1.79c-.73 1.03-1.52 2.12-2.38 3.25s-1.66 2.09-2.4 2.87c-.74.78-1.29 1.17-1.64 1.17-.23 0-.48-.16-.73-.47s-.54-.68-.85-1.11-.68-.8-1.11-1.11a2.5 2.5 0 0 0-1.52-.47c-.62 0-1.16.22-1.61.65-.44.43-.67 1.1-.67 1.88s.22 1.47.65 2.08 1 1.08 1.7 1.41c.71.33 1.45.5 2.23.5h-.03a6.17 6.17 0 0 0 3.9-1.56 26.59 26.59 0 0 0 4.22-4.63ZM249.07 686.26l.35-1.76c-1.87 0-3.15-.21-3.81-.62-.67-.41-1-1.08-1-2.02 0-.31.03-.66.09-1.05l.09-.54c3.85-.18 7.23-.89 10.13-2.17a17.18 17.18 0 0 0 7.15-5.51 13.05 13.05 0 0 0 2.55-7.89c0-3.36-1.21-6.18-3.61-8.47-2.28-2.17-5.76-3.46-10.41-3.89.18-.74.37-1.37.59-1.85.35-.78.95-1.33 1.79-1.64a11.3 11.3 0 0 1 3.72-.47l.35-1.76h-15.42l-.29 1.76c1.8 0 3.01.18 3.64.53.63.35.94.96.94 1.82 0 .28-.03.59-.09.94l-.1.57c-3.92.14-7.31.83-10.17 2.08-3.03 1.33-5.36 3.12-6.98 5.39s-2.43 4.85-2.43 7.74c0 2.15.5 4.14 1.52 5.98a11.75 11.75 0 0 0 4.78 4.54 20.13 20.13 0 0 0 7.55 2.12 10.92 10.92 0 0 1-.83 2.54c-.39.75-.97 1.25-1.73 1.5s-1.91.38-3.43.38l-.29 1.76h15.36-.01Zm10.09-21.62c0 2.5-.56 4.75-1.67 6.74-1.12 2-2.76 3.6-4.93 4.81a17.33 17.33 0 0 1-7.35 1.94l4.96-23.69c2.71.46 4.87 1.48 6.44 3.09 1.7 1.74 2.55 4.11 2.55 7.12Zm-25.39 9.94c-1.45-1.9-2.17-4.29-2.17-6.95s.62-4.97 1.85-6.92a12.78 12.78 0 0 1 5.1-4.6 17.87 17.87 0 0 1 6.78-1.85l-4.87 23.64c-3.11-.46-5.35-1.56-6.69-3.32Zm7.45 3.43ZM283.51 691.83l1.76-8.5h.18a5.14 5.14 0 0 0 4.98 3.22c1.72 0 3.36-.51 4.9-1.55a15.4 15.4 0 0 0 4.13-4.22 22.93 22.93 0 0 0 2.87-6.04 23.12 23.12 0 0 0 1.06-7.01c0-2.89-.62-5.26-1.85-7.12a5.82 5.82 0 0 0-5.13-2.79 8.3 8.3 0 0 0-3.17.68 7.86 7.86 0 0 0-3.17 2.73h-.23l3.52-16.65h-1l-8.5.88v1.47a21 21 0 0 1 1.88-.12c1.45 0 2.17.57 2.17 1.7a10.35 10.35 0 0 1-.18 1.64l-2.29 11.03h-.18a4.77 4.77 0 0 0-1.99-2.61 6.05 6.05 0 0 0-2.99-.73c-1.68 0-3.31.51-4.87 1.55a15.36 15.36 0 0 0-4.16 4.19 23.17 23.17 0 0 0-3.93 13.02c0 2.85.65 5.22 1.96 7.12a6.04 6.04 0 0 0 5.19 2.84c1.02 0 2.04-.22 3.08-.67a8.09 8.09 0 0 0 3.08-2.73h.18l-3.28 15.66h11.26v-.02l.4-1.58c-2.34 0-3.92-.33-4.72-.97-.8-.64-1.2-1.3-1.2-1.96a12.97 12.97 0 0 1 .24-2.46Zm2.99-14.49 1.52-7.56c.35-1.72.9-3.3 1.64-4.75s1.59-2.6 2.55-3.46c.96-.86 1.98-1.29 2.96-1.29s1.71.36 2.2 1.06.81 1.53.97 2.49c.15.96.23 1.81.23 2.55 0 2.27-.24 4.46-.73 6.57s-1.15 4.01-1.99 5.69c-.84 1.68-1.78 3-2.84 3.96s-2.14 1.44-3.23 1.44c-.47-.01-.98-.13-1.55-.36s-1.05-.66-1.44-1.29a5.06 5.06 0 0 1-.59-2.7c0-.71.09-1.49.29-2.35Zm-3.82-2.74c-.35 1.72-.88 3.3-1.58 4.75-.7 1.45-1.52 2.6-2.46 3.46s-1.91 1.29-2.93 1.29h-.01c-.98 0-1.73-.37-2.26-1.11a6.32 6.32 0 0 1-1.06-2.58 15.4 15.4 0 0 1-.26-2.58c0-2.31.25-4.51.76-6.6.5-2.09 1.18-3.95 2.02-5.57.84-1.62 1.78-2.91 2.84-3.87s2.11-1.44 3.17-1.44c.5 0 1.03.11 1.58.35.55.23 1.02.65 1.41 1.26s.59 1.52.59 2.73c0 .71-.09 1.49-.29 2.35l-1.52 7.56ZM315.63 685.92l.35-1.7c-1.44 0-2.39-.13-2.84-.38s-.67-.63-.67-1.14c0-.31.17-.7.5-1.17s.71-.96 1.14-1.47.8-.92 1.11-1.23l9.21-9.97h.18l1.06 3.04 2.58 5.69c.47 1.1.8 2.01 1 2.73.19.73.29 1.34.29 1.85 0 .82-.32 1.37-.97 1.64-.65.27-1.58.41-2.79.41h-.59l-.35 1.7h15.78l.35-1.71c-1.45-.04-2.52-.28-3.2-.73s-1.36-1.38-2.02-2.79l-7.56-15.79 10.25-10.53h-.01a42 42 0 0 1 3.46-3.25 8.12 8.12 0 0 1 2.64-1.5 12 12 0 0 1 3.17-.47l.29-1.76h-13.43l-.29 1.76c1.33 0 2.19.11 2.58.32.39.22.59.54.59.97 0 .39-.23.91-.7 1.55s-1.04 1.36-1.7 2.14l-7.86 8.68h-.15l-2.13-5.52a89.3 89.3 0 0 0-1.58-3.81 6.56 6.56 0 0 1-.7-2.46c0-.71.31-1.2.94-1.47a6.65 6.65 0 0 1 2.58-.41h.65l.35-1.76h-15.66l-.35 1.76c1.33 0 2.35.13 3.05.38.71.26 1.3.75 1.79 1.47.49.73 1.04 1.77 1.67 3.14l5.7 12.42-12.58 13.04a42.63 42.63 0 0 1-2.93 2.81c-.78.67-1.53 1.13-2.23 1.38s-1.56.4-2.58.44l-.29 1.7h12.9ZM366.29 665.07c.51-.82 1-1.44 1.47-1.85a2.41 2.41 0 0 1 1.64-.62c.5 0 1.02.1 1.55.29.53.19 1.06.29 1.61.29a2.8 2.8 0 0 0 1.82-.68c.55-.45.82-1.16.82-2.14 0-.79-.22-1.4-.67-1.85s-1.18-.68-2.2-.68c-1.22 0-2.29.29-3.23.88a9.69 9.69 0 0 0-2.43 2.17 19.8 19.8 0 0 0-1.79 2.64l-2.87 4.93h-.2l-.68-2.99c-.39-1.6-.87-3.03-1.44-4.28s-1.21-2.29-1.91-3.11h-.88l-7.98.94v1.76a8 8 0 0 1 1.03-.15c.29-.03.6-.03.91-.03 1.17 0 2.12.2 2.84.59.72.39 1.33 1.05 1.82 1.99s.99 2.23 1.5 3.87l1.65 5.37-4.21 6.11c-.75 1.1-1.37 1.88-1.88 2.35s-.9.75-1.17.85c-.28.1-.45.15-.53.15-.47 0-1.05-.13-1.73-.38a5.63 5.63 0 0 0-1.91-.38 2.1 2.1 0 0 0-1.73.76c-.41.51-.62 1.09-.62 1.76s.25 1.3.76 1.91 1.39.91 2.64.91v-.02a5.6 5.6 0 0 0 4.29-1.76 25.88 25.88 0 0 0 3.05-4.04l3.75-6.1h.25l1.44 5.94a14.84 14.84 0 0 0 1.73 4.46c.69 1.05 1.75 1.58 3.2 1.58.94 0 1.81-.22 2.61-.65s1.53-.99 2.2-1.67c.67-.68 1.27-1.41 1.82-2.17s1.02-1.45 1.41-2.08l-1.23-.94c-.7.94-1.38 1.72-2.02 2.35s-1.36.94-2.14.94c-.97 0-1.8-.61-2.46-1.82a33.4 33.4 0 0 1-2.23-5.75l-1.24-4.02 3.58-5.66v.03ZM422.55 649.15l.35-1.76h-16.18l-.41 1.76c1.83 0 3.1.18 3.78.53.69.35 1.03.98 1.03 1.88 0 .31-.04.67-.12 1.08l-.23 1.32-6.16 29.44h-17.94l5.98-28.97c.28-1.37.6-2.44.97-3.2s.99-1.3 1.85-1.61 2.13-.47 3.81-.47l.41-1.76h-16.18l-.35 1.76c1.68 0 2.89.17 3.61.5.72.33 1.08 1.07 1.08 2.2a10.4 10.4 0 0 1-.29 2.4l-5.22 24.63a14.83 14.83 0 0 1-1.11 3.58c-.39.75-.99 1.2-1.79 1.38-.8.17-1.97.28-3.49.32l-.35 1.76h30.43c1.76 0 2.95.37 3.58 1.11s.95 1.93.97 3.55c.02 1.62-.01 3.8-.09 6.54h1.94-.04l3.23-13.54h-2.46a3.9 3.9 0 0 1-2.02-.56c-.49-.33-.73-.93-.73-1.79 0-.59.07-1.19.23-1.82l5.28-25.27c.31-1.37.67-2.42 1.08-3.14.41-.73 1.05-1.22 1.91-1.47s2.08-.38 3.64-.38ZM445.5 678.95l4.34-20.76h-4.87l-1.88 8.27a18.42 18.42 0 0 1-1.29 3.69 42.96 42.96 0 0 1-2.23 4.19c-.87 1.43-1.79 2.74-2.79 3.93s-1.99 2.16-2.99 2.9-1.93 1.11-2.79 1.11c-.63 0-1.08-.22-1.35-.67a3.3 3.3 0 0 1-.41-1.73c0-.31.03-.66.09-1.05s.16-.98.32-1.76l4.05-19.06h-1.82l-7.92.65v1.58l1.08-.09c.33-.03.69-.03 1.08-.03.43 0 .86.11 1.29.32.43.22.65.64.65 1.26 0 .51-.07 1.11-.21 1.79l-.38 1.9-2.81 12.61-.32 1.61a14.7 14.7 0 0 0-.26 2.67c0 1.09.27 2.07.82 2.93s1.56 1.29 3.05 1.29c1.72 0 3.27-.43 4.66-1.29a15.45 15.45 0 0 0 3.72-3.25 34.47 34.47 0 0 0 2.9-4.02c.84-1.37 1.55-2.56 2.14-3.58h.53c-.51 1.92-.95 3.54-1.32 4.87s-.56 2.68-.56 4.05c0 1.29.39 2.14 1.17 2.55a5.07 5.07 0 0 0 4.23.27 8.86 8.86 0 0 0 1.99-1.12l.12.12c-.59.9-1.05 1.64-1.38 2.23-.33.58-.56 1.1-.7 1.55s-.21.95-.21 1.5c0 .5.03 1.02.09 1.52s.09.89.09 1.17c0 .55-.23 1.15-.7 1.79a6.99 6.99 0 0 1-2.58 1.91l.7 1.29h.02a25.37 25.37 0 0 0 5.1-3.22 4.85 4.85 0 0 0 1.76-3.81c0-.75-.08-1.65-.26-2.7-.17-1.06-.26-1.9-.26-2.52a5 5 0 0 1 .56-2.32c.37-.73 1.08-1.79 2.14-3.2l-1.23-.88c-.39.51-.83 1-1.32 1.47-.49.47-.98.85-1.47 1.14s-.99.44-1.5.44c-.47 0-.8-.11-.97-.32a1.07 1.07 0 0 1-.26-.67c0-.28.02-.58.06-.91.04-.33.13-.87.29-1.61ZM102.08 760.29l4.75-22.81a22.8 22.8 0 0 1 1-3.61c.35-.88.94-1.5 1.76-1.85s2.09-.53 3.81-.53l.35-1.99H97.33l-.35 1.99c1.57 0 2.64.18 3.23.53.59.35.88.99.88 1.93a16.09 16.09 0 0 1-.53 3.52l-2.11 10.2c-1.18.48-2.42.86-3.74 1.1-1.56.29-2.97.44-4.22.44-1.68 0-3.02-.31-4.02-.94s-1.5-1.8-1.5-3.52c0-.35.04-.78.12-1.29.08-.51.19-1.14.35-1.88l.88-4.05a30.8 30.8 0 0 1 1.08-3.81c.33-.86.85-1.45 1.55-1.76a8.25 8.25 0 0 1 3.17-.47l.41-1.99H77.28l-.41 1.99c1.45 0 2.44.17 2.99.5.55.34.82.95.82 1.85 0 .43-.04.94-.12 1.55-.08.61-.22 1.3-.41 2.08l-1.17 5.28a13.54 13.54 0 0 0-.35 2.99c0 2.15.71 3.84 2.14 5.07 1.42 1.23 3.7 1.85 6.83 1.85h.01c1.8 0 3.57-.22 5.31-.67a27.6 27.6 0 0 0 4.84-1.73l.14.03-2.03 9.82a23 23 0 0 1-1.06 3.84 2.8 2.8 0 0 1-1.7 1.67c-.79.27-2 .41-3.64.41l-.35 1.99h16.72l.47-1.98c-1.8 0-3.02-.17-3.67-.5s-.97-1.07-.97-2.2c0-.35.03-.76.09-1.23s.16-1.08.32-1.82Z"/><path d="M136.6 765.45c.78-.92 1.53-1.91 2.23-2.96l-1.41-1c-.2.2-.51.54-.94 1.03-.44.49-.93.93-1.5 1.32s-1.19.59-1.85.59c-.78 0-1.17-.39-1.17-1.17 0-.24.04-.55.12-.94.08-.39.16-.88.24-1.47l4.28-20.58h-5.69l-.82 3.34c-.2.75-.62 1.69-1.26 2.82a24.2 24.2 0 0 1-2.32 3.34 17.6 17.6 0 0 1-2.81 2.79 4.66 4.66 0 0 1-2.82 1.14c-.7 0-1.21-.18-1.52-.53s-.47-.78-.47-1.29c0-.39.06-.89.18-1.52.11-.63.21-1.08.29-1.35l1.94-8.91h-1.88l-8.85.65v1.88l.79-.06c.45-.04.85-.06 1.2-.06.55 0 1.04.11 1.47.32.43.22.64.68.64 1.38a8.5 8.5 0 0 1-.26 1.91c-.17.76-.3 1.28-.38 1.55l-.82 3.4c-.08.27-.17.69-.29 1.26a8.05 8.05 0 0 0-.18 1.67c0 1.21.37 2.25 1.11 3.11.74.86 2.01 1.29 3.81 1.29 1.45 0 2.74-.28 3.87-.85s2.14-1.29 3.02-2.17 1.65-1.81 2.32-2.81c.66-1 1.25-1.93 1.76-2.79h.41l-2.17 9.91c-.27 1.13-.49 2.11-.67 2.93a11.4 11.4 0 0 0-.26 2.29c0 1.1.31 1.99.94 2.67.63.69 1.66 1.03 3.11 1.03l-.02-.02c1.56 0 2.86-.29 3.9-.88a10.05 10.05 0 0 0 2.73-2.26ZM197.25 768.02l-.01.03.01-.03zM197.65 766.06c-1.79-.04-3.03-.24-3.69-.59-.67-.35-1-1.05-1-2.11 0-.43.04-.91.12-1.44.08-.53.19-1.12.35-1.79l4.69-22.64c.32-1.53.66-2.73 1.03-3.61s.98-1.5 1.82-1.85c.84-.35 2.16-.53 3.96-.53l.41-1.99h-16.83l-.47 1.99c1.72 0 2.9.19 3.52.56.63.37.94 1.06.94 2.08 0 .43-.04.92-.12 1.47s-.19 1.18-.35 1.88l-5.86 27.74H171.8l5.81-27.74c.36-1.53.7-2.73 1.03-3.61.33-.88.88-1.5 1.64-1.85a8.98 8.98 0 0 1 3.55-.53l.41-1.99h-16.07l-.47 1.99c1.68 0 2.82.19 3.43.56s.91 1.02.91 1.96c0 .43-.05.93-.15 1.52-.1.58-.22 1.23-.38 1.93l-5.92 27.8h-14.37l5.8-27.8a22.8 22.8 0 0 1 1-3.61c.35-.88.93-1.5 1.73-1.85.8-.35 2.04-.53 3.72-.53l.41-1.99h-16.77l-.35 1.99c1.8 0 3.03.2 3.67.59.65.39.97 1.07.97 2.05 0 .43-.04.92-.12 1.47-.08.55-.19 1.18-.35 1.88l-4.81 22.64a21.94 21.94 0 0 1-1.06 3.81 2.8 2.8 0 0 1-1.7 1.64c-.78.28-2.03.43-3.75.47l-.41 1.99h58.05l.4-1.96ZM243.21 767.77a9.12 9.12 0 0 0 2.76-2.17c.8-.92 1.61-1.95 2.43-3.08l-1.47-1.06c-.47.62-1.08 1.27-1.82 1.93a3.5 3.5 0 0 1-2.4 1c-.43 0-.73-.09-.91-.29a1.03 1.03 0 0 1-.26-.7 12.6 12.6 0 0 1 .35-2.52l4.52-20.58h-5.81l-1.88 8.15a22.25 22.25 0 0 1-1.17 3.61 48.8 48.8 0 0 1-1.94 4.13c-.74 1.41-1.54 2.71-2.4 3.9s-1.72 2.15-2.58 2.87c-.86.72-1.66 1.08-2.4 1.08-.63 0-1.06-.22-1.29-.67a3.8 3.8 0 0 1-.35-1.73 7 7 0 0 1 .09-1.06c.06-.39.16-.98.32-1.76l3.87-18.53h-5.57l-1.88 8.27c-.23 1.06-.62 2.26-1.17 3.61s-1.2 2.72-1.94 4.11-1.54 2.67-2.4 3.84a14.94 14.94 0 0 1-2.64 2.84 4.15 4.15 0 0 1-2.52 1.08c-.63 0-1.06-.22-1.29-.67a3.8 3.8 0 0 1-.35-1.73c0-.32.03-.67.09-1.06s.16-.98.32-1.76l3.99-18.71h-2.46l-7.98.65v1.82a26.15 26.15 0 0 1 2.16-.12c.43 0 .86.11 1.29.32s.65.64.65 1.26c0 .55-.06 1.1-.18 1.67s-.25 1.17-.41 1.79l-2.81 12.61-.35 1.85c-.15.84-.23 1.65-.23 2.43 0 1.09.26 2.07.79 2.93.53.86 1.56 1.29 3.08 1.29v.02c1.71 0 3.24-.4 4.59-1.2 1.35-.8 2.53-1.8 3.55-2.99a25.63 25.63 0 0 0 2.61-3.64c.72-1.24 1.3-2.3 1.73-3.2h.41l-.73 3.22c-.17.79-.29 1.41-.35 1.88s-.09.96-.09 1.47c0 1.14.26 2.16.79 3.08.53.92 1.5 1.38 3.14 1.38s3.11-.4 4.4-1.2 2.41-1.8 3.37-2.99c.96-1.2 1.79-2.42 2.49-3.67l1.76-3.17h.47c-.47 1.68-.86 3.12-1.17 4.31s-.47 2.34-.47 3.43c0 1.21.36 2.05 1.08 2.52.73.47 1.61.7 2.67.7 1.56 0 2.86-.26 3.9-.79ZM302.41 760.95l4.87-23.46a22.8 22.8 0 0 1 1-3.61 3.2 3.2 0 0 1 1.79-1.85c.84-.35 2.18-.53 4.02-.53l.35-1.99h-16.83l-.41 1.99c1.72 0 2.89.19 3.52.56s.94 1.06.94 2.08c0 .43-.04.92-.12 1.47s-.19 1.18-.35 1.88l-5.86 27.74H281.2l5.81-27.74c.31-1.53.64-2.73.97-3.61.33-.88.89-1.5 1.67-1.85a9.22 9.22 0 0 1 3.58-.53l.41-1.99h-16.07l-.47 1.99c1.64 0 2.76.19 3.37.56.61.37.91 1.02.91 1.96 0 .43-.04.93-.12 1.52-.08.58-.19 1.23-.35 1.93l-5.92 27.8h-14.13l5.81-27.8a22.8 22.8 0 0 1 1-3.61c.35-.88.93-1.5 1.73-1.85.8-.35 2.04-.53 3.72-.53l.41-1.99h-16.77l-.35 1.99c1.8 0 3.02.2 3.67.59.65.39.97 1.07.97 2.05 0 .43-.04.92-.12 1.47s-.19 1.18-.35 1.88l-4.81 22.64a21.94 21.94 0 0 1-1.06 3.81 2.8 2.8 0 0 1-1.7 1.64c-.78.28-2.03.43-3.75.47l-.41 1.99h48.55c1.68 0 2.83.36 3.46 1.08.63.72.97 1.9 1.03 3.52s.05 3.82-.03 6.6h2.32l3.27-13.75h-2.64c-.86-.04-1.53-.22-2.02-.53s-.73-.88-.73-1.7a11.37 11.37 0 0 1 .35-2.29ZM304.21 779.22h-.03l-.01.03.04-.03zM357.27 762.54l-1.41-1.06c-.58.7-1.23 1.37-1.93 1.99-.71.63-1.49.94-2.35.94-.43 0-.73-.09-.91-.29a1.03 1.03 0 0 1-.26-.7 12.6 12.6 0 0 1 .35-2.52l4.52-20.58h-5.81l-1.88 8.15a23.95 23.95 0 0 1-1.14 3.61 42.81 42.81 0 0 1-1.91 4.13c-.74 1.41-1.54 2.71-2.4 3.9s-1.71 2.15-2.55 2.87c-.85.72-1.64 1.08-2.38 1.08-.62 0-1.05-.22-1.29-.67a3.8 3.8 0 0 1-.35-1.73c0-.32.03-.67.09-1.06s.16-.98.32-1.76l3.87-18.53h-5.57l-1.88 8.27c-.23 1.06-.62 2.26-1.17 3.61s-1.2 2.72-1.94 4.11-1.54 2.67-2.4 3.84a15.54 15.54 0 0 1-2.61 2.84 4.03 4.03 0 0 1-2.49 1.08c-.63 0-1.06-.22-1.29-.67a3.8 3.8 0 0 1-.35-1.73c0-.32.03-.67.09-1.06s.16-.98.32-1.76l3.99-18.71h-2.46l-7.97.65v1.82a24.78 24.78 0 0 1 2.16-.12c.43 0 .86.11 1.29.32.43.21.64.64.64 1.26 0 .55-.06 1.1-.18 1.67s-.25 1.17-.41 1.79l-2.82 12.61-.35 1.85c-.15.84-.23 1.65-.23 2.43 0 1.09.26 2.07.79 2.93.53.86 1.56 1.29 3.08 1.29 1.72 0 3.25-.4 4.6-1.2s2.52-1.8 3.52-2.99c1-1.2 1.85-2.41 2.55-3.64.7-1.24 1.29-2.3 1.76-3.2h.41c-.35 1.36-.6 2.44-.76 3.22l-.35 1.88c-.08.47-.12.96-.12 1.47 0 1.14.27 2.16.82 3.08s1.57 1.38 3.17 1.38 3.05-.4 4.34-1.2c1.29-.8 2.4-1.8 3.34-2.99.94-1.2 1.76-2.42 2.46-3.67l1.76-3.17h.47c-.47 1.68-.85 3.12-1.14 4.31a14.54 14.54 0 0 0-.44 3.43c0 1.21.36 2.05 1.06 2.52.7.47 1.56.7 2.58.7a7.53 7.53 0 0 0 4.4-1.35l.18.12c-.66.94-1.17 1.69-1.52 2.26-.35.56-.58 1.08-.7 1.52s-.18.96-.18 1.55c0 .35.02.71.06 1.08.04.37.06.65.06.85 0 .74-.26 1.44-.79 2.11a7.86 7.86 0 0 1-2.73 1.94l.82 1.52-.02.04a28.48 28.48 0 0 0 5.54-3.23 4.7 4.7 0 0 0 1.91-3.81c0-.75-.09-1.66-.29-2.73a15.76 15.76 0 0 1-.29-2.55c0-.83.22-1.61.65-2.35s1.11-1.74 2.05-2.99ZM375.57 768.02h-.02.02zM392.96 755.35c0-1.84-.44-3.47-1.32-4.87s-2.26-2.5-4.16-3.28c-1.9-.78-4.41-1.17-7.54-1.17-1.25 0-2.49.05-3.72.15l-2.23.18 1.86-8.9a22.8 22.8 0 0 1 1-3.61 3.2 3.2 0 0 1 1.79-1.85c.84-.35 2.12-.53 3.84-.53l.41-1.99h-16.95l-.35 1.99c1.8 0 3.01.19 3.64.56s.94 1.04.94 2.02c0 .44-.06.93-.18 1.5l-.41 1.91-4.57 22.17a29.28 29.28 0 0 1-1.06 3.99 3.13 3.13 0 0 1-1.7 1.91c-.78.33-2.03.5-3.75.5l-.35 1.99h17.4c5.51 0 9.79-1.14 12.84-3.43a10.96 10.96 0 0 0 4.57-9.24Zm-8 5.36a7.35 7.35 0 0 1-2.76 2.99c-1.15.69-2.41 1.16-3.78 1.41s-2.77.38-4.22.38a113.25 113.25 0 0 1-4.16-.18l3.45-16.56a91.1 91.1 0 0 1 3.52-.08c2.9 0 5.12.51 6.66 1.55 1.55 1.03 2.32 2.86 2.32 5.48 0 2.03-.35 3.7-1.03 5.01ZM411.98 767.33a11.54 11.54 0 0 0 4.75-3.69 9.4 9.4 0 0 0 1.79-5.75c0-2.5-.76-4.47-2.26-5.92a7.91 7.91 0 0 0-5.72-2.17c-1.37 0-2.56.23-3.58.7a13.07 13.07 0 0 0-2.99 1.93l-.29-.06 2.76-12.26h-1.94l-8.8.65v1.82a21.96 21.96 0 0 1 1.82-.12c.86 0 1.45.19 1.76.56s.47.83.47 1.38c0 .47-.07.99-.23 1.58L397 757.53l-.18.79a25.2 25.2 0 0 0-.32 1.7c-.1.65-.15 1.24-.15 1.79 0 1.13.31 2.22.94 3.28a6.7 6.7 0 0 0 2.9 2.55c1.31.65 3.06.97 5.25.97a16 16 0 0 0 6.54-1.28Zm-7.66-1.35a3.2 3.2 0 0 1-1.52-1.29 4.7 4.7 0 0 1-.59-2.55c0-.55.07-1.25.21-2.11.14-.86.28-1.66.44-2.4a6.64 6.64 0 0 1 2.05-3.78c1.02-.88 2.25-1.32 3.58-1.32s2.35.5 3.05 1.5c.71 1 1.06 2.26 1.06 4.02s-.3 3.26-.91 4.49a7.26 7.26 0 0 1-2.35 2.84c-.96.67-1.99 1-3.08 1v-.02c-.67 0-1.32-.13-1.94-.38ZM125.83 819.86a22.8 22.8 0 0 1 1-3.61c.35-.88.95-1.51 1.79-1.88.84-.37 2.1-.56 3.78-.56l.47-2.23h-17.94l-.47 2.23c1.8 0 3.01.19 3.64.56s.94 1.04.94 2.02c0 .43-.04.93-.12 1.52s-.19 1.24-.35 1.94l-4.63 22.11a23.13 23.13 0 0 1-1.06 3.78 2.9 2.9 0 0 1-1.73 1.7c-.81.29-2.03.44-3.67.44l-.47 2.23h17.77l.47-2.22c-1.72 0-2.9-.16-3.55-.47-.65-.31-.97-.97-.97-1.99 0-.82.16-1.95.47-3.4l4.63-22.17ZM89.79 850.11c5.59 0 9.89-1.14 12.9-3.43s4.52-5.46 4.52-9.53c0-2.7-.94-4.9-2.84-6.6S99.25 828 94.72 828c-1.26 0-2.48.05-3.67.15-.96.08-1.8.14-2.52.18l1.77-8.48c.32-1.53.66-2.73 1.03-3.61s.99-1.51 1.85-1.88 2.17-.56 3.93-.56l.47-2.23H79.4l-.47 2.23c1.83 0 3.05.21 3.66.62.61.41.91 1.14.91 2.2 0 .39-.05.86-.15 1.41-.1.55-.22 1.15-.38 1.82l-4.34 21.17c-.35 1.88-.71 3.3-1.08 4.28a3.44 3.44 0 0 1-1.79 2.02c-.82.38-2.11.56-3.87.56l-.47 2.23h18.37Zm-3.39-2.81a88.6 88.6 0 0 1-1.79-.12l3.38-16.22 1.09-.08c.62-.04 1.33-.06 2.11-.06 2.5 0 4.46.51 5.89 1.53 1.43 1.02 2.14 2.74 2.14 5.16 0 2.15-.32 3.88-.97 5.19a6.98 6.98 0 0 1-2.55 2.96 9.7 9.7 0 0 1-3.52 1.35 22.02 22.02 0 0 1-5.78.29ZM165.84 847.61c.78-.92 1.53-1.88 2.23-2.9l-1.58-1.17-1.03 1.14c-.41.45-.89.85-1.44 1.2-.55.35-1.16.53-1.82.53-.74 0-1.11-.37-1.11-1.11 0-.35.05-.78.15-1.29.1-.5.17-.9.21-1.17l4.34-20.52h-6.8l-4.16 19.47-.7 3.25a10.9 10.9 0 0 0-.23 2.08c0 1.02.35 1.88 1.03 2.58.68.71 1.81 1.06 3.37 1.06h-.02c1.91-.05 3.46-.35 4.63-.92s2.15-1.31 2.93-2.23Z"/><path d="M144.12 849.51c2.06-.8 3.69-2 4.9-3.58a9.52 9.52 0 0 0 1.82-5.95c0-2.62-.72-4.64-2.17-6.07a7.42 7.42 0 0 0-5.45-2.14c-1.41 0-2.6.23-3.58.7-.97.46-1.93 1.11-2.87 1.93l-.35-.06 2.76-12.14h-2.4l-9.32.65v2.05l.97-.09c.29-.03.58-.03.85-.03.82 0 1.4.2 1.73.59s.5.9.5 1.52c0 .43-.06.9-.18 1.41l-2.58 11.32-.18.79a25.2 25.2 0 0 0-.32 1.7c-.1.65-.15 1.24-.15 1.79 0 1.13.3 2.22.91 3.28a6.46 6.46 0 0 0 2.93 2.55c1.35.65 3.17.97 5.48.97h-.01a18.1 18.1 0 0 0 6.71-1.19Zm-6.95-1.54a2.95 2.95 0 0 1-1.44-1.2 4.53 4.53 0 0 1-.59-2.52c0-.67.07-1.42.23-2.26l.29-1.61c.43-1.99 1.05-3.42 1.85-4.28s1.83-1.29 3.08-1.29c1.18 0 2.07.5 2.7 1.52s.94 2.31.94 3.87-.23 2.96-.7 4.19a6.92 6.92 0 0 1-1.91 2.87 4.05 4.05 0 0 1-2.72 1.03c-.59 0-1.16-.1-1.73-.32ZM180.51 845.3c-.39.97-1 1.65-1.82 2.02-.82.38-2.09.56-3.81.56l-.47 2.23h18.54c5.67 0 10.01-1.15 13.02-3.46s4.52-5.49 4.52-9.56c0-1.8-.41-3.38-1.23-4.75a8 8 0 0 0-3.99-3.2c-1.84-.76-4.28-1.14-7.33-1.14a47 47 0 0 0-3.75.15l-2.61.19 1.82-8.49c.35-1.53.69-2.73 1-3.61s.88-1.51 1.7-1.88 2.13-.56 3.93-.56l.47-2.23h-26.74l-2.64 10.91h2.58a55.96 55.96 0 0 1 1.7-3.9 7.4 7.4 0 0 1 1.76-2.4c.66-.56 1.53-.98 2.61-1.23s2.44-.38 4.08-.38h3.46l-5.63 26.45a27.1 27.1 0 0 1-1.17 4.28Zm10.51-14.37c.31-.04.7-.07 1.17-.08.7-.02 1.43-.03 2.17-.03 2.54 0 4.52.51 5.95 1.53 1.43 1.02 2.14 2.72 2.14 5.1 0 2.15-.32 3.89-.97 5.22a6.94 6.94 0 0 1-2.58 2.99c-1.08.67-2.28 1.12-3.61 1.35a23.05 23.05 0 0 1-5.87.29l-1.88-.12 3.48-16.25ZM216.84 835.36a14.8 14.8 0 0 0-1.64 6.83c0 2.62.84 4.69 2.52 6.22 1.68 1.53 4.1 2.29 7.27 2.29 2.74 0 5.08-.45 7.04-1.35 1.95-.9 3.45-2.16 4.51-3.78 1.05-1.63 1.58-3.47 1.58-5.78s-.71-4.19-2.14-5.66c-1.43-1.47-3.43-2.2-6.01-2.2a9.27 9.27 0 0 0-6.33 2.41l-.18-.12c.98-2.11 2.02-3.95 3.14-5.51s2.16-2.83 3.14-3.81 1.7-1.68 2.17-2.11l-1.23-1.35a7.75 7.75 0 0 1-4.1 1.29c-1.18 0-2.37-.17-3.58-.5-1.22-.33-2.43-.5-3.64-.5-1.68 0-3.31.39-4.87 1.17-1.56.79-2.95 2.29-4.16 4.52l1.29.88a5.3 5.3 0 0 1 1.73-1.73 4.86 4.86 0 0 1 2.55-.62c.7 0 1.29.08 1.76.24.47.16.94.3 1.41.44a5.98 5.98 0 0 0 4.22-.38c.97-.39 2.05-.88 3.22-1.47l.12.29c-1.91 1.22-3.75 2.71-5.51 4.46s-3.19 3.7-4.28 5.83Zm5.25 4.7a25 25 0 0 1 .67-2.32c.63-1.02 1.35-1.74 2.17-2.17s1.64-.64 2.46-.64c1.33 0 2.32.5 2.99 1.52s1 2.35 1 3.99c0 1.45-.25 2.78-.76 3.99s-1.19 2.18-2.05 2.9a4.45 4.45 0 0 1-2.93 1.08c-1.41 0-2.4-.52-2.99-1.58a7.67 7.67 0 0 1-.88-3.81c0-1.09.1-2.08.32-2.96ZM283.31 826.3c0-5.12-1.34-8.97-4.02-11.55s-6.44-3.87-11.29-3.87a22.33 22.33 0 0 0-8.68 1.59c-.86.35-1.52.53-1.99.53-.5 0-.87-.22-1.08-.67-.22-.45-.42-.93-.62-1.44h-2.23l-2.99 13.43h2.4c1.48-3.87 3.31-6.61 5.48-8.21s4.76-2.4 7.77-2.4c2.11 0 3.87.43 5.28 1.29a8.23 8.23 0 0 1 3.22 3.78 14.9 14.9 0 0 1 1.11 6.07c0 1.37-.07 2.66-.18 3.91H255.8l-.64 3.05h19.9a24.8 24.8 0 0 1-1.24 4.42 14.94 14.94 0 0 1-5.57 7.24c-2.48 1.66-5.6 2.49-9.35 2.49-2.7 0-5-.46-6.92-1.38a15.49 15.49 0 0 1-4.81-3.49l-1.93 1.35c.7 1.56 1.67 2.97 2.9 4.22s2.81 2.25 4.75 2.99 4.25 1.11 6.95 1.11h.02c3.67 0 6.97-.66 9.88-1.97 2.91-1.31 5.38-3.1 7.39-5.37s3.54-4.87 4.6-7.8a27.43 27.43 0 0 0 1.58-9.32ZM304.67 845.12a17.55 17.55 0 0 0 3.17-5.89c.71-2.21 1.06-4.55 1.06-6.89s-.38-4.29-1.14-5.83a7.74 7.74 0 0 0-3.43-3.52c-1.53-.8-3.42-1.2-5.69-1.2-2.11 0-3.77.25-5.01.76s-2.03.84-2.38 1h-.18l-.94-1.47h-1.82l-2.17 9.5h2.23c.94-2.66 2.12-4.53 3.55-5.63a7.78 7.78 0 0 1 4.84-1.64c1.99 0 3.38.55 4.16 1.64.78 1.1 1.17 2.58 1.17 4.46 0 1.42-.1 2.79-.26 4.1h-11.26l-.59 2.58h11.39a17.07 17.07 0 0 1-1.81 4.75c-.86 1.49-1.94 2.65-3.23 3.49s-2.8 1.26-4.52 1.26c-1.6 0-3.04-.27-4.31-.82s-2.32-1.29-3.14-2.23l-1.47 1.29c.9 1.92 2.12 3.37 3.64 4.37s3.5 1.5 5.92 1.5h.02c2.66 0 5.01-.5 7.04-1.5 2.03-1 3.75-2.36 5.16-4.08ZM355.66 849.06a20.14 20.14 0 0 0 7.12-5.16 24 24 0 0 0 4.6-7.95 29.86 29.86 0 0 0 1.64-10.06c0-2.97-.55-5.58-1.64-7.83-1.09-2.25-2.75-4.01-4.98-5.28s-4.92-1.91-8.33-1.91-6.49.64-9.27 1.91a20.96 20.96 0 0 0-7.12 5.28 23.86 23.86 0 0 0-5.4 11h-8.44l1.9-9.2c.32-1.57.66-2.78 1.03-3.64s.98-1.48 1.82-1.85c.84-.37 2.12-.56 3.84-.56l.41-2.23h-18l-.41 2.23c1.8 0 3.01.19 3.64.56s.94 1.04.94 2.02c0 .44-.05.93-.15 1.5-.1.56-.22 1.22-.38 1.96l-4.57 22.11c-.35 1.72-.72 3-1.11 3.84a3 3 0 0 1-1.76 1.67c-.79.27-1.98.41-3.58.41l-.53 2.23h17.82l.47-2.21c-1.68 0-2.87-.16-3.55-.47-.69-.31-1.03-.99-1.03-2.05-.04-.43 0-.93.12-1.5l.41-1.91 2.08-10.04h8.56a32.67 32.67 0 0 0-.24 3.75c0 3.04.53 5.71 1.61 8a11.68 11.68 0 0 0 4.93 5.31c2.21 1.25 4.98 1.88 8.3 1.88h-.01c3.41.01 6.49-.6 9.27-1.81Zm-13.07-2.44a8.14 8.14 0 0 1-2.55-4.05 20.88 20.88 0 0 1-.79-6.07c0-3.24.33-6.25 1-9.03.66-2.77 1.61-5.2 2.84-7.27s2.72-3.69 4.46-4.84a10.27 10.27 0 0 1 5.78-1.73c2.54 0 4.5.99 5.89 2.96 1.39 1.98 2.08 4.86 2.08 8.65 0 2.11-.15 4.24-.44 6.39a32.2 32.2 0 0 1-1.47 6.16 21.23 21.23 0 0 1-2.67 5.25 12.44 12.44 0 0 1-4.02 3.67c-1.58.9-3.45 1.35-5.59 1.35a6.9 6.9 0 0 1-4.52-1.44Z"/><path d="M324.76 850.11h-.01v.02l.01-.02zM380.91 836.68h6.8c-.12.99-.2 2-.2 3.05 0 2.15.36 4.06 1.08 5.72.72 1.66 1.85 2.96 3.37 3.9s3.5 1.41 5.92 1.41h.02a16.1 16.1 0 0 0 6.54-1.3c1.93-.86 3.59-2.07 4.98-3.61s2.46-3.4 3.2-5.57 1.11-4.58 1.11-7.24c0-2.38-.47-4.4-1.41-6.04s-2.21-2.89-3.81-3.75a11.34 11.34 0 0 0-5.45-1.29c-2.43 0-4.59.44-6.51 1.32-1.92.88-3.55 2.12-4.9 3.72s-2.38 3.49-3.08 5.66c-.17.53-.32 1.07-.45 1.62h-6.72l2.46-12.09h-2.4l-9.44.65v2.17c.15 0 .4-.02.73-.06s.71-.06 1.14-.06c.86 0 1.41.18 1.64.53.23.35.35.78.35 1.29 0 .28-.03.6-.09.97s-.09.61-.09.73l-4.63 21.7h7.1l2.74-13.43ZM395.3 834a22 22 0 0 1 1.5-4.98 10.28 10.28 0 0 1 2.32-3.37 4.49 4.49 0 0 1 3.11-1.23c1.05 0 1.88.36 2.49 1.06.61.7 1.04 1.64 1.29 2.81s.38 2.46.38 3.87c0 2.23-.17 4.31-.5 6.25a23.74 23.74 0 0 1-1.44 5.1 10.43 10.43 0 0 1-2.29 3.49 4.38 4.38 0 0 1-3.11 1.29c-1.22 0-2.12-.39-2.73-1.15s-1.02-1.77-1.23-3.02c-.21-1.26-.32-2.6-.32-4.05 0-2.15.18-4.17.53-6.07ZM424.73 845.12l2.84-3.96c.84-1.18 1.64-2.25 2.4-3.23s1.52-1.9 2.26-2.76c.74-.89 1.41-1.55 2.02-1.96s1.48-.62 2.61-.62h2.69l-2.1 9.78c-.31 1.61-.67 2.8-1.08 3.58a3.03 3.03 0 0 1-1.91 1.55c-.86.25-2.09.38-3.69.38l-.47 2.23h18l.53-2.23c-1.64 0-2.8-.16-3.46-.47-.67-.31-1-.97-1-1.99 0-.39.04-.85.12-1.38.08-.53.19-1.12.35-1.79l4.98-23.98c.24-1.09.54-1.96.91-2.61.37-.65.96-1.12 1.76-1.41s1.94-.44 3.43-.44l.47-2.23H441.2c-2.54 0-4.98.18-7.33.53-2.34.35-4.44.96-6.3 1.82a10.92 10.92 0 0 0-4.4 3.52c-1.07 1.49-1.61 3.22-1.61 5.57s.72 4.21 2.17 5.6a11.86 11.86 0 0 0 4.98 2.9v.18c-.97.51-1.92 1.2-2.84 2.08s-1.92 1.99-2.99 3.34a255.85 255.85 0 0 0-3.9 5.01c-1.17 1.61-2.19 2.81-3.05 3.61s-1.75 1.35-2.67 1.64-2.1.44-3.55.44l-.47 2.29h11.85v.02c1.37-1.87 2.59-3.54 3.64-5.01Zm7.24-28.58c1.78-1.47 4.46-2.2 8.06-2.2a52.26 52.26 0 0 1 3.4.12l-3.31 15.43h-2.44c-1.56 0-2.97-.22-4.22-.65s-2.26-1.14-3.02-2.14-1.14-2.32-1.14-3.96c0-2.93.89-5.13 2.67-6.6ZM481.35 844.71c-.41.45-.89.85-1.44 1.2-.55.35-1.16.53-1.82.53-.78 0-1.17-.37-1.17-1.11 0-.39.05-.83.15-1.32.1-.48.17-.87.21-1.14l4.16-20.23a51.8 51.8 0 0 0-3.11-.29l-3.64-.21a63.45 63.45 0 0 0-3.05-.09c-3.63 0-6.5.36-8.59 1.08-2.1.72-3.58 1.68-4.46 2.87s-1.32 2.47-1.32 3.84c0 1.56.41 2.8 1.23 3.72s1.76 1.58 2.84 1.99c1.07.41 2.02.67 2.84.79v.23c-1.92.51-3.27 1.22-4.05 2.14-.78.92-1.51 2.02-2.17 3.31a104 104 0 0 0-1.29 3.08 7.96 7.96 0 0 1-1.06 1.96c-.35.43-.86.64-1.52.64-.7 0-1.28-.14-1.73-.41a4.98 4.98 0 0 1-1.26-1.11l-1.52 1.41c.63 1.05 1.38 1.85 2.26 2.4s2 .82 3.37.82v.02c1.88 0 3.42-.45 4.61-1.35 1.19-.9 2.17-2.04 2.93-3.43a47.52 47.52 0 0 0 2.02-4.13c.35-.9.8-1.72 1.35-2.46s1.34-1.34 2.38-1.79a8.3 8.3 0 0 1 3.11-.57l-1.02 4.71-.7 3.28c-.15.74-.23 1.43-.23 2.05 0 1.02.36 1.88 1.08 2.58.72.71 1.85 1.06 3.37 1.06 1.91-.04 3.46-.34 4.63-.91s2.16-1.31 2.96-2.23c.8-.92 1.53-1.88 2.2-2.9l-1.58-1.17c-.24.31-.56.69-.97 1.14Zm-9.23-9.93c-.21.04-.49.06-.84.08-.67.03-1.09.03-1.29.03a8.03 8.03 0 0 1-4.19-.94c-1.03-.63-1.55-1.92-1.55-3.64s.52-3.15 1.58-4.28 2.82-1.7 5.28-1.7a31.08 31.08 0 0 1 3.23.24l-2.22 10.22ZM80.68 925.71c-1.09 0-1.94.35-2.55 1.05s-.91 1.55-.91 2.52.29 1.78.88 2.43c.59.65 1.45.97 2.58.97 1.13.01 2-.33 2.61-.99.61-.67.91-1.45.91-2.35 0-.98-.3-1.83-.91-2.55a3.29 3.29 0 0 0-2.61-1.08ZM83.75 898.69c.03-.65.03-1.22.03-1.73a5.4 5.4 0 0 0-.7-2.87c-.46-.75-1.27-1.12-2.4-1.12-1.21 0-2.03.38-2.46 1.12a5.37 5.37 0 0 0-.65 2.76c0 .47.03 1.02.09 1.64.06.63.11 1.35.15 2.17l1.82 21.58h2.05-.02l1.94-21.59c.08-.66.13-1.32.15-1.96ZM100.59 922.24h-.02v.01l.02-.01zM104.52 893.9c-1.65-.61-3.38-.91-5.34-.91s-3.69.35-5.19 1.03a8.33 8.33 0 0 0-3.52 2.84 7.22 7.22 0 0 0-1.26 4.22c0 1.37.26 2.39.79 3.08a2.61 2.61 0 0 0 2.2 1.03c.71 0 1.32-.21 1.85-.62.53-.41.79-1.06.79-1.96 0-.74-.09-1.3-.29-1.67-.2-.38-.41-.74-.62-1.09a2.85 2.85 0 0 1-.32-1.46c0-.9.41-1.65 1.23-2.26s2.09-.91 3.81-.91a6.1 6.1 0 0 1 4.46 1.61c1.09 1.07 1.64 2.76 1.64 5.07a15.56 15.56 0 0 1-2.26 8.35 93.71 93.71 0 0 1-1.96 3.14c-.66 1.01-1.2 2.11-1.64 3.28s-.65 2.52-.65 4.05v1.52h2.33v-.93c0-1.3.32-2.53.97-3.7a23.74 23.74 0 0 1 2.38-3.49 90.15 90.15 0 0 0 2.79-3.61c.92-1.25 1.7-2.59 2.35-4.04s.97-3.03.97-4.75c0-2.03-.5-3.69-1.52-4.98a8.92 8.92 0 0 0-3.99-2.84ZM99.53 925.93c-1.09 0-1.94.35-2.55 1.03-.61.68-.91 1.45-.91 2.43s.28 1.77.85 2.38 1.42.91 2.55.91a3.25 3.25 0 0 0 2.46-.95c.59-.63.88-1.46.88-2.35s-.3-1.7-.88-2.4a2.95 2.95 0 0 0-2.4-1.05ZM147.3 928.35a6.5 6.5 0 0 1-3.2.76 6.7 6.7 0 0 1-4.43-1.58 39.13 39.13 0 0 1-3.64-3.55c1.01-1.38 1.88-2.6 2.58-3.62.8-1.17 1.53-2.3 2.2-3.4.67-1.09 1.41-2.34 2.23-3.75a6.4 6.4 0 0 1 2.2-2.46c.8-.48 1.92-.71 3.37-.71v-1.82h-12.9v1.82c1.36 0 2.31.19 2.84.56.53.38.79.99.79 1.85s-.17 1.76-.5 2.7c-.33.94-.87 2.05-1.61 3.34a99.97 99.97 0 0 1-2.48 4.03c-.8-.97-1.66-2.08-2.56-3.32a92.68 92.68 0 0 1-3.37-5.01 77.87 77.87 0 0 1-2.31-3.96c3.16-1.42 5.41-2.85 6.73-4.27a7.78 7.78 0 0 0 2.11-5.46c0-2.39-.77-4.17-2.29-5.34a8.77 8.77 0 0 0-5.51-1.76c-2.77 0-5 .7-6.68 2.11a6.83 6.83 0 0 0-2.52 5.51c0 1.68.27 3.25.82 4.72.5 1.33 1.28 2.99 2.31 4.96a43.05 43.05 0 0 0-5.94 3.92 13.6 13.6 0 0 0-3.67 4.28 10.74 10.74 0 0 0-1.14 4.98c0 2.97.88 5.24 2.64 6.8 1.75 1.57 4.28 2.35 7.56 2.35a13.29 13.29 0 0 0 8.21-2.4c1.12-.77 2.3-1.78 3.54-3.02a59.52 59.52 0 0 0 3 2.87c1 .88 1.97 1.52 2.93 1.93.96.41 2.08.62 3.37.62h.01a8.8 8.8 0 0 0 3.67-.75 9.24 9.24 0 0 0 3.08-2.23c.9-.98 1.6-2.17 2.11-3.58l-1-.64a7.6 7.6 0 0 1-2.55 2.52Zm-23.29-31.9c.84-.86 1.95-1.29 3.43-1.29s2.62.5 3.4 1.5a5.84 5.84 0 0 1 1.17 3.72 7.33 7.33 0 0 1-2.76 5.99c-.89.75-2.1 1.5-3.61 2.25a37 37 0 0 1-2.07-4.72 12.56 12.56 0 0 1-.82-4.05c0-1.41.42-2.54 1.26-3.4Zm3.23 32.34c-1.31.45-2.75.67-4.19.67s-2.68-.24-3.72-.73a5.08 5.08 0 0 1-2.38-2.29 8.58 8.58 0 0 1-.82-4.02c0-2.19.53-4.09 1.61-5.69 1-1.48 2.57-2.89 4.72-4.24a154.2 154.2 0 0 0 3.07 5.3 93.77 93.77 0 0 0 3.61 5.48c.8 1.12 1.53 2.07 2.18 2.85a12.94 12.94 0 0 1-4.08 2.67ZM182.8 893.15h.01c-1.41 1.41-2.58 2.5-3.52 3.26s-1.79 1.28-2.55 1.55c-.76.27-1.59.41-2.49.41-1.29 0-2.37-.18-3.25-.53s-1.67-.76-2.38-1.23a14.9 14.9 0 0 0-2.26-1.23 7.22 7.22 0 0 0-2.9-.53 8.3 8.3 0 0 0-4.93 1.58c-1.49 1.05-2.66 2.47-3.52 4.25s-1.29 3.78-1.29 6.01c0 2.46.56 4.33 1.67 5.6 1.11 1.28 2.67 1.91 4.66 1.91 1.87 0 3.54-.52 5.01-1.58a10.74 10.74 0 0 0 3.46-4.28 13.81 13.81 0 0 0 1.14-7.74c-.08-.54-.17-1.03-.29-1.46l.12-.12c.9.39 1.61.64 2.14.76s1.15.18 1.85.18c1.22 0 2.28-.15 3.2-.44.91-.3 1.86-.77 2.84-1.44h.29l-20.93 35.36h2.81l23.75-40.29h-2.64Zm-15.02 8.8c0 1.84-.32 3.55-.94 5.13s-1.44 2.84-2.46 3.78a4.9 4.9 0 0 1-3.4 1.41c-1.09 0-1.9-.43-2.43-1.29-.53-.86-.79-2.21-.79-4.05 0-2 .28-3.79.85-5.37s1.33-2.83 2.29-3.75c.95-.92 2.07-1.38 3.25-1.38s2.07.47 2.7 1.41.94 2.31.94 4.11h-.01ZM182.75 914.03c-1.87 0-3.55.51-5.04 1.55a10.39 10.39 0 0 0-3.49 4.22 13.9 13.9 0 0 0-1.26 6.01c0 2.5.57 4.39 1.7 5.66a5.97 5.97 0 0 0 4.69 1.91c1.87 0 3.53-.52 4.98-1.58a10.78 10.78 0 0 0 3.43-4.28c.84-1.8 1.26-3.79 1.26-5.98 0-2.42-.54-4.28-1.61-5.57-1.07-1.3-2.63-1.94-4.66-1.94Zm4.27 7.1c0 1.84-.32 3.55-.94 5.13-.62 1.58-1.44 2.84-2.46 3.78s-2.15 1.41-3.4 1.41c-1.09 0-1.9-.43-2.43-1.29-.53-.85-.79-2.2-.79-4.04 0-2 .28-3.79.85-5.37a9.6 9.6 0 0 1 2.29-3.75 4.56 4.56 0 0 1 3.25-1.38c2.43 0 3.64 1.84 3.64 5.51h-.01ZM189.02 921.54zM236.81 900c.45.47 1.09.71 1.91.71.47 0 .96-.1 1.47-.32.51-.21.95-.56 1.32-1.05s.56-1.13.56-1.91c0-1.22-.25-2.13-.76-2.76-.5-.63-1.16-1.06-1.96-1.29s-1.65-.35-2.55-.35c-1.92 0-3.49.35-4.72 1.06a8.26 8.26 0 0 0-2.93 2.79c-.72 1.15-1.26 2.43-1.61 3.84s-.57 2.83-.67 4.28-.15 2.78-.15 3.99v13.02h-.29l-17.77-28.32h-9.97v1.76c1.01 0 1.83.11 2.46.32s1.23.61 1.82 1.2c.37.37.78.85 1.23 1.42v18.99c0 1.45-.05 2.89-.15 4.34-.1 1.45-.3 2.78-.59 3.99s-.7 2.18-1.23 2.9a2.46 2.46 0 0 1-2.08 1.08c-.46 0-.83-.23-1.08-.7-.25-.47-.51-1.01-.76-1.64a4.88 4.88 0 0 0-1.08-1.64c-.47-.48-1.15-.71-2.05-.71-.74 0-1.46.25-2.14.76-.69.51-1.03 1.35-1.03 2.52s.26 2.07.79 2.7a4.16 4.16 0 0 0 2.05 1.32c.84.25 1.73.38 2.67.38h.02c2.3 0 4.1-.5 5.39-1.54a8.91 8.91 0 0 0 2.81-4.02c.58-1.64.95-3.36 1.11-5.16.15-1.79.23-3.45.23-4.98v-15.66h.26l20.38 31.36h1.94l-.04-.02v-23.34c0-1.48.06-3.01.18-4.57s.33-3.01.62-4.34c.29-1.32.72-2.4 1.29-3.22s1.3-1.23 2.2-1.23c.46 0 .83.23 1.08.7s.51 1.02.76 1.67c.26.64.61 1.2 1.06 1.67ZM235.82 929.4h16.36v2.81h-16.36z"/><path d="M244.2 904.06a8.8 8.8 0 0 0-6.57 2.64c-1.72 1.76-2.58 4.09-2.58 6.98 0 3.21.83 5.68 2.49 7.42 1.67 1.74 3.88 2.61 6.66 2.61 2.58 0 4.72-.87 6.42-2.59s2.55-4.24 2.55-7.56c0-2.97-.81-5.3-2.43-6.98s-3.88-2.52-6.54-2.52Zm3.7 16.16c-.74 1.11-1.92 1.67-3.52 1.67-1.72-.01-3-.67-3.84-2-.84-1.33-1.26-3.57-1.26-6.74 0-2.54.42-4.41 1.26-5.6.84-1.19 2-1.79 3.49-1.79 1.8 0 3.08.72 3.84 2.17.76 1.45 1.14 3.39 1.14 5.81 0 3.21-.37 5.37-1.11 6.48ZM270.39 901.59c.9-.23 1.81-.44 2.73-.64.92-.19 1.69-.48 2.32-.85s.94-.93.94-1.67c0-.62-.22-1.17-.65-1.64-.43-.47-.93-.7-1.52-.7s-1.23.3-1.91.91c-.69.61-1.43 1.33-2.23 2.17-.8.85-1.65 1.62-2.55 2.32l-.06-.06c-.04-1.25.04-2.29.26-3.11.21-.82.44-1.58.67-2.26.23-.68.35-1.42.35-2.2 0-.7-.22-1.22-.65-1.55s-.92-.5-1.47-.5c-.51 0-1 .17-1.47.5-.47.33-.7.87-.7 1.61s.09 1.43.29 2.08c.2.65.41 1.38.62 2.2s.32 1.88.32 3.17l-.06.06c-.86-.67-1.7-1.41-2.52-2.23s-1.59-1.55-2.29-2.17c-.7-.63-1.35-.94-1.93-.94s-1.09.26-1.52.79a2.47 2.47 0 0 0-.65 1.61c0 .7.27 1.23.82 1.58s1.26.61 2.14.79 1.79.39 2.73.62 1.78.62 2.52 1.17v.12c-.66.48-1.46.85-2.4 1.12-.94.27-1.85.52-2.73.73-.88.22-1.61.52-2.2.91-.59.39-.88.94-.88 1.64 0 .51.22 1.01.65 1.5s.93.75 1.52.79c.66 0 1.32-.34 1.99-1.03.67-.69 1.39-1.47 2.17-2.35a8.56 8.56 0 0 1 2.58-2.02l.06.06c.04 1.21-.05 2.23-.26 3.05s-.43 1.57-.64 2.23a7.41 7.41 0 0 0-.32 2.23c0 .7.23 1.23.7 1.58.47.35.96.53 1.47.53l-.03-.02c.55 0 1.04-.18 1.47-.53.43-.36.65-.86.65-1.53 0-.78-.11-1.51-.35-2.2a30.9 30.9 0 0 1-.67-2.29c-.21-.84-.3-1.87-.26-3.08l.06-.06c.94.63 1.8 1.37 2.58 2.23a33.5 33.5 0 0 0 2.2 2.23c.69.63 1.33.94 1.91.94s1.09-.22 1.52-.67c.43-.44.65-.96.65-1.55 0-.7-.24-1.24-.73-1.61-.48-.37-1.13-.68-1.93-.91l-2.64-.76c-.96-.27-1.92-.66-2.9-1.17v-.12a6 6 0 0 1 2.23-1.05ZM296.6 941.47zM296.6 890.92l-.94-1.53a28.1 28.1 0 0 0-11.35 10.35c-2.83 4.51-4.25 9.94-4.25 16.39s1.42 11.96 4.25 16.51a28.45 28.45 0 0 0 11.35 10.47l.94-1.64c-4.26-2.81-7.28-6.27-9.06-10.35-1.78-4.08-2.67-9.15-2.67-14.98s.89-10.77 2.67-14.84c1.78-4.07 4.8-7.53 9.06-10.38ZM301.45 889.4l-.94 1.53c4.3 2.85 7.33 6.31 9.09 10.38s2.64 8.94 2.64 14.84-.88 10.89-2.64 14.98c-1.76 4.08-4.79 7.54-9.09 10.35l.94 1.64a28.46 28.46 0 0 0 11.35-10.47c2.83-4.56 4.25-10.1 4.25-16.51s-1.42-11.87-4.25-16.39a28.09 28.09 0 0 0-11.35-10.35ZM321.85 915.85h55.12v3.34h-55.12zM401.61 899.54h-4.22v15.54h-15.36v3.99h15.36v15.54h4.22v-15.54h15.36v-3.99h-15.36v-15.54zM421.99 922.12h34.95v3.93h-34.95zM421.99 908.16h34.95v3.99h-34.95zM468.53 925.74a4.58 4.58 0 0 0-2.46-.62c-1.18 0-2.08.35-2.7 1.03a3.45 3.45 0 0 0-.94 2.43c0 .86.25 1.61.76 2.23.5.63 1.33.94 2.46.94.59 0 1.19-.12 1.82-.35 0 1.56-.25 2.81-.76 3.75s-1.14 1.65-1.88 2.14c-.74.49-1.49.89-2.23 1.2l.7 1.46h.02c.59-.26 1.29-.61 2.11-1.04s1.62-.99 2.4-1.7a8.61 8.61 0 0 0 1.96-2.76c.53-1.13.79-2.52.79-4.16 0-1.1-.18-2.03-.53-2.79a3.98 3.98 0 0 0-1.52-1.76ZM468.99 910.31c.63-.69.94-1.48.94-2.38 0-1.02-.32-1.9-.94-2.64-.63-.74-1.55-1.11-2.64-1.11s-1.96.36-2.58 1.08c-.63.73-.94 1.63-.94 2.61s.28 1.8.85 2.46c.57.67 1.44 1 2.61 1 1.18.01 2.07-.33 2.7-1.02ZM479.41 925.53c-1.09 0-1.96.36-2.58 1.08-.63.73-.94 1.63-.94 2.61s.28 1.8.85 2.46c.57.67 1.44 1 2.61 1 1.18.01 2.07-.34 2.7-1.02.63-.69.94-1.48.94-2.38 0-1.02-.32-1.9-.94-2.64a3.33 3.33 0 0 0-2.64-1.11ZM479.41 904.18c-1.09 0-1.96.36-2.58 1.08-.63.73-.94 1.63-.94 2.61s.28 1.8.85 2.46c.57.67 1.44 1 2.61 1 1.18.01 2.07-.33 2.7-1.02s.94-1.48.94-2.38c0-1.02-.32-1.9-.94-2.64a3.33 3.33 0 0 0-2.64-1.11ZM639.46 368.71c-2.03 1.05-5.53 1.58-10.5 1.58v2.94h36.36v-2.95c-4.83 0-8.3-.53-10.4-1.58-2.1-1.05-3.15-2.87-3.15-5.46V306.1h-3.05l-20.38 5.78v3.47c1.12-.35 2.38-.64 3.78-.89s2.73-.44 3.99-.58 2.24-.21 2.94-.21c1.33 0 2.24.41 2.73 1.21.48.81.73 2.12.73 3.94v44.43c0 2.59-1.02 4.41-3.05 5.46ZM676.13 321.66l2.52 1.05c1.96-3.92 4.14-6.62 6.56-8.09 2.41-1.47 5.34-2.21 8.77-2.21 4.06 0 7.26 1.18 9.61 3.52 2.35 2.35 3.52 5.48 3.52 9.4 0 3.64-.57 6.93-1.73 9.87a34.46 34.46 0 0 1-5.2 8.77 127.1 127.1 0 0 1-8.72 9.72l-15.96 15.97v3.57h41.38l3.36-16.8h-3.05c-1.2 3.15-2.35 5.36-3.47 6.62s-3.08 1.89-5.88 1.89h-14.6l-7.35.31v-.52l13.87-13.13c3.71-3.78 6.84-7.18 9.4-10.19a38.41 38.41 0 0 0 5.78-8.77 21.24 21.24 0 0 0 1.94-8.88c0-3.71-.85-6.91-2.57-9.61-1.72-2.69-4.08-4.79-7.09-6.3s-6.51-2.26-10.5-2.26c-5.11 0-9.42 1.4-12.92 4.2s-6.06 6.76-7.67 11.87ZM752.77 368.15a16.33 16.33 0 0 1-6.3 1.21 10.5 10.5 0 0 1-3.94-.79 42.72 42.72 0 0 1-3.83-1.79 66.93 66.93 0 0 0-3.62-1.79 7.95 7.95 0 0 0-3.31-.79c-1.33 0-2.35.49-3.05 1.47a5.32 5.32 0 0 0-1.05 3.15c0 .91.33 1.8 1 2.68.67.88 1.84 1.62 3.52 2.21s4.1.89 7.25.89h-.02c5.11-.01 9.84-.82 14.18-2.43s7.84-4.04 10.5-7.3 3.99-7.27 3.99-12.03c0-3.15-.7-5.86-2.1-8.14a18.86 18.86 0 0 0-5.62-5.78 28.6 28.6 0 0 0-7.72-3.62v-.31c3.29-2.1 6-4.27 8.14-6.51 2.13-2.24 3.2-5.18 3.2-8.82 0-3.99-1.47-7.33-4.41-10.03-2.94-2.69-7.11-4.04-12.5-4.04a18.4 18.4 0 0 0-11.24 3.57c-3.22 2.38-5.81 5.85-7.77 10.4l2.42 1.37a22.13 22.13 0 0 1 5.88-6.36c2.1-1.43 4.59-2.15 7.88-2.15s5.9.86 7.83 2.57c1.93 1.72 2.89 4.12 2.89 7.2 0 2.8-.71 5.29-2.15 7.46a14.88 14.88 0 0 1-5.51 5.04 14.49 14.49 0 0 1-6.93 1.79h-2v3.99h2.1c3.36 0 6.49.65 9.4 1.94 2.91 1.3 5.24 3.1 6.99 5.41a13.23 13.23 0 0 1 2.62 8.19c0 3.44-.63 6.12-1.89 8.04a10.42 10.42 0 0 1-4.83 4.1ZM804.16 373.23h9.35v-16.6h10.71v-7.25h-10.71v-43.91h-6.41l-32.04 44.54v6.62h29.1v16.6Zm-23.32-23.84v-.42l22.9-32.04h.42v32.46h-23.32ZM833.1 373.13c2 .98 5.03 1.47 9.08 1.47 4.2 0 8.02-.51 11.45-1.52a25.76 25.76 0 0 0 8.93-4.57 20.38 20.38 0 0 0 5.83-7.62 25.76 25.76 0 0 0 2.05-10.66c0-3.29-.49-6.14-1.47-8.56a17.38 17.38 0 0 0-4.2-6.2 21.52 21.52 0 0 0-6.46-4.15 42.35 42.35 0 0 0-8.3-2.47 89.18 89.18 0 0 0-9.82-1.31l2.84-11.97h24.68l1.68-8.51h-28.78l-6.51 27.42 1.26 1.58c3.5.07 6.88.35 10.14.84s6.18 1.37 8.77 2.63 4.66 3.08 6.2 5.46 2.31 5.53 2.31 9.45c0 3.64-.65 6.55-1.94 8.72a11.54 11.54 0 0 1-5.15 4.73 16.59 16.59 0 0 1-6.99 1.47c-1.68 0-3.19-.27-4.52-.79a23.03 23.03 0 0 1-3.62-1.79 50.2 50.2 0 0 0-3.15-1.79 6.64 6.64 0 0 0-3.1-.79c-1.33 0-2.36.46-3.1 1.37a4.9 4.9 0 0 0-1.1 3.15c0 1.96.99 3.43 2.99 4.41ZM842.19 374.6h-.01.01zM889.89 370.66c3.32 2.55 7.58 3.83 12.76 3.83h.02c6.65.01 11.78-1.96 15.39-5.92 3.61-3.96 5.41-9.78 5.41-16.65s-1.72-12.26-5.15-16.18c-3.43-3.92-8.02-5.88-13.76-5.88-2.73 0-5.15.56-7.25 1.68s-4.24 2.73-6.41 4.83l-.74-.1a33.74 33.74 0 0 1 5.46-13.55 33.2 33.2 0 0 1 10.19-9.56 35.53 35.53 0 0 1 13.45-4.73l-.21-3.05a45.67 45.67 0 0 0-15.6 3.2c-4.73 1.93-8.82 4.62-12.29 8.09s-6.16 7.69-8.09 12.66c-1.93 4.97-2.89 10.61-2.89 16.91 0 5.11.79 9.83 2.36 14.13a22.26 22.26 0 0 0 7.35 10.29Zm1.42-29.56a9.82 9.82 0 0 1 4.36-3.94 13.65 13.65 0 0 1 5.72-1.21c4.34 0 7.58 1.61 9.72 4.83 2.13 3.22 3.2 7.21 3.2 11.97 0 6.65-.99 11.32-2.99 14.02a9.72 9.72 0 0 1-8.25 4.04c-3.01.01-5.51-.95-7.51-2.88-1.99-1.92-3.48-4.57-4.46-7.93s-1.47-7.21-1.47-11.55c0-3.08.56-5.53 1.68-7.35ZM568.38 462.21l3.26.32c.98-2.31 1.8-4.03 2.47-5.15a4.72 4.72 0 0 1 2.57-2.21 15 15 0 0 1 4.52-.53h23.42l-24.79 58.51h8.3l24.58-63.75v-3.26h-40.13l-4.2 16.07ZM625.72 484.89a17.93 17.93 0 0 0-4.78 5.41 14.54 14.54 0 0 0-1.58 7.09c0 3.57.91 6.56 2.73 8.98 1.82 2.42 4.31 4.22 7.46 5.41s6.76 1.79 10.82 1.79v.02c4.2 0 7.89-.64 11.08-1.94s5.67-3.22 7.46-5.78 2.68-5.66 2.68-9.3c0-2.94-.53-5.53-1.58-7.77s-2.84-4.46-5.36-6.67a66.08 66.08 0 0 0-9.14-6.45v-.34a63.88 63.88 0 0 0 7.88-4.99c1.96-1.51 3.4-3.17 4.31-4.99s1.37-3.99 1.37-6.51c0-2.8-.81-5.29-2.42-7.46-1.62-2.17-3.8-3.89-6.57-5.15s-5.9-1.89-9.4-1.89c-3.85 0-7.28.63-10.29 1.89s-5.38 3.05-7.09 5.36-2.57 5.08-2.57 8.3c0 2.45.36 4.67 1.1 6.67.73 2 2.13 4.01 4.2 6.04a60.52 60.52 0 0 0 7.73 6.18v.32c-3.23 2.17-5.9 4.1-8.04 5.78Zm25.63 8.41c.95 1.89 1.42 3.92 1.42 6.3s-.55 4.35-1.63 5.93a10.2 10.2 0 0 1-4.36 3.57 14.57 14.57 0 0 1-5.99 1.21c-3.99 0-7.19-1.12-9.61-3.36-2.41-2.24-3.62-5.71-3.62-10.4 0-2.52.4-4.69 1.21-6.51s1.98-3.5 3.52-5.04a67.77 67.77 0 0 1 4.69-4.21c3.92 2.54 7 4.74 9.22 6.58 2.49 2.06 4.2 4.04 5.15 5.93Zm-22.44-35.29c0-3.22 1.03-5.72 3.1-7.51s4.89-2.68 8.46-2.68c3.36 0 6 .93 7.93 2.78 1.93 1.86 2.89 4.54 2.89 8.04s-.72 6.42-2.15 8.77c-1.3 2.11-3.6 4.18-6.91 6.2-4.45-2.75-7.74-5.19-9.85-7.3a11.33 11.33 0 0 1-3.47-8.3ZM687.68 489c2.66 0 5.02-.54 7.09-1.63a32.87 32.87 0 0 0 6.67-4.88l.63.1c-.77 5.67-2.51 10.48-5.2 14.44a29.8 29.8 0 0 1-10.14 9.35 35.42 35.42 0 0 1-13.34 4.25l.21 3.05v.03a48.23 48.23 0 0 0 15.76-2.63 31.94 31.94 0 0 0 12.08-7.62 34.27 34.27 0 0 0 7.77-12.66c1.82-5.04 2.73-10.96 2.73-17.75 0-5.19-.76-9.95-2.26-14.29a22.45 22.45 0 0 0-7.09-10.4c-3.22-2.59-7.46-3.89-12.71-3.89-6.58 0-11.75 1.97-15.49 5.93-3.75 3.95-5.62 9.61-5.62 16.54s1.72 12.34 5.15 16.23c3.43 3.89 8.02 5.83 13.76 5.83Zm-6.57-36.88a10.12 10.12 0 0 1 8.35-4.1c3.08 0 5.58.96 7.51 2.89 1.92 1.93 3.32 4.57 4.2 7.93.87 3.36 1.31 7.17 1.31 11.66s-1.17 7.66-3.52 9.51a12.79 12.79 0 0 1-8.14 2.78c-4.34 0-7.58-1.52-9.71-4.57-2.14-3.04-3.21-7.02-3.21-11.92 0-6.72 1.07-11.45 3.21-14.18ZM720.83 491.94c.84 4.2 2.17 7.91 3.99 11.13a20.97 20.97 0 0 0 7.14 7.62c2.94 1.85 6.51 2.78 10.71 2.78 4.13 0 7.67-.95 10.61-2.84a21.95 21.95 0 0 0 7.2-7.67 37.55 37.55 0 0 0 4.1-11.03 62.55 62.55 0 0 0 1.31-12.92c0-7.21-.98-13.35-2.94-18.43s-4.66-8.96-8.09-11.66a18.84 18.84 0 0 0-11.97-4.04c-5.04 0-9.29 1.44-12.76 4.31-3.47 2.87-6.09 6.84-7.88 11.92-1.79 5.07-2.68 10.94-2.68 17.59 0 4.63.42 9.04 1.26 13.24ZM733 456c2.24-5.04 5.22-7.56 9.56-7.56s7.61 2.54 9.82 7.62 3.31 12.94 3.31 23.58c0 10.08-1.14 17.61-3.41 22.58-2.28 4.97-5.48 7.46-9.61 7.46h-.01c-4.2 0-7.42-2.54-9.66-7.62s-3.36-12.42-3.36-22.85 1.12-18.17 3.36-23.21ZM783.83 461.57c-1.68.49-3.3.93-4.88 1.31-1.58.39-2.89.93-3.94 1.63a3.32 3.32 0 0 0-1.58 2.94c0 .91.39 1.8 1.16 2.68a3.88 3.88 0 0 0 2.73 1.42c1.19 0 2.38-.61 3.57-1.84a120.3 120.3 0 0 0 3.89-4.2 15.5 15.5 0 0 1 4.62-3.62l.11.1c.07 2.17-.09 3.99-.47 5.46-.39 1.47-.78 2.8-1.16 3.99a12.77 12.77 0 0 0-.58 3.99c0 1.26.42 2.21 1.26 2.84.83.64 1.71.95 2.62.95h.04a4.12 4.12 0 0 0 2.63-.96 3.33 3.33 0 0 0 1.16-2.73c0-1.4-.21-2.71-.63-3.94a51.7 51.7 0 0 1-1.21-4.1c-.38-1.5-.54-3.34-.47-5.51l.11-.1c1.68 1.12 3.22 2.45 4.62 3.99s2.71 2.87 3.94 3.99c1.22 1.12 2.36 1.68 3.41 1.68s1.96-.4 2.73-1.21a3.9 3.9 0 0 0 1.16-2.78 3.4 3.4 0 0 0-1.31-2.89 10.67 10.67 0 0 0-3.47-1.63l-4.73-1.37a27.77 27.77 0 0 1-5.2-2.1v-.21a10.58 10.58 0 0 1 3.99-1.89c1.61-.42 3.23-.81 4.88-1.16s3.03-.85 4.15-1.52a3.25 3.25 0 0 0 1.68-2.99c0-1.12-.39-2.1-1.16-2.94-.77-.84-1.68-1.26-2.73-1.26s-2.19.55-3.41 1.63a70.21 70.21 0 0 0-3.99 3.89 42.49 42.49 0 0 1-4.57 4.15l-.11-.11c-.07-2.24.08-4.1.47-5.57.39-1.47.79-2.81 1.21-4.04.42-1.23.63-2.54.63-3.94 0-1.26-.39-2.18-1.16-2.78a4.22 4.22 0 0 0-2.63-.89c-.91 0-1.78.3-2.62.89-.84.6-1.26 1.56-1.26 2.89s.17 2.57.52 3.73c.35 1.16.71 2.47 1.1 3.94.39 1.47.58 3.36.58 5.67l-.11.1a47.32 47.32 0 0 1-4.52-3.99 97.11 97.11 0 0 0-4.1-3.89c-1.26-1.12-2.42-1.68-3.47-1.68s-1.96.47-2.73 1.42a4.52 4.52 0 0 0-1.16 2.89c0 1.26.49 2.21 1.47 2.84.98.63 2.25 1.1 3.83 1.42 1.57.31 3.2.68 4.88 1.1 1.68.42 3.19 1.12 4.52 2.1v.21c-1.2.84-2.63 1.51-4.31 2ZM814.38 477.65c0 7.01 1.51 13.24 4.52 18.7a32.91 32.91 0 0 0 12.45 12.81c5.29 3.08 11.33 4.62 18.12 4.62s13.06-1.54 18.38-4.62c5.32-3.08 9.49-7.35 12.5-12.81s4.52-11.63 4.52-18.7-1.51-13.34-4.52-18.8a33.25 33.25 0 0 0-12.5-12.87c-5.32-3.11-11.59-4.67-18.38-4.67s-12.83 1.55-18.12 4.67a33.34 33.34 0 0 0-12.45 12.87c-3.02 5.46-4.52 11.79-4.52 18.8Zm18.81-28.68c4.69-2.8 9.98-4.2 16.28-4.2s11.8 1.4 16.49 4.2c4.69 2.81 8.35 6.67 10.98 11.61s3.94 10.7 3.94 17.07-1.31 12.01-3.94 16.91a29.35 29.35 0 0 1-10.98 11.55c-4.69 2.8-10.19 4.2-16.49 4.2s-11.59-1.4-16.28-4.2-8.33-6.65-10.92-11.55c-2.6-4.9-3.89-10.47-3.89-16.91s1.3-12.13 3.89-17.07a28.83 28.83 0 0 1 10.92-11.61Z"/><path d="M850.31 497.5h.02c4.34-.01 7.75-.9 10.24-2.69s4.5-3.8 6.04-6.04l-2-1.79a15.7 15.7 0 0 1-5.36 3.78c-1.89.78-4.41 1.16-7.56 1.16-4.41 0-7.7-1.33-9.87-3.99-2.18-2.66-3.26-6.37-3.26-11.13 0-3.29.28-6.13.84-8.51s1.62-4.21 3.2-5.51c1.57-1.29 3.83-1.94 6.77-1.94 3.64 0 6.46.83 8.46 2.47 2 1.65 3.38 4.4 4.15 8.25h2.94v-14.08h-2.52c-1.05 1.26-1.79 1.89-2.21 1.89-.56 0-1.2-.18-1.94-.53-.74-.35-1.76-.69-3.05-1-1.3-.31-3.1-.47-5.41-.47-6.31 0-11.07 1.8-14.29 5.41-3.22 3.61-4.83 8.52-4.83 14.97s1.68 11.35 5.04 14.71 8.23 5.04 14.6 5.04ZM914.81 461.36c-1.75-2.03-2.94-3.36-3.57-3.99s-1.16-1.19-1.58-1.68v-.21c1.26-.28 2.43-.77 3.52-1.47s1.63-1.93 1.63-3.68c0-2.03-.89-3.37-2.68-4.04-1.79-.67-3.8-1-6.04-1h-9.03v1.47c1.19 0 1.94.14 2.26.42.31.29.47.88.47 1.79v11.24c0 1.2-.21 1.93-.63 2.21-.42.28-1.19.42-2.31.42v1.68h10.29v-1.68c-1.4 0-2.3-.14-2.68-.42-.39-.28-.58-1.02-.58-2.21v-4.1h1.26c.35 0 .74.25 1.16.74.7.91 1.37 1.8 2 2.68.63.88 1.79 2.54 3.47 4.99h5.57v-1.68c-.63 0-1.09-.11-1.37-.32-.28-.21-.67-.6-1.16-1.16Zm-5.88-7.87c-.84.56-2.17.84-3.99.84h-1.05v-7.04h1.89c1.47 0 2.57.2 3.31.58.73.39 1.1 1.21 1.1 2.47 0 1.54-.42 2.59-1.26 3.15Z"/><path d="M915.82 438.89c-2.7-1.61-5.93-2.42-9.3-2.42s-6.4.81-9.09 2.42a17.77 17.77 0 0 0-6.41 6.56c-1.57 2.77-2.36 6.01-2.36 9.51s.77 6.64 2.31 9.4a16.9 16.9 0 0 0 6.35 6.51 17.91 17.91 0 0 0 9.19 2.36h.01c3.51 0 6.6-.78 9.3-2.36a16.9 16.9 0 0 0 6.35-6.51c1.54-2.76 2.31-5.83 2.31-9.4s-.77-6.74-2.31-9.51a17.32 17.32 0 0 0-6.35-6.56Zm1.93 27.67c-2.87 3.05-6.62 4.57-11.24 4.57s-8.35-1.52-11.19-4.57c-2.83-3.05-4.25-6.78-4.25-11.61s1.41-8.77 4.25-11.82 6.57-4.57 11.19-4.57 8.37 1.52 11.24 4.57c2.87 3.05 4.31 7.12 4.31 11.82s-1.44 8.56-4.31 11.61ZM633.97 640.83c2.31 2.28 4.66 4.61 7.04 6.99l2.52-2.21h.01l-14.5-19.13v-.63l14.18-18.8-2.42-2.1a1058.6 1058.6 0 0 1-6.67 6.62l-6.88 6.78a271.16 271.16 0 0 1-7.25 6.88v2.42c2.38 2.1 4.73 4.26 7.04 6.46s4.62 4.45 6.93 6.72Z"/><path d="m651.09 625.85 14.18-18.8-2.42-2.1c-2.17 2.17-4.4 4.38-6.67 6.62l-6.88 6.78a433.8 433.8 0 0 1-7.14 6.88v2.42c2.38 2.1 4.7 4.25 6.98 6.46a1393.33 1393.33 0 0 1 13.92 13.71l2.52-2.21h.01l-14.5-19.13v-.63ZM700.03 627.66v-2.42a608.73 608.73 0 0 1-14.08-13.66 594.8 594.8 0 0 0-6.72-6.62l-2.42 2.1 14.29 18.8v.63l-14.5 19.12 2.42 2.21 7.04-6.98c2.31-2.27 4.62-4.51 6.93-6.72s4.66-4.36 7.04-6.46Z"/><path d="M722.09 627.66v-2.42a638.33 638.33 0 0 1-14.08-13.66 594.8 594.8 0 0 0-6.72-6.62l-2.31 2.1 14.18 18.8v.63l-14.5 19.12 2.42 2.21 7.04-6.98c2.31-2.27 4.62-4.51 6.93-6.72s4.66-4.36 7.04-6.46ZM758.67 590.89v21.32h-27.73v7.04h27.73v22.48h7.14v-22.48h27.73v-7.04h-27.73v-21.32h-7.14zM730.94 647.61h62.6v7.04h-62.6zM858.44 594.56l-24.79 24.79-24.79-24.79-5.04 4.94 24.84 24.84-24.84 24.84 4.94 4.94 24.82-24.87 24.86 24.87 4.94-5.04-24.82-24.82 24.82-24.87-4.94-4.83zM884.05 648.03l3.01-18.91h16.55l-2.86 18.91h5.04l2.86-18.91h13.11v-4.2h-12.48l2.27-15.02h12.41v-4.31H912.2l2.94-19.43h-5.04l-2.94 19.43H890.8l3.11-19.54-5.04.11-3.07 19.43h-12.69v4.31h12.01l-2.37 15.02H870.6v4.2h11.49l-2.99 18.91h4.94Zm6.07-38.13h16.39l-2.27 15.02h-16.51l2.39-15.02ZM790.66 760.33c3.15 0 6.2-.33 9.14-1 2.94-.66 5.57-1.78 7.88-3.36s4.14-3.64 5.51-6.2 2.05-5.73 2.05-9.51c0-4.27-1.07-7.54-3.2-9.82s-4.93-3.87-8.4-4.78a43.46 43.46 0 0 0-11.08-1.37h-23.53v3.05c2.1 0 3.78.18 5.04.53s2.16 1.04 2.68 2.05c.53 1.01.79 2.5.79 4.46v21.64h-8.61v4.31h8.61v7.35h-8.51v4.41h8.51v5.57c0 2.8-.21 4.9-.63 6.3a3.98 3.98 0 0 1-2.52 2.78c-1.26.45-3.19.68-5.78.68v3.05h28.24v-3.05c-2.73 0-4.83-.22-6.3-.68a4.41 4.41 0 0 1-2.99-2.78c-.53-1.4-.79-3.54-.79-6.41v-5.46h18.49v-4.41h-18.49v-7.35h3.89Zm-3.87-31.62a31.55 31.55 0 0 1 4.94-.42c4.55 0 7.95 1.16 10.19 3.47s3.36 5.64 3.36 9.98c0 5.53-1.23 9.29-3.68 11.29-2.45 1.99-6.16 2.99-11.13 2.99h-3.68v-27.31ZM871.73 776.29c-1.96 3.01-4.17 5.11-6.62 6.3-2.45 1.2-5.43 1.79-8.93 1.79-4.27 0-7.67-1.23-10.19-3.68s-4.34-5.81-5.46-10.08c-.52-1.97-.9-4.08-1.18-6.31h19.36l.84-4.62h-20.6a72.6 72.6 0 0 1-.02-6.82h20.93l1.05-4.62H839.3c.1-.84.21-1.68.34-2.52.52-3.43 1.38-6.56 2.57-9.4s2.77-5.11 4.73-6.83a10.49 10.49 0 0 1 7.14-2.57c4.34 0 7.63 1.27 9.87 3.83s3.71 6.95 4.41 13.18h3.26l.95-20.8h-2.42c-.7 1.12-1.3 1.96-1.79 2.52s-.98.84-1.47.84c-.42 0-1.1-.32-2.05-.95s-2.26-1.24-3.94-1.84a20.42 20.42 0 0 0-6.62-.89c-5.46 0-9.94 1.45-13.44 4.36-3.51 2.91-6.19 6.86-8.04 11.87a54.25 54.25 0 0 0-2.45 9.2h-4.84l-.95 4.62h5.12a66.52 66.52 0 0 0-.29 3.25c0 1.21.03 2.4.08 3.57h-5.11l-.95 4.62h6.41c.21 2.03.5 4 .88 5.89.88 4.35 2.26 8.15 4.15 11.4s4.38 5.77 7.46 7.56 6.79 2.68 11.13 2.68h.02c3.71 0 6.86-.63 9.45-1.89s4.8-2.92 6.62-4.99a31.87 31.87 0 0 0 4.62-6.88l-2.42-1.79ZM920.55 730.69c2.77 2.38 4.71 6.27 5.83 11.66h3.05v-13.66a27.2 27.2 0 0 0-5.67-2.94 37.14 37.14 0 0 0-11.66-2.36v-6.97h-4.52v6.97c-5.62.29-10.15 1.7-13.6 4.25a13.54 13.54 0 0 0-5.83 11.45c0 2.94.67 5.58 2 7.93 1.33 2.35 3.57 4.62 6.72 6.83a83 83 0 0 0 10.71 6.13v27.23c-4.22-.02-7.78-1.26-10.66-3.73-2.9-2.48-4.95-6.88-6.14-13.18h-3.05v15.97c1.96 1.12 3.93 2.04 5.93 2.78s4.19 1.28 6.57 1.63c2.21.32 4.66.5 7.35.52v9.04h4.52v-9.2c3.2-.25 6.11-.81 8.73-1.69a17.42 17.42 0 0 0 8.56-5.88c2.07-2.69 3.1-6.18 3.1-10.45 0-2.73-.53-5.16-1.58-7.3a18.88 18.88 0 0 0-4.31-5.67c-1.82-1.64-3.83-3.13-6.04-4.46s-4.47-2.56-6.78-3.68l-1.68-.85v-23.82c3.33.34 6.15 1.48 8.45 3.45Zm-.36 36.77c2.17 2.03 3.26 4.73 3.26 8.09 0 4.07-1.23 7.03-3.68 8.88-1.75 1.32-4.32 2.16-7.67 2.54v-24.79c3.58 1.83 6.29 3.59 8.09 5.27Zm-17.18-21.27c-2.49-1.43-4.2-2.85-5.15-4.25s-1.42-3.12-1.42-5.15c0-3.22 1.17-5.64 3.52-7.25 1.88-1.29 4.47-2.06 7.62-2.32v21.48a130.6 130.6 0 0 1-4.57-2.52ZM545.96 917.58c-1.96 0-3.5.65-4.62 1.94s-1.68 2.92-1.68 4.67.5 3.22 1.52 4.41c1.01 1.19 2.57 1.79 4.67 1.79 2.1.01 3.71-.61 4.83-1.83s1.68-2.64 1.68-4.25c0-1.82-.56-3.4-1.68-4.73s-2.77-2-4.73-2ZM575.69 917.58c-1.96 0-3.5.65-4.62 1.94s-1.68 2.92-1.68 4.67.5 3.22 1.52 4.41c1.01 1.19 2.57 1.79 4.67 1.79 2.1.01 3.71-.61 4.83-1.83s1.68-2.64 1.68-4.25c0-1.82-.56-3.4-1.68-4.73s-2.77-2-4.73-2ZM605.41 917.58c-1.96 0-3.5.65-4.62 1.94s-1.68 2.92-1.68 4.67.51 3.22 1.52 4.41 2.57 1.79 4.67 1.79c2.1.01 3.71-.61 4.83-1.83s1.68-2.64 1.68-4.25c0-1.82-.56-3.4-1.68-4.73s-2.77-2-4.73-2ZM654.14 855.7c-1.82 0-3.12.57-3.89 1.73a13.87 13.87 0 0 0-1.79 3.83l-7.35 24.79 3.57 1.58 11.87-22.79h.01c.49-.98.88-1.82 1.16-2.52a5.62 5.62 0 0 0-.53-5.25c-.63-.91-1.65-1.37-3.05-1.37ZM640.38 857.07c-.63-.91-1.65-1.37-3.05-1.37-1.83 0-3.12.57-3.89 1.73a13.87 13.87 0 0 0-1.79 3.83l-7.35 24.79 3.57 1.58 11.87-22.79h.01c.49-.98.88-1.82 1.16-2.52a5.62 5.62 0 0 0-.53-5.25ZM848.64 868.63c-5.88-3.22-13.03-4.83-21.43-4.83-6.3 0-12.08 1.04-17.33 3.1s-9.78 4.99-13.6 8.77c-3.81 3.78-6.75 8.29-8.82 13.5s-3.1 11.01-3.1 17.38c0 8.68 1.68 16.19 5.04 22.53 3.37 6.34 8.27 11.26 14.71 14.76s14.29 5.25 23.53 5.25c4.55.01 8.98-.54 13.29-1.62a54.8 54.8 0 0 0 13.5-5.62l-1.37-3.05a45.87 45.87 0 0 1-12.66 4.1c-4.03.64-8 .95-11.92.95-7.63 0-14.18-1.51-19.64-4.52a30.32 30.32 0 0 1-12.55-13.03c-2.91-5.67-4.36-12.49-4.36-20.48s1.48-14.76 4.46-20.33a30.5 30.5 0 0 1 12.39-12.71c5.28-2.9 11.43-4.36 18.43-4.36 6.51 0 12.22 1.34 17.12 4.04s8.72 6.51 11.45 11.45 4.1 10.49 4.1 17.7-.98 12.79-2.94 16.75c-1.96 3.95-5.11 5.93-9.45 5.93-1.61 0-2.67-.56-3.2-1.68a9 9 0 0 1-.79-3.89l.42-35.29h-4.83l-2.73 4.52h-.74c-1.12-1.4-2.5-2.61-4.15-3.62s-3.73-1.52-6.25-1.52c-3.64 0-6.79.76-9.45 2.26a19.78 19.78 0 0 0-6.62 6.09 27.53 27.53 0 0 0-3.89 8.61 38.01 38.01 0 0 0-1.26 9.72c0 5.53.78 9.85 2.36 12.97 1.57 3.12 3.6 5.29 6.09 6.51a17.32 17.32 0 0 0 7.72 1.84c3.15 0 6.06-.89 8.72-2.68a21.6 21.6 0 0 0 6.62-7.2h.52c.42 3.43 1.37 5.87 2.84 7.3 1.47 1.43 3.85 2.15 7.14 2.15 4.27 0 7.95-1.13 11.03-3.41 3.08-2.27 5.48-5.55 7.2-9.82 1.71-4.26 2.57-9.45 2.57-15.54 0-7.35-1.55-13.88-4.67-19.59a33.23 33.23 0 0 0-13.5-13.39Zm-13.33 46.53c-.84 2.17-2.24 4.24-4.2 6.2s-4.59 2.94-7.88 2.94c-1.82 0-3.54-.46-5.15-1.37-1.61-.9-2.93-2.6-3.94-5.09s-1.52-6.01-1.52-10.56c0-3.22.39-6.42 1.16-9.61.77-3.18 2.1-5.84 3.99-7.98s4.45-3.21 7.67-3.21c2.8 0 5.08.93 6.83 2.78a12.25 12.25 0 0 1 3.26 6.36l-.21 19.54ZM697.09 855.4c-2.1 0-3.71.62-4.83 1.84a6.26 6.26 0 0 0-1.68 4.36c0 1.47.46 2.77 1.37 3.89s2.38 1.68 4.41 1.68c.56 0 1.09-.04 1.58-.11s1.05-.25 1.68-.53c0 2.52-.46 4.55-1.37 6.09s-2.03 2.73-3.36 3.57a27.38 27.38 0 0 1-3.99 2.1l1.26 2.63v.02c1.12-.5 2.42-1.09 3.89-1.79s2.88-1.67 4.25-2.89c1.36-1.23 2.5-2.8 3.41-4.73s1.37-4.33 1.37-7.2-.67-4.9-2-6.51-3.33-2.42-5.99-2.42ZM677.13 855.4c-2.1 0-3.71.62-4.83 1.84a6.26 6.26 0 0 0-1.68 4.36c0 1.47.46 2.77 1.37 3.89s2.38 1.68 4.41 1.68c.56 0 1.09-.04 1.58-.11s1.05-.25 1.68-.53c0 2.52-.46 4.55-1.37 6.09s-2.03 2.73-3.36 3.57a27.38 27.38 0 0 1-3.99 2.1l1.26 2.63v.02c1.12-.5 2.42-1.09 3.89-1.79s2.89-1.66 4.25-2.89 2.5-2.8 3.41-4.73 1.37-4.33 1.37-7.2-.67-4.9-2-6.51-3.33-2.42-5.99-2.42ZM712.53 902.77l60.82 29.41v-6.82l-46.53-23.11 46.53-23.11v-7.04l-60.82 29.62v1.05zM872.62 872.08v7.04l46.43 23.11-46.43 23.11v6.83l60.82-29.41v-1.06l-60.82-29.62zM87.29 223.28c8.31 5.15 19.39 7.73 33.24 7.73v.02c9.7 0 18.43-1.35 26.2-4.04a76.28 76.28 0 0 0 21.12-11.2 108.45 108.45 0 0 0 17.31-16.39l-4.15-4.39a94 94 0 0 1-15.7 11.66c-5.38 3.16-10.88 5.5-16.5 7.04s-11.43 2.31-17.43 2.31c-15.23 0-26.5-4.04-33.81-12.12s-10.96-19.81-10.96-35.2c0-12.77 1.73-24.35 5.19-34.74 3.46-10.39 8.23-19.31 14.31-26.78 6.08-7.46 13.04-13.23 20.89-17.31a53.76 53.76 0 0 1 25.16-6.12c11.38 0 20.23 3.35 26.54 10.04 6.31 6.69 9.15 17.73 8.54 33.12h7.62l10.85-52.86h-6.69a92.36 92.36 0 0 1-4.85 6c-1.39 1.54-3.01 2.31-4.85 2.31s-4-.73-6.46-2.19-5.88-2.89-10.27-4.27c-4.39-1.39-10.5-2.08-18.35-2.08a88.43 88.43 0 0 0-33.7 6.58 87.26 87.26 0 0 0-28.97 19.39c-8.54 8.54-15.28 19.08-20.2 31.62-4.93 12.55-7.39 26.89-7.39 43.05 0 10.16 1.8 19.54 5.42 28.16 3.62 8.62 9.58 15.51 17.89 20.66ZM203.01 127.36c3.39-.3 5.85-.46 7.39-.46 2.77 0 4.69.55 5.77 1.62 1.08 1.08 1.62 2.62 1.62 4.62 0 1.7-.23 4.24-.69 7.62l-18.47 87.71h18.93-.01l7.18-31.53c2.37-5.52 5.2-11.43 8.52-17.75 4-7.62 8.34-14.81 13.04-21.58 4.69-6.77 9.34-12.31 13.96-16.62 4.62-4.3 8.85-6.46 12.7-6.46 2.62 0 4.39.88 5.31 2.65a14.15 14.15 0 0 1 1.38 6.58c0 1.84-.38 5-1.15 9.46a1272.33 1272.33 0 0 1-8.77 37.97 1550.1 1550.1 0 0 1-9.69 37.28h19.15l6.23-29.08.05-.13-.04.13c1.38-4 3.46-8.74 6.23-14.2 2.77-5.46 6-11.15 9.69-17.08a183.82 183.82 0 0 1 11.54-16.5c4-5.08 7.89-9.19 11.66-12.35 3.77-3.15 7.12-4.73 10.04-4.73 2.62 0 4.39.88 5.31 2.65a14.15 14.15 0 0 1 1.38 6.58c0 2.46-.43 5.58-1.27 9.35a410.8 410.8 0 0 1-2.42 10.27l-11.77 44.78c-.15.62-.38 1.81-.69 3.58a31.3 31.3 0 0 0-.46 5.42c0 3.39 1.07 6.5 3.23 9.35 2.15 2.85 6.15 4.27 12 4.27h.02c4.16.01 7.84-.84 11.08-2.53s6.12-3.89 8.66-6.58a71.33 71.33 0 0 0 6.69-8.19c1.92-2.77 3.65-5.23 5.19-7.39l-4.62-3.46c-1.85 2.16-4.19 4.7-7.04 7.62s-6.27 4.38-10.27 4.38c-2.93 0-4.39-1.46-4.39-4.38 0-1.39.23-3.23.69-5.54l12.7-53.32 1.38-7.62c.61-3.38.92-6.54.92-9.46 0-4.15-1-7.92-3-11.31s-5.77-5.08-11.31-5.08a31.06 31.06 0 0 0-17.43 5.42 67.76 67.76 0 0 0-15 13.73 147.12 147.12 0 0 0-12.12 17.08 277.28 277.28 0 0 0-8.29 14.54h-1.18l4.39-17.31c.15-.61.53-2.77 1.15-6.46.61-3.7.92-7.23.92-10.62 0-4.15-.96-7.92-2.88-11.31-1.93-3.39-5.74-5.08-11.43-5.08a33.49 33.49 0 0 0-18.7 5.77 71.13 71.13 0 0 0-15.81 14.31 136.3 136.3 0 0 0-12.35 17.54c-2.89 4.9-5.36 9.28-7.43 13.15h-1.8l11.31-50.09h-5.31l-31.62 2.54v6.23ZM475.78 211.86c-2.54 2-5.19 3-7.96 3-1.85 0-3.12-.42-3.81-1.27a4.14 4.14 0 0 1-1.04-2.65c0-1.7.47-5 1.39-9.93l17.08-81.71h-19.16l-7.39 32.55a76.76 76.76 0 0 1-5.08 14.43 150.3 150.3 0 0 1-8.77 16.5 136.17 136.17 0 0 1-10.96 15.46 68.57 68.57 0 0 1-11.77 11.54c-3.92 2.93-7.58 4.39-10.96 4.39-2.46 0-4.24-.88-5.31-2.65-1.08-1.77-1.62-4.04-1.62-6.81 0-2.15.54-5.85 1.62-11.08l15.93-75.02h-7.16l-31.16 2.54v6.23a57.52 57.52 0 0 1 7.84-.47c2 0 3.89.43 5.66 1.27 1.76.85 2.65 2.5 2.65 4.96 0 1.39-.2 3.23-.58 5.54s-.96 5.31-1.73 9l-11.08 49.63c-.31 1.54-.77 3.96-1.38 7.27-.61 3.31-.92 6.5-.92 9.58 0 4.31 1.07 8.16 3.23 11.54 2.15 3.38 6.15 5.08 12 5.08h-.01c6.77 0 12.89-1.69 18.35-5.07a60.63 60.63 0 0 0 14.66-12.81 133.55 133.55 0 0 0 11.43-15.81c3.3-5.38 6.11-10.08 8.42-14.08h2.08c-2 7.54-3.73 13.93-5.19 19.16a59.09 59.09 0 0 0-2.19 15.93c0 5.08 1.54 8.42 4.62 10.04a19.73 19.73 0 0 0 9.23 2.42c4.77 0 8.96-1 12.58-3 3.61-2 7.04-4.81 10.27-8.43 3.24-3.61 6.54-7.88 9.93-12.81l-4.85-3.46c-3.39 4-6.35 7-8.89 9ZM568.41 230.53c4.31 0 8.2-1.08 11.66-3.23a41.38 41.38 0 0 0 9.81-8.77c3.07-3.69 6.15-7.84 9.23-12.46l-4.85-3.46a71.7 71.7 0 0 1-3.58 4.04 43.75 43.75 0 0 1-6.81 5.89c-2.62 1.85-5.23 2.77-7.85 2.77-3.54 0-6.27-1.77-8.19-5.31a73.31 73.31 0 0 1-5.19-12.46 86.6 86.6 0 0 0-6.81-15.81c-2.85-5.15-6.5-8.73-10.96-10.73v-.46c6.31-3.38 11.08-7.42 14.31-12.12 3.24-4.7 5.62-8.51 7.16-11.43a97.6 97.6 0 0 1 4.96-8.89 7.65 7.65 0 0 1 6.81-3.81c1.54 0 2.89.43 4.04 1.27 1.16.84 2.43 1.73 3.81 2.65a8.92 8.92 0 0 0 5.08 1.39c3.39 0 6-1 7.85-3 1.85-2 2.77-4.39 2.77-7.16 0-4-1.46-7.04-4.38-9.12a17.47 17.47 0 0 0-10.39-3.12c-5.08 0-9.35 1.35-12.81 4.04s-6.39 6.11-8.77 10.27a338.05 338.05 0 0 0-7.04 12.93c-4.46 8.93-9.39 15.09-14.77 18.47-4.88 3.07-10.7 4.67-17.46 4.83l10.32-49.14h-5.08l-32.78 2.54v6.23c1.39-.16 2.66-.27 3.81-.35 1.16-.08 2.27-.12 3.35-.12 3.69 0 6.04.62 7.04 1.85 1 1.24 1.5 2.85 1.5 4.85 0 1.08-.08 2.47-.23 4.16s-.31 2.69-.46 3l-18.7 87.71h18.47l11.13-52.96c.67-.08 1.14-.13 1.43-.13h1.27c3.85 0 6.73.8 8.66 2.42 1.92 1.62 3.58 4.46 4.96 8.54 1.39 4.08 3 9.89 4.85 17.43 1.39 5.08 2.85 9.62 4.39 13.62 1.54 4 3.73 7.2 6.58 9.58 2.85 2.39 6.81 3.58 11.89 3.58l-.03-.02ZM637.04 231.46c6.93 0 13.16-1.35 18.7-4.04a55.62 55.62 0 0 0 14.77-10.39c4.31-4.23 8-8.73 11.08-13.5l-3.92-3.46a45.24 45.24 0 0 1-12.35 10.85c-4.85 2.92-11.04 4.38-18.58 4.38-5.7 0-10.39-1-14.08-3-3.69-1.99-6.42-5.15-8.19-9.46s-2.65-9.85-2.65-16.62.84-13.69 2.54-20.77a83.35 83.35 0 0 1 7.39-19.74c3.23-6.08 7.19-10.97 11.89-14.66a25.56 25.56 0 0 1 16.27-5.54c3.53 0 6.26.62 8.19 1.85 1.92 1.24 2.88 2.7 2.88 4.39 0 1.85-.73 4.24-2.19 7.16s-2.19 5.92-2.19 9c0 2.47.77 4.43 2.31 5.89 1.53 1.46 3.69 2.19 6.46 2.19 4.3 0 7.53-1.62 9.69-4.85 2.15-3.23 3.23-7.15 3.23-11.77 0-7.54-2.54-13-7.62-16.39-5.08-3.39-11.24-5.08-18.47-5.08-8 0-15.62 1.89-22.85 5.66a61.4 61.4 0 0 0-19.04 15.58 76.8 76.8 0 0 0-12.93 22.97 80.98 80.98 0 0 0-4.73 27.81c0 8.47 1.3 15.78 3.92 21.93 2.61 6.16 6.46 10.97 11.54 14.43s11.39 5.19 18.93 5.19Z"/></svg>