<svg xmlns="http://www.w3.org/2000/svg" id="Layer_1" data-name="Layer 1" viewBox="0 0 1000 1000">
  <defs/>
  <text font-family="STIXTwoText,&quot;STIX Two Text&quot;" font-size="58.64" transform="translate(72.41 357.54)"><tspan x="0" y="0" letter-spacing="0">A</tspan><tspan x="42.23" y="0" letter-spacing="0">a</tspan><tspan x="70.38" y="0" letter-spacing="0">Б</tspan><tspan x="106.18" y="0" letter-spacing="-.02em">б</tspan><tspan x="135.78" y="0" letter-spacing="-.02em">В</tspan><tspan x="171.06" y="0" letter-spacing="-.02em">в</tspan><tspan x="199.62" y="0" letter-spacing="0">Г</tspan><tspan x="232.32" y="0" letter-spacing="-.05em">г</tspan><tspan x="254.69" y="0" letter-spacing=".02em">Д</tspan><tspan x="294.54" y="0">д</tspan><tspan x="0" y="82.1" class="cls-61">Е</tspan><tspan x="36.99" y="82.1" letter-spacing="-.02em">е</tspan><tspan x="62.8" y="82.1" class="cls-61">Ё</tspan><tspan x="99.79" y="82.1" class="cls-78">ё</tspan><tspan x="126.93" y="82.1" letter-spacing=".04em">Ж</tspan><tspan x="184.4" y="82.1" letter-spacing="0">ж</tspan><tspan x="228.32" y="82.1" letter-spacing="0">З</tspan><tspan x="260.25" y="82.1" letter-spacing="-.02em">з</tspan><tspan x="284.77" y="82.1" letter-spacing="0">И</tspan><tspan x="330.6" y="82.1" class="cls-20">и</tspan><tspan x="0" y="164.19" letter-spacing="0">Й</tspan><tspan x="45.83" y="164.19" letter-spacing="0">й</tspan><tspan x="81.28" y="164.19" letter-spacing=".03em">К</tspan><tspan x="121.66" y="164.19" letter-spacing=".05em">к</tspan><tspan x="155.3" y="164.19" letter-spacing=".02em">Л</tspan><tspan x="196.83" y="164.19" letter-spacing="0">л</tspan><tspan x="229.6" y="164.19" letter-spacing="0">М</tspan><tspan x="282.33" y="164.19">м</tspan><tspan x="0" y="246.29" class="cls-89">Н</tspan><tspan x="45.78" y="246.29" letter-spacing="0">н</tspan><tspan x="80.68" y="246.29" letter-spacing="0">О</tspan><tspan x="123.39" y="246.29" class="cls-47">о</tspan><tspan x="151.47" y="246.29" class="cls-89">П</tspan><tspan x="196.19" y="246.29" class="cls-78">п</tspan><tspan x="230.79" y="246.29" letter-spacing=".01em">Р</tspan><tspan x="264.81" y="246.29" letter-spacing="0">р</tspan><tspan x="295.86" y="246.29" letter-spacing="0">С</tspan><tspan x="334.82" y="246.29">с</tspan><tspan x="0" y="328.38" letter-spacing=".02em">Т</tspan><tspan x="36.65" y="328.38" letter-spacing="-.04em">т</tspan><tspan x="60.86" y="328.38" letter-spacing="-.02em">У</tspan><tspan x="96.36" y="328.38" letter-spacing=".02em">у</tspan><tspan x="125.63" y="328.38" letter-spacing="0">Ф</tspan><tspan x="167.92" y="328.38" letter-spacing="-.02em">ф</tspan><tspan x="208.54" y="328.38" letter-spacing=".04em">Х</tspan><tspan x="249.65" y="328.38" letter-spacing=".02em">х</tspan><tspan x="278.96" y="328.38" letter-spacing="0">Ц</tspan><tspan x="323.32" y="328.38" class="cls-20">ц</tspan><tspan x="0" y="410.48" class="cls-47">Ч</tspan><tspan x="36.06" y="410.48" letter-spacing="0">чШ</tspan><tspan x="129.55" y="410.48" class="cls-28">ш</tspan><tspan x="177.32" y="410.48" letter-spacing="0">Щ</tspan><tspan x="238.6" y="410.48" letter-spacing="0">щ</tspan><tspan x="286.45" y="410.48" letter-spacing="-.03em">Ь</tspan><tspan x="320.25" y="410.48">ь</tspan><tspan x="0" y="492.57" class="cls-28">Ы</tspan><tspan x="52.17" y="492.57" letter-spacing=".01em">ы</tspan><tspan x="95.61" y="492.57" letter-spacing="0">Ъ</tspan><tspan x="138.1" y="492.57" letter-spacing="0">ъ</tspan><tspan x="171.66" y="492.57" letter-spacing="-.01em">Э</tspan><tspan x="210.07" y="492.57" letter-spacing="-.03em">э</tspan><tspan x="235.46" y="492.57" letter-spacing="0">Ю</tspan><tspan x="296.03" y="492.57" letter-spacing="-.01em">ю</tspan><tspan x="340.65" y="492.57" letter-spacing=".02em">Я</tspan><tspan x="379.98" y="492.57" letter-spacing="0">я</tspan><tspan x="0" y="574.67" letter-spacing="-.03em">!</tspan><tspan x="15.04" y="574.67" letter-spacing="-.04em">?</tspan><tspan x="36.56" y="574.67" letter-spacing="-.02em">&amp;</tspan><tspan x="78.67" y="574.67" letter-spacing="0">%</tspan><tspan x="119.72" y="574.67" letter-spacing="0">№</tspan><tspan x="182.14" y="574.67" letter-spacing="0">*</tspan><tspan x="205.89" y="574.67" letter-spacing="0">(</tspan><tspan x="226.28" y="574.67" letter-spacing=".02em">)</tspan><tspan x="247.68" y="574.67" letter-spacing="0">—</tspan><tspan x="305.98" y="574.67" letter-spacing="-.04em">+</tspan><tspan x="345.94" y="574.67" letter-spacing="-.03em">=</tspan><tspan x="386.2" y="574.67" letter-spacing="-.02em">;</tspan><tspan x="399.26" y="574.67">:</tspan></text>
  <text font-family="STIXTwoText-SemiBold,&quot;STIX Two Text&quot;" font-size="105.04" font-weight="600" transform="translate(620.55 373.23)"><tspan x="0" y="0" letter-spacing="0">1</tspan><tspan x="50.95" y="0" letter-spacing="-.02em">2</tspan><tspan x="100.93" y="0" letter-spacing="0">3</tspan><tspan x="153.15" y="0" letter-spacing="-.02em">4</tspan><tspan x="203.36" y="0" letter-spacing="0">5</tspan><tspan x="254.89" y="0">6</tspan><tspan x="-56.58" y="139.08" letter-spacing="-.01em">7</tspan><tspan x="-6.02" y="139.08" letter-spacing="-.02em">8</tspan><tspan x="44.12" y="139.08" letter-spacing="0">9</tspan><tspan x="96.18" y="139.08" letter-spacing="0">0</tspan><tspan x="148.99" y="139.08" letter-spacing="0">₽</tspan><tspan x="202.02" y="139.08" letter-spacing="0">€</tspan><tspan x="254.89" y="139.08" class="cls-68">$</tspan><tspan x="-4.02" y="278.16" class="cls-4">«</tspan><tspan x="50.7" y="278.16" letter-spacing="-.04em">»</tspan><tspan x="103.87" y="278.16" class="cls-4">±</tspan><tspan x="178.65" y="278.16" letter-spacing="-.04em">×</tspan><tspan x="246.69" y="278.16" class="cls-68">#</tspan><tspan x="76.34" y="417.24" letter-spacing="-.02em">*</tspan><tspan x="117.93" y="417.24" letter-spacing="-.03em">⁋</tspan><tspan x="184.92" y="417.24" letter-spacing="-.03em">©</tspan><tspan x="263.5" y="417.24">®</tspan><tspan x="-91.4" y="556.32" letter-spacing="-.11em">…</tspan><tspan x="-3.18" y="556.32" letter-spacing="-.1em">ʺ</tspan><tspan x="37.26" y="556.32" letter-spacing="-.05em">@</tspan><tspan x="128.93" y="556.32" letter-spacing="-.16em">”</tspan><tspan x="159.52" y="556.32" letter-spacing="-.04em">&lt;</tspan><tspan x="231.15" y="556.32" letter-spacing="0">&gt;</tspan></text>
  <text font-family="STIXTwoText-MediumItalic,&quot;STIX Two Text&quot;" font-size="230.82" font-style="italic" font-weight="500" transform="translate(50.13 228.47)"><tspan x="0" y="0" letter-spacing="-.02em">С</tspan><tspan x="149.31" y="0" letter-spacing="-.02em">т</tspan><tspan x="340.38" y="0" letter-spacing="-.02em">и</tspan><tspan x="467.88" y="0" letter-spacing="0">к</tspan><tspan x="592.57" y="0" letter-spacing="0">с</tspan></text>
</svg>
