<svg xmlns="http://www.w3.org/2000/svg" id="Layer_1" data-name="Layer 1" viewBox="0 0 1000 1000">
  <defs/>
  <text font-family="STIXTwoText,&quot;STIX Two Text&quot;" font-size="67.26" transform="translate(61.13 568.49)"><tspan x="0" y="0" letter-spacing="-.02em">R</tspan><tspan x="42.9" y="0" letter-spacing="-.02em">e</tspan><tspan x="72.64" y="0" letter-spacing="0">g</tspan><tspan x="105.41" y="0" letter-spacing="-.01em">u</tspan><tspan x="143.01" y="0" letter-spacing="-.02em">l</tspan><tspan x="160.65" y="0" letter-spacing="0">a</tspan><tspan x="192.53" y="0">r</tspan></text>
  <text font-family="STIXTwoText-Medium,&quot;STIX Two Text&quot;" font-size="67.26" font-weight="500" transform="translate(61.13 640.14)"><tspan x="0" y="0" letter-spacing="-.04em">M</tspan><tspan x="59.59" y="0" letter-spacing="-.01em">e</tspan><tspan x="90.91" y="0" letter-spacing="0">d</tspan><tspan x="127.9" y="0" letter-spacing="-.04em">i</tspan><tspan x="145.1" y="0" letter-spacing="0">u</tspan><tspan x="184.13" y="0">m</tspan></text>
  <text font-family="STIXTwoText-SemiBold,&quot;STIX Two Text&quot;" font-size="67.26" font-weight="600" transform="translate(61.13 711.79)"><tspan x="0" y="0" letter-spacing="0">S</tspan><tspan x="34.46" y="0" letter-spacing="-.03em">e</tspan><tspan x="65.7" y="0" letter-spacing="0">m</tspan><tspan x="126.94" y="0" letter-spacing="-.03em">i</tspan><tspan x="146.17" y="0" letter-spacing="-.02em">b</tspan><tspan x="182.32" y="0" letter-spacing="-.03em">o</tspan><tspan x="216" y="0" letter-spacing="-.03em">l</tspan><tspan x="234.8" y="0" letter-spacing="0">d</tspan></text>
  <text font-size="220" transform="translate(57.39 228.47)"><tspan font-family="STIXTwoText-SemiBold,&quot;STIX Two Text&quot;" font-weight="600"><tspan x="0" y="0" letter-spacing="-.03em">S</tspan><tspan x="107.82" y="0" letter-spacing="-.02em">T</tspan><tspan x="244.48" y="0" letter-spacing="0">I</tspan><tspan x="328.34" y="0" letter-spacing="-.02em">X </tspan></tspan><tspan font-family="STIXTwoText,&quot;STIX Two Text&quot;"><tspan x="0" y="200" letter-spacing="0">T</tspan><tspan x="134.77" y="200" letter-spacing="-.05em">w</tspan><tspan x="288.7" y="200" class="cls-39">o </tspan><tspan x="445.12" y="200" letter-spacing="-.07em">T</tspan><tspan x="562.33" y="200" letter-spacing="-.05em">e</tspan><tspan x="654.4" y="200" letter-spacing="-.03em">x</tspan><tspan x="754.15" y="200" class="cls-39">t</tspan></tspan></text>
  <text font-family="STIXTwoText-MediumItalic,&quot;STIX Two Text&quot;" font-size="67.26" font-style="italic" font-weight="500" transform="matrix(.97 0 0 1 535.04 568.49)"><tspan x="0" y="0" letter-spacing="-.04em">Н</tspan><tspan x="49.44" y="0" letter-spacing="-.02em">о</tspan><tspan x="81.55" y="0" letter-spacing="-.02em">р</tspan><tspan x="116.7" y="0" letter-spacing="0">м</tspan><tspan x="166.94" y="0" letter-spacing=".02em">а</tspan><tspan x="205.31" y="0" letter-spacing="-.02em">л</tspan><tspan x="241.57" y="0" letter-spacing="-.03em">ь</tspan><tspan x="271.36" y="0" letter-spacing="-.02em">н</tspan><tspan x="310.07" y="0" letter-spacing="-.01em">ы</tspan><tspan x="358.22" y="0">й</tspan></text>
  <text font-family="STIXTwoText-Italic,&quot;STIX Two Text&quot;" font-size="67.26" font-style="italic" transform="translate(649.46 640.14)"><tspan x="0" y="0" letter-spacing="-.02em">С</tspan><tspan x="45.43" y="0" letter-spacing="0">р</tspan><tspan x="84.16" y="0" letter-spacing="0">е</tspan><tspan x="115.06" y="0" letter-spacing="-.02em">д</tspan><tspan x="150.32" y="0" letter-spacing="0">н</tspan><tspan x="193.35" y="0" letter-spacing="0">и</tspan><tspan x="233.73" y="0">й</tspan></text>
  <text font-family="STIXTwoText-SemiBoldItalic,&quot;STIX Two Text&quot;" font-size="67.26" font-style="italic" font-weight="600" transform="translate(499.14 711.79)"><tspan x="0" y="0" letter-spacing="-.04em">П</tspan><tspan x="50.22" y="0" letter-spacing="-.01em">о</tspan><tspan x="84.06" y="0" letter-spacing="-.01em">л</tspan><tspan x="122.74" y="0" letter-spacing="0">у</tspan><tspan x="155.9" y="0" letter-spacing="0">ж</tspan><tspan x="221.56" y="0" letter-spacing="-.01em">и</tspan><tspan x="260.12" y="0" letter-spacing="-.02em">р</tspan><tspan x="296.36" y="0" letter-spacing="-.01em">н</tspan><tspan x="336.96" y="0" letter-spacing="0">ы</tspan><tspan x="387.38" y="0">й</tspan></text>
  <path d="M97.62 793.12H60.3v-1.14c1.17 0 2.01-.09 2.53-.27q.78-.27.99-1.08t.21-2.49v-14.97c0-.99-.06-1.77-.17-2.34s-.43-.97-.95-1.2-1.39-.34-2.6-.34v-1.14h10.41v1.14c-1.06 0-1.83.11-2.3.34s-.75.63-.86 1.2q-.15.855-.15 2.34v18.32h9.88v-18.32c0-.99-.06-1.77-.17-2.34s-.41-.97-.87-1.2c-.47-.23-1.25-.34-2.34-.34v-1.14h10.07v1.14c-1.06 0-1.83.11-2.3.34s-.75.63-.86 1.2-.15 1.35-.15 2.34v18.24h9.88v-18.24c0-.99-.06-1.77-.17-2.34s-.41-.97-.87-1.2c-.47-.23-1.25-.34-2.34-.34v-1.14h10.45v1.14c-1.19 0-2.05.11-2.57.34s-.84.63-.95 1.2-.17 1.35-.17 2.34v14.97c0 1.06.07 1.87.21 2.41.14.55.47.92 1.01 1.12.53.2 1.36.3 2.47.3v1.14ZM108.5 801.48h-9.61v-1.06c1.19 0 1.95-.2 2.28-.59s.49-1.12.49-2.18v-18.81c0-.73-.08-1.24-.25-1.52s-.56-.42-1.2-.42c-.25 0-.66.03-1.22.08v-1.1l4.79-1.06h.95v3.19h.11c.91-1.06 1.84-1.88 2.79-2.45s1.98-.85 3.1-.85c1.27 0 2.38.36 3.32 1.08.95.72 1.7 1.72 2.24 3s.82 2.75.82 4.43c0 2.15-.37 4-1.12 5.53s-1.75 2.71-3.02 3.53a7.55 7.55 0 0 1-4.18 1.24c-.71 0-1.39-.08-2.03-.25-.65-.16-1.25-.44-1.8-.82h-.15v4.98q0 1.215.3 1.86c.2.43.57.72 1.1.87s1.29.23 2.28.23v1.1Zm.49-9.46c1.34 0 2.46-.63 3.34-1.9s1.33-3.22 1.33-5.85c0-2.41-.39-4.17-1.18-5.3s-1.89-1.69-3.31-1.69c-1.01 0-1.91.27-2.68.8s-1.34 1.04-1.69 1.52v9.92c.25.25.57.58.95.99s.84.76 1.37 1.06 1.15.46 1.86.46ZM127.56 793.12h-8.36v-1.06c1.06 0 1.77-.14 2.13-.44.35-.29.53-.94.53-1.96v-11.02c0-.68-.06-1.2-.17-1.54s-.36-.57-.72-.68c-.37-.11-.94-.17-1.73-.17v-1.1h8.32v1.1c-.74 0-1.29.06-1.65.17s-.6.34-.7.68-.15.88-.15 1.61v9.27h.08l8.89-9.65c0-.91-.15-1.49-.46-1.73s-.98-.36-2.01-.36v-1.1h8.28v1.1c-.71 0-1.25.06-1.63.17s-.63.36-.76.74-.19.96-.19 1.75v10.75c0 1.01.18 1.67.55 1.96s1.03.44 1.99.44v1.06h-8.25v-1.06c1.01 0 1.68-.14 1.99-.44.32-.29.48-.94.48-1.96v-9.2h-.08l-8.89 9.58c0 .76.16 1.29.49 1.58s1 .44 2.01.44v1.06ZM158.79 801.48h-9.04v-1.1c1.27 0 2.06-.2 2.39-.59s.49-1.12.49-2.18v-5.81h-.15q-.84.72-1.71 1.2c-.58.32-1.32.47-2.2.47-1.52 0-2.75-.46-3.71-1.37s-1.65-2.08-2.09-3.5-.67-2.89-.67-4.41q0-2.925.87-5.04c.58-1.41 1.37-2.49 2.38-3.25 1-.76 2.13-1.14 3.4-1.14q1.335 0 2.19.51c.57.34 1.09.75 1.58 1.23h.11v-6.35c0-.76-.15-1.22-.44-1.39s-.65-.25-1.08-.25c-.36 0-.77.03-1.25.08v-1.03l4.9-1.29h.87v10.22h.15c.48-.48 1.06-.89 1.75-1.23s1.47-.51 2.36-.51c1.24 0 2.34.37 3.29 1.1.95.74 1.7 1.79 2.24 3.15.54 1.37.8 3 .78 4.9 0 1.17-.13 2.31-.38 3.44s-.65 2.15-1.18 3.08c-.53.92-1.22 1.66-2.07 2.2s-1.87.82-3.06.82c-.86 0-1.57-.17-2.13-.49-.56-.33-1.09-.73-1.6-1.22h-.15v5.85c0 .73.08 1.3.23 1.71.15.4.45.68.89.84.44.15 1.12.23 2.03.23v1.1Zm-9.73-9.46c.58 0 1.11-.15 1.58-.44s.88-.64 1.24-1.04c.35-.41.61-.77.76-1.1v-10.53c-.25-.66-.67-1.25-1.25-1.77s-1.28-.78-2.09-.78-1.54.34-2.11 1.01-.99 1.58-1.27 2.74c-.28 1.15-.42 2.48-.42 3.97 0 1.24.11 2.47.32 3.69s.59 2.23 1.12 3.04 1.24 1.22 2.13 1.22Zm10.11-.04c.94 0 1.67-.35 2.19-1.06s.89-1.65 1.12-2.81c.23-1.17.34-2.45.34-3.84 0-1.52-.11-2.88-.34-4.07s-.6-2.13-1.12-2.81-1.24-1.03-2.15-1.03c-.86 0-1.62.27-2.28.82s-1.09 1.12-1.29 1.73v10.53c.23.53.65 1.09 1.25 1.67q.915.87 2.28.87M181.55 793.12h-9.12v-1.06c.84 0 1.46-.06 1.88-.17s.7-.37.85-.76.23-.99.23-1.8v-12.77h-1.41q-1.485 0-2.28.48c-.795.48-.94.83-1.22 1.54s-.54 1.67-.8 2.89h-1.03l.23-6.31h16.23l.23 6.31h-1.03c-.23-1.22-.48-2.18-.76-2.89s-.68-1.22-1.22-1.54q-.795-.48-2.28-.48h-1.48v12.77c0 .81.08 1.41.23 1.8s.44.65.87.76 1.05.17 1.86.17v1.06ZM204.24 793.12h-8.51v-1.06c.81 0 1.41-.06 1.79-.19s.63-.37.76-.74.19-.93.19-1.69v-10.41c0-.79-.05-1.37-.15-1.77a1.1 1.1 0 0 0-.72-.8q-.57-.21-1.86-.21v-1.1h20.18v1.1c-.89 0-1.53.08-1.92.25s-.63.44-.7.84c-.08.39-.11.96-.11 1.69v10.3c0 .79.06 1.37.17 1.77.11.39.37.65.76.78s.99.19 1.81.19v1.06h-8.47v-1.06c.81 0 1.39-.06 1.75-.19s.58-.39.67-.78.13-.98.13-1.77V776.6h-8.32v12.73c0 .79.04 1.37.13 1.77.09.39.32.65.68.78s.96.19 1.77.19v1.06ZM226.32 793.5c-2.66 0-4.74-.83-6.25-2.49s-2.26-4.02-2.26-7.09c0-1.85.35-3.46 1.06-4.84s1.7-2.46 2.98-3.23 2.77-1.16 4.46-1.16c2.61 0 4.67.81 6.17 2.43 1.51 1.62 2.26 3.84 2.26 6.65 0 2.13-.36 3.91-1.08 5.36-.72 1.44-1.72 2.53-2.98 3.27s-2.72 1.1-4.37 1.1Zm.15-1.52c1.04 0 1.91-.24 2.62-.72s1.25-1.3 1.62-2.47.55-2.77.55-4.83c0-2.33-.42-4.22-1.27-5.66s-2.12-2.17-3.82-2.17c-1.44 0-2.61.61-3.5 1.82-.89 1.22-1.33 3.04-1.33 5.47 0 3.02.45 5.2 1.35 6.56s2.16 2.02 3.78 2M237.07 799.81h-1.25l-.11-7.98c.13-.03.25-.04.38-.06s.28-.03.46-.06c.71-.13 1.35-.51 1.92-1.16s1.08-1.46 1.52-2.43.81-2.03 1.1-3.17.51-2.27.67-3.4c.15-1.13.23-2.16.23-3.1 0-.58-.06-1.03-.19-1.35s-.4-.54-.82-.67-1.07-.19-1.96-.19v-1.1h15.43v1.1c-.94 0-1.59.08-1.96.25s-.58.46-.63.89-.08 1.06-.08 1.9v10.26c0 .94.13 1.54.38 1.81s.66.41 1.22.44l1.52.04-.19 7.98h-1.25c-.25-1.37-.48-2.49-.68-3.36s-.43-1.55-.68-2.03-.58-.82-.97-1.01-.92-.29-1.58-.29H241c-.89 0-1.55.18-1.98.53s-.77 1.02-1.03 2c-.25.97-.56 2.36-.91 4.16Zm2.85-8.29v.15h8.66v-15.09h-4.98q-.045 2.625-.36 5.28c-.22 1.77-.58 3.48-1.1 5.11s-1.26 3.15-2.22 4.54ZM267.12 793.46c-.86 0-1.54-.21-2.03-.63s-.74-.94-.74-1.58c0-.56.16-.98.47-1.27s.67-.44 1.04-.44c.58 0 1.04.13 1.37.38s.7.38 1.1.38c.35 0 .68-.09.97-.27s.56-.57.82-1.18c.3-.71.59-1.55.85-2.53.27-.97.49-1.98.67-3 .18-1.03.32-1.99.42-2.89q.15-1.35.15-2.19c0-.96-.22-1.54-.65-1.73s-1.24-.29-2.43-.29v-1.1h15.43v1.1c-1.04 0-1.74.12-2.11.36s-.55.77-.55 1.58v11.89c0 .79.17 1.31.49 1.58s1.04.4 2.13.4v1.06h-8.47v-1.06c1.09 0 1.8-.13 2.15-.38q.51-.375.51-1.56v-13.53h-4.67c-.08 1.52-.22 3.09-.44 4.71s-.49 3.18-.84 4.67c-.34 1.49-.78 2.82-1.31 3.99-.48 1.12-1.06 1.98-1.75 2.58-.68.61-1.55.91-2.58.91ZM295.72 793.12h-8.36v-1.06c1.06 0 1.77-.14 2.13-.44.35-.29.53-.94.53-1.96v-11.02c0-.68-.06-1.2-.17-1.54s-.36-.57-.72-.68c-.37-.11-.94-.17-1.73-.17v-1.1h8.32v1.1c-.74 0-1.29.06-1.65.17s-.6.34-.7.68-.15.88-.15 1.61v9.27h.08l8.89-9.65c0-.91-.15-1.49-.46-1.73s-.98-.36-2.01-.36v-1.1H308v1.1c-.71 0-1.25.06-1.63.17s-.63.36-.76.74-.19.96-.19 1.75v10.75c0 1.01.18 1.67.55 1.96s1.03.44 1.99.44v1.06h-8.25v-1.06c1.01 0 1.68-.14 1.99-.44.32-.29.48-.94.48-1.96v-9.2h-.08l-8.89 9.58c0 .76.16 1.29.49 1.58s1 .44 2.01.44v1.06ZM330.99 799.81h-1.25c-.25-1.37-.48-2.49-.68-3.36s-.43-1.55-.68-2.03-.58-.82-.99-1.01-.94-.29-1.6-.29h-14.97v-1.06q1.065 0 1.65-.15c.585-.15.67-.32.84-.67s.25-.89.25-1.65v-11.21c0-.99-.22-1.59-.67-1.8-.44-.21-1.13-.32-2.07-.32v-1.1h8.55v1.1c-.96 0-1.64.13-2.03.4s-.59.87-.59 1.8v11.29c0 .79.11 1.31.34 1.58s.59.4 1.1.4h5.02c.58 0 1.01-.14 1.27-.42.27-.28.4-.81.4-1.6V778.5c0-.96-.17-1.58-.51-1.84-.34-.27-1.03-.4-2.07-.4v-1.1h8.4v1.1c-1.06 0-1.77.13-2.13.4-.35.27-.53.83-.53 1.69v11.21c0 .94.13 1.54.4 1.81s.68.41 1.24.44l1.48.04-.15 7.98ZM341.03 793.5c-1.52 0-2.89-.36-4.12-1.08s-2.2-1.79-2.91-3.19c-.71-1.41-1.06-3.12-1.06-5.15 0-2.13.36-3.88 1.08-5.26s1.69-2.41 2.91-3.1c1.22-.68 2.56-1.03 4.03-1.03 2.08 0 3.75.72 5.02 2.17 1.27 1.44 1.95 3.5 2.05 6.16h-12.35l-.04-1.41h8.82c-.03-.94-.19-1.82-.49-2.64s-.75-1.49-1.33-2-1.33-.76-2.24-.76c-1.47 0-2.57.58-3.31 1.73-.73 1.15-1.1 2.78-1.1 4.88 0 1.75.28 3.21.84 4.37.56 1.17 1.29 2.03 2.2 2.6s1.89.86 2.93.86 1.88-.14 2.53-.42q.975-.42 1.65-1.08c.46-.44.89-.93 1.29-1.46l.72.53c-.33.71-.71 1.39-1.14 2.03-.43.65-.92 1.21-1.46 1.69s-1.18.86-1.92 1.14-1.6.42-2.58.42ZM358.46 793.12h-8.51v-1.06c.81 0 1.41-.06 1.79-.19s.63-.37.76-.74.19-.93.19-1.69v-10.41c0-.79-.05-1.37-.15-1.77a1.1 1.1 0 0 0-.72-.8q-.57-.21-1.86-.21v-1.1h8.51v1.1c-.81 0-1.4.08-1.77.25s-.6.44-.68.84c-.09.39-.13.96-.13 1.69v4.1h8.82v-4.1c0-.73-.04-1.3-.11-1.69-.08-.39-.29-.67-.65-.84-.36-.16-.95-.25-1.79-.25v-1.1h8.51v1.1c-.89 0-1.53.08-1.92.25s-.63.44-.7.84c-.08.39-.11.96-.11 1.69v10.3c0 .79.06 1.37.17 1.77.11.39.37.65.76.78s.99.19 1.8.19v1.06h-8.51v-1.06c.84 0 1.43-.06 1.79-.19.35-.13.57-.39.65-.78s.11-.98.11-1.77v-4.83h-8.82v4.83c0 .79.04 1.37.13 1.77.09.39.32.65.68.78s.96.19 1.77.19v1.06ZM379.6 793.5c-1.47 0-2.81-.3-4.01-.91a6.5 6.5 0 0 1-2.79-2.66l.8-.68c.76.81 1.57 1.41 2.43 1.79s1.84.57 2.93.57c.78 0 1.51-.1 2.18-.3s1.22-.56 1.63-1.06.63-1.2.63-2.09q0-1.905-1.35-2.7c-1.35-.795-2.05-.8-3.44-.8h-1.22v-1.67h.99c1.49 0 2.63-.22 3.4-.66s1.16-1.32 1.16-2.64c0-1.04-.28-1.91-.84-2.6-.56-.7-1.51-1.04-2.85-1.04-1.44 0-2.5.43-3.15 1.29s-1.13 2.08-1.41 3.65h-1.03l.08-6.12h.84l.8.87h.08q.375-.225 1.44-.63c.71-.27 1.72-.4 3.04-.4 1.95 0 3.5.38 4.64 1.14s1.71 1.86 1.71 3.31c0 .86-.19 1.58-.57 2.15s-.89 1.03-1.52 1.39-1.32.65-2.05.87v.15c1.32.2 2.44.7 3.38 1.48.94.79 1.41 1.85 1.41 3.19q0 1.44-.72 2.43c-.48.66-1.1 1.18-1.86 1.58-.76.39-1.56.68-2.39.86s-1.62.27-2.36.27ZM397.52 793.12h-8.36v-1.06c1.06 0 1.77-.14 2.13-.44.35-.29.53-.94.53-1.96v-11.02c0-.68-.06-1.2-.17-1.54s-.36-.57-.72-.68c-.37-.11-.94-.17-1.73-.17v-1.1h8.32v1.1c-.74 0-1.29.06-1.65.17s-.6.34-.7.68-.15.88-.15 1.61v9.27h.08l8.89-9.65c0-.91-.15-1.49-.46-1.73s-.98-.36-2.01-.36v-1.1h8.28v1.1c-.71 0-1.25.06-1.63.17s-.63.36-.76.74-.19.96-.19 1.75v10.75c0 1.01.18 1.67.55 1.96s1.03.44 1.99.44v1.06h-8.25v-1.06c1.01 0 1.68-.14 1.99-.44.32-.29.48-.94.48-1.96v-9.2h-.08l-8.89 9.58c0 .76.16 1.29.49 1.58s1 .44 2.01.44v1.06ZM419.98 793.5c-1.52 0-2.89-.36-4.12-1.08s-2.2-1.79-2.91-3.19c-.71-1.41-1.06-3.12-1.06-5.15 0-2.13.36-3.88 1.08-5.26s1.69-2.41 2.91-3.1c1.22-.68 2.56-1.03 4.03-1.03 2.08 0 3.75.72 5.02 2.17 1.27 1.44 1.95 3.5 2.05 6.16h-12.35l-.04-1.41h8.82c-.03-.94-.19-1.82-.49-2.64s-.75-1.49-1.33-2-1.33-.76-2.24-.76c-1.47 0-2.57.58-3.31 1.73-.73 1.15-1.1 2.78-1.1 4.88 0 1.75.28 3.21.84 4.37.56 1.17 1.29 2.03 2.2 2.6s1.89.86 2.93.86 1.88-.14 2.53-.42q.975-.42 1.65-1.08c.46-.44.89-.93 1.29-1.46l.72.53c-.33.71-.71 1.39-1.14 2.03-.43.65-.92 1.21-1.46 1.69s-1.18.86-1.92 1.14-1.6.42-2.58.42ZM437.41 793.12h-8.36v-1.06c1.06 0 1.77-.14 2.13-.44.35-.29.53-.94.53-1.96v-11.02c0-.68-.06-1.2-.17-1.54s-.36-.57-.72-.68c-.37-.11-.94-.17-1.73-.17v-1.1h8.32v1.1c-.74 0-1.29.06-1.65.17s-.6.34-.7.68-.15.88-.15 1.61v9.27h.08l8.89-9.65c0-.91-.15-1.49-.46-1.73s-.98-.36-2.01-.36v-1.1h8.28v1.1c-.71 0-1.25.06-1.63.17s-.63.36-.76.74-.19.96-.19 1.75v10.75c0 1.01.18 1.67.55 1.96s1.03.44 1.99.44v1.06h-8.25v-1.06c1.01 0 1.68-.14 1.99-.44.32-.29.48-.94.48-1.96v-9.2h-.08l-8.89 9.58c0 .76.16 1.29.49 1.58s1 .44 2.01.44v1.06Zm1.98-20.1c-1.01 0-2.01-.13-2.98-.38-.98-.25-1.79-.67-2.43-1.23-.65-.57-.97-1.32-.97-2.26 0-.79.23-1.38.68-1.79.46-.41 1-.61 1.63-.61.46 0 .84.12 1.16.36q.48.36.48 1.08c0 .33-.08.6-.23.8s-.3.39-.46.57c-.15.18-.23.41-.23.68 0 .2.08.42.23.67.15.24.47.45.95.63s1.2.27 2.17.27 1.68-.09 2.15-.27q.705-.27.93-.63c.15-.24.23-.45.23-.63 0-.3-.08-.54-.23-.72l-.46-.55c-.15-.19-.23-.46-.23-.82 0-.51.16-.87.49-1.1s.72-.34 1.18-.34c.58 0 1.11.2 1.6.59.48.39.72 1 .72 1.81 0 .94-.32 1.69-.97 2.26q-.975.855-2.43 1.23c-.98.25-1.97.38-2.98.38M462.76 793.69h-1.18l-.34-8.21h1.18c.46 1.75.99 3.08 1.6 4.01.61.92 1.36 1.56 2.26 1.9s2 .51 3.29.51c.96 0 1.79-.13 2.47-.4s1.22-.7 1.6-1.29q.57-.885.57-2.34c0-1.11-.31-2.04-.93-2.77-.62-.74-1.41-1.39-2.38-1.96-.96-.57-1.96-1.15-3-1.73-1.01-.58-1.99-1.2-2.93-1.86s-1.7-1.44-2.3-2.36c-.6-.91-.89-2.03-.89-3.34s.33-2.46.99-3.36 1.53-1.59 2.62-2.07 2.29-.72 3.61-.72c1.17 0 2.06.09 2.7.29.63.19 1.13.39 1.5.59s.7.3 1.01.3.55-.08.74-.25c.19-.16.33-.45.44-.85h.99l.27 7.6h-1.14c-.53-2.1-1.24-3.66-2.13-4.67s-2.29-1.51-4.22-1.48c-1.29 0-2.29.3-3 .89-.71.6-1.06 1.49-1.06 2.68 0 .94.27 1.74.8 2.41s1.23 1.27 2.09 1.8 1.76 1.08 2.7 1.63c.84.48 1.68.96 2.53 1.44s1.62 1.03 2.32 1.63c.7.61 1.25 1.32 1.67 2.13s.63 1.79.63 2.93c0 1.47-.34 2.71-1.01 3.72s-1.59 1.78-2.75 2.3c-1.17.52-2.48.78-3.95.78-1.32 0-2.39-.09-3.21-.29-.82-.19-1.47-.38-1.94-.57s-.86-.28-1.16-.28c-.25 0-.48.11-.68.34s-.32.53-.34.91ZM490.89 793.12h-10.94v-1.14c1.14 0 1.98-.1 2.51-.29s.87-.56 1.03-1.1c.15-.54.23-1.36.23-2.45v-14.97c0-.99-.06-1.77-.19-2.34s-.45-.97-.97-1.2-1.39-.34-2.6-.34v-1.14h10.94v1.14c-1.19 0-2.05.11-2.58.34s-.86.63-.97 1.2-.17 1.35-.17 2.34v14.97c0 1.09.08 1.91.23 2.45s.49.91 1.03 1.1c.53.19 1.36.29 2.47.29v1.14ZM512.78 793.12h-18.85v-1.14c1.01 0 1.77-.09 2.26-.27s.82-.52.97-1.03.23-1.25.23-2.24v-15.47c0-.99-.08-1.75-.23-2.28s-.48-.9-.97-1.1-1.25-.3-2.26-.3v-1.14h10.68v1.14c-1.01 0-1.79.11-2.34.32-.54.22-.91.59-1.1 1.12s-.29 1.29-.29 2.28v16.49c0 .84.2 1.38.61 1.63.4.25 1.17.38 2.28.38h1.75c1.27 0 2.29-.1 3.08-.29s1.41-.51 1.88-.97.86-1.06 1.18-1.81.67-1.67 1.04-2.75h1.22l-1.14 7.41ZM537.52 793.57q-3.765 0-6.48-1.56c-1.81-1.04-3.21-2.53-4.18-4.47-.98-1.94-1.46-4.25-1.46-6.93s.49-4.84 1.46-6.78 2.37-3.44 4.18-4.52q2.715-1.62 6.48-1.62c3.765 0 4.7.53 6.5 1.58s3.18 2.52 4.14 4.41 1.44 4.08 1.44 6.59c0 2.66-.49 4.98-1.46 6.97-.98 1.99-2.36 3.54-4.16 4.66s-3.95 1.67-6.46 1.67m.04-1.59c2.71 0 4.73-.98 6.06-2.93s2-4.84 2-8.66c0-2.28-.34-4.25-1.03-5.91-.68-1.66-1.64-2.94-2.87-3.84s-2.67-1.35-4.31-1.35c-2.46 0-4.41.98-5.85 2.95-1.44 1.96-2.17 4.68-2.17 8.15s.68 6.4 2.03 8.47 3.4 3.12 6.14 3.12M561.71 801.48h-9.61v-1.06c1.19 0 1.95-.2 2.28-.59s.49-1.12.49-2.18v-18.81c0-.73-.08-1.24-.25-1.52s-.56-.42-1.2-.42c-.25 0-.66.03-1.22.08v-1.1l4.79-1.06h.95v3.19h.11c.91-1.06 1.84-1.88 2.79-2.45s1.98-.85 3.1-.85c1.27 0 2.38.36 3.32 1.08.95.72 1.7 1.72 2.24 3s.82 2.75.82 4.43c0 2.15-.37 4-1.12 5.53s-1.75 2.71-3.02 3.53a7.55 7.55 0 0 1-4.18 1.24c-.71 0-1.39-.08-2.03-.25-.65-.16-1.25-.44-1.8-.82h-.15v4.98q0 1.215.3 1.86c.2.43.57.72 1.1.87s1.29.23 2.28.23v1.1Zm.5-9.46c1.34 0 2.46-.63 3.34-1.9s1.33-3.22 1.33-5.85c0-2.41-.39-4.17-1.18-5.3s-1.89-1.69-3.31-1.69c-1.01 0-1.91.27-2.68.8s-1.34 1.04-1.69 1.52v9.92c.25.25.57.58.95.99s.84.76 1.37 1.06 1.15.46 1.86.46ZM580.84 793.5c-1.52 0-2.89-.36-4.12-1.08s-2.2-1.79-2.91-3.19c-.71-1.41-1.06-3.12-1.06-5.15 0-2.13.36-3.88 1.08-5.26s1.69-2.41 2.91-3.1c1.22-.68 2.56-1.03 4.03-1.03 2.08 0 3.75.72 5.02 2.17 1.27 1.44 1.95 3.5 2.05 6.16h-12.35l-.04-1.41h8.82c-.03-.94-.19-1.82-.49-2.64s-.75-1.49-1.33-2-1.33-.76-2.24-.76c-1.47 0-2.57.58-3.31 1.73-.73 1.15-1.1 2.78-1.1 4.88 0 1.75.28 3.21.84 4.37.56 1.17 1.29 2.03 2.2 2.6s1.89.86 2.93.86 1.88-.14 2.53-.42q.975-.42 1.65-1.08c.46-.44.89-.93 1.29-1.46l.72.53c-.33.71-.71 1.39-1.14 2.03-.43.65-.92 1.21-1.46 1.69s-1.18.86-1.92 1.14-1.6.42-2.58.42ZM598.03 793.12h-8.7v-1.06c.86 0 1.48-.08 1.84-.25s.6-.45.68-.86c.09-.41.13-.96.13-1.67V778.6q0-1.02-.42-1.35c-.28-.21-.67-.32-1.18-.32-.33 0-.67.03-1.03.08v-1.1l4.83-1.1h.87l-.04 3.5.11.8v10.18c0 .71.05 1.27.15 1.67s.35.69.76.86c.4.17 1.06.25 1.98.25v1.06Zm11.18 0h-8.78v-1.06c.91 0 1.56-.08 1.96-.25s.63-.45.72-.86.13-.96.13-1.67v-6.88q0-2.28-.51-3.42c-.34-.76-.78-1.26-1.31-1.5s-1.09-.36-1.67-.36a4.4 4.4 0 0 0-1.98.44c-.58.29-1.11.64-1.58 1.04-.47.41-.91.79-1.31 1.14l-.27-1.86h.57q1.56-1.365 2.94-2.28c.92-.61 1.98-.91 3.17-.91 1.72 0 3 .58 3.84 1.75s1.25 2.84 1.25 5.02v7.83c0 .71.06 1.27.17 1.67s.37.69.78.86 1.03.25 1.86.25v1.06ZM631.44 793.12h-11.13v-1.14c1.04 0 1.82-.08 2.34-.23s.87-.46 1.06-.93.29-1.17.29-2.11v-16.26c0-.89-.11-1.55-.34-2-.23-.44-.61-.75-1.16-.91-.54-.16-1.27-.25-2.18-.25v-1.14h20.22l.23 6.23h-1.22c-.18-.91-.36-1.66-.55-2.24s-.47-1.04-.85-1.37-.93-.56-1.65-.7-1.7-.21-2.95-.21h-6.04v9.61h4.48c1.09 0 1.92-.1 2.51-.3.58-.2.98-.58 1.2-1.12.21-.54.32-1.32.32-2.34h1.29v8.82h-1.29c0-1.04-.11-1.81-.32-2.32-.22-.51-.62-.84-1.2-1.01-.58-.16-1.42-.25-2.51-.25h-4.48v7.98c0 .86.12 1.51.36 1.94s.65.72 1.24.87c.58.15 1.37.23 2.36.23v1.14ZM649.67 793.5c-2.66 0-4.74-.83-6.25-2.49s-2.26-4.02-2.26-7.09c0-1.85.35-3.46 1.06-4.84s1.7-2.46 2.98-3.23 2.77-1.16 4.46-1.16c2.61 0 4.67.81 6.17 2.43 1.51 1.62 2.26 3.84 2.26 6.65 0 2.13-.36 3.91-1.08 5.36-.72 1.44-1.72 2.53-2.98 3.27s-2.72 1.1-4.37 1.1Zm.15-1.52c1.04 0 1.91-.24 2.62-.72s1.25-1.3 1.62-2.47.55-2.77.55-4.83c0-2.33-.42-4.22-1.27-5.66s-2.12-2.17-3.82-2.17c-1.44 0-2.61.61-3.5 1.82-.89 1.22-1.33 3.04-1.33 5.47 0 3.02.45 5.2 1.35 6.56s2.16 2.02 3.78 2M668.29 793.12h-8.7v-1.06c.86 0 1.48-.08 1.84-.25s.6-.45.68-.86c.09-.41.13-.96.13-1.67V778.6q0-1.02-.42-1.35c-.28-.21-.67-.32-1.18-.32-.33 0-.67.03-1.03.08v-1.1l4.83-1.1h.87l-.04 3.5.11.8v10.18c0 .71.05 1.27.15 1.67s.35.69.76.86c.4.17 1.06.25 1.98.25v1.06Zm11.17 0h-8.78v-1.06c.91 0 1.56-.08 1.96-.25s.63-.45.72-.86.13-.96.13-1.67v-6.88q0-2.28-.51-3.42c-.34-.76-.78-1.26-1.31-1.5s-1.09-.36-1.67-.36a4.4 4.4 0 0 0-1.98.44c-.58.29-1.11.64-1.58 1.04-.47.41-.91.79-1.31 1.14l-.27-1.86h.57q1.56-1.365 2.94-2.28c.92-.61 1.98-.91 3.17-.91 1.72 0 3 .58 3.84 1.75s1.25 2.84 1.25 5.02v7.83c0 .71.06 1.27.17 1.67s.37.69.78.86 1.03.25 1.86.25v1.06ZM689.99 789.7l.72.61c-.48.68-.93 1.26-1.35 1.73s-.88.83-1.39 1.08-1.17.38-1.98.38c-1.27 0-2.19-.37-2.77-1.12s-.87-1.97-.87-3.67v-11.78h-2.09v-.87c.89-.56 1.65-1.31 2.3-2.26s1.31-2.24 2-3.86h.95v5.4h4.29v1.6h-4.29v10.72c0 1.34.12 2.28.36 2.81s.73.8 1.46.8c.61 0 1.08-.13 1.43-.38.34-.25.75-.65 1.23-1.18ZM720.2 793.12h-18.85v-1.14c1.01 0 1.77-.09 2.26-.27s.82-.52.97-1.03.23-1.25.23-2.24v-15.47c0-.99-.08-1.75-.23-2.28s-.48-.9-.97-1.1-1.25-.3-2.26-.3v-1.14h10.68v1.14c-1.01 0-1.79.11-2.34.32-.54.22-.91.59-1.1 1.12s-.29 1.29-.29 2.28v16.49c0 .84.2 1.38.61 1.63.4.25 1.17.38 2.28.38h1.75c1.27 0 2.29-.1 3.08-.29s1.41-.51 1.88-.97.86-1.06 1.18-1.81.67-1.67 1.04-2.75h1.22l-1.14 7.41ZM731.67 793.12h-8.55v-1.06c.86 0 1.48-.08 1.84-.25s.6-.45.68-.86c.09-.41.13-.96.13-1.67v-10.6q0-1.215-.42-1.5c-.28-.19-.7-.28-1.25-.28-.25 0-.57.03-.95.08v-1.1l4.79-1.06h.99v14.48c0 .74.05 1.3.15 1.71s.35.68.74.84 1.01.23 1.84.23v1.06Zm-4.26-21.28c-.63 0-1.15-.21-1.56-.65s-.61-.94-.61-1.52.2-1.08.59-1.5.92-.63 1.58-.63 1.18.21 1.58.63.59.92.59 1.5-.2 1.09-.59 1.52-.92.65-1.58.65M747.17 787.49l.72.53c-.48 1.01-1.03 1.94-1.65 2.77-.62.84-1.39 1.5-2.3 1.98q-1.365.72-3.42.72c-1.57 0-2.93-.38-4.07-1.14s-2.01-1.82-2.62-3.17-.91-2.91-.91-4.66c0-2 .34-3.74 1.01-5.21s1.65-2.61 2.93-3.42 2.83-1.22 4.66-1.22 3.21.39 4.24 1.18 1.54 1.74 1.54 2.85c0 .56-.13.98-.4 1.27s-.67.44-1.2.44c-.56 0-.98-.15-1.27-.44s-.53-.65-.7-1.08c-.18-.43-.36-.86-.55-1.29s-.46-.79-.8-1.08-.84-.44-1.5-.44c-1.55 0-2.75.56-3.63 1.69-.87 1.13-1.31 2.78-1.31 4.96 0 2.31.48 4.2 1.42 5.68q1.425 2.22 4.35 2.22c1.24 0 2.25-.25 3.02-.76s1.59-1.3 2.45-2.39ZM757.82 793.5c-1.52 0-2.89-.36-4.12-1.08s-2.2-1.79-2.91-3.19c-.71-1.41-1.06-3.12-1.06-5.15 0-2.13.36-3.88 1.08-5.26s1.69-2.41 2.91-3.1c1.22-.68 2.56-1.03 4.03-1.03 2.08 0 3.75.72 5.02 2.17 1.27 1.44 1.95 3.5 2.05 6.16h-12.35l-.04-1.41h8.82c-.03-.94-.19-1.82-.49-2.64s-.75-1.49-1.33-2-1.33-.76-2.24-.76c-1.47 0-2.57.58-3.31 1.73-.73 1.15-1.1 2.78-1.1 4.88 0 1.75.28 3.21.84 4.37.56 1.17 1.29 2.03 2.2 2.6s1.89.86 2.93.86 1.88-.14 2.53-.42q.975-.42 1.65-1.08c.46-.44.89-.93 1.29-1.46l.72.53c-.33.71-.71 1.39-1.14 2.03-.43.65-.92 1.21-1.46 1.69s-1.18.86-1.92 1.14-1.6.42-2.58.42ZM775.02 793.12h-8.7v-1.06c.86 0 1.48-.08 1.84-.25s.6-.45.68-.86c.09-.41.13-.96.13-1.67V778.6q0-1.02-.42-1.35c-.28-.21-.67-.32-1.18-.32-.33 0-.67.03-1.03.08v-1.1l4.83-1.1h.87l-.04 3.5.11.8v10.18c0 .71.05 1.27.15 1.67s.35.69.76.86c.4.17 1.06.25 1.98.25v1.06Zm11.17 0h-8.78v-1.06c.91 0 1.56-.08 1.96-.25s.63-.45.72-.86.13-.96.13-1.67v-6.88q0-2.28-.51-3.42c-.34-.76-.78-1.26-1.31-1.5s-1.09-.36-1.67-.36a4.4 4.4 0 0 0-1.98.44c-.58.29-1.11.64-1.58 1.04-.47.41-.91.79-1.31 1.14l-.27-1.86h.57q1.56-1.365 2.94-2.28c.92-.61 1.98-.91 3.17-.91 1.72 0 3 .58 3.84 1.75s1.25 2.84 1.25 5.02v7.83c0 .71.06 1.27.17 1.67s.37.69.78.86 1.03.25 1.86.25v1.06ZM788.41 793.42l-.11-6.54h.99c.41 1.95 1 3.31 1.79 4.08s1.88 1.16 3.27 1.16c.96 0 1.75-.2 2.36-.59s.91-1.03.91-1.92c0-.61-.11-1.11-.32-1.52s-.63-.82-1.23-1.24q-.915-.63-2.7-1.5c-1.17-.58-2.12-1.15-2.85-1.69s-1.28-1.15-1.63-1.8c-.35-.66-.53-1.46-.53-2.39 0-1.57.56-2.76 1.69-3.57s2.5-1.22 4.12-1.22c.96 0 1.75.11 2.36.32.61.22 1.15.44 1.63.67h.04l.65-.8h.76l.11 5.81h-1.03c-.41-1.8-.98-3.03-1.71-3.71-.74-.67-1.69-1.01-2.85-1.01-.86 0-1.59.2-2.18.61-.6.41-.89 1.04-.89 1.9 0 .74.34 1.39 1.03 1.98.68.58 1.82 1.28 3.42 2.09 1.17.61 2.14 1.2 2.93 1.77s1.38 1.19 1.79 1.86.61 1.48.61 2.41c0 1.19-.29 2.15-.87 2.87s-1.36 1.25-2.34 1.58-2.03.49-3.17.49-1.96-.11-2.6-.34c-.65-.23-1.22-.44-1.73-.65h-.08l-.8.87h-.8ZM810.91 793.5c-1.52 0-2.89-.36-4.12-1.08s-2.2-1.79-2.91-3.19c-.71-1.41-1.06-3.12-1.06-5.15 0-2.13.36-3.88 1.08-5.26s1.69-2.41 2.91-3.1c1.22-.68 2.56-1.03 4.03-1.03 2.08 0 3.75.72 5.02 2.17 1.27 1.44 1.95 3.5 2.05 6.16h-12.35l-.04-1.41h8.82c-.03-.94-.19-1.82-.49-2.64s-.75-1.49-1.33-2-1.33-.76-2.24-.76c-1.47 0-2.57.58-3.31 1.73-.73 1.15-1.1 2.78-1.1 4.88 0 1.75.28 3.21.84 4.37.56 1.17 1.29 2.03 2.2 2.6s1.89.86 2.93.86 1.88-.14 2.53-.42q.975-.42 1.65-1.08c.46-.44.89-.93 1.29-1.46l.72.53c-.33.71-.71 1.39-1.14 2.03-.43.65-.92 1.21-1.46 1.69s-1.18.86-1.92 1.14-1.6.42-2.58.42ZM839.94 799.12l-.61 1.06q-4.605-2.355-7.35-6.78c-2.745-4.425-2.75-6.52-2.75-10.7s.92-7.7 2.75-10.62 4.29-5.16 7.35-6.71l.61.99c-2.76 1.85-4.72 4.09-5.87 6.73s-1.73 5.84-1.73 9.61.58 7.06 1.73 9.71 3.11 4.88 5.87 6.71M852.21 793.57q-3.765 0-6.48-1.56c-1.81-1.04-3.21-2.53-4.18-4.47-.98-1.94-1.46-4.25-1.46-6.93s.49-4.84 1.46-6.78 2.37-3.44 4.18-4.52q2.715-1.62 6.48-1.62c3.765 0 4.7.53 6.5 1.58s3.18 2.52 4.14 4.41 1.44 4.08 1.44 6.59c0 2.66-.49 4.98-1.46 6.97-.98 1.99-2.36 3.54-4.16 4.66s-3.95 1.67-6.46 1.67m.03-1.59c2.71 0 4.73-.98 6.06-2.93s2-4.84 2-8.66c0-2.28-.34-4.25-1.03-5.91-.68-1.66-1.64-2.94-2.87-3.84s-2.67-1.35-4.31-1.35c-2.46 0-4.41.98-5.85 2.95-1.44 1.96-2.17 4.68-2.17 8.15s.68 6.4 2.03 8.47 3.4 3.12 6.14 3.12M877.45 793.12h-11.13v-1.14c1.04 0 1.82-.08 2.34-.23s.87-.46 1.06-.93.29-1.17.29-2.11v-16.26c0-.89-.11-1.55-.34-2-.23-.44-.61-.75-1.16-.91-.54-.16-1.27-.25-2.18-.25v-1.14h20.22l.23 6.23h-1.22c-.18-.91-.36-1.66-.55-2.24s-.47-1.04-.85-1.37-.93-.56-1.65-.7-1.7-.21-2.95-.21h-6.04v9.61H878c1.09 0 1.92-.1 2.51-.3.58-.2.98-.58 1.2-1.12.21-.54.32-1.32.32-2.34h1.29v8.82h-1.29c0-1.04-.11-1.81-.32-2.32-.22-.51-.62-.84-1.2-1.01-.58-.16-1.42-.25-2.51-.25h-4.48v7.98c0 .86.12 1.51.36 1.94s.65.72 1.24.87c.58.15 1.37.23 2.36.23v1.14ZM908.18 793.12h-18.85v-1.14c1.01 0 1.77-.09 2.26-.27s.82-.52.97-1.03.23-1.25.23-2.24v-15.47c0-.99-.08-1.75-.23-2.28s-.48-.9-.97-1.1-1.25-.3-2.26-.3v-1.14h10.68v1.14c-1.01 0-1.79.11-2.34.32-.54.22-.91.59-1.1 1.12s-.29 1.29-.29 2.28v16.49c0 .84.2 1.38.61 1.63.4.25 1.17.38 2.28.38h1.75c1.27 0 2.29-.1 3.08-.29s1.41-.51 1.88-.97.86-1.06 1.18-1.81.67-1.67 1.04-2.75h1.22l-1.14 7.41Z"/>
  <path d="m909.02 800.19-.61-1.06c2.79-1.82 4.75-4.06 5.89-6.71s1.71-5.88 1.71-9.71-.57-6.98-1.71-9.61-3.1-4.88-5.89-6.73l.61-.99c3.06 1.55 5.52 3.78 7.35 6.71s2.75 6.47 2.75 10.62-.92 7.75-2.75 10.7-4.29 5.21-7.35 6.78M922.36 798.13l-.46-.95q.72-.3 1.44-.78c.48-.32.89-.78 1.22-1.39s.49-1.42.49-2.43c-.41.15-.8.23-1.18.23-.73 0-1.27-.2-1.6-.61s-.49-.89-.49-1.44c0-.61.2-1.13.61-1.58.4-.44.99-.67 1.75-.67.63 0 1.17.13 1.6.4q.645.405.99 1.14c.23.49.34 1.1.34 1.8q0 1.59-.51 2.7c-.34.73-.77 1.33-1.27 1.79-.51.46-1.03.82-1.56 1.1s-.99.51-1.37.68ZM68.78 839.1c-2.66 0-4.74-.83-6.25-2.49s-2.26-4.02-2.26-7.09c0-1.85.35-3.46 1.06-4.84s1.7-2.46 2.98-3.23 2.77-1.16 4.46-1.16c2.61 0 4.67.81 6.17 2.43 1.51 1.62 2.26 3.84 2.26 6.65 0 2.13-.36 3.91-1.08 5.36-.72 1.44-1.72 2.53-2.98 3.27s-2.72 1.1-4.37 1.1Zm.15-1.52c1.04 0 1.91-.24 2.62-.72s1.25-1.3 1.62-2.47.55-2.77.55-4.83c0-2.33-.42-4.22-1.27-5.66s-2.12-2.17-3.82-2.17c-1.44 0-2.61.61-3.5 1.82-.89 1.22-1.33 3.04-1.33 5.47 0 3.02.45 5.2 1.35 6.56s2.16 2.02 3.78 2M94.34 833.09l.72.53c-.48 1.01-1.03 1.94-1.65 2.77-.62.84-1.39 1.5-2.3 1.98q-1.365.72-3.42.72c-1.57 0-2.93-.38-4.07-1.14s-2.01-1.82-2.62-3.17-.91-2.91-.91-4.66c0-2 .34-3.74 1.01-5.21s1.65-2.61 2.93-3.42 2.83-1.22 4.66-1.22 3.21.39 4.24 1.18 1.54 1.74 1.54 2.85c0 .56-.13.98-.4 1.27s-.67.44-1.2.44c-.56 0-.98-.15-1.27-.44s-.53-.65-.7-1.08c-.18-.43-.36-.86-.55-1.29s-.46-.79-.8-1.08-.84-.44-1.5-.44c-1.55 0-2.75.56-3.63 1.69-.87 1.13-1.31 2.78-1.31 4.96 0 2.31.48 4.2 1.42 5.68q1.425 2.22 4.35 2.22c1.24 0 2.25-.25 3.02-.76s1.59-1.3 2.45-2.39ZM105.46 838.72h-8.51v-1.06c.81 0 1.41-.06 1.79-.19s.63-.37.76-.74.19-.93.19-1.69v-10.41c0-.79-.05-1.37-.15-1.77a1.1 1.1 0 0 0-.72-.8q-.57-.21-1.86-.21v-1.1h8.51v1.1c-.81 0-1.4.08-1.77.25s-.6.44-.68.84c-.09.39-.13.96-.13 1.69v4.1h8.82v-4.1c0-.73-.04-1.3-.11-1.69-.08-.39-.29-.67-.65-.84-.36-.16-.95-.25-1.79-.25v-1.1h8.51v1.1c-.89 0-1.53.08-1.92.25s-.63.44-.7.84c-.08.39-.11.96-.11 1.69v10.3c0 .79.06 1.37.17 1.77.11.39.37.65.76.78s.99.19 1.8.19v1.06h-8.51v-1.06c.84 0 1.43-.06 1.79-.19.35-.13.57-.39.65-.78s.11-.98.11-1.77v-4.83h-8.82v4.83c0 .79.04 1.37.13 1.77.09.39.32.65.68.78s.96.19 1.77.19v1.06ZM128.07 839.1c-2.66 0-4.74-.83-6.25-2.49s-2.26-4.02-2.26-7.09c0-1.85.35-3.46 1.06-4.84s1.7-2.46 2.98-3.23 2.77-1.16 4.46-1.16c2.61 0 4.67.81 6.17 2.43 1.51 1.62 2.26 3.84 2.26 6.65 0 2.13-.36 3.91-1.08 5.36-.72 1.44-1.72 2.53-2.98 3.27s-2.72 1.1-4.37 1.1Zm.16-1.52c1.04 0 1.91-.24 2.62-.72s1.25-1.3 1.62-2.47.55-2.77.55-4.83c0-2.33-.42-4.22-1.27-5.66s-2.12-2.17-3.82-2.17c-1.44 0-2.61.61-3.5 1.82-.89 1.22-1.33 3.04-1.33 5.47 0 3.02.45 5.2 1.35 6.56s2.16 2.02 3.78 2M148.12 838.72h-9.54v-1.06c.73 0 1.29-.06 1.67-.17s.63-.34.76-.68.19-.86.19-1.54v-10.98c0-.73-.06-1.27-.17-1.61s-.36-.56-.72-.67c-.37-.1-.94-.15-1.73-.15v-1.1h8.63q3.765 0 5.55 1.08c1.19.72 1.79 1.77 1.79 3.13 0 1.22-.38 2.16-1.14 2.83s-1.75 1.15-2.96 1.42v.15c.66.13 1.35.35 2.07.67q1.08.48 1.86 1.41c.52.62.78 1.46.78 2.53 0 1.62-.62 2.82-1.86 3.59s-2.96 1.16-5.17 1.16Zm-3.68-16.49v6.57h2.09q2.7 0 3.69-.87c.66-.58.99-1.47.99-2.66 0-1.11-.37-1.91-1.12-2.39s-2.05-.72-3.9-.72h-.82c-.32 0-.63.03-.93.08Zm2.31 15.12c.76 0 1.51-.06 2.26-.17s1.37-.41 1.86-.89.74-1.25.74-2.32-.23-1.86-.7-2.39a3.4 3.4 0 0 0-1.82-1.06c-.75-.18-1.54-.27-2.38-.27h-2.28v7.03c.38.03.75.04 1.12.06s.77.02 1.2.02ZM162.65 838.98c-1.47 0-2.59-.4-3.36-1.22-.77-.81-1.16-1.82-1.16-3.04 0-1.01.23-1.87.7-2.56q.705-1.05 1.86-1.77c.77-.48 1.61-.89 2.51-1.22q1.35-.495 2.64-.84c.86-.23 1.62-.44 2.28-.65v-1.67c0-1.65-.29-2.82-.86-3.51-.57-.7-1.42-1.04-2.57-1.04s-1.79.23-2.09.68c-.3.46-.46 1.25-.46 2.39 0 .58-.15 1.02-.44 1.31s-.7.44-1.24.44c-.38 0-.74-.15-1.08-.44s-.51-.75-.51-1.39c0-.71.27-1.38.82-2.01.54-.63 1.32-1.15 2.32-1.56 1-.4 2.19-.61 3.55-.61q3.12 0 4.41 1.44t1.29 4.41v8.63c0 .79.09 1.29.27 1.52s.47.34.87.34c.35 0 .68-.09.97-.27s.56-.4.82-.68l.57.61c-.63.91-1.24 1.58-1.8 2-.57.42-1.34.63-2.3.63-.89 0-1.46-.25-1.73-.76s-.46-1.23-.59-2.17l-.23-.46v-6.57c-1.14.28-2.22.61-3.23.99s-1.84.87-2.47 1.48-.95 1.41-.95 2.39.25 1.69.76 2.24q.765.84 1.98.84c.66 0 1.35-.16 2.07-.49s1.42-.8 2.11-1.41l.3 1.37h-.46c-.58.51-1.15.96-1.69 1.37s-1.13.72-1.75.93-1.34.32-2.15.32ZM185.18 838.72h-8.51v-1.06c.81 0 1.41-.06 1.79-.19s.63-.37.76-.74.19-.93.19-1.69v-10.41c0-.79-.05-1.37-.15-1.77a1.1 1.1 0 0 0-.72-.8q-.57-.21-1.86-.21v-1.1h8.51v1.1c-.81 0-1.4.08-1.77.25s-.6.44-.68.84c-.09.39-.13.96-.13 1.69v4.1h8.82v-4.1c0-.73-.04-1.3-.11-1.69-.08-.39-.29-.67-.65-.84-.36-.16-.95-.25-1.79-.25v-1.1h8.51v1.1c-.89 0-1.53.08-1.92.25s-.63.44-.7.84c-.08.39-.11.96-.11 1.69v10.3c0 .79.06 1.37.17 1.77.11.39.37.65.76.78s.99.19 1.8.19v1.06h-8.51v-1.06c.84 0 1.43-.06 1.79-.19.35-.13.57-.39.65-.78s.11-.98.11-1.77v-4.83h-8.82v4.83c0 .79.04 1.37.13 1.77.09.39.32.65.68.78s.96.19 1.77.19v1.06ZM217.1 838.72h-8.51v-1.06c.81 0 1.41-.06 1.79-.19s.63-.37.76-.74.19-.93.19-1.69v-10.41c0-.79-.05-1.37-.15-1.77a1.1 1.1 0 0 0-.72-.8q-.57-.21-1.86-.21v-1.1h8.51v1.1c-.81 0-1.4.08-1.77.25s-.6.44-.68.84c-.09.39-.13.96-.13 1.69v4.1h8.82v-4.1c0-.73-.04-1.3-.11-1.69-.08-.39-.29-.67-.65-.84-.36-.16-.95-.25-1.79-.25v-1.1h8.51v1.1c-.89 0-1.53.08-1.92.25s-.63.44-.7.84c-.08.39-.11.96-.11 1.69v10.3c0 .79.06 1.37.17 1.77.11.39.37.65.76.78s.99.19 1.8.19v1.06h-8.51v-1.06c.84 0 1.43-.06 1.79-.19.35-.13.57-.39.65-.78s.11-.98.11-1.77v-4.83h-8.82v4.83c0 .79.04 1.37.13 1.77.09.39.32.65.68.78s.96.19 1.77.19v1.06ZM236.35 838.98c-1.47 0-2.59-.4-3.36-1.22-.77-.81-1.16-1.82-1.16-3.04 0-1.01.23-1.87.7-2.56q.705-1.05 1.86-1.77c.77-.48 1.61-.89 2.51-1.22q1.35-.495 2.64-.84c.86-.23 1.62-.44 2.28-.65v-1.67c0-1.65-.29-2.82-.86-3.51-.57-.7-1.42-1.04-2.57-1.04s-1.79.23-2.09.68c-.3.46-.46 1.25-.46 2.39 0 .58-.15 1.02-.44 1.31s-.7.44-1.24.44c-.38 0-.74-.15-1.08-.44s-.51-.75-.51-1.39c0-.71.27-1.38.82-2.01.54-.63 1.32-1.15 2.32-1.56 1-.4 2.19-.61 3.55-.61q3.12 0 4.41 1.44t1.29 4.41v8.63c0 .79.09 1.29.27 1.52s.47.34.87.34c.35 0 .68-.09.97-.27s.56-.4.82-.68l.57.61c-.63.91-1.24 1.58-1.8 2-.57.42-1.34.63-2.3.63-.89 0-1.46-.25-1.73-.76s-.46-1.23-.59-2.17l-.23-.46v-6.57c-1.14.28-2.22.61-3.23.99s-1.84.87-2.47 1.48-.95 1.41-.95 2.39.25 1.69.76 2.24q.765.84 1.98.84c.66 0 1.35-.16 2.07-.49s1.42-.8 2.11-1.41l.3 1.37h-.46c-.58.51-1.15.96-1.69 1.37s-1.13.72-1.75.93-1.34.32-2.15.32ZM258.92 845.41h-1.25l-.11-7.98c.13-.03.25-.04.38-.06s.28-.03.46-.06c.71-.13 1.35-.51 1.92-1.16s1.08-1.46 1.52-2.43.81-2.03 1.1-3.17.51-2.27.67-3.4c.15-1.13.23-2.16.23-3.1 0-.58-.06-1.03-.19-1.35s-.4-.54-.82-.67-1.07-.19-1.96-.19v-1.1h15.43v1.1c-.94 0-1.59.08-1.96.25s-.58.46-.63.89-.08 1.06-.08 1.9v10.26c0 .94.13 1.54.38 1.81s.66.41 1.22.44l1.52.04-.19 7.98h-1.25c-.25-1.37-.48-2.49-.68-3.36s-.43-1.55-.68-2.03-.58-.82-.97-1.01-.92-.29-1.58-.29h-8.55c-.89 0-1.55.18-1.98.53s-.77 1.02-1.03 2c-.25.97-.56 2.36-.91 4.16Zm2.85-8.29v.15h8.66v-15.09h-4.98q-.045 2.625-.36 5.28c-.22 1.77-.58 3.48-1.1 5.11s-1.26 3.15-2.22 4.54ZM287.77 838.72h-8.36v-1.06c1.06 0 1.77-.14 2.13-.44.35-.29.53-.94.53-1.96v-11.02c0-.68-.06-1.2-.17-1.54s-.36-.57-.72-.68c-.37-.11-.94-.17-1.73-.17v-1.1h8.32v1.1c-.74 0-1.29.06-1.65.17s-.6.34-.7.68-.15.88-.15 1.61v9.27h.08l8.89-9.65c0-.91-.15-1.49-.46-1.73s-.98-.36-2.01-.36v-1.1h8.28v1.1c-.71 0-1.25.06-1.63.17s-.63.36-.76.74-.19.96-.19 1.75v10.75c0 1.01.18 1.67.55 1.96s1.03.44 1.99.44v1.06h-8.25v-1.06c1.01 0 1.68-.14 1.99-.44.32-.29.48-.94.48-1.96v-9.2h-.08l-8.89 9.58c0 .76.16 1.29.49 1.58s1 .44 2.01.44v1.06ZM309.06 839.1c-1.47 0-2.81-.3-4.01-.91a6.5 6.5 0 0 1-2.79-2.66l.8-.68c.76.81 1.57 1.41 2.43 1.79s1.84.57 2.93.57c.78 0 1.51-.1 2.18-.3s1.22-.56 1.63-1.06.63-1.2.63-2.09q0-1.905-1.35-2.7c-1.35-.795-2.05-.8-3.44-.8h-1.22v-1.67h.99c1.49 0 2.63-.22 3.4-.66s1.16-1.32 1.16-2.64c0-1.04-.28-1.91-.84-2.6-.56-.7-1.51-1.04-2.85-1.04-1.44 0-2.5.43-3.15 1.29s-1.13 2.08-1.41 3.65h-1.03l.08-6.12h.84l.8.87h.08q.375-.225 1.44-.63c.71-.27 1.72-.4 3.04-.4 1.95 0 3.5.38 4.64 1.14s1.71 1.86 1.71 3.31c0 .86-.19 1.58-.57 2.15s-.89 1.03-1.52 1.39-1.32.65-2.05.87v.15c1.32.2 2.44.7 3.38 1.48.94.79 1.41 1.85 1.41 3.19q0 1.44-.72 2.43c-.48.66-1.1 1.18-1.86 1.58-.76.39-1.56.68-2.39.86s-1.62.27-2.36.27ZM323.97 838.98c-1.47 0-2.59-.4-3.36-1.22-.77-.81-1.16-1.82-1.16-3.04 0-1.01.23-1.87.7-2.56q.705-1.05 1.86-1.77c.77-.48 1.61-.89 2.51-1.22q1.35-.495 2.64-.84c.86-.23 1.62-.44 2.28-.65v-1.67c0-1.65-.29-2.82-.86-3.51-.57-.7-1.42-1.04-2.57-1.04s-1.79.23-2.09.68c-.3.46-.46 1.25-.46 2.39 0 .58-.15 1.02-.44 1.31s-.7.44-1.24.44c-.38 0-.74-.15-1.08-.44s-.51-.75-.51-1.39c0-.71.27-1.38.82-2.01.54-.63 1.32-1.15 2.32-1.56 1-.4 2.19-.61 3.55-.61q3.12 0 4.41 1.44t1.29 4.41v8.63c0 .79.09 1.29.27 1.52s.47.34.87.34c.35 0 .68-.09.97-.27s.56-.4.82-.68l.57.61c-.63.91-1.24 1.58-1.8 2-.57.42-1.34.63-2.3.63-.89 0-1.46-.25-1.73-.76s-.46-1.23-.59-2.17l-.23-.46v-6.57c-1.14.28-2.22.61-3.23.99s-1.84.87-2.47 1.48-.95 1.41-.95 2.39.25 1.69.76 2.24q.765.84 1.98.84c.66 0 1.35-.16 2.07-.49s1.42-.8 2.11-1.41l.3 1.37h-.46c-.58.51-1.15.96-1.69 1.37s-1.13.72-1.75.93-1.34.32-2.15.32ZM346.38 838.72h-8.36v-1.06c1.06 0 1.77-.14 2.13-.44.35-.29.53-.94.53-1.96v-11.02c0-.68-.06-1.2-.17-1.54s-.36-.57-.72-.68c-.37-.11-.94-.17-1.73-.17v-1.1h8.32v1.1c-.74 0-1.29.06-1.65.17s-.6.34-.7.68-.15.88-.15 1.61v9.27h.08l8.89-9.65c0-.91-.15-1.49-.46-1.73s-.98-.36-2.01-.36v-1.1h8.28v1.1c-.71 0-1.25.06-1.63.17s-.63.36-.76.74-.19.96-.19 1.75v10.75c0 1.01.18 1.67.55 1.96s1.03.44 1.99.44v1.06h-8.25v-1.06c1.01 0 1.68-.14 1.99-.44.32-.29.48-.94.48-1.96v-9.2h-.08l-8.89 9.58c0 .76.16 1.29.49 1.58s1 .44 2.01.44v1.06Zm1.98-20.1c-1.01 0-2.01-.13-2.98-.38-.98-.25-1.79-.67-2.43-1.23-.65-.57-.97-1.32-.97-2.26 0-.79.23-1.38.68-1.79.46-.41 1-.61 1.63-.61.46 0 .84.12 1.16.36q.48.36.48 1.08c0 .33-.08.6-.23.8s-.3.39-.46.57c-.15.18-.23.41-.23.68 0 .2.08.42.23.67.15.24.47.45.95.63s1.2.27 2.17.27 1.68-.09 2.15-.27q.705-.27.93-.63c.15-.24.23-.45.23-.63 0-.3-.08-.54-.23-.72l-.46-.55c-.15-.19-.23-.46-.23-.82 0-.51.16-.87.49-1.1s.72-.34 1.18-.34c.58 0 1.11.2 1.6.59.48.39.72 1 .72 1.81 0 .94-.32 1.69-.97 2.26q-.975.855-2.43 1.23c-.98.25-1.97.38-2.98.38M369.98 838.72h-8.51v-1.06c.81 0 1.41-.06 1.79-.19s.63-.37.76-.74.19-.93.19-1.69v-10.41c0-.79-.05-1.37-.15-1.77a1.1 1.1 0 0 0-.72-.8q-.57-.21-1.86-.21v-1.1h8.51v1.1c-.81 0-1.4.08-1.77.25s-.6.44-.68.84c-.09.39-.13.96-.13 1.69v4.1h8.82v-4.1c0-.73-.04-1.3-.11-1.69-.08-.39-.29-.67-.65-.84-.36-.16-.95-.25-1.79-.25v-1.1h8.51v1.1c-.89 0-1.53.08-1.92.25s-.63.44-.7.84c-.08.39-.11.96-.11 1.69v10.3c0 .79.06 1.37.17 1.77.11.39.37.65.76.78s.99.19 1.8.19v1.06h-8.51v-1.06c.84 0 1.43-.06 1.79-.19.35-.13.57-.39.65-.78s.11-.98.11-1.77v-4.83h-8.82v4.83c0 .79.04 1.37.13 1.77.09.39.32.65.68.78s.96.19 1.77.19v1.06ZM392.3 839.1c-1.52 0-2.89-.36-4.12-1.08s-2.2-1.79-2.91-3.19c-.71-1.41-1.06-3.12-1.06-5.15 0-2.13.36-3.88 1.08-5.26s1.69-2.41 2.91-3.1c1.22-.68 2.56-1.03 4.03-1.03 2.08 0 3.75.72 5.02 2.17 1.27 1.44 1.95 3.5 2.05 6.16h-12.35l-.04-1.41h8.82c-.03-.94-.19-1.82-.49-2.64s-.75-1.49-1.33-2-1.33-.76-2.24-.76c-1.47 0-2.57.58-3.31 1.73-.73 1.15-1.1 2.78-1.1 4.88 0 1.75.28 3.21.84 4.37.56 1.17 1.29 2.03 2.2 2.6s1.89.86 2.93.86 1.88-.14 2.53-.42q.975-.42 1.65-1.08c.46-.44.89-.93 1.29-1.46l.72.53c-.33.71-.71 1.39-1.14 2.03-.43.65-.92 1.21-1.46 1.69s-1.18.86-1.92 1.14-1.6.42-2.58.42ZM426.46 838.72h-11.02v-1.14c1.06 0 1.86-.08 2.39-.25s.89-.52 1.06-1.06c.18-.54.27-1.39.27-2.53v-18.28h-2.43c-1.39 0-2.44.14-3.13.42-.7.28-1.2.79-1.5 1.52-.3.74-.6 1.8-.87 3.19h-1.18l.42-6.84h21.01l.3 6.84h-1.18c-.28-1.39-.57-2.46-.87-3.19s-.8-1.24-1.48-1.52-1.74-.42-3.15-.42h-2.39v18.28c0 1.14.09 1.98.27 2.53.18.54.53.9 1.06 1.06.53.17 1.34.25 2.43.25v1.14ZM442.35 838.72h-8.55v-1.06c.86 0 1.48-.08 1.84-.25s.6-.45.68-.86c.09-.41.13-.96.13-1.67v-10.6q0-1.215-.42-1.5c-.28-.19-.7-.28-1.25-.28-.25 0-.57.03-.95.08v-1.1l4.79-1.06h.99v14.48c0 .74.05 1.3.15 1.71s.35.68.74.84 1.01.23 1.84.23v1.06Zm-4.26-21.28c-.63 0-1.15-.21-1.56-.65s-.61-.94-.61-1.52.2-1.08.59-1.5.92-.63 1.58-.63 1.18.21 1.58.63.59.92.59 1.5-.2 1.09-.59 1.52-.92.65-1.58.65M453.16 838.72h-8.66v-1.1q1.215 0 1.77-.21c.37-.14.61-.41.72-.8s.17-.97.17-1.73v-10.64c0-.68-.13-1.14-.4-1.37s-.67-.34-1.2-.34c-.28 0-.62.03-1.03.08v-1.1l4.75-1.1h.91v3.5l.11.84v10.3c0 .71.08 1.25.23 1.61.15.37.43.62.84.76s1 .21 1.79.21v1.1Zm11.02 0h-9.01v-1.1q1.365 0 1.98-.27t.78-.99c.11-.48.17-1.16.17-2.05v-7.52c0-1.62-.29-2.7-.86-3.25s-1.3-.82-2.18-.82c-.71 0-1.38.15-2 .46-.62.3-1.18.66-1.69 1.06s-.94.79-1.29 1.14l-.3-1.9h.57c1.04-.89 2.04-1.64 3-2.26s2.09-.93 3.38-.93c1.14 0 2.06.33 2.75.99.7.66 1.22 1.48 1.58 2.47.05.08.09.16.11.25s.05.18.08.28v10.03c0 .86.06 1.53.17 2.01s.37.82.78 1.01 1.06.29 1.98.29zm10.6 0h-8.59v-1.1c.86 0 1.48-.11 1.86-.34s.61-.59.7-1.08.13-1.12.13-1.88v-7.3c0-1.17-.15-2.05-.44-2.66s-.68-1.03-1.18-1.27-1.04-.36-1.65-.36c-.84 0-1.66.3-2.47.89-.81.6-1.55 1.17-2.2 1.73l-.42-1.9h.57c1.04-1.04 2.05-1.82 3.04-2.36.99-.53 1.99-.8 3-.8q2.235 0 3.57 1.41c.89.94 1.33 2.56 1.33 4.86v7.75c0 .79.04 1.42.13 1.92.09.49.33.85.72 1.06.39.22 1.02.32 1.88.32v1.1ZM483.95 839.1c-1.52 0-2.89-.36-4.12-1.08s-2.2-1.79-2.91-3.19c-.71-1.41-1.06-3.12-1.06-5.15 0-2.13.36-3.88 1.08-5.26s1.69-2.41 2.91-3.1c1.22-.68 2.56-1.03 4.03-1.03 2.08 0 3.75.72 5.02 2.17 1.27 1.44 1.95 3.5 2.05 6.16H478.6l-.04-1.41h8.82c-.03-.94-.19-1.82-.49-2.64s-.75-1.49-1.33-2-1.33-.76-2.24-.76c-1.47 0-2.57.58-3.31 1.73-.73 1.15-1.1 2.78-1.1 4.88 0 1.75.28 3.21.84 4.37.56 1.17 1.29 2.03 2.2 2.6s1.89.86 2.93.86 1.88-.14 2.53-.42q.975-.42 1.65-1.08c.46-.44.89-.93 1.29-1.46l.72.53c-.33.71-.71 1.39-1.14 2.03-.43.65-.92 1.21-1.46 1.69s-1.18.86-1.92 1.14-1.6.42-2.58.42ZM493.64 839.02l-.11-6.54h.99c.41 1.95 1 3.31 1.79 4.08s1.88 1.16 3.27 1.16c.96 0 1.75-.2 2.36-.59s.91-1.03.91-1.92c0-.61-.11-1.11-.32-1.52s-.63-.82-1.23-1.24q-.915-.63-2.7-1.5c-1.17-.58-2.12-1.15-2.85-1.69s-1.28-1.15-1.63-1.8c-.35-.66-.53-1.46-.53-2.39 0-1.57.56-2.76 1.69-3.57s2.5-1.22 4.12-1.22c.96 0 1.75.11 2.36.32.61.22 1.15.44 1.63.67h.04l.65-.8h.76l.11 5.81h-1.03c-.41-1.8-.98-3.03-1.71-3.71-.74-.67-1.69-1.01-2.85-1.01-.86 0-1.59.2-2.18.61-.6.41-.89 1.04-.89 1.9 0 .74.34 1.39 1.03 1.98.68.58 1.82 1.28 3.42 2.09 1.17.61 2.14 1.2 2.93 1.77s1.38 1.19 1.79 1.86.61 1.48.61 2.41c0 1.19-.29 2.15-.87 2.87s-1.36 1.25-2.34 1.58-2.03.49-3.17.49-1.96-.11-2.6-.34c-.65-.23-1.22-.44-1.73-.65h-.08l-.8.87h-.8ZM539.7 839.02h-1.25l-15.73-20.33h-1.06l-.68-1.48c-.48-.66-.91-1.15-1.27-1.48-.37-.33-.75-.55-1.14-.67-.39-.11-.88-.17-1.46-.17v-1.14h6.46l14.06 18.35h.19v-12.31c0-1.19-.08-2.14-.23-2.85q-.225-1.065-.99-1.56c-.765-.495-1.3-.49-2.39-.49v-1.14h8.97v1.14c-.96 0-1.7.17-2.2.51-.51.34-.84.89-1.01 1.63-.17.75-.25 1.73-.25 2.94v19.04Zm-13.72-.3h-8.89v-1.14c1.01 0 1.77-.11 2.28-.32s.85-.65 1.03-1.31.27-1.62.27-2.89v-17.02h1.86v17.02c0 1.27.09 2.22.27 2.87s.52 1.08 1.03 1.31 1.23.34 2.17.34v1.14ZM552.48 839.1c-1.52 0-2.89-.36-4.12-1.08s-2.2-1.79-2.91-3.19c-.71-1.41-1.06-3.12-1.06-5.15 0-2.13.36-3.88 1.08-5.26s1.69-2.41 2.91-3.1c1.22-.68 2.56-1.03 4.03-1.03 2.08 0 3.75.72 5.02 2.17 1.27 1.44 1.95 3.5 2.05 6.16h-12.35l-.04-1.41h8.82c-.03-.94-.19-1.82-.49-2.64s-.75-1.49-1.33-2-1.33-.76-2.24-.76c-1.47 0-2.57.58-3.31 1.73-.73 1.15-1.1 2.78-1.1 4.88 0 1.75.28 3.21.84 4.37.56 1.17 1.29 2.03 2.2 2.6s1.89.86 2.93.86 1.88-.14 2.53-.42q.975-.42 1.65-1.08c.46-.44.89-.93 1.29-1.46l.72.53c-.33.71-.71 1.39-1.14 2.03-.43.65-.92 1.21-1.46 1.69s-1.18.86-1.92 1.14-1.6.42-2.58.42ZM570.41 838.95h-1.75l-5.7-14.33c-.33-.79-.63-1.37-.91-1.77-.28-.39-.6-.66-.95-.8s-.81-.21-1.37-.21v-1.1h8.17v1.1c-.76 0-1.29.08-1.58.25s-.44.4-.44.7c0 .25.04.49.13.72s.18.48.29.76l3.31 8.4.68 2.2h.27l.8-2.2 2.89-7.3 1.25 2.51h-.65l-4.45 11.06Zm10.45 0h-1.82l-4.22-11.59-.53-1.06-.61-1.67c-.3-.84-.59-1.45-.85-1.84-.27-.39-.58-.65-.93-.76s-.81-.17-1.37-.17v-1.1h7.94v1.1c-.71 0-1.2.08-1.48.25s-.42.4-.42.7c0 .23.03.47.09.74s.15.54.25.82l3.08 8.32.68 2.2h.23l.76-2.2 3-8.51c.02-.1.07-.27.13-.51s.09-.53.09-.85c0-.35-.18-.6-.53-.74s-.89-.21-1.6-.21v-1.1h6.57v1.1c-.74 0-1.29.17-1.67.51s-.76 1.01-1.14 2l-5.66 14.59ZM610.08 838.72H599.4v-1.14c.96 0 1.68-.08 2.17-.23.48-.15.8-.48.97-.99s.25-1.29.25-2.36v-16.3c0-.71-.07-1.27-.21-1.67s-.45-.7-.93-.87c-.48-.18-1.23-.27-2.24-.27v-1.14h9.35c1.9 0 3.59.18 5.07.55s2.64 1 3.48 1.9 1.25 2.16 1.25 3.78c0 1.42-.32 2.57-.97 3.46q-.975 1.335-2.43 2.07c-1.455.735-1.98.87-3.02 1.12v.15c.43.25.92.69 1.46 1.31s1.25 1.53 2.11 2.74 1.99 2.81 3.38 4.81c.61.84 1.2 1.37 1.77 1.6s1.29.34 2.15.34v1.14h-6.27c-1.04-1.57-1.91-2.88-2.6-3.93-.7-1.05-1.29-1.94-1.77-2.66q-.72-1.08-1.29-1.92c-.57-.84-.76-1.12-1.14-1.67-.38-.58-.73-.94-1.04-1.06-.32-.13-.82-.19-1.5-.19h-1.06v6.73q0 1.56.27 2.34c.18.52.53.86 1.06 1.01s1.34.23 2.43.23v1.14Zm-3.76-12.92 1.44.04c1.39-.08 2.61-.3 3.65-.68s1.85-.97 2.43-1.79c.58-.81.87-1.89.87-3.23 0-1.52-.47-2.72-1.41-3.59s-2.43-1.31-4.48-1.31c-.41 0-.82 0-1.25.02s-.85.04-1.25.09zM632.13 839.1c-2.66 0-4.74-.83-6.25-2.49s-2.26-4.02-2.26-7.09c0-1.85.35-3.46 1.06-4.84s1.7-2.46 2.98-3.23 2.77-1.16 4.46-1.16c2.61 0 4.67.81 6.17 2.43 1.51 1.62 2.26 3.84 2.26 6.65 0 2.13-.36 3.91-1.08 5.36-.72 1.44-1.72 2.53-2.98 3.27s-2.72 1.1-4.37 1.1Zm.16-1.52c1.04 0 1.91-.24 2.62-.72s1.25-1.3 1.62-2.47.55-2.77.55-4.83c0-2.33-.42-4.22-1.27-5.66s-2.12-2.17-3.82-2.17c-1.44 0-2.61.61-3.5 1.82-.89 1.22-1.33 3.04-1.33 5.47 0 3.02.45 5.2 1.35 6.56s2.16 2.02 3.78 2M650.72 838.72h-8.66v-1.1q1.215 0 1.77-.21c.37-.14.61-.41.72-.8s.17-.97.17-1.73v-10.64c0-.68-.13-1.14-.4-1.37s-.67-.34-1.2-.34c-.28 0-.62.03-1.03.08v-1.1l4.75-1.1h.91v3.5l.11.84v10.3c0 .71.08 1.25.23 1.61.15.37.43.62.84.76s1 .21 1.79.21v1.1Zm11.02 0h-9.01v-1.1q1.365 0 1.98-.27t.78-.99c.11-.48.17-1.16.17-2.05v-7.52c0-1.62-.29-2.7-.86-3.25s-1.3-.82-2.18-.82c-.71 0-1.38.15-2 .46-.62.3-1.18.66-1.69 1.06s-.94.79-1.29 1.14l-.3-1.9h.57c1.04-.89 2.04-1.64 3-2.26s2.09-.93 3.38-.93c1.14 0 2.06.33 2.75.99.7.66 1.22 1.48 1.58 2.47.05.08.09.16.11.25s.05.18.08.28v10.03c0 .86.06 1.53.17 2.01s.37.82.78 1.01 1.06.29 1.98.29zm10.6 0h-8.59v-1.1c.86 0 1.48-.11 1.86-.34s.61-.59.7-1.08.13-1.12.13-1.88v-7.3c0-1.17-.15-2.05-.44-2.66s-.68-1.03-1.18-1.27-1.04-.36-1.65-.36c-.84 0-1.66.3-2.47.89-.81.6-1.55 1.17-2.2 1.73l-.42-1.9h.57c1.04-1.04 2.05-1.82 3.04-2.36.99-.53 1.99-.8 3-.8q2.235 0 3.57 1.41c.89.94 1.33 2.56 1.33 4.86v7.75c0 .79.04 1.42.13 1.92.09.49.33.85.72 1.06.39.22 1.02.32 1.88.32v1.1ZM678.69 838.98c-1.47 0-2.59-.4-3.36-1.22-.77-.81-1.16-1.82-1.16-3.04 0-1.01.23-1.87.7-2.56q.705-1.05 1.86-1.77c.77-.48 1.61-.89 2.51-1.22q1.35-.495 2.64-.84c.86-.23 1.62-.44 2.28-.65v-1.67c0-1.65-.29-2.82-.86-3.51-.57-.7-1.42-1.04-2.57-1.04s-1.79.23-2.09.68c-.3.46-.46 1.25-.46 2.39 0 .58-.15 1.02-.44 1.31s-.7.44-1.24.44c-.38 0-.74-.15-1.08-.44s-.51-.75-.51-1.39c0-.71.27-1.38.82-2.01.54-.63 1.32-1.15 2.32-1.56 1-.4 2.19-.61 3.55-.61q3.12 0 4.41 1.44t1.29 4.41v8.63c0 .79.09 1.29.27 1.52s.47.34.87.34c.35 0 .68-.09.97-.27s.56-.4.82-.68l.57.61c-.63.91-1.24 1.58-1.8 2-.57.42-1.34.63-2.3.63-.89 0-1.46-.25-1.73-.76s-.46-1.23-.59-2.17l-.23-.46v-6.57c-1.14.28-2.22.61-3.23.99s-1.84.87-2.47 1.48-.95 1.41-.95 2.39.25 1.69.76 2.24q.765.84 1.98.84c.66 0 1.35-.16 2.07-.49s1.42-.8 2.11-1.41l.3 1.37h-.46c-.58.51-1.15.96-1.69 1.37s-1.13.72-1.75.93-1.34.32-2.15.32ZM700.86 838.72h-8.7v-1.06c.86 0 1.48-.08 1.84-.25s.6-.45.68-.86c.09-.41.13-.96.13-1.67V824.2q0-1.02-.42-1.35c-.28-.21-.67-.32-1.18-.32-.33 0-.67.03-1.03.08v-1.1l4.83-1.1h.87l-.04 3.5.11.8v10.18c0 .71.05 1.27.15 1.67s.35.69.76.86c.4.17 1.06.25 1.98.25v1.06Zm11.18 0h-8.78v-1.06c.91 0 1.56-.08 1.96-.25s.63-.45.72-.86.13-.96.13-1.67V828q0-2.28-.51-3.42c-.34-.76-.78-1.26-1.31-1.5s-1.09-.36-1.67-.36a4.4 4.4 0 0 0-1.98.44c-.58.29-1.11.64-1.58 1.04-.47.41-.91.79-1.31 1.14l-.27-1.86h.57q1.56-1.365 2.94-2.28c.92-.61 1.98-.91 3.17-.91 1.72 0 3 .58 3.84 1.75s1.25 2.84 1.25 5.02v7.83c0 .71.06 1.27.17 1.67s.37.69.78.86 1.03.25 1.86.25v1.06ZM715.27 843.73l-.46-.95q.72-.3 1.44-.78c.48-.32.89-.78 1.22-1.39s.49-1.42.49-2.43c-.41.15-.8.23-1.18.23-.73 0-1.27-.2-1.6-.61s-.49-.89-.49-1.44c0-.61.2-1.13.61-1.58.4-.44.99-.67 1.75-.67.63 0 1.17.13 1.6.4q.645.405.99 1.14c.23.49.34 1.1.34 1.8q0 1.59-.51 2.7c-.34.73-.77 1.33-1.27 1.79-.51.46-1.03.82-1.56 1.1s-.99.51-1.37.68ZM740.5 838.72h-8.51v-1.06c.81 0 1.41-.06 1.79-.19s.63-.37.76-.74.19-.93.19-1.69v-10.41c0-.79-.05-1.37-.15-1.77a1.1 1.1 0 0 0-.72-.8q-.57-.21-1.86-.21v-1.1h8.51v1.1c-.81 0-1.4.08-1.77.25s-.6.44-.68.84c-.09.39-.13.96-.13 1.69v4.1h8.82v-4.1c0-.73-.04-1.3-.11-1.69-.08-.39-.29-.67-.65-.84-.36-.16-.95-.25-1.79-.25v-1.1h8.51v1.1c-.89 0-1.53.08-1.92.25s-.63.44-.7.84c-.08.39-.11.96-.11 1.69v10.3c0 .79.06 1.37.17 1.77.11.39.37.65.76.78s.99.19 1.8.19v1.06h-8.51v-1.06c.84 0 1.43-.06 1.79-.19.35-.13.57-.39.65-.78s.11-.98.11-1.77v-4.83h-8.82v4.83c0 .79.04 1.37.13 1.77.09.39.32.65.68.78s.96.19 1.77.19v1.06ZM763.11 839.1c-2.66 0-4.74-.83-6.25-2.49s-2.26-4.02-2.26-7.09c0-1.85.35-3.46 1.06-4.84s1.7-2.46 2.98-3.23 2.77-1.16 4.46-1.16c2.61 0 4.67.81 6.17 2.43 1.51 1.62 2.26 3.84 2.26 6.65 0 2.13-.36 3.91-1.08 5.36-.72 1.44-1.72 2.53-2.98 3.27s-2.72 1.1-4.37 1.1Zm.16-1.52c1.04 0 1.91-.24 2.62-.72s1.25-1.3 1.62-2.47.55-2.77.55-4.83c0-2.33-.42-4.22-1.27-5.66s-2.12-2.17-3.82-2.17c-1.44 0-2.61.61-3.5 1.82-.89 1.22-1.33 3.04-1.33 5.47 0 3.02.45 5.2 1.35 6.56s2.16 2.02 3.78 2M791.42 838.72h-8.51v-1.06c.81 0 1.41-.06 1.79-.19s.63-.37.76-.74.19-.93.19-1.69v-10.41c0-.79-.05-1.37-.15-1.77a1.1 1.1 0 0 0-.72-.8q-.57-.21-1.86-.21v-1.1h20.18v1.1c-.89 0-1.53.08-1.92.25s-.63.44-.7.84c-.08.39-.11.96-.11 1.69v10.3c0 .79.06 1.37.17 1.77.11.39.37.65.76.78s.99.19 1.81.19v1.06h-8.47v-1.06c.81 0 1.39-.06 1.75-.19s.58-.39.67-.78.13-.98.13-1.77V822.2h-8.32v12.73c0 .79.04 1.37.13 1.77.09.39.32.65.68.78s.96.19 1.77.19v1.06ZM813.21 839.1c-1.52 0-2.89-.36-4.12-1.08s-2.2-1.79-2.91-3.19c-.71-1.41-1.06-3.12-1.06-5.15 0-2.13.36-3.88 1.08-5.26s1.69-2.41 2.91-3.1c1.22-.68 2.56-1.03 4.03-1.03 2.08 0 3.75.72 5.02 2.17 1.27 1.44 1.95 3.5 2.05 6.16h-12.35l-.04-1.41h8.82c-.03-.94-.19-1.82-.49-2.64s-.75-1.49-1.33-2-1.33-.76-2.24-.76c-1.47 0-2.57.58-3.31 1.73-.73 1.15-1.1 2.78-1.1 4.88 0 1.75.28 3.21.84 4.37.56 1.17 1.29 2.03 2.2 2.6s1.89.86 2.93.86 1.88-.14 2.53-.42q.975-.42 1.65-1.08c.46-.44.89-.93 1.29-1.46l.72.53c-.33.71-.71 1.39-1.14 2.03-.43.65-.92 1.21-1.46 1.69s-1.18.86-1.92 1.14-1.6.42-2.58.42ZM831.59 847.08h-9.61v-1.06c1.19 0 1.95-.2 2.28-.59s.49-1.12.49-2.18v-18.81c0-.73-.08-1.24-.25-1.52s-.56-.42-1.2-.42c-.25 0-.66.03-1.22.08v-1.1l4.79-1.06h.95v3.19h.11c.91-1.06 1.84-1.88 2.79-2.45s1.98-.85 3.1-.85c1.27 0 2.38.36 3.32 1.08.95.72 1.7 1.72 2.24 3s.82 2.75.82 4.43c0 2.15-.37 4-1.12 5.53s-1.75 2.71-3.02 3.53a7.55 7.55 0 0 1-4.18 1.24c-.71 0-1.39-.08-2.03-.25-.65-.16-1.25-.44-1.8-.82h-.15v4.98q0 1.215.3 1.86c.2.43.57.72 1.1.87s1.29.23 2.28.23v1.1Zm.49-9.46c1.34 0 2.46-.63 3.34-1.9s1.33-3.22 1.33-5.85c0-2.41-.39-4.17-1.18-5.3s-1.89-1.69-3.31-1.69c-1.01 0-1.91.27-2.68.8s-1.34 1.04-1.69 1.52v9.92c.25.25.57.58.95.99s.84.76 1.37 1.06 1.15.46 1.86.46ZM851.22 839.1c-1.52 0-2.89-.36-4.12-1.08s-2.2-1.79-2.91-3.19c-.71-1.41-1.06-3.12-1.06-5.15 0-2.13.36-3.88 1.08-5.26s1.69-2.41 2.91-3.1c1.22-.68 2.56-1.03 4.03-1.03 2.08 0 3.75.72 5.02 2.17 1.27 1.44 1.95 3.5 2.05 6.16h-12.35l-.04-1.41h8.82c-.03-.94-.19-1.82-.49-2.64s-.75-1.49-1.33-2-1.33-.76-2.24-.76c-1.47 0-2.57.58-3.31 1.73-.73 1.15-1.1 2.78-1.1 4.88 0 1.75.28 3.21.84 4.37.56 1.17 1.29 2.03 2.2 2.6s1.89.86 2.93.86 1.88-.14 2.53-.42q.975-.42 1.65-1.08c.46-.44.89-.93 1.29-1.46l.72.53c-.33.71-.71 1.39-1.14 2.03-.43.65-.92 1.21-1.46 1.69s-1.18.86-1.92 1.14-1.6.42-2.58.42ZM869.6 847.08h-9.61v-1.06c1.19 0 1.95-.2 2.28-.59s.49-1.12.49-2.18v-18.81c0-.73-.08-1.24-.25-1.52s-.56-.42-1.2-.42c-.25 0-.66.03-1.22.08v-1.1l4.79-1.06h.95v3.19h.11c.91-1.06 1.84-1.88 2.79-2.45s1.98-.85 3.1-.85c1.27 0 2.38.36 3.32 1.08.95.72 1.7 1.72 2.24 3s.82 2.75.82 4.43c0 2.15-.37 4-1.12 5.53s-1.75 2.71-3.02 3.53a7.55 7.55 0 0 1-4.18 1.24c-.71 0-1.39-.08-2.03-.25-.65-.16-1.25-.44-1.8-.82h-.15v4.98q0 1.215.3 1.86c.2.43.57.72 1.1.87s1.29.23 2.28.23v1.1Zm.5-9.46c1.34 0 2.46-.63 3.34-1.9s1.33-3.22 1.33-5.85c0-2.41-.39-4.17-1.18-5.3s-1.89-1.69-3.31-1.69c-1.01 0-1.91.27-2.68.8s-1.34 1.04-1.69 1.52v9.92c.25.25.57.58.95.99s.84.76 1.37 1.06 1.15.46 1.86.46ZM885.39 838.98c-1.47 0-2.59-.4-3.36-1.22-.77-.81-1.16-1.82-1.16-3.04 0-1.01.23-1.87.7-2.56q.705-1.05 1.86-1.77c.77-.48 1.61-.89 2.51-1.22q1.35-.495 2.64-.84c.86-.23 1.62-.44 2.28-.65v-1.67c0-1.65-.29-2.82-.86-3.51-.57-.7-1.42-1.04-2.57-1.04s-1.79.23-2.09.68c-.3.46-.46 1.25-.46 2.39 0 .58-.15 1.02-.44 1.31s-.7.44-1.24.44c-.38 0-.74-.15-1.08-.44s-.51-.75-.51-1.39c0-.71.27-1.38.82-2.01.54-.63 1.32-1.15 2.32-1.56 1-.4 2.19-.61 3.55-.61q3.12 0 4.41 1.44t1.29 4.41v8.63c0 .79.09 1.29.27 1.52s.47.34.87.34c.35 0 .68-.09.97-.27s.56-.4.82-.68l.57.61c-.63.91-1.24 1.58-1.8 2-.57.42-1.34.63-2.3.63-.89 0-1.46-.25-1.73-.76s-.46-1.23-.59-2.17l-.23-.46v-6.57c-1.14.28-2.22.61-3.23.99s-1.84.87-2.47 1.48-.95 1.41-.95 2.39.25 1.69.76 2.24q.765.84 1.98.84c.66 0 1.35-.16 2.07-.49s1.42-.8 2.11-1.41l.3 1.37h-.46c-.58.51-1.15.96-1.69 1.37s-1.13.72-1.75.93-1.34.32-2.15.32ZM907.41 830.43h-8.55v-2.47h8.55zM68.82 884.7c-2.63 0-4.69-.99-6.16-2.96-1.47-1.98-2.2-5.02-2.2-9.12 0-2.33.24-4.27.72-5.81s1.17-2.8 2.07-3.76 1.96-1.72 3.19-2.26 2.58-.98 4.05-1.31c1.65-.41 2.88-.75 3.71-1.03.82-.28 1.31-.73 1.46-1.37h.91c.03.1.04.2.04.29v.21q-.045 1.56-.72 2.49c-.675.93-1.05 1.1-1.79 1.44s-1.55.62-2.45.84-1.8.44-2.72.67c-.94.2-1.87.51-2.79.91-.92.41-1.73 1.07-2.41 2s-1.14 2.27-1.37 4.05l-.23 1.41h.23c.71-1.77 1.72-3.05 3.02-3.84s2.73-1.18 4.27-1.18c1.62 0 3.01.35 4.16 1.04 1.15.7 2.05 1.7 2.68 3.02s.95 2.91.95 4.79q0 3.225-1.2 5.34c-.8 1.41-1.85 2.45-3.15 3.13a9.14 9.14 0 0 1-4.28 1.03Zm.38-1.52c.89 0 1.68-.23 2.39-.7s1.28-1.25 1.71-2.36c.43-1.1.65-2.6.65-4.5s-.21-3.5-.65-4.64c-.43-1.14-1.02-1.96-1.77-2.45s-1.58-.74-2.49-.74-1.77.24-2.51.72c-.73.48-1.32 1.27-1.75 2.36s-.65 2.56-.65 4.41c0 2.51.42 4.45 1.27 5.83q1.275 2.07 3.78 2.07ZM88.85 884.7c-2.66 0-4.74-.83-6.25-2.49s-2.26-4.02-2.26-7.09c0-1.85.35-3.46 1.06-4.84s1.7-2.46 2.98-3.23 2.77-1.16 4.46-1.16c2.61 0 4.67.81 6.17 2.43 1.51 1.62 2.26 3.84 2.26 6.65 0 2.13-.36 3.91-1.08 5.36-.72 1.44-1.72 2.53-2.98 3.27s-2.72 1.1-4.37 1.1Zm.15-1.52c1.04 0 1.91-.24 2.62-.72s1.25-1.3 1.62-2.47.55-2.77.55-4.83c0-2.33-.42-4.22-1.27-5.66s-2.12-2.17-3.82-2.17c-1.44 0-2.61.61-3.5 1.82-.89 1.22-1.33 3.04-1.33 5.47 0 3.02.45 5.2 1.35 6.56s2.16 2.02 3.78 2M112.54 884.32h-9.12v-1.06c.84 0 1.46-.06 1.88-.17s.7-.37.85-.76.23-.99.23-1.8v-12.77h-1.41q-1.485 0-2.28.48c-.795.48-.94.83-1.22 1.54s-.54 1.67-.8 2.89h-1.03l.23-6.31h16.23l.23 6.31h-1.03c-.23-1.22-.48-2.18-.76-2.89s-.68-1.22-1.22-1.54q-.795-.48-2.28-.48h-1.48v12.77c0 .81.08 1.41.23 1.8s.44.65.87.76 1.05.17 1.86.17v1.06ZM122.91 884.58c-1.47 0-2.59-.4-3.36-1.22-.77-.81-1.16-1.82-1.16-3.04 0-1.01.23-1.87.7-2.56q.705-1.05 1.86-1.77c.77-.48 1.61-.89 2.51-1.22q1.35-.495 2.64-.84c.86-.23 1.62-.44 2.28-.65v-1.67c0-1.65-.29-2.82-.86-3.51-.57-.7-1.42-1.04-2.57-1.04s-1.79.23-2.09.68c-.3.46-.46 1.25-.46 2.39 0 .58-.15 1.02-.44 1.31s-.7.44-1.24.44c-.38 0-.74-.15-1.08-.44s-.51-.75-.51-1.39c0-.71.27-1.38.82-2.01.54-.63 1.32-1.15 2.32-1.56 1-.4 2.19-.61 3.55-.61q3.12 0 4.41 1.44t1.29 4.41v8.63c0 .79.09 1.29.27 1.52s.47.34.87.34c.35 0 .68-.09.97-.27s.56-.4.82-.68l.57.61c-.63.91-1.24 1.58-1.8 2-.57.42-1.34.63-2.3.63-.89 0-1.46-.25-1.73-.76s-.46-1.23-.59-2.17l-.23-.46v-6.57c-1.14.28-2.22.61-3.23.99s-1.84.87-2.47 1.48-.95 1.41-.95 2.39.25 1.69.76 2.24q.765.84 1.98.84c.66 0 1.35-.16 2.07-.49s1.42-.8 2.11-1.41l.3 1.37h-.46c-.58.51-1.15.96-1.69 1.37s-1.13.72-1.75.93-1.34.32-2.15.32ZM145.44 884.32h-8.51v-1.06c.81 0 1.41-.06 1.79-.19s.63-.37.76-.74.19-.93.19-1.69v-10.41c0-.79-.05-1.37-.15-1.77a1.1 1.1 0 0 0-.72-.8q-.57-.21-1.86-.21v-1.1h8.51v1.1c-.81 0-1.4.08-1.77.25s-.6.44-.68.84c-.09.39-.13.96-.13 1.69v4.1h8.82v-4.1c0-.73-.04-1.3-.11-1.69-.08-.39-.29-.67-.65-.84-.36-.16-.95-.25-1.79-.25v-1.1h8.51v1.1c-.89 0-1.53.08-1.92.25s-.63.44-.7.84c-.08.39-.11.96-.11 1.69v10.3c0 .79.06 1.37.17 1.77.11.39.37.65.76.78s.99.19 1.8.19v1.06h-8.51v-1.06c.84 0 1.43-.06 1.79-.19.35-.13.57-.39.65-.78s.11-.98.11-1.77v-4.83h-8.82v4.83c0 .79.04 1.37.13 1.77.09.39.32.65.68.78s.96.19 1.77.19v1.06ZM169.07 891.01h-1.25l-.11-7.98c.13-.03.25-.04.38-.06s.28-.03.46-.06c.71-.13 1.35-.51 1.92-1.16s1.08-1.46 1.52-2.43.81-2.03 1.1-3.17.51-2.27.67-3.4c.15-1.13.23-2.16.23-3.1 0-.58-.06-1.03-.19-1.35s-.4-.54-.82-.67-1.07-.19-1.96-.19v-1.1h15.43v1.1c-.94 0-1.59.08-1.96.25s-.58.46-.63.89-.08 1.06-.08 1.9v10.26c0 .94.13 1.54.38 1.81s.66.41 1.22.44l1.52.04-.19 7.98h-1.25c-.25-1.37-.48-2.49-.68-3.36s-.43-1.55-.68-2.03-.58-.82-.97-1.01-.92-.29-1.58-.29H173c-.89 0-1.55.18-1.98.53s-.77 1.02-1.03 2c-.25.97-.56 2.36-.91 4.16Zm2.85-8.29v.15h8.66v-15.09h-4.98q-.045 2.625-.36 5.28c-.22 1.77-.58 3.48-1.1 5.11s-1.26 3.15-2.22 4.54ZM191.56 884.66c-.86 0-1.54-.21-2.03-.63s-.74-.94-.74-1.58c0-.56.16-.98.47-1.27s.67-.44 1.04-.44c.58 0 1.04.13 1.37.38s.7.38 1.1.38c.35 0 .68-.09.97-.27s.56-.57.82-1.18c.3-.71.59-1.55.85-2.53.27-.97.49-1.98.67-3 .18-1.03.32-1.99.42-2.89q.15-1.35.15-2.19c0-.96-.22-1.54-.65-1.73s-1.24-.29-2.43-.29v-1.1H209v1.1c-1.04 0-1.74.12-2.11.36s-.55.77-.55 1.58v11.89c0 .79.17 1.31.49 1.58s1.04.4 2.13.4v1.06h-8.47v-1.06c1.09 0 1.8-.13 2.15-.38q.51-.375.51-1.56v-13.53h-4.67c-.08 1.52-.22 3.09-.44 4.71s-.49 3.18-.84 4.67c-.34 1.49-.78 2.82-1.31 3.99-.48 1.12-1.06 1.98-1.75 2.58-.68.61-1.55.91-2.58.91ZM217.05 884.32h-5.93v-1.03c.84-.02 1.47-.1 1.9-.23s.82-.41 1.16-.84.75-1.1 1.23-2.01c.68-1.29 1.25-2.28 1.69-2.96q.66-1.02 1.5-1.56v-.11c-.79-.15-1.56-.39-2.34-.72-.77-.33-1.41-.81-1.9-1.44s-.74-1.47-.74-2.51c0-1.24.36-2.2 1.08-2.87s1.66-1.13 2.81-1.39c1.15-.25 2.39-.38 3.71-.38h8.59v1.18c-1.12 0-1.84.11-2.18.34s-.51.77-.51 1.63v11.32c0 .76.08 1.32.23 1.67.15.36.43.58.84.68s.99.15 1.75.15v1.06h-8.74v-1.06c.84 0 1.45-.05 1.84-.15s.64-.34.74-.7q.15-.555.15-1.65v-4.75h-.76c-.61 0-1.07.05-1.39.15s-.6.33-.85.68c-.15.23-.44.71-.86 1.44-.42.74-.89 1.63-1.41 2.68s-1.06 2.17-1.61 3.36Zm5.59-9.62h1.29v-6.99c-.23-.05-.53-.08-.89-.08h-1.08c-1.72 0-2.98.29-3.76.87s-1.18 1.38-1.18 2.39q0 2.01 1.65 2.91c1.1.6 2.43.89 3.97.89ZM242.28 884.66c-.86 0-1.54-.21-2.03-.63s-.74-.94-.74-1.58c0-.56.16-.98.47-1.27s.67-.44 1.04-.44c.58 0 1.04.13 1.37.38s.7.38 1.1.38c.35 0 .68-.09.97-.27s.56-.57.82-1.18c.3-.71.59-1.55.85-2.53.27-.97.49-1.98.67-3 .18-1.03.32-1.99.42-2.89q.15-1.35.15-2.19c0-.96-.22-1.54-.65-1.73s-1.24-.29-2.43-.29v-1.1h15.43v1.1c-1.04 0-1.74.12-2.11.36s-.55.77-.55 1.58v11.89c0 .79.17 1.31.49 1.58s1.04.4 2.13.4v1.06h-8.47v-1.06c1.09 0 1.8-.13 2.15-.38q.51-.375.51-1.56v-13.53h-4.67c-.08 1.52-.22 3.09-.44 4.71s-.49 3.18-.84 4.67c-.34 1.49-.78 2.82-1.31 3.99-.48 1.12-1.06 1.98-1.75 2.58-.68.61-1.55.91-2.58.91ZM265.1 893.25c-.79 0-1.43-.15-1.94-.46-.51-.3-.76-.81-.76-1.52 0-.58.17-1 .51-1.25s.75-.38 1.23-.38q.99 0 1.77.42c.52.28.91.42 1.16.42.35 0 .73-.27 1.14-.82s.8-1.2 1.2-1.96c.39-.76.71-1.48.95-2.15s.36-1.15.36-1.43c0-.25-.13-.71-.4-1.37s-.51-1.24-.74-1.75l-5.59-12.2c-.18-.43-.43-.77-.76-1.01s-.84-.36-1.52-.36v-1.1h8.13v1.14c-.86 0-1.44.08-1.73.25s-.44.41-.44.74c0 .25.06.53.19.82s.24.58.34.86l3.72 8.36.49 1.86h.27l3.69-11.02c.05-.13.09-.29.13-.48s.06-.35.06-.47c0-.38-.2-.63-.59-.76s-.91-.19-1.54-.19v-1.1h6.46v1.1c-.76 0-1.32.17-1.67.51s-.67.88-.95 1.62l-5.93 15.58c-.73 1.92-1.45 3.48-2.15 4.67s-1.45 2.06-2.26 2.6-1.76.82-2.85.82ZM301.51 884.32H293v-1.06c.81 0 1.39-.06 1.75-.19s.58-.39.67-.78.13-.98.13-1.77v-4.29h-.08c-.74.33-1.53.6-2.38.82s-1.78.32-2.79.32q-2.28 0-3.48-.72c-1.2-.72-1.34-1.1-1.62-1.84s-.42-1.5-.42-2.26v-3.27q0-1.065-.36-1.44c-.24-.25-.91-.38-2-.38v-1.1h7.87v1.1c-1.04 0-1.69.11-1.94.34s-.38.75-.38 1.56v2.96c0 1.09.24 1.93.72 2.53s1.43.89 2.85.89c.58 0 1.23-.06 1.96-.17.72-.11 1.4-.34 2.03-.67v-4.67c0-.73-.04-1.3-.11-1.69q-.12-.585-.63-.84c-.34-.16-.93-.25-1.77-.25v-1.1h8.47v1.1c-.89 0-1.53.08-1.92.25s-.63.44-.7.84c-.08.39-.11.96-.11 1.69v10.3c0 .79.06 1.37.17 1.77.11.39.37.65.76.78s.99.19 1.81.19v1.06ZM332.73 884.32h-28.5v-1.06q1.065 0 1.65-.15c.585-.15.67-.32.84-.67s.25-.89.25-1.65v-11.21c0-.99-.22-1.59-.67-1.8-.44-.21-1.13-.32-2.07-.32v-1.1h8.09v1.1c-.84 0-1.43.13-1.79.4s-.53.87-.53 1.8v11.29c0 .79.11 1.31.34 1.58s.58.4 1.06.4h3.8c.58 0 1.02-.13 1.31-.38s.44-.81.44-1.67v-11.29q0-1.485-.51-1.8c-.34-.21-.93-.32-1.77-.32v-1.1h7.68v1.1c-.86 0-1.46.13-1.8.4q-.51.405-.51 1.8v11.21q0 1.26.36 1.65c.24.27.61.4 1.12.4h3.88q.795 0 1.2-.42c.27-.28.4-.81.4-1.6V869.7c0-.96-.16-1.58-.48-1.84-.32-.27-.92-.4-1.8-.4v-1.1h8.02v1.1c-1.06 0-1.77.13-2.13.4-.35.27-.53.83-.53 1.69v11.32c0 1.01.18 1.64.53 1.88q.525.36 2.13.36v1.22ZM342.89 884.7c-1.52 0-2.89-.36-4.12-1.08s-2.2-1.79-2.91-3.19c-.71-1.41-1.06-3.12-1.06-5.15 0-2.13.36-3.88 1.08-5.26s1.69-2.41 2.91-3.1c1.22-.68 2.56-1.03 4.03-1.03 2.08 0 3.75.72 5.02 2.17 1.27 1.44 1.95 3.5 2.05 6.16h-12.35l-.04-1.41h8.82c-.03-.94-.19-1.82-.49-2.64s-.75-1.49-1.33-2-1.33-.76-2.24-.76c-1.47 0-2.57.58-3.31 1.73-.73 1.15-1.1 2.78-1.1 4.88 0 1.75.28 3.21.84 4.37.56 1.17 1.29 2.03 2.2 2.6s1.89.86 2.93.86 1.88-.14 2.53-.42q.975-.42 1.65-1.08c.46-.44.89-.93 1.29-1.46l.72.53c-.33.71-.71 1.39-1.14 2.03-.43.65-.92 1.21-1.46 1.69s-1.18.86-1.92 1.14-1.6.42-2.58.42ZM360.32 884.32h-8.36v-1.06c1.06 0 1.77-.14 2.13-.44.35-.29.53-.94.53-1.96v-11.02c0-.68-.06-1.2-.17-1.54s-.36-.57-.72-.68c-.37-.11-.94-.17-1.73-.17v-1.1h8.32v1.1c-.74 0-1.29.06-1.65.17s-.6.34-.7.68-.15.88-.15 1.61v9.27h.08l8.89-9.65c0-.91-.15-1.49-.46-1.73s-.98-.36-2.01-.36v-1.1h8.28v1.1c-.71 0-1.25.06-1.63.17s-.63.36-.76.74-.19.96-.19 1.75v10.75c0 1.01.18 1.67.55 1.96s1.03.44 1.99.44v1.06h-8.25v-1.06c1.01 0 1.68-.14 1.99-.44.32-.29.48-.94.48-1.96v-9.2h-.08l-8.89 9.58c0 .76.16 1.29.49 1.58s1 .44 2.01.44v1.06Zm1.97-20.1c-1.01 0-2.01-.13-2.98-.38-.98-.25-1.79-.67-2.43-1.23-.65-.57-.97-1.32-.97-2.26 0-.79.23-1.38.68-1.79.46-.41 1-.61 1.63-.61.46 0 .84.12 1.16.36q.48.36.48 1.08c0 .33-.08.6-.23.8s-.3.39-.46.57c-.15.18-.23.41-.23.68 0 .2.08.42.23.67.15.24.47.45.95.63s1.2.27 2.17.27 1.68-.09 2.15-.27q.705-.27.93-.63c.15-.24.23-.45.23-.63 0-.3-.08-.54-.23-.72l-.46-.55c-.15-.19-.23-.46-.23-.82 0-.51.16-.87.49-1.1s.72-.34 1.18-.34c.58 0 1.11.2 1.6.59.48.39.72 1 .72 1.81 0 .94-.32 1.69-.97 2.26q-.975.855-2.43 1.23c-.98.25-1.97.38-2.98.38M402 884.32h-8.51v-1.06c.81 0 1.39-.06 1.75-.19s.58-.39.67-.78.13-.98.13-1.77v-4.29h-.08c-.74.33-1.53.6-2.38.82s-1.78.32-2.79.32q-2.28 0-3.48-.72c-1.2-.72-1.34-1.1-1.62-1.84s-.42-1.5-.42-2.26v-3.27q0-1.065-.36-1.44c-.24-.25-.91-.38-2-.38v-1.1h7.87v1.1c-1.04 0-1.69.11-1.94.34s-.38.75-.38 1.56v2.96c0 1.09.24 1.93.72 2.53s1.43.89 2.85.89c.58 0 1.23-.06 1.96-.17.72-.11 1.4-.34 2.03-.67v-4.67c0-.73-.04-1.3-.11-1.69q-.12-.585-.63-.84c-.34-.16-.93-.25-1.77-.25v-1.1h8.47v1.1c-.89 0-1.53.08-1.92.25s-.63.44-.7.84c-.08.39-.11.96-.11 1.69v10.3c0 .79.06 1.37.17 1.77.11.39.37.65.76.78s.99.19 1.81.19v1.06ZM413.12 884.32h-8.36v-1.06c1.06 0 1.77-.14 2.13-.44.35-.29.53-.94.53-1.96v-11.02c0-.68-.06-1.2-.17-1.54s-.36-.57-.72-.68c-.37-.11-.94-.17-1.73-.17v-1.1h8.32v1.1c-.74 0-1.29.06-1.65.17s-.6.34-.7.68-.15.88-.15 1.61v9.27h.08l8.89-9.65c0-.91-.15-1.49-.46-1.73s-.98-.36-2.01-.36v-1.1h8.28v1.1c-.71 0-1.25.06-1.63.17s-.63.36-.76.74-.19.96-.19 1.75v10.75c0 1.01.18 1.67.55 1.96s1.03.44 1.99.44v1.06h-8.25v-1.06c1.01 0 1.68-.14 1.99-.44.32-.29.48-.94.48-1.96v-9.2h-.08l-8.89 9.58c0 .76.16 1.29.49 1.58s1 .44 2.01.44v1.06ZM440.63 884.32h-9.12v-1.06c.84 0 1.46-.06 1.88-.17s.7-.37.85-.76.23-.99.23-1.8v-12.77h-1.41q-1.485 0-2.28.48c-.795.48-.94.83-1.22 1.54s-.54 1.67-.8 2.89h-1.03l.23-6.31h16.23l.23 6.31h-1.03c-.23-1.22-.48-2.18-.76-2.89s-.68-1.22-1.22-1.54q-.795-.48-2.28-.48h-1.48v12.77c0 .81.08 1.41.23 1.8s.44.65.87.76 1.05.17 1.86.17v1.06ZM451.01 884.58c-1.47 0-2.59-.4-3.36-1.22-.77-.81-1.16-1.82-1.16-3.04 0-1.01.23-1.87.7-2.56q.705-1.05 1.86-1.77c.77-.48 1.61-.89 2.51-1.22q1.35-.495 2.64-.84c.86-.23 1.62-.44 2.28-.65v-1.67c0-1.65-.29-2.82-.86-3.51-.57-.7-1.42-1.04-2.57-1.04s-1.79.23-2.09.68c-.3.46-.46 1.25-.46 2.39 0 .58-.15 1.02-.44 1.31s-.7.44-1.24.44c-.38 0-.74-.15-1.08-.44s-.51-.75-.51-1.39c0-.71.27-1.38.82-2.01.54-.63 1.32-1.15 2.32-1.56 1-.4 2.19-.61 3.55-.61q3.12 0 4.41 1.44t1.29 4.41v8.63c0 .79.09 1.29.27 1.52s.47.34.87.34c.35 0 .68-.09.97-.27s.56-.4.82-.68l.57.61c-.63.91-1.24 1.58-1.8 2-.57.42-1.34.63-2.3.63-.89 0-1.46-.25-1.73-.76s-.46-1.23-.59-2.17l-.23-.46v-6.57c-1.14.28-2.22.61-3.23.99s-1.84.87-2.47 1.48-.95 1.41-.95 2.39.25 1.69.76 2.24q.765.84 1.98.84c.66 0 1.35-.16 2.07-.49s1.42-.8 2.11-1.41l.3 1.37h-.46c-.58.51-1.15.96-1.69 1.37s-1.13.72-1.75.93-1.34.32-2.15.32ZM472.78 884.7c-1.52 0-2.89-.36-4.12-1.08s-2.2-1.79-2.91-3.19c-.71-1.41-1.06-3.12-1.06-5.15 0-2.13.36-3.88 1.08-5.26s1.69-2.41 2.91-3.1c1.22-.68 2.56-1.03 4.03-1.03 2.08 0 3.75.72 5.02 2.17 1.27 1.44 1.95 3.5 2.05 6.16h-12.35l-.04-1.41h8.82c-.03-.94-.19-1.82-.49-2.64s-.75-1.49-1.33-2-1.33-.76-2.24-.76c-1.47 0-2.57.58-3.31 1.73-.73 1.15-1.1 2.78-1.1 4.88 0 1.75.28 3.21.84 4.37.56 1.17 1.29 2.03 2.2 2.6s1.89.86 2.93.86 1.88-.14 2.53-.42q.975-.42 1.65-1.08c.46-.44.89-.93 1.29-1.46l.72.53c-.33.71-.71 1.39-1.14 2.03-.43.65-.92 1.21-1.46 1.69s-1.18.86-1.92 1.14-1.6.42-2.58.42ZM488.7 884.32h-7.22v-1.06c.81 0 1.42-.06 1.82-.19s.67-.41.8-.84.19-1.1.19-2.01v-10.34c0-.71-.06-1.23-.19-1.58-.13-.34-.39-.57-.78-.68s-.98-.17-1.77-.17v-1.1h6.57l5.81 13.03h.11l5.78-13.03h6.27v1.1c-1.06 0-1.78.15-2.15.44s-.55.97-.55 2.03v10.98c0 .94.16 1.56.47 1.88.32.32 1.06.47 2.22.47v1.06h-8.4v-1.06c.81 0 1.39-.06 1.73-.19s.56-.36.65-.7.13-.83.13-1.46v-11.36h-.11l-6.5 14.78h-.76l-6.69-14.52h-.15v10.41q0 1.365.21 2.01c.14.43.41.71.8.84s.96.19 1.69.19v1.06ZM516.63 884.7c-2.66 0-4.74-.83-6.25-2.49s-2.26-4.02-2.26-7.09c0-1.85.35-3.46 1.06-4.84s1.7-2.46 2.98-3.23 2.77-1.16 4.46-1.16c2.61 0 4.67.81 6.17 2.43 1.51 1.62 2.26 3.84 2.26 6.65 0 2.13-.36 3.91-1.08 5.36-.72 1.44-1.72 2.53-2.98 3.27s-2.72 1.1-4.37 1.1Zm.15-1.52c1.04 0 1.91-.24 2.62-.72s1.25-1.3 1.62-2.47.55-2.77.55-4.83c0-2.33-.42-4.22-1.27-5.66s-2.12-2.17-3.82-2.17c-1.44 0-2.61.61-3.5 1.82-.89 1.22-1.33 3.04-1.33 5.47 0 3.02.45 5.2 1.35 6.56s2.16 2.02 3.78 2M542.19 878.69l.72.53c-.48 1.01-1.03 1.94-1.65 2.77-.62.84-1.39 1.5-2.3 1.98q-1.365.72-3.42.72c-1.57 0-2.93-.38-4.07-1.14s-2.01-1.82-2.62-3.17-.91-2.91-.91-4.66c0-2 .34-3.74 1.01-5.21s1.65-2.61 2.93-3.42 2.83-1.22 4.66-1.22 3.21.39 4.24 1.18 1.54 1.74 1.54 2.85c0 .56-.13.98-.4 1.27s-.67.44-1.2.44c-.56 0-.98-.15-1.27-.44s-.53-.65-.7-1.08c-.18-.43-.36-.86-.55-1.29s-.46-.79-.8-1.08-.84-.44-1.5-.44c-1.55 0-2.75.56-3.63 1.69-.87 1.13-1.31 2.78-1.31 4.96 0 2.31.48 4.2 1.42 5.68q1.425 2.22 4.35 2.22c1.24 0 2.25-.25 3.02-.76s1.59-1.3 2.45-2.39ZM557.61 884.32h-9.12v-1.06c.84 0 1.46-.06 1.88-.17s.7-.37.85-.76.23-.99.23-1.8v-12.77h-1.41q-1.485 0-2.28.48c-.795.48-.94.83-1.22 1.54s-.54 1.67-.8 2.89h-1.03l.23-6.31h16.23l.23 6.31h-1.03c-.23-1.22-.48-2.18-.76-2.89s-.68-1.22-1.22-1.54q-.795-.48-2.28-.48h-1.48v12.77c0 .81.08 1.41.23 1.8s.44.65.87.76 1.05.17 1.86.17v1.06ZM572.04 884.32h-8.36v-1.06c1.06 0 1.77-.14 2.13-.44.35-.29.53-.94.53-1.96v-11.02c0-.68-.06-1.2-.17-1.54s-.36-.57-.72-.68c-.37-.11-.94-.17-1.73-.17v-1.1h8.32v1.1c-.74 0-1.29.06-1.65.17s-.6.34-.7.68-.15.88-.15 1.61v9.27h.08l8.89-9.65c0-.91-.15-1.49-.46-1.73s-.98-.36-2.01-.36v-1.1h8.28v1.1c-.71 0-1.25.06-1.63.17s-.63.36-.76.74-.19.96-.19 1.75v10.75c0 1.01.18 1.67.55 1.96s1.03.44 1.99.44v1.06h-8.25v-1.06c1.01 0 1.68-.14 1.99-.44.32-.29.48-.94.48-1.96v-9.2h-.08l-8.89 9.58c0 .76.16 1.29.49 1.58s1 .44 2.01.44v1.06ZM604.11 884.32h-8.36v-1.06c1.06 0 1.77-.14 2.13-.44.35-.29.53-.94.53-1.96v-11.02c0-.68-.06-1.2-.17-1.54s-.36-.57-.72-.68c-.37-.11-.94-.17-1.73-.17v-1.1h8.32v1.1c-.74 0-1.29.06-1.65.17s-.6.34-.7.68-.15.88-.15 1.61v9.27h.08l8.89-9.65c0-.91-.15-1.49-.46-1.73s-.98-.36-2.01-.36v-1.1h8.28v1.1c-.71 0-1.25.06-1.63.17s-.63.36-.76.74-.19.96-.19 1.75v10.75c0 1.01.18 1.67.55 1.96s1.03.44 1.99.44v1.06h-8.25v-1.06c1.01 0 1.68-.14 1.99-.44.32-.29.48-.94.48-1.96v-9.2h-.08l-8.89 9.58c0 .76.16 1.29.49 1.58s1 .44 2.01.44v1.06ZM636.25 884.32h-8.51v-1.06c.81 0 1.41-.06 1.79-.19s.63-.37.76-.74.19-.93.19-1.69v-10.41c0-.79-.05-1.37-.15-1.77a1.1 1.1 0 0 0-.72-.8q-.57-.21-1.86-.21v-1.1h20.18v1.1c-.89 0-1.53.08-1.92.25s-.63.44-.7.84c-.08.39-.11.96-.11 1.69v10.3c0 .79.06 1.37.17 1.77.11.39.37.65.76.78s.99.19 1.81.19v1.06h-8.47v-1.06c.81 0 1.39-.06 1.75-.19s.58-.39.67-.78.13-.98.13-1.77V867.8h-8.32v12.73c0 .79.04 1.37.13 1.77.09.39.32.65.68.78s.96.19 1.77.19v1.06ZM660.07 892.68h-9.61v-1.06c1.19 0 1.95-.2 2.28-.59s.49-1.12.49-2.18v-18.81c0-.73-.08-1.24-.25-1.52s-.56-.42-1.2-.42c-.25 0-.66.03-1.22.08v-1.1l4.79-1.06h.95v3.19h.11c.91-1.06 1.84-1.88 2.79-2.45s1.98-.85 3.1-.85c1.27 0 2.38.36 3.32 1.08.95.72 1.7 1.72 2.24 3s.82 2.75.82 4.43c0 2.15-.37 4-1.12 5.53s-1.75 2.71-3.02 3.53a7.55 7.55 0 0 1-4.18 1.24c-.71 0-1.39-.08-2.03-.25-.65-.16-1.25-.44-1.8-.82h-.15v4.98q0 1.215.3 1.86c.2.43.57.72 1.1.87s1.29.23 2.28.23v1.1Zm.5-9.46c1.34 0 2.46-.63 3.34-1.9s1.33-3.22 1.33-5.85c0-2.41-.39-4.17-1.18-5.3s-1.89-1.69-3.31-1.69c-1.01 0-1.91.27-2.68.8s-1.34 1.04-1.69 1.52v9.92c.25.25.57.58.95.99s.84.76 1.37 1.06 1.15.46 1.86.46ZM680.12 884.7c-2.66 0-4.74-.83-6.25-2.49s-2.26-4.02-2.26-7.09c0-1.85.35-3.46 1.06-4.84s1.7-2.46 2.98-3.23 2.77-1.16 4.46-1.16c2.61 0 4.67.81 6.17 2.43 1.51 1.62 2.26 3.84 2.26 6.65 0 2.13-.36 3.91-1.08 5.36-.72 1.44-1.72 2.53-2.98 3.27s-2.72 1.1-4.37 1.1Zm.15-1.52c1.04 0 1.91-.24 2.62-.72s1.25-1.3 1.62-2.47.55-2.77.55-4.83c0-2.33-.42-4.22-1.27-5.66s-2.12-2.17-3.82-2.17c-1.44 0-2.61.61-3.5 1.82-.89 1.22-1.33 3.04-1.33 5.47 0 3.02.45 5.2 1.35 6.56s2.16 2.02 3.78 2M708.19 892.68h-9.04v-1.1c1.27 0 2.06-.2 2.39-.59s.49-1.12.49-2.18V883h-.15q-.84.72-1.71 1.2c-.58.32-1.32.47-2.2.47-1.52 0-2.75-.46-3.71-1.37s-1.65-2.08-2.09-3.5-.67-2.89-.67-4.41q0-2.925.87-5.04c.58-1.41 1.37-2.49 2.38-3.25 1-.76 2.13-1.14 3.4-1.14q1.335 0 2.19.51c.57.34 1.09.75 1.58 1.23h.11v-6.35c0-.76-.15-1.22-.44-1.39s-.65-.25-1.08-.25c-.36 0-.77.03-1.25.08v-1.03l4.9-1.29h.87v10.22h.15c.48-.48 1.06-.89 1.75-1.23s1.47-.51 2.36-.51c1.24 0 2.34.37 3.29 1.1.95.74 1.7 1.79 2.24 3.15.54 1.37.8 3 .78 4.9 0 1.17-.13 2.31-.38 3.44s-.65 2.15-1.18 3.08c-.53.92-1.22 1.66-2.07 2.2s-1.87.82-3.06.82c-.86 0-1.57-.17-2.13-.49-.56-.33-1.09-.73-1.6-1.22h-.15v5.85c0 .73.08 1.3.23 1.71.15.4.45.68.89.84.44.15 1.12.23 2.03.23v1.1Zm-9.72-9.46c.58 0 1.11-.15 1.58-.44s.88-.64 1.24-1.04c.35-.41.61-.77.76-1.1v-10.53c-.25-.66-.67-1.25-1.25-1.77s-1.28-.78-2.09-.78-1.54.34-2.11 1.01-.99 1.58-1.27 2.74c-.28 1.15-.42 2.48-.42 3.97 0 1.24.11 2.47.32 3.69s.59 2.23 1.12 3.04 1.24 1.22 2.13 1.22Zm10.1-.04c.94 0 1.67-.35 2.19-1.06s.89-1.65 1.12-2.81c.23-1.17.34-2.45.34-3.84 0-1.52-.11-2.88-.34-4.07s-.6-2.13-1.12-2.81-1.24-1.03-2.15-1.03c-.86 0-1.62.27-2.28.82s-1.09 1.12-1.29 1.73v10.53c.23.53.65 1.09 1.25 1.67q.915.87 2.28.87M726.66 884.7c-1.52 0-2.89-.36-4.12-1.08s-2.2-1.79-2.91-3.19c-.71-1.41-1.06-3.12-1.06-5.15 0-2.13.36-3.88 1.08-5.26s1.69-2.41 2.91-3.1c1.22-.68 2.56-1.03 4.03-1.03 2.08 0 3.75.72 5.02 2.17 1.27 1.44 1.95 3.5 2.05 6.16h-12.35l-.04-1.41h8.82c-.03-.94-.19-1.82-.49-2.64s-.75-1.49-1.33-2-1.33-.76-2.24-.76c-1.47 0-2.57.58-3.31 1.73-.73 1.15-1.1 2.78-1.1 4.88 0 1.75.28 3.21.84 4.37.56 1.17 1.29 2.03 2.2 2.6s1.89.86 2.93.86 1.88-.14 2.53-.42q.975-.42 1.65-1.08c.46-.44.89-.93 1.29-1.46l.72.53c-.33.71-.71 1.39-1.14 2.03-.43.65-.92 1.21-1.46 1.69s-1.18.86-1.92 1.14-1.6.42-2.58.42ZM750.75 878.69l.72.53c-.48 1.01-1.03 1.94-1.65 2.77-.62.84-1.39 1.5-2.3 1.98q-1.365.72-3.42.72c-1.57 0-2.93-.38-4.07-1.14s-2.01-1.82-2.62-3.17-.91-2.91-.91-4.66c0-2 .34-3.74 1.01-5.21s1.65-2.61 2.93-3.42 2.83-1.22 4.66-1.22 3.21.39 4.24 1.18 1.54 1.74 1.54 2.85c0 .56-.13.98-.4 1.27s-.67.44-1.2.44c-.56 0-.98-.15-1.27-.44s-.53-.65-.7-1.08c-.18-.43-.36-.86-.55-1.29s-.46-.79-.8-1.08-.84-.44-1.5-.44c-1.55 0-2.75.56-3.63 1.69-.87 1.13-1.31 2.78-1.31 4.96 0 2.31.48 4.2 1.42 5.68q1.425 2.22 4.35 2.22c1.24 0 2.25-.25 3.02-.76s1.59-1.3 2.45-2.39ZM768.17 878.69l.72.53c-.48 1.01-1.03 1.94-1.65 2.77-.62.84-1.39 1.5-2.3 1.98q-1.365.72-3.42.72c-1.57 0-2.93-.38-4.07-1.14s-2.01-1.82-2.62-3.17-.91-2.91-.91-4.66c0-2 .34-3.74 1.01-5.21s1.65-2.61 2.93-3.42 2.83-1.22 4.66-1.22 3.21.39 4.24 1.18 1.54 1.74 1.54 2.85c0 .56-.13.98-.4 1.27s-.67.44-1.2.44c-.56 0-.98-.15-1.27-.44s-.53-.65-.7-1.08c-.18-.43-.36-.86-.55-1.29s-.46-.79-.8-1.08-.84-.44-1.5-.44c-1.55 0-2.75.56-3.63 1.69-.87 1.13-1.31 2.78-1.31 4.96 0 2.31.48 4.2 1.42 5.68q1.425 2.22 4.35 2.22c1.24 0 2.25-.25 3.02-.76s1.59-1.3 2.45-2.39ZM779.16 884.32h-8.36v-1.06c1.06 0 1.77-.14 2.13-.44.35-.29.53-.94.53-1.96v-11.02c0-.68-.06-1.2-.17-1.54s-.36-.57-.72-.68c-.37-.11-.94-.17-1.73-.17v-1.1h8.32v1.1c-.74 0-1.29.06-1.65.17s-.6.34-.7.68-.15.88-.15 1.61v9.27h.08l8.89-9.65c0-.91-.15-1.49-.46-1.73s-.98-.36-2.01-.36v-1.1h8.28v1.1c-.71 0-1.25.06-1.63.17s-.63.36-.76.74-.19.96-.19 1.75v10.75c0 1.01.18 1.67.55 1.96s1.03.44 1.99.44v1.06h-8.25v-1.06c1.01 0 1.68-.14 1.99-.44.32-.29.48-.94.48-1.96v-9.2h-.08l-8.89 9.58c0 .76.16 1.29.49 1.58s1 .44 2.01.44v1.06ZM802.03 884.7c-2.66 0-4.74-.83-6.25-2.49s-2.26-4.02-2.26-7.09c0-1.85.35-3.46 1.06-4.84s1.7-2.46 2.98-3.23 2.77-1.16 4.46-1.16c2.61 0 4.67.81 6.17 2.43 1.51 1.62 2.26 3.84 2.26 6.65 0 2.13-.36 3.91-1.08 5.36-.72 1.44-1.72 2.53-2.98 3.27s-2.72 1.1-4.37 1.1Zm.16-1.52c1.04 0 1.91-.24 2.62-.72s1.25-1.3 1.62-2.47.55-2.77.55-4.83c0-2.33-.42-4.22-1.27-5.66s-2.12-2.17-3.82-2.17c-1.44 0-2.61.61-3.5 1.82-.89 1.22-1.33 3.04-1.33 5.47 0 3.02.45 5.2 1.35 6.56s2.16 2.02 3.78 2M820.89 884.32h-8.51v-1.06c.81 0 1.41-.06 1.79-.19s.63-.37.76-.74.19-.93.19-1.69v-10.41c0-.79-.05-1.37-.15-1.77a1.1 1.1 0 0 0-.72-.8q-.57-.21-1.86-.21v-1.1h8.51v1.1c-.81 0-1.4.08-1.77.25s-.6.44-.68.84c-.09.39-.13.96-.13 1.69v4.1h8.82v-4.1c0-.73-.04-1.3-.11-1.69-.08-.39-.29-.67-.65-.84-.36-.16-.95-.25-1.79-.25v-1.1h8.51v1.1c-.89 0-1.53.08-1.92.25s-.63.44-.7.84c-.08.39-.11.96-.11 1.69v10.3c0 .79.06 1.37.17 1.77.11.39.37.65.76.78s.99.19 1.8.19v1.06h-8.51v-1.06c.84 0 1.43-.06 1.79-.19.35-.13.57-.39.65-.78s.11-.98.11-1.77v-4.83h-8.82v4.83c0 .79.04 1.37.13 1.77.09.39.32.65.68.78s.96.19 1.77.19v1.06ZM840.14 884.58c-1.47 0-2.59-.4-3.36-1.22-.77-.81-1.16-1.82-1.16-3.04 0-1.01.23-1.87.7-2.56q.705-1.05 1.86-1.77c.77-.48 1.61-.89 2.51-1.22q1.35-.495 2.64-.84c.86-.23 1.62-.44 2.28-.65v-1.67c0-1.65-.29-2.82-.86-3.51-.57-.7-1.42-1.04-2.57-1.04s-1.79.23-2.09.68c-.3.46-.46 1.25-.46 2.39 0 .58-.15 1.02-.44 1.31s-.7.44-1.24.44c-.38 0-.74-.15-1.08-.44s-.51-.75-.51-1.39c0-.71.27-1.38.82-2.01.54-.63 1.32-1.15 2.32-1.56 1-.4 2.19-.61 3.55-.61q3.12 0 4.41 1.44t1.29 4.41v8.63c0 .79.09 1.29.27 1.52s.47.34.87.34c.35 0 .68-.09.97-.27s.56-.4.82-.68l.57.61c-.63.91-1.24 1.58-1.8 2-.57.42-1.34.63-2.3.63-.89 0-1.46-.25-1.73-.76s-.46-1.23-.59-2.17l-.23-.46v-6.57c-1.14.28-2.22.61-3.23.99s-1.84.87-2.47 1.48-.95 1.41-.95 2.39.25 1.69.76 2.24q.765.84 1.98.84c.66 0 1.35-.16 2.07-.49s1.42-.8 2.11-1.41l.3 1.37h-.46c-.58.51-1.15.96-1.69 1.37s-1.13.72-1.75.93-1.34.32-2.15.32ZM856.54 884.66c-.86 0-1.54-.21-2.03-.63s-.74-.94-.74-1.58c0-.56.16-.98.47-1.27s.67-.44 1.04-.44c.58 0 1.04.13 1.37.38s.7.38 1.1.38c.35 0 .68-.09.97-.27s.56-.57.82-1.18c.3-.71.59-1.55.85-2.53.27-.97.49-1.98.67-3 .18-1.03.32-1.99.42-2.89q.15-1.35.15-2.19c0-.96-.22-1.54-.65-1.73s-1.24-.29-2.43-.29v-1.1h15.43v1.1c-1.04 0-1.74.12-2.11.36s-.55.77-.55 1.58v11.89c0 .79.17 1.31.49 1.58s1.04.4 2.13.4v1.06h-8.47v-1.06c1.09 0 1.8-.13 2.15-.38q.51-.375.51-1.56v-13.53h-4.67c-.08 1.52-.22 3.09-.44 4.71s-.49 3.18-.84 4.67c-.34 1.49-.78 2.82-1.31 3.99-.48 1.12-1.06 1.98-1.75 2.58-.68.61-1.55.91-2.58.91ZM885.33 884.32h-8.55v-1.06c1.17 0 1.9-.18 2.2-.53s.46-1.04.46-2.05v-10.64c0-.76-.05-1.32-.15-1.69s-.34-.61-.7-.72c-.37-.11-.96-.17-1.77-.17v-1.1h8.55v1.1c-.84 0-1.44.06-1.82.17s-.63.36-.74.72c-.11.37-.17.93-.17 1.69v4.03c.48-.03 1-.06 1.56-.1s1.14-.06 1.75-.06q2.475 0 4.08.63c1.08.42 1.87 1 2.39 1.75s.78 1.64.78 2.68c0 1.62-.65 2.92-1.96 3.9-1.3.98-3.27 1.46-5.91 1.46Zm-.57-1.37c.76 0 1.51-.09 2.26-.29.75-.19 1.37-.56 1.88-1.1s.76-1.34.76-2.38c0-1.39-.44-2.39-1.33-2.98s-2.08-.89-3.57-.89c-.41 0-.79.01-1.16.04s-.69.05-.97.08v7.45c.38.03.73.04 1.06.06s.68.02 1.06.02ZM904.39 876.03h-8.55v-2.47h8.55zM68.63 929.92h-8.51v-1.06c.81 0 1.41-.06 1.79-.19s.63-.37.76-.74.19-.93.19-1.69v-10.41c0-.79-.05-1.37-.15-1.77a1.1 1.1 0 0 0-.72-.8q-.57-.21-1.86-.21v-1.1h8.51v1.1c-.81 0-1.4.08-1.77.25s-.6.44-.68.84c-.09.39-.13.96-.13 1.69v4.1h8.82v-4.1c0-.73-.04-1.3-.11-1.69-.08-.39-.29-.67-.65-.84-.36-.16-.95-.25-1.79-.25v-1.1h8.51v1.1c-.89 0-1.53.08-1.92.25s-.63.44-.7.84c-.08.39-.11.96-.11 1.69v10.3c0 .79.06 1.37.17 1.77.11.39.37.65.76.78s.99.19 1.8.19v1.06h-8.51v-1.06c.84 0 1.43-.06 1.79-.19.35-.13.57-.39.65-.78s.11-.98.11-1.77v-4.83h-8.82v4.83c0 .79.04 1.37.13 1.77.09.39.32.65.68.78s.96.19 1.77.19v1.06ZM91.24 930.3c-2.66 0-4.74-.83-6.25-2.49s-2.26-4.02-2.26-7.09c0-1.85.35-3.46 1.06-4.84s1.7-2.46 2.98-3.23 2.77-1.16 4.46-1.16c2.61 0 4.67.81 6.17 2.43 1.51 1.62 2.26 3.84 2.26 6.65 0 2.13-.36 3.91-1.08 5.36-.72 1.44-1.72 2.53-2.98 3.27s-2.72 1.1-4.37 1.1Zm.16-1.52c1.04 0 1.91-.24 2.62-.72s1.25-1.3 1.62-2.47.55-2.77.55-4.83c0-2.33-.42-4.22-1.27-5.66s-2.12-2.17-3.82-2.17c-1.44 0-2.61.61-3.5 1.82-.89 1.22-1.33 3.04-1.33 5.47 0 3.02.45 5.2 1.35 6.56s2.16 2.02 3.78 2M110.68 929.92h-8.93v-1.06c1.11 0 1.83-.16 2.15-.49s.47-1.05.47-2.17v-10.56c0-.76-.05-1.32-.15-1.69s-.34-.61-.7-.72c-.37-.11-.96-.17-1.77-.17v-1.1h14.14l.15 6.65h-1.18c-.28-1.34-.54-2.39-.8-3.15q-.375-1.14-1.14-1.62c-.765-.48-1.28-.48-2.32-.48h-3.04v12.88c0 1.11.2 1.83.61 2.15s1.24.47 2.51.47zM127.13 930.3c-2.66 0-4.74-.83-6.25-2.49s-2.26-4.02-2.26-7.09c0-1.85.35-3.46 1.06-4.84s1.7-2.46 2.98-3.23 2.77-1.16 4.46-1.16c2.61 0 4.67.81 6.17 2.43 1.51 1.62 2.26 3.84 2.26 6.65 0 2.13-.36 3.91-1.08 5.36-.72 1.44-1.72 2.53-2.98 3.27s-2.72 1.1-4.37 1.1Zm.15-1.52c1.04 0 1.91-.24 2.62-.72s1.25-1.3 1.62-2.47.55-2.77.55-4.83c0-2.33-.42-4.22-1.27-5.66s-2.12-2.17-3.82-2.17c-1.44 0-2.61.61-3.5 1.82-.89 1.22-1.33 3.04-1.33 5.47 0 3.02.45 5.2 1.35 6.56s2.16 2.02 3.78 2M156.58 929.92h-9.54v-1.06c.73 0 1.29-.06 1.67-.17s.63-.34.76-.68.19-.86.19-1.54v-10.98c0-.73-.06-1.27-.17-1.61s-.36-.56-.72-.67c-.37-.1-.94-.15-1.73-.15v-1.1h8.63q3.765 0 5.55 1.08c1.19.72 1.79 1.77 1.79 3.13 0 1.22-.38 2.16-1.14 2.83s-1.75 1.15-2.96 1.42v.15c.66.13 1.35.35 2.07.67q1.08.48 1.86 1.41c.52.62.78 1.46.78 2.53 0 1.62-.62 2.82-1.86 3.59s-2.96 1.16-5.17 1.16Zm-3.69-16.49V920h2.09q2.7 0 3.69-.87c.66-.58.99-1.47.99-2.66 0-1.11-.37-1.91-1.12-2.39s-2.05-.72-3.9-.72h-.82c-.32 0-.63.03-.93.08Zm2.32 15.12c.76 0 1.51-.06 2.26-.17s1.37-.41 1.86-.89.74-1.25.74-2.32-.23-1.86-.7-2.39a3.4 3.4 0 0 0-1.82-1.06c-.75-.18-1.54-.27-2.38-.27h-2.28v7.03c.38.03.75.04 1.12.06s.77.02 1.2.02ZM174.17 929.92h-8.36v-1.06c1.06 0 1.77-.14 2.13-.44.35-.29.53-.94.53-1.96v-11.02c0-.68-.06-1.2-.17-1.54s-.36-.57-.72-.68c-.37-.11-.94-.17-1.73-.17v-1.1h8.32v1.1c-.74 0-1.29.06-1.65.17s-.6.34-.7.68-.15.88-.15 1.61v9.27h.08l8.89-9.65c0-.91-.15-1.49-.46-1.73s-.98-.36-2.01-.36v-1.1h8.28v1.1c-.71 0-1.25.06-1.63.17s-.63.36-.76.74-.19.96-.19 1.75v10.75c0 1.01.18 1.67.55 1.96s1.03.44 1.99.44v1.06h-8.25v-1.06c1.01 0 1.68-.14 1.99-.44.32-.29.48-.94.48-1.96v-9.2h-.08l-8.89 9.58c0 .76.16 1.29.49 1.58s1 .44 2.01.44v1.06ZM190.04 936.61h-1.25l-.11-7.98c.13-.03.25-.04.38-.06s.28-.03.46-.06c.71-.13 1.35-.51 1.92-1.16s1.08-1.46 1.52-2.43.81-2.03 1.1-3.17.51-2.27.67-3.4c.15-1.13.23-2.16.23-3.1 0-.58-.06-1.03-.19-1.35s-.4-.54-.82-.67-1.07-.19-1.96-.19v-1.1h15.43v1.1c-.94 0-1.59.08-1.96.25s-.58.46-.63.89-.08 1.06-.08 1.9v10.26c0 .94.13 1.54.38 1.81s.66.41 1.22.44l1.52.04-.19 7.98h-1.25c-.25-1.37-.48-2.49-.68-3.36s-.43-1.55-.68-2.03-.58-.82-.97-1.01-.92-.29-1.58-.29h-8.55c-.89 0-1.55.18-1.98.53s-.77 1.02-1.03 2c-.25.97-.56 2.36-.91 4.16Zm2.85-8.29v.15h8.66v-15.09h-4.98q-.045 2.625-.36 5.28c-.22 1.77-.58 3.48-1.1 5.11s-1.26 3.15-2.22 4.54ZM214.92 930.18c-1.47 0-2.59-.4-3.36-1.22-.77-.81-1.16-1.82-1.16-3.04 0-1.01.23-1.87.7-2.56q.705-1.05 1.86-1.77c.77-.48 1.61-.89 2.51-1.22q1.35-.495 2.64-.84c.86-.23 1.62-.44 2.28-.65v-1.67c0-1.65-.29-2.82-.86-3.51-.57-.7-1.42-1.04-2.57-1.04s-1.79.23-2.09.68c-.3.46-.46 1.25-.46 2.39 0 .58-.15 1.02-.44 1.31s-.7.44-1.24.44c-.38 0-.74-.15-1.08-.44s-.51-.75-.51-1.39c0-.71.27-1.38.82-2.01.54-.63 1.32-1.15 2.32-1.56 1-.4 2.19-.61 3.55-.61q3.12 0 4.41 1.44t1.29 4.41v8.63c0 .79.09 1.29.27 1.52s.47.34.87.34c.35 0 .68-.09.97-.27s.56-.4.82-.68l.57.61c-.63.91-1.24 1.58-1.8 2-.57.42-1.34.63-2.3.63-.89 0-1.46-.25-1.73-.76s-.46-1.23-.59-2.17l-.23-.46v-6.57c-1.14.28-2.22.61-3.23.99s-1.84.87-2.47 1.48-.95 1.41-.95 2.39.25 1.69.76 2.24q.765.84 1.98.84c.66 0 1.35-.16 2.07-.49s1.42-.8 2.11-1.41l.3 1.37h-.46c-.58.51-1.15.96-1.69 1.37s-1.13.72-1.75.93-1.34.32-2.15.32ZM246.92 929.92h-9.54v-1.06c.73 0 1.29-.06 1.67-.17s.63-.34.76-.68.19-.86.19-1.54v-10.98c0-.73-.06-1.27-.17-1.61s-.36-.56-.72-.67c-.37-.1-.94-.15-1.73-.15v-1.1h8.63q3.765 0 5.55 1.08c1.19.72 1.79 1.77 1.79 3.13 0 1.22-.38 2.16-1.14 2.83s-1.75 1.15-2.96 1.42v.15c.66.13 1.35.35 2.07.67q1.08.48 1.86 1.41c.52.62.78 1.46.78 2.53 0 1.62-.62 2.82-1.86 3.59s-2.96 1.16-5.17 1.16Zm-3.69-16.49V920h2.09q2.7 0 3.69-.87c.66-.58.99-1.47.99-2.66 0-1.11-.37-1.91-1.12-2.39s-2.05-.72-3.9-.72h-.82c-.32 0-.63.03-.93.08Zm2.32 15.12c.76 0 1.51-.06 2.26-.17s1.37-.41 1.86-.89.74-1.25.74-2.32-.23-1.86-.7-2.39a3.4 3.4 0 0 0-1.82-1.06c-.75-.18-1.54-.27-2.38-.27h-2.28v7.03c.38.03.75.04 1.12.06s.77.02 1.2.02ZM279.75 924.29l.72.53c-.48 1.01-1.03 1.94-1.65 2.77-.62.84-1.39 1.5-2.3 1.98q-1.365.72-3.42.72c-1.57 0-2.93-.38-4.07-1.14s-2.01-1.82-2.62-3.17-.91-2.91-.91-4.66c0-2 .34-3.74 1.01-5.21s1.65-2.61 2.93-3.42 2.83-1.22 4.66-1.22 3.21.39 4.24 1.18 1.54 1.74 1.54 2.85c0 .56-.13.98-.4 1.27s-.67.44-1.2.44c-.56 0-.98-.15-1.27-.44s-.53-.65-.7-1.08c-.18-.43-.36-.86-.55-1.29s-.46-.79-.8-1.08-.84-.44-1.5-.44c-1.55 0-2.75.56-3.63 1.69-.87 1.13-1.31 2.78-1.31 4.96 0 2.31.48 4.2 1.42 5.68q1.425 2.22 4.35 2.22c1.24 0 2.25-.25 3.02-.76s1.59-1.3 2.45-2.39ZM291.4 930.3c-2.66 0-4.74-.83-6.25-2.49s-2.26-4.02-2.26-7.09c0-1.85.35-3.46 1.06-4.84s1.7-2.46 2.98-3.23 2.77-1.16 4.46-1.16c2.61 0 4.67.81 6.17 2.43 1.51 1.62 2.26 3.84 2.26 6.65 0 2.13-.36 3.91-1.08 5.36-.72 1.44-1.72 2.53-2.98 3.27s-2.72 1.1-4.37 1.1Zm.15-1.52c1.04 0 1.91-.24 2.62-.72s1.25-1.3 1.62-2.47.55-2.77.55-4.83c0-2.33-.42-4.22-1.27-5.66s-2.12-2.17-3.82-2.17c-1.44 0-2.61.61-3.5 1.82-.89 1.22-1.33 3.04-1.33 5.47 0 3.02.45 5.2 1.35 6.56s2.16 2.02 3.78 2M311.45 929.92h-9.54v-1.06c.73 0 1.29-.06 1.67-.17s.63-.34.76-.68.19-.86.19-1.54v-10.98c0-.73-.06-1.27-.17-1.61s-.36-.56-.72-.67c-.37-.1-.94-.15-1.73-.15v-1.1h8.63q3.765 0 5.55 1.08c1.19.72 1.79 1.77 1.79 3.13 0 1.22-.38 2.16-1.14 2.83s-1.75 1.15-2.96 1.42v.15c.66.13 1.35.35 2.07.67q1.08.48 1.86 1.41c.52.62.78 1.46.78 2.53 0 1.62-.62 2.82-1.86 3.59s-2.96 1.16-5.17 1.16Zm-3.69-16.49V920h2.09q2.7 0 3.69-.87c.66-.58.99-1.47.99-2.66 0-1.11-.37-1.91-1.12-2.39s-2.05-.72-3.9-.72h-.82c-.32 0-.63.03-.93.08Zm2.32 15.12c.76 0 1.51-.06 2.26-.17s1.37-.41 1.86-.89.74-1.25.74-2.32-.23-1.86-.7-2.39a3.4 3.4 0 0 0-1.82-1.06c-.75-.18-1.54-.27-2.38-.27h-2.28v7.03c.38.03.75.04 1.12.06s.77.02 1.2.02ZM330.18 938.28h-9.61v-1.06c1.19 0 1.95-.2 2.28-.59s.49-1.12.49-2.18v-18.81c0-.73-.08-1.24-.25-1.52s-.56-.42-1.2-.42c-.25 0-.66.03-1.22.08v-1.1l4.79-1.06h.95v3.19h.11c.91-1.06 1.84-1.88 2.79-2.45s1.98-.85 3.1-.85c1.27 0 2.38.36 3.32 1.08.95.72 1.7 1.72 2.24 3s.82 2.75.82 4.43c0 2.15-.37 4-1.12 5.53s-1.75 2.71-3.02 3.53a7.55 7.55 0 0 1-4.18 1.24c-.71 0-1.39-.08-2.03-.25-.65-.16-1.25-.44-1.8-.82h-.15v4.98q0 1.215.3 1.86c.2.43.57.72 1.1.87s1.29.23 2.28.23v1.1Zm.5-9.46c1.34 0 2.46-.63 3.34-1.9s1.33-3.22 1.33-5.85c0-2.41-.39-4.17-1.18-5.3s-1.89-1.69-3.31-1.69c-1.01 0-1.91.27-2.68.8s-1.34 1.04-1.69 1.52v9.92c.25.25.57.58.95.99s.84.76 1.37 1.06 1.15.46 1.86.46ZM349.81 930.3c-1.52 0-2.89-.36-4.12-1.08s-2.2-1.79-2.91-3.19c-.71-1.41-1.06-3.12-1.06-5.15 0-2.13.36-3.88 1.08-5.26s1.69-2.41 2.91-3.1c1.22-.68 2.56-1.03 4.03-1.03 2.08 0 3.75.72 5.02 2.17 1.27 1.44 1.95 3.5 2.05 6.16h-12.35l-.04-1.41h8.82c-.03-.94-.19-1.82-.49-2.64s-.75-1.49-1.33-2-1.33-.76-2.24-.76c-1.47 0-2.57.58-3.31 1.73-.73 1.15-1.1 2.78-1.1 4.88 0 1.75.28 3.21.84 4.37.56 1.17 1.29 2.03 2.2 2.6s1.89.86 2.93.86 1.88-.14 2.53-.42q.975-.42 1.65-1.08c.46-.44.89-.93 1.29-1.46l.72.53c-.33.71-.71 1.39-1.14 2.03-.43.65-.92 1.21-1.46 1.69s-1.18.86-1.92 1.14-1.6.42-2.58.42ZM365.73 929.92h-7.22v-1.06c.81 0 1.42-.06 1.82-.19s.67-.41.8-.84.19-1.1.19-2.01v-10.34c0-.71-.06-1.23-.19-1.58-.13-.34-.39-.57-.78-.68s-.98-.17-1.77-.17v-1.1h6.57l5.81 13.03h.11l5.78-13.03h6.27v1.1c-1.06 0-1.78.15-2.15.44s-.55.97-.55 2.03v10.98c0 .94.16 1.56.47 1.88.32.32 1.06.47 2.22.47v1.06h-8.4v-1.06c.81 0 1.39-.06 1.73-.19s.56-.36.65-.7.13-.83.13-1.46v-11.36h-.11l-6.5 14.78h-.76l-6.69-14.52h-.15v10.41q0 1.365.21 2.01c.14.43.41.71.8.84s.96.19 1.69.19v1.06ZM393.25 930.3c-1.52 0-2.89-.36-4.12-1.08s-2.2-1.79-2.91-3.19c-.71-1.41-1.06-3.12-1.06-5.15 0-2.13.36-3.88 1.08-5.26s1.69-2.41 2.91-3.1c1.22-.68 2.56-1.03 4.03-1.03 2.08 0 3.75.72 5.02 2.17 1.27 1.44 1.95 3.5 2.05 6.16H387.9l-.04-1.41h8.82c-.03-.94-.19-1.82-.49-2.64s-.75-1.49-1.33-2-1.33-.76-2.24-.76c-1.47 0-2.57.58-3.31 1.73-.73 1.15-1.1 2.78-1.1 4.88 0 1.75.28 3.21.84 4.37.56 1.17 1.29 2.03 2.2 2.6s1.89.86 2.93.86 1.88-.14 2.53-.42q.975-.42 1.65-1.08c.46-.44.89-.93 1.29-1.46l.72.53c-.33.71-.71 1.39-1.14 2.03-.43.65-.92 1.21-1.46 1.69s-1.18.86-1.92 1.14-1.6.42-2.58.42ZM410.68 929.92h-8.51v-1.06c.81 0 1.41-.06 1.79-.19s.63-.37.76-.74.19-.93.19-1.69v-10.41c0-.79-.05-1.37-.15-1.77a1.1 1.1 0 0 0-.72-.8q-.57-.21-1.86-.21v-1.1h8.51v1.1c-.81 0-1.4.08-1.77.25s-.6.44-.68.84c-.09.39-.13.96-.13 1.69v4.1h8.82v-4.1c0-.73-.04-1.3-.11-1.69-.08-.39-.29-.67-.65-.84-.36-.16-.95-.25-1.79-.25v-1.1h8.51v1.1c-.89 0-1.53.08-1.92.25s-.63.44-.7.84c-.08.39-.11.96-.11 1.69v10.3c0 .79.06 1.37.17 1.77.11.39.37.65.76.78s.99.19 1.8.19v1.06h-8.51v-1.06c.84 0 1.43-.06 1.79-.19.35-.13.57-.39.65-.78s.11-.98.11-1.77v-4.83h-8.82v4.83c0 .79.04 1.37.13 1.77.09.39.32.65.68.78s.96.19 1.77.19v1.06ZM434.13 929.92h-8.51v-1.06c.81 0 1.41-.06 1.79-.19s.63-.37.76-.74.19-.93.19-1.69v-10.41c0-.79-.05-1.37-.15-1.77a1.1 1.1 0 0 0-.72-.8q-.57-.21-1.86-.21v-1.1h8.51v1.1c-.81 0-1.4.08-1.77.25s-.6.44-.68.84c-.09.39-.13.96-.13 1.69v4.1h8.82v-4.1c0-.73-.04-1.3-.11-1.69-.08-.39-.29-.67-.65-.84-.36-.16-.95-.25-1.79-.25v-1.1h8.51v1.1c-.89 0-1.53.08-1.92.25s-.63.44-.7.84c-.08.39-.11.96-.11 1.69v10.3c0 .79.06 1.37.17 1.77.11.39.37.65.76.78s.99.19 1.8.19v1.06h-8.51v-1.06c.84 0 1.43-.06 1.79-.19.35-.13.57-.39.65-.78s.11-.98.11-1.77v-4.83h-8.82v4.83c0 .79.04 1.37.13 1.77.09.39.32.65.68.78s.96.19 1.77.19v1.06ZM457.39 929.92h-8.28v-1.06c1.17 0 1.9-.18 2.2-.53s.46-1.04.46-2.05v-10.64c0-.76-.05-1.32-.15-1.69s-.34-.61-.7-.72c-.37-.11-.96-.17-1.77-.17v-1.1h8.55v1.1c-.84 0-1.44.06-1.82.17s-.63.36-.74.72c-.11.37-.17.93-.17 1.69v4.03c.43-.03.92-.06 1.46-.1s1.1-.06 1.65-.06q2.4 0 3.93.63c1.03.42 1.79 1 2.28 1.75s.74 1.64.74 2.68c0 1.62-.63 2.92-1.9 3.9s-3.18 1.46-5.74 1.46Zm-.41-1.37c.71 0 1.42-.09 2.13-.29.71-.19 1.3-.56 1.77-1.1s.7-1.34.7-2.38c0-1.39-.42-2.39-1.25-2.98-.84-.59-1.96-.89-3.38-.89-.38 0-.74.01-1.06.04-.33.03-.63.05-.91.08v7.45c.35.03.69.04 1.01.06.32.01.65.02 1.01.02Zm17.32 1.37h-8.36v-1.06c.81 0 1.39-.06 1.75-.19s.58-.37.68-.74.15-.93.15-1.69v-10.41c0-.79-.04-1.37-.11-1.77-.08-.39-.29-.66-.65-.8s-.96-.21-1.82-.21v-1.1h8.36v1.1c-.79 0-1.37.08-1.75.25s-.62.44-.72.84c-.1.39-.15.96-.15 1.69v10.3c0 .79.05 1.37.15 1.77.1.39.33.65.7.78s.96.19 1.77.19v1.06ZM482.86 929.92h-6.35v-1.1c.66 0 1.2-.13 1.63-.4s.96-.77 1.6-1.5l4.79-6.23 1.18 1.48h-.53l-3.12 4.48c-.18.3-.37.61-.59.91s-.32.53-.32.68c0 .2.13.35.38.44s.7.13 1.33.13v1.1Zm12.05 0h-7.94v-1.1c.66 0 1.12-.06 1.39-.17s.4-.33.4-.67c0-.25-.09-.52-.27-.8l-2.39-3.69-.95-1.67-.61-.53-4.18-5.97c-.43-.63-.8-1.11-1.1-1.44s-.62-.55-.95-.67-.76-.17-1.29-.17v-1.1h8.17V913c-1.22 0-1.82.29-1.82.87 0 .2.08.44.23.72s.37.64.67 1.08c.29.44.65 1.02 1.08 1.73l1.06 1.98.61.34 4.86 6.88c.53.76.99 1.32 1.39 1.67.39.35.94.53 1.65.53v1.1Zm-3.68-15.09-4.22 5.43-1.1-1.18h.49l1.79-2.58c.51-.71.86-1.24 1.06-1.6q.3-.525.3-.99c0-.28-.11-.5-.32-.67-.21-.16-.63-.25-1.23-.25v-1.06h6.27v1.1c-.63 0-1.19.16-1.67.47-.48.32-.94.75-1.37 1.31ZM525.04 936.61h-1.25c-.25-1.37-.48-2.49-.68-3.36s-.43-1.55-.68-2.03-.58-.82-.99-1.01-.94-.29-1.6-.29h-14.97v-1.06q1.065 0 1.65-.15c.585-.15.67-.32.84-.67s.25-.89.25-1.65v-11.21c0-.99-.22-1.59-.67-1.8-.44-.21-1.13-.32-2.07-.32v-1.1h8.55v1.1c-.96 0-1.64.13-2.03.4s-.59.87-.59 1.8v11.29c0 .79.11 1.31.34 1.58s.59.4 1.1.4h5.02c.58 0 1.01-.14 1.27-.42.27-.28.4-.81.4-1.6V915.3c0-.96-.17-1.58-.51-1.84-.34-.27-1.03-.4-2.07-.4v-1.1h8.4v1.1c-1.06 0-1.77.13-2.13.4-.35.27-.53.83-.53 1.69v11.21c0 .94.13 1.54.4 1.81s.68.41 1.24.44l1.48.04-.15 7.98ZM536.22 929.92h-8.36v-1.06c1.06 0 1.77-.14 2.13-.44.35-.29.53-.94.53-1.96v-11.02c0-.68-.06-1.2-.17-1.54s-.36-.57-.72-.68c-.37-.11-.94-.17-1.73-.17v-1.1h8.32v1.1c-.74 0-1.29.06-1.65.17s-.6.34-.7.68-.15.88-.15 1.61v9.27h.08l8.89-9.65c0-.91-.15-1.49-.46-1.73s-.98-.36-2.01-.36v-1.1h8.28v1.1c-.71 0-1.25.06-1.63.17s-.63.36-.76.74-.19.96-.19 1.75v10.75c0 1.01.18 1.67.55 1.96s1.03.44 1.99.44v1.06h-8.25v-1.06c1.01 0 1.68-.14 1.99-.44.32-.29.48-.94.48-1.96v-9.2h-.08l-8.89 9.58c0 .76.16 1.29.49 1.58s1 .44 2.01.44v1.06ZM567.46 938.28h-9.04v-1.1c1.27 0 2.06-.2 2.39-.59s.49-1.12.49-2.18v-5.81h-.15q-.84.72-1.71 1.2c-.58.32-1.32.47-2.2.47-1.52 0-2.75-.46-3.71-1.37s-1.65-2.08-2.09-3.5-.67-2.89-.67-4.41q0-2.925.87-5.04c.58-1.41 1.37-2.49 2.38-3.25 1-.76 2.13-1.14 3.4-1.14q1.335 0 2.19.51c.57.34 1.09.75 1.58 1.23h.11v-6.35c0-.76-.15-1.22-.44-1.39s-.65-.25-1.08-.25c-.36 0-.77.03-1.25.08v-1.03l4.9-1.29h.87v10.22h.15c.48-.48 1.06-.89 1.75-1.23s1.47-.51 2.36-.51c1.24 0 2.34.37 3.29 1.1.95.74 1.7 1.79 2.24 3.15.54 1.37.8 3 .78 4.9 0 1.17-.13 2.31-.38 3.44s-.65 2.15-1.18 3.08c-.53.92-1.22 1.66-2.07 2.2s-1.87.82-3.06.82c-.86 0-1.57-.17-2.13-.49-.56-.33-1.09-.73-1.6-1.22h-.15v5.85c0 .73.08 1.3.23 1.71.15.4.45.68.89.84.44.15 1.12.23 2.03.23v1.1Zm-9.73-9.46c.58 0 1.11-.15 1.58-.44s.88-.64 1.24-1.04c.35-.41.61-.77.76-1.1v-10.53c-.25-.66-.67-1.25-1.25-1.77s-1.28-.78-2.09-.78-1.54.34-2.11 1.01-.99 1.58-1.27 2.74c-.28 1.15-.42 2.48-.42 3.97 0 1.24.11 2.47.32 3.69s.59 2.23 1.12 3.04 1.24 1.22 2.13 1.22Zm10.11-.04c.94 0 1.67-.35 2.19-1.06s.89-1.65 1.12-2.81c.23-1.17.34-2.45.34-3.84 0-1.52-.11-2.88-.34-4.07s-.6-2.13-1.12-2.81-1.24-1.03-2.15-1.03c-.86 0-1.62.27-2.28.82s-1.09 1.12-1.29 1.73v10.53c.23.53.65 1.09 1.25 1.67q.915.87 2.28.87M586.35 938.28h-9.61v-1.06c1.19 0 1.95-.2 2.28-.59s.49-1.12.49-2.18v-18.81c0-.73-.08-1.24-.25-1.52s-.56-.42-1.2-.42c-.25 0-.66.03-1.22.08v-1.1l4.79-1.06h.95v3.19h.11c.91-1.06 1.84-1.88 2.79-2.45s1.98-.85 3.1-.85c1.27 0 2.38.36 3.32 1.08.95.72 1.7 1.72 2.24 3s.82 2.75.82 4.43c0 2.15-.37 4-1.12 5.53s-1.75 2.71-3.02 3.53a7.55 7.55 0 0 1-4.18 1.24c-.71 0-1.39-.08-2.03-.25-.65-.16-1.25-.44-1.8-.82h-.15v4.98q0 1.215.3 1.86c.2.43.57.72 1.1.87s1.29.23 2.28.23v1.1Zm.5-9.46c1.34 0 2.46-.63 3.34-1.9s1.33-3.22 1.33-5.85c0-2.41-.39-4.17-1.18-5.3s-1.89-1.69-3.31-1.69c-1.01 0-1.91.27-2.68.8s-1.34 1.04-1.69 1.52v9.92c.25.25.57.58.95.99s.84.76 1.37 1.06 1.15.46 1.86.46ZM606.4 930.3c-2.66 0-4.74-.83-6.25-2.49s-2.26-4.02-2.26-7.09c0-1.85.35-3.46 1.06-4.84s1.7-2.46 2.98-3.23 2.77-1.16 4.46-1.16c2.61 0 4.67.81 6.17 2.43 1.51 1.62 2.26 3.84 2.26 6.65 0 2.13-.36 3.91-1.08 5.36-.72 1.44-1.72 2.53-2.98 3.27s-2.72 1.1-4.37 1.1Zm.15-1.52c1.04 0 1.91-.24 2.62-.72s1.25-1.3 1.62-2.47.55-2.77.55-4.83c0-2.33-.42-4.22-1.27-5.66s-2.12-2.17-3.82-2.17c-1.44 0-2.61.61-3.5 1.82-.89 1.22-1.33 3.04-1.33 5.47 0 3.02.45 5.2 1.35 6.56s2.16 2.02 3.78 2M626.45 929.92h-9.54v-1.06c.73 0 1.29-.06 1.67-.17s.63-.34.76-.68.19-.86.19-1.54v-10.98c0-.73-.06-1.27-.17-1.61s-.36-.56-.72-.67c-.37-.1-.94-.15-1.73-.15v-1.1h8.63q3.765 0 5.55 1.08c1.19.72 1.79 1.77 1.79 3.13 0 1.22-.38 2.16-1.14 2.83s-1.75 1.15-2.96 1.42v.15c.66.13 1.35.35 2.07.67q1.08.48 1.86 1.41c.52.62.78 1.46.78 2.53 0 1.62-.62 2.82-1.86 3.59s-2.96 1.16-5.17 1.16Zm-3.69-16.49V920h2.09q2.7 0 3.69-.87c.66-.58.99-1.47.99-2.66 0-1.11-.37-1.91-1.12-2.39s-2.05-.72-3.9-.72h-.82c-.32 0-.63.03-.93.08Zm2.32 15.12c.76 0 1.51-.06 2.26-.17s1.37-.41 1.86-.89.74-1.25.74-2.32-.23-1.86-.7-2.39a3.4 3.4 0 0 0-1.82-1.06c-.75-.18-1.54-.27-2.38-.27h-2.28v7.03c.38.03.75.04 1.12.06s.77.02 1.2.02ZM643.95 929.92h-8.28v-1.06c1.17 0 1.9-.18 2.2-.53s.46-1.04.46-2.05v-10.64c0-.76-.05-1.32-.15-1.69s-.34-.61-.7-.72c-.37-.11-.96-.17-1.77-.17v-1.1h8.55v1.1c-.84 0-1.44.06-1.82.17s-.63.36-.74.72c-.11.37-.17.93-.17 1.69v4.03c.43-.03.92-.06 1.46-.1s1.1-.06 1.65-.06q2.4 0 3.93.63c1.03.42 1.79 1 2.28 1.75s.74 1.64.74 2.68c0 1.62-.63 2.92-1.9 3.9s-3.18 1.46-5.74 1.46Zm-.41-1.37c.71 0 1.42-.09 2.13-.29.71-.19 1.3-.56 1.77-1.1s.7-1.34.7-2.38c0-1.39-.42-2.39-1.25-2.98-.84-.59-1.96-.89-3.38-.89-.38 0-.74.01-1.06.04-.33.03-.63.05-.91.08v7.45c.35.03.69.04 1.01.06.32.01.65.02 1.01.02Zm17.32 1.37h-8.36v-1.06c.81 0 1.39-.06 1.75-.19s.58-.37.68-.74.15-.93.15-1.69v-10.41c0-.79-.04-1.37-.11-1.77-.08-.39-.29-.66-.65-.8s-.96-.21-1.82-.21v-1.1h8.36v1.1c-.79 0-1.37.08-1.75.25s-.62.44-.72.84c-.1.39-.15.96-.15 1.69v10.3c0 .79.05 1.37.15 1.77.1.39.33.65.7.78s.96.19 1.77.19v1.06ZM669.43 929.92h-6.35v-1.1c.66 0 1.2-.13 1.63-.4s.96-.77 1.6-1.5l4.79-6.23 1.18 1.48h-.53l-3.12 4.48c-.18.3-.37.61-.59.91s-.32.53-.32.68c0 .2.13.35.38.44s.7.13 1.33.13v1.1Zm12.04 0h-7.94v-1.1c.66 0 1.12-.06 1.39-.17s.4-.33.4-.67c0-.25-.09-.52-.27-.8l-2.39-3.69-.95-1.67-.61-.53-4.18-5.97c-.43-.63-.8-1.11-1.1-1.44s-.62-.55-.95-.67-.76-.17-1.29-.17v-1.1h8.17V913c-1.22 0-1.82.29-1.82.87 0 .2.08.44.23.72s.37.64.67 1.08c.29.44.65 1.02 1.08 1.73l1.06 1.98.61.34 4.86 6.88c.53.76.99 1.32 1.39 1.67.39.35.94.53 1.65.53v1.1Zm-3.68-15.09-4.22 5.43-1.1-1.18h.49l1.79-2.58c.51-.71.86-1.24 1.06-1.6q.3-.525.3-.99c0-.28-.11-.5-.32-.67-.21-.16-.63-.25-1.23-.25v-1.06h6.27v1.1c-.63 0-1.19.16-1.67.47-.48.32-.94.75-1.37 1.31ZM705.79 924.29l.72.53c-.48 1.01-1.03 1.94-1.65 2.77-.62.84-1.39 1.5-2.3 1.98q-1.365.72-3.42.72c-1.57 0-2.93-.38-4.07-1.14s-2.01-1.82-2.62-3.17-.91-2.91-.91-4.66c0-2 .34-3.74 1.01-5.21s1.65-2.61 2.93-3.42 2.83-1.22 4.66-1.22 3.21.39 4.24 1.18 1.54 1.74 1.54 2.85c0 .56-.13.98-.4 1.27s-.67.44-1.2.44c-.56 0-.98-.15-1.27-.44s-.53-.65-.7-1.08c-.18-.43-.36-.86-.55-1.29s-.46-.79-.8-1.08-.84-.44-1.5-.44c-1.55 0-2.75.56-3.63 1.69-.87 1.13-1.31 2.78-1.31 4.96 0 2.31.48 4.2 1.42 5.68q1.425 2.22 4.35 2.22c1.24 0 2.25-.25 3.02-.76s1.59-1.3 2.45-2.39ZM718.03 938.28h-9.61v-1.06c1.19 0 1.95-.2 2.28-.59s.49-1.12.49-2.18v-18.81c0-.73-.08-1.24-.25-1.52s-.56-.42-1.2-.42c-.25 0-.66.03-1.22.08v-1.1l4.79-1.06h.95v3.19h.11c.91-1.06 1.84-1.88 2.79-2.45s1.98-.85 3.1-.85c1.27 0 2.38.36 3.32 1.08.95.72 1.7 1.72 2.24 3s.82 2.75.82 4.43c0 2.15-.37 4-1.12 5.53s-1.75 2.71-3.02 3.53a7.55 7.55 0 0 1-4.18 1.24c-.71 0-1.39-.08-2.03-.25-.65-.16-1.25-.44-1.8-.82h-.15v4.98q0 1.215.3 1.86c.2.43.57.72 1.1.87s1.29.23 2.28.23v1.1Zm.5-9.46c1.34 0 2.46-.63 3.34-1.9s1.33-3.22 1.33-5.85c0-2.41-.39-4.17-1.18-5.3s-1.89-1.69-3.31-1.69c-1.01 0-1.91.27-2.68.8s-1.34 1.04-1.69 1.52v9.92c.25.25.57.58.95.99s.84.76 1.37 1.06 1.15.46 1.86.46ZM737.66 930.3c-1.52 0-2.89-.36-4.12-1.08s-2.2-1.79-2.91-3.19c-.71-1.41-1.06-3.12-1.06-5.15 0-2.13.36-3.88 1.08-5.26s1.69-2.41 2.91-3.1c1.22-.68 2.56-1.03 4.03-1.03 2.08 0 3.75.72 5.02 2.17 1.27 1.44 1.95 3.5 2.05 6.16h-12.35l-.04-1.41h8.82c-.03-.94-.19-1.82-.49-2.64s-.75-1.49-1.33-2-1.33-.76-2.24-.76c-1.47 0-2.57.58-3.31 1.73-.73 1.15-1.1 2.78-1.1 4.88 0 1.75.28 3.21.84 4.37.56 1.17 1.29 2.03 2.2 2.6s1.89.86 2.93.86 1.88-.14 2.53-.42q.975-.42 1.65-1.08c.46-.44.89-.93 1.29-1.46l.72.53c-.33.71-.71 1.39-1.14 2.03-.43.65-.92 1.21-1.46 1.69s-1.18.86-1.92 1.14-1.6.42-2.58.42ZM747.34 936.61h-1.25l-.11-7.98c.13-.03.25-.04.38-.06s.28-.03.46-.06c.71-.13 1.35-.51 1.92-1.16s1.08-1.46 1.52-2.43.81-2.03 1.1-3.17.51-2.27.67-3.4c.15-1.13.23-2.16.23-3.1 0-.58-.06-1.03-.19-1.35s-.4-.54-.82-.67-1.07-.19-1.96-.19v-1.1h15.43v1.1c-.94 0-1.59.08-1.96.25s-.58.46-.63.89-.08 1.06-.08 1.9v10.26c0 .94.13 1.54.38 1.81s.66.41 1.22.44l1.52.04-.19 7.98h-1.25c-.25-1.37-.48-2.49-.68-3.36s-.43-1.55-.68-2.03-.58-.82-.97-1.01-.92-.29-1.58-.29h-8.55c-.89 0-1.55.18-1.98.53s-.77 1.02-1.03 2c-.25.97-.56 2.36-.91 4.16Zm2.85-8.29v.15h8.66v-15.09h-4.98q-.045 2.625-.36 5.28c-.22 1.77-.58 3.48-1.1 5.11s-1.26 3.15-2.22 4.54ZM772.22 930.18c-1.47 0-2.59-.4-3.36-1.22-.77-.81-1.16-1.82-1.16-3.04 0-1.01.23-1.87.7-2.56q.705-1.05 1.86-1.77c.77-.48 1.61-.89 2.51-1.22q1.35-.495 2.64-.84c.86-.23 1.62-.44 2.28-.65v-1.67c0-1.65-.29-2.82-.86-3.51-.57-.7-1.42-1.04-2.57-1.04s-1.79.23-2.09.68c-.3.46-.46 1.25-.46 2.39 0 .58-.15 1.02-.44 1.31s-.7.44-1.24.44c-.38 0-.74-.15-1.08-.44s-.51-.75-.51-1.39c0-.71.27-1.38.82-2.01.54-.63 1.32-1.15 2.32-1.56 1-.4 2.19-.61 3.55-.61q3.12 0 4.41 1.44t1.29 4.41v8.63c0 .79.09 1.29.27 1.52s.47.34.87.34c.35 0 .68-.09.97-.27s.56-.4.82-.68l.57.61c-.63.91-1.24 1.58-1.8 2-.57.42-1.34.63-2.3.63-.89 0-1.46-.25-1.73-.76s-.46-1.23-.59-2.17l-.23-.46v-6.57c-1.14.28-2.22.61-3.23.99s-1.84.87-2.47 1.48-.95 1.41-.95 2.39.25 1.69.76 2.24q.765.84 1.98.84c.66 0 1.35-.16 2.07-.49s1.42-.8 2.11-1.41l.3 1.37h-.46c-.58.51-1.15.96-1.69 1.37s-1.13.72-1.75.93-1.34.32-2.15.32ZM792 929.92h-6.35v-1.1c.66 0 1.2-.13 1.63-.4s.96-.77 1.6-1.5l4.79-6.23 1.18 1.48h-.53l-3.12 4.48c-.18.3-.37.61-.59.91s-.32.53-.32.68c0 .2.13.35.38.44s.7.13 1.33.13v1.1Zm12.04 0h-7.94v-1.1c.66 0 1.12-.06 1.39-.17s.4-.33.4-.67c0-.25-.09-.52-.27-.8l-2.39-3.69-.95-1.67-.61-.53-4.18-5.97c-.43-.63-.8-1.11-1.1-1.44s-.62-.55-.95-.67-.76-.17-1.29-.17v-1.1h8.17V913c-1.22 0-1.82.29-1.82.87 0 .2.08.44.23.72s.37.64.67 1.08c.29.44.65 1.02 1.08 1.73l1.06 1.98.61.34 4.86 6.88c.53.76.99 1.32 1.39 1.67.39.35.94.53 1.65.53v1.1Zm-3.68-15.09-4.22 5.43-1.1-1.18h.49l1.79-2.58c.51-.71.86-1.24 1.06-1.6q.3-.525.3-.99c0-.28-.11-.5-.32-.67-.21-.16-.63-.25-1.23-.25v-1.06h6.27v1.1c-.63 0-1.19.16-1.67.47-.48.32-.94.75-1.37 1.31ZM809.01 930.22c-.76 0-1.32-.21-1.69-.65-.37-.43-.55-.96-.55-1.6s.2-1.22.61-1.69.96-.7 1.67-.7 1.3.24 1.71.72.61 1.05.61 1.71c0 .58-.2 1.1-.61 1.54s-.99.67-1.75.67"/>
</svg>
