<svg xmlns="http://www.w3.org/2000/svg" data-name="InterPreview1" viewBox="0 0 965 973.49"
	class="fontpreview">
	<path
		d="M951.52 711.23h.36l-4.26 25.48h9.42l6.67-40.3h-8.25l-21.48 25.45h-.36l4.21-25.45h-9.37l-6.67 40.3h8.14zm1.33-80.44h.4l-4.51 27.28h7.94l6.67-40.3h-7.18l-22.74 27.32h-.4l4.51-27.32h-7.94l-6.67 40.3h7.18zM808.73 384.96h13.52l-6.12 37.2h3.23l6.17-37.2h13.52l.5-3.11h-30.31l-.5 3.11ZM643.1 815.35h12.97l15.5-21.81h7.25l-3.61 21.81h10.95l3.61-21.81h7.39l8 21.81h13.13l-11.86-28.37 19.93-25.34h-13.52l-15.64 22.78h-5.9l3.78-22.78h-10.95l-3.78 22.78h-5.67l-8.36-22.78h-13.59l11.9 25.41-21.52 28.29h.01v.01Zm310.06-125.56c1.93-.97 3.56-2.26 4.88-3.93s2.15-3.5 2.49-5.52h-5.84c-.18 1.05-.58 1.99-1.23 2.79s-1.46 1.43-2.45 1.89c-.99.45-2.04.68-3.17.68-1.73 0-3.07-.5-4.04-1.51a4.27 4.27 0 0 1-1.04-3.85h-5.81c-.78 3.72.91 7.52 4.19 9.43 1.75 1.01 3.74 1.51 5.75 1.46 2.24.01 4.32-.46 6.26-1.43Zm-2.94 101.83h.29l-3.93 23.72h10.85l6.67-40.3h-9.34l-20.22 23.61h-.33l3.93-23.61h-10.81l-6.67 40.3h9.15l20.4-23.72ZM849.46 323.91h25.23l-3.25 19.61h1.66l6.67-40.3h-1.66l-3.15 19.03h-25.23l3.15-19.03h-1.66l-6.67 40.3h1.66zm42.88 98.25c2.95 0 5.58-.49 7.86-1.49s4.14-2.4 5.59-4.2a13.1 13.1 0 0 0 2.74-6.23c.41-2.38.2-4.46-.65-6.23s-2.25-3.16-4.2-4.15a16.45 16.45 0 0 0-7.41-1.48h-10.82l2.72-16.51h-3.25l-6.67 40.3h14.09Zm3.44-20.69c3.35 0 5.87.8 7.57 2.39s2.34 3.74 1.91 6.43c-.44 2.67-1.78 4.79-4.01 6.38s-5.03 2.38-8.4 2.38h-10.81l2.9-17.58h10.83ZM675.64 736.71l14.2-16.29H692l-2.67 16.29h9.37l2.67-16.29h2.16l8.84 16.29h11.03l-11.39-20.8 17.96-19.5h-10.85l-14.2 16.29h-2.24l2.7-16.29h-9.37l-2.7 16.29h-2.3l-8.84-16.29h-10.81l11.57 19.5-18.38 20.8h11.11Zm-14.08-313.69h-.01zm231.35-80.74c2.14 1.43 4.67 2.16 7.24 2.11h-.01c2.93.01 5.64-.72 8.13-2.18s4.65-3.42 6.48-5.87c1.83-2.46 3.25-5.18 4.26-8.19s1.51-5.89 1.51-9.09-.57-6.01-1.71-8.48-2.73-4.4-4.77-5.81a12.42 12.42 0 0 0-7.21-2.11c-2.95 0-5.67.74-8.17 2.2-2.53 1.51-4.73 3.5-6.49 5.86a29 29 0 0 0-4.27 8.14c-1.01 2.99-1.51 5.9-1.51 9.1s.57 6.04 1.71 8.51 1.71 3.71 4.81 5.82Zm-3.42-23.03c.94-2.73 2.3-5.29 4.04-7.58 1.62-2.16 3.65-3.98 5.97-5.37 2.2-1.31 4.72-2 7.28-1.99 2.45 0 4.59.63 6.4 1.89 1.86 1.31 3.32 3.12 4.2 5.22.99 2.22 1.48 3.51 1.48 7.69a27.92 27.92 0 0 1-5.28 15.99c-1.59 2.21-3.6 4.09-5.92 5.53a14 14 0 0 1-7.47 2.09h-.02a10.68 10.68 0 0 1-8.85-4.14c-2.2-2.75-3.29-6.32-3.29-10.7 0-2.96.48-5.84 1.46-8.64Zm-85.02 24.27 13.47-17.36c.88.14 1.8.21 2.8.21h11.88l-2.83 17.15h1.67l6.67-40.3h-13.55c-2.59 0-4.96.48-7.1 1.46-2.07.92-3.89 2.32-5.31 4.07a13 13 0 0 0-2.69 6.11q-.87 5.115 2.28 8.31c1.27 1.26 2.85 2.17 4.59 2.62l-13.77 17.73h1.91Zm6.64-28.66c.48-3.03 1.95-5.45 4.4-7.27s5.38-2.72 8.79-2.72h11.85l-3.27 19.83h-11.86c-3.41 0-6.04-.9-7.89-2.69s-2.52-4.18-2.02-7.16Zm124.84 444c-.34 2.09-.11 3.97.68 5.67s2.04 3.04 3.76 4.04c1.85 1.03 3.95 1.55 6.07 1.49h.02c4.55.02 8.87-2.01 11.77-5.53 1.35-1.63 2.24-3.59 2.58-5.67h-6.34a5.5 5.5 0 0 1-1.26 2.74 7.34 7.34 0 0 1-5.74 2.56c-1.72 0-2.59 0-4.1-1.51-1-.98-1.43-2.42-1.12-3.79h-6.31ZM837.1 418.24c-1.23.58-2.57.86-3.93.81h-1.04l-.5 3.11h1.3c2.91.01 5.2-.68 6.87-2.06s3.02-3.52 4.04-6.42 2.02-6.6 3.01-11.09l3.79-17.63h18.1l-6.17 37.2h3.28l6.67-40.3h-24.44l-4.32 19.93c-.71 3.36-1.38 6.16-2 8.4s-1.27 4.01-2 5.3a6.5 6.5 0 0 1-2.63 2.75h-.01Zm-76.63-33.74c-2.11-1.77-5.28-2.65-9.54-2.65h-15.29l-6.67 40.28h17.37c2.49 0 4.75-.47 6.77-1.4 2.02-.94 3.69-2.24 5.02-3.9s2.16-3.57 2.52-5.73c.31-1.63.2-3.31-.32-4.88-.5-1.4-1.32-2.57-2.45-3.48s-2.48-1.51-4.07-1.83a13.2 13.2 0 0 0 6.04-3.31c1.62-1.58 2.67-3.64 3.01-5.87.5-3.05-.29-5.45-2.39-7.22Zm-4.39 20.51c1.24 1.53 1.67 3.48 1.28 5.86a9.3 9.3 0 0 1-3.56 5.98c-1.99 1.51-4.44 2.3-6.94 2.24h-14.25l2.7-16.36h15.29c2.4 0 4.23.76 5.47 2.28Zm3.46-13.09c-.38 2.38-1.59 4.29-3.62 5.73s-4.51 2.16-7.44 2.16h-12.65l2.45-14.88h12.15c3.25 0 5.66.6 7.27 1.82 1.59 1.21 2.22 2.93 1.85 5.17ZM721.45 500.8l-.02-.01h.02Zm54.75-158.77a12.65 12.65 0 0 0 7.24 2.07c2.24 0 4.25-.38 6.04-1.17 1.66-.72 3.22-1.66 4.63-2.8a24.4 24.4 0 0 0 4.36-4.49l-1.33-.98a22.5 22.5 0 0 1-4 4.15c-1.17.99-2.58 1.83-4.21 2.56-1.64.72-3.46 1.09-5.48 1.09-2.47 0-4.62-.59-6.43-1.77a11.4 11.4 0 0 1-4.2-4.99c-.99-2.15-1.48-4.73-1.48-7.58s.44-5.7 1.33-8.51c.88-2.82 2.15-5.38 3.8-7.68s3.62-4.15 5.92-5.53 4.86-2.07 7.69-2.07c1.98 0 3.63.35 4.96 1.04 1.34.69 2.41 1.51 3.23 2.45s1.22 1.38 1.83 2.59c.41.8.65 1.3.72 1.48l1.51-.72c-.07-.16-.33-.69-.79-1.57s-1.15-1.87-2.1-2.94c-1.05-1.16-2.3-2.11-3.7-2.81-1.77-.84-3.72-1.25-5.67-1.19-2.95 0-5.67.72-8.14 2.16a21.9 21.9 0 0 0-6.46 5.81 28.8 28.8 0 0 0-4.27 8.13c-1.01 2.99-1.51 4.35-1.51 9.1q0 4.755 1.71 8.43a13.66 13.66 0 0 0 4.81 5.75Zm72.86 551.96 6.67-40.3h-12.58l-2.44 14.71H827.3l2.44-14.71h-12.58l-6.67 40.3h12.58l2.63-15.94h13.41l-2.63 15.94zm-109.4-393.2c2.6 0 4.94-.47 7.01-1.4s3.79-2.23 5.14-3.87 2.18-3.52 2.52-5.64c.36-1.69.23-3.44-.37-5.06a8.04 8.04 0 0 0-2.7-3.48c-1.23-.9-2.66-1.5-4.16-1.77a12.9 12.9 0 0 0 6.09-3.01 9.63 9.63 0 0 0 3.03-5.72c.53-3.14-.29-5.65-2.45-7.53s-5.42-2.81-9.77-2.81h-15.89l-6.67 40.29zm-7.61-35.8h11.21c2.82 0 4.94.53 6.37 1.58 1.44 1.06 1.99 2.58 1.68 4.54a7.29 7.29 0 0 1-3.23 4.96c-1.98 1.27-4.3 1.91-6.65 1.82h-11.54l2.16-12.91Zm-2.81 17.09h14.06c2.26 0 3.93.68 5.03 2.05s1.46 3.15 1.1 5.33c-.36 2.14-1.37 3.82-3.03 5.02s-3.65 1.8-5.98 1.8h-13.55l2.38-14.2Zm-47.61-138.57h.86c2.91 0 5.13-.67 6.65-2.02 1.53-1.34 2.73-3.45 3.62-6.29 1.09-3.63 2.03-7.3 2.81-11.01l4.21-19.32h19.87l-6.38 38.64h1.66l6.67-40.3h-23.07l-4.61 20.91c-.75 3.41-1.43 6.26-2.04 8.54a25 25 0 0 1-2.02 5.44 6.85 6.85 0 0 1-2.75 2.89c-1.35.63-2.83.93-4.32.87h-.87zm251.68 572.38a9.7 9.7 0 0 0 .85 6.09c.92 1.83 2.36 3.28 4.3 4.35s4.27 1.6 6.96 1.6h.01c2.69-.01 5.19-.55 7.5-1.61 2.3-1.08 4.24-2.51 5.78-4.35 1.5-1.73 2.49-3.83 2.86-6.09h-7.72c-.14.94-.57 1.79-1.26 2.55s-1.57 1.36-2.61 1.8c-1.04.45-2.17.67-3.37.67-1.59.08-3.15-.44-4.38-1.46a3.62 3.62 0 0 1-1.28-3.55zM681.63 343.52l-.01-.01h.01Zm126.29 525.52c0-3.59-.6-6.55-1.83-8.89-1.22-2.35-2.85-4.09-4.92-5.25s-4.35-1.73-6.87-1.73c-2.02 0-3.82.36-5.39 1.09s-2.92 1.65-4.05 2.78-2.05 2.32-2.74 3.57h-.33l1.26-6.93h-12.44l-9.2 55.37h12.6l3.6-21.98h.47c.33 1.22.91 2.4 1.75 3.55.9 1.2 2.07 2.18 3.42 2.83 1.45.75 3.26 1.12 5.42 1.12 3.34 0 6.22-.79 8.65-2.38s4.42-3.67 5.98-6.22c1.56-2.56 2.72-5.31 3.48-8.29s1.13-5.85 1.13-8.64Zm-13.44 5.47c-.38 1.69-1 3.33-1.82 4.88s-1.25 2.34-3.2 3.85a7.52 7.52 0 0 1-4.77 1.51v.02c-1.8 0-3.18-.63-4.13-1.88-.95-1.24-1.43-2.95-1.43-5.11.02-3.46.94-6.85 2.66-9.84.88-1.47 1.98-2.66 3.28-3.56s2.82-1.35 4.52-1.35c1.88 0 3.26.6 4.15 1.8.88 1.2 1.33 2.86 1.33 5 0 1.42-.2 2.97-.58 4.66Zm-77.02-492.15c-1.78-.73-3.69-1.09-5.62-1.04-3.11 0-5.93.71-8.47 2.14s-4.74 3.35-6.6 5.76c-1.85 2.41-3.28 5.11-4.29 8.11s-1.51 5.96-1.51 9.18.6 6.05 1.79 8.51 2.85 4.37 5 5.75 4.7 2.07 7.63 2.07v-.02c2.15 0 4.12-.36 5.9-1.06s3.37-1.58 4.75-2.61 2.54-2.07 3.45-3.12 1.55-1.92 1.91-2.65l-2.89-1.33c-.24.48-.71 1.14-1.43 1.99-.7.83-1.62 1.7-2.75 2.59-1.2.93-2.53 1.68-3.95 2.24-1.5.6-3.16.9-4.96.9-2.37 0-4.4-.55-6.07-1.64s-2.93-2.62-3.8-4.61-1.3-4.2-1.3-6.87c0-5.4 1.65-10.68 4.71-15.14 1.53-2.16 3.37-3.91 5.53-5.21s4.59-1.96 7.28-1.96c2.8-.12 5.52.97 7.47 2.97.78.82 1.38 1.65 1.8 2.45.42.81.66 1.45.74 1.93l3.14-.93c-.23-.93-.59-1.81-1.08-2.63-.58-1.05-1.38-2.11-2.44-3.15s-2.36-1.91-3.95-2.61Zm236.42 471.32-18.67 21.34h-.25l3.53-21.34h-12.58l-6.67 40.3h10.38l18.97-21.56h.25l-3.57 21.56h12.58-.01l6.67-40.3h-10.64ZM764.47 494.1c1.25 2.37 3.03 4.21 5.31 5.51s4.99 1.94 8.14 1.94h.01c3.65 0 5.48 0 10.08-2.56 2.94-1.58 5.37-3.95 7.01-6.85l-4.43-1.48c-1.28 2-3.06 3.63-5.16 4.74-2.22 1.2-4.72 1.82-7.24 1.79-2.45 0-4.48-.5-6.09-1.51a9.37 9.37 0 0 1-3.6-4.13 14.2 14.2 0 0 1-1.19-5.93c0-.99.07-1.98.18-2.96 4.55-.03 8.6-.22 12.09-.57 3.86-.38 7.06-1.04 9.59-1.96s4.45-2.2 5.7-3.79 1.89-3.61 1.89-6.04c0-2.18-.49-4.07-1.48-5.64a9.6 9.6 0 0 0-4.24-3.64 15.3 15.3 0 0 0-6.54-1.28c-3.11 0-5.98.67-8.64 1.99-2.65 1.33-4.97 3.17-6.97 5.52s-3.55 5.09-4.65 8.23-1.66 6.52-1.66 10.15c0 3.27.64 6.1 1.89 8.47m7.06-22.99a16.6 16.6 0 0 1 5.22-5.05c2.22-1.31 4.75-1.97 7.32-1.91 2.43 0 4.34.54 5.73 1.6a5.4 5.4 0 0 1 2.09 4.52c0 1.8-.48 3.27-1.46 4.4s-2.48 2-4.52 2.61-4.65 1.02-7.84 1.24c-2.81.2-6.12.3-9.89.32.07-.26.12-.54.2-.8.67-2.47 1.73-4.81 3.15-6.94Zm-20.07 382.57-18.67 21.34h-.25l3.53-21.34h-12.58l-6.67 40.3h10.38l18.97-21.56h.25l-3.57 21.56h12.58-.01l6.67-40.3h-10.64Zm-16.73-511.4c2.14 1.43 4.67 2.16 7.24 2.11h-.01c2.93.01 5.64-.72 8.13-2.18s4.65-3.42 6.48-5.87c1.83-2.46 3.25-5.18 4.26-8.19s1.51-5.89 1.51-9.09-.57-6.01-1.71-8.48-2.73-4.4-4.77-5.81a12.42 12.42 0 0 0-7.21-2.11c-2.95 0-5.67.74-8.17 2.2-2.53 1.51-4.73 3.5-6.49 5.86a29 29 0 0 0-4.27 8.14c-1.01 2.99-1.51 5.9-1.51 9.1s.57 6.04 1.71 8.51 1.71 3.71 4.81 5.82Zm-3.43-23.03c.94-2.73 2.3-5.29 4.04-7.58 1.62-2.16 3.65-3.98 5.97-5.37 2.2-1.31 4.72-2 7.28-1.99 2.45 0 4.59.63 6.4 1.89 1.86 1.31 3.32 3.12 4.2 5.22.99 2.22 1.48 3.51 1.48 7.69a27.92 27.92 0 0 1-5.28 15.99c-1.59 2.21-3.6 4.09-5.92 5.53a14 14 0 0 1-7.47 2.09h-.02a10.68 10.68 0 0 1-8.85-4.14c-2.2-2.75-3.29-6.32-3.29-10.7 0-2.96.48-5.84 1.46-8.64Zm-26.32 534.44-12.18 15.39h-1.26l2.56-15.39h-12.58L679 869.08h-1.3l-7.1-15.39h-14.28l10.27 19.21-16.98 21.08h14.65l11.96-15.32h1.19l-2.56 15.32h12.58l2.52-15.32h1.19l6.85 15.32h14.63l-9.94-21.08 16.58-19.21zm71.36-432.82c2.35 1.34 5.02 2.02 7.73 1.96v.02c3.31 0 6.44-.79 9.38-2.36 2.81-1.47 5.22-3.6 7.01-6.22l-2.89-1.26c-3.16 4.22-8.1 6.73-13.37 6.8-2.46 0-4.55-.54-6.31-1.6a10.5 10.5 0 0 1-4.02-4.46c-.95-2.05-1.43-4.3-1.38-6.56 0-1.28.09-2.52.24-3.75 4.6-.02 8.73-.15 12.33-.44 3.85-.31 7.1-.89 9.75-1.73 2.65-.85 4.64-2.06 6-3.65 1.36-1.58 2.04-3.67 2.04-6.23.06-1.93-.42-3.83-1.38-5.5a8.9 8.9 0 0 0-4.01-3.5c-2-.85-4.15-1.27-6.32-1.21-3.13 0-6.01.65-8.67 1.94s-4.97 3.12-6.94 5.48a26.1 26.1 0 0 0-4.58 8.29 31.7 31.7 0 0 0-1.62 10.35c0 3.11.6 5.83 1.83 8.17 1.17 2.28 2.96 4.18 5.17 5.48Zm1.08-29.73c1.6-2.15 3.53-3.84 5.81-5.08s4.91-1.85 7.69-1.85 4.93.6 6.42 1.83 2.24 3.01 2.24 5.33c0 2.12-.6 3.8-1.8 5.05s-2.96 2.18-5.28 2.8-5.19 1.02-8.62 1.21c-3.13.18-6.72.26-10.69.27.16-.75.35-1.48.57-2.21.78-2.65 2.02-5.13 3.65-7.35Zm-104.78 27.02c1.38-1.43 2.55-3.04 3.48-4.8h.4l-1.44 8.79h3.2l6.67-40.3h-3.28l-1.48 9.01h-.32c-.33-1.69-.96-3.31-1.88-4.77-.91-1.46-2.15-2.61-3.71-3.48s-3.48-1.3-5.76-1.3c-3.22 0-6.19.89-8.9 2.67a22.06 22.06 0 0 0-6.87 7.35 30.7 30.7 0 0 0-3.8 10.78c-.65 4.06-.57 7.66.23 10.81s2.26 5.62 4.38 7.41c2.25 1.84 5.09 2.79 7.99 2.69 2.28 0 4.35-.44 6.2-1.33 1.83-.87 3.49-2.06 4.88-3.53Zm-20.32-6.98c-.59-3-.61-6.09-.05-9.1.56-3.35 1.57-6.35 3.05-9.03s3.33-4.81 5.55-6.37 4.73-2.34 7.44-2.34 4.92.77 6.6 2.3c1.77 1.7 2.96 3.9 3.42 6.31.59 2.67.61 5.71.03 9.12-.49 3.21-1.52 6.31-3.05 9.18a18.6 18.6 0 0 1-5.51 6.4 12.47 12.47 0 0 1-7.36 2.34c-2.74 0-4.97-.79-6.67-2.38-1.79-1.73-3-3.98-3.45-6.43m142.78 506.1a6.87 6.87 0 0 0-2.55 4.3 4.98 4.98 0 0 0 1.12 4.3 5.25 5.25 0 0 0 4.18 1.79h.01c1.76 0 3.36-.6 4.8-1.79s2.3-2.62 2.59-4.3c.3-1.54-.13-3.13-1.17-4.3-1.05-1.2-2.45-1.79-4.2-1.79s-3.35.6-4.77 1.79Zm-16.65 0a6.87 6.87 0 0 0-2.55 4.3 4.98 4.98 0 0 0 1.12 4.3c1.03 1.2 2.43 1.79 4.18 1.79s3.36-.6 4.8-1.79a6.96 6.96 0 0 0 2.6-4.3c.3-1.54-.13-3.13-1.17-4.3-1.05-1.2-2.45-1.79-4.2-1.79s-3.35.6-4.77 1.79Zm-49.48-495.12v-.02zm169.65 372.05c-1-2.09-2.66-3.7-4.99-4.85s-5.28-1.73-8.84-1.73h-8.23l2.09-12.59h-10.81l-6.67 40.3h19.03c3.56 0 6.69-.58 9.41-1.75s4.92-2.79 6.63-4.86a14.8 14.8 0 0 0 3.2-7.22c.46-2.79.19-5.22-.81-7.3Zm-25.8-6.61v.02h-.03zm16.03 14a5.54 5.54 0 0 1-2.3 3.73 8.17 8.17 0 0 1-4.91 1.43h-8.25l1.76-10.57h8.23c1.98 0 3.45.49 4.43 1.48s1.33 2.29 1.04 3.93m-147.9-222.17-.01-.01h.01Zm123.54 54.49h-17.75l2.68-16.14h-7.94l-6.67 40.3h7.94l2.86-17.28h17.75l-2.86 17.28h7.92l6.67-40.3h-7.92zm-170.32-25.55c-1.77-1.55-3.84-2.73-6.23-3.53s-5.03-1.21-7.91-1.21c-4.39 0-8.36.92-11.91 2.78s-6.57 4.36-9.07 7.52-4.41 6.75-5.76 10.74-2.02 8.12-2.02 12.38c0 4.54.86 8.43 2.56 11.68s2.56 4.86 7.19 7.46c3.32 1.79 7.06 2.69 10.83 2.6h-.04c5.55.01 10.96-1.77 15.41-5.09 4.38-3.27 7.64-7.82 9.32-13.02h-8.29c-1.2 3.24-3.43 6-6.34 7.85-1.42.9-2.95 1.58-4.61 2.05s-3.36.7-5.11.7c-2.52 0-4.75-.55-6.68-1.62s-3.44-2.69-4.52-4.83c-1.09-2.13-1.62-3.23-1.62-7.92 0-3.13.46-6.22 1.38-9.29.93-3.07 2.26-5.84 4.01-8.33s3.89-4.47 6.42-5.95 5.42-2.22 8.64-2.22c1.64 0 3.15.24 4.54.7s2.61 1.15 3.64 2.05 1.84 2.02 2.44 3.34c.59 1.33.91 2.83.95 4.51h8.25c.03-2.86-.43-5.41-1.38-7.66-.9-2.19-2.29-4.14-4.07-5.7Zm39.95-62.78h-.54c-.34-.75-.82-1.66-1.46-2.75-.65-1.1-1.66-2.06-3.05-2.92s-3.39-1.28-5.98-1.28c-3.34 0-6.44.85-9.3 2.52s-5.27 4.06-7.24 7.16-3.31 6.77-4.04 11.05c-.7 4.26-1.04 6.39.34 11.09a13.62 13.62 0 0 0 4.81 7.28c2.28 1.72 5.1 2.58 8.44 2.58 2.55 0 4.66-.43 6.34-1.28s3.04-1.83 4.07-2.95 1.84-2.07 2.45-2.86h.76l-1.01 6.23h6.31l6.67-40.3h-6.53l-1.04 6.45Zm-2.18 13.7c-.41 2.76-1.29 5.43-2.6 7.89a15.2 15.2 0 0 1-4.71 5.37c-1.92 1.3-4.19 1.98-6.51 1.94l.02.02q-3.78 0-6.03-2.04c-2.25-2.04-2.47-3.19-2.95-5.5-.48-2.54-.5-5.14-.03-7.68.45-2.77 1.3-5.26 2.5-7.5s2.79-4.03 4.72-5.36 4.19-2 6.76-2 4.41.61 5.89 1.85a9.1 9.1 0 0 1 2.95 5.19c.48 2.23.48 4.83-.02 7.8Zm20.83-2.2c-.67 3.31-1.32 6.04-1.94 8.17s-1.3 3.79-1.99 4.97-1.48 2.02-2.36 2.5-1.92.72-3.12.72h-1.44l-.98 5.97h2.18c2.93 0 5.38-.74 7.32-2.2 1.94-1.47 3.57-3.69 4.86-6.65s2.41-6.71 3.35-11.23l3-14.24h14.49l-5.7 34.32h6.53l6.67-40.3h-27.18l-3.71 17.96Zm95.03 217.96-2.52 15.24h-15.04l2.52-15.24h-10.81l-6.67 40.3h10.81l2.72-16.44h15.04l-2.72 16.44h10.81l6.67-40.3zm39.38 117.18c2.85-1.17 5.18-2.82 6.98-4.94s2.93-4.6 3.39-7.43c.48-2.93.19-5.47-.9-7.61a11.04 11.04 0 0 0-5.31-4.99c-2.46-1.2-5.54-1.79-9.24-1.79h-7.33l1.94-11.78h-12.58l-6.67 40.3h19.9c3.7 0 6.98-.59 9.82-1.77Zm-14-17.07h7.27c1.78 0 3.1.42 3.95 1.26.86.83 1.16 1.99.92 3.46-.22 1.37-.89 2.46-2.02 3.26s-2.58 1.21-4.36 1.21h-7.28l1.51-9.19Zm1.91-257.39h.01zm-63.15 172.69c0-3.51-.6-6.44-1.82-8.81-1.09-2.22-2.8-4.08-4.94-5.33a14.2 14.2 0 0 0-7.12-1.78c-2.16 0-4.05.37-5.66 1.12a13.5 13.5 0 0 0-4.05 2.81c-1 1.02-1.89 2.14-2.65 3.35h-.33l1.23-6.77h-10.64l-9.19 55.36h10.81l3.57-21.84h.5c.33 1.08.9 2.2 1.69 3.35s1.92 2.13 3.37 2.92c1.46.79 3.33 1.19 5.61 1.19 3.31 0 6.2-.78 8.65-2.34 2.46-1.56 4.49-3.6 6.11-6.12s2.84-5.28 3.64-8.28 1.21-5.93 1.21-8.81Zm-11.71 5.91c-.46 1.88-1.16 3.64-2.13 5.3s-2.18 3.02-3.64 4.07a8.52 8.52 0 0 1-5.19 1.59h-.02c-2.13-.01-3.75-.71-4.86-2.15s-1.66-3.39-1.66-5.86c.02-3.81 1.05-7.55 2.97-10.83.98-1.59 2.2-2.88 3.64-3.85a8.85 8.85 0 0 1 5.07-1.46c2.22 0 3.84.71 4.91 2.14s1.59 3.35 1.59 5.75c0 1.66-.22 3.42-.68 5.3m-19.66-44.6 3.57-21.7h.54c.34.97.88 2.02 1.62 3.17a9.05 9.05 0 0 0 3.29 2.95c1.45.82 3.38 1.23 5.78 1.23 3.29 0 6.18-.77 8.67-2.29s4.57-3.53 6.22-6.04 2.91-5.25 3.75-8.25c.83-2.91 1.25-5.91 1.26-8.93q0-5.19-1.8-8.76a12.77 12.77 0 0 0-4.96-5.41 14.25 14.25 0 0 0-7.3-1.83c-2.3 0-4.27.38-5.89 1.15s-2.97 1.71-4.04 2.83c-.96.98-1.82 2.05-2.58 3.19h-.33l1.15-6.67h-9.15l-9.2 55.37h9.38Zm6-36.92a20.3 20.3 0 0 1 2.38-5.59c1-1.64 2.35-3.04 3.96-4.09a9.9 9.9 0 0 1 5.52-1.55c2.5 0 4.35.79 5.53 2.39 1.2 1.6 1.79 3.72 1.79 6.37-.04 4.02-1.13 7.95-3.14 11.43-1.05 1.76-2.38 3.17-3.96 4.27s-3.46 1.65-5.62 1.65c-2.4 0-4.2-.79-5.42-2.38s-1.82-3.74-1.82-6.45c0-2 .26-4.01.79-6.04h-.01Zm16.16-249.81h13.41l-5.95 35.76h4.9l5.92-35.76h13.34l.76-4.54H803.5l-.76 4.54Zm-103.64 208.1h-.02zm9.2-55.37-9.2 55.37H707l3.57-21.59h.58c.31.85.82 1.84 1.55 3 .71 1.15 1.8 2.16 3.26 3.03s3.45 1.3 5.97 1.3c3.25 0 6.12-.75 8.64-2.24 2.5-1.49 4.61-3.48 6.32-5.95q2.565-3.705 3.9-8.25c1.335-4.545 1.34-6.07 1.34-9.12 0-3.39-.6-6.28-1.79-8.67-1.2-2.39-2.85-4.21-4.99-5.48s-4.63-1.89-7.5-1.89c-2.43 0-4.47.4-6.12 1.19s-3.01 1.73-4.05 2.84-1.87 2.12-2.47 3.03h-.32l1.12-6.56h-7.72Zm7.42 12.2a14.3 14.3 0 0 1 4.26-4.32c1.77-1.11 3.83-1.68 5.93-1.64 2.81 0 4.88.9 6.2 2.69 1.33 1.79 1.99 4.1 1.99 6.94 0 2.04-.29 4.15-.87 6.31-.57 2.16-1.45 4.17-2.61 6s-2.6 3.33-4.3 4.47-3.7 1.71-5.98 1.71h-.01c-2.68 0-4.68-.88-6.03-2.63s-2.02-4.12-2.02-7.07c0-2.16.29-4.34.87-6.51s1.43-4.16 2.58-5.95Zm46.81 66.44-21.48 25.45h-.36l4.21-25.45h-9.37l-6.67 40.3h8.14l21.59-25.48h.36l-4.26 25.48h9.42l6.67-40.3zm-2.49 118.93 6.67-40.3h-9.34l-20.22 23.61h-.33l3.93-23.61h-10.81l-6.67 40.3h9.15l20.4-23.72h.29l-3.93 23.72h10.85Zm-79.12-316.42a20.06 20.06 0 0 0 10.38 2.6v.02q4.26 0 8.04-1.35c3.78-1.35 4.84-2.15 6.93-3.76 4.15-3.19 7.27-7.53 8.97-12.48h-5.16a19 19 0 0 1-2.83 5.06c-1.21 1.55-2.63 2.91-4.27 4.07s-2.45 1.75-5.37 2.7c-1.98.64-4.05.96-6.12.95-2.66.05-5.3-.6-7.63-1.89-2.27-1.31-4.1-3.28-5.25-5.64-1.27-2.5-1.91-5.65-1.91-9.23s.54-7.08 1.6-10.5c1.02-3.33 2.57-6.46 4.61-9.29a23.15 23.15 0 0 1 7.22-6.57c2.89-1.64 6.16-2.49 9.48-2.44 2.07 0 3.94.32 5.61.95 1.67.64 3.11 1.54 4.29 2.7s2.11 2.52 2.75 4.07c.66 1.55 1.01 3.24 1.09 5.06h5.11c0-2.49-.43-4.81-1.3-6.94a16.6 16.6 0 0 0-9.57-9.32c-2.5-.93-5.14-1.38-7.8-1.34-4.32 0-8.22.95-11.68 2.86a28.05 28.05 0 0 0-8.85 7.69 36.1 36.1 0 0 0-5.61 10.85c-1.3 4.01-1.94 7.94-1.94 12.33s.8 8.2 2.39 11.4c1.49 3.08 3.85 5.66 6.79 7.41Zm206.23 80.51c3.14 0 5.9-.58 8.29-1.73s4.3-2.72 5.78-4.69 2.43-4.18 2.83-6.63c.41-2.47.21-4.68-.59-6.6s-2.21-3.44-4.21-4.54-4.61-1.66-7.8-1.66h-10.58l2.4-14.45h-6.49l-6.67 40.3zm-7.29-19.83h10.57c2.43 0 4.29.67 5.59 1.99s1.78 3.02 1.44 5.08a7.3 7.3 0 0 1-3.06 4.85c-1.82 1.32-4.02 2-6.27 1.93h-10.56zm-25.56 177.11 6.67-40.3h-9.37l-2.6 15.72h-16.36l2.6-15.72h-9.37l-6.67 40.3h9.37l2.79-16.87h16.36l-2.79 16.87zm-15.01-257.29c-.7 3.37-1.36 6.14-1.99 8.31s-1.28 3.87-2 5.11-1.55 2.12-2.49 2.63c-.94.52-2.12.78-3.51.78h-1.26l-.76 4.54h1.78c2.93 0 5.3-.71 7.1-2.14 1.81-1.43 3.29-3.6 4.46-6.52 1.37-3.62 2.42-7.36 3.15-11.16l3.42-15.94h16.25l-5.92 35.76h4.91l6.67-40.3h-25.81l-4.01 18.92Zm-57.21 168.8-7.24-1.55c-.91 1.78-2.29 3.18-4.16 4.21s-4 1.55-6.4 1.55-4.1-.43-5.47-1.3-2.33-2.03-2.92-3.51c-.58-1.48-.88-3.14-.88-4.96 0-.61.03-1.26.1-1.92 4.01-.08 7.57-.27 10.69-.61 3.95-.43 7.22-1.13 9.8-2.11s4.51-2.26 5.76-3.87 1.89-3.61 1.89-5.92-.56-4.29-1.69-5.98-2.71-2.99-4.74-3.9-4.39-1.37-7.08-1.37c-3.17 0-6.12.67-8.84 2.02-2.72 1.34-5.09 3.19-7.12 5.56q-3.045 3.555-4.74 8.19c-1.695 4.635-1.69 6.44-1.69 9.86s.67 6.34 1.99 8.78c1.32 2.45 3.19 4.31 5.64 5.61s5.37 1.94 8.78 1.94c4.23 0 7.98-.95 11.26-2.89 3.14-1.77 5.61-4.53 7.05-7.84h.01Zm-19.68-22.74a10.96 10.96 0 0 1 6.56-1.91c2.02 0 3.62.43 4.83 1.3 1.15.77 1.83 2.07 1.8 3.46 0 1.36-.36 2.5-1.06 3.4s-1.92 1.61-3.62 2.14-4.04.9-6.99 1.13c-2.2.18-4.81.27-7.81.32a23.7 23.7 0 0 1 2.01-4.93c1.04-1.94 2.5-3.62 4.29-4.91Zm71.34-86.35-6.67 40.3h6.49l2.93-17.7h19.08l-2.93 17.7h6.49l6.67-40.3h-6.49l-2.75 16.62h-19.08l2.75-16.62zm123.73-151.22h.25l-5.66 34.24h3.28l6.67-40.3h-3.03l-28.29 34.32h-.29l5.66-34.32h-3.25l-6.67 40.3h3.06l28.26-34.24Zm-17.84 57.05c-.32 1.83-.15 3.5.48 4.99s1.65 2.7 3.03 3.6 3.02 1.35 4.92 1.35 3.69-.45 5.36-1.34c1.66-.88 3.11-2.11 4.24-3.6a11.35 11.35 0 0 0 2.2-5.02h-3.71c-.1 1.2-.59 2.34-1.38 3.25a8 8 0 0 1-2.67 2.27c-1.04.56-2.17.83-3.4.83-1.83 0-3.25-.59-4.26-1.8s-1.37-2.72-1.09-4.54h-3.71Zm.5-78.36c-.3 1.65-.13 3.35.5 4.91.6 1.44 1.63 2.66 2.94 3.5 1.41.89 3.05 1.34 4.71 1.3 1.82.02 3.61-.42 5.21-1.28s3.01-2.05 4.1-3.5c1.1-1.43 1.83-3.12 2.11-4.91h-2.7a8 8 0 0 1-1.54 3.62 9 9 0 0 1-2.97 2.55c-1.15.62-2.44.94-3.75.93-1.98 0-3.53-.68-4.69-2.04s-1.57-3.05-1.23-5.07h-2.7Zm19.01-59.93h.18l-6.09 36.84h1.66l6.67-40.3h-1.48l-30.46 36.88h-.18l6.09-36.88h-1.66l-6.67 40.3h1.51l30.42-36.84Zm-24.45 530.72c-.36 2.14-.11 4.09.76 5.86s2.21 3.17 4.04 4.2c1.99 1.07 4.23 1.61 6.49 1.55q3.78-.015 7.05-1.56c3.27-1.545 3.98-2.44 5.44-4.2s2.36-3.72 2.72-5.86h-6.99c-.16.98-.6 1.89-1.26 2.63-.68.78-1.53 1.39-2.55 1.84s-2.12.68-3.29.68c-1.56.09-3.1-.45-4.27-1.49a3.8 3.8 0 0 1-1.17-3.65h-6.96Zm9.35-540.93c1.36.88 2.95 1.32 4.57 1.28 1.76 0 3.48-.45 5-1.3 1.55-.85 2.9-2.01 3.96-3.42 1.06-1.39 1.77-3.02 2.05-4.74h-1.66a9 9 0 0 1-1.71 3.95c-.88 1.17-2 2.14-3.28 2.84-1.25.7-2.66 1.07-4.09 1.06-2.14 0-3.84-.76-5.11-2.28a6.58 6.58 0 0 1-1.37-5.56h-1.66c-.3 1.59-.14 3.24.47 4.74a7.57 7.57 0 0 0 2.83 3.42Zm11.76 172.68h.4l-5.26 31.65h4.91l6.67-40.3h-4.58l-26.17 31.72h-.33l5.22-31.72h-4.91l-6.67 40.3h4.61l26.1-31.65Zm-1.64 81.24h.47l-4.83 29.05h6.5l6.67-40.3h-6.12l-24 29.16h-.43l4.8-29.16h-6.49l-6.67 40.3h6.17l23.94-29.05Zm-.93 60.58c1.81-.9 3.39-2.2 4.63-3.79 1.22-1.56 2.03-3.4 2.34-5.36h-5.26c-.18 1.08-.58 2.03-1.23 2.86-.64.83-1.47 1.49-2.41 1.93-.97.45-2.01.68-3.14.68-1.68 0-2.52 0-3.91-1.54-.92-1.02-1.25-2.34-.99-3.95h-5.26c-.36 1.79-.16 3.65.56 5.33.7 1.59 1.82 2.85 3.35 3.79s3.33 1.4 5.39 1.4c2.11.01 4.09-.45 5.93-1.37Zm4.43-82.53c1.17-1.51 1.94-3.29 2.25-5.17h-4.76a6.23 6.23 0 0 1-1.21 2.92 6.7 6.7 0 0 1-5.42 2.67c-1.66 0-2.93-.52-3.82-1.55s-1.2-2.38-.93-4.04h-4.75c-.31 1.9-.14 3.62.53 5.16s1.71 2.77 3.14 3.68 3.12 1.37 5.06 1.37c1.98-.01 3.82-.46 5.55-1.36 1.71-.89 3.21-2.14 4.38-3.68h-.01Zm-162.99 10.7-6.67 40.3h17.04c3.14 0 5.9-.58 8.29-1.73s4.3-2.72 5.78-4.69 2.43-4.18 2.83-6.63c.41-2.47.21-4.68-.59-6.6s-2.21-3.44-4.21-4.54-4.61-1.66-7.8-1.66h-10.58l2.4-14.45zm13.66 20.47c2.43 0 4.29.67 5.59 1.99s1.78 3.02 1.44 5.08a7.3 7.3 0 0 1-3.06 4.85c-1.82 1.32-4.02 2-6.27 1.93h-10.56l2.29-13.85zm100.95 136.81-6.67 40.3h9.37l6.67-40.3zm-9.06 19.66c-.94-2.02-2.52-3.61-4.74-4.75s-5.05-1.71-8.48-1.71h-9.03l2.2-13.21h-9.37l-6.67 40.3h18.38c3.41 0 6.41-.58 9.01-1.75 2.47-1.07 4.65-2.72 6.34-4.81 1.62-2.02 2.69-4.43 3.1-6.99q.675-4.035-.72-7.08Zm-8.54 7.21a6.09 6.09 0 0 1-2.56 4.1 8.8 8.8 0 0 1-5.37 1.59h-9.01l1.93-11.63h9.02c2.11 0 3.71.54 4.81 1.64 1.1 1.09 1.48 2.52 1.17 4.3Zm26.47 51.76h-10.81l-6.67 40.3h10.81zM783.06 669.72h7.86l1.94-11.64h27.93l-1.91 11.64h7.75l3.03-18.49h-6.12l5.51-33.45h-27.47l-3.71 14.99c-.57 2.26-1.2 4.51-1.88 6.74a43 43 0 0 1-1.89 5.17c-.58 1.34-1.3 2.61-2.14 3.8-.77 1.06-1.62 1.98-2.59 2.74h-3.25l-3.06 18.49Zm18.98-25.89c1.31-3.62 2.42-7.31 3.34-11.05l2.05-8.19h12.83l-4.43 26.64h-17.9c1.79-2.21 3.19-4.71 4.12-7.4Zm111.21-104.7-6.67 40.3h6.49l6.67-40.3zm-1.22 78.64-22.74 27.32h-.4l4.51-27.32h-7.94l-6.67 40.3h7.18l22.74-27.28h.4l-4.51 27.28h7.94l6.67-40.3zm5.15-235.91-6.67 40.3h3.25l6.67-40.3zm-3.79 118.94 6.67-40.3h-4.91l-6.67 40.3zm-32.58-40.29-6.67 40.3h15.57c3.05 0 5.74-.54 8.09-1.62s4.25-2.56 5.7-4.43c1.46-1.88 2.42-4.1 2.8-6.45.38-2.44.16-4.57-.65-6.42a8.97 8.97 0 0 0-4.2-4.35c-1.98-1.04-4.51-1.57-7.58-1.57h-10.71l2.57-15.45h-4.91Zm12.24 20.05c2.91 0 5.11.74 6.62 2.2s2.05 3.38 1.65 5.76a8.32 8.32 0 0 1-3.51 5.59 12.14 12.14 0 0 1-7.33 2.16h-10.7l2.61-15.71h10.67Zm-79.39 470.86c-.36 1.8-.77 3.36-1.23 4.66s-.98 2.38-1.54 3.2c-.56.83-1.19 1.45-1.85 1.84s-1.4.59-2.2.59h-1.15l-1.8 10.89h4.75c2.75.01 5.37-.56 7.84-1.72s4.65-3.16 6.56-6.03 3.4-6.86 4.49-12.01l2.02-9.74h6.71l-4.86 29.49h14.49l6.67-40.3h-35.08l-3.82 19.11ZM0 0h37.73v184.31H0zm183.7 730.31h.61c.48.97 1.19 2 2.1 3.11s2.14 2.05 3.68 2.83q2.31 1.17 5.73 1.17c3.19-.01 6.05-.82 8.56-2.45 2.5-1.61 4.49-3.98 5.93-7.08s2.16-6.82 2.16-11.28-.74-8.25-2.22-11.34-3.47-5.42-5.97-7.01c-2.52-1.6-5.46-2.42-8.44-2.38-2.38 0-4.34.41-5.86 1.21s-2.73 1.76-3.62 2.86-1.57 2.13-2.05 3.1h-.4v-20.07h-9.37v53.71h9.15v-6.38zm1.11-20.53c.74-1.93 1.81-3.44 3.23-4.52s2.04-1.62 5.22-1.62c2.12 0 3.89.56 5.3 1.68 1.48 1.2 2.59 2.8 3.19 4.61.71 1.95 1.06 4.19 1.06 6.68s-.35 4.73-1.08 6.72c-.71 1.99-1.79 3.55-3.2 4.69s-3.16 1.71-5.26 1.71h-.01c-1.87.06-3.71-.52-5.21-1.64-1.5-1.19-2.63-2.79-3.25-4.6-.74-1.96-1.1-4.27-1.1-6.88s.36-4.9 1.1-6.83ZM37.95 946.35a13.6 13.6 0 0 0-6.29-1.71v-.58a14 14 0 0 0 5.47-2.25c3.12-2.15 4.96-5.72 4.92-9.5q0-4.065-2.13-7.08c-1.6-2.14-3.79-3.76-6.31-4.66-2.79-1.11-6.22-1.66-10.31-1.66H.01v53.71h25.32c3.89 0 7.24-.66 10.05-1.96 2.81-1.32 4.97-3.12 6.49-5.41s2.27-4.91 2.27-7.84c0-2.52-.56-4.73-1.68-6.62s-1.68-2.83-4.51-4.43Zm-23.39-15.98h6.2c1.8 0 3.3.45 4.49 1.34 1.19.88 1.86 2.3 1.79 3.79.06 2.03-1.2 3.86-3.12 4.52-.98.4-2.1.59-3.37.59h-5.99zm12.36 29.24c-1.24.93-3.07 1.4-5.5 1.4h-6.85v-11.38h7.07c1.46 0 2.73.22 3.8.68 1 .4 1.87 1.1 2.47 2 .58.88.87 1.95.87 3.23 0 1.78-.61 3.14-1.85 4.07Zm10.62-537.45h3.85l8.51-11.86c.93-1.34 1.83-2.7 2.7-4.07.56-.88 1.13-1.72 1.7-2.58.57.86 1.15 1.7 1.72 2.58.88 1.37 1.78 2.73 2.7 4.07l8.51 11.86h3.9l-14.88-20.53 14.2-19.77H66.6l-7.35 10.24c-1.03 1.51-2 2.99-2.9 4.4-.64 1-1.28 1.98-1.94 2.96-.67-.99-1.34-1.96-1.99-2.96-.93-1.42-1.91-2.89-2.94-4.4l-7.32-10.24h-3.9l14.14 19.66-14.85 20.64Zm9.59-105.67h.01c-.07-4.47 2.41-8.6 6.4-10.62 2.08-1.07 4.39-1.61 6.73-1.57 3.64 0 6.63 1.11 8.93 3.35s3.46 5.18 3.46 8.84v27.03h1.66v-27.03c0-2.77-.6-5.18-1.8-7.24-1.21-2.07-2.85-3.69-4.96-4.85s-4.53-1.75-7.3-1.75c-3.05 0-5.86.76-8.42 2.3-2.2 1.33-3.75 3.22-4.71 5.66v-20.8h-1.66v53.71h1.66zm58.12-212.21c0-6.19 1.13-11.43 3.4-15.72 2.13-4.15 5.45-7.57 9.53-9.83a28.05 28.05 0 0 1 13.92-3.4c7.84 0 13.96 2.44 18.37 7.3s6.62 11.59 6.62 20.16v81.51h37.11V96.35c0-10.8-1.95-20.1-5.87-27.89s-9.44-13.77-16.57-17.93-15.49-6.24-25.05-6.24c-11.71 0-21.26 3.15-28.63 9.46-6.08 5.19-10.87 12.18-14.4 20.92l-.5-28.65H68.17v138.29h37.11v-80.03h-.01ZM37.24 883.6H12.73v-11.68h22.6v-10.16h-22.6v-11.11h24.55v-10.38H.01v53.71H0h37.24zm80.46-69.96c2.49 1.59 5.39 2.43 8.34 2.39h.01c2.21 0 4.07-.38 5.59-1.13 1.44-.6 2.71-1.54 3.7-2.75.94-1.09 1.66-2.17 2.14-3.26h.54v6.45h10.64v-53.71h-10.81v20.18h-.36c-.54-1.19-1.24-2.29-2.09-3.28a11.3 11.3 0 0 0-3.68-2.84c-1.78-.83-3.73-1.22-5.7-1.15-2.99 0-5.71.76-8.19 2.3-2.6 1.69-4.67 4.1-5.95 6.93-1.49 3.08-2.24 7.04-2.24 11.5s.72 8.25 2.16 11.34c1.25 2.86 3.29 5.31 5.89 7.04Zm4.03-24.65a9.35 9.35 0 0 1 2.9-4.26c1.28-1.03 2.93-1.55 4.77-1.55s3.42.49 4.72 1.49 2.28 2.39 2.94 4.18.99 3.93.99 6.37-.34 4.55-1.01 6.37-1.66 3.23-2.95 4.24-2.86 1.51-4.69 1.51c-1.71.05-3.39-.5-4.74-1.56-1.28-1.03-2.26-2.47-2.92-4.29s-.99-3.92-.99-6.27.33-4.43.98-6.23m-13.77 95.66c-.78.1-1.39.14-1.82.14-1.13 0-1.94-.26-2.45-.78s-.76-1.31-.76-2.36v-18.63h7.24v-9.34h-7.24v-9.59H90.35v9.59h-5.33v9.34h5.33v19.74c0 3.85 1.1 6.77 3.31 8.78s5.45 3.01 9.74 3.01c1.19 0 2.44-.08 3.75-.22s2.69-.42 4.1-.82l-1.62-9.15c-.34.09-.9.19-1.68.29ZM49.5 918.91h14.49v53.71H49.5zm33.28-24.92-12.62-20.61 12.08-19.69H69.11l-3.25 5.76c-1.15 2.07-2.2 4.2-3.14 6.38l-.63 1.38-.6-1.4c-.92-2.16-1.93-4.29-3.03-6.37l-3.1-5.76H42.02l11.75 19.59-12.51 20.71h13.08l3.82-6.99c1.11-2.09 2.13-4.24 3.05-6.42l.59-1.37.61 1.37c.96 2.18 2.02 4.33 3.17 6.42l3.9 6.99h13.27Zm19.77 41.63c-1.8-1.27-3.82-2.23-5.95-2.81-2.53-.7-5.15-1.04-7.77-1.01-3.78 0-6.98.55-9.6 1.66s-4.69 2.58-6.18 4.43-2.43 3.91-2.81 6.17l13.05 1.3c.16-.82.49-1.49.99-2.02.51-.54 1.15-.95 1.85-1.19.75-.26 1.56-.4 2.49-.4s1.75.12 2.41.37 1.2.61 1.57 1.1.56 1.08.56 1.77v.14c0 .77-.31 1.38-.92 1.85s-1.59.82-2.95 1.06c-1.8.3-3.61.5-5.42.61-2.09.15-4.03.49-5.82 1.03-1.69.49-3.29 1.27-4.71 2.3a10.1 10.1 0 0 0-3.14 3.84c-.79 1.78-1.17 3.72-1.12 5.66 0 2.67.55 4.86 1.66 6.6a10 10 0 0 0 4.63 3.87c1.98.86 4.26 1.28 6.83 1.28q2.64 0 4.8-.66c2.16-.66 2.73-1.12 3.87-2.04 1.22-1.01 2.22-2.25 2.94-3.65h.29v5.7h13.55v-27.61c0-1.84-.44-3.57-1.32-5.17s-2.14-3.01-3.79-4.2Zm-9.24 22.73c0 1.23-.31 2.26-.92 3.12s-1.4 1.51-2.38 1.96-2.01.68-3.12.68v-.02c-.8 0-1.53-.13-2.15-.4s-1.12-.66-1.48-1.17-.54-1.14-.54-1.89c0-.69.16-1.33.5-1.89s.86-1.04 1.57-1.44c.86-.45 1.79-.73 2.75-.85 1.06-.16 2.11-.37 3.15-.6.89-.21 1.76-.49 2.61-.82v3.31Zm3.39-304.46c1.5-1.54 2.62-3.42 3.26-5.48l-7.46-1.77a8.28 8.28 0 0 1-5.11 5.06c-1.21.43-2.55.64-4.04.64-2.08.05-4.13-.46-5.95-1.46a9.95 9.95 0 0 1-3.98-4.32c-.9-1.95-1.38-4.07-1.39-6.22h28.54v-2.81c0-3.65-.49-6.76-1.49-9.32s-1.51-3.83-4.06-6.26a16.2 16.2 0 0 0-5.76-3.56c-2.14-.76-4.4-1.14-6.67-1.13-3.74 0-7.01.88-9.8 2.65s-4.95 4.23-6.48 7.38-2.28 6.74-2.28 10.92.78 7.81 2.33 10.92 3.76 5.51 6.65 7.21 6.31 2.56 10.27 2.56h.02c2.88.01 5.45-.43 7.73-1.31s4.17-2.12 5.7-3.7Zm-23.47-24.17c.83-1.77 2.04-3.18 3.62-4.27s3.47-1.62 5.73-1.62 4.14.53 5.64 1.58c1.49 1.05 2.63 2.52 3.4 4.41.56 1.37.91 2.91 1.06 4.6H72.04c.1-1.63.51-3.22 1.19-4.7M55.17 813.53c2.96 1.75 6.45 2.61 10.49 2.61s7.56-.87 10.5-2.61a17.6 17.6 0 0 0 6.82-7.28c1.59-3.11 2.39-6.68 2.39-10.87s-.79-7.83-2.39-10.94-3.87-5.53-6.82-7.28-6.46-2.61-10.5-2.61-7.54.87-10.49 2.61c-2.93 1.72-5.3 4.24-6.83 7.28-1.59 3.12-2.39 6.82-2.39 10.94s.79 7.76 2.39 10.87c1.53 3.03 3.9 5.56 6.83 7.28M57.96 789c.54-1.69 1.55-3.2 2.9-4.36 1.28-1.05 2.89-1.58 4.81-1.58s3.53.53 4.83 1.58 2.27 2.5 2.92 4.36c.65 1.85.98 4.02.98 6.34s-.33 4.42-.98 6.29-1.62 3.34-2.92 4.4-2.91 1.6-4.83 1.6-3.52-.54-4.81-1.6a9.8 9.8 0 0 1-2.9-4.4c-.65-1.87-.98-3.91-.98-6.29s.33-4.49.98-6.34M41.03 446.18c-.95 0-1.79.33-2.5.99-.71.67-1.06 1.5-1.06 2.44s.35 1.75 1.06 2.41c.7.67 1.54 1.01 2.5 1.01s1.82-.34 2.52-1.01c.69-.67 1.04-1.45 1.04-2.41s-.35-1.78-1.04-2.44c-.7-.66-1.09-.99-2.52-.99m75.37 447.8-.01-.01h.01ZM38.55 460.49h4.91v40.3h-4.91zm105.44 119.45h-.01zm-60.02 136.3c0-3.53-.48-6.59-1.46-9.14s-2.32-4.66-4.04-6.32-3.69-2.89-5.92-3.68c-2.25-.79-4.62-1.2-7.01-1.19-3.85 0-7.2.88-10.04 2.65a17.7 17.7 0 0 0-6.6 7.33 24.1 24.1 0 0 0-2.33 10.92c0 4.2.79 7.85 2.36 10.95s3.82 5.51 6.74 7.21 6.41 2.56 10.47 2.56v.03c3.02 0 5.7-.45 8.03-1.35 2.21-.81 4.21-2.1 5.86-3.79 1.55-1.6 2.68-3.54 3.31-5.67l-8.62-1.77a7.46 7.46 0 0 1-4.73 4.63c-1.12.4-2.36.59-3.73.59-1.9.04-3.78-.42-5.44-1.34a9 9 0 0 1-3.64-3.96c-.82-1.8-1.25-3.74-1.26-5.72h28.04v-2.95Zm-23.64-11.5c1.44-.98 3.19-1.46 5.26-1.46s3.79.47 5.17 1.44c1.41 1 2.5 2.4 3.12 4.02.49 1.22.8 2.59.94 4.08H55.95c.12-1.5.47-2.9 1.08-4.18a9.4 9.4 0 0 1 3.3-3.9m116.11-47.9c2.21 1.19 4.7 1.79 7.21 1.73h.02c3.07 0 5.74-.81 8-2.45q2.73-1.98 4.41-5.94l.02 7.88h7.57v-40.3h-7.94v23.86c0 2.11-.42 3.92-1.23 5.42a8.4 8.4 0 0 1-3.34 3.42c-1.47.8-3.13 1.2-4.81 1.17-2.62 0-4.7-.81-6.22-2.45s-2.29-3.91-2.29-6.82v-24.62h-7.94v25.59c0 3.31.57 6.1 1.71 8.36 1.04 2.16 2.72 3.94 4.81 5.11Zm-3.87-131.12h6.49v53.71h-6.49zm19.5-106.7H165.9v-50.57h-3.42v53.71h29.59zm-39.36 198.75h7.94v40.3h-7.94zm3.59-45.88v7.54h6.27v-40.3h-6.52v24.15c0 2.28-.44 4.24-1.33 5.86s-2.1 2.85-3.62 3.7-3.25 1.26-5.17 1.26c-2.82 0-5.04-.88-6.67-2.63-1.64-1.75-2.45-4.18-2.45-7.28v-25.06h-6.49v25.59c0 3.39.57 6.21 1.71 8.47 1.04 2.14 2.71 3.91 4.8 5.06a14.75 14.75 0 0 0 7.16 1.68c2.96 0 5.59-.77 7.87-2.3 1.81-1.21 3.28-3.13 4.45-5.74Zm.41 39.71a4.97 4.97 0 0 0 3.53-1.36c.99-.91 1.48-2 1.48-3.31s-.49-2.44-1.48-3.35-2.16-1.37-3.53-1.37-2.54.46-3.51 1.37-1.46 2.07-1.46 3.35.49 2.37 1.46 3.29c.94.91 2.2 1.41 3.51 1.38M597.6 854.91c-2.1-1.16-4.47-1.76-6.87-1.73-2.02 0-3.82.36-5.39 1.09s-2.92 1.65-4.05 2.78-2.05 2.32-2.74 3.57h-.33l1.26-6.93h-12.44l-9.2 55.37h12.6l3.6-21.98h.47c.33 1.22.91 2.4 1.75 3.55.9 1.2 2.07 2.18 3.42 2.83 1.45.75 3.26 1.12 5.42 1.12 3.34 0 6.22-.79 8.65-2.38s4.42-3.67 5.98-6.22 2.72-5.31 3.48-8.29 1.13-5.85 1.13-8.64c0-3.59-.6-6.55-1.83-8.89-1.08-2.2-2.79-4.03-4.92-5.25Zm-6.71 19.6c-.38 1.69-1 3.33-1.82 4.88s-1.25 2.34-3.2 3.85a7.52 7.52 0 0 1-4.77 1.51v.02c-1.8 0-3.18-.63-4.13-1.88-.95-1.24-1.43-2.95-1.43-5.11.02-3.46.94-6.85 2.66-9.84.88-1.47 1.98-2.66 3.28-3.56s2.82-1.35 4.52-1.35c1.88 0 3.26.6 4.15 1.8.88 1.2 1.33 2.86 1.33 5 0 1.42-.2 2.97-.58 4.66Zm-27.87-20.83h-37.56l-1.58 9.66h12.47l-5.05 30.64h12.54l5.08-30.64h12.47l1.62-9.66Zm99.38 65.22h-46.65l-1.94 11.75h16.04l-6.96 41.96h14.56l6.96-41.96h16.05zm14.92 13.42c-3.56 0-6.73.58-9.52 1.75a16.2 16.2 0 0 0-10.23 12.6c-.68 4.14.4 7.42 3.2 9.84.71.61 1.48 1.13 2.3 1.56l-11.4 14.55h15.42l9.55-12.47h3.34l-2.05 12.47h13.48l6.67-40.3h-20.77Zm-5.51 14.56c.14-1.16.79-2.2 1.78-2.83 1.25-.68 2.67-1 4.09-.92h5.11l-1.23 7.43h-4.88c-1.83 0-3.14-.31-3.95-.92s-1.12-1.53-.92-2.75ZM45.06 548.69c-1.49 3.15-2.24 6.78-2.24 10.92s0 6.21 2.28 10.85c1.43 2.99 3.7 5.51 6.52 7.24 3.05 1.79 6.54 2.68 10.08 2.59h.01c2.77 0 5.25-.43 7.44-1.3 2.2-.86 4.04-2.06 5.53-3.6 1.47-1.5 2.56-3.33 3.17-5.33l-6.27-1.73a8.86 8.86 0 0 1-5.51 5.52c-1.3.45-2.73.68-4.32.68-2.46 0-4.61-.54-6.48-1.6-1.89-1.1-3.41-2.74-4.35-4.72a16.1 16.1 0 0 1-1.5-6.73H78.5v-2.7c0-3.72-.5-6.86-1.51-9.44s-2.37-4.65-4.06-6.22c-1.7-1.57-3.59-2.71-5.66-3.42s-4.18-1.06-6.32-1.06c-3.65 0-6.85.89-9.57 2.67a17.57 17.57 0 0 0-6.32 7.39Zm9.66-2.5c1.72-1.19 2.59-1.78 6.23-1.78 2.43 0 4.46.58 6.09 1.75s2.86 2.78 3.7 4.83c.6 1.51.99 3.19 1.15 5.03H49.43c.12-1.82.55-3.55 1.32-5.17.88-1.88 2.25-3.49 3.96-4.65Zm560.33 190.52 6.67-40.3h-30.03l-3.75 18.38c-.56 2.77-1.11 5.05-1.68 6.88s-1.17 3.28-1.82 4.35c-.51.94-1.27 1.72-2.18 2.27-.86.46-1.82.69-2.79.67h-1.33l-1.26 7.75h3.1c2.89 0 5.39-.68 7.52-2.04s3.95-3.5 5.48-6.42 2.78-6.75 3.76-11.51l2.63-12.61h11.68l-5.41 32.59h9.42Zm152.02 195.61h-16.36l-10.95 14.85h-.65l2.45-14.85h-14.49l-2.45 14.85h-.65l-6.06-14.85h-16.36l9.48 19.03-16.14 21.27h16.78l10.6-14.71h.58l-2.45 14.71h14.49l2.45-14.71h.58l5.7 14.71h16.79l-9.09-21.27zm-145.94-37.75c3.56.05 7.01-1.25 9.65-3.64 1.12-1 2.09-2.17 2.86-3.46h.4l-1.09 6.52h12.44l6.67-40.3h-12.51l-1.15 6.93h-.29c-.3-1.23-.83-2.41-1.62-3.56s-1.89-2.06-3.28-2.79-3.16-1.09-5.3-1.09c-2.81 0-5.58.74-8.28 2.22-2.71 1.48-5.06 3.74-7.07 6.79s-3.41 6.95-4.2 11.68c-.75 4.54-.65 8.35.31 11.43s2.52 5.39 4.71 6.94c2.18 1.55 4.77 2.33 7.75 2.33h.01Zm.16-20.7c.36-2.2.97-4.09 1.82-5.72s1.91-2.89 3.17-3.79 2.73-1.35 4.35-1.35 2.91.44 3.9 1.32 1.64 2.13 1.96 3.75.3 3.55-.09 5.78c-.34 2.2-.93 4.09-1.8 5.72-.87 1.61-1.94 2.89-3.23 3.8s-2.73 1.37-4.35 1.37-2.9-.45-3.87-1.35-1.62-2.17-1.93-3.82-.29-3.56.08-5.72h-.01ZM116.4 853.68v40.29h12.57v-21.98c0-1.6.35-3.01 1.04-4.21a7.35 7.35 0 0 1 2.89-2.83c1.27-.7 2.7-1.06 4.15-1.03.77 0 1.64.05 2.61.16s1.76.26 2.36.48v-10.95a15.4 15.4 0 0 0-3.57-.43c-2.21 0-4.15.65-5.82 1.93s-2.86 3.26-3.59 5.93h-.43v-7.35h-12.22Zm836.56 78.64-17.01 18.89h-.18l3.14-18.89h-14.49l-6.67 40.3h11.71l17.37-19.17h.18l-3.17 19.17h14.49l6.67-40.3zm-164.95 30.02c-1.21.61-2.62.93-4.26.93q-2.235 0-3.48-.78c-1.245-.78-1.4-1.23-1.73-2.14-.33-1-.5-2.04-.48-3.1 0-.32 0-.66.02-1.03 1.84-.07 3.63-.13 5.31-.23 4.48-.26 8.33-.81 11.54-1.62s5.66-2.04 7.39-3.68c1.72-1.62 2.58-3.91 2.58-6.52s-.75-4.85-2.25-6.68-3.51-3.24-6.04-4.21-5.31-1.46-8.36-1.46c-3.72 0-7.08.68-10.05 2.05-2.9 1.31-5.5 3.2-7.63 5.56a26.14 26.14 0 0 0-6.51 17.46c0 3.46.75 6.42 2.25 8.9s3.64 4.38 6.43 5.7c3.1 1.39 6.48 2.07 9.88 1.99h.02c5.36 0 9.83-1.2 13.44-3.59a17 17 0 0 0 7.18-9.32l-12.86-.93a4.54 4.54 0 0 1-2.38 2.7Zm-6.1-18.65c1.17-1.14 2.79-1.71 4.83-1.71 1.31-.08 2.62.22 3.76.87.88.57 1.32 1.39 1.32 2.45.01.65-.29 1.26-.81 1.64-.54.43-1.57.75-3.1.98s-3.75.37-6.67.45l-2.05.04.14-.47c.49-1.6 1.38-3.06 2.58-4.24Zm113.71 28.93h14.49l6.67-40.3h-14.49zm-1.09-22.38c-1.26-2.29-3.26-4.1-5.66-5.14-2.6-1.22-5.84-1.82-9.71-1.82h-6.28l1.81-10.96H860.2l-6.67 40.3h20.77c3.86 0 7.3-.59 10.31-1.77s5.45-2.85 7.35-5.03 3.08-4.74 3.57-7.69c.5-3.05.18-5.69-.99-7.89Zm-13 7.81a4 4 0 0 1-1.69 2.78c-.94.65-2.2.98-3.75.98h-6.27l1.27-7.73h6.26c1.56 0 2.7.35 3.42 1.03.72.69.98 1.67.76 2.94m16.73-64.07h12.58l6.67-40.3h-12.58zm-699.27 38.34H182.7l-9.74 13.55h-.52V918.9h-14.49v53.71h14.49v-11.44l2.17-2.77 8.22 14.2h16.51l-14.05-22.63 13.69-17.67Zm27.33-64.52a12.6 12.6 0 0 0-5.97-1.71v-.58c1.94-.41 3.67-1.14 5.17-2.18 3.09-2.13 4.9-5.67 4.82-9.43 0-2.72-.68-5.09-2.04-7.12a13.36 13.36 0 0 0-6.11-4.77c-2.71-1.15-6.07-1.73-10.05-1.73h-22.28v53.71h23.95c4 .01 7.36-.64 10.13-1.93 2.57-1.14 4.77-2.99 6.32-5.33 1.47-2.3 2.23-4.99 2.18-7.72 0-2.59-.56-4.84-1.68-6.74s-2.6-3.39-4.43-4.46Zm-23.75-17.36h7.61c2.18 0 3.93.53 5.22 1.58s1.94 2.49 1.94 4.29c0 1.3 0 1.94-.95 3.29-.67.92-1.58 1.64-2.63 2.07-1.2.5-2.5.75-3.8.72h-7.39v-11.96Zm14.55 31.63c-1.35 1.09-3.46 1.64-6.32 1.64h-8.22v-13.04h8.47c1.68 0 3.13.29 4.35.85 1.14.51 2.11 1.34 2.79 2.39.66 1.03.98 2.25.98 3.64.08 1.75-.68 3.43-2.04 4.52Zm50.5-26.28c-3.03-1.75-6.64-2.61-10.85-2.61s-7.83.87-10.85 2.61c-2.98 1.7-5.4 4.23-6.97 7.28-1.62 3.12-2.44 4.72-2.44 10.91 0 4.13.81 7.75 2.44 10.87 1.61 3.11 3.94 5.53 6.97 7.28s6.65 2.61 10.85 2.61 7.83-.87 10.85-2.61c2.98-1.69 5.4-4.22 6.96-7.28 1.61-3.11 2.41-6.71 2.41-10.87s-.8-7.79-2.41-10.91a17.63 17.63 0 0 0-6.96-7.28m-4.28 24a8.5 8.5 0 0 1-2.5 3.93c-1.11.93-2.46 1.4-4.07 1.4s-2.96-.47-4.07-1.4a8.5 8.5 0 0 1-2.5-3.93c-.56-1.68-.85-3.63-.85-5.87s.29-4.19.85-5.86 1.39-2.96 2.5-3.87 2.46-1.37 4.07-1.37 2.97.46 4.07 1.37 1.94 2.21 2.5 3.87.85 3.63.85 5.86-.29 4.19-.85 5.87M283 840.28h12.58v53.71H283zM130.43 943.73c.95-.73 2.12-1.11 3.31-1.09.74 0 1.46.13 2.14.42.65.28 1.22.71 1.68 1.24.48.56.88 1.24 1.21 2.04.32.81.57 1.75.74 2.8l13.3-1.99c-.2-2.21-.82-4.35-1.83-6.32-.97-1.87-2.33-3.52-3.98-4.83a18.2 18.2 0 0 0-5.89-3.08 24.9 24.9 0 0 0-7.57-1.09c-4.37 0-8.12.87-11.23 2.61-3.11 1.73-5.49 4.17-7.13 7.28s-2.47 6.74-2.47 10.87.82 7.76 2.47 10.87 4.02 5.53 7.13 7.28 6.85 2.61 11.23 2.61v.02c2.8 0 5.32-.36 7.59-1.09s4.24-1.76 5.89-3.12 2.97-3 3.96-4.91c1.01-2.03 1.63-4.22 1.83-6.48l-13.3-1.94c-.14 1.09-.38 2.04-.7 2.89-.33.83-.74 1.55-1.23 2.11a4.85 4.85 0 0 1-3.83 1.71 5.04 5.04 0 0 1-3.31-1.13 7.16 7.16 0 0 1-2.18-3.37c-.52-1.48-.78-3.29-.78-5.51s.26-4.05.78-5.52a6.9 6.9 0 0 1 2.18-3.28Zm36.43-51.95c1.14-.98 2.07-2.17 2.75-3.5h.32v5.66h11.82v-27.36c0-2.16-.46-4.08-1.37-5.75s-2.18-3.07-3.82-4.21-3.55-2-5.72-2.59c-2.17-.58-4.51-.88-7.01-.88-3.37 0-6.3.48-8.81 1.46-2.33.85-4.42 2.24-6.09 4.07a13.6 13.6 0 0 0-3.12 6.07l11.39 1.48a5.36 5.36 0 0 1 3.45-3.63c.9-.34 1.93-.5 3.08-.5s1.72 0 2.95.5c.82.34 1.45.83 1.88 1.48s.65 1.45.65 2.38v.14c0 .81-.33 1.45-.98 1.91s-1.67.8-3.06 1.03c-1.4.23-3.24.44-5.52.64-2.04.16-3.96.5-5.76 1.01-1.8.5-3.4 1.23-4.8 2.2a10 10 0 0 0-3.26 3.75c-.83 1.77-1.23 3.71-1.17 5.66 0 2.65.56 4.85 1.69 6.62s2.77 3.15 4.71 3.96q3.015 1.32 6.87 1.32v-.04c1.89 0 3.56-.24 5.04-.74 1.48-.48 2.78-1.21 3.9-2.14Zm-5.12-5.43c-.91.02-1.82-.15-2.67-.48-.77-.32-1.38-.79-1.83-1.4s-.68-1.34-.68-2.25.22-1.69.68-2.34 1.12-1.17 1.99-1.58 1.91-.7 3.14-.87l1.88-.31 1.94-.36c.65-.13 1.24-.29 1.78-.45s.99-.34 1.35-.54v3.85c0 1.33-.34 2.49-1.01 3.5s-1.58 1.8-2.72 2.38c-1.19.59-2.51.89-3.84.87v-.02Zm257.09-717.31a47.73 47.73 0 0 0 11.62-19.98l-33.65-6.31a23.74 23.74 0 0 1-5.75 8.97 24.5 24.5 0 0 1-9.09 5.51 35.8 35.8 0 0 1-11.88 1.85c-6.43 0-12.06-1.36-16.88-4.08s-8.58-6.8-11.26-12.25c-2.43-4.93-3.74-10.91-3.97-17.93h94.59v-10.39h-.01c0-11.89-1.67-22.19-5-30.94-3.34-8.74-7.98-16.01-13.92-21.83s-12.82-10.16-20.66-13.05-16.29-4.32-25.35-4.32c-13.44 0-25.16 3.01-35.13 9.03a60.85 60.85 0 0 0-23.14 25.11c-5.44 10.72-8.17 23.21-8.17 37.48s2.74 27.21 8.23 37.85 13.34 18.84 23.56 24.62 22.39 8.66 36.49 8.66c10.8 0 20.35-1.57 28.63-4.7s15.19-7.56 20.72-13.3Zm-77.46-80.3c2.3-5.07 5.71-9.09 10.21-12.06h.01c4.49-2.96 9.95-4.45 16.39-4.45s11.69 1.46 16.01 4.39c4.42 3.05 7.83 7.36 9.77 12.37 1.59 4.02 2.6 8.25 2.97 12.56h-58.62c.35-4.42 1.45-8.76 3.26-12.81m84.67 754.03c-3.47-2.14-7.59-3.2-12.38-3.2q-4.755 0-9.09 1.32c-4.335 1.32-5.51 2.16-7.88 3.84a25.1 25.1 0 0 0-6.11 6.18 27.4 27.4 0 0 0-3.9 8.34h12.87c.44-1.37 1.1-2.67 1.93-3.84a11.18 11.18 0 0 1 6.37-4.27c1.4-.35 2.85-.52 4.29-.5 2.65 0 4.75.63 6.34 1.88s2.63 3.11 3.14 5.55c.22 1.09.32 2.32.33 3.63h-17.6l-1.69 10.16h17.71c-.47 1.59-1.12 3.12-1.92 4.57-1.21 2.25-3 4.13-5.19 5.44-2.06 1.2-4.39 1.79-6.96 1.79-1.55 0-2.9-.16-4.06-.5s-2.15-.87-2.94-1.59c-.8-.74-1.42-1.66-1.8-2.69-.43-1.23-.64-2.53-.61-3.84h-12.86c-.14 2.38.15 4.74.9 7.07s1.96 4.45 3.64 6.34c1.68 1.9 3.85 3.41 6.51 4.55s5.81 1.71 9.46 1.71h-.01c4.85 0 9.37-1.06 13.55-3.22s7.72-5.28 10.6-9.37 4.82-9.08 5.81-14.94c.99-5.92.7-10.92-.88-15.04s-4.1-7.23-7.57-9.37m57.12 10.91H468.6l-12.83 16h-2.67l2.63-16h-12.58l-6.67 40.3h12.59l2.45-14.63h3.57l6.77 14.63h14.74l-10.45-20.12zM305.79 733.43c.82-.95 1.52-1.99 2.11-3.11h.58v6.38h9.2v-53.71h-9.37v20.07h-.4c-.56-1.11-1.24-2.14-2.04-3.1a11.5 11.5 0 0 0-3.64-2.86c-1.84-.87-3.86-1.28-5.89-1.21-3.08 0-5.87.8-8.39 2.38-2.51 1.59-4.5 3.93-5.98 7.01s-2.22 6.91-2.22 11.34 0 6.64 2.16 11.28c1.44 3.1 3.41 5.45 5.93 7.08s5.36 2.44 8.53 2.44h.01c2.33.01 4.25-.38 5.76-1.16s2.73-1.72 3.65-2.83M293.64 728a10.43 10.43 0 0 1-3.23-4.69c-.72-1.98-1.09-2.97-1.09-6.72 0-2.49.36-4.72 1.09-6.68.71-1.95 1.79-3.49 3.2-4.61s3.26-1.68 5.3-1.68 3.79.54 5.21 1.62a9.8 9.8 0 0 1 3.25 4.52c.74 1.93 1.1 4.21 1.1 6.83s-.37 4.92-1.12 6.88c-.63 1.81-1.76 3.4-3.25 4.6a8.27 8.27 0 0 1-5.19 1.65c-2.09 0-3.85-.58-5.28-1.72Zm35.93 132.6h-.29c-.54-1.29-1.29-2.48-2.22-3.53-.98-1.13-2.22-2.06-3.73-2.8s-3.34-1.1-5.48-1.1c-2.82 0-5.44.74-7.88 2.22-2.45 1.48-4.41 3.75-5.92 6.82s-2.25 7.09-2.25 11.66.72 8.39 2.16 11.45c1.44 3.07 3.39 5.38 5.84 6.93 2.43 1.54 5.26 2.35 8.14 2.33h.02c2.06 0 3.84-.34 5.31-1.02 1.4-.63 2.66-1.53 3.71-2.65.99-1.09 1.76-2.23 2.28-3.42h.43v6.52h12.4V840.3h-12.54v20.33Zm-.62 19.01c-.5 1.48-1.41 2.8-2.61 3.8a6.38 6.38 0 0 1-4.09 1.35c-1.61.01-2.97-.44-4.09-1.34s-1.96-2.17-2.55-3.82-.87-3.52-.87-5.72.29-4.09.87-5.72 1.43-2.89 2.55-3.79 2.5-1.35 4.09-1.35 2.95.44 4.09 1.32c1.21.98 2.12 2.28 2.61 3.75.6 1.62.9 3.6.9 5.78s-.3 4.09-.9 5.73Zm166.57-11.53c.83-1.57 1.93-2.84 3.26-3.82s2.92-1.46 4.77-1.46c.91 0 1.37-.02 2.33.43.62.28 1.15.73 1.55 1.28.4.57.68 1.26.87 2.07s.29 1.76.31 2.81l11.93-1.88c.04-2.18-.32-4.16-1.1-5.93s-1.91-3.27-3.39-4.52-3.26-2.22-5.36-2.89c-2.09-.67-4.43-1.01-7.02-1.01-3.86 0-7.25.68-10.16 2.05s-5.33 3.23-7.27 5.55-3.38 4.95-4.36 7.86c-.97 2.89-1.47 5.93-1.46 8.98 0 3.44.7 6.44 2.11 9.01 1.38 2.55 3.5 4.63 6.07 5.98 2.95 1.49 6.22 2.22 9.52 2.13 2.6 0 4.99-.34 7.18-1.01s4.14-1.64 5.87-2.9 3.24-2.81 4.46-4.58c1.24-1.79 2.2-3.81 2.86-6.07l-11.28-1.99c-.65 2-1.85 3.77-3.48 5.1-.76.58-1.57 1.03-2.45 1.35s-1.79.47-2.72.47c-1.27 0-2.32-.29-3.12-.83s-1.39-1.36-1.78-2.41c-.41-1.21-.61-2.48-.58-3.75 0-1.58.2-3.26.59-5.03s1.01-3.45 1.85-5.02ZM34.34 784.82c1.45-.98 2.63-2.31 3.45-3.85.88-1.71 1.31-3.61 1.26-5.53 0-2.69-.66-5.07-1.96-7.13-1.45-2.18-3.5-3.88-5.92-4.88-2.63-1.2-5.92-1.79-9.86-1.79H.01v53.69h22.68c4.06 0 7.45-.65 10.19-1.93 2.72-1.28 4.79-3.04 6.18-5.28s2.09-4.77 2.09-7.61c0-2.63-.56-4.92-1.68-6.83a12.27 12.27 0 0 0-10.08-6.18v-.54a14.3 14.3 0 0 0 4.96-2.14Zm-14.43-14.19c2.57 0 4.54.6 5.93 1.83a6.03 6.03 0 0 1 2.07 4.75 6.45 6.45 0 0 1-4.01 6.15c-1.33.58-2.77.87-4.21.85h-8.68v-13.58zm9.91 28.85c0 2.04-.75 3.69-2.24 4.94s-3.85 1.88-7.07 1.88h-9.5v-14.56h9.8q2.775 0 4.8.99c1.35.67 2.38 1.58 3.12 2.74s1.1 2.5 1.1 4.02ZM263.12 683h9.37v53.71h-9.37zM226.8 147.08q0 18.93 11.01 29.07c7.34 6.76 17.93 10.14 31.78 10.14 3.71 0 7.61-.25 11.69-.75 4.17-.52 8.29-1.38 12.3-2.6l-5.32-27.83c-1.32.33-3.25.68-5.8 1.05-2.56.37-4.53.56-5.94.56-4.53 0-7.77-1.05-9.71-3.15-1.94-2.11-2.91-5.33-2.91-9.71V74.34h25.85V46.01H263.9V13.12h-37.11v32.9h-19.05v28.33h19.05v72.73Zm65.71 234.78v2.95h5.98v28.92c0 2.95.85 5.26 2.52 6.9s4.01 2.25 6.96 1.82c.85-.04 1.69-.2 2.49-.47l-.72-2.89c-.3.04-.61.1-.98.18l-.93.18c-1.94.34-3.45-.01-4.5-1.04-1.06-1.03-1.59-2.66-1.59-4.86v-28.73h8.36v-2.95h-8.36v-9.59h-3.25v9.59h-5.98Zm-5.27 40.31V395.6c0-2.99-.59-5.53-1.77-7.66a12.2 12.2 0 0 0-4.91-4.91 14.7 14.7 0 0 0-7.24-1.71c-3.05 0-5.82.77-8.28 2.3a11.66 11.66 0 0 0-4.52 5.48v-20.66h-3.25v53.71h3.25v-26.04c0-2.36.52-4.42 1.58-6.17s1.58-2.62 4.35-4.1c1.84-.99 3.92-1.48 6.22-1.48 3.37 0 6.09 1.04 8.17 3.12 2.07 2.07 3.12 4.85 3.12 8.31v26.38zm204.79-316.53c0-5.77 1.26-10.83 3.78-15.16a26.47 26.47 0 0 1 10.58-10.14c4.69-2.47 9.92-3.72 15.21-3.64 2.81 0 5.77.16 8.91.49s5.53.79 7.18 1.36V45.4a38 38 0 0 0-5.82-.93 66 66 0 0 0-6.18-.31c-7.4-.11-14.63 2.19-20.6 6.55-5.97 4.37-10.24 10.84-12.8 19.42h-1.48V46.01h-35.87V184.3h-.02 37.11zM478.8 416.89c-3.29 1.85-6.71 2.79-10.24 2.79-2.43 0-4.57-.4-6.4-1.19-1.76-.74-3.34-1.85-4.63-3.25a14.3 14.3 0 0 1-2.84-4.61c-.66-1.71-1.01-3.48-1.09-5.3h-3.39c.02 2.16.41 4.28 1.15 6.38.73 2.09 1.87 4.01 3.35 5.66q2.235 2.52 5.61 4.02c3.375 1.5 4.88 1.49 7.91 1.49h.02c4.49 0 8.64-1.13 12.44-3.41s7.01-5.49 9.63-9.63c2.72-4.44 4.51-9.38 5.26-14.53.93-5.55.78-10.38-.47-14.51s-3.39-7.33-6.43-9.63c-3.04-2.29-6.82-3.45-11.3-3.45-3.01 0-5.8.49-8.36 1.48s-4.88 2.32-6.94 3.98a27.14 27.14 0 0 0-8.53 12.09h3.42c.7-1.91 1.68-3.7 2.89-5.33 1.28-1.73 2.79-3.28 4.49-4.6 1.76-1.37 3.72-2.46 5.82-3.23 2.19-.8 4.51-1.2 6.85-1.19 3.53 0 6.6.94 9.21 2.83s4.49 4.63 5.64 8.25c1 3.15 1.23 6.93.69 11.33h-26.07l-.47 3.14h26.02c-.74 4.33-2.33 8.47-4.69 12.17-2.15 3.38-5.08 6.2-8.54 8.22ZM239.16 432.1c-2.26 2-5.32 3-9.2 3-2.14 0-4.01-.29-5.62-.85-2.94-.93-5.35-3.06-6.63-5.86l-2.81 1.59a12.5 12.5 0 0 0 3.2 4.32 14.3 14.3 0 0 0 5.1 2.81c2.01.65 4.25.98 6.75.98 3.14 0 5.89-.55 8.28-1.65s4.24-2.75 5.55-4.99c1.33-2.24 1.99-5.03 1.99-8.36v-41.23h-3.2v9.01h-.33a17.9 17.9 0 0 0-2.7-4.77 12.7 12.7 0 0 0-4.29-3.48 13.2 13.2 0 0 0-6.03-1.3c-3.22 0-6.04.88-8.45 2.65a17.36 17.36 0 0 0-5.64 7.32c-1.35 3.12-2.02 6.68-2.02 10.72s.68 7.55 2.04 10.55c1.2 2.8 3.16 5.2 5.66 6.94 2.48 1.65 5.41 2.51 8.39 2.45 2.2 0 4.14-.38 5.86-1.15s3.18-1.82 4.38-3.17a13.9 13.9 0 0 0 2.74-4.65h.36v9.99c0 4.1-1.13 7.16-3.39 9.15ZM241 411c-.9 2.35-2.46 4.38-4.49 5.86-2.04 1.4-4.46 2.11-6.93 2.05h.01c-2.74-.01-5.08-.71-7.05-2.15s-3.47-3.42-4.51-5.97-1.57-3.86-1.57-8.84c0-3.31.52-6.3 1.55-8.96.9-2.47 2.45-4.66 4.49-6.32 1.95-1.56 4.37-2.34 7.08-2.34s5.05.77 6.99 2.3c2.03 1.65 3.57 3.83 4.46 6.29 1.03 2.66 1.54 5.54 1.54 9.03s-.53 6.5-1.57 9.03Zm-11.76 128.13v40.3h6.5v-25.22c0-1.83.43-3.45 1.3-4.85s2.06-2.51 3.59-3.31c1.6-.82 3.37-1.23 5.17-1.21 1.3-.01 2.61.11 3.89.36v-6.53a51 51 0 0 0-3.28-.11c-2.4 0-4.57.61-6.48 1.85a9.7 9.7 0 0 0-3.98 4.92h-.43v-6.2h-6.27ZM535.9 406.51c0 3.22.6 6.05 1.79 8.51s2.85 4.37 5 5.75 4.7 2.07 7.63 2.07v-.02c2.15 0 4.12-.36 5.9-1.06s3.37-1.58 4.75-2.61 2.54-2.07 3.45-3.12 1.55-1.92 1.91-2.65l-2.89-1.33c-.24.48-.71 1.14-1.43 1.99-.7.83-1.62 1.7-2.75 2.59s-2.45 1.64-3.95 2.24-3.16.9-4.96.9c-2.37 0-4.4-.55-6.07-1.64s-2.93-2.62-3.8-4.61-1.3-4.2-1.3-6.87c0-5.4 1.65-10.68 4.71-15.14 1.53-2.16 3.37-3.91 5.53-5.21s4.59-1.96 7.28-1.96c2.8-.12 5.52.97 7.47 2.97.78.82 1.38 1.65 1.8 2.45.42.81.66 1.45.74 1.93l3.14-.93c-.23-.93-.59-1.81-1.08-2.63-.58-1.05-1.38-2.11-2.44-3.15s-2.36-1.91-3.95-2.61c-1.78-.73-3.69-1.09-5.62-1.04-3.11 0-5.93.71-8.47 2.14s-4.74 3.35-6.6 5.76-3.28 5.11-4.29 8.11-1.51 5.96-1.51 9.18ZM268.17 658.06v-27.18c0-3.05-.56-5.6-1.69-7.64a11.3 11.3 0 0 0-4.6-4.61c-2-1.05-4.22-1.58-6.48-1.55-2.1 0-4.05.4-5.89 1.19-3.2 1.38-5.7 4.02-6.89 7.3-.57-2.16-1.66-4.14-3.19-5.76-1.8-1.81-4.17-2.72-7.1-2.72-3.6-.04-7.02 1.58-9.26 4.4-.86 1.05-1.56 2.32-2.1 3.8l-.18-7.52h-7.53v40.3h7.94v-25.06c0-1.94.38-3.59 1.14-4.92.76-1.34 1.77-2.34 3.03-3.03s2.62-1.03 4.09-1.03c2.14 0 3.9.65 5.28 1.94s2.07 3.03 2.07 5.19v26.89h7.83v-25.81c0-1.61.33-3.03.98-4.27a7.1 7.1 0 0 1 2.78-2.9c1.21-.69 2.63-1.04 4.29-1.04q3.06 0 5.31 1.8c2.25 1.8 2.25 3.15 2.25 5.84v26.38h7.92Zm-38.19-219.97h-.01.02zm17.1 260.42c-2.89-1.72-6.32-2.59-10.24-2.59s-7.31.86-10.2 2.59-5.11 4.16-6.68 7.3-2.36 6.85-2.36 10.98.79 7.75 2.36 10.87c1.49 3.02 3.81 5.54 6.68 7.28 2.88 1.75 6.28 2.61 10.2 2.61s7.35-.87 10.24-2.61a17.45 17.45 0 0 0 6.68-7.28c1.57-3.11 2.36-6.68 2.36-10.87s-.79-7.84-2.36-10.98-3.8-5.56-6.68-7.3m-1.53 24.9c-.71 1.99-1.79 3.58-3.25 4.75s-3.28 1.77-5.47 1.77-4-.59-5.42-1.77c-1.48-1.26-2.59-2.9-3.2-4.75-.71-2-1.06-4.18-1.06-6.67s.35-4.73 1.06-6.72c.7-1.99 1.78-3.57 3.2-4.74s3.23-1.77 5.42-1.77 4.01.59 5.47 1.77c1.51 1.25 2.63 2.89 3.25 4.75.71 2 1.06 4.25 1.06 6.71s-.35 4.68-1.06 6.67m42.71-568.29h.02zm309.83 439.36h6.49l3.57-21.48h.61c.31.74.81 1.69 1.49 2.84s1.75 2.18 3.2 3.08 3.49 1.35 6.11 1.35c3.23 0 6.1-.74 8.64-2.2s3.8-2.21 6.43-5.87c1.78-2.5 3.14-5.28 4.02-8.23.92-2.99 1.38-6.11 1.38-9.24 0-3.34-.59-6.21-1.77-8.62a13 13 0 0 0-5.02-5.55 14.67 14.67 0 0 0-7.68-1.94c-2.55 0-4.66.42-6.34 1.23-1.69.81-3.04 1.77-4.06 2.86s-1.81 2.05-2.39 2.86h-.33l1.09-6.45h-6.27l-9.2 55.37.02-.02Zm12.72-37.47c.61-2.3 1.54-4.41 2.74-6.31s2.73-3.41 4.55-4.55 3.95-1.71 6.38-1.71c3.1 0 5.37.99 6.83 2.94s2.18 4.48 2.18 7.55c0 2.24-.32 4.5-.95 6.79s-1.58 4.41-2.84 6.34-2.82 3.49-4.65 4.66a11.66 11.66 0 0 1-6.37 1.77c-2.93 0-5.14-.95-6.6-2.86s-2.2-4.47-2.2-7.66c0-2.34.31-4.65.92-6.96ZM68.72 459.97c-3.29 0-6.19.87-8.69 2.6-2.58 1.82-4.6 4.32-5.84 7.22-1.4 3.1-2.1 6.68-2.1 10.8s.71 7.65 2.13 10.6c1.26 2.78 3.3 5.15 5.86 6.82 2.55 1.61 5.51 2.43 8.53 2.38 2.4 0 4.42-.38 6.06-1.17s2.96-1.78 3.98-3 1.8-2.45 2.33-3.7h.47v9.04c0 3.7-1.09 6.43-3.25 8.2s-5.03 2.65-8.58 2.65c-2.24 0-4.13-.31-5.66-.92-1.4-.53-2.68-1.34-3.76-2.38-.98-.97-1.75-1.98-2.33-3.01l-4.04 2.45c.82 1.61 1.94 3.04 3.31 4.21 1.42 1.22 3.17 2.18 5.25 2.9s4.48 1.06 7.22 1.06h.02c3.22.01 6.09-.53 8.62-1.59s4.51-2.71 5.95-4.92c1.44-2.22 2.16-5.03 2.16-8.44V460.5H81.6v7.75h-.5c-.61-1.34-1.38-2.61-2.29-3.76a12.2 12.2 0 0 0-3.95-3.23c-1.91-.93-4.01-1.37-6.12-1.3Zm11.35 12.19c.95 2.41 1.43 5.09 1.43 8.31s-.47 5.99-1.44 8.31c-.83 2.15-2.28 4.01-4.16 5.33a11.26 11.26 0 0 1-6.57 1.85h-.01c-2.62 0-3.94.01-6.67-1.96a12.4 12.4 0 0 1-4.18-5.47c-.95-2.34-1.44-5.08-1.44-8.08s.48-5.72 1.43-8.14c.83-2.27 2.27-4.27 4.16-5.78 1.82-1.43 4.09-2.14 6.71-2.14s4.83.69 6.63 2.07c1.87 1.48 3.3 3.45 4.13 5.7Zm550.47-130.33c2.29-1.08 4.27-2.72 5.76-4.76 1.53-2.14 2.53-4.61 2.92-7.21.44-2.23.33-4.53-.33-6.71a10.7 10.7 0 0 0-3.01-4.77 7.84 7.84 0 0 0-4.66-2.07v-.14c1.8-.44 3.41-1.25 4.83-2.44 1.45-1.23 2.65-2.73 3.53-4.41.95-1.8 1.6-3.75 1.91-5.76.48-2.84.31-5.28-.5-7.32a9.27 9.27 0 0 0-4.16-4.74q-2.925-1.68-7.44-1.68H612.7l-8.9 53.71h18.6c3.07 0 5.78-.56 8.14-1.69Zm-16.46-50.38h15.1c3.91 0 6.83 1.03 8.74 3.08s2.56 4.98 1.93 8.78c-.35 2.11-1.09 4.14-2.2 5.97a12.9 12.9 0 0 1-4.36 4.43 11.8 11.8 0 0 1-6.38 1.68h-16.8l3.96-23.95Zm12.71 25.62c2.52 0 4.66.54 6.43 1.6a9.17 9.17 0 0 1 3.82 4.43c.78 1.89.97 4.07.56 6.54-.5 3.47-2.29 6.63-5.02 8.85a15.3 15.3 0 0 1-10.02 3.37h-16.83l4.1-24.79h16.95Zm14.43 408.98c-.13-2.58-.41-5.16-.81-7.73l-3.79-21.92h-9.69l8.54 40.44-1.01 2.56a8.4 8.4 0 0 1-2.14 3.46q-1.32 1.185-3.03 1.44c-1.71.255-2.4.09-3.8-.25l-1.04-.29-3.39 7.32h-.01c.6.27 1.45.49 2.55.69 1.1.19 2.28.29 3.56.29 2.43 0 4.6-.41 6.51-1.21 1.92-.81 3.65-1.99 5.1-3.48a24 24 0 0 0 3.96-5.48l24.84-45.49h-10.2l-11.25 21.92c-1.29 2.53-2.47 5.11-3.56 7.73l-1.17 2.84-.16-2.84Zm-59.39-303.89h3.23l6.17-37.2h13.52l.5-3.11h-30.31l-.5 3.11h13.52l-6.12 37.2Zm73.18 136.23c.23-1.42.47-2.82.68-4.21l.63-4.16.59-4.16.11-.77.29 2.41c.21 1.75.49 3.47.85 5.17s.79 3.61 1.32 5.73l5.41 21.05h5.7l12.29-21.05c1.25-2.14 2.34-4.07 3.25-5.81 1.37-2.6 2.64-5.26 3.8-7.97l-.2 1.09-.78 4.3-.76 4.3-.7 4.07-3.5 21.05h6.52l6.67-40.3h-10.1l-12.72 22.28c-1.97 3.46-3.73 7.03-5.28 10.7l-.43 1.03-.08-.91c-.21-2.29-.52-4.57-.93-6.83-.22-1.25-.52-2.59-.88-4.01l-5.48-22.28h-9.55l-6.67 40.3h6.45l3.5-21.05ZM564.45 735.5c2.78-1.36 5.13-3.22 7.08-5.55 1.95-2.34 3.44-4.99 4.46-7.98s1.54-5.96 1.54-9.34-.66-6.34-1.99-8.85-3.23-4.45-5.72-5.82c-2.48-1.37-5.48-2.05-8.99-2.05s-6.65.68-9.43 2.05a21.2 21.2 0 0 0-7.07 5.56c-1.93 2.34-3.41 5-4.43 7.98s-1.54 5.93-1.54 9.3.67 6.3 1.99 8.81 3.22 4.46 5.7 5.84 5.47 2.07 8.98 2.07 6.65-.67 9.43-2.03Zm-14.85-8.1q-1.83-2.52-1.83-6.45c0-1.88.26-3.83.78-5.86s1.3-3.92 2.34-5.67 2.37-3.17 3.98-4.27a9.9 9.9 0 0 1 5.66-1.64c1.73 0 3.15.38 4.26 1.15s1.93 1.82 2.47 3.17.81 2.9.81 4.65c-.04 4.03-1.12 7.99-3.12 11.49-1.04 1.76-2.37 3.18-3.98 4.29s-3.5 1.66-5.66 1.66h-.01c-2.57 0-4.47-.85-5.7-2.52m24.26-147.1h-.01zm-45.98 156.41 8.87-53.71h-44.19l-8.9 53.71h9.63l7.53-45.64h25.01l-7.57 45.64h9.63Zm-19.91-354.85-6.67 40.3h3.26l3.11-18.49h5.62l11.93 18.49h4.1l-13.13-20.33 19.28-19.98h-4.07l-18.13 18.71h-5.11l3.06-18.71h-3.25Zm56.07 164.57c-1.9 2.42-3.37 5.16-4.32 8.09-1 3-1.49 5.97-1.49 9.3s.63 6.21 1.89 8.69 3.06 4.39 5.39 5.75c2.55 1.42 5.44 2.12 8.36 2.04 3.35 0 6.35-.69 9.02-2.07 2.67-1.37 5.02-3.29 6.88-5.64 1.91-2.38 3.37-5.07 4.38-8.08s1.51-6.01 1.51-9.37-.63-6.28-1.89-8.76a13.56 13.56 0 0 0-5.42-5.73c-2.35-1.35-5.03-2.02-8.4-2.02s-6.39.7-9.07 2.11c-2.66 1.4-4.99 3.34-6.85 5.7Zm4.53 4.31c1.27-1.9 2.84-3.42 4.72-4.58s4.04-1.73 6.49-1.73c2.21 0 4 .47 5.37 1.44s2.38 2.26 3.03 3.9c.65 1.62.98 3.47.98 5.51 0 2.22-.33 4.45-.98 6.71s-1.61 4.35-2.89 6.22-2.85 3.4-4.74 4.55-4.07 1.73-6.54 1.73c-3.27.01-5.63-1.03-7.1-3.1-1.46-2.06-2.2-4.61-2.2-7.64 0-2.24.33-4.49.98-6.76.63-2.22 1.6-4.34 2.89-6.26Zm-29 28.69h6.85l8.9-53.71h-6.85l-3.85 23.21h-28.18l3.85-23.21h-6.85l-8.9 53.71h6.84l4.04-24.44h28.23l-4.07 24.44ZM612 381.86l-9.19 55.37-.03.02h3.25l4.01-23.94h.33c.33 1.71.98 3.35 1.91 4.83.94 1.49 2.26 2.72 3.81 3.57 1.6.88 3.57 1.33 5.89 1.33 3.07 0 5.84-.77 8.28-2.29 2.48-1.56 4.59-3.63 6.2-6.07 1.72-2.58 3.02-5.41 3.87-8.39.89-3.07 1.34-6 1.34-9.14s-.53-5.9-1.57-8.29-2.56-4.24-4.52-5.55a12.5 12.5 0 0 0-7.13-1.99c-2.26 0-4.31.43-6.18 1.28s-3.5 2.01-4.91 3.46-2.56 3.05-3.45 4.81h-.25l1.51-9.01zm3.82 9.88c1.34-2.14 3.12-3.97 5.22-5.37 2.09-1.36 4.55-2.06 7.05-2.02 3.39 0 5.95 1.2 7.69 3.6s2.61 5.5 2.61 9.3a29.24 29.24 0 0 1-4.4 15.27c-1.45 2.24-3.19 4.05-5.25 5.42s-4.39 2.05-7.01 2.05h.01c-3.34.01-5.89-1.19-7.66-3.59s-2.65-5.52-2.65-9.34c0-2.65.37-5.3 1.12-7.97.71-2.6 1.81-5.08 3.26-7.35Zm-515.61-88.52v40.3h1.66v-27.03c-.07-4.47 2.41-8.6 6.4-10.62 2.08-1.07 4.39-1.61 6.73-1.57 3.64 0 6.63 1.11 8.93 3.35s3.46 5.18 3.46 8.84v27.03h1.66v-27.03c0-2.77-.6-5.18-1.8-7.24a12.77 12.77 0 0 0-4.96-4.85c-2.24-1.2-4.76-1.8-7.3-1.75-3.05 0-5.86.76-8.42 2.3-2.2 1.33-3.75 3.22-4.71 5.66v-7.39h-1.66zm-13.9 0h1.66v40.3h-1.66zm66.17 161.53v-4.26h-8.29v-9.59h-4.91v9.59h-5.98v4.26h5.98v26.83c0 3.13.91 5.55 2.72 7.3 1.81 1.73 4.34 2.5 7.55 2.28.65-.02 1.3-.08 1.93-.18.64-.1 1.22-.23 1.75-.4l-1.01-4.21q-.645.15-1.38.27c-.735.12-.9.13-1.24.13-1.82.19-3.18-.19-4.07-1.12-.89-.94-1.34-2.4-1.34-4.4v-26.52h8.29Zm-6.65-80.33c-1.3-1.05-2.8-1.84-4.4-2.33-1.65-.5-3.37-.76-5.17-.76-2.1 0-4.09.32-6 .93s-3.6 1.57-5.05 2.84a12.65 12.65 0 0 0-3.37 4.83l3.14 1.12a9.9 9.9 0 0 1 2.36-3.5c1.04-1.01 2.33-1.8 3.84-2.38s3.24-.87 5.16-.87c2.16 0 4.02.4 5.56 1.17a8.4 8.4 0 0 1 3.57 3.28 9.8 9.8 0 0 1 1.24 5.06v1.66c0 1-.46 1.77-1.38 2.28-.93.53-2.18.9-3.79 1.14-1.6.24-3.42.48-5.47.72-2.69.31-4.04.46-6.96 1.38-1.71.5-3.32 1.28-4.77 2.3-1.18.86-2.13 2-2.75 3.31-.62 1.4-.93 2.92-.9 4.46 0 2.55.58 4.71 1.75 6.49s2.72 3.14 4.66 4.07 4.07 1.4 6.38 1.4v.02c2.12 0 4.03-.36 5.72-1.1a14.05 14.05 0 0 0 7.27-7.05h.29v7.24h3.25v-28.12c0-2.18-.38-4.08-1.12-5.67-.69-1.54-1.73-2.89-3.04-3.96Zm.88 21.41c0 2.69-.55 5.11-1.66 7.27s-2.62 3.84-4.54 5.08-4.13 1.85-6.63 1.85c-1.87 0-3.56-.36-5.06-1.09a8.65 8.65 0 0 1-3.56-3.06 8.36 8.36 0 0 1-1.3-4.69c0-1.69.43-3.11 1.28-4.26.86-1.15 2.2-2.1 4.02-2.83 2.3-.84 4.7-1.38 7.13-1.6l3.03-.4q1.545-.21 2.97-.54c.94-.21 1.8-.46 2.56-.74s1.34-.58 1.75-.92v5.92ZM88.79 292.34c0-.48-.15-.89-.48-1.21s-.72-.48-1.21-.48c-.45 0-.85.15-1.19.48-.66.64-.68 1.7-.03 2.36l.03.03c.33.34.72.5 1.19.5s.89-.16 1.21-.5c.32-.33.48-.7.48-1.19Zm-7.54 79.92v9.59h-5.99v2.95h5.99v28.92c0 2.95.85 5.26 2.52 6.9s4.01 2.25 6.96 1.82c.85-.04 1.69-.2 2.49-.47l-.72-2.89c-.3.04-.61.1-.98.18l-.93.18c-1.94.34-3.45-.01-4.5-1.04-1.06-1.03-1.59-2.66-1.59-4.86v-28.73h8.35v-2.95H84.5v-9.59h-3.25Zm5.5 176c-1.46 3.06-2.2 4.52-2.2 10.83 0 4.2.75 7.77 2.24 10.7 1.34 2.77 3.46 5.09 6.09 6.68 2.63 1.54 5.64 2.34 8.69 2.29 2.6 0 4.68-.41 6.22-1.21 1.37-.66 2.59-1.61 3.57-2.79.83-1.06 1.47-1.98 1.93-2.74h.61v8.08c0 3.31-1.04 5.74-3.12 7.28s-4.73 2.3-7.95 2.3c-2.36 0-4.27-.33-5.72-.99-1.3-.56-2.48-1.37-3.46-2.39-.75-.82-1.46-1.67-2.14-2.56l-5.26 3.39c.85 1.46 1.99 2.82 3.42 4.07s3.25 2.25 5.42 3.01c2.49.8 5.1 1.19 7.72 1.13 3.27 0 6.23-.52 8.89-1.55s4.76-2.66 6.32-4.85 2.34-5.03 2.34-8.48v-41.34h-6.31v6.45h-.61c-.45-.72-1.1-1.64-1.94-2.74s-1.25-1.66-3.59-2.94c-1.56-.86-3.63-1.28-6.22-1.28-3.35 0-6.31.83-8.89 2.52a17.05 17.05 0 0 0-6.07 7.12Zm9.55-1.86c1.7-1.31 3.91-1.96 6.38-1.96s4.55.61 6.23 1.85a11.3 11.3 0 0 1 3.8 5.11c.86 2.17 1.28 4.62 1.28 7.55s-.43 5.44-1.3 7.55c-.76 1.96-2.09 3.64-3.82 4.83a10.94 10.94 0 0 1-6.2 1.68v.02c-2.54 0-4.65-.59-6.35-1.79s-2.99-2.84-3.85-4.96-1.3-4.63-1.3-7.32.43-5.14 1.28-7.32c.77-2.07 2.1-3.89 3.84-5.25Zm46.79 111.67v-53.71h-7.92v19.96h-.43c-.58-1.02-1.25-2-1.99-2.92-.87-1.1-2.06-2.07-3.59-2.9s-3.53-1.24-6.04-1.24c-3.22 0-6.1.81-8.65 2.45s-4.55 4.01-6.01 7.1-2.2 6.87-2.2 11.21.72 8.06 2.16 11.16c1.44 3.12 3.44 5.51 5.98 7.18s5.45 2.5 8.73 2.5h-.02c2.43 0 4.41-.43 5.95-1.25s2.75-1.79 3.64-2.9c.89-1.1 1.56-2.09 2.02-2.95h.65v6.31zm-8.97-12.74c-.69 1.96-1.91 3.69-3.53 4.99a9.1 9.1 0 0 1-5.72 1.8 8.82 8.82 0 0 1-5.76-1.87 11.4 11.4 0 0 1-3.53-5.08c-.79-2.14-1.19-4.57-1.19-7.21s.4-5.02 1.17-7.12c.68-1.96 1.9-3.68 3.5-4.99 1.55-1.22 3.53-1.83 5.82-1.83s4.2.58 5.75 1.75c1.61 1.25 2.83 2.94 3.51 4.86.79 2.07 1.19 4.54 1.19 7.33s-.41 5.25-1.21 7.38Zm-31.27-49.97h-.01zM.01 579.43h6.85v-20.84h11.57l1.24-.02 11.19 20.86h7.94l-12.04-22.08c.69-.24 1.36-.53 1.98-.83 2.69-1.38 4.7-3.29 6-5.75s1.96-5.28 1.96-8.47-.66-6.04-1.96-8.54-3.31-4.47-6.01-5.89c-2.7-1.43-6.15-2.14-10.33-2.14H.01v53.71Zm18.02-47.68c2.85 0 5.15.44 6.88 1.32 1.63.78 2.96 2.07 3.79 3.68.79 1.57 1.19 3.48 1.19 5.56s-.4 3.9-1.19 5.42a7.95 7.95 0 0 1-3.76 3.53c-1.71.82-4 1.24-6.83 1.24H6.86v-20.75zM97.1 500.8h4.91v-25.11c0-2.3.48-4.3 1.46-6 .93-1.65 2.31-3 3.98-3.9 1.76-.92 3.71-1.38 5.7-1.35 3.11 0 5.58.95 7.43 2.86s2.78 4.51 2.78 7.8v25.7h4.91v-26.07c0-3.2-.58-5.89-1.75-8.08-1.09-2.1-2.78-3.84-4.85-4.99-2.22-1.18-4.7-1.77-7.21-1.71-3.06 0-5.76.78-8.13 2.34a12.1 12.1 0 0 0-4.31 5.27v-20.48h-4.91v53.71Zm3.07-78.64h3.25v-26.42c0-2.2.5-4.13 1.49-5.81.98-1.67 2.4-3.04 4.1-3.96 2.16-1.17 4.63-1.65 7.08-1.38l.72.05v-3.28l-.81-.02c-.27-.02-.56-.02-.85-.02-2.65 0-5 .63-7.08 1.89-1.98 1.15-3.54 2.9-4.46 4.99h-.29v-6.34h-3.17v40.3Zm56.09 274.25h9.37v40.3h-9.37zm45.91-322.87c.74 0 1.37-.25 1.89-.76s.78-1.08.78-1.8-.26-1.33-.78-1.82-1.16-.74-1.89-.74c-1.42-.03-2.6 1.1-2.63 2.52v.03c0 .69.26 1.3.78 1.8s1.13.76 1.85.76Zm-54.63 363.18v-27.18c0-3.01-.56-5.52-1.69-7.55a11.53 11.53 0 0 0-4.58-4.63c-2-1.08-4.25-1.63-6.52-1.59-2.1 0-4.06.41-5.89 1.21a12.75 12.75 0 0 0-6.98 7.57 14.3 14.3 0 0 0-3.28-6.05c-1.79-1.83-4.14-2.74-7.05-2.74-1.78 0-3.48.36-5.1 1.1-1.67.77-3.13 1.92-4.26 3.37-.86 1.06-1.55 2.36-2.09 3.87l-.29-7.69h-8.79v40.33h9.36v-24.69c0-1.8.34-3.31 1.01-4.54a6.75 6.75 0 0 1 2.72-2.78c1.16-.62 2.45-.94 3.76-.93 2 0 3.63.61 4.91 1.85 1.3 1.3 1.99 3.08 1.91 4.92v26.17h9.15v-25.31c0-1.51.29-2.84.88-3.98a6.67 6.67 0 0 1 2.55-2.69 7.6 7.6 0 0 1 3.9-.98c1.92 0 3.57.58 4.94 1.73s2.05 2.97 2.05 5.48v25.74h9.37ZM.01 500.79h30.68v-4.58H5.17v-49.13H.01v53.7Zm187.93 47.39 6.23 2.05c1.08-2.26 2.96-4.04 5.27-5 1.37-.6 3.06-.9 4.94-.9s3.44.31 4.69.93c1.25.63 2.18 1.53 2.81 2.69s.93 2.59.93 4.27v.22c0 .99-.36 1.69-1.1 2.1s-1.85.7-3.37.87c-1.51.18-3.47.42-5.87.72-1.88.24-3.73.57-5.59.98-1.84.41-3.53 1.02-5.06 1.85-1.49.8-2.75 1.97-3.65 3.4-.98 1.71-1.46 3.65-1.37 5.62 0 2.65.6 4.88 1.83 6.74 1.23 1.84 2.95 3.3 4.96 4.21 2.07.95 4.39 1.44 6.94 1.44 2.28 0 4.23-.35 5.84-1.02 1.46-.57 2.79-1.42 3.93-2.5.89-.84 1.63-1.82 2.2-2.9h.43v5.48h6.38v-26.57c0-3.15-.53-5.66-1.57-7.55-.92-1.75-2.28-3.22-3.96-4.27-1.53-.94-3.21-1.59-4.97-1.93-1.52-.3-3.05-.46-4.6-.48q-3.09 0-6.27.87c-3.18.87-4.05 1.56-5.81 2.94s-3.15 3.3-4.18 5.75Zm24.87 16.69c0 1.64 0 2.45-1.3 4.71-.87 1.5-2.13 2.72-3.79 3.65s-3.69 1.4-6.09 1.4h-.01q-2.415 0-4.29-.72c-1.875-.72-2.23-1.2-2.95-2.13a5.56 5.56 0 0 1-1.09-3.5c0-1.54.42-2.75 1.23-3.65a7.6 7.6 0 0 1 3.26-2.05c1.36-.46 2.82-.8 4.38-.99l2.55-.31c1.06-.13 2.17-.29 3.31-.48s2.16-.42 3.05-.67 1.47-.53 1.73-.85v5.59ZM92 761.64h10.81v53.71H92zm108.58-379.78h3.25v40.3h-3.25zm-35.76 300.08c-1.06-.99-2.38-1.49-3.87-1.49s-2.78.49-3.84 1.49c-2 1.82-2.16 4.91-.34 6.91.11.12.22.23.34.34 1.03.99 2.41 1.54 3.84 1.51 1.51 0 2.81-.49 3.87-1.5s1.6-2.23 1.6-3.64-.54-2.62-1.6-3.62M18.98 343.52v-52.05h17.3v-1.66H.01v1.66h17.31v52.05zm635.77-1.24c2.14 1.43 4.67 2.16 7.24 2.11h-.01c2.93.01 5.64-.72 8.13-2.18s4.65-3.42 6.48-5.87c1.83-2.46 3.25-5.18 4.26-8.19s1.51-5.89 1.51-9.09-.57-6.01-1.71-8.48-2.73-4.4-4.77-5.81a12.42 12.42 0 0 0-7.21-2.11c-2.95 0-5.67.74-8.17 2.2-2.53 1.51-4.73 3.5-6.49 5.86a29 29 0 0 0-4.27 8.14c-1.01 2.99-1.51 5.9-1.51 9.1s.57 6.04 1.71 8.51 1.71 3.71 4.81 5.82Zm-3.43-23.03c.94-2.73 2.3-5.29 4.04-7.58 1.62-2.16 3.65-3.98 5.97-5.37 2.2-1.31 4.72-2 7.28-1.99 2.45 0 4.59.63 6.4 1.89 1.86 1.31 3.32 3.12 4.2 5.22.99 2.22 1.48 3.51 1.48 7.69a27.92 27.92 0 0 1-5.28 15.99c-1.59 2.21-3.6 4.09-5.92 5.53a14 14 0 0 1-7.47 2.09H662a10.68 10.68 0 0 1-8.85-4.14c-2.2-2.75-3.29-6.32-3.29-10.7 0-2.96.48-5.84 1.46-8.64ZM.01 422.16h30.61v-3.14H3.4v-22.24h24.98v-3.14H3.4v-22.06H30v-3.14H.01v53.71ZM43.5 625.62c.49-1.43 1.01-3.01 1.55-4.74s1.1-3.52 1.66-5.39l.92-3.11-.05 2.73-.11 5.21-.09 4.88-.03 3.96v28.91h8.19v-53.71H43.36l-11.54 30.82c-.34.91-.72 2.1-1.15 3.53-.94 3.12-1.81 6.26-2.62 9.42l-.21.78-.23-.91c-.8-3.14-1.67-6.27-2.61-9.37-.35-1.16-.73-2.32-1.14-3.46l-11.71-30.82H.01v53.74h8.01v-28.91c0-1.37-.02-2.75-.05-4.13l-.11-4.99c-.03-1.76-.04-2.65-.11-5.21l-.05-2.22.93 3.01c.57 1.85 1.14 3.65 1.69 5.37l1.54 4.69c.46 1.4.88 2.57 1.24 3.48l11.14 28.91h7.02l11-28.91zm-3.66 89.92c-.87-1.71-2.1-3.21-3.59-4.41-1.49-1.21-3.18-2.22-5.06-3.01s-3.81-1.43-5.81-1.91l-5.02-1.3a30.5 30.5 0 0 1-4.27-1.4c-1.4-.57-2.58-1.34-3.5-2.3s-1.38-2.18-1.38-3.68c0-1.37.4-2.59 1.17-3.64s1.89-1.89 3.35-2.5 3.19-.92 5.21-.92q4.365 0 7.08 1.89a7.1 7.1 0 0 1 3.08 5.36h9.34c-.08-2.99-.92-5.64-2.55-7.97s-3.87-4.16-6.76-5.48c-2.88-1.33-6.31-1.99-10.05-1.99s-7.1.66-10.05 1.96-5.29 3.15-6.99 5.53a13.94 13.94 0 0 0-2.56 8.33c0 3.8 1.25 6.87 3.76 9.2 2.5 2.33 6.01 4.07 10.5 5.22l6.09 1.58c1.95.48 3.64 1.04 5.1 1.68s2.59 1.42 3.39 2.33 1.21 2.06 1.21 3.46c0 1.54-.46 2.89-1.37 4.05s-2.17 2.07-3.8 2.72-3.6.98-5.61.98-3.84-.32-5.51-.92-3-1.54-4.01-2.79a8.44 8.44 0 0 1-1.77-4.69H.01c.14 3.53 1.08 6.54 2.81 9.01 1.8 2.54 4.3 4.51 7.19 5.66 3.44 1.37 7.13 2.03 10.83 1.94h.01c4.27 0 7.92-.68 10.95-2.01s5.35-3.19 6.96-5.59c1.63-2.46 2.47-5.36 2.41-8.31 0-2.33-.45-4.36-1.34-6.09Z" /></svg>