<svg xmlns="http://www.w3.org/2000/svg" data-name="Layer 1" viewBox="0 0 1000 1000">
  <path d="M65.35 326.12v-1.51h33.04v1.51H82.63v47.42h-1.51v-47.42H65.36ZM108.28 348.91v24.63h-1.51V324.6h1.51v20.1h-.39c.79-2.8 2.35-4.9 4.68-6.31s4.89-2.1 7.67-2.1c2.52 0 4.73.53 6.65 1.59s3.42 2.53 4.52 4.42c1.09 1.88 1.64 4.08 1.64 6.6v24.63h-1.51V348.9c0-3.33-1.05-6.01-3.15-8.05s-4.82-3.05-8.14-3.05c-2.28 0-4.32.48-6.13 1.43s-3.23 2.27-4.27 3.94q-1.56 2.52-1.56 5.73ZM144.7 328.45c-.42 0-.78-.15-1.08-.46s-.46-.67-.46-1.08c0-.44.15-.8.46-1.1s.67-.44 1.08-.44c.44 0 .8.15 1.1.44s.44.66.44 1.1-.15.78-.44 1.08c-.29.31-.66.46-1.1.46m-.72 45.09v-36.72h1.51v36.72zM158.15 348.91v24.63h-1.51v-36.72h1.51v7.88h-.39c.79-2.8 2.35-4.9 4.68-6.31s4.89-2.1 7.67-2.1c2.52 0 4.73.53 6.65 1.59s3.42 2.53 4.52 4.42c1.09 1.88 1.64 4.08 1.64 6.6v24.63h-1.51V348.9c0-3.33-1.05-6.01-3.15-8.05s-4.82-3.05-8.14-3.05c-2.28 0-4.32.48-6.13 1.43s-3.23 2.27-4.27 3.94q-1.56 2.52-1.56 5.73ZM65.35 445.19v-48.94h27.33v2.86H68.44v20.1H91.2v2.86H68.44v20.26h24.8v2.86H65.36ZM99.54 445.19l14.35-19.94v2.27l-13.7-19.05h3.55l6.67 9.33c.94 1.38 1.83 2.72 2.68 4.01q1.26 1.935 2.58 3.84h-1.51c.85-1.27 1.69-2.55 2.51-3.84s1.7-2.63 2.64-4.01l6.7-9.33h3.51l-13.73 19.12v-2.2l14.35 19.8h-3.55l-7.75-10.81c-.88-1.29-1.7-2.53-2.46-3.71-.77-1.18-1.54-2.34-2.33-3.48h1.51c-.79 1.14-1.55 2.3-2.3 3.48s-1.57 2.42-2.46 3.71l-7.75 10.81zM149.94 408.47v2.69h-16.03v-2.69zm-10.57-8.74h2.96v37.61c0 2.01.48 3.49 1.45 4.43.96.94 2.33 1.26 4.1.95.24-.04.53-.1.85-.16.33-.07.62-.12.89-.16l.66 2.63c-.33.11-.7.2-1.1.28-.41.08-.79.13-1.17.15-2.69.39-4.81-.16-6.34-1.66s-2.3-3.6-2.3-6.29v-37.77ZM156.61 445.19v-36.72h2.89v5.78h.26c.81-1.88 2.16-3.4 4.06-4.55 1.89-1.15 4.04-1.72 6.45-1.72.26 0 .52 0 .77.02.25.01.5.02.74.02v2.99c-.13 0-.35-.02-.66-.05s-.66-.05-1.05-.05c-2.01 0-3.82.44-5.4 1.31-1.59.88-2.84 2.08-3.74 3.61s-1.36 3.29-1.36 5.29v24.07zM186.95 446.01c-2.1 0-4.04-.43-5.81-1.28s-3.19-2.09-4.25-3.71q-1.59-2.43-1.59-5.91c0-1.53.27-2.88.82-4.06.55-1.17 1.38-2.18 2.51-3.02q1.695-1.26 4.35-2.1c2.655-.84 3.89-.98 6.34-1.26q2.79-.33 4.98-.66c1.46-.22 2.6-.56 3.45-1.04.84-.47 1.26-1.17 1.26-2.08v-1.51c0-1.79-.38-3.33-1.13-4.61s-1.84-2.28-3.25-2.99-3.1-1.07-5.07-1.07c-1.75 0-3.32.26-4.7.79s-2.55 1.25-3.5 2.17-1.67 1.98-2.15 3.19l-2.86-1.02c.72-1.77 1.75-3.24 3.07-4.4s2.86-2.03 4.6-2.59 3.56-.85 5.47-.85q2.46 0 4.71.69c1.5.46 2.83 1.17 4.01 2.12 1.17.95 2.1 2.16 2.77 3.61s1.02 3.18 1.02 5.17v25.62h-2.96v-6.6h-.26c-.63 1.38-1.51 2.63-2.63 3.74-1.12 1.12-2.45 2.01-3.99 2.68s-3.28 1-5.21 1Zm.37-2.76c2.28 0 4.29-.56 6.04-1.69s3.13-2.67 4.14-4.63 1.51-4.17 1.51-6.62v-5.39q-.555.465-1.59.84c-.69.25-1.47.48-2.33.67-.87.2-1.77.36-2.71.49q-1.41.195-2.76.36c-2.67.31-4.84.79-6.5 1.46q-2.49 1.005-3.66 2.58c-.78 1.05-1.17 2.34-1.17 3.88 0 1.64.39 3.07 1.18 4.27s1.87 2.13 3.24 2.79 2.91.99 4.61.99M213.38 445.19v-48.94h3.12v46.08h23.84v2.86zM249.54 400.89c-.66 0-1.22-.23-1.69-.69s-.71-1.01-.71-1.64.24-1.21.71-1.66 1.03-.67 1.69-.67 1.25.22 1.72.67.71 1 .71 1.66-.24 1.18-.71 1.64-1.05.69-1.72.69m-1.45 44.3v-36.72h2.96v36.72zM274.88 459.71c-2.28 0-4.33-.3-6.16-.89s-3.38-1.45-4.65-2.56a11.5 11.5 0 0 1-2.92-3.94l2.56-1.45c.55 1.2 1.33 2.27 2.33 3.19s2.24 1.64 3.71 2.15 3.17.77 5.12.77c3.53 0 6.32-.91 8.38-2.73q3.09-2.73 3.09-8.34v-9.1h-.33c-.57 1.6-1.4 3.01-2.5 4.24-1.09 1.23-2.42 2.19-3.99 2.89s-3.34 1.05-5.34 1.05c-2.89 0-5.44-.74-7.64-2.23s-3.92-3.6-5.16-6.32c-1.24-2.73-1.86-5.93-1.86-9.61s.61-6.93 1.84-9.77 2.94-5.06 5.14-6.67 4.77-2.41 7.7-2.41c2.1 0 3.93.39 5.49 1.18 1.55.79 2.86 1.84 3.91 3.17q1.575 1.995 2.46 4.35h.3v-8.21h2.92v37.57c0 3.04-.6 5.58-1.81 7.62-1.2 2.04-2.89 3.55-5.06 4.55s-4.69 1.5-7.55 1.5Zm-.36-17.48c2.43 0 4.53-.62 6.31-1.87s3.14-3.03 4.09-5.34 1.43-5.05 1.43-8.23-.46-5.81-1.4-8.23-2.28-4.33-4.06-5.73c-1.77-1.4-3.9-2.1-6.37-2.1s-4.67.71-6.45 2.13c-1.79 1.42-3.15 3.34-4.09 5.76q-1.41 3.63-1.41 8.16c0 4.53.48 5.73 1.43 8.05s2.32 4.13 4.11 5.44 3.92 1.95 6.42 1.95ZM302.71 421.44v23.75h-2.96v-48.94h2.96v20.43h-.59q1.35-4.5 4.71-6.6c2.24-1.4 4.76-2.1 7.54-2.1q3.75 0 6.6 1.56c1.91 1.04 3.39 2.53 4.47 4.47 1.07 1.94 1.61 4.26 1.61 6.98v24.21h-2.99v-24.04c0-3.15-.95-5.68-2.84-7.57s-4.37-2.84-7.44-2.84q-3.15 0-5.67 1.35c-2.52 1.35-2.99 2.15-3.96 3.74s-1.44 3.47-1.44 5.62ZM347.88 408.47v2.69h-16.03v-2.69zm-10.58-8.74h2.96v37.61c0 2.01.48 3.49 1.45 4.43.96.94 2.33 1.26 4.1.95.24-.04.53-.1.85-.16.33-.07.62-.12.89-.16l.66 2.63c-.33.11-.7.2-1.1.28-.41.08-.79.13-1.17.15-2.69.39-4.81-.16-6.34-1.66s-2.3-3.6-2.3-6.29v-37.77ZM65.35 516.84V467.9h4.7v44.76H93.3v4.17H65.35ZM102.72 473.32c-.88 0-1.64-.31-2.28-.92-.65-.61-.97-1.35-.97-2.2s.32-1.61.97-2.22q.975-.9 2.28-.9c1.305 0 1.66.3 2.3.9.63.6.95 1.34.95 2.22s-.32 1.59-.95 2.2c-.64.61-1.4.92-2.3.92m-2.26 43.52v-36.72h4.47v36.72zM128.76 531.35c-2.5 0-4.69-.32-6.58-.97s-3.49-1.53-4.78-2.64c-1.29-1.12-2.3-2.4-3.02-3.84l3.68-2.23c.53.94 1.23 1.86 2.12 2.74.89.89 2.03 1.61 3.43 2.17q2.1.84 5.16.84c3.24 0 5.85-.8 7.82-2.41s2.96-4.1 2.96-7.47v-8.24h-.43c-.48 1.14-1.19 2.26-2.12 3.37s-2.14 2.01-3.63 2.73-3.33 1.07-5.52 1.07c-2.91 0-5.5-.72-7.77-2.17s-4.05-3.51-5.34-6.21c-1.29-2.69-1.94-5.91-1.94-9.66s.63-7.02 1.91-9.84c1.27-2.81 3.04-5.01 5.32-6.58q3.42-2.37 7.92-2.37c2.23 0 4.09.39 5.58 1.18q2.235 1.185 3.6 2.94c.91 1.17 1.6 2.32 2.09 3.43h.46v-7.06h4.34v37.6c0 3.11-.66 5.67-1.97 7.69-1.31 2.01-3.12 3.51-5.42 4.48s-4.92 1.46-7.85 1.46Zm-.26-18.91c2.34 0 4.34-.56 5.99-1.69s2.92-2.75 3.79-4.86c.88-2.11 1.31-4.64 1.31-7.57s-.43-5.37-1.3-7.57-2.12-3.93-3.76-5.19-3.66-1.89-6.04-1.89-4.45.65-6.11 1.95c-1.67 1.3-2.93 3.06-3.79 5.27s-1.3 4.69-1.3 7.42.44 5.23 1.31 7.36q1.32 3.18 3.81 4.98c2.49 1.8 3.69 1.79 6.08 1.79ZM158.28 493.95v22.89h-4.47V467.9h4.47v20.79h-.82c1.01-3.2 2.59-5.51 4.75-6.93s4.62-2.13 7.41-2.13q3.75 0 6.57 1.56c1.88 1.04 3.35 2.56 4.42 4.55 1.06 1.99 1.59 4.44 1.59 7.36v23.75h-4.47v-23.42c0-3-.84-5.37-2.53-7.11s-3.94-2.61-6.77-2.61q-2.895 0-5.19 1.23c-1.53.82-2.74 2-3.63 3.55s-1.33 3.37-1.33 5.47ZM204.27 480.12V484H186.8v-3.88zm-12.02-8.74h4.47v36.78c0 1.82.41 3.15 1.22 4.01.81.85 2.05 1.19 3.71 1.02.31 0 .68-.04 1.13-.12s.87-.16 1.26-.25l.92 3.84q-.72.225-1.59.36c-.58.09-1.17.14-1.76.16-2.93.2-5.23-.5-6.88-2.08-1.65-1.59-2.48-3.8-2.48-6.65v-37.08ZM65.35 588.49v-48.94H82.1c3.81 0 6.95.65 9.41 1.95s4.29 3.09 5.48 5.37 1.79 4.87 1.79 7.78-.6 5.48-1.79 7.72-3.02 3.98-5.47 5.24q-3.675 1.89-9.39 1.89h-13.3v-5.55h13.01c2.58 0 4.66-.38 6.22-1.13 1.57-.75 2.71-1.83 3.43-3.22s1.08-3.04 1.08-4.94-.36-3.64-1.08-5.07-1.87-2.55-3.45-3.35q-2.37-1.2-6.27-1.2H71.59v43.45zm28.11 0-11.82-22.04h7.03l12.02 22.04zM121.56 589.28c-3.55 0-6.61-.79-9.18-2.36q-3.855-2.37-5.94-6.6c-2.085-4.23-2.08-6.12-2.08-9.89s.68-7.08 2.04-9.95 3.28-5.11 5.76-6.73 5.39-2.43 8.72-2.43c1.95 0 3.87.32 5.76.97s3.61 1.69 5.16 3.12c1.54 1.43 2.78 3.32 3.7 5.67s1.38 5.21 1.38 8.6v2.46h-28.51v-4.99h25.32l-2.76 1.84c0-2.41-.38-4.55-1.13-6.42-.76-1.87-1.88-3.34-3.37-4.4q-2.235-1.59-5.55-1.59c-3.315 0-4.11.54-5.68 1.62-1.58 1.08-2.78 2.5-3.61 4.24s-1.25 3.61-1.25 5.6v3.32c0 2.71.47 5.02 1.41 6.91s2.26 3.33 3.96 4.3 3.66 1.46 5.9 1.46c1.45 0 2.76-.21 3.94-.62 1.18-.42 2.2-1.04 3.05-1.89.85-.84 1.51-1.89 1.97-3.14l5.71 1.58a11.96 11.96 0 0 1-2.89 4.86c-1.36 1.4-3.04 2.5-5.04 3.28-2 .79-4.26 1.18-6.78 1.18ZM159.05 603c-2.72 0-5.06-.34-7.04-1.03s-3.63-1.6-4.94-2.74-2.35-2.38-3.12-3.71l4.79-3.09c.53.7 1.18 1.48 1.95 2.33.78.85 1.83 1.58 3.15 2.18s3.06.9 5.21.9c2.93 0 5.35-.7 7.24-2.1s2.84-3.61 2.84-6.63v-7.36h-.56c-.42.7-1 1.53-1.76 2.5-.75.96-1.84 1.81-3.25 2.54s-3.3 1.1-5.67 1.1c-2.93 0-5.57-.7-7.92-2.09q-3.51-2.085-5.55-6.09t-2.04-9.75c0-5.745.67-7.08 2-9.87s3.18-4.95 5.53-6.49 5.05-2.3 8.1-2.3q3.54 0 5.67 1.17c2.13 1.17 2.5 1.67 3.27 2.68s1.36 1.84 1.77 2.5h.56v-5.88h5.75v37.67c0 3.15-.71 5.73-2.13 7.73s-3.34 3.48-5.76 4.42q-3.63 1.41-8.1 1.41Zm-.16-20.36c2.23 0 4.12-.51 5.65-1.53s2.69-2.49 3.48-4.4c.79-1.92 1.18-4.21 1.18-6.88s-.39-4.9-1.17-6.88-1.93-3.54-3.46-4.66c-1.53-1.13-3.43-1.69-5.68-1.69s-4.26.6-5.81 1.79c-1.56 1.19-2.72 2.79-3.5 4.78s-1.17 4.22-1.17 6.67.39 4.74 1.18 6.67 1.96 3.43 3.51 4.52 3.48 1.63 5.78 1.63ZM196.53 588.95c-2.47 0-4.65-.51-6.52-1.53s-3.33-2.56-4.37-4.61c-1.04-2.06-1.56-4.63-1.56-7.72v-23.32h5.91v22.83c0 2.82.74 5.04 2.23 6.63 1.49 1.6 3.51 2.4 6.08 2.4 1.75 0 3.32-.38 4.71-1.15s2.49-1.89 3.3-3.37 1.21-3.26 1.21-5.34v-22h5.94v36.72h-5.71v-8.9h.79c-1.14 3.44-2.75 5.86-4.84 7.26s-4.48 2.1-7.18 2.1ZM228.48 539.55v48.94h-5.91v-48.94zM248.05 589.34c-2.32 0-4.43-.44-6.32-1.31-1.89-.88-3.4-2.16-4.52-3.84-1.12-1.69-1.67-3.73-1.67-6.14 0-2.1.42-3.81 1.25-5.12a8.87 8.87 0 0 1 3.33-3.1c1.39-.76 2.93-1.32 4.61-1.69 1.69-.37 3.38-.67 5.09-.89 2.19-.28 3.97-.5 5.35-.66 1.38-.15 2.4-.42 3.07-.79s1-1.01 1-1.91v-.2c0-1.53-.28-2.83-.85-3.89s-1.42-1.88-2.56-2.45-2.56-.85-4.27-.85-3.25.27-4.5.82-2.26 1.23-3.04 2.05-1.36 1.66-1.76 2.51l-5.68-1.87c.94-2.23 2.21-3.98 3.81-5.24s3.36-2.15 5.29-2.68 3.83-.79 5.71-.79c1.23 0 2.62.15 4.19.44 1.56.29 3.08.88 4.53 1.76 1.46.88 2.66 2.17 3.61 3.89s1.43 4.01 1.43 6.88v24.21h-5.81v-4.99h-.39c-.42.85-1.08 1.74-2 2.64-.92.91-2.11 1.67-3.58 2.28s-3.24.92-5.32.92Zm1.01-5.22c2.19 0 4.04-.43 5.55-1.28q2.265-1.275 3.45-3.33c1.185-2.055 1.18-2.8 1.18-4.29v-5.09c-.24.29-.77.54-1.58.77s-1.74.43-2.78.61-2.05.32-3.02.44-1.75.21-2.32.28c-1.42.17-2.75.48-3.99.9-1.24.43-2.23 1.05-2.97 1.87s-1.12 1.93-1.12 3.33c0 1.27.33 2.33.99 3.19.66.85 1.55 1.5 2.69 1.94s2.44.66 3.91.66ZM274.21 588.49v-36.72h5.71v5.65h.39c.68-1.86 1.89-3.36 3.63-4.48 1.74-1.13 3.71-1.69 5.9-1.69q.66 0 1.56.03c.6.02 1.08.04 1.43.07v5.95c-.17-.04-.61-.11-1.31-.2s-1.45-.13-2.23-.13c-1.75 0-3.32.37-4.71 1.1s-2.48 1.74-3.27 3.02-1.18 2.75-1.18 4.42v22.99h-5.91ZM65.35 660.14V611.2h11.04l10.67 28.08c.31.83.65 1.88 1.04 3.15q.57 1.905 1.2 4.14c.42 1.49.81 2.96 1.18 4.4.37 1.45.7 2.75.99 3.91h-1.58c.29-1.09.61-2.36.99-3.79.37-1.43.77-2.9 1.18-4.38s.82-2.89 1.21-4.2.74-2.39 1.05-3.22l10.51-28.08h11.1v48.94h-7.46v-26.34c0-1.01.01-2.21.03-3.61s.05-2.88.08-4.45.07-3.15.1-4.75.06-3.13.08-4.6h.56c-.44 1.6-.91 3.25-1.43 4.94-.51 1.7-1.02 3.33-1.51 4.91q-.735 2.37-1.41 4.32c-.45 1.3-.83 2.38-1.13 3.24l-10.02 26.34h-6.4l-10.15-26.34c-.33-.83-.71-1.89-1.13-3.17-.43-1.28-.89-2.7-1.4-4.27-.5-1.56-1.02-3.2-1.54-4.89-.53-1.7-1.05-3.39-1.58-5.07h.66q.06 2.01.12 4.35c.06 2.34.07 3.15.1 4.75s.07 3.12.1 4.55a186 186 0 0 1 .05 3.76v26.34h-7.29ZM141.2 660.89c-3.61 0-6.73-.78-9.36-2.33q-3.945-2.325-6.06-6.57c-1.41-2.83-2.12-6.14-2.12-9.95s.69-7.08 2.08-9.95 3.36-5.11 5.9-6.72 5.52-2.41 8.93-2.41c2.1 0 4.13.34 6.08 1.03q2.925 1.035 5.25 3.24c2.325 2.205 2.79 3.37 3.7 5.7s1.36 5.16 1.36 8.49v2.56H127.7v-5.39h25.55l-3.38 1.77c0-2.25-.35-4.24-1.05-5.96s-1.74-3.06-3.1-4.02c-1.37-.96-3.08-1.44-5.14-1.44s-3.78.49-5.22 1.48-2.54 2.28-3.3 3.89c-.75 1.61-1.13 3.37-1.13 5.27v3.68c0 2.52.43 4.65 1.3 6.39s2.07 3.05 3.63 3.94c1.55.89 3.36 1.33 5.42 1.33 1.36 0 2.58-.19 3.68-.58 1.09-.38 2.04-.96 2.84-1.74s1.41-1.74 1.82-2.87l6.8 1.61c-.59 1.88-1.58 3.55-2.97 4.99s-3.12 2.57-5.19 3.37-4.42 1.2-7.04 1.2ZM177.53 660.86q-4.47 0-7.95-2.28c-2.32-1.52-4.14-3.7-5.45-6.54-1.31-2.83-1.97-6.22-1.97-10.17s.67-7.39 2-10.21 3.16-4.98 5.48-6.47 4.95-2.23 7.88-2.23c2.28 0 4.11.38 5.5 1.13s2.48 1.64 3.27 2.64c.79 1.01 1.39 1.89 1.81 2.66h.39V611.2h7.22v48.94h-7.03v-5.75h-.59c-.42.79-1.03 1.69-1.84 2.69-.81 1.01-1.92 1.89-3.32 2.64s-3.21 1.13-5.42 1.13Zm1.58-6.14c2.06 0 3.79-.55 5.21-1.64 1.41-1.09 2.48-2.61 3.22-4.55.73-1.94 1.1-4.18 1.1-6.72s-.36-4.79-1.08-6.68-1.79-3.37-3.2-4.43-3.16-1.59-5.24-1.59-3.89.56-5.3 1.67c-1.41 1.12-2.47 2.63-3.19 4.55-.71 1.92-1.07 4.08-1.07 6.49s.36 4.62 1.08 6.57 1.8 3.49 3.22 4.63q2.13 1.71 5.25 1.71ZM208.12 617.8c-1.25 0-2.32-.42-3.2-1.26s-1.33-1.84-1.33-3 .44-2.22 1.33-3.05 1.95-1.25 3.2-1.25 2.32.42 3.22 1.25 1.35 1.85 1.35 3.05-.45 2.19-1.35 3.02-1.97 1.25-3.22 1.25Zm-3.64 42.34v-36.72h7.23v36.72zM232.67 660.6c-2.5 0-4.69-.53-6.57-1.58s-3.35-2.61-4.38-4.66q-1.56-3.09-1.56-7.62v-23.32h7.23v22.43c0 2.65.7 4.72 2.09 6.21s3.28 2.23 5.67 2.23c1.64 0 3.1-.36 4.38-1.07s2.29-1.75 3.04-3.12c.74-1.37 1.12-3.02 1.12-4.94v-21.74h7.23v36.72h-6.9l-.03-9h.69c-1.07 3.33-2.64 5.74-4.7 7.23s-4.49 2.23-7.29 2.23ZM259.65 660.14v-36.72h6.86l.2 8.51h-.56c.53-2.08 1.34-3.79 2.43-5.12 1.09-1.34 2.38-2.34 3.84-3.01 1.47-.67 3-1 4.6-1 2.67 0 4.83.83 6.47 2.48s2.75 3.96 3.32 6.91h-.92c.48-2.01 1.31-3.72 2.5-5.12 1.18-1.4 2.61-2.46 4.29-3.19 1.68-.72 3.46-1.08 5.37-1.08 2.17 0 4.13.47 5.9 1.41 1.76.94 3.16 2.34 4.19 4.2s1.54 4.18 1.54 6.96v24.76h-7.22v-24.04c0-2.45-.68-4.23-2.05-5.32s-2.98-1.64-4.84-1.64c-1.51 0-2.81.32-3.91.95s-1.94 1.52-2.53 2.64c-.59 1.13-.89 2.42-.89 3.89v23.52h-7.13v-24.5c0-1.97-.63-3.55-1.89-4.73s-2.86-1.77-4.81-1.77c-1.34 0-2.58.31-3.73.94s-2.07 1.54-2.76 2.76c-.69 1.21-1.04 2.71-1.04 4.48v22.83zM84.33 732.54q-5.685 0-9.87-1.77c-2.79-1.18-4.98-2.9-6.55-5.16-1.58-2.25-2.43-4.99-2.56-8.21h8.64c.15 1.71.69 3.13 1.61 4.27s2.13 1.99 3.65 2.54 3.19.84 5.02.84 3.63-.3 5.11-.89 2.63-1.42 3.46-2.48 1.25-2.29 1.25-3.69c0-1.27-.37-2.32-1.1-3.15s-1.76-1.54-3.09-2.12-2.87-1.09-4.65-1.53l-5.55-1.44c-4.09-1.05-7.29-2.64-9.57-4.76-2.29-2.12-3.43-4.92-3.43-8.38 0-2.89.78-5.42 2.33-7.59s3.68-3.85 6.37-5.04 5.75-1.79 9.16-1.79 6.54.6 9.16 1.81c2.63 1.2 4.68 2.87 6.16 4.99s2.25 4.54 2.32 7.26h-8.51c-.22-2.1-1.16-3.73-2.81-4.88s-3.8-1.72-6.45-1.72c-1.84 0-3.42.28-4.75.84s-2.34 1.32-3.05 2.28-1.07 2.07-1.07 3.32c0 1.36.42 2.47 1.26 3.35s1.91 1.58 3.19 2.1c1.28.53 2.58.95 3.89 1.28l4.57 1.18c1.82.44 3.58 1.02 5.29 1.74s3.25 1.64 4.61 2.74q2.055 1.665 3.27 4.02c.81 1.58 1.22 3.43 1.22 5.55 0 2.87-.73 5.39-2.2 7.57s-3.58 3.88-6.34 5.09-6.09 1.82-9.98 1.82ZM125.61 732.54c-3.7 0-6.88-.78-9.54-2.33s-4.71-3.74-6.14-6.57-2.15-6.15-2.15-9.98.71-7.11 2.12-9.95c1.41-2.85 3.42-5.07 6.01-6.68s5.64-2.41 9.15-2.41q3.345 0 6.39 1.08c2.03.72 3.82 1.84 5.39 3.35s2.79 3.43 3.68 5.76 1.33 5.11 1.33 8.33v2.69h-30.02v-5.81h25.78l-4.01 1.71c0-2.06-.32-3.87-.95-5.43-.64-1.57-1.58-2.79-2.84-3.66-1.26-.88-2.83-1.31-4.71-1.31s-3.48.44-4.79 1.33a8.6 8.6 0 0 0-3.01 3.55c-.69 1.48-1.03 3.12-1.03 4.94v4.01c0 2.32.39 4.28 1.18 5.88s1.89 2.8 3.32 3.61c1.42.81 3.08 1.22 4.96 1.22 1.25 0 2.38-.18 3.4-.54s1.9-.9 2.64-1.61a6.7 6.7 0 0 0 1.67-2.61l7.85 1.61c-.59 1.97-1.6 3.7-3.02 5.17q-2.13 2.22-5.34 3.45c-2.13.82-4.57 1.23-7.31 1.23ZM148.28 731.79v-36.72h8.01l.33 8.83H156c.53-2.19 1.34-3.97 2.45-5.35s2.4-2.4 3.88-3.07 3.03-1 4.65-1c2.65 0 4.79.83 6.42 2.5 1.63 1.66 2.79 4.12 3.46 7.36h-1.02c.5-2.19 1.36-4.01 2.58-5.47 1.21-1.46 2.66-2.55 4.33-3.28s3.46-1.1 5.37-1.1c2.21 0 4.19.48 5.94 1.45 1.75.96 3.14 2.37 4.17 4.22s1.54 4.14 1.54 6.88v24.76h-8.54v-23.45c0-2.28-.62-3.94-1.87-4.99s-2.75-1.58-4.5-1.58c-1.36 0-2.54.3-3.55.89a5.95 5.95 0 0 0-2.32 2.45c-.54 1.04-.8 2.25-.8 3.63v23.06h-8.34v-23.84c0-1.86-.58-3.36-1.74-4.48-1.16-1.13-2.65-1.69-4.47-1.69-1.25 0-2.39.29-3.43.85s-1.87 1.41-2.48 2.53-.92 2.5-.92 4.14v22.5h-8.54ZM211.98 689.88c-1.36 0-2.52-.46-3.5-1.38-.97-.92-1.46-2.01-1.46-3.28s.49-2.42 1.46-3.33 2.14-1.36 3.5-1.36 2.56.46 3.53 1.36c.97.91 1.46 2.01 1.46 3.3s-.49 2.4-1.46 3.32-2.15 1.38-3.53 1.38Zm-4.27 41.91v-36.72h8.54v36.72zM243.75 732.44c-2.08 0-3.82-.36-5.22-1.07s-2.52-1.57-3.35-2.58-1.47-1.95-1.91-2.83h-.56v5.81h-8.34v-48.94h8.54v18.29h.36c.44-.88 1.06-1.82 1.87-2.82q1.215-1.515 3.3-2.61c1.39-.73 3.17-1.1 5.34-1.1 2.85 0 5.41.72 7.69 2.17s4.09 3.58 5.44 6.39 2.02 6.26 2.02 10.33-.66 7.46-1.97 10.28-3.12 4.98-5.4 6.45q-3.435 2.22-7.8 2.22Zm-2.3-7.02c1.91 0 3.5-.52 4.79-1.56s2.27-2.46 2.92-4.27c.66-1.81.98-3.85.98-6.12s-.32-4.31-.97-6.09-1.61-3.19-2.91-4.2q-1.935-1.53-4.83-1.53c-2.895 0-3.47.49-4.76 1.48s-2.27 2.36-2.94 4.12-1 3.84-1 6.22.33 4.48 1 6.27c.67 1.8 1.65 3.19 2.96 4.19 1.3 1 2.88 1.5 4.75 1.5ZM281.13 732.54c-3.57 0-6.67-.79-9.29-2.38q-3.945-2.385-6.09-6.63c-1.43-2.84-2.15-6.14-2.15-9.9s.72-7.14 2.15-10 3.46-5.07 6.09-6.65 5.72-2.36 9.29-2.36 6.7.79 9.33 2.36c2.63 1.58 4.66 3.79 6.09 6.65s2.15 6.19 2.15 10-.72 7.07-2.15 9.9q-2.145 4.26-6.09 6.63c-2.63 1.59-5.74 2.38-9.33 2.38m0-6.93c1.99 0 3.65-.54 4.98-1.61s2.31-2.52 2.96-4.33c.65-1.82.97-3.84.97-6.08s-.32-4.29-.97-6.11-1.63-3.26-2.96-4.33-2.98-1.61-4.98-1.61-3.64.54-4.94 1.61-2.28 2.51-2.92 4.32c-.65 1.81-.97 3.85-.97 6.12s.32 4.26.97 6.08 1.62 3.26 2.92 4.33 2.95 1.61 4.94 1.61M313.62 682.85v48.94h-8.54v-48.94zM335.36 732.44q-4.335 0-7.77-2.22t-5.4-6.45c-1.965-4.23-1.97-6.25-1.97-10.28s.67-7.52 2.02-10.33 3.16-4.94 5.45-6.39c2.29-1.44 4.83-2.17 7.64-2.17 2.19 0 3.98.37 5.37 1.1s2.5 1.6 3.32 2.61q1.23 1.515 1.86 2.82h.36v-18.29h8.54v48.94h-8.38v-5.81h-.53c-.44.88-1.08 1.82-1.92 2.83q-1.26 1.515-3.33 2.58c-1.38.71-3.13 1.07-5.25 1.07Zm2.33-7.02c1.86 0 3.44-.5 4.73-1.5s2.28-2.39 2.96-4.19c.68-1.79 1.02-3.89 1.02-6.27s-.33-4.46-1-6.22-1.65-3.14-2.96-4.12c-1.3-.99-2.89-1.48-4.75-1.48s-3.54.51-4.83 1.53-2.27 2.42-2.92 4.2q-.99 2.685-.99 6.09c0 3.405.33 4.32.99 6.12s1.64 3.23 2.94 4.27 2.91 1.56 4.81 1.56ZM65.35 803.43v-48.94h19.41c3.59 0 6.58.54 8.98 1.63 2.4 1.08 4.19 2.57 5.39 4.45 1.19 1.88 1.79 4.05 1.79 6.5 0 1.93-.38 3.61-1.15 5.04s-1.81 2.61-3.14 3.51c-1.33.91-2.83 1.56-4.52 1.95v.49c1.84.07 3.57.59 5.21 1.56 1.63.97 2.96 2.33 3.97 4.07 1.02 1.74 1.53 3.82 1.53 6.22 0 2.58-.63 4.89-1.9 6.93s-3.15 3.64-5.63 4.81c-2.49 1.17-5.58 1.76-9.28 1.76H65.35Zm10.01-28.37h7.92c1.42 0 2.7-.26 3.84-.77s2.03-1.25 2.68-2.2.97-2.08.97-3.4c0-1.77-.63-3.22-1.89-4.33-1.26-1.12-3.06-1.67-5.4-1.67h-8.11v12.38Zm0 20.13h8.67c2.93 0 5.08-.57 6.44-1.71q2.04-1.71 2.04-4.5c0-1.38-.33-2.6-1-3.66s-1.61-1.89-2.84-2.5c-1.23-.6-2.68-.9-4.37-.9h-8.93v13.27ZM125.17 804.16c-3.68 0-6.86-.79-9.56-2.38-2.69-1.59-4.77-3.8-6.22-6.63-1.46-2.83-2.18-6.14-2.18-9.9s.73-7.13 2.18-9.97c1.46-2.83 3.53-5.05 6.22-6.63 2.69-1.59 5.88-2.38 9.56-2.38s6.89.79 9.57 2.38q4.02 2.385 6.21 6.63c1.46 2.84 2.18 6.16 2.18 9.97s-.73 7.07-2.18 9.9q-2.19 4.26-6.21 6.63c-2.68 1.59-5.87 2.38-9.57 2.38m0-7.75c1.75 0 3.22-.49 4.4-1.46s2.07-2.31 2.66-4.01.89-3.61.89-5.73-.3-4.09-.89-5.78-1.48-3.01-2.66-3.97-2.65-1.44-4.4-1.44-3.21.48-4.38 1.44-2.05 2.29-2.64 3.97c-.59 1.69-.89 3.61-.89 5.78s.3 4.03.89 5.73 1.47 3.03 2.64 4.01c1.17.97 2.63 1.46 4.38 1.46M159.01 754.5v48.94h-9.85V754.5zM180.18 804.06c-2.8 0-5.34-.73-7.6-2.18-2.27-1.46-4.06-3.59-5.37-6.41-1.31-2.81-1.97-6.26-1.97-10.33s.68-7.67 2.04-10.48c1.36-2.8 3.16-4.9 5.42-6.31s4.74-2.1 7.46-2.1q3.12 0 5.19 1.05c1.38.7 2.5 1.57 3.35 2.59.85 1.03 1.49 2.03 1.9 2.99h.33v-18.39h9.85v48.94h-9.69v-5.88h-.49q-.66 1.485-1.95 2.97c-1.29 1.485-1.99 1.83-3.37 2.51s-3.08 1.02-5.09 1.02Zm3.06-7.92c1.66 0 3.09-.46 4.27-1.38s2.08-2.21 2.69-3.86.92-3.58.92-5.8-.3-4.17-.9-5.8-1.5-2.9-2.68-3.81-2.62-1.36-4.3-1.36-3.18.47-4.35 1.41-2.05 2.23-2.64 3.88c-.59 1.64-.89 3.54-.89 5.68s.3 4.05.9 5.71 1.49 2.97 2.66 3.91q1.755 1.41 4.32 1.41ZM99.72 60.55v167.93H65.34V60.55zM161.24 155.56v72.92h-33.81v-126h31.9l.56 31.44h-2.03c3.3-10.52 8.32-18.65 15.05-24.4 6.72-5.75 15.42-8.62 26.09-8.62 8.71 0 16.32 1.9 22.82 5.69s11.53 9.24 15.1 16.34 5.35 15.57 5.35 25.41v80.13h-33.81V154.2c0-7.81-2.01-13.94-6.03-18.37s-9.6-6.65-16.74-6.65c-4.73 0-8.96 1.03-12.68 3.1s-6.61 5.05-8.68 8.96-3.1 8.68-3.1 14.31ZM328 201.88c-1.2.3-2.97.62-5.3.96s-4.13.51-5.41.51c-4.13 0-7.08-.96-8.85-2.87-1.77-1.92-2.65-4.86-2.65-8.85v-63.34h23.55v-25.81h-23.55V72.5h-33.81v29.98h-17.36v25.81h17.36v66.27c0 11.5 3.34 20.33 10.03 26.49s16.34 9.24 28.96 9.24c3.38 0 6.93-.23 10.65-.68a66.5 66.5 0 0 0 11.21-2.37l-4.85-25.36ZM459.45 164.8c0-10.82-1.52-20.21-4.56-28.18-3.04-7.96-7.27-14.59-12.68-19.89s-11.68-9.26-18.82-11.89-14.84-3.94-23.1-3.94c-12.25 0-22.92 2.74-32.01 8.23s-16.12 13.11-21.08 22.88-7.44 21.15-7.44 34.15 2.5 24.79 7.5 34.49c5 9.69 12.15 17.17 21.47 22.43s20.4 7.89 33.25 7.89c9.84 0 18.54-1.43 26.09-4.28s13.84-6.89 18.88-12.12c5.03-5.22 8.57-11.29 10.59-18.2l-30.66-5.75c-1.2 3.23-2.95 5.96-5.24 8.17-2.29 2.22-5.05 3.89-8.28 5.02s-6.84 1.69-10.82 1.69c-5.86 0-10.99-1.24-15.38-3.72s-7.82-6.2-10.26-11.16c-2.21-4.49-3.41-9.94-3.62-16.34h86.18v-9.47Zm-73.77-34.38c4.09-2.71 9.07-4.06 14.93-4.06s10.65 1.33 14.59 4 6.91 6.42 8.9 11.27c1.39 3.4 2.29 7.21 2.71 11.44H373.4q.57-6.405 2.97-11.67c2.1-4.62 5.2-8.28 9.3-10.99ZM479.85 228.47v-126h32.68v21.98h1.35c2.33-7.81 6.22-13.71 11.66-17.69 5.45-3.98 11.7-5.97 18.77-5.97 1.73 0 3.61.09 5.63.28 2.03.19 3.79.47 5.3.85v30.2c-1.5-.52-3.68-.94-6.54-1.24s-5.56-.45-8.12-.45c-5.11 0-9.73 1.11-13.86 3.32-4.13 2.22-7.34 5.3-9.64 9.24-2.29 3.94-3.44 8.55-3.44 13.81v71.68h-33.81ZM65.35 875.08v-48.94h33.96v9.46H76.94v10.12h20.59v9.26H76.94v10.64h22.33v9.46H65.34ZM102.95 875.08l14.09-23.32v8.93l-13.4-22.33h12.15l2.82 5.25c1.01 1.91 1.93 3.84 2.76 5.8s1.67 3.86 2.53 5.7h-4.04c.9-1.82 1.77-3.71 2.63-5.68.85-1.97 1.81-3.91 2.86-5.81l2.96-5.25h11.96l-13.73 22.37v-8.87l14.22 23.22h-12.09l-3.55-6.37a74 74 0 0 1-2.89-5.85c-.88-1.99-1.75-3.9-2.63-5.71h4.04c-.83 1.82-1.67 3.72-2.51 5.71s-1.77 3.94-2.78 5.85l-3.48 6.37h-11.92ZM165.73 838.37v8.51h-22.92v-8.51zm-18.06-8.74h11.46v34.22c0 .96.23 1.68.69 2.15s1.2.71 2.23.71c.39 0 .95-.04 1.66-.13s1.22-.18 1.53-.26l1.48 8.34c-1.29.37-2.54.62-3.74.75s-2.34.2-3.42.2c-3.9 0-6.85-.91-8.87-2.74s-3.02-4.49-3.02-8zM171.4 875.08v-36.72h11.13v6.7h.39q.99-3.645 3.27-5.4c1.52-1.17 3.29-1.76 5.3-1.76.53 0 1.08.03 1.66.1s1.11.16 1.59.29v9.98c-.55-.2-1.26-.34-2.15-.44s-1.68-.15-2.38-.15c-1.4 0-2.66.31-3.78.94a6.8 6.8 0 0 0-2.63 2.58c-.63 1.1-.95 2.38-.95 3.84v20.03h-11.46ZM209.23 875.74c-2.34 0-4.43-.4-6.26-1.2s-3.26-2-4.29-3.61-1.54-3.62-1.54-6.03c0-2.04.36-3.75 1.07-5.16q1.065-2.1 2.97-3.42c1.27-.88 2.73-1.54 4.37-2s3.39-.77 5.25-.92c2.08-.18 3.75-.37 5.03-.58 1.27-.21 2.2-.52 2.79-.94s.89-1 .89-1.74v-.13c0-.85-.2-1.58-.59-2.17q-.585-.885-1.71-1.35c-1.125-.465-1.64-.46-2.69-.46s-1.99.15-2.81.46-1.49.74-2.02 1.31-.9 1.24-1.12 2l-10.38-1.35c.48-2.1 1.43-3.95 2.84-5.53 1.41-1.59 3.26-2.82 5.55-3.71s4.96-1.33 8.03-1.33c2.28 0 4.41.27 6.39.8 1.98.54 3.72 1.32 5.21 2.36s2.65 2.32 3.48 3.84 1.25 3.27 1.25 5.24v24.93h-10.77v-5.16h-.29c-.66 1.27-1.5 2.33-2.51 3.19-1.02.85-2.2 1.51-3.55 1.95-1.35.45-2.87.67-4.58.67Zm3.48-7.59c1.29 0 2.46-.26 3.5-.79s1.87-1.25 2.48-2.17.92-1.98.92-3.19v-3.51c-.33.18-.74.34-1.23.49s-1.03.29-1.62.41q-.885.18-1.77.33c-.59.1-1.16.19-1.71.28-1.12.15-2.07.42-2.86.79s-1.39.85-1.81 1.44-.62 1.3-.62 2.13.21 1.49.62 2.05.97.99 1.67 1.28 1.51.44 2.43.44ZM238.32 875.08v-48.94h20.3c3.63 0 6.69.53 9.16 1.58s4.33 2.5 5.57 4.35 1.86 4.01 1.86 6.49q0 2.79-1.17 4.98c-.78 1.46-1.85 2.66-3.22 3.61s-2.94 1.62-4.71 1.99v.53c1.95.07 3.76.59 5.44 1.56 1.67.97 3.02 2.33 4.04 4.06s1.53 3.78 1.53 6.14c0 2.63-.66 4.97-1.99 7.03q-1.995 3.09-5.76 4.86c-2.52 1.18-5.59 1.77-9.23 1.77h-21.81Zm11.59-28.77h6.73c1.29 0 2.45-.22 3.46-.66q1.53-.66 2.4-1.89c.87-1.23.87-1.82.87-3 0-1.64-.59-2.95-1.77-3.91s-2.77-1.44-4.76-1.44h-6.93zm0 19.41h7.49c2.61 0 4.53-.5 5.76-1.49 1.24-1 1.86-2.37 1.86-4.12 0-1.27-.29-2.38-.89-3.32-.59-.94-1.44-1.67-2.54-2.18-1.11-.51-2.43-.77-3.96-.77h-7.72v11.89ZM299.29 875.77c-3.83 0-7.13-.79-9.89-2.38s-4.88-3.8-6.35-6.63q-2.22-4.26-2.22-9.9c0-5.64.74-7.1 2.22-9.94 1.48-2.83 3.6-5.05 6.35-6.63 2.76-1.59 6.05-2.38 9.89-2.38s7.13.79 9.89 2.38 4.87 3.8 6.34 6.63c1.47 2.84 2.2 6.15 2.2 9.94s-.73 7.07-2.2 9.9-3.58 5.05-6.34 6.63c-2.76 1.59-6.05 2.38-9.89 2.38m0-8.76c1.47 0 2.7-.43 3.71-1.28s1.77-2.05 2.28-3.58.77-3.32.77-5.35-.26-3.82-.77-5.34-1.28-2.7-2.28-3.53-2.24-1.25-3.71-1.25-2.7.42-3.71 1.25-1.77 2.01-2.28 3.53-.77 3.3-.77 5.34.26 3.82.77 5.35 1.28 2.73 2.28 3.58c1.01.85 2.24 1.28 3.71 1.28M334.65 826.15v48.94h-11.46v-48.94zM355.04 875.61c-2.71 0-5.19-.71-7.42-2.12s-4.01-3.51-5.32-6.31c-1.31-2.79-1.97-6.27-1.97-10.43s.68-7.83 2.05-10.62 3.16-4.86 5.39-6.21c2.22-1.35 4.61-2.02 7.18-2.02 1.95 0 3.61.33 4.99 1s2.51 1.52 3.4 2.55 1.56 2.1 2.02 3.22h.26v-18.52h11.43v48.94h-11.3v-5.94h-.39c-.48 1.09-1.18 2.13-2.08 3.12-.91.99-2.04 1.79-3.38 2.41s-2.96.94-4.84.94Zm3.91-8.93c1.45 0 2.69-.41 3.73-1.23s1.83-1.98 2.38-3.46c.55-1.49.82-3.23.82-5.22s-.27-3.79-.82-5.27-1.34-2.62-2.38-3.42-2.28-1.2-3.73-1.2-2.71.41-3.73 1.23-1.79 1.97-2.32 3.45-.79 3.21-.79 5.21.26 3.71.79 5.21 1.3 2.66 2.32 3.48 2.26 1.23 3.73 1.23ZM65.35 946.73v-48.94h21.22c3.72 0 6.85.5 9.39 1.51s4.46 2.42 5.75 4.25 1.94 3.98 1.94 6.45c0 1.79-.39 3.44-1.18 4.93s-1.89 2.73-3.3 3.73-3.07 1.68-4.98 2.05v.53q3.15.105 5.73 1.56c2.58 1.455 3.09 2.32 4.11 4.04q1.53 2.58 1.53 6.03 0 4.005-2.07 7.14c-1.38 2.09-3.35 3.73-5.91 4.93-2.56 1.19-5.62 1.79-9.16 1.79H65.36Zm13.27-29.16h5.45c1.16 0 2.18-.18 3.07-.54s1.58-.89 2.08-1.58.76-1.54.76-2.54c0-1.49-.54-2.64-1.63-3.45-1.08-.81-2.45-1.22-4.09-1.22h-5.65v9.33Zm0 18.59h6.24c2.21 0 3.88-.43 5.01-1.28s1.69-2.09 1.69-3.71c0-1.16-.26-2.14-.79-2.94s-1.28-1.41-2.25-1.82c-.97-.42-2.13-.62-3.46-.62h-6.44v10.38ZM123.64 897.8v48.94h-13.2V897.8zM140.24 947.32c-2.34 0-4.42-.39-6.22-1.17-1.81-.78-3.21-1.95-4.22-3.53s-1.51-3.58-1.51-6.01q0-3.015 1.02-5.16c.68-1.42 1.63-2.59 2.86-3.5s2.65-1.61 4.29-2.1c1.63-.49 3.4-.8 5.3-.94 2.06-.15 3.71-.34 4.94-.56 1.24-.22 2.13-.54 2.69-.97s.84-.99.84-1.69v-.13c0-.63-.17-1.17-.51-1.61s-.82-.77-1.43-1-1.35-.34-2.2-.34-1.59.12-2.27.36-1.24.6-1.69 1.08-.75 1.09-.9 1.84l-11.89-1.18c.35-2.06 1.2-3.93 2.56-5.62s3.24-3.03 5.63-4.04 5.31-1.51 8.75-1.51c2.61 0 4.96.31 7.08.92 2.11.61 3.92 1.47 5.42 2.56s2.65 2.37 3.45 3.83 1.2 3.03 1.2 4.71v25.16h-12.35v-5.19h-.26c-.74 1.38-1.64 2.49-2.68 3.33s-2.22 1.46-3.53 1.86-2.77.59-4.37.59Zm4.27-8.34c1.01 0 1.95-.21 2.84-.62s1.61-1.01 2.17-1.79.84-1.72.84-2.84v-3.02c-.35.13-.72.26-1.12.39-.39.13-.82.25-1.26.36-.45.11-.91.21-1.38.29-.47.09-.97.18-1.49.26-1.03.15-1.87.41-2.51.77-.65.36-1.12.8-1.43 1.31s-.46 1.09-.46 1.72c0 .68.16 1.25.49 1.72s.78.83 1.35 1.07 1.23.36 1.97.36ZM187 947.39c-3.99 0-7.4-.79-10.23-2.38-2.84-1.59-5-3.8-6.5-6.63s-2.25-6.14-2.25-9.9.75-7.07 2.25-9.9 3.67-5.05 6.5-6.63c2.83-1.59 6.25-2.38 10.23-2.38q3.81 0 6.9.99c2.06.66 3.85 1.59 5.37 2.81 1.52 1.21 2.73 2.68 3.63 4.4s1.46 3.64 1.67 5.76l-12.12 1.81c-.15-.96-.38-1.81-.67-2.55-.3-.73-.66-1.35-1.1-1.86-.44-.5-.95-.88-1.53-1.13a4.9 4.9 0 0 0-1.95-.38c-1.16 0-2.17.33-3.02.99s-1.52 1.65-1.99 2.99-.71 3.01-.71 5.03.24 3.67.71 5.02c.47 1.36 1.13 2.38 1.99 3.07.85.69 1.86 1.03 3.02 1.03q1.08 0 1.95-.39c.58-.26 1.09-.65 1.54-1.17.45-.51.82-1.16 1.12-1.92.29-.77.51-1.64.64-2.63l12.12 1.77c-.22 2.19-.78 4.15-1.67 5.9-.9 1.74-2.1 3.23-3.61 4.47s-3.3 2.18-5.37 2.84-4.37.99-6.91.99ZM209.27 946.73v-48.94h13.2v48.94zm11.83-8.67v-15.7h1.84l8.87-12.35h14.84l-14.91 19.25H228zm10.84 8.67-8.41-14.52 8.61-9.39 14.84 23.91zM615.47 373.54l8.11-48.94h15.21q4.11 0 6.78 1.53c1.78 1.02 3.05 2.46 3.79 4.32s.9 4.08.46 6.67q-.465 2.865-1.74 5.25c-.85 1.6-1.93 2.94-3.22 4.02s-2.76 1.82-4.4 2.22v.13c1.6.15 3.02.78 4.25 1.89s2.15 2.56 2.74 4.35.69 3.83.3 6.11c-.42 2.52-1.3 4.71-2.66 6.57s-3.11 3.31-5.25 4.34c-2.15 1.03-4.62 1.54-7.42 1.54zm1.77-1.51h15.34c3.59 0 6.63-1.02 9.13-3.07s4.02-4.73 4.57-8.06c.37-2.25.2-4.24-.51-5.96s-1.87-3.06-3.48-4.04c-1.61-.97-3.56-1.46-5.86-1.46h-15.44l-3.74 22.6Zm4.01-24.11h15.3c2.23 0 4.17-.51 5.81-1.53s2.97-2.36 3.97-4.04c1.01-1.68 1.67-3.49 2-5.44.57-3.46-.02-6.13-1.76-8s-4.4-2.81-7.96-2.81h-13.76l-3.61 21.81ZM668.5 374.33q-3.78 0-6.6-1.92c-2.82-1.92-3.34-3.05-4.38-5.3s-1.56-4.84-1.56-7.75.46-5.57 1.38-8.29c.92-2.73 2.22-5.2 3.89-7.42s3.65-4 5.91-5.34c2.27-1.33 4.75-2 7.44-2q3.78 0 6.57 1.92c1.86 1.28 3.31 3.04 4.35 5.29s1.56 4.82 1.56 7.73-.46 5.54-1.38 8.28-2.21 5.22-3.88 7.46c-1.66 2.23-3.63 4.02-5.9 5.35s-4.74 2-7.41 2Zm.03-1.51c2.47 0 4.75-.63 6.81-1.9s3.86-2.95 5.39-5.04c1.52-2.09 2.7-4.41 3.55-6.95q1.26-3.81 1.26-7.62c0-3.81-.45-4.99-1.35-7.01-.9-2.03-2.17-3.61-3.83-4.76-1.65-1.15-3.6-1.72-5.83-1.72-2.36 0-4.58.6-6.63 1.81-2.06 1.21-3.87 2.84-5.44 4.89-1.57 2.06-2.79 4.36-3.68 6.91s-1.33 5.17-1.33 7.87q0 5.985 3 9.75c2 2.52 4.69 3.78 8.06 3.78ZM686.39 373.54l.26-1.51h.79c1.62 0 2.93-.26 3.94-.79s1.84-1.4 2.51-2.63 1.28-2.88 1.84-4.96 1.18-4.67 1.86-7.78l4.2-19.05h21.02l-6.08 36.72h-1.51l5.81-35.21h-18.1l-3.84 17.6c-.9 4.09-1.75 7.44-2.56 10.03s-1.91 4.51-3.3 5.73c-1.39 1.23-3.41 1.84-6.06 1.84h-.79ZM741.37 374.33q-3.78 0-6.6-1.92c-2.82-1.92-3.34-3.05-4.38-5.3s-1.56-4.84-1.56-7.75.46-5.57 1.38-8.29c.92-2.73 2.22-5.2 3.89-7.42s3.65-4 5.91-5.34c2.27-1.33 4.75-2 7.44-2q3.78 0 6.57 1.92c1.86 1.28 3.31 3.04 4.35 5.29s1.56 4.82 1.56 7.73-.46 5.54-1.38 8.28-2.21 5.22-3.88 7.46c-1.66 2.23-3.63 4.02-5.9 5.35s-4.74 2-7.41 2Zm.03-1.51c2.47 0 4.75-.63 6.81-1.9s3.86-2.95 5.39-5.04c1.52-2.09 2.7-4.41 3.55-6.95q1.26-3.81 1.26-7.62c0-3.81-.45-4.99-1.35-7.01-.9-2.03-2.17-3.61-3.83-4.76-1.65-1.15-3.6-1.72-5.83-1.72-2.36 0-4.58.6-6.63 1.81-2.06 1.21-3.87 2.84-5.44 4.89-1.57 2.06-2.79 4.36-3.68 6.91s-1.33 5.17-1.33 7.87q0 5.985 3 9.75c2 2.52 4.69 3.78 8.06 3.78ZM779.16 374.07q-3.78 0-6.6-1.89c-1.88-1.26-3.34-3.01-4.38-5.24q-1.56-3.345-1.56-7.68c0-4.335.46-5.57 1.38-8.29.92-2.73 2.22-5.19 3.89-7.41 1.67-2.21 3.64-3.97 5.89-5.29 2.25-1.31 4.73-1.97 7.42-1.97 2.06 0 3.78.36 5.17 1.08s2.51 1.58 3.37 2.56 1.49 1.88 1.91 2.68.66 1.28.72 1.43l-1.38.66q-.105-.255-.66-1.35c-.555-1.095-.93-1.51-1.67-2.36s-1.72-1.6-2.94-2.23c-1.21-.63-2.72-.95-4.52-.95-2.58 0-4.92.63-7.01 1.89s-3.89 2.94-5.39 5.04-2.66 4.43-3.46 7c-.81 2.56-1.21 5.15-1.21 7.75s.45 4.95 1.35 6.91 2.17 3.48 3.83 4.55c1.65 1.07 3.61 1.61 5.86 1.61 1.84 0 3.5-.33 4.99-.99s2.77-1.43 3.84-2.33 1.92-1.71 2.54-2.45c.62-.73.99-1.18 1.1-1.33l1.21.89c-.11.15-.5.63-1.18 1.43s-1.61 1.69-2.79 2.66-2.59 1.82-4.22 2.55c-1.63.72-3.46 1.08-5.5 1.08ZM798.32 373.54h-1.74l12.97-16.68h1.71zm24.57 0h-1.51l5.81-35.21h-10.8c-3.11 0-5.78.83-8.01 2.48s-3.57 3.86-4.01 6.62c-.46 2.71.15 4.89 1.84 6.52s4.08 2.45 7.19 2.45h11.53l-.23 1.51h-11.56q-5.325 0-8.19-2.91c-1.92-1.94-2.61-4.46-2.08-7.57.35-2.12 1.17-3.98 2.45-5.57s2.9-2.82 4.84-3.71c1.95-.89 4.11-1.33 6.47-1.33h12.35l-6.08 36.72ZM842.43 336.82l-6.08 36.72h-1.51l6.08-36.72zm20.85 17.34-.26 1.51h-24.24l.26-1.51zm3.65-17.34-6.08 36.72h-1.51l6.08-36.72zM885.5 374.33q-3.78 0-6.6-1.92c-2.82-1.92-3.34-3.05-4.38-5.3s-1.56-4.84-1.56-7.75.46-5.57 1.38-8.29c.92-2.73 2.22-5.2 3.89-7.42s3.65-4 5.91-5.34c2.27-1.33 4.75-2 7.44-2q3.78 0 6.57 1.92c1.86 1.28 3.31 3.04 4.35 5.29s1.56 4.82 1.56 7.73-.46 5.54-1.38 8.28-2.21 5.22-3.88 7.46c-1.66 2.23-3.63 4.02-5.9 5.35s-4.74 2-7.41 2Zm.03-1.51c2.47 0 4.75-.63 6.81-1.9s3.86-2.95 5.39-5.04c1.52-2.09 2.7-4.41 3.55-6.95q1.26-3.81 1.26-7.62c0-3.81-.45-4.99-1.35-7.01-.9-2.03-2.17-3.61-3.83-4.76-1.65-1.15-3.6-1.72-5.83-1.72-2.36 0-4.58.6-6.63 1.81-2.06 1.21-3.87 2.84-5.44 4.89-1.57 2.06-2.79 4.36-3.68 6.91s-1.33 5.17-1.33 7.87q0 5.985 3 9.75c2 2.52 4.69 3.78 8.06 3.78ZM935.35 373.54h-1.51l5.55-33.57h-.16l-27.72 33.57h-1.38l6.08-36.72h1.51l-5.55 33.6h.16l27.75-33.6h1.35zm-5.72-41.71c-1.6 0-2.98-.39-4.16-1.17a6.9 6.9 0 0 1-2.58-3.12c-.55-1.3-.69-2.74-.43-4.32h1.51c-.33 1.99.09 3.68 1.25 5.07s2.71 2.08 4.66 2.08c1.31 0 2.56-.32 3.73-.97a9.5 9.5 0 0 0 2.99-2.59 8.07 8.07 0 0 0 1.56-3.6h1.51c-.26 1.58-.89 3.02-1.87 4.32s-2.19 2.34-3.61 3.12a9.3 9.3 0 0 1-4.56 1.17ZM491.96 445.85c-2.76 0-5.16-.45-7.21-1.36s-3.75-2.13-5.11-3.66-2.38-3.25-3.05-5.16c-.68-1.91-1.03-3.84-1.05-5.81h3.09c.07 1.66.39 3.27.99 4.83.59 1.55 1.46 2.96 2.59 4.2 1.14 1.25 2.54 2.23 4.22 2.96 1.67.72 3.62 1.08 5.83 1.08 3.22 0 6.33-.85 9.33-2.54 3-1.7 5.59-4.19 7.78-7.49 2.19-3.29 3.68-7.34 4.47-12.14.81-4.79.69-8.84-.36-12.13-1.05-3.3-2.76-5.8-5.14-7.52s-5.17-2.58-8.39-2.58q-3.315 0-6.24 1.08c-1.95.72-3.72 1.7-5.3 2.94a21 21 0 0 0-4.09 4.19 19.5 19.5 0 0 0-2.63 4.86h-3.12c.68-2.01 1.67-3.97 2.99-5.88 1.31-1.9 2.91-3.62 4.78-5.14s3.98-2.73 6.32-3.63 4.88-1.35 7.62-1.35c4.09 0 7.53 1.05 10.3 3.14s4.72 5.01 5.86 8.77 1.28 8.16.43 13.22c-.81 5.06-2.41 9.47-4.79 13.24s-5.31 6.69-8.77 8.77-7.24 3.12-11.33 3.12Zm-2.03-24.04.43-2.86h24.96l-.46 2.86zM522.09 445.19l6.08-36.72h2.96l-2.79 17.05H533l16.52-17.05h3.71l-17.57 18.2 11.96 18.52h-3.74l-10.87-16.85h-5.12l-2.83 16.85h-2.96ZM566.75 445.81c-2.67 0-4.99-.63-6.95-1.89s-3.48-3-4.56-5.24-1.63-4.82-1.63-7.75.46-5.63 1.38-8.36 2.22-5.19 3.91-7.39 3.69-3.95 6.01-5.25 4.89-1.95 7.72-1.95c1.97 0 3.68.32 5.12.95 1.45.64 2.64 1.43 3.6 2.38s1.69 1.91 2.22 2.87.85 1.76.98 2.4l-2.86.85c-.07-.44-.29-1.02-.67-1.76-.38-.73-.93-1.48-1.64-2.23s-1.63-1.4-2.74-1.92c-1.12-.53-2.47-.79-4.07-.79-2.45 0-4.66.6-6.63 1.79s-3.65 2.78-5.04 4.75-2.45 4.16-3.19 6.55-1.1 4.81-1.1 7.24.39 4.45 1.18 6.26 1.94 3.21 3.46 4.2 3.37 1.49 5.53 1.49c1.64 0 3.15-.27 4.52-.82q2.055-.825 3.6-2.04c1.03-.81 1.87-1.6 2.51-2.36.65-.77 1.08-1.37 1.3-1.81l2.63 1.21c-.33.66-.91 1.46-1.74 2.41s-1.88 1.9-3.14 2.84-2.7 1.74-4.33 2.38-3.42.97-5.37.97ZM595.46 445.19l5.58-33.89h-12.32l.46-2.83h27.62l-.46 2.83h-12.32l-5.62 33.89h-2.96ZM614.58 458.92l8.37-50.45h2.89l-1.38 8.21h.23c.81-1.6 1.86-3.06 3.14-4.38s2.77-2.38 4.47-3.15c1.7-.78 3.57-1.17 5.63-1.17 2.54 0 4.71.6 6.5 1.81 1.79 1.2 3.17 2.89 4.12 5.06s1.43 4.69 1.43 7.55-.41 5.53-1.22 8.33c-.81 2.79-1.99 5.34-3.53 7.64s-3.43 4.14-5.65 5.53-4.74 2.09-7.54 2.09c-2.12 0-3.91-.41-5.37-1.21-1.46-.81-2.61-1.89-3.47-3.25-.85-1.36-1.43-2.82-1.74-4.4h-.3l-3.65 21.81h-2.96Zm17.24-15.7c2.39 0 4.52-.62 6.39-1.87s3.46-2.9 4.78-4.94c1.31-2.05 2.31-4.29 2.99-6.72s1.02-4.83 1.02-7.19c0-3.46-.79-6.28-2.38-8.47s-3.92-3.28-7.01-3.28c-2.41 0-4.55.61-6.42 1.84s-3.46 2.86-4.76 4.89-2.29 4.27-2.97 6.7-1.02 4.85-1.02 7.26c0 3.48.8 6.32 2.41 8.51s3.94 3.28 6.98 3.28ZM668.11 445.98c-2.93 0-5.36-.82-7.29-2.45q-2.895-2.445-3.99-6.75c-.73-2.87-.8-6.15-.21-9.85.61-3.7 1.77-6.97 3.46-9.82 1.7-2.85 3.78-5.08 6.26-6.7 2.47-1.62 5.18-2.43 8.11-2.43 2.08 0 3.83.39 5.25 1.18s2.55 1.84 3.38 3.17q1.245 1.995 1.71 4.35h.29l1.35-8.21h2.99l-6.08 36.72h-2.92l1.31-8.01h-.36c-.83 1.58-1.89 3.03-3.17 4.37a15.1 15.1 0 0 1-4.45 3.22c-1.69.81-3.57 1.21-5.65 1.21Zm.79-2.76q3.705 0 6.72-2.13c2-1.42 3.68-3.37 5.02-5.83 1.35-2.46 2.27-5.25 2.78-8.36.53-3.11.51-5.88-.03-8.31-.55-2.43-1.59-4.35-3.12-5.75s-3.54-2.1-6.01-2.1-4.76.71-6.78 2.13c-2.03 1.42-3.71 3.36-5.06 5.8s-2.27 5.18-2.78 8.23c-.5 3.07-.49 5.83.05 8.29s1.58 4.42 3.14 5.86c1.55 1.45 3.58 2.17 6.08 2.17ZM708.04 445.81c-2.67 0-4.99-.63-6.95-1.89s-3.48-3-4.56-5.24-1.63-4.82-1.63-7.75.46-5.63 1.38-8.36 2.22-5.19 3.91-7.39 3.69-3.95 6.01-5.25 4.89-1.95 7.72-1.95c1.97 0 3.68.32 5.12.95 1.45.64 2.64 1.43 3.6 2.38s1.69 1.91 2.22 2.87.85 1.76.98 2.4l-2.86.85c-.07-.44-.29-1.02-.67-1.76-.38-.73-.93-1.48-1.64-2.23s-1.63-1.4-2.74-1.92c-1.12-.53-2.47-.79-4.07-.79-2.45 0-4.66.6-6.63 1.79s-3.65 2.78-5.04 4.75-2.45 4.16-3.19 6.55-1.1 4.81-1.1 7.24.39 4.45 1.18 6.26 1.94 3.21 3.46 4.2 3.37 1.49 5.53 1.49c1.64 0 3.15-.27 4.52-.82q2.055-.825 3.6-2.04c1.03-.81 1.87-1.6 2.51-2.36.65-.77 1.08-1.37 1.3-1.81l2.63 1.21c-.33.66-.91 1.46-1.74 2.41s-1.88 1.9-3.14 2.84-2.7 1.74-4.33 2.38-3.42.97-5.37.97ZM729.53 445.19l6.08-36.72h13.93c3.88 0 6.77.8 8.69 2.41s2.64 3.8 2.18 6.58c-.35 2.12-1.26 3.91-2.74 5.35-1.48 1.45-3.31 2.45-5.5 3.02 1.45.29 2.68.84 3.71 1.67s1.77 1.89 2.23 3.17.56 2.76.29 4.45c-.33 1.97-1.09 3.71-2.3 5.22s-2.73 2.69-4.57 3.55c-1.84.85-3.9 1.28-6.17 1.28h-15.83Zm3.34-2.79h12.97c2.45 0 4.56-.68 6.32-2.04s2.84-3.17 3.24-5.45q.525-3.255-1.17-5.34c-1.13-1.39-2.79-2.08-4.98-2.08h-13.93l-2.46 14.91Zm2.9-17.57h11.53c2.67 0 4.93-.66 6.78-1.97q2.775-1.965 3.3-5.22c.33-2.04-.24-3.61-1.69-4.71-1.46-1.11-3.66-1.66-6.62-1.66H738zM779.73 445.81c-2.67 0-5.02-.6-7.04-1.79s-3.6-2.86-4.71-4.99c-1.12-2.13-1.67-4.61-1.67-7.44 0-3.39.49-6.54 1.48-9.43s2.38-5.41 4.17-7.55c1.79-2.15 3.9-3.81 6.32-4.99s5.05-1.77 7.9-1.77c2.25 0 4.18.37 5.76 1.1 1.59.73 2.8 1.8 3.65 3.19q1.26 2.085 1.26 5.01c0 2.34-.62 4.24-1.86 5.68-1.24 1.45-3.06 2.56-5.47 3.33s-5.37 1.3-8.88 1.58-7.55.41-12.1.41l.26-2.5c4.05 0 7.64-.09 10.76-.26s5.74-.54 7.85-1.1 3.72-1.41 4.81-2.55 1.64-2.67 1.64-4.6q0-3.18-2.04-4.86c-1.36-1.12-3.31-1.67-5.85-1.67s-4.94.56-7.01 1.69-3.83 2.67-5.29 4.63-2.57 4.19-3.33 6.7c-.77 2.51-1.15 5.15-1.15 7.93 0 2.25.42 4.25 1.26 5.98s2.06 3.08 3.66 4.06c1.6.97 3.51 1.46 5.75 1.46 2.45 0 4.76-.58 6.91-1.72 2.16-1.15 3.91-2.64 5.27-4.48l2.63 1.15q-2.37 3.51-6.39 5.67c-2.68 1.43-5.53 2.15-8.56 2.15ZM808.94 445.19l5.58-33.89H802.2l.46-2.83h27.62l-.46 2.83H817.5l-5.62 33.89h-2.96ZM823.06 445.19l.46-2.83h.95c1.45 0 2.64-.25 3.58-.74s1.74-1.33 2.4-2.51 1.26-2.79 1.82-4.83 1.17-4.59 1.82-7.65l3.94-18.16h22.27l-6.08 36.72h-2.99l5.62-33.89h-16.49l-3.45 16.06c-.9 4.09-1.81 7.46-2.74 10.1s-2.16 4.59-3.68 5.85-3.61 1.89-6.26 1.89h-1.18ZM871.35 423.51h10.61q4.065 0 6.75 1.35c1.78.9 3.06 2.16 3.83 3.78s.96 3.51.59 5.68c-.35 2.15-1.18 4.04-2.5 5.68s-3.01 2.92-5.09 3.83-4.47 1.36-7.16 1.36h-12.84l6.08-36.72h2.96L869 442.36h9.85c3.07 0 5.62-.72 7.65-2.17s3.25-3.38 3.65-5.81c.39-2.45-.19-4.41-1.74-5.86s-3.85-2.18-6.9-2.18h-10.64l.49-2.83Zm23.58 21.68 6.08-36.72h2.96l-6.08 36.72zM935.77 445.19h-2.99l5.16-31.2h-.23l-25.75 31.2h-2.79l6.08-36.72h2.96l-5.16 31.27h.26l25.78-31.27h2.76zm-6.43-41.78c-1.64 0-3.07-.39-4.29-1.18a7 7 0 0 1-2.68-3.19c-.57-1.33-.72-2.82-.46-4.47h2.46c-.31 1.84.07 3.38 1.12 4.62s2.47 1.86 4.27 1.86c1.2 0 2.34-.28 3.42-.85a8.1 8.1 0 0 0 2.71-2.32c.73-.97 1.2-2.07 1.4-3.3h2.46q-.39 2.46-1.92 4.47a11.5 11.5 0 0 1-3.74 3.19 9.9 9.9 0 0 1-4.75 1.18ZM695.2 517.5c-3.63 0-6.79-.79-9.46-2.37s-4.74-3.83-6.19-6.75-2.18-6.39-2.18-10.39.59-7.58 1.77-11.23c1.18-3.66 2.88-6.95 5.11-9.89 2.22-2.93 4.91-5.27 8.06-7.01s6.7-2.61 10.64-2.61c2.65 0 5.02.41 7.11 1.22s3.87 1.94 5.34 3.4 2.59 3.15 3.38 5.09 1.18 4.05 1.18 6.32h-4.66c-.07-1.66-.39-3.2-.99-4.61-.59-1.41-1.43-2.65-2.51-3.71s-2.39-1.88-3.91-2.46-3.22-.87-5.11-.87q-4.8 0-8.64 2.22c-2.56 1.48-4.76 3.48-6.58 5.99q-2.745 3.78-4.2 8.46c-.97 3.12-1.46 6.31-1.46 9.57s.58 6.13 1.74 8.41 2.75 3.99 4.78 5.14c2.02 1.15 4.34 1.72 6.95 1.72q2.925 0 5.58-.87c2.655-.87 3.4-1.4 4.89-2.46s2.79-2.3 3.89-3.71 1.96-2.95 2.58-4.61h4.7a24.3 24.3 0 0 1-8.17 11.37c-1.9 1.47-4.01 2.61-6.31 3.43q-3.45 1.23-7.32 1.23ZM722.67 516.84l6.08-36.72h14.48c3.96 0 6.93.85 8.9 2.56s2.71 4 2.23 6.86c-.35 2.12-1.27 3.86-2.76 5.21s-3.34 2.26-5.55 2.74c1.42.26 2.69.8 3.79 1.61a7.3 7.3 0 0 1 2.46 3.17c.54 1.3.65 2.84.34 4.61-.31 1.93-1.07 3.64-2.3 5.14s-2.79 2.68-4.68 3.53-4.02 1.28-6.39 1.28h-16.62Zm4.93-4.11h12.35c2.12 0 3.94-.55 5.45-1.64s2.43-2.62 2.76-4.57c.33-1.99 0-3.61-1-4.86s-2.52-1.87-4.58-1.87h-12.81zm2.76-16.75h10.51c2.41 0 4.43-.55 6.06-1.66s2.61-2.61 2.94-4.52c.28-1.79-.22-3.17-1.53-4.14-1.3-.96-3.23-1.44-5.8-1.44h-10.21zM774.13 517.53c-2.87 0-5.34-.59-7.42-1.77s-3.7-2.86-4.84-5.02-1.72-4.74-1.72-7.72c0-3.31.5-6.39 1.51-9.25s2.42-5.36 4.24-7.5 3.94-3.82 6.35-5.03c2.42-1.2 5.04-1.81 7.87-1.81 2.3 0 4.29.39 5.96 1.17s2.96 1.88 3.86 3.32c.9 1.43 1.35 3.15 1.35 5.14 0 2.21-.58 4.05-1.72 5.5s-2.88 2.61-5.19 3.45-5.22 1.44-8.74 1.79c-3.51.35-7.61.53-12.3.53l.53-3.48c4.03 0 7.49-.1 10.39-.3s5.28-.57 7.14-1.13 3.23-1.35 4.12-2.38 1.33-2.37 1.33-4.01c0-1.77-.63-3.15-1.9-4.12s-3.01-1.46-5.22-1.46c-2.54 0-4.76.58-6.67 1.74a15.1 15.1 0 0 0-4.76 4.6 21.9 21.9 0 0 0-2.87 6.32c-.65 2.31-.97 4.61-.97 6.91 0 2.01.36 3.82 1.08 5.4a8.5 8.5 0 0 0 3.28 3.76q2.205 1.38 5.55 1.38c2.41 0 4.61-.54 6.6-1.63 1.99-1.08 3.56-2.52 4.7-4.32l4.04 1.35q-2.205 3.915-6.39 6.24c-4.185 2.325-5.85 2.33-9.18 2.33ZM803.53 516.84l5.42-32.58h-12.22l.69-4.14h28.8l-.69 4.14h-12.15l-5.39 32.58h-4.47ZM819.09 516.84l.69-4.14h1.15c1.27 0 2.34-.24 3.2-.71s1.62-1.27 2.27-2.4 1.25-2.68 1.82-4.66 1.17-4.5 1.81-7.57l3.65-17.24h23.52l-6.08 36.72h-4.47l5.39-32.58h-14.81l-3.12 14.52c-.85 4.12-1.81 7.5-2.87 10.17-1.06 2.66-2.41 4.64-4.06 5.94-1.64 1.3-3.8 1.95-6.47 1.95h-1.61ZM869.18 494.21h10.58c2.8 0 5.11.48 6.91 1.43 1.81.95 3.08 2.27 3.83 3.96.74 1.69.94 3.63.59 5.85q-.555 3.315-2.55 5.88c-1.32 1.71-3.05 3.05-5.19 4.04s-4.59 1.48-7.37 1.48h-14.19l6.08-36.72h4.47l-5.42 32.58h9.75c2.65 0 4.88-.66 6.68-1.97 1.81-1.31 2.87-3.01 3.2-5.09q.555-3.255-1.5-5.25c-1.37-1.33-3.38-2-6.03-2h-10.58l.72-4.17Zm23.91 22.63 6.08-36.72h4.47l-6.08 36.72zM936.23 516.84h-4.47l4.79-28.84h-.36l-23.78 28.84h-4.2l6.08-36.72h4.47l-4.76 28.9h.3l23.84-28.9h4.17zm-7.09-41.81c-1.73 0-3.22-.41-4.48-1.23s-2.18-1.92-2.76-3.28-.73-2.88-.44-4.55h3.38q-.39 2.49.99 4.14c.92 1.1 2.21 1.64 3.88 1.64 1.12 0 2.15-.25 3.1-.76q1.425-.75 2.43-2.07c1.005-1.32 1.09-1.86 1.26-2.96h3.38c-.28 1.66-.95 3.19-2 4.57a11.7 11.7 0 0 1-3.86 3.28c-1.52.81-3.15 1.21-4.88 1.21ZM525.04 588.49l8.11-48.94h6.24l-3.51 21.15h25.68l3.51-21.15h6.24l-8.11 48.94h-6.24l3.71-22.27h-25.72l-3.68 22.27h-6.24ZM588.2 589.28q-4.44 0-7.62-1.86c-2.12-1.24-3.76-2.98-4.91-5.24s-1.72-4.89-1.72-7.92.45-5.74 1.36-8.47c.91-2.74 2.22-5.19 3.94-7.37a19.3 19.3 0 0 1 6.24-5.19c2.44-1.28 5.19-1.92 8.26-1.92s5.51.61 7.65 1.84c2.15 1.23 3.79 2.97 4.94 5.22 1.15 2.26 1.72 4.92 1.72 7.98s-.46 5.8-1.38 8.54-2.25 5.19-3.99 7.36a19.3 19.3 0 0 1-6.27 5.14c-2.44 1.26-5.18 1.89-8.23 1.89Zm.13-5.29c2.25 0 4.24-.53 5.96-1.58s3.16-2.44 4.32-4.15 2.04-3.61 2.63-5.67.89-4.09.89-6.11c0-1.86-.3-3.54-.89-5.02-.59-1.49-1.51-2.67-2.76-3.55s-2.88-1.31-4.89-1.31c-2.23 0-4.2.53-5.91 1.58s-3.14 2.44-4.3 4.17a20 20 0 0 0-2.63 5.7c-.59 2.07-.89 4.12-.89 6.16 0 2.76.67 5.08 2 6.96 1.34 1.88 3.49 2.83 6.47 2.83ZM610.26 602.22l8.38-50.45h5.71l-.99 5.88h.3c.53-.74 1.25-1.61 2.18-2.61s2.16-1.87 3.7-2.61c1.53-.74 3.46-1.12 5.78-1.12 2.69 0 5.02.59 7 1.77 1.97 1.18 3.49 2.87 4.57 5.06 1.07 2.19 1.61 4.81 1.61 7.85 0 2.85-.42 5.65-1.26 8.42q-1.26 4.155-3.66 7.5c-2.4 3.345-3.55 4.02-5.86 5.35s-4.93 2-7.87 2c-2.39 0-4.24-.41-5.57-1.23s-2.3-1.76-2.92-2.81-1.08-1.92-1.36-2.59h-.56l-3.25 19.57h-5.91Zm18.78-18.23c2.19 0 4.12-.54 5.8-1.61 1.67-1.07 3.09-2.49 4.24-4.25s2.01-3.69 2.59-5.78.87-4.15.87-6.19c0-2.8-.66-5.1-1.99-6.88s-3.4-2.68-6.22-2.68c-2.21 0-4.15.52-5.81 1.56s-3.05 2.42-4.15 4.15-1.94 3.65-2.5 5.75-.84 4.21-.84 6.34c0 2.91.67 5.24 2 6.98s3.34 2.61 6.01 2.61M653.07 588.49l6.08-36.72h8.7l4.99 20.3c.33 1.29.6 2.51.8 3.65s.38 2.22.51 3.25.25 2.02.34 2.97c.1.95.18 1.89.25 2.81h-.99c.39-.99.79-1.96 1.2-2.92a88 88 0 0 1 2.87-6.17c.57-1.12 1.22-2.31 1.94-3.58l11.59-20.3h9.2l-6.08 36.72h-5.94l3.19-19.18c.2-1.18.41-2.42.64-3.71s.46-2.6.69-3.92.47-2.63.71-3.92l.69-3.71h.66c-.81 1.93-1.58 3.68-2.3 5.25s-1.5 3.15-2.33 4.73-1.82 3.34-2.96 5.29l-11.2 19.18h-5.19l-4.93-19.18q-.72-2.895-1.2-5.22c-.32-1.55-.58-3.12-.77-4.71-.2-1.59-.39-3.37-.59-5.34h.79c-.2 1.29-.38 2.57-.56 3.84l-.54 3.79-.57 3.79c-.19 1.27-.41 2.55-.62 3.84l-3.19 19.18h-5.88ZM717.8 589.28c-3.04 0-5.61-.78-7.69-2.35q-3.12-2.355-4.38-6.63c-1.26-4.275-.95-6.22-.31-10.1.66-3.9 1.88-7.25 3.68-10.07s4-4.99 6.6-6.52 5.43-2.3 8.47-2.3c2.36 0 4.18.39 5.45 1.17s2.19 1.66 2.78 2.66c.58 1 1.02 1.83 1.33 2.51h.49l.95-5.88h5.95l-6.08 36.72h-5.75l.92-5.68h-.69c-.55.72-1.29 1.59-2.23 2.61s-2.18 1.92-3.71 2.69c-1.53.78-3.46 1.17-5.78 1.17m1.84-5.29c2.23 0 4.21-.59 5.93-1.77q2.58-1.77 4.29-4.89c1.14-2.08 1.93-4.48 2.37-7.19.46-2.71.46-5.08.02-7.11-.45-2.02-1.35-3.6-2.69-4.73-1.35-1.13-3.14-1.69-5.37-1.69-2.34 0-4.4.61-6.16 1.82s-3.2 2.84-4.3 4.88-1.87 4.31-2.28 6.83c-.42 2.56-.41 4.89.03 7 .44 2.1 1.33 3.77 2.69 5.01q2.04 1.86 5.49 1.86ZM740.44 588.49l.89-5.45h1.31c1.09 0 2.04-.22 2.84-.66s1.52-1.2 2.15-2.28 1.24-2.59 1.81-4.53 1.16-4.42 1.77-7.44l3.38-16.36h24.76l-6.08 36.72h-5.95l5.19-31.27h-13.2l-2.73 12.97c-.85 4.12-1.87 7.53-3.05 10.23s-2.66 4.72-4.43 6.06c-1.77 1.33-4 2-6.67 2h-2ZM792.2 564.94h10.54c2.91 0 5.28.5 7.11 1.51s3.11 2.39 3.84 4.14.91 3.76.54 6.01c-.37 2.23-1.23 4.25-2.58 6.04s-3.1 3.22-5.27 4.27-4.69 1.58-7.55 1.58H783.3l6.08-36.72h5.91l-5.19 31.27h9.62c2.23 0 4.14-.58 5.71-1.76 1.58-1.17 2.51-2.64 2.79-4.42.31-1.88-.13-3.43-1.31-4.63s-2.88-1.81-5.09-1.81h-10.58l.95-5.48ZM830.89 551.77l-6.08 36.72h-5.91l6.08-36.72zm16.23 15.14-.92 5.45h-20.13l.92-5.45zm7.06-15.14-6.08 36.72h-5.91l6.08-36.72zM867.01 564.94h10.54c2.91 0 5.28.5 7.11 1.51s3.11 2.39 3.84 4.14.91 3.76.54 6.01c-.37 2.23-1.23 4.25-2.58 6.04s-3.1 3.22-5.27 4.27-4.69 1.58-7.55 1.58h-15.53l6.08-36.72h5.91l-5.19 31.27h9.62c2.23 0 4.14-.58 5.71-1.76 1.58-1.17 2.51-2.64 2.79-4.42.31-1.88-.13-3.43-1.31-4.63s-2.88-1.81-5.09-1.81h-10.58l.95-5.48Zm24.34 23.55 6.08-36.72h5.91l-6.08 36.72zM936.66 588.49h-5.94l4.4-26.47h-.43l-21.81 26.47h-5.62l6.08-36.72h5.91l-4.37 26.57h.39l21.87-26.57h5.58l-6.08 36.72Zm-7.82-41.88c-1.77 0-3.31-.42-4.61-1.25s-2.25-1.95-2.86-3.35-.76-2.97-.48-4.7h4.33c-.24 1.51.04 2.74.85 3.68q1.215 1.41 3.48 1.41c1.01 0 1.94-.21 2.79-.64s1.57-1.02 2.15-1.79.95-1.65 1.1-2.66h4.34c-.29 1.73-.97 3.3-2.05 4.71a11.84 11.84 0 0 1-3.99 3.35c-1.58.82-3.26 1.23-5.06 1.23ZM677.48 660.79q-5.655 0-9.87-2.37c-4.215-2.37-5-3.84-6.55-6.8s-2.33-6.5-2.33-10.64c0-3.88.61-7.64 1.84-11.28s2.98-6.91 5.25-9.79 5.03-5.16 8.26-6.85 6.85-2.53 10.85-2.53c2.63 0 5.03.37 7.21 1.1s4.07 1.81 5.68 3.22 2.85 3.14 3.71 5.19c.87 2.05 1.29 4.37 1.26 6.98h-7.52q-.06-2.295-.87-4.11c-.54-1.2-1.28-2.22-2.22-3.04s-2.05-1.45-3.32-1.87-2.65-.64-4.14-.64c-2.93 0-5.56.67-7.87 2.02s-4.26 3.15-5.85 5.42-2.8 4.79-3.65 7.59q-1.26 4.185-1.26 8.46c0 4.275.49 5.28 1.48 7.22.99 1.95 2.36 3.42 4.12 4.4s3.79 1.48 6.09 1.48c1.6 0 3.15-.21 4.66-.64s2.91-1.05 4.2-1.87a14.36 14.36 0 0 0 5.78-7.15h7.55c-.79 2.41-1.9 4.61-3.35 6.62-1.45 2-3.16 3.75-5.14 5.24a23.1 23.1 0 0 1-6.52 3.43c-2.37.8-4.87 1.2-7.52 1.2ZM702.3 673.87l8.38-50.45h7.03l-1.02 5.98h.29q.825-1.245 2.25-2.76c.95-1.01 2.18-1.87 3.69-2.59q2.265-1.08 5.58-1.08c2.61 0 4.88.57 6.83 1.72s3.46 2.81 4.55 4.99c1.08 2.18 1.63 4.81 1.63 7.9 0 2.78-.41 5.55-1.22 8.31s-1.99 5.27-3.55 7.52-3.48 4.06-5.76 5.42c-2.29 1.36-4.91 2.04-7.87 2.04-2.3 0-4.11-.39-5.44-1.18s-2.32-1.71-2.97-2.76q-.99-1.575-1.41-2.73h-.53l-3.25 19.67h-7.23Zm19.34-19.15c2.08 0 3.9-.52 5.45-1.56s2.86-2.4 3.92-4.07 1.86-3.5 2.38-5.47c.53-1.97.79-3.89.79-5.75 0-2.58-.6-4.69-1.81-6.32-1.2-1.63-3.09-2.45-5.65-2.45-2.06 0-3.86.5-5.4 1.49-1.54 1-2.83 2.31-3.88 3.94s-1.82 3.44-2.35 5.42-.79 3.96-.79 5.93c0 2.69.61 4.84 1.84 6.44s3.05 2.4 5.49 2.4ZM761.22 660.93c-3.11 0-5.77-.59-8-1.77s-3.94-2.88-5.14-5.11c-1.2-2.22-1.81-4.89-1.81-8s.51-6.17 1.54-8.98 2.47-5.3 4.32-7.46 4.01-3.85 6.49-5.07c2.47-1.23 5.16-1.84 8.05-1.84 2.45 0 4.6.42 6.45 1.25s3.29 2.01 4.32 3.55 1.54 3.35 1.54 5.45-.58 3.92-1.72 5.39-2.9 2.64-5.25 3.53-5.33 1.53-8.93 1.92-7.84.59-12.73.59l.89-4.96c4.05 0 7.42-.1 10.12-.31 2.69-.21 4.82-.55 6.37-1.03s2.66-1.13 3.3-1.95.97-1.86.97-3.1c0-1.31-.55-2.37-1.64-3.15-1.1-.79-2.56-1.18-4.4-1.18-2.36 0-4.36.58-5.98 1.74s-2.92 2.65-3.91 4.47-1.7 3.72-2.15 5.71-.67 3.82-.67 5.48.27 3.17.8 4.52c.54 1.35 1.42 2.41 2.66 3.2s2.9 1.18 4.98 1.18c2.19 0 4.13-.47 5.83-1.41s2.96-2.22 3.79-3.84l6.6 1.41q-1.935 4.5-6.42 7.14t-10.26 2.64ZM778.81 670.75l2.79-16.85h2.96c.88-.7 1.66-1.53 2.36-2.5.7-.96 1.35-2.12 1.95-3.46.6-1.35 1.18-2.92 1.72-4.71.55-1.79 1.12-3.84 1.71-6.14l3.38-13.66h25.03l-5.02 30.48h5.58l-2.76 16.85h-7.06l1.74-10.61h-25.45l-1.77 10.61h-7.16Zm13.53-16.85h16.32l4.04-24.27h-11.69l-1.87 7.46c-.99 3.92-2 7.27-3.04 10.07-1.04 2.79-2.29 5.04-3.76 6.75ZM839.27 623.42l-6.08 36.72h-7.23l6.08-36.72zm15.54 14.71-1.05 6.27h-19.84l1.05-6.27zm7.85-14.71-6.08 36.72h-7.22l6.08-36.72h7.23ZM896.78 660.14h-7.23l4.11-24.86h-.36l-20.72 24.86h-6.54l6.08-36.72h7.23l-4.11 24.89h.36l20.72-24.89h6.54zM936.99 660.14h-7.23l4.11-24.86h-.36l-20.72 24.86h-6.54l6.08-36.72h7.23l-4.11 24.89h.36l20.72-24.89h6.54zm-8.54-41.68c-1.88 0-3.52-.43-4.91-1.28s-2.41-2-3.05-3.45q-.975-2.16-.51-4.86h4.79q-.36 2.205.9 3.6c1.26 1.395 2.03 1.4 3.56 1.4 1.03 0 1.98-.21 2.86-.62.88-.42 1.61-1 2.2-1.76s.96-1.63 1.12-2.61h4.79c-.29 1.8-1 3.42-2.13 4.88a12.3 12.3 0 0 1-4.22 3.45c-1.67.84-3.48 1.26-5.4 1.26ZM554.39 682.85l-8.08 48.94h-8.77l6.9-41.58h-22.79l-6.86 41.58h-8.77l8.11-48.94zM571.04 732.54c-3.2 0-5.92-.63-8.18-1.89s-3.99-3.03-5.19-5.32-1.81-4.96-1.81-8.03.47-5.76 1.4-8.47 2.28-5.14 4.04-7.27 3.91-3.83 6.44-5.07c2.53-1.25 5.39-1.87 8.59-1.87s5.93.62 8.19 1.87c2.27 1.25 4 3.02 5.21 5.3s1.81 4.98 1.81 8.06-.47 5.79-1.4 8.51-2.28 5.14-4.06 7.27-3.92 3.82-6.45 5.06-5.39 1.86-8.59 1.86Zm.26-6.93c1.97 0 3.69-.5 5.16-1.51s2.68-2.31 3.63-3.91 1.66-3.32 2.13-5.17.71-3.62.71-5.3c0-1.6-.25-3.01-.74-4.24s-1.24-2.19-2.25-2.89-2.3-1.05-3.88-1.05c-1.97 0-3.69.5-5.16 1.49-1.47 1-2.68 2.29-3.63 3.89s-1.66 3.32-2.13 5.17-.71 3.63-.71 5.34c0 2.39.56 4.35 1.67 5.88 1.12 1.53 2.85 2.3 5.19 2.3ZM590.95 731.79l1.15-7.06h1.21c.96 0 1.81-.2 2.54-.61.73-.4 1.4-1.09 1.99-2.07.59-.97 1.14-2.29 1.66-3.96s1.02-3.75 1.53-6.27l3.42-16.75h27.36l-6.08 36.72h-8.57l4.93-29.69h-10.64l-2.4 11.49c-.9 4.34-2.04 7.83-3.43 10.49s-3.05 4.61-4.99 5.85-4.22 1.86-6.85 1.86h-2.82ZM631.2 744.89l3.09-6.67.95.26c1.27.31 2.42.38 3.46.23s1.96-.59 2.76-1.31q1.2-1.08 1.95-3.15l.92-2.33-7.78-36.85h8.83l3.45 19.97c.37 2.34.62 4.69.74 7.04s.28 4.76.48 7.21h-2.23c1.01-2.45 2-4.86 2.97-7.21s2.05-4.7 3.24-7.04l10.25-19.97h9.29l-22.63 41.45c-1.05 1.95-2.26 3.61-3.61 4.99a14.2 14.2 0 0 1-4.65 3.17c-1.74.73-3.72 1.1-5.93 1.1-1.16 0-2.24-.09-3.24-.26-1-.18-1.77-.38-2.32-.62ZM670.82 731.79l16.75-18.95-10.54-17.77h9.85l8.05 14.84h2.1l2.46-14.84h8.54l-2.46 14.84h2.04l12.94-14.84h9.89l-16.36 17.77 10.38 18.95h-10.05l-8.05-14.84h-1.97l-2.43 14.84h-8.54l2.43-14.84h-1.97l-12.94 14.84zM761.52 731.79h-8.57l3.88-23.22h-.33l-19.67 23.22h-7.42l6.08-36.72h8.54l-3.84 23.19h.33l19.57-23.19h7.52l-6.08 36.72ZM767.99 745.52l8.38-50.45h8.34l-1.05 6.08h.3c.59-.92 1.37-1.89 2.35-2.91.97-1.02 2.2-1.88 3.68-2.58q2.22-1.05 5.37-1.05c2.52 0 4.74.56 6.65 1.67 1.92 1.12 3.42 2.76 4.52 4.93 1.09 2.17 1.64 4.83 1.64 7.98 0 2.69-.38 5.41-1.15 8.14-.77 2.74-1.91 5.24-3.42 7.52s-3.4 4.11-5.67 5.5-4.9 2.09-7.9 2.09c-2.19 0-3.95-.37-5.27-1.12-1.32-.74-2.33-1.64-3-2.69-.68-1.05-1.17-2.01-1.48-2.89h-.49l-3.25 19.77H768Zm19.91-20.1c1.97 0 3.68-.5 5.12-1.5s2.65-2.29 3.61-3.89 1.68-3.32 2.15-5.16.71-3.59.71-5.25c0-2.41-.54-4.34-1.63-5.8-1.08-1.46-2.76-2.18-5.04-2.18-1.91 0-3.58.47-5.03 1.41-1.44.94-2.65 2.18-3.61 3.73-.96 1.54-1.69 3.24-2.17 5.09s-.72 3.68-.72 5.5c0 2.47.55 4.43 1.66 5.88s2.75 2.17 4.94 2.17ZM826.34 695.07l-6.08 36.72h-8.54l6.08-36.72zm14.81 14.32-1.15 7.03h-19.51l1.15-7.03zm8.64-14.32-6.08 36.72h-8.54l6.08-36.72zM862.66 707.09h10.84c3.13 0 5.71.52 7.73 1.56s3.46 2.49 4.32 4.33q1.275 2.775.66 6.45c-.39 2.39-1.34 4.51-2.82 6.37-1.49 1.86-3.42 3.32-5.78 4.38-2.37 1.06-5.1 1.59-8.21 1.59h-16.75l6.08-36.72h8.54l-4.93 29.69h8.21c1.95 0 3.58-.48 4.89-1.45 1.31-.96 2.09-2.21 2.33-3.74.28-1.62-.07-2.93-1.07-3.92-1-1-2.46-1.49-4.38-1.49h-10.84l1.18-7.06Zm25.06 24.7 6.08-36.72h8.54l-6.08 36.72zM937.32 731.79h-8.57l3.88-23.22h-.33l-19.67 23.22h-7.42l6.08-36.72h8.54l-3.84 23.19h.33l19.57-23.19h7.52l-6.08 36.72Zm-9.23-41.45c-2.01 0-3.76-.44-5.24-1.33s-2.56-2.08-3.25-3.58-.88-3.17-.57-5.01h5.29c-.24 1.42.08 2.59.95 3.51.88.92 2.1 1.38 3.68 1.38 1.03 0 1.99-.21 2.89-.62.9-.42 1.64-.99 2.23-1.72s.96-1.58 1.12-2.54h5.32c-.31 1.84-1.06 3.51-2.27 5.03s-2.69 2.7-4.45 3.58-3.66 1.31-5.7 1.31ZM651.28 803.43l19.61-25.78-10.84-23.15h12.38l7.62 20.76h20.53l14.25-20.76h12.32l-18.16 23.09 10.81 25.85h-11.96l-7.29-19.87h-23.32l-14.12 19.87h-11.82Zm47.36-48.93-8.11 48.94h-9.98l8.11-48.94zM757.83 803.43h-9.89l3.58-21.61h-.26l-18.59 21.61h-8.34l6.08-36.72h9.85l-3.58 21.51h.3l18.42-21.51h8.51zM763.97 817.16l8.37-50.45h9.69l-1.12 6.17h.3c.61-1.01 1.42-2.02 2.41-3.05 1-1.03 2.23-1.88 3.69-2.56q2.205-1.02 5.16-1.02c2.43 0 4.59.54 6.49 1.62 1.89 1.08 3.39 2.71 4.5 4.86 1.11 2.16 1.66 4.83 1.66 8.03 0 2.63-.37 5.3-1.1 8.03s-1.84 5.24-3.32 7.54-3.33 4.16-5.57 5.58c-2.23 1.42-4.86 2.13-7.88 2.13-2.08 0-3.78-.36-5.11-1.08-1.32-.72-2.35-1.61-3.07-2.66s-1.24-2.07-1.54-3.05h-.46l-3.25 19.9h-9.85Zm20.49-21.02c1.82 0 3.39-.48 4.73-1.45 1.33-.96 2.44-2.2 3.32-3.71s1.52-3.12 1.94-4.83.62-3.32.62-4.83c0-2.19-.48-3.94-1.45-5.24s-2.45-1.95-4.47-1.95c-1.75 0-3.29.44-4.62 1.33-1.32.89-2.43 2.06-3.32 3.51s-1.56 3.04-2.02 4.76-.69 3.42-.69 5.11c0 2.25.5 4.03 1.51 5.34s2.49 1.95 4.43 1.95ZM824.1 766.72l-6.08 36.72h-9.85l6.08-36.72zm14.13 13.89-1.28 7.85h-19.21l1.31-7.85zm9.42-13.89-6.08 36.72h-9.85l6.08-36.72zM860.56 778.18h10.94c3.24 0 5.92.53 8.05 1.58s3.64 2.52 4.55 4.42c.91 1.89 1.16 4.11.74 6.65-.39 2.5-1.37 4.69-2.92 6.58-1.56 1.89-3.57 3.37-6.04 4.43s-5.33 1.59-8.57 1.59h-17.34l6.08-36.72h9.85l-4.79 28.9h7.52c1.79 0 3.28-.43 4.47-1.3 1.18-.86 1.88-2 2.1-3.4.26-1.49-.05-2.68-.95-3.58s-2.24-1.35-4.04-1.35h-10.97l1.35-7.82Zm25.39 25.25 6.08-36.72h9.85l-6.08 36.72zM937.68 803.43h-9.89l3.58-21.61h-.26l-18.59 21.61h-8.34l6.08-36.72h9.85l-3.58 21.51h.3l18.42-21.51h8.51zm-9.99-41.25c-2.12 0-3.97-.45-5.53-1.36-1.57-.91-2.71-2.13-3.43-3.68s-.93-3.27-.62-5.17h5.75q-.36 2.07 1.02 3.45c1.38 1.38 2.17 1.38 3.74 1.38 1.07 0 2.06-.21 2.96-.62.9-.42 1.65-.99 2.27-1.71.61-.72 1-1.55 1.15-2.5h5.78c-.31 1.91-1.09 3.63-2.35 5.17s-2.82 2.77-4.68 3.68-3.88 1.36-6.04 1.36ZM433.93 875.74c-3.33 0-6.2-.52-8.62-1.56s-4.4-2.42-5.93-4.15-2.64-3.66-3.32-5.78-.95-4.27-.82-6.44h11.72c0 1.36.19 2.52.56 3.5.37.97.92 1.79 1.64 2.45s1.62 1.14 2.68 1.45 2.29.46 3.7.46c2.34 0 4.46-.54 6.34-1.63 1.88-1.08 3.46-2.74 4.73-4.96s2.19-5.03 2.76-8.42c.55-3.31.59-6.08.13-8.31s-1.41-3.92-2.86-5.06-3.37-1.71-5.78-1.71c-1.4 0-2.7.15-3.91.46s-2.29.79-3.27 1.44c-.97.66-1.82 1.47-2.53 2.45-.71.97-1.3 2.14-1.76 3.5h-11.73c.81-2.85 1.99-5.38 3.55-7.6 1.55-2.22 3.41-4.1 5.57-5.63s4.55-2.7 7.18-3.5q3.945-1.2 8.28-1.2c4.36 0 8.12.97 11.28 2.92s5.46 4.79 6.9 8.54 1.7 8.31.8 13.7c-.9 5.34-2.66 9.88-5.29 13.61s-5.85 6.58-9.66 8.54-7.93 2.94-12.35 2.94Zm-1.71-20.82 1.54-9.26h18.26l-1.54 9.26zM463.03 875.08l6.08-36.72h11.46l-2.4 14.58h2.43l11.69-14.58h13.27l-15.5 18.39 9.52 18.33h-13.43l-6.17-13.33h-3.25l-2.23 13.33h-11.46ZM519.18 875.77c-3.37 0-6.26-.65-8.67-1.94s-4.25-3.11-5.53-5.45-1.92-5.08-1.92-8.21c0-2.8.44-5.53 1.33-8.18s2.21-5.04 3.97-7.16 3.97-3.81 6.62-5.06 5.74-1.87 9.26-1.87c2.36 0 4.5.31 6.4.92 1.91.61 3.53 1.49 4.88 2.63s2.38 2.51 3.09 4.12 1.04 3.41 1 5.4l-10.87 1.71c-.02-.96-.11-1.82-.28-2.56s-.43-1.37-.79-1.89q-.54-.765-1.41-1.17c-.87-.405-1.29-.39-2.12-.39-1.69 0-3.14.44-4.35 1.33s-2.21 2.05-2.97 3.48c-.77 1.43-1.33 2.96-1.69 4.57s-.54 3.14-.54 4.58c0 1.31.17 2.45.53 3.42.35.96.89 1.7 1.62 2.2s1.68.76 2.84.76c.85 0 1.68-.14 2.48-.43s1.54-.7 2.23-1.23c.69-.54 1.31-1.2 1.86-1.99s.99-1.67 1.31-2.66l10.28 1.81c-.61 2.06-1.48 3.9-2.61 5.53a17.3 17.3 0 0 1-4.06 4.17c-1.58 1.15-3.36 2.03-5.35 2.64s-4.17.92-6.54.92M549.42 875.08l4.6-27.92h-11.36l1.44-8.8h34.22l-1.48 8.8h-11.36l-4.63 27.92zM573.61 888.81l8.38-50.45h11.33l-1.15 6.31h.3c.63-1.14 1.47-2.22 2.5-3.25s2.26-1.87 3.69-2.53 3.07-.99 4.91-.99c2.3 0 4.38.53 6.26 1.58s3.37 2.64 4.48 4.78c1.12 2.13 1.67 4.83 1.67 8.1 0 2.54-.34 5.16-1.03 7.87s-1.75 5.22-3.17 7.55-3.24 4.22-5.45 5.67-4.84 2.17-7.88 2.17c-1.97 0-3.62-.34-4.94-1.02q-1.995-1.02-3.12-2.58c-.76-1.04-1.29-2.12-1.59-3.23h-.43l-3.28 20.03h-11.46Zm21.18-22.13q2.565 0 4.35-1.38c1.785-1.38 2.17-2.09 2.92-3.51s1.31-2.91 1.66-4.45.53-2.96.53-4.25c0-1.95-.41-3.47-1.21-4.56-.81-1.09-2.07-1.64-3.78-1.64-1.55 0-2.93.41-4.12 1.23s-2.19 1.9-2.99 3.24-1.4 2.79-1.81 4.37-.61 3.11-.61 4.6c0 1.97.43 3.53 1.3 4.66.86 1.14 2.12 1.71 3.76 1.71ZM631.26 875.61c-2.71 0-5.07-.71-7.06-2.12s-3.42-3.52-4.29-6.32-.96-6.27-.28-10.41c.72-4.31 2-7.86 3.83-10.64s3.97-4.84 6.44-6.19c2.46-1.35 4.98-2.02 7.54-2.02q2.925 0 4.83.99c1.27.66 2.27 1.5 2.99 2.54s1.21 2.12 1.48 3.24h.26l1.05-6.31h11.4l-6.08 36.72h-11.33l.99-5.94h-.36q-.99 1.68-2.61 3.15-1.62 1.485-3.81 2.4c-1.46.61-3.11.92-4.98.92Zm5.39-8.93c1.47 0 2.79-.42 3.96-1.25s2.15-1.99 2.94-3.46c.79-1.48 1.33-3.21 1.64-5.21.35-2.04.38-3.79.08-5.27s-.89-2.62-1.79-3.42-2.08-1.2-3.55-1.2-2.81.41-3.96 1.23-2.11 1.97-2.89 3.45-1.33 3.21-1.66 5.21c-.33 1.97-.35 3.71-.07 5.21s.87 2.66 1.76 3.48 2.06 1.23 3.53 1.23ZM657.22 875.08l15.47-19.21-9.36-17.5h13.01l6.47 14.02h1.18l2.3-14.02h11.46l-2.33 14.02h1.15l11.1-14.02h13.01l-15.11 17.5 9.06 19.21H701.3l-6.24-13.96h-1.08l-2.3 13.96h-11.46l2.33-13.96h-1.08l-10.9 13.96h-13.33ZM753.64 875.08h-11.46l3.25-19.64h-.23l-17.28 19.64h-9.46l6.08-36.72H736l-3.22 19.44h.23l17.01-19.44h9.69l-6.08 36.72ZM759.09 888.81l8.38-50.45h11.33l-1.15 6.31h.3c.63-1.14 1.47-2.22 2.5-3.25s2.26-1.87 3.69-2.53 3.07-.99 4.91-.99c2.3 0 4.38.53 6.26 1.58s3.37 2.64 4.48 4.78c1.12 2.13 1.67 4.83 1.67 8.1 0 2.54-.34 5.16-1.03 7.87s-1.75 5.22-3.17 7.55-3.24 4.22-5.45 5.67-4.84 2.17-7.88 2.17c-1.97 0-3.62-.34-4.94-1.02q-1.995-1.02-3.12-2.58c-.76-1.04-1.29-2.12-1.59-3.23h-.43l-3.28 20.03h-11.46Zm21.19-22.13q2.565 0 4.35-1.38c1.785-1.38 2.17-2.09 2.92-3.51s1.31-2.91 1.66-4.45.53-2.96.53-4.25c0-1.95-.41-3.47-1.21-4.56-.81-1.09-2.07-1.64-3.78-1.64-1.55 0-2.93.41-4.12 1.23s-2.19 1.9-2.99 3.24-1.4 2.79-1.81 4.37-.61 3.11-.61 4.6c0 1.97.43 3.53 1.3 4.66.86 1.14 2.12 1.71 3.76 1.71ZM821.34 838.37l-6.08 36.72H803.8l6.08-36.72zm13.27 13.4-1.41 8.8h-18.82l1.44-8.8zm10.41-13.4-6.08 36.72h-11.46l6.08-36.72zM857.92 849.11h11.13c3.37 0 6.18.54 8.42 1.63 2.24 1.08 3.86 2.6 4.84 4.55.99 1.95 1.26 4.26.82 6.93-.42 2.58-1.45 4.84-3.09 6.77q-2.46 2.895-6.36 4.5c-2.59 1.07-5.58 1.61-8.95 1.61H846.6l6.08-36.72h11.46l-4.6 27.92h6.63c1.62 0 2.94-.37 3.97-1.1s1.64-1.72 1.84-2.97q.33-2.01-.84-3.15c-.78-.77-1.98-1.15-3.6-1.15h-11.13l1.48-8.8Zm25.85 25.97 6.08-36.72h11.46l-6.08 36.72zM938.07 875.08h-11.46l3.25-19.64h-.23l-17.28 19.64h-9.46l6.08-36.72h11.46l-3.22 19.44h.23l17.01-19.44h9.69l-6.08 36.72Zm-10.84-40.98q-3.42 0-5.91-1.41c-1.67-.94-2.89-2.22-3.68-3.83s-1.02-3.39-.69-5.34h6.34c-.24 1.31.12 2.43 1.07 3.33.95.91 2.25 1.36 3.89 1.36 1.07 0 2.07-.21 3-.62s1.7-.97 2.32-1.68c.61-.7 1-1.5 1.15-2.4h6.37c-.33 1.95-1.15 3.73-2.48 5.34s-2.98 2.89-4.96 3.83q-2.97 1.41-6.42 1.41ZM624.6 908.5l1.77-10.71h42.5l-1.77 10.71h-14.62l-6.34 38.23h-13.27l6.34-38.23h-14.62ZM673.17 946.73h-14.06l13.3-16.98h13.76l-13.01 16.98Zm22.14 0h-12.28l4.43-26.87h-4.66c-1.6 0-2.84.28-3.73.84q-1.335.84-1.62 2.58c-.18 1.12.1 1.95.84 2.51s1.93.84 3.6.84h9.52l-1.45 8.74h-11.2c-5.01 0-8.8-1.11-11.36-3.32s-3.54-5.2-2.92-8.97c.46-2.67 1.5-4.99 3.1-6.95 1.61-1.96 3.68-3.47 6.22-4.53q3.81-1.59 8.67-1.59h18.92zM698.47 946.73l14.71-19.38-8.64-17.34h14.91l5.52 13.53h.59l2.23-13.53h13.2l-2.23 13.53h.59l9.98-13.53h14.91l-14.35 17.34 8.28 19.38h-15.3l-5.19-13.4h-.53l-2.23 13.4h-13.2l2.23-13.4h-.53l-9.66 13.4h-15.31ZM778.4 947.52c-3.46 0-6.46-.6-9-1.81-2.54-1.2-4.49-2.93-5.86-5.19s-2.05-4.96-2.05-8.11.51-5.87 1.53-8.6a22.7 22.7 0 0 1 4.4-7.31c1.92-2.13 4.23-3.83 6.95-5.07 2.71-1.25 5.77-1.87 9.16-1.87 2.78 0 5.32.44 7.62 1.33s4.13 2.17 5.5 3.84 2.05 3.71 2.05 6.09-.78 4.46-2.35 5.94c-1.57 1.49-3.81 2.61-6.73 3.35s-6.43 1.24-10.51 1.48q-6.12.36-13.71.36l1.22-7.23c4.36 0 7.87-.03 10.53-.1s4.69-.2 6.08-.41 2.33-.5 2.82-.89c.49-.38.74-.88.74-1.49 0-.96-.4-1.71-1.2-2.23-.8-.53-1.94-.79-3.43-.79-1.86 0-3.33.52-4.4 1.56s-1.86 2.33-2.35 3.86a21.5 21.5 0 0 0-.95 4.63c-.14 1.55-.21 2.85-.21 3.88s.15 1.99.44 2.82c.3.83.82 1.48 1.58 1.95s1.81.71 3.17.71c1.49 0 2.78-.29 3.88-.85s1.82-1.39 2.17-2.46l11.72.85q-1.605 5.22-6.54 8.49c-3.29 2.18-7.37 3.27-12.25 3.27Zm-1.28-41.74c-1.6 0-2.87-.54-3.81-1.63-.94-1.08-1.28-2.39-1.02-3.92.24-1.53 1.01-2.84 2.32-3.92 1.3-1.08 2.75-1.63 4.35-1.63s2.87.54 3.83 1.63c.95 1.08 1.31 2.39 1.07 3.92-.26 1.53-1.05 2.84-2.37 3.92-1.31 1.08-2.77 1.63-4.37 1.63m15.17 0c-1.6 0-2.87-.54-3.81-1.63-.94-1.08-1.28-2.39-1.02-3.92.24-1.53 1.01-2.84 2.32-3.92 1.3-1.08 2.75-1.63 4.35-1.63s2.87.54 3.83 1.63c.95 1.08 1.31 2.39 1.07 3.92-.26 1.53-1.05 2.84-2.36 3.92s-2.77 1.63-4.37 1.63ZM797.79 946.73l1.64-9.92h1.05c.72 0 1.39-.18 2-.54s1.18-.92 1.69-1.68c.51-.75.98-1.73 1.4-2.92s.79-2.61 1.12-4.25l3.48-17.41h31.96l-6.08 36.72h-13.2l4.43-26.87h-6.11l-1.84 8.87c-.99 4.69-2.35 8.33-4.09 10.94s-3.73 4.43-5.98 5.49-4.63 1.58-7.14 1.58h-4.33ZM855.06 920h11.3c3.53 0 6.48.55 8.85 1.66 2.38 1.11 4.09 2.67 5.16 4.68 1.06 2.01 1.36 4.41.9 7.19-.44 2.69-1.52 5.03-3.25 7.01s-3.96 3.51-6.7 4.58-5.87 1.61-9.39 1.61h-18.92l6.08-36.72h13.2l-4.43 26.87h5.71c1.42 0 2.56-.3 3.42-.89.85-.59 1.37-1.43 1.54-2.53.2-1.16-.03-2.05-.69-2.68-.66-.62-1.7-.94-3.12-.94h-11.3l1.64-9.85Zm26.31 26.73 6.08-36.72h13.2l-6.08 36.72zM938.5 946.73h-13.2l2.89-17.47h-.16l-15.83 17.47h-10.67l6.08-36.72h13.2l-2.86 17.21h.16l15.5-17.21h10.97zm-11.76-40.72c-2.45 0-4.57-.49-6.34-1.46s-3.08-2.29-3.92-3.96c-.84-1.66-1.1-3.51-.77-5.55h6.96c-.22 1.27.17 2.35 1.17 3.23 1 .89 2.33 1.33 3.99 1.33 1.09 0 2.12-.2 3.07-.61.95-.4 1.75-.95 2.38-1.64s1.02-1.46 1.15-2.32h7.03q-.495 3.06-2.61 5.55c-1.41 1.67-3.17 2.98-5.27 3.96-2.1.97-4.38 1.46-6.83 1.46Z"/>
</svg>
