<svg xmlns="http://www.w3.org/2000/svg" viewBox="0 0 1000 1000"><path d="M932.3 708.57h.33l-3.88 23.22h8.58l6.08-36.72h-7.52l-19.57 23.19h-.33l3.84-23.19h-8.54l-6.08 36.72h7.42l19.67-23.22zM933.51 635.28h.36l-4.11 24.86h7.23l6.08-36.72h-6.54l-20.72 24.89h-.36l4.11-24.89h-7.23l-6.08 36.72h6.54l20.72-24.86zM802.2 411.3h12.32l-5.58 33.89h2.94l5.62-33.89h12.32l.46-2.83h-27.62l-.46 2.83zM651.29 803.44h11.82l14.12-19.87h6.61l-3.29 19.87h9.98l3.29-19.87h6.73l7.29 19.87h11.96l-10.81-25.85 18.16-23.09h-12.32l-14.25 20.76h-5.38l3.44-20.76h-9.98l-3.44 20.76h-5.17l-7.62-20.76h-12.38l10.84 23.15-19.61 25.78.01.01zM933.79 689.04c1.76-.88 3.24-2.06 4.45-3.58s1.96-3.19 2.27-5.03h-5.32c-.16.96-.53 1.81-1.12 2.54s-1.33 1.3-2.23 1.72c-.9.41-1.86.62-2.89.62-1.58 0-2.8-.46-3.68-1.38a3.89 3.89 0 0 1-.95-3.51h-5.29a8.02 8.02 0 0 0 3.82 8.59 9.98 9.98 0 0 0 5.24 1.33c2.04.01 3.94-.42 5.7-1.3ZM931.11 781.82h.26l-3.58 21.61h9.89l6.08-36.72h-8.51l-18.42 21.51h-.3l3.58-21.51h-9.85l-6.08 36.72h8.34l18.59-21.61zM839.31 355.67h22.99l-2.96 17.87h1.51l6.08-36.72h-1.51l-2.87 17.34h-22.99l2.87-17.34h-1.51l-6.08 36.72h1.51l2.96-17.87zM878.38 445.19c2.69 0 5.08-.45 7.16-1.36s3.77-2.19 5.09-3.83a11.95 11.95 0 0 0 2.5-5.68c.37-2.17.18-4.06-.59-5.68s-2.05-2.88-3.83-3.78a14.97 14.97 0 0 0-6.75-1.35h-9.86l2.48-15.04h-2.96l-6.08 36.72h12.84Zm3.13-18.85c3.05 0 5.35.73 6.9 2.18 1.55 1.45 2.13 3.41 1.74 5.86-.4 2.43-1.62 4.36-3.65 5.81s-4.58 2.17-7.65 2.17H869l2.64-16.02h9.87ZM680.94 731.79l12.94-14.84h1.97l-2.43 14.84h8.54l2.43-14.84h1.97l8.05 14.84h10.05l-10.38-18.95 16.36-17.77h-9.89l-12.94 14.84h-2.04l2.46-14.84h-8.54l-2.46 14.84h-2.1l-8.05-14.84h-9.85l10.54 17.77-16.75 18.95h10.12zM668.11 445.98h-.01.01zM878.9 372.41a11.44 11.44 0 0 0 6.6 1.92h-.01c2.67.01 5.14-.66 7.41-1.99s4.24-3.12 5.9-5.35c1.67-2.24 2.96-4.72 3.88-7.46s1.38-5.37 1.38-8.28-.52-5.48-1.56-7.73-2.49-4.01-4.35-5.29a11.3 11.3 0 0 0-6.57-1.92c-2.69 0-5.17.67-7.44 2a20.36 20.36 0 0 0-5.91 5.34 26.13 26.13 0 0 0-3.89 7.42c-.92 2.72-1.38 5.38-1.38 8.29s.52 5.5 1.56 7.75 1.56 3.38 4.38 5.3Zm-3.12-20.98a24.75 24.75 0 0 1 3.68-6.91 18.9 18.9 0 0 1 5.44-4.89 12.84 12.84 0 0 1 6.63-1.81c2.23 0 4.18.57 5.83 1.72a11.09 11.09 0 0 1 3.83 4.76c.9 2.02 1.35 3.2 1.35 7.01a25.48 25.48 0 0 1-4.81 14.57 19.06 19.06 0 0 1-5.39 5.04 12.74 12.74 0 0 1-6.81 1.9h-.02a9.75 9.75 0 0 1-8.06-3.77c-2-2.51-3-5.76-3-9.75 0-2.7.44-5.32 1.33-7.87ZM798.32 373.54l12.27-15.82c.8.13 1.64.19 2.55.19h10.82l-2.58 15.63h1.52l6.08-36.72h-12.35c-2.36 0-4.52.44-6.47 1.33a13.13 13.13 0 0 0-4.84 3.71 11.79 11.79 0 0 0-2.45 5.57c-.53 3.11.16 5.63 2.08 7.57a9.24 9.24 0 0 0 4.18 2.39l-12.55 16.15h1.74Zm6.05-26.11c.44-2.76 1.78-4.97 4.01-6.62s4.9-2.48 8.01-2.48h10.8l-2.98 18.07H813.4c-3.11 0-5.5-.82-7.19-2.45-1.69-1.63-2.3-3.81-1.84-6.52ZM918.11 751.97c-.31 1.9-.1 3.62.62 5.17s1.86 2.77 3.43 3.68a10.8 10.8 0 0 0 5.53 1.36h.02a13.8 13.8 0 0 0 10.72-5.04 10.75 10.75 0 0 0 2.35-5.17H935a5 5 0 0 1-1.15 2.5 6.67 6.67 0 0 1-5.23 2.33c-1.57 0-2.36 0-3.74-1.38a3.7 3.7 0 0 1-1.02-3.45h-5.75ZM828.05 441.62a7.7 7.7 0 0 1-3.58.74h-.95l-.46 2.83 1.18.01c2.65 0 4.74-.63 6.26-1.89s2.75-3.21 3.68-5.85 1.84-6.01 2.74-10.1l3.45-16.06h16.49l-5.62 33.89h2.99l6.08-36.72h-22.27l-3.94 18.16c-.65 3.06-1.26 5.61-1.82 7.65s-1.16 3.65-1.82 4.83a6.02 6.02 0 0 1-2.4 2.51ZM758.23 410.88c-1.92-1.61-4.81-2.41-8.69-2.41h-13.93l-6.08 36.7h15.83c2.27 0 4.33-.43 6.17-1.28 1.84-.86 3.36-2.04 4.57-3.55s1.97-3.25 2.3-5.22a8.89 8.89 0 0 0-.29-4.45c-.46-1.28-1.2-2.34-2.23-3.17s-2.26-1.38-3.71-1.67a12 12 0 0 0 5.5-3.02 9.4 9.4 0 0 0 2.74-5.35c.46-2.78-.26-4.97-2.18-6.58Zm-4 18.69c1.13 1.39 1.52 3.17 1.17 5.34a8.48 8.48 0 0 1-3.24 5.45 10.04 10.04 0 0 1-6.32 2.04h-12.98l2.46-14.91h13.93c2.19 0 3.85.69 4.98 2.08Zm3.15-11.93c-.35 2.17-1.45 3.91-3.3 5.22s-4.11 1.97-6.78 1.97h-11.53l2.23-13.56h11.07c2.96 0 5.16.55 6.62 1.66 1.45 1.1 2.02 2.67 1.69 4.71ZM722.67 516.84v-.01h-.02l.02.01zM772.56 372.18a11.57 11.57 0 0 0 6.6 1.89c2.04 0 3.87-.35 5.5-1.07a18.55 18.55 0 0 0 4.22-2.55 22.16 22.16 0 0 0 3.97-4.09l-1.21-.89a20.9 20.9 0 0 1-3.64 3.78c-1.07.9-2.35 1.67-3.84 2.33-1.49.66-3.15.99-4.99.99-2.25 0-4.21-.54-5.86-1.61a10.42 10.42 0 0 1-3.83-4.55c-.9-1.96-1.35-4.31-1.35-6.91s.4-5.19 1.21-7.75c.8-2.57 1.96-4.9 3.46-7 1.5-2.1 3.3-3.78 5.39-5.04s4.43-1.89 7.01-1.89c1.8 0 3.31.32 4.52.95 1.22.63 2.2 1.38 2.94 2.23s1.11 1.26 1.67 2.36c.37.73.59 1.18.66 1.35l1.38-.66c-.06-.15-.3-.63-.72-1.43s-1.05-1.7-1.91-2.68a11.39 11.39 0 0 0-3.37-2.56 11.15 11.15 0 0 0-5.17-1.08c-2.69 0-5.17.66-7.42 1.97a20.1 20.1 0 0 0-5.89 5.29 26.08 26.08 0 0 0-3.89 7.41c-.92 2.72-1.38 3.96-1.38 8.29 0 2.89.52 5.45 1.56 7.68a12.5 12.5 0 0 0 4.38 5.24ZM838.94 875.09l6.08-36.72h-11.46l-2.22 13.4h-12.22l2.22-13.4h-11.46l-6.08 36.72h11.46l2.4-14.52h12.22l-2.4 14.52h11.46zM739.27 516.83c2.37 0 4.5-.43 6.39-1.28s3.45-2.03 4.68-3.53 1.99-3.21 2.3-5.14a8.2 8.2 0 0 0-.34-4.61 7.31 7.31 0 0 0-2.46-3.17 9.07 9.07 0 0 0-3.79-1.61 11.82 11.82 0 0 0 5.55-2.74 8.72 8.72 0 0 0 2.76-5.21c.48-2.86-.26-5.15-2.23-6.86s-4.94-2.56-8.9-2.56h-14.48l-6.08 36.71h16.6Zm-6.94-32.61h10.21c2.57 0 4.5.48 5.8 1.44 1.31.97 1.81 2.35 1.53 4.14a6.64 6.64 0 0 1-2.94 4.52 10.52 10.52 0 0 1-6.06 1.66h-10.51l1.97-11.76Zm-2.56 15.57h12.81c2.06 0 3.58.62 4.58 1.87s1.33 2.87 1 4.86c-.33 1.95-1.25 3.48-2.76 4.57s-3.33 1.64-5.45 1.64H727.6l2.17-12.94ZM686.39 373.53h.78c2.65 0 4.67-.61 6.06-1.84 1.39-1.22 2.49-3.14 3.3-5.73a124.5 124.5 0 0 0 2.56-10.03l3.84-17.6h18.1l-5.81 35.21h1.51l6.08-36.72h-21.02l-4.2 19.05c-.68 3.11-1.3 5.7-1.86 7.78a23.2 23.2 0 0 1-1.84 4.96 6.16 6.16 0 0 1-2.51 2.63 8.47 8.47 0 0 1-3.94.79h-.79l-.26 1.5ZM915.71 895.04a8.86 8.86 0 0 0 .77 5.55c.84 1.67 2.15 2.99 3.92 3.96s3.89 1.46 6.34 1.46h.01c2.45-.01 4.73-.5 6.83-1.47 2.1-.98 3.86-2.29 5.27-3.96a11.22 11.22 0 0 0 2.61-5.55h-7.03c-.13.86-.52 1.63-1.15 2.32s-1.43 1.24-2.38 1.64c-.95.41-1.98.61-3.07.61a5.78 5.78 0 0 1-3.99-1.33 3.31 3.31 0 0 1-1.17-3.23h-6.96ZM686.39 373.54v-.01h-.01l.01.01zM801.46 852.36c0-3.27-.55-5.97-1.67-8.1-1.11-2.14-2.6-3.73-4.48-4.78s-3.96-1.58-6.26-1.58c-1.84 0-3.48.33-4.91.99s-2.66 1.5-3.69 2.53-1.87 2.11-2.5 3.25h-.3l1.15-6.31h-11.33l-8.38 50.45h11.48l3.28-20.03h.43c.3 1.11.83 2.19 1.59 3.23a8.55 8.55 0 0 0 3.12 2.58c1.32.68 2.97 1.02 4.94 1.02 3.04 0 5.67-.72 7.88-2.17s4.03-3.34 5.45-5.67 2.48-4.84 3.17-7.55 1.03-5.33 1.03-7.87Zm-12.25 4.98c-.35 1.54-.91 3.03-1.66 4.45s-1.14 2.13-2.92 3.51a6.9 6.9 0 0 1-4.35 1.38v.02c-1.64 0-2.9-.57-3.76-1.71-.87-1.13-1.3-2.69-1.3-4.66a18.25 18.25 0 0 1 2.42-8.97c.8-1.34 1.8-2.42 2.99-3.24s2.57-1.23 4.12-1.23c1.71 0 2.97.55 3.78 1.64.8 1.09 1.21 2.61 1.21 4.56 0 1.29-.18 2.71-.53 4.25ZM719.04 408.93a12.71 12.71 0 0 0-5.12-.95c-2.83 0-5.4.65-7.72 1.95s-4.32 3.05-6.01 5.25-2.99 4.66-3.91 7.39-1.38 5.43-1.38 8.36.55 5.51 1.63 7.75 2.6 3.98 4.56 5.24 4.28 1.89 6.95 1.89v-.02c1.96 0 3.75-.33 5.38-.97s3.07-1.44 4.33-2.38 2.31-1.89 3.14-2.84 1.41-1.75 1.74-2.41l-2.63-1.21c-.22.44-.65 1.04-1.3 1.81-.64.76-1.48 1.55-2.51 2.36a14.55 14.55 0 0 1-3.6 2.04c-1.37.55-2.88.82-4.52.82-2.16 0-4.01-.5-5.53-1.49-1.52-.99-2.67-2.39-3.46-4.2s-1.18-3.83-1.18-6.26a24.37 24.37 0 0 1 4.29-13.79c1.39-1.97 3.07-3.56 5.04-4.75s4.18-1.79 6.63-1.79a8.99 8.99 0 0 1 6.81 2.71c.71.75 1.26 1.5 1.64 2.23.38.74.6 1.32.67 1.76l2.86-.85a8.88 8.88 0 0 0-.98-2.4c-.53-.96-1.26-1.92-2.22-2.87s-2.15-1.74-3.6-2.38ZM934.45 838.36l-17.01 19.44h-.23l3.22-19.44h-11.46l-6.08 36.72h9.46l17.28-19.64h.23l-3.25 19.64h11.46-.01l6.08-36.72h-9.69zM761.87 510.74c1.14 2.16 2.76 3.84 4.84 5.02s4.55 1.77 7.42 1.77h.01c3.33 0 4.99 0 9.18-2.33a16.13 16.13 0 0 0 6.39-6.24l-4.04-1.35a12.5 12.5 0 0 1-4.7 4.32 13.5 13.5 0 0 1-6.6 1.63c-2.23 0-4.08-.46-5.55-1.38a8.55 8.55 0 0 1-3.28-3.76 12.92 12.92 0 0 1-1.08-5.4c0-.9.06-1.8.16-2.7 4.15-.03 7.84-.2 11.02-.52 3.52-.35 6.43-.95 8.74-1.79s4.05-2 5.19-3.45 1.72-3.29 1.72-5.5c0-1.99-.45-3.71-1.35-5.14a8.8 8.8 0 0 0-3.86-3.32 13.99 13.99 0 0 0-5.96-1.17c-2.83 0-5.45.61-7.87 1.81-2.41 1.21-4.53 2.89-6.35 5.03s-3.23 4.64-4.24 7.5-1.51 5.94-1.51 9.25c0 2.98.58 5.56 1.72 7.72Zm6.43-20.95a15.04 15.04 0 0 1 4.76-4.6 12.59 12.59 0 0 1 6.67-1.74c2.21 0 3.95.49 5.22 1.46a4.89 4.89 0 0 1 1.9 4.12c0 1.64-.44 2.98-1.33 4.01-.89 1.03-2.26 1.82-4.12 2.38s-4.24.93-7.14 1.13c-2.56.18-5.58.27-9.01.29.06-.24.11-.49.18-.73a21.63 21.63 0 0 1 2.87-6.32ZM750.02 838.36l-17.01 19.44h-.23l3.22-19.44h-11.46l-6.08 36.72h9.46l17.28-19.64h.23l-3.25 19.64h11.46-.01l6.08-36.72h-9.69zM734.77 372.41a11.44 11.44 0 0 0 6.6 1.92h-.01c2.67.01 5.14-.66 7.41-1.99s4.24-3.12 5.9-5.35c1.67-2.24 2.96-4.72 3.88-7.46s1.38-5.37 1.38-8.28-.52-5.48-1.56-7.73-2.49-4.01-4.35-5.29a11.3 11.3 0 0 0-6.57-1.92c-2.69 0-5.17.67-7.44 2a20.36 20.36 0 0 0-5.91 5.34 26.13 26.13 0 0 0-3.89 7.42c-.92 2.72-1.38 5.38-1.38 8.29s.52 5.5 1.56 7.75 1.56 3.38 4.38 5.3Zm-3.12-20.98a24.75 24.75 0 0 1 3.68-6.91 18.9 18.9 0 0 1 5.44-4.89 12.84 12.84 0 0 1 6.63-1.81c2.23 0 4.18.57 5.83 1.72a11.09 11.09 0 0 1 3.83 4.76c.9 2.02 1.35 3.2 1.35 7.01a25.48 25.48 0 0 1-4.81 14.57 19.06 19.06 0 0 1-5.39 5.04 12.74 12.74 0 0 1-6.81 1.9h-.02a9.75 9.75 0 0 1-8.06-3.77c-2-2.51-3-5.76-3-9.75 0-2.7.44-5.32 1.33-7.87ZM707.67 838.37l-11.1 14.02h-1.15l2.33-14.02h-11.46l-2.3 14.02h-1.18l-6.47-14.02h-13.01l9.36 17.5-15.47 19.21h13.35l10.9-13.96h1.08l-2.33 13.96h11.46l2.3-13.96h1.08l6.24 13.96h13.33l-9.06-19.21 15.11-17.5h-13.01zM772.69 444.02a13.62 13.62 0 0 0 7.04 1.79v.02c3.02 0 5.87-.72 8.55-2.15a17.6 17.6 0 0 0 6.39-5.67l-2.63-1.15a15.47 15.47 0 0 1-12.18 6.2c-2.24 0-4.15-.49-5.75-1.46a9.54 9.54 0 0 1-3.66-4.06 13.55 13.55 0 0 1-1.26-5.98c0-1.17.08-2.3.22-3.42 4.19-.02 7.95-.14 11.23-.4 3.51-.28 6.47-.81 8.88-1.58 2.41-.77 4.23-1.88 5.47-3.33 1.24-1.44 1.86-3.34 1.86-5.68a9.5 9.5 0 0 0-1.26-5.01 8.14 8.14 0 0 0-3.65-3.19 13.7 13.7 0 0 0-5.76-1.1c-2.85 0-5.48.59-7.9 1.77s-4.53 2.84-6.32 4.99a23.52 23.52 0 0 0-4.17 7.55 28.95 28.95 0 0 0-1.48 9.43c0 2.83.55 5.31 1.67 7.44a12.25 12.25 0 0 0 4.71 4.99Zm.98-27.09c1.46-1.96 3.22-3.5 5.29-4.63s4.47-1.69 7.01-1.69 4.49.55 5.85 1.67 2.04 2.74 2.04 4.86c0 1.93-.55 3.46-1.64 4.6-1.09 1.14-2.7 1.99-4.81 2.55s-4.73.93-7.85 1.1c-2.85.16-6.12.24-9.74.25.15-.68.32-1.35.52-2.01a21.56 21.56 0 0 1 3.33-6.7ZM678.2 441.55a19.32 19.32 0 0 0 3.17-4.37h.36l-1.31 8.01h2.92l6.08-36.72h-2.99l-1.35 8.21h-.29a12.84 12.84 0 0 0-1.71-4.35c-.83-1.33-1.96-2.38-3.38-3.17s-3.17-1.18-5.25-1.18c-2.93 0-5.64.81-8.11 2.43a20.13 20.13 0 0 0-6.26 6.7 27.99 27.99 0 0 0-3.46 9.82c-.59 3.7-.52 6.98.21 9.85s2.06 5.12 3.99 6.75a10.9 10.9 0 0 0 7.28 2.45c2.08 0 3.96-.4 5.65-1.21a14.92 14.92 0 0 0 4.45-3.22Zm-18.51-6.36a22.08 22.08 0 0 1-.05-8.29c.51-3.05 1.43-5.79 2.78-8.23s3.03-4.38 5.06-5.8c2.02-1.42 4.31-2.13 6.78-2.13s4.48.7 6.01 2.1a10.78 10.78 0 0 1 3.12 5.75c.54 2.43.56 5.2.03 8.31a25.98 25.98 0 0 1-2.78 8.36 16.94 16.94 0 0 1-5.02 5.83 11.37 11.37 0 0 1-6.71 2.13c-2.5 0-4.53-.72-6.08-2.17a10.9 10.9 0 0 1-3.14-5.86ZM789.78 896.31a6.23 6.23 0 0 0-2.32 3.92 4.53 4.53 0 0 0 1.02 3.92 4.77 4.77 0 0 0 3.81 1.63h.01c1.6 0 3.06-.55 4.37-1.63s2.1-2.39 2.36-3.92a4.58 4.58 0 0 0-1.07-3.92c-.96-1.09-2.23-1.63-3.83-1.63s-3.05.55-4.35 1.63ZM774.61 896.31a6.23 6.23 0 0 0-2.32 3.92 4.53 4.53 0 0 0 1.02 3.92c.94 1.09 2.21 1.63 3.81 1.63s3.06-.55 4.37-1.63a6.35 6.35 0 0 0 2.37-3.92 4.58 4.58 0 0 0-1.07-3.92c-.96-1.09-2.23-1.63-3.83-1.63s-3.05.55-4.35 1.63ZM729.53 445.19v-.02.02zM884.1 784.18c-.91-1.9-2.42-3.37-4.55-4.42s-4.81-1.58-8.05-1.58H864l1.9-11.47h-9.85l-6.08 36.72h17.34c3.24 0 6.1-.53 8.57-1.59s4.48-2.54 6.04-4.43a13.45 13.45 0 0 0 2.92-6.58c.42-2.54.17-4.76-.74-6.65Zm-23.51-6.02v.02h-.03l.03-.02Zm14.61 12.75a5.04 5.04 0 0 1-2.1 3.4 7.37 7.37 0 0 1-4.47 1.3h-7.52l1.6-9.63h7.5c1.8 0 3.14.45 4.04 1.35s1.21 2.09.95 3.58ZM740.44 588.49v-.01h-.01l.01.01zM853 638.13h-16.17l2.44-14.71h-7.23l-6.08 36.72h7.23l2.61-15.74h16.17l-2.61 15.74h7.22l6.08-36.72h-7.22L853 638.13zM697.82 614.85c-1.61-1.41-3.5-2.49-5.68-3.22s-4.58-1.1-7.21-1.1c-4 0-7.62.84-10.85 2.53s-5.99 3.97-8.26 6.85-4.02 6.15-5.25 9.79-1.84 7.4-1.84 11.28c0 4.14.78 7.68 2.33 10.64s2.33 4.43 6.55 6.8a19.8 19.8 0 0 0 9.87 2.37h-.04a23.4 23.4 0 0 0 14.04-4.64 23.99 23.99 0 0 0 8.49-11.86h-7.55a14.37 14.37 0 0 1-5.78 7.15c-1.29.82-2.69 1.44-4.2 1.87s-3.06.64-4.66.64c-2.3 0-4.33-.5-6.09-1.48s-3.13-2.45-4.12-4.4c-.99-1.94-1.48-2.94-1.48-7.22 0-2.85.42-5.67 1.26-8.46.85-2.8 2.06-5.32 3.65-7.59s3.54-4.07 5.85-5.42 4.94-2.02 7.87-2.02c1.49 0 2.87.22 4.14.64s2.38 1.05 3.32 1.87 1.68 1.84 2.22 3.04c.54 1.21.83 2.58.87 4.11h7.52c.03-2.61-.39-4.93-1.26-6.98a14 14 0 0 0-3.71-5.19ZM734.22 557.65h-.49c-.31-.68-.75-1.51-1.33-2.51-.59-1-1.51-1.88-2.78-2.66s-3.09-1.17-5.45-1.17c-3.04 0-5.87.77-8.47 2.3s-4.8 3.7-6.6 6.52-3.02 6.17-3.68 10.07c-.64 3.88-.95 5.82.31 10.1a12.4 12.4 0 0 0 4.38 6.63c2.08 1.57 4.65 2.35 7.69 2.35 2.32 0 4.25-.39 5.78-1.17 1.53-.77 2.77-1.67 3.71-2.69s1.68-1.89 2.23-2.61h.69l-.92 5.68h5.75l6.08-36.72h-5.95l-.95 5.88Zm-1.99 12.49a22.3 22.3 0 0 1-2.37 7.19 13.88 13.88 0 0 1-4.29 4.89 10.24 10.24 0 0 1-5.93 1.77l.02.02c-2.3 0-4.13-.62-5.49-1.86s-2.25-2.91-2.69-5.01a19.07 19.07 0 0 1-.03-7c.41-2.52 1.18-4.79 2.28-6.83s2.54-3.67 4.3-4.88 3.82-1.82 6.16-1.82 4.02.56 5.37 1.69a8.34 8.34 0 0 1 2.69 4.73c.44 2.03.44 4.4-.02 7.11ZM751.21 568.13c-.61 3.02-1.2 5.5-1.77 7.44s-1.18 3.45-1.81 4.53-1.35 1.84-2.15 2.28-1.75.66-2.84.66h-1.31l-.89 5.44h1.99c2.67 0 4.9-.67 6.67-2 1.77-1.34 3.25-3.36 4.43-6.06s2.2-6.11 3.05-10.23l2.73-12.97h13.2l-5.19 31.27h5.95l6.08-36.72h-24.76l-3.38 16.36ZM763.97 817.16v-.01.01zM837.8 766.72l-2.3 13.89h-13.7l2.3-13.89h-9.85l-6.08 36.72h9.85l2.48-14.98h13.7l-2.48 14.98h9.85l6.08-36.72h-9.85zM873.68 873.49c2.6-1.07 4.72-2.57 6.36-4.5s2.67-4.19 3.09-6.77c.44-2.67.17-4.98-.82-6.93a10.1 10.1 0 0 0-4.84-4.55c-2.24-1.09-5.05-1.63-8.42-1.63h-6.68l1.77-10.73h-11.46l-6.08 36.72h18.13c3.37 0 6.36-.54 8.95-1.61Zm-12.76-15.56h6.62c1.62 0 2.82.38 3.6 1.15.78.76 1.06 1.81.84 3.15-.2 1.25-.81 2.24-1.84 2.97s-2.35 1.1-3.97 1.1h-6.63l1.38-8.37ZM862.66 623.42h.01-.01zM805.12 780.76c0-3.2-.55-5.87-1.66-8.03a11.49 11.49 0 0 0-4.5-4.86 12.9 12.9 0 0 0-6.49-1.62c-1.97 0-3.69.34-5.16 1.02a12.32 12.32 0 0 0-3.69 2.56 17.64 17.64 0 0 0-2.41 3.05h-.3l1.12-6.17h-9.69l-8.37 50.44h9.85l3.25-19.9h.46c.3.98.82 2 1.54 3.05s1.75 1.94 3.07 2.66c1.33.72 3.03 1.08 5.11 1.08 3.02 0 5.65-.71 7.88-2.13 2.24-1.42 4.09-3.28 5.57-5.58s2.59-4.81 3.32-7.54 1.1-5.4 1.1-8.03Zm-10.67 5.39c-.42 1.71-1.06 3.32-1.94 4.83s-1.99 2.75-3.32 3.71a7.83 7.83 0 0 1-4.73 1.45h-.02c-1.94-.01-3.42-.65-4.43-1.96s-1.51-3.09-1.51-5.34a19.7 19.7 0 0 1 2.71-9.87c.89-1.45 2-2.62 3.32-3.51a8.1 8.1 0 0 1 4.62-1.33c2.02 0 3.5.65 4.47 1.95s1.45 3.05 1.45 5.24c0 1.51-.2 3.12-.62 4.83ZM776.54 745.51l3.25-19.77h.49c.31.88.8 1.84 1.48 2.89a8.25 8.25 0 0 0 3 2.69c1.32.75 3.08 1.12 5.27 1.12 3 0 5.63-.7 7.9-2.09s4.16-3.22 5.67-5.5 2.65-4.78 3.42-7.52a29.9 29.9 0 0 0 1.15-8.14c0-3.15-.55-5.81-1.64-7.98a11.59 11.59 0 0 0-4.52-4.93 13 13 0 0 0-6.65-1.67c-2.1 0-3.89.35-5.37 1.05s-2.71 1.56-3.68 2.58a19.35 19.35 0 0 0-2.35 2.91h-.3l1.05-6.08h-8.34l-8.38 50.45H776.54Zm5.47-33.64a18.23 18.23 0 0 1 2.17-5.09 11.82 11.82 0 0 1 3.61-3.73 9.02 9.02 0 0 1 5.03-1.41c2.28 0 3.96.72 5.04 2.18 1.09 1.46 1.63 3.39 1.63 5.8a21.24 21.24 0 0 1-2.86 10.41c-.96 1.6-2.17 2.89-3.61 3.89s-3.15 1.5-5.12 1.5c-2.19 0-3.83-.72-4.94-2.17s-1.66-3.41-1.66-5.88c0-1.82.24-3.65.72-5.5ZM796.73 484.26h12.22l-5.42 32.58h4.46l5.39-32.58h12.15l.69-4.14h-28.8l-.69 4.14zM702.3 673.87h-.02.02zM710.68 623.42l-8.38 50.45h7.21l3.25-19.67h.53c.28.77.75 1.68 1.41 2.73.65 1.05 1.64 1.97 2.97 2.76s3.14 1.18 5.44 1.18c2.96 0 5.58-.68 7.87-2.04 2.28-1.36 4.2-3.17 5.76-5.42s2.74-4.76 3.55-7.52 1.22-5.53 1.22-8.31c0-3.09-.55-5.72-1.63-7.9-1.09-2.18-2.6-3.84-4.55-4.99s-4.22-1.72-6.83-1.72c-2.21 0-4.07.36-5.58 1.08s-2.74 1.58-3.69 2.59-1.7 1.93-2.25 2.76h-.29l1.02-5.98h-7.03Zm6.76 11.11a13.03 13.03 0 0 1 3.88-3.94 9.77 9.77 0 0 1 5.4-1.49c2.56 0 4.45.82 5.65 2.45 1.21 1.63 1.81 3.74 1.81 6.32 0 1.86-.26 3.78-.79 5.75-.52 1.97-1.32 3.8-2.38 5.47s-2.37 3.03-3.92 4.07-3.37 1.56-5.45 1.56h-.01c-2.44 0-4.26-.8-5.49-2.4s-1.84-3.75-1.84-6.44c0-1.97.26-3.95.79-5.93s1.3-3.79 2.35-5.42ZM760.09 695.07l-19.57 23.19h-.33l3.84-23.19h-8.54l-6.08 36.72h7.42l19.67-23.22h.33l-3.88 23.22h8.58l6.08-36.72h-7.52zM757.83 803.43l6.08-36.72h-8.51l-18.42 21.51h-.3l3.58-21.51h-9.85l-6.08 36.72h8.34l18.59-21.61h.26l-3.58 21.61h9.89zM685.74 515.13a18.25 18.25 0 0 0 9.46 2.37v.02c2.59 0 5.03-.41 7.33-1.23s4.41-1.96 6.31-3.43a24.32 24.32 0 0 0 8.17-11.37h-4.7a17.3 17.3 0 0 1-2.58 4.61c-1.1 1.41-2.4 2.65-3.89 3.71s-2.23 1.59-4.89 2.46a17.8 17.8 0 0 1-5.58.87 13.8 13.8 0 0 1-6.95-1.72 11.93 11.93 0 0 1-4.78-5.14c-1.16-2.28-1.74-5.15-1.74-8.41s.49-6.45 1.46-9.57a28.86 28.86 0 0 1 4.2-8.46 21.18 21.18 0 0 1 6.58-5.99 16.95 16.95 0 0 1 8.64-2.22c1.89 0 3.59.29 5.11.87 1.52.58 2.83 1.4 3.91 2.46s1.92 2.3 2.51 3.71c.6 1.41.92 2.95.99 4.61h4.66c0-2.27-.39-4.38-1.18-6.32a15.11 15.11 0 0 0-8.72-8.49 19.56 19.56 0 0 0-7.11-1.22c-3.94 0-7.49.87-10.64 2.61a25.5 25.5 0 0 0-8.06 7.01 32.93 32.93 0 0 0-5.11 9.89c-1.18 3.65-1.77 7.23-1.77 11.23s.73 7.47 2.18 10.39a15.83 15.83 0 0 0 6.19 6.75ZM873.64 588.49c2.86 0 5.38-.53 7.55-1.58s3.92-2.48 5.27-4.27 2.21-3.81 2.58-6.04c.37-2.25.19-4.26-.54-6.01s-2.01-3.13-3.84-4.14-4.2-1.51-7.11-1.51h-9.64l2.19-13.17h-5.91l-6.08 36.72h15.53ZM867 570.42h9.63c2.21 0 3.91.61 5.09 1.81s1.62 2.75 1.31 4.63a6.65 6.65 0 0 1-2.79 4.42 9.24 9.24 0 0 1-5.71 1.76h-9.62l2.09-12.62ZM843.71 731.79l6.08-36.72h-8.54l-2.37 14.32h-14.91l2.37-14.32h-8.54l-6.08 36.72h8.54l2.54-15.37h14.91l-2.54 15.37h8.54zM830.03 497.36c-.64 3.07-1.24 5.59-1.81 7.57-.57 1.98-1.17 3.53-1.82 4.66s-1.41 1.93-2.27 2.4c-.86.47-1.93.71-3.2.71h-1.15l-.69 4.14h1.62c2.67 0 4.83-.65 6.47-1.95 1.65-1.3 3-3.28 4.06-5.94a62.01 62.01 0 0 0 2.87-10.17l3.12-14.52h14.81l-5.39 32.58h4.47l6.08-36.72h-23.52l-3.65 17.24ZM777.91 651.16l-6.6-1.41c-.83 1.62-2.09 2.9-3.79 3.84s-3.64 1.41-5.83 1.41-3.74-.39-4.98-1.18-2.12-1.85-2.66-3.2c-.53-1.35-.8-2.86-.8-4.52 0-.56.03-1.15.09-1.75 3.65-.07 6.9-.25 9.74-.56 3.6-.39 6.58-1.03 8.93-1.92s4.11-2.06 5.25-3.53 1.72-3.29 1.72-5.39-.51-3.91-1.54-5.45-2.47-2.72-4.32-3.55-4-1.25-6.45-1.25c-2.89 0-5.58.61-8.05 1.84-2.48 1.22-4.64 2.91-6.49 5.07s-3.29 4.65-4.32 7.46-1.54 5.87-1.54 8.98.61 5.78 1.81 8c1.2 2.23 2.91 3.93 5.14 5.11s4.89 1.77 8 1.77c3.85 0 7.27-.87 10.26-2.63a15.07 15.07 0 0 0 6.42-7.14Zm-17.93-20.72a10.02 10.02 0 0 1 5.98-1.74c1.84 0 3.3.39 4.4 1.18a3.7 3.7 0 0 1 1.64 3.15c0 1.24-.33 2.28-.97 3.1s-1.75 1.47-3.3 1.95-3.68.82-6.37 1.03c-2 .16-4.38.25-7.12.29a21.5 21.5 0 0 1 1.83-4.49 13.1 13.1 0 0 1 3.91-4.47ZM824.98 551.77l-6.08 36.72h5.91l2.67-16.13h17.38l-2.67 16.13h5.91l6.08-36.72h-5.91l-2.51 15.14h-17.38l2.51-15.14h-5.91zM937.71 413.99h.23l-5.16 31.2h2.99l6.08-36.72h-2.76l-25.78 31.27h-.26l5.16-31.27h-2.96l-6.08 36.72h2.79l25.75-31.2zM921.46 465.97c-.29 1.67-.14 3.19.44 4.55s1.5 2.46 2.76 3.28 2.75 1.23 4.48 1.23c1.73 0 3.36-.41 4.88-1.22 1.51-.8 2.83-1.92 3.86-3.28a10.3 10.3 0 0 0 2-4.57h-3.38a5.15 5.15 0 0 1-1.26 2.96 7.3 7.3 0 0 1-2.43 2.07c-.95.51-1.98.76-3.1.76-1.67 0-2.96-.54-3.88-1.64s-1.25-2.48-.99-4.14h-3.38ZM921.91 394.57a8 8 0 0 0 .46 4.47 7 7 0 0 0 2.68 3.19 7.71 7.71 0 0 0 4.29 1.18 9.83 9.83 0 0 0 4.75-1.17 11.49 11.49 0 0 0 3.74-3.19 9.81 9.81 0 0 0 1.92-4.47h-2.46a7.38 7.38 0 0 1-1.4 3.3 8.07 8.07 0 0 1-2.71 2.32 7.22 7.22 0 0 1-3.42.85c-1.8 0-3.22-.62-4.27-1.86s-1.43-2.78-1.12-4.62h-2.46ZM939.23 339.97h.16l-5.55 33.57h1.51l6.08-36.72h-1.35l-27.75 33.6h-.16l5.55-33.6h-1.51l-6.08 36.72h1.38l27.72-33.57zM916.95 823.52c-.33 1.95-.1 3.73.69 5.34s2.01 2.89 3.68 3.83a11.8 11.8 0 0 0 5.91 1.41c2.3-.01 4.44-.48 6.42-1.42 1.98-.94 3.63-2.22 4.96-3.83s2.15-3.39 2.48-5.34h-6.37a4.8 4.8 0 0 1-1.15 2.4c-.62.71-1.39 1.27-2.32 1.68s-1.93.62-3 .62a5.4 5.4 0 0 1-3.89-1.36 3.48 3.48 0 0 1-1.07-3.33h-6.34ZM925.47 330.66a7.35 7.35 0 0 0 4.16 1.17c1.6 0 3.17-.41 4.56-1.18a11.27 11.27 0 0 0 3.61-3.12 9.71 9.71 0 0 0 1.87-4.32h-1.51a8.08 8.08 0 0 1-1.56 3.6 9.42 9.42 0 0 1-2.99 2.59 7.58 7.58 0 0 1-3.73.97c-1.95 0-3.5-.69-4.66-2.08a6 6 0 0 1-1.25-5.07h-1.51a7.68 7.68 0 0 0 .43 4.32 6.96 6.96 0 0 0 2.58 3.12ZM936.19 488h.36l-4.79 28.84h4.47l6.08-36.72h-4.17l-23.84 28.9h-.3l4.76-28.9h-4.47l-6.08 36.72h4.2L936.19 488zM934.69 562.02h.43l-4.4 26.47h5.92l6.08-36.72h-5.58l-21.87 26.57h-.39l4.37-26.57h-5.91l-6.08 36.72h5.62l21.81-26.47zM933.85 617.21c1.65-.82 3.09-2 4.22-3.45a10.6 10.6 0 0 0 2.13-4.88h-4.79c-.16.98-.53 1.85-1.12 2.61a6 6 0 0 1-2.2 1.76c-.88.41-1.83.62-2.86.62-1.53 0-2.3 0-3.56-1.4-.84-.93-1.14-2.13-.9-3.6h-4.79a8.2 8.2 0 0 0 .51 4.86c.64 1.45 1.66 2.6 3.05 3.45s3.03 1.28 4.91 1.28c1.92.01 3.73-.41 5.4-1.25ZM937.88 542.02a10.48 10.48 0 0 0 2.05-4.71h-4.34c-.15 1.01-.52 1.89-1.1 2.66a6.1 6.1 0 0 1-4.94 2.43c-1.51 0-2.67-.47-3.48-1.41s-1.09-2.17-.85-3.68h-4.33c-.28 1.73-.13 3.3.48 4.7s1.56 2.52 2.86 3.35 2.84 1.25 4.61 1.25c1.8-.01 3.48-.42 5.06-1.24a11.84 11.84 0 0 0 3.99-3.35ZM789.38 551.77l-6.08 36.72h15.53c2.86 0 5.38-.53 7.55-1.58s3.92-2.48 5.27-4.27 2.21-3.81 2.58-6.04c.37-2.25.19-4.26-.54-6.01s-2.01-3.13-3.84-4.14-4.2-1.51-7.11-1.51h-9.64l2.19-13.17h-5.91Zm12.44 18.65c2.21 0 3.91.61 5.09 1.81s1.62 2.75 1.31 4.63a6.65 6.65 0 0 1-2.79 4.42 9.24 9.24 0 0 1-5.71 1.76h-9.62l2.09-12.62h9.63ZM893.8 695.07l-6.08 36.72h8.54l6.08-36.72h-8.54zM885.55 712.98c-.86-1.84-2.3-3.29-4.32-4.33s-4.6-1.56-7.73-1.56h-8.23l2-12.04h-8.54l-6.08 36.72h16.75c3.11 0 5.84-.53 8.21-1.59a15.28 15.28 0 0 0 5.78-4.38 13.58 13.58 0 0 0 2.82-6.37c.41-2.45.19-4.6-.66-6.45Zm-7.78 6.57a5.58 5.58 0 0 1-2.33 3.74 7.99 7.99 0 0 1-4.89 1.45h-8.21l1.76-10.6h8.22c1.92 0 3.38.49 4.38 1.49 1 .99 1.35 2.3 1.07 3.92ZM901.88 766.71h-9.85l-6.08 36.72h9.85l6.08-36.72zM778.81 670.75h7.16l1.77-10.61h25.45l-1.74 10.61h7.06l2.76-16.85h-5.58l5.02-30.48h-25.03l-3.38 13.66a137.3 137.3 0 0 1-1.71 6.14 40.33 40.33 0 0 1-1.72 4.71 19.2 19.2 0 0 1-1.95 3.46c-.7.97-1.48 1.8-2.36 2.5h-2.96l-2.79 16.85Zm17.29-23.59a98.77 98.77 0 0 0 3.04-10.07l1.87-7.46h11.69l-4.04 24.27h-16.31a22.2 22.2 0 0 0 3.75-6.74ZM897.43 551.77l-6.08 36.72h5.91l6.08-36.72h-5.91zM896.32 623.42l-20.72 24.89h-.36l4.11-24.89h-7.23l-6.08 36.72h6.54l20.72-24.86h.36l-4.11 24.86h7.23l6.08-36.72h-6.54zM901.01 408.47l-6.08 36.72h2.96l6.08-36.72h-2.96zM897.56 516.84l6.08-36.72h-4.47l-6.08 36.72h4.47zM867.87 480.13l-6.08 36.72h14.19c2.78 0 5.23-.49 7.37-1.48s3.87-2.33 5.19-4.04a12.88 12.88 0 0 0 2.55-5.88c.35-2.22.15-4.16-.59-5.85a8.16 8.16 0 0 0-3.83-3.96c-1.8-.95-4.11-1.43-6.91-1.43H870l2.34-14.08h-4.47Zm11.15 18.27c2.65 0 4.66.67 6.03 2s1.87 3.08 1.5 5.25a7.56 7.56 0 0 1-3.2 5.09 11.06 11.06 0 0 1-6.68 1.97h-9.75l2.38-14.31h9.72ZM806.69 927.42c-.33 1.64-.7 3.06-1.12 4.25s-.89 2.17-1.4 2.92c-.51.76-1.08 1.32-1.69 1.68s-1.28.54-2 .54h-1.05l-1.64 9.92 4.33.01c2.51 0 4.89-.52 7.14-1.58s4.24-2.88 5.98-5.49 3.1-6.25 4.09-10.94l1.84-8.87h6.11l-4.43 26.87h13.2l6.08-36.72h-31.96l-3.48 17.41ZM65.34 60.55h34.38v167.93H65.34zM232.71 725.96h.56c.44.88 1.08 1.82 1.91 2.83s1.95 1.87 3.35 2.58c1.4.71 3.14 1.07 5.22 1.07 2.91-.01 5.51-.75 7.8-2.23 2.28-1.47 4.09-3.63 5.4-6.45s1.97-6.21 1.97-10.28-.67-7.52-2.02-10.33-3.16-4.94-5.44-6.39a14.02 14.02 0 0 0-7.69-2.17c-2.17 0-3.95.37-5.34 1.1s-2.49 1.6-3.3 2.61c-.81 1-1.43 1.94-1.87 2.82h-.36v-18.29h-8.54v48.94h8.34v-5.81Zm1.02-18.71c.67-1.76 1.65-3.13 2.94-4.12s1.86-1.48 4.76-1.48c1.93 0 3.54.51 4.83 1.53a9.12 9.12 0 0 1 2.91 4.2c.65 1.78.97 3.82.97 6.09s-.32 4.31-.98 6.12c-.65 1.81-1.63 3.23-2.92 4.27s-2.88 1.56-4.79 1.56h-.01a7.55 7.55 0 0 1-4.75-1.49 9.08 9.08 0 0 1-2.96-4.19c-.67-1.79-1-3.89-1-6.27s.33-4.46 1-6.22ZM99.92 922.8a12.32 12.32 0 0 0-5.73-1.56v-.53a12.64 12.64 0 0 0 4.98-2.05 10.37 10.37 0 0 0 4.48-8.66c0-2.47-.65-4.62-1.94-6.45a12.38 12.38 0 0 0-5.75-4.25c-2.54-1.01-5.67-1.51-9.39-1.51H65.35v48.94h23.07c3.54 0 6.6-.6 9.16-1.79 2.56-1.2 4.53-2.84 5.91-4.93s2.07-4.47 2.07-7.14c0-2.3-.51-4.31-1.53-6.03-1.02-1.72-1.53-2.58-4.11-4.04Zm-21.31-14.56h5.65c1.64 0 3.01.41 4.09 1.22a4.04 4.04 0 0 1 1.63 3.45 4.23 4.23 0 0 1-2.84 4.12c-.89.36-1.91.54-3.07.54h-5.46v-9.33Zm11.26 26.64c-1.13.85-2.8 1.28-5.01 1.28h-6.24v-10.37h6.44c1.33 0 2.49.2 3.46.62a4.92 4.92 0 0 1 2.25 1.82c.53.8.79 1.78.79 2.94 0 1.62-.56 2.86-1.69 3.71ZM99.54 445.19h3.51l7.75-10.81a118.1 118.1 0 0 0 2.46-3.71c.51-.8 1.03-1.57 1.55-2.35.52.78 1.05 1.55 1.57 2.35a168.3 168.3 0 0 0 2.46 3.71l7.75 10.81h3.55l-13.56-18.71 12.94-18.01h-3.51l-6.7 9.33c-.94 1.38-1.82 2.72-2.64 4.01-.58.91-1.17 1.8-1.77 2.7-.61-.9-1.22-1.79-1.81-2.7-.85-1.29-1.74-2.63-2.68-4.01l-6.67-9.33h-3.55l12.88 17.91-13.53 18.81ZM108.28 348.91h.01a10.67 10.67 0 0 1 5.83-9.68 12.98 12.98 0 0 1 6.13-1.43c3.32 0 6.04 1.01 8.14 3.05s3.15 4.72 3.15 8.05v24.63h1.51V348.9c0-2.52-.55-4.72-1.64-6.6-1.1-1.89-2.6-3.36-4.52-4.42s-4.13-1.59-6.65-1.59c-2.78 0-5.34.69-7.67 2.1-2 1.21-3.42 2.93-4.29 5.16V324.6h-1.51v48.94h1.51v-24.63ZM161.24 155.56c0-5.64 1.03-10.41 3.1-14.32a21.5 21.5 0 0 1 8.68-8.96 25.64 25.64 0 0 1 12.68-3.1c7.14 0 12.72 2.22 16.74 6.65 4.02 4.43 6.03 10.56 6.03 18.37v74.27h33.81v-80.13c0-9.84-1.78-18.31-5.35-25.41-3.57-7.1-8.6-12.55-15.1-16.34-6.5-3.79-14.11-5.69-22.82-5.69-10.67 0-19.37 2.87-26.09 8.62-5.54 4.73-9.9 11.1-13.12 19.06l-.46-26.1h-31.9v126h33.81v-72.92ZM99.27 865.62H76.94v-10.64h20.59v-9.26H76.94V835.6h22.37v-9.46H65.35v48.94h-.01 33.93v-9.46zM172.58 801.88a13.8 13.8 0 0 0 7.6 2.18h.01c2.01 0 3.71-.35 5.09-1.03a8.55 8.55 0 0 0 3.37-2.51c.86-.99 1.51-1.98 1.95-2.97h.49v5.88h9.69v-48.94h-9.85v18.39h-.33a12.55 12.55 0 0 0-1.9-2.99 10.44 10.44 0 0 0-3.35-2.59 11.42 11.42 0 0 0-5.19-1.05c-2.72 0-5.2.69-7.46 2.1a14.8 14.8 0 0 0-5.42 6.31c-1.36 2.81-2.04 6.41-2.04 10.48s.66 7.52 1.97 10.33a14.77 14.77 0 0 0 5.37 6.41Zm3.67-22.46a8.5 8.5 0 0 1 2.64-3.88c1.17-.94 2.67-1.41 4.35-1.41s3.12.45 4.3 1.36 2.08 2.18 2.68 3.81c.6 1.63.9 3.58.9 5.8s-.31 4.15-.92 5.8-1.51 2.94-2.69 3.86-2.61 1.38-4.27 1.38a6.68 6.68 0 0 1-4.32-1.42c-1.17-.94-2.06-2.25-2.66-3.91s-.9-3.57-.9-5.71.3-4.04.89-5.68ZM163.71 866.58c-.71.09-1.27.13-1.66.13-1.03 0-1.77-.24-2.23-.71s-.69-1.19-.69-2.15v-16.97h6.6v-8.51h-6.6v-8.74h-11.46v8.74h-4.86v8.51h4.86v17.99c0 3.51 1 6.17 3.02 8s4.97 2.74 8.87 2.74c1.08 0 2.22-.07 3.42-.2s2.45-.38 3.74-.75l-1.48-8.34c-.31.08-.82.17-1.53.26ZM110.44 897.8h13.2v48.94h-13.2zM140.76 875.09l-11.5-18.78 11.01-17.94h-11.96l-2.96 5.25a66.5 66.5 0 0 0-2.86 5.81l-.57 1.26-.55-1.28a74.77 74.77 0 0 0-2.76-5.8l-2.82-5.25h-12.15l10.71 17.85-11.4 18.87h11.92l3.48-6.37a74.46 74.46 0 0 0 2.78-5.85l.54-1.25.56 1.25a75.58 75.58 0 0 0 2.89 5.85l3.55 6.37h12.09ZM158.78 913.02a17.34 17.34 0 0 0-5.42-2.56 25.51 25.51 0 0 0-7.08-.92c-3.44 0-6.36.5-8.75 1.51s-4.27 2.35-5.63 4.04-2.21 3.56-2.56 5.62l11.89 1.18c.15-.75.45-1.36.9-1.84a4.17 4.17 0 0 1 1.69-1.08c.68-.24 1.42-.36 2.27-.36s1.59.11 2.2.34 1.09.56 1.43 1c.34.44.51.98.51 1.61v.13c0 .7-.28 1.26-.84 1.69s-1.45.75-2.69.97a49.8 49.8 0 0 1-4.94.56c-1.9.14-3.67.45-5.3.94a13.73 13.73 0 0 0-4.29 2.1 9.24 9.24 0 0 0-2.86 3.5 11.93 11.93 0 0 0-1.02 5.16c0 2.43.5 4.43 1.51 6.01a9.16 9.16 0 0 0 4.22 3.53c1.8.78 3.88 1.17 6.22 1.17 1.6 0 3.06-.2 4.37-.6s2.49-1.02 3.53-1.86a10.73 10.73 0 0 0 2.68-3.33h.26v5.19h12.35v-25.16c0-1.68-.4-3.25-1.2-4.71s-1.95-2.74-3.45-3.83Zm-8.42 20.71c0 1.12-.28 2.06-.84 2.84s-1.28 1.38-2.17 1.79c-.89.41-1.83.62-2.84.62v-.02c-.73 0-1.39-.12-1.96-.36s-1.02-.6-1.35-1.07-.49-1.04-.49-1.72c0-.63.15-1.21.46-1.72s.78-.95 1.43-1.31a7.3 7.3 0 0 1 2.51-.77 41.32 41.32 0 0 0 2.87-.55 17.36 17.36 0 0 0 2.38-.75v3.02ZM153.45 656.33a12.49 12.49 0 0 0 2.97-4.99l-6.8-1.61a7.54 7.54 0 0 1-4.66 4.61c-1.1.39-2.32.58-3.68.58a10.7 10.7 0 0 1-5.42-1.33 9.03 9.03 0 0 1-3.63-3.94 13.82 13.82 0 0 1-1.27-5.67h26v-2.56c0-3.33-.45-6.16-1.36-8.49-.91-2.33-1.38-3.49-3.7-5.7a14.68 14.68 0 0 0-5.25-3.24 18.1 18.1 0 0 0-6.08-1.03c-3.41 0-6.39.8-8.93 2.41s-4.51 3.85-5.9 6.72-2.08 6.14-2.08 9.95.71 7.12 2.12 9.95c1.41 2.83 3.43 5.02 6.06 6.57s5.75 2.33 9.36 2.33h.02c2.62.01 4.97-.39 7.04-1.19s3.8-1.93 5.19-3.37Zm-21.39-22.02c.76-1.61 1.86-2.9 3.3-3.89s3.16-1.48 5.22-1.48 3.77.48 5.14 1.44c1.36.96 2.4 2.3 3.1 4.02.51 1.25.83 2.65.97 4.19h-18.81a12.1 12.1 0 0 1 1.08-4.28ZM115.61 801.78c2.7 1.59 5.88 2.38 9.56 2.38s6.89-.79 9.57-2.38a16.03 16.03 0 0 0 6.21-6.63c1.45-2.83 2.18-6.09 2.18-9.9s-.72-7.13-2.18-9.97c-1.46-2.83-3.53-5.04-6.21-6.63s-5.89-2.38-9.57-2.38-6.87.79-9.56 2.38a16.05 16.05 0 0 0-6.22 6.63c-1.45 2.84-2.18 6.21-2.18 9.97s.72 7.07 2.18 9.9a16.05 16.05 0 0 0 6.22 6.63Zm2.54-22.35a8.74 8.74 0 0 1 2.64-3.97c1.17-.96 2.63-1.44 4.38-1.44s3.22.48 4.4 1.44 2.07 2.28 2.66 3.97c.59 1.69.89 3.66.89 5.78s-.3 4.03-.89 5.73c-.59 1.7-1.48 3.04-2.66 4.01s-2.65 1.46-4.4 1.46-3.21-.49-4.38-1.46a8.88 8.88 0 0 1-2.64-4.01c-.59-1.7-.89-3.56-.89-5.73s.3-4.09.89-5.78ZM102.72 467.08c-.87 0-1.63.3-2.28.9-.65.61-.97 1.37-.97 2.22s.32 1.59.97 2.2c.64.61 1.4.92 2.28.92s1.66-.31 2.3-.92c.63-.61.95-1.32.95-2.2s-.32-1.62-.95-2.22c-.64-.6-.99-.9-2.3-.9ZM171.4 875.08v-.01h-.01l.01.01zM100.46 480.12h4.47v36.72h-4.47zM196.53 588.95h-.01.01zM141.85 713.14c0-3.22-.44-6-1.33-8.33s-2.11-4.25-3.68-5.76-3.36-2.63-5.39-3.35a18.97 18.97 0 0 0-6.39-1.08c-3.51 0-6.56.8-9.15 2.41a16.09 16.09 0 0 0-6.01 6.68 22 22 0 0 0-2.12 9.95c0 3.83.72 7.15 2.15 9.98s3.48 5.02 6.14 6.57c2.66 1.55 5.84 2.33 9.54 2.33v.03c2.75 0 5.19-.41 7.32-1.23a14.42 14.42 0 0 0 5.34-3.45 12.52 12.52 0 0 0 3.02-5.17l-7.85-1.61a6.8 6.8 0 0 1-4.31 4.22c-1.02.36-2.15.54-3.4.54a9.86 9.86 0 0 1-4.96-1.22 8.16 8.16 0 0 1-3.32-3.61 12.75 12.75 0 0 1-1.15-5.21h25.55v-2.69Zm-21.54-10.48c1.31-.89 2.91-1.33 4.79-1.33s3.45.43 4.71 1.31a7.95 7.95 0 0 1 2.84 3.66c.45 1.11.73 2.36.86 3.72h-17.19c.11-1.37.43-2.64.98-3.81a8.58 8.58 0 0 1 3.01-3.55ZM226.1 659.02a13.25 13.25 0 0 0 6.57 1.58h.02c2.8 0 5.23-.74 7.29-2.23 1.66-1.2 3-3.01 4.02-5.41l.02 7.18h6.9v-36.72h-7.23v21.74c0 1.92-.38 3.57-1.12 4.94a7.68 7.68 0 0 1-3.04 3.12 8.88 8.88 0 0 1-4.38 1.07c-2.39 0-4.28-.74-5.67-2.23s-2.09-3.56-2.09-6.21v-22.43h-7.23v23.32c0 3.02.52 5.56 1.56 7.62a10.7 10.7 0 0 0 4.38 4.66ZM222.57 539.55h5.91v48.94h-5.91zM240.34 442.33H216.5v-46.08h-3.12v48.94h26.96v-2.86zM204.48 623.42h7.23v36.72h-7.23zM207.75 581.62v6.87h5.71v-36.72h-5.94v22c0 2.08-.4 3.86-1.21 5.34s-1.91 2.6-3.3 3.37-2.96 1.15-4.71 1.15c-2.57 0-4.59-.8-6.08-2.4-1.49-1.59-2.23-3.81-2.23-6.63v-22.83h-5.91v23.32c0 3.09.52 5.66 1.56 7.72a10.5 10.5 0 0 0 4.37 4.61 13.42 13.42 0 0 0 6.52 1.53c2.7 0 5.09-.7 7.17-2.1 1.65-1.1 2.99-2.85 4.05-5.23ZM208.12 617.8a4.53 4.53 0 0 0 3.22-1.24c.9-.83 1.35-1.82 1.35-3.02s-.45-2.22-1.35-3.05c-.9-.83-1.97-1.25-3.22-1.25s-2.31.42-3.2 1.25c-.89.83-1.33 1.89-1.33 3.05s.45 2.16 1.33 3a4.47 4.47 0 0 0 3.2 1.26ZM609.83 839.48a12.6 12.6 0 0 0-6.26-1.58c-1.84 0-3.48.33-4.91.99s-2.66 1.5-3.69 2.53-1.87 2.11-2.5 3.25h-.3l1.15-6.31h-11.33l-8.38 50.45h11.48l3.28-20.03h.43c.3 1.11.83 2.19 1.59 3.23a8.55 8.55 0 0 0 3.12 2.58c1.32.68 2.97 1.02 4.94 1.02 3.04 0 5.67-.72 7.88-2.17s4.03-3.34 5.45-5.67 2.48-4.84 3.17-7.55 1.03-5.33 1.03-7.87c0-3.27-.55-5.97-1.67-8.1a11.18 11.18 0 0 0-4.48-4.78Zm-6.11 17.86c-.35 1.54-.91 3.03-1.66 4.45s-1.14 2.13-2.92 3.51a6.9 6.9 0 0 1-4.35 1.38v.02c-1.64 0-2.9-.57-3.76-1.71-.87-1.13-1.3-2.69-1.3-4.66a18.25 18.25 0 0 1 2.42-8.97c.8-1.34 1.8-2.42 2.99-3.24s2.57-1.23 4.12-1.23c1.71 0 2.97.55 3.78 1.64.8 1.09 1.21 2.61 1.21 4.56 0 1.29-.18 2.71-.53 4.25ZM578.32 838.36H544.1l-1.44 8.8h11.36l-4.6 27.92h11.43l4.63-27.92h11.36l1.48-8.8zM668.87 897.79h-42.5l-1.77 10.71h14.61l-6.34 38.23h13.27l6.34-38.23h14.62l1.77-10.71zM682.47 910.01c-3.24 0-6.13.53-8.67 1.59a14.76 14.76 0 0 0-9.32 11.48c-.62 3.77.36 6.76 2.92 8.97a11.2 11.2 0 0 0 2.1 1.42l-10.39 13.26h14.05l8.7-11.36h3.04l-1.87 11.36h12.28l6.08-36.72h-18.92Zm-5.02 13.27a3.56 3.56 0 0 1 1.62-2.58 6.99 6.99 0 0 1 3.73-.84h4.66l-1.12 6.77h-4.45c-1.67 0-2.86-.28-3.6-.84s-1.02-1.39-.84-2.51ZM106.4 560.48c-1.36 2.87-2.04 6.18-2.04 9.95s0 5.66 2.08 9.89a15.72 15.72 0 0 0 5.94 6.6 17.27 17.27 0 0 0 9.18 2.36h.01c2.52 0 4.78-.39 6.78-1.18 2-.78 3.68-1.88 5.04-3.28a11.94 11.94 0 0 0 2.89-4.86l-5.71-1.58a8.06 8.06 0 0 1-5.02 5.03c-1.18.41-2.49.62-3.94.62-2.24 0-4.2-.49-5.9-1.46a9.85 9.85 0 0 1-3.96-4.3 14.77 14.77 0 0 1-1.37-6.13h26.5v-2.46c0-3.39-.46-6.25-1.38-8.6s-2.16-4.24-3.7-5.67c-1.55-1.43-3.27-2.47-5.16-3.12s-3.81-.97-5.76-.97c-3.33 0-6.24.81-8.72 2.43a16.03 16.03 0 0 0-5.76 6.73Zm8.8-2.28c1.57-1.08 2.36-1.62 5.68-1.62 2.21 0 4.06.53 5.55 1.59s2.61 2.53 3.37 4.4c.55 1.38.9 2.91 1.05 4.58h-20.46c.11-1.66.5-3.23 1.2-4.71a10.54 10.54 0 0 1 3.61-4.24ZM625.73 731.79l6.08-36.72h-27.36l-3.42 16.75c-.51 2.52-1.01 4.6-1.53 6.27s-1.07 2.99-1.66 3.96a5.52 5.52 0 0 1-1.99 2.07 5.1 5.1 0 0 1-2.54.61h-1.21l-1.15 7.06h2.82c2.63 0 4.91-.62 6.85-1.86s3.6-3.19 4.99-5.85 2.53-6.15 3.43-10.49l2.4-11.49h10.64l-4.93 29.69h8.57ZM764.24 910.01h-14.91l-9.98 13.53h-.59l2.23-13.53h-13.2l-2.23 13.53h-.59l-5.52-13.53h-14.91l8.64 17.34-14.71 19.38h15.29l9.66-13.4h.53l-2.23 13.4h13.2l2.23-13.4h.53l5.19 13.4h15.3l-8.28-19.38 14.35-17.34zM631.27 875.62a12.78 12.78 0 0 0 8.79-3.32 13.58 13.58 0 0 0 2.61-3.15h.36l-.99 5.94h11.33l6.08-36.72h-11.4l-1.05 6.31h-.26c-.27-1.12-.76-2.2-1.48-3.24s-1.72-1.88-2.99-2.54-2.88-.99-4.83-.99c-2.56 0-5.08.67-7.54 2.02-2.47 1.35-4.61 3.41-6.44 6.19s-3.11 6.33-3.83 10.64c-.68 4.14-.59 7.61.28 10.41s2.3 4.91 4.29 6.32 4.35 2.12 7.06 2.12h.01Zm.15-18.86c.33-2 .88-3.73 1.66-5.21s1.74-2.63 2.89-3.45 2.49-1.23 3.96-1.23 2.65.4 3.55 1.2 1.49 1.94 1.79 3.42.27 3.23-.08 5.27c-.31 2-.85 3.73-1.64 5.21-.79 1.47-1.77 2.63-2.94 3.46s-2.49 1.25-3.96 1.25c-1.47 0-2.64-.41-3.53-1.23s-1.48-1.98-1.76-3.48-.26-3.24.07-5.21ZM171.4 838.36v36.71h11.45v-20.03c0-1.46.32-2.74.95-3.84a6.72 6.72 0 0 1 2.63-2.58 7.57 7.57 0 0 1 3.78-.94c.7 0 1.49.05 2.38.15s1.6.24 2.15.44v-9.98a13.8 13.8 0 0 0-3.25-.39c-2.01 0-3.78.59-5.3 1.76s-2.61 2.97-3.27 5.4h-.39v-6.7H171.4ZM933.61 910.01l-15.5 17.21h-.16l2.86-17.21h-13.2l-6.08 36.72h10.67l15.83-17.47h.16l-2.89 17.47h13.2l6.08-36.72h-10.97zM783.32 937.37c-1.1.56-2.39.85-3.88.85-1.36 0-2.41-.24-3.17-.71s-1.28-1.12-1.58-1.95a8.6 8.6 0 0 1-.44-2.82c0-.29 0-.6.02-.94 1.68-.06 3.31-.12 4.84-.21 4.08-.24 7.59-.74 10.51-1.48s5.16-1.86 6.73-3.35c1.57-1.48 2.35-3.56 2.35-5.94s-.68-4.42-2.05-6.09-3.2-2.95-5.5-3.84-4.84-1.33-7.62-1.33c-3.39 0-6.45.62-9.16 1.87a20.94 20.94 0 0 0-6.95 5.07 23.79 23.79 0 0 0-5.93 15.91c0 3.15.68 5.85 2.05 8.11s3.32 3.99 5.86 5.19a20.74 20.74 0 0 0 9 1.81h.02c4.88 0 8.96-1.09 12.25-3.27a15.47 15.47 0 0 0 6.54-8.49l-11.72-.85a4.15 4.15 0 0 1-2.17 2.46Zm-5.56-17c1.07-1.04 2.54-1.56 4.4-1.56a6.2 6.2 0 0 1 3.43.79c.8.52 1.2 1.27 1.2 2.23a1.8 1.8 0 0 1-.74 1.49c-.49.39-1.43.68-2.82.89s-3.42.34-6.08.41l-1.87.04.13-.43a9.21 9.21 0 0 1 2.35-3.86ZM881.37 946.73h13.2l6.08-36.72h-13.2l-6.08 36.72zM880.37 926.34a10.73 10.73 0 0 0-5.16-4.68c-2.37-1.11-5.32-1.66-8.85-1.66h-5.72l1.65-9.99h-13.2l-6.08 36.72h18.92c3.52 0 6.65-.54 9.39-1.61s4.97-2.6 6.7-4.58 2.81-4.32 3.25-7.01c.46-2.78.16-5.18-.9-7.19Zm-11.84 7.12a3.61 3.61 0 0 1-1.54 2.53c-.86.59-2 .89-3.42.89h-5.71l1.16-7.04h5.7c1.42 0 2.46.32 3.12.94.66.63.89 1.52.69 2.68ZM883.77 875.08h11.46l6.08-36.72h-11.46l-6.08 36.72zM246.65 910.01h-14.84l-8.87 12.35h-.47v-24.57h-13.2v48.94h13.2v-10.42l1.98-2.52 7.49 12.94h15.04l-12.8-20.62 12.47-16.1zM271.55 851.23a11.54 11.54 0 0 0-5.44-1.56v-.53c1.77-.37 3.34-1.04 4.71-1.99a10.15 10.15 0 0 0 4.39-8.59c0-2.48-.62-4.64-1.86-6.49a12.23 12.23 0 0 0-5.57-4.35c-2.47-1.05-5.53-1.58-9.16-1.58h-20.3v48.94h.01l21.81.01c3.64 0 6.71-.59 9.23-1.77a13.46 13.46 0 0 0 5.76-4.86 12.66 12.66 0 0 0 1.99-7.03c0-2.36-.51-4.41-1.53-6.14s-2.37-3.09-4.04-4.06Zm-21.64-15.82h6.93c1.99 0 3.58.48 4.76 1.44s1.77 2.27 1.77 3.91c0 1.18 0 1.77-.87 3a5.55 5.55 0 0 1-2.4 1.89 8.61 8.61 0 0 1-3.46.66h-6.73v-10.9Zm13.25 28.82c-1.23.99-3.15 1.49-5.76 1.49h-7.49v-11.88h7.72c1.53 0 2.85.26 3.96.77a5.8 5.8 0 0 1 2.54 2.18c.6.94.89 2.05.89 3.32a5 5 0 0 1-1.86 4.12ZM309.18 840.29c-2.76-1.59-6.05-2.38-9.89-2.38s-7.13.79-9.89 2.38a16.1 16.1 0 0 0-6.35 6.63c-1.48 2.84-2.22 4.3-2.22 9.94 0 3.76.74 7.06 2.22 9.9 1.47 2.83 3.59 5.04 6.35 6.63s6.06 2.38 9.89 2.38 7.13-.79 9.89-2.38a15.95 15.95 0 0 0 6.34-6.63c1.47-2.83 2.2-6.11 2.2-9.9s-.73-7.1-2.2-9.94a16.01 16.01 0 0 0-6.34-6.63Zm-3.9 21.86a7.76 7.76 0 0 1-2.28 3.58c-1.01.85-2.24 1.28-3.71 1.28s-2.7-.43-3.71-1.28a7.84 7.84 0 0 1-2.28-3.58c-.51-1.53-.77-3.31-.77-5.35s.26-3.82.77-5.34 1.27-2.7 2.28-3.53c1.01-.83 2.24-1.25 3.71-1.25s2.71.42 3.71 1.25 1.77 2.01 2.28 3.53c.51 1.52.77 3.31.77 5.34s-.26 3.82-.77 5.35ZM323.19 826.15h11.46v48.94h-11.46zM184.18 920.41a4.79 4.79 0 0 1 3.02-.99c.67 0 1.33.12 1.95.38a4.3 4.3 0 0 1 1.53 1.13c.44.51.8 1.13 1.1 1.86.29.74.52 1.59.67 2.55l12.12-1.81a15.62 15.62 0 0 0-1.67-5.76 13.66 13.66 0 0 0-3.63-4.4 16.53 16.53 0 0 0-5.37-2.81 22.55 22.55 0 0 0-6.9-.99c-3.98 0-7.4.79-10.23 2.38-2.83 1.58-5 3.8-6.5 6.63s-2.25 6.14-2.25 9.9.75 7.07 2.25 9.9 3.66 5.04 6.5 6.63c2.83 1.59 6.24 2.38 10.23 2.38v.02c2.55 0 4.85-.33 6.92-.99s3.86-1.6 5.37-2.84 2.71-2.73 3.61-4.47a16.52 16.52 0 0 0 1.67-5.9l-12.12-1.77c-.13.99-.35 1.86-.64 2.63-.3.76-.67 1.41-1.12 1.92a4.42 4.42 0 0 1-3.49 1.56 4.65 4.65 0 0 1-3.02-1.03 6.55 6.55 0 0 1-1.99-3.07c-.47-1.35-.71-3-.71-5.02s.24-3.69.71-5.03a6.3 6.3 0 0 1 1.99-2.99ZM217.37 873.08a10.49 10.49 0 0 0 2.51-3.19h.29v5.16h10.77v-24.93c0-1.97-.42-3.72-1.25-5.24s-1.99-2.8-3.48-3.84-3.23-1.82-5.21-2.36c-1.98-.53-4.11-.8-6.39-.8-3.07 0-5.74.44-8.03 1.33a14.05 14.05 0 0 0-5.55 3.71 12.3 12.3 0 0 0-2.84 5.53l10.38 1.35a4.89 4.89 0 0 1 3.14-3.31c.82-.31 1.76-.46 2.81-.46s1.57 0 2.69.46c.75.31 1.32.76 1.71 1.35.39.59.59 1.32.59 2.17v.13c0 .74-.3 1.32-.89 1.74-.59.42-1.52.73-2.79.94-1.28.21-2.95.4-5.03.58-1.86.15-3.61.46-5.25.92-1.64.46-3.1 1.12-4.37 2a9.1 9.1 0 0 0-2.97 3.42 11.35 11.35 0 0 0-1.07 5.16c0 2.41.51 4.42 1.54 6.03a9.45 9.45 0 0 0 4.29 3.61c1.83.8 3.92 1.2 6.26 1.2v-.04c1.72 0 3.24-.22 4.59-.67 1.35-.44 2.53-1.1 3.55-1.95Zm-4.66-4.95a6.3 6.3 0 0 1-2.43-.44c-.7-.29-1.26-.72-1.67-1.28s-.62-1.22-.62-2.05.2-1.54.62-2.13 1.02-1.07 1.81-1.44 1.74-.64 2.86-.79l1.71-.28 1.77-.33c.59-.12 1.13-.26 1.62-.41s.9-.31 1.23-.49V862c0 1.21-.31 2.27-.92 3.19s-1.44 1.64-2.48 2.17a7.6 7.6 0 0 1-3.5.79v-.02ZM446.95 214.57a43.47 43.47 0 0 0 10.59-18.2l-30.66-5.75a21.65 21.65 0 0 1-5.24 8.17 22.28 22.28 0 0 1-8.28 5.02 32.63 32.63 0 0 1-10.82 1.69c-5.86 0-10.99-1.24-15.38-3.72-4.39-2.48-7.82-6.2-10.26-11.16-2.21-4.49-3.41-9.94-3.62-16.34h86.18v-9.47h-.01c0-10.83-1.52-20.22-4.56-28.19-3.04-7.96-7.27-14.59-12.68-19.89-5.41-5.3-11.68-9.26-18.82-11.89s-14.84-3.94-23.1-3.94c-12.25 0-22.92 2.74-32.01 8.23a55.45 55.45 0 0 0-21.08 22.88c-4.96 9.77-7.44 21.15-7.44 34.15s2.5 24.79 7.5 34.49c5 9.69 12.15 17.17 21.47 22.43s20.4 7.89 33.25 7.89c9.84 0 18.54-1.43 26.09-4.28 7.55-2.85 13.84-6.89 18.88-12.12Zm-70.58-73.17c2.1-4.62 5.2-8.28 9.3-10.99h.01c4.09-2.7 9.07-4.05 14.93-4.05s10.65 1.33 14.59 4a24.38 24.38 0 0 1 8.9 11.27 40.74 40.74 0 0 1 2.71 11.44H373.4a35.52 35.52 0 0 1 2.97-11.67ZM453.52 828.42c-3.16-1.95-6.92-2.92-11.28-2.92-2.89 0-5.65.4-8.28 1.2-2.63.8-5.02 1.97-7.18 3.5a22.92 22.92 0 0 0-5.57 5.63 24.95 24.95 0 0 0-3.55 7.6h11.73a12.88 12.88 0 0 1 1.76-3.5 10.14 10.14 0 0 1 5.8-3.89 15.7 15.7 0 0 1 3.91-.46c2.41 0 4.33.57 5.78 1.71 1.45 1.14 2.4 2.83 2.86 5.06.2.99.29 2.11.3 3.31h-16.04l-1.54 9.26h16.14a20.9 20.9 0 0 1-1.75 4.16 12.96 12.96 0 0 1-4.73 4.96c-1.88 1.09-4 1.63-6.34 1.63-1.41 0-2.64-.15-3.7-.46s-1.96-.79-2.68-1.45a6.34 6.34 0 0 1-1.64-2.45 9.88 9.88 0 0 1-.56-3.5h-11.72c-.13 2.17.14 4.32.82 6.44s1.79 4.05 3.32 5.78c1.53 1.73 3.51 3.11 5.93 4.15s5.29 1.56 8.62 1.56h-.01c4.42 0 8.54-.97 12.35-2.93s7.03-4.81 9.66-8.54 4.39-8.27 5.29-13.61c.9-5.39.64-9.95-.8-13.7s-3.74-6.59-6.9-8.54ZM505.56 838.36h-13.27l-11.69 14.58h-2.43l2.4-14.58h-11.46l-6.08 36.72h11.47l2.23-13.33h3.25l6.17 13.33h13.43l-9.52-18.33 15.5-18.39zM343.95 728.8a15.08 15.08 0 0 0 1.92-2.83h.53v5.81h8.38v-48.94h-8.54v18.29h-.36a14.78 14.78 0 0 0-1.86-2.82 10.47 10.47 0 0 0-3.32-2.61 11.52 11.52 0 0 0-5.37-1.1c-2.81 0-5.35.73-7.64 2.17-2.29 1.45-4.1 3.58-5.45 6.39s-2.02 6.3-2.02 10.33 0 6.05 1.97 10.28c1.31 2.82 3.11 4.97 5.4 6.45s4.88 2.22 7.77 2.22h.01c2.12.01 3.87-.35 5.25-1.06s2.49-1.57 3.33-2.58Zm-11.07-4.95a9.52 9.52 0 0 1-2.94-4.27c-.66-1.8-.99-2.71-.99-6.12 0-2.27.33-4.3.99-6.09.65-1.78 1.63-3.18 2.92-4.2s2.97-1.53 4.83-1.53 3.45.49 4.75 1.48a8.97 8.97 0 0 1 2.96 4.12c.67 1.76 1 3.84 1 6.22s-.34 4.48-1.02 6.27a9.3 9.3 0 0 1-2.96 4.19 7.5 7.5 0 0 1-4.73 1.5c-1.9 0-3.51-.53-4.81-1.57ZM365.62 844.67h-.26a11.75 11.75 0 0 0-2.02-3.22c-.89-1.03-2.02-1.88-3.4-2.55s-3.04-1-4.99-1c-2.57 0-4.96.67-7.18 2.02-2.23 1.35-4.02 3.42-5.39 6.21s-2.05 6.46-2.05 10.62.66 7.64 1.97 10.43c1.31 2.8 3.09 4.9 5.32 6.31a13.62 13.62 0 0 0 7.42 2.12h.02c1.88 0 3.5-.31 4.84-.93a10.52 10.52 0 0 0 3.38-2.41c.9-.99 1.6-2.03 2.08-3.12h.39v5.94h11.3v-48.94h-11.43v18.52Zm-.56 17.32a7.69 7.69 0 0 1-2.38 3.46 5.83 5.83 0 0 1-3.73 1.23c-1.47.01-2.71-.4-3.73-1.22s-1.79-1.98-2.32-3.48c-.53-1.5-.79-3.21-.79-5.21s.26-3.73.79-5.21 1.3-2.63 2.32-3.45 2.28-1.23 3.73-1.23 2.69.4 3.73 1.2a7.45 7.45 0 0 1 2.38 3.42c.55 1.48.82 3.28.82 5.27s-.27 3.73-.82 5.22ZM516.82 851.48c.76-1.43 1.76-2.59 2.97-3.48s2.66-1.33 4.35-1.33c.83 0 1.25-.02 2.12.39a3.5 3.5 0 0 1 1.41 1.17c.36.52.62 1.15.79 1.89s.26 1.6.28 2.56l10.87-1.71c.04-1.99-.29-3.79-1-5.4s-1.74-2.98-3.09-4.12-2.97-2.02-4.88-2.63c-1.9-.61-4.04-.92-6.4-.92-3.52 0-6.61.62-9.26 1.87s-4.86 2.94-6.62 5.06-3.08 4.51-3.97 7.16a25.54 25.54 0 0 0-1.33 8.18c0 3.13.64 5.87 1.92 8.21a13.33 13.33 0 0 0 5.53 5.45 18.14 18.14 0 0 0 8.67 1.94c2.37 0 4.55-.31 6.54-.92s3.77-1.49 5.35-2.64a17.3 17.3 0 0 0 4.06-4.17c1.13-1.63 2-3.47 2.61-5.53l-10.28-1.81a10 10 0 0 1-3.17 4.65c-.69.53-1.43.94-2.23 1.23s-1.63.43-2.48.43c-1.16 0-2.11-.26-2.84-.76s-1.27-1.24-1.62-2.2a9.83 9.83 0 0 1-.53-3.42c0-1.44.18-2.97.54-4.58s.92-3.14 1.69-4.57ZM96.63 775.62a9.74 9.74 0 0 0 3.14-3.51 10.48 10.48 0 0 0 1.15-5.04c0-2.45-.6-4.62-1.79-6.5a12.03 12.03 0 0 0-5.39-4.45c-2.4-1.09-5.39-1.63-8.98-1.63H65.35v48.92h20.66c3.7 0 6.79-.59 9.28-1.76 2.48-1.17 4.36-2.77 5.63-4.81s1.9-4.35 1.9-6.93c0-2.4-.51-4.48-1.53-6.22a11.16 11.16 0 0 0-9.18-5.63v-.49a13.14 13.14 0 0 0 4.52-1.95Zm-13.15-12.93c2.34 0 4.14.55 5.4 1.67a5.5 5.5 0 0 1 1.89 4.33 5.86 5.86 0 0 1-3.65 5.6 9.3 9.3 0 0 1-3.84.77h-7.91v-12.37h8.11Zm9.03 26.29c0 1.86-.68 3.36-2.04 4.5-1.36 1.14-3.51 1.71-6.44 1.71h-8.66v-13.27h8.93c1.69 0 3.14.3 4.37.9 1.23.61 2.17 1.44 2.84 2.5s1 2.28 1 3.66ZM305.08 682.85h8.54v48.94h-8.54zM271.98 194.56c0 11.5 3.34 20.33 10.03 26.49 6.69 6.16 16.34 9.24 28.96 9.24 3.38 0 6.93-.23 10.65-.68 3.8-.47 7.55-1.26 11.21-2.37l-4.85-25.36c-1.2.3-2.96.62-5.28.96-2.33.34-4.13.51-5.41.51-4.13 0-7.08-.96-8.85-2.87-1.77-1.92-2.65-4.86-2.65-8.85v-63.34h23.55v-25.81h-23.55V72.5h-33.81v29.98h-17.36v25.81h17.36v66.27ZM331.85 408.47v2.69h5.45v26.35c0 2.69.77 4.79 2.3 6.29 1.53 1.5 3.65 2.05 6.34 1.66a8.33 8.33 0 0 0 2.27-.43l-.66-2.63c-.27.04-.56.09-.89.16l-.85.16c-1.77.31-3.14-.01-4.1-.95-.97-.94-1.45-2.42-1.45-4.43v-26.18h7.62v-2.69h-7.62v-8.74h-2.96v8.74h-5.45ZM327.05 445.2v-24.21c0-2.72-.54-5.04-1.61-6.98a11.12 11.12 0 0 0-4.47-4.47 13.53 13.53 0 0 0-6.6-1.56c-2.78 0-5.3.7-7.54 2.1a10.65 10.65 0 0 0-4.12 4.99v-18.82h-2.96v48.94h2.96v-23.73c0-2.15.47-4.03 1.44-5.62.97-1.59 1.44-2.39 3.96-3.74 1.68-.9 3.57-1.35 5.67-1.35 3.07 0 5.55.95 7.44 2.84 1.89 1.89 2.84 4.42 2.84 7.57v24.04h2.99ZM513.64 156.8c0-5.26 1.15-9.87 3.44-13.81a24.17 24.17 0 0 1 9.64-9.24 28.91 28.91 0 0 1 13.86-3.32c2.56 0 5.26.15 8.12.45s5.04.72 6.54 1.24v-30.2a35.47 35.47 0 0 0-5.3-.85c-2.02-.19-3.9-.28-5.63-.28a30.99 30.99 0 0 0-18.77 5.97c-5.44 3.98-9.33 9.88-11.66 17.69h-1.35v-21.98h-32.68v126h-.02l33.81.01V156.8ZM501.59 440.39c-3 1.69-6.11 2.54-9.33 2.54-2.21 0-4.16-.36-5.83-1.08a12.17 12.17 0 0 1-4.22-2.96c-1.13-1.24-2-2.65-2.59-4.2-.6-1.56-.92-3.17-.99-4.83h-3.09c.02 1.97.37 3.9 1.05 5.81a15.36 15.36 0 0 0 3.05 5.16c1.36 1.53 3.06 2.75 5.11 3.66s4.45 1.36 7.21 1.36h.02c4.09 0 7.87-1.03 11.33-3.11s6.39-5 8.77-8.77a34.82 34.82 0 0 0 4.79-13.24c.85-5.06.71-9.46-.43-13.22s-3.09-6.68-5.86-8.77c-2.77-2.09-6.21-3.14-10.3-3.14-2.74 0-5.28.45-7.62 1.35-2.34.9-4.45 2.11-6.32 3.63a24.68 24.68 0 0 0-7.77 11.02h3.12a19.54 19.54 0 0 1 2.63-4.86 21.09 21.09 0 0 1 4.09-4.19 19.42 19.42 0 0 1 5.3-2.94 17.87 17.87 0 0 1 6.24-1.08c3.22 0 6.01.86 8.39 2.58 2.38 1.72 4.09 4.22 5.14 7.52.91 2.87 1.12 6.31.63 10.32h-23.75l-.43 2.86h23.71a30.13 30.13 0 0 1-4.27 11.09 22.97 22.97 0 0 1-7.78 7.49ZM283.25 454.25c-2.06 1.82-4.85 2.73-8.38 2.73-1.95 0-3.65-.26-5.12-.77a9.94 9.94 0 0 1-6.04-5.34l-2.56 1.45a11.46 11.46 0 0 0 2.92 3.94 13.07 13.07 0 0 0 4.65 2.56c1.83.59 3.87.89 6.15.89 2.86 0 5.37-.5 7.54-1.5s3.86-2.51 5.06-4.55c1.21-2.04 1.81-4.58 1.81-7.62v-37.57h-2.92v8.21h-.3a16.15 16.15 0 0 0-2.46-4.35 11.64 11.64 0 0 0-3.91-3.17 12 12 0 0 0-5.49-1.18c-2.93 0-5.5.8-7.7 2.41a15.83 15.83 0 0 0-5.14 6.67c-1.23 2.84-1.84 6.09-1.84 9.77s.62 6.88 1.86 9.61a14.85 14.85 0 0 0 5.16 6.32 13.3 13.3 0 0 0 7.64 2.23c2 0 3.77-.35 5.34-1.05 1.57-.7 2.9-1.66 3.99-2.89a12.65 12.65 0 0 0 2.5-4.24h.33v9.1c0 3.74-1.03 6.52-3.09 8.34Zm1.67-19.23a11.8 11.8 0 0 1-4.09 5.34 10.69 10.69 0 0 1-6.31 1.87h.01c-2.5-.01-4.63-.65-6.42-1.96s-3.16-3.12-4.11-5.44c-.95-2.32-1.43-3.52-1.43-8.05 0-3.02.47-5.74 1.41-8.16a13.3 13.3 0 0 1 4.09-5.76c1.78-1.42 3.98-2.13 6.45-2.13s4.6.7 6.37 2.1a13.11 13.11 0 0 1 4.06 5.73c.94 2.42 1.4 5.05 1.4 8.23s-.48 5.92-1.43 8.23ZM274.21 551.77v36.72h.01l5.91.01v-22.99c0-1.67.39-3.14 1.18-4.42s1.88-2.29 3.27-3.02a9.98 9.98 0 0 1 4.71-1.1 17.6 17.6 0 0 1 3.54.33v-5.95a47.68 47.68 0 0 0-2.99-.1c-2.19 0-4.16.56-5.9 1.69a8.84 8.84 0 0 0-3.63 4.48h-.39v-5.65h-5.71ZM553.61 430.93c0 2.93.55 5.51 1.63 7.75s2.6 3.98 4.56 5.24 4.28 1.89 6.95 1.89v-.02c1.96 0 3.75-.33 5.38-.97s3.07-1.44 4.33-2.38 2.31-1.89 3.14-2.84 1.41-1.75 1.74-2.41l-2.63-1.21c-.22.44-.65 1.04-1.3 1.81-.64.76-1.48 1.55-2.51 2.36s-2.23 1.49-3.6 2.04-2.88.82-4.52.82c-2.16 0-4.01-.5-5.53-1.49-1.52-.99-2.67-2.39-3.46-4.2s-1.18-3.83-1.18-6.26a24.37 24.37 0 0 1 4.29-13.79c1.39-1.97 3.07-3.56 5.04-4.75s4.18-1.79 6.63-1.79a8.99 8.99 0 0 1 6.81 2.71c.71.75 1.26 1.5 1.64 2.23.38.74.6 1.32.67 1.76l2.86-.85a8.88 8.88 0 0 0-.98-2.4c-.53-.96-1.26-1.92-2.22-2.87s-2.15-1.74-3.6-2.38a12.71 12.71 0 0 0-5.12-.95c-2.83 0-5.4.65-7.72 1.95s-4.32 3.05-6.01 5.25-2.99 4.66-3.91 7.39-1.38 5.43-1.38 8.36ZM309.68 660.13v-24.76c0-2.78-.51-5.1-1.54-6.96a10.27 10.27 0 0 0-4.19-4.2 12.36 12.36 0 0 0-5.9-1.41c-1.91 0-3.69.36-5.37 1.08a11.55 11.55 0 0 0-6.28 6.65 12.14 12.14 0 0 0-2.91-5.25c-1.64-1.65-3.8-2.48-6.47-2.48a10.64 10.64 0 0 0-8.44 4.01c-.78.96-1.42 2.11-1.91 3.46l-.16-6.85h-6.86v36.72h7.23v-22.83c0-1.77.35-3.27 1.04-4.48.69-1.22 1.61-2.13 2.76-2.76s2.39-.94 3.73-.94c1.95 0 3.55.59 4.81 1.77s1.89 2.76 1.89 4.73v24.5h7.13v-23.52c0-1.47.3-2.76.89-3.89a6.43 6.43 0 0 1 2.53-2.64c1.1-.63 2.4-.95 3.91-.95 1.86 0 3.47.55 4.84 1.64s2.05 2.87 2.05 5.32v24.04h7.22ZM274.88 459.71h-.01.02ZM290.46 696.98c-2.63-1.57-5.76-2.36-9.33-2.36s-6.66.78-9.29 2.36-4.66 3.79-6.09 6.65-2.15 6.24-2.15 10 .72 7.06 2.15 9.9a16 16 0 0 0 6.09 6.63c2.62 1.59 5.72 2.38 9.29 2.38s6.7-.79 9.33-2.38a15.88 15.88 0 0 0 6.09-6.63c1.43-2.83 2.15-6.09 2.15-9.9s-.72-7.14-2.15-10-3.46-5.07-6.09-6.65Zm-1.39 22.69c-.65 1.81-1.63 3.26-2.96 4.33s-2.99 1.61-4.98 1.61-3.64-.54-4.94-1.61a9.66 9.66 0 0 1-2.92-4.33c-.65-1.82-.97-3.81-.97-6.08s.32-4.31.97-6.12c.64-1.81 1.62-3.25 2.92-4.32s2.94-1.61 4.94-1.61 3.65.54 4.98 1.61a9.49 9.49 0 0 1 2.96 4.33c.65 1.82.97 3.87.97 6.11s-.32 4.26-.97 6.08ZM327.98 201.88h.02-.02ZM610.28 602.2h5.91l3.25-19.57h.56c.28.67.74 1.54 1.36 2.59s1.59 1.99 2.92 2.81 3.18 1.23 5.57 1.23c2.94 0 5.56-.67 7.87-2s3.46-2.01 5.86-5.35a25.4 25.4 0 0 0 3.66-7.5 28.83 28.83 0 0 0 1.26-8.42c0-3.04-.54-5.66-1.61-7.85a11.83 11.83 0 0 0-4.57-5.06 13.41 13.41 0 0 0-7-1.77c-2.32 0-4.25.38-5.78 1.12-1.54.74-2.77 1.61-3.7 2.61s-1.65 1.87-2.18 2.61h-.3l.99-5.88h-5.71l-8.38 50.45.02-.02Zm11.59-34.14c.56-2.1 1.4-4.02 2.5-5.75s2.49-3.11 4.15-4.15 3.6-1.56 5.81-1.56c2.82 0 4.89.9 6.22 2.68s1.99 4.08 1.99 6.88c0 2.04-.29 4.1-.87 6.19s-1.44 4.02-2.59 5.78-2.57 3.18-4.24 4.25a10.56 10.56 0 0 1-5.8 1.61c-2.67 0-4.68-.87-6.01-2.61s-2-4.07-2-6.98c0-2.13.28-4.24.84-6.34ZM127.95 479.64c-3 0-5.64.79-7.92 2.37a15.53 15.53 0 0 0-5.32 6.58c-1.28 2.82-1.91 6.09-1.91 9.84s.65 6.97 1.94 9.66a14.63 14.63 0 0 0 5.34 6.21 14.12 14.12 0 0 0 7.77 2.17c2.19 0 4.03-.35 5.52-1.07 1.49-.72 2.7-1.62 3.63-2.73s1.64-2.23 2.12-3.37h.43v8.24c0 3.37-.99 5.86-2.96 7.47-1.97 1.61-4.58 2.41-7.82 2.41-2.04 0-3.76-.28-5.16-.84a10.04 10.04 0 0 1-3.43-2.17c-.89-.88-1.59-1.8-2.12-2.74l-3.68 2.23a12.44 12.44 0 0 0 3.02 3.84c1.29 1.11 2.89 1.99 4.78 2.64s4.08.97 6.58.97h.02c2.93.01 5.55-.48 7.85-1.45s4.11-2.47 5.42-4.48c1.31-2.02 1.97-4.58 1.97-7.69v-37.6h-4.34v7.06h-.46a16.44 16.44 0 0 0-2.09-3.43 11 11 0 0 0-3.6-2.94 11.82 11.82 0 0 0-5.58-1.18Zm10.34 11.11c.87 2.2 1.3 4.64 1.3 7.57s-.43 5.46-1.31 7.57a10.61 10.61 0 0 1-3.79 4.86 10.35 10.35 0 0 1-5.99 1.69h-.01c-2.39 0-3.59.01-6.08-1.79a11.33 11.33 0 0 1-3.81-4.98c-.87-2.13-1.31-4.63-1.31-7.36s.44-5.21 1.3-7.42a12.03 12.03 0 0 1 3.79-5.27c1.66-1.3 3.73-1.95 6.11-1.95s4.4.63 6.04 1.89a11.86 11.86 0 0 1 3.76 5.19ZM639.84 372a13.82 13.82 0 0 0 5.25-4.34 15.17 15.17 0 0 0 2.66-6.57 12.6 12.6 0 0 0-.3-6.11 9.9 9.9 0 0 0-2.74-4.35 7.21 7.21 0 0 0-4.25-1.89v-.13c1.64-.4 3.11-1.14 4.4-2.22a13.35 13.35 0 0 0 3.22-4.02 16.74 16.74 0 0 0 1.74-5.25c.44-2.59.28-4.81-.46-6.67a8.5 8.5 0 0 0-3.79-4.32c-1.78-1.02-4.04-1.53-6.78-1.53h-15.21l-8.11 48.94h16.95c2.8 0 5.27-.51 7.42-1.54Zm-14.99-45.9h13.76c3.56 0 6.22.94 7.96 2.81s2.33 4.54 1.76 8a15.45 15.45 0 0 1-2 5.44 11.8 11.8 0 0 1-3.97 4.04 10.78 10.78 0 0 1-5.81 1.53h-15.31l3.61-21.82Zm11.58 23.34c2.3 0 4.25.49 5.86 1.46a8.35 8.35 0 0 1 3.48 4.04c.71 1.72.88 3.71.51 5.96a12.73 12.73 0 0 1-4.57 8.06 13.92 13.92 0 0 1-9.13 3.07h-15.33l3.74-22.59h15.44ZM649.57 722.08c-.12-2.35-.37-4.7-.74-7.04l-3.45-19.97h-8.83l7.78 36.85-.92 2.33a7.66 7.66 0 0 1-1.95 3.15c-.8.72-1.72 1.16-2.76 1.31s-2.19.08-3.46-.23l-.95-.26-3.09 6.67h-.01c.55.25 1.32.45 2.32.63 1 .17 2.08.26 3.24.26 2.21 0 4.19-.37 5.93-1.1a14.13 14.13 0 0 0 4.65-3.17 21.99 21.99 0 0 0 3.61-4.99l22.63-41.45h-9.29l-10.25 19.97a98.15 98.15 0 0 0-3.24 7.04l-1.07 2.59-.15-2.59ZM595.46 445.19h2.94l5.62-33.89h12.32l.46-2.83h-27.62l-.46 2.83h12.32l-5.58 33.89zM662.14 569.32c.21-1.29.43-2.57.62-3.84l.57-3.79.54-3.79.1-.7.26 2.2c.19 1.59.45 3.16.77 4.71s.72 3.29 1.2 5.22l4.93 19.18h5.19l11.2-19.18c1.14-1.95 2.13-3.71 2.96-5.29a98.33 98.33 0 0 0 3.46-7.26l-.18.99-.71 3.92-.69 3.92-.64 3.71-3.19 19.18h5.94l6.08-36.72h-9.2l-11.59 20.3a91.36 91.36 0 0 0-4.81 9.75l-.39.94-.07-.83a69.2 69.2 0 0 0-.85-6.22c-.2-1.14-.47-2.36-.8-3.65l-4.99-20.3h-8.7l-6.08 36.72h5.88l3.19-19.18ZM579.63 730.69c2.53-1.24 4.67-2.93 6.45-5.06s3.13-4.55 4.06-7.27 1.4-5.43 1.4-8.51-.6-5.78-1.81-8.06-2.94-4.05-5.21-5.3c-2.26-1.25-4.99-1.87-8.19-1.87s-6.06.62-8.59 1.87c-2.53 1.24-4.68 2.94-6.44 5.07s-3.11 4.56-4.04 7.27-1.4 5.4-1.4 8.47.61 5.74 1.81 8.03 2.93 4.06 5.19 5.32 4.98 1.89 8.18 1.89c3.2 0 6.06-.61 8.59-1.85Zm-13.53-7.38c-1.11-1.53-1.67-3.49-1.67-5.88 0-1.71.24-3.49.71-5.34s1.18-3.57 2.13-5.17 2.16-2.89 3.63-3.89a9.02 9.02 0 0 1 5.16-1.49c1.58 0 2.87.35 3.88 1.05s1.76 1.66 2.25 2.89.74 2.64.74 4.24a21.56 21.56 0 0 1-2.84 10.47c-.95 1.6-2.16 2.9-3.63 3.91s-3.19 1.51-5.16 1.51h-.01c-2.34 0-4.07-.77-5.19-2.3ZM588.2 589.28h-.01.01zM546.31 731.79l8.08-48.94h-40.26l-8.11 48.94h8.77l6.86-41.58h22.79l-6.9 41.58h8.77zM528.17 408.47l-6.08 36.72H525.06l2.83-16.85h5.12l10.87 16.85h3.74l-11.96-18.52 17.57-18.2h-3.71L533 425.52h-4.66l2.79-17.05h-2.96zM579.25 558.42a23.98 23.98 0 0 0-3.94 7.37c-.91 2.73-1.36 5.44-1.36 8.47s.57 5.66 1.72 7.92 2.79 4 4.91 5.24a14.84 14.84 0 0 0 7.62 1.86c3.05 0 5.79-.63 8.22-1.89 2.43-1.25 4.57-3 6.27-5.14 1.74-2.17 3.07-4.62 3.99-7.36s1.38-5.48 1.38-8.54-.57-5.72-1.72-7.98a12.33 12.33 0 0 0-4.94-5.22c-2.14-1.23-4.58-1.84-7.65-1.84s-5.82.64-8.26 1.92a19.42 19.42 0 0 0-6.24 5.19Zm4.13 3.93c1.16-1.73 2.59-3.12 4.3-4.17s3.68-1.58 5.91-1.58c2.01 0 3.64.43 4.89 1.31s2.17 2.06 2.76 3.55c.59 1.48.89 3.16.89 5.02 0 2.02-.3 4.05-.89 6.11s-1.47 3.96-2.63 5.67-2.6 3.1-4.32 4.15-3.71 1.58-5.96 1.58c-2.98.01-5.13-.94-6.47-2.82-1.33-1.88-2-4.2-2-6.96 0-2.04.3-4.09.89-6.16a19.96 19.96 0 0 1 2.63-5.7ZM556.96 588.49h6.24l8.11-48.94h-6.24l-3.51 21.15h-25.68l3.51-21.15h-6.24l-8.11 48.94h6.23l3.68-22.27h25.72l-3.71 22.27zM622.95 408.47l-8.37 50.45-.03.02h2.96l3.65-21.81h.3a12.9 12.9 0 0 0 1.74 4.4 9.44 9.44 0 0 0 3.47 3.25c1.46.8 3.25 1.21 5.37 1.21 2.8 0 5.32-.7 7.54-2.09a18.71 18.71 0 0 0 5.65-5.53 27.35 27.35 0 0 0 3.53-7.64c.81-2.8 1.22-5.47 1.22-8.33s-.48-5.38-1.43-7.55-2.33-3.86-4.12-5.06a11.34 11.34 0 0 0-6.5-1.81c-2.06 0-3.93.39-5.63 1.17-1.7.77-3.19 1.83-4.47 3.15s-2.33 2.78-3.14 4.38h-.23l1.38-8.21h-2.89Zm3.48 9.01a16.24 16.24 0 0 1 4.76-4.89 11.41 11.41 0 0 1 6.42-1.84c3.09 0 5.42 1.09 7.01 3.28s2.38 5.01 2.38 8.47a26.61 26.61 0 0 1-4.01 13.91c-1.32 2.04-2.91 3.69-4.78 4.94s-4 1.87-6.39 1.87h.01c-3.04.01-5.37-1.08-6.98-3.27s-2.41-5.03-2.41-8.51c0-2.41.34-4.83 1.02-7.26a24.7 24.7 0 0 1 2.97-6.7ZM156.64 336.82v36.72h1.51v-24.63a10.67 10.67 0 0 1 5.83-9.68 12.98 12.98 0 0 1 6.13-1.43c3.32 0 6.04 1.01 8.14 3.05s3.15 4.72 3.15 8.05v24.63h1.51V348.9c0-2.52-.55-4.72-1.64-6.6a11.64 11.64 0 0 0-4.52-4.42 13.52 13.52 0 0 0-6.65-1.59c-2.78 0-5.34.69-7.67 2.1-2 1.21-3.42 2.93-4.29 5.16v-6.73h-1.51ZM143.98 336.82h1.51v36.72h-1.51zM204.27 484v-3.88h-7.55v-8.74h-4.47v8.74h-5.45V484h5.45v24.45c0 2.85.83 5.06 2.48 6.65 1.65 1.58 3.95 2.28 6.88 2.08.59-.02 1.18-.07 1.76-.16.58-.09 1.11-.21 1.59-.36l-.92-3.84c-.39.09-.81.17-1.26.25s-.82.12-1.13.12c-1.66.17-2.9-.17-3.71-1.02-.81-.86-1.22-2.19-1.22-4.01V484h7.55ZM198.21 410.81a11.88 11.88 0 0 0-4.01-2.12c-1.5-.46-3.07-.69-4.71-.69-1.91 0-3.73.29-5.47.85s-3.28 1.43-4.6 2.59a11.56 11.56 0 0 0-3.07 4.4l2.86 1.02a9.04 9.04 0 0 1 2.15-3.19c.95-.92 2.12-1.64 3.5-2.17s2.95-.79 4.7-.79c1.97 0 3.66.36 5.07 1.07a7.66 7.66 0 0 1 3.25 2.99 8.97 8.97 0 0 1 1.13 4.61v1.51c0 .91-.42 1.61-1.26 2.08-.85.48-1.99.82-3.45 1.04-1.46.22-3.12.44-4.98.66-2.45.28-3.68.42-6.34 1.26a14.7 14.7 0 0 0-4.35 2.1 7.94 7.94 0 0 0-2.51 3.02 9.5 9.5 0 0 0-.82 4.06c0 2.32.53 4.29 1.59 5.91s2.48 2.86 4.25 3.71c1.77.85 3.71 1.28 5.81 1.28v.02c1.93 0 3.67-.33 5.21-1a12.78 12.78 0 0 0 6.62-6.42h.26v6.6H202v-25.62c0-1.99-.35-3.72-1.02-5.17a9.97 9.97 0 0 0-2.77-3.61Zm.8 19.5c0 2.45-.5 4.66-1.51 6.62s-2.39 3.5-4.14 4.63-3.76 1.69-6.04 1.69c-1.7 0-3.24-.33-4.61-.99a7.88 7.88 0 0 1-3.24-2.79 7.6 7.6 0 0 1-1.18-4.27c0-1.54.39-2.83 1.17-3.88.78-1.05 2-1.91 3.66-2.58a25.68 25.68 0 0 1 6.5-1.46l2.76-.36c.94-.13 1.84-.29 2.71-.49.86-.19 1.64-.42 2.33-.67s1.22-.53 1.59-.84v5.39ZM146.24 326.91c0-.44-.14-.81-.44-1.1-.3-.29-.66-.44-1.1-.44-.41 0-.77.14-1.08.44a1.52 1.52 0 0 0 0 2.18c.3.31.66.46 1.08.46s.81-.15 1.1-.46c.29-.3.44-.64.44-1.08ZM139.37 399.73v8.74h-5.46v2.69h5.46v26.35c0 2.69.77 4.79 2.3 6.29 1.53 1.5 3.65 2.05 6.34 1.66a8.33 8.33 0 0 0 2.27-.43l-.66-2.63c-.27.04-.56.09-.89.16l-.85.16c-1.77.31-3.14-.01-4.1-.95-.97-.94-1.45-2.42-1.45-4.43v-26.18h7.61v-2.69h-7.61v-8.74h-2.96ZM144.38 560.09c-1.33 2.79-2 4.12-2 9.87 0 3.83.68 7.08 2.04 9.75a14.55 14.55 0 0 0 5.55 6.09 15.26 15.26 0 0 0 7.92 2.09c2.37 0 4.26-.37 5.67-1.1a9.72 9.72 0 0 0 3.25-2.54c.76-.97 1.34-1.8 1.76-2.5h.56v7.36c0 3.02-.95 5.23-2.84 6.63-1.89 1.4-4.31 2.1-7.24 2.1-2.15 0-3.89-.3-5.21-.9a9.6 9.6 0 0 1-3.15-2.18 34.92 34.92 0 0 1-1.95-2.33l-4.79 3.09c.77 1.33 1.81 2.57 3.12 3.71s2.96 2.05 4.94 2.74a21.4 21.4 0 0 0 7.03 1.03c2.98 0 5.68-.47 8.1-1.41s4.34-2.42 5.76-4.42 2.13-4.58 2.13-7.73v-37.67h-5.75v5.88h-.56c-.41-.66-1-1.49-1.77-2.5s-1.14-1.51-3.27-2.68c-1.42-.78-3.31-1.17-5.67-1.17-3.05 0-5.75.76-8.1 2.3a15.56 15.56 0 0 0-5.53 6.49Zm8.7-1.7c1.55-1.19 3.56-1.79 5.81-1.79s4.15.56 5.68 1.69a10.27 10.27 0 0 1 3.46 4.66c.78 1.98 1.17 4.21 1.17 6.88s-.39 4.96-1.18 6.88a9.47 9.47 0 0 1-3.48 4.4 9.98 9.98 0 0 1-5.65 1.53v.02c-2.31 0-4.24-.54-5.79-1.63s-2.72-2.59-3.51-4.52c-.79-1.93-1.18-4.22-1.18-6.67s.39-4.68 1.17-6.67a10.82 10.82 0 0 1 3.5-4.78ZM195.71 660.14V611.2h-7.22v18.19h-.39a20.04 20.04 0 0 0-1.81-2.66c-.79-1-1.88-1.89-3.27-2.64s-3.22-1.13-5.5-1.13c-2.93 0-5.56.74-7.88 2.23s-4.15 3.65-5.48 6.47-2 6.26-2 10.21.66 7.34 1.97 10.17c1.31 2.84 3.13 5.02 5.45 6.54s4.97 2.28 7.95 2.28h-.02c2.21 0 4.02-.39 5.42-1.14 1.4-.75 2.51-1.63 3.32-2.64.81-1 1.42-1.9 1.84-2.69h.59v5.75h7.03Zm-8.17-11.61a10.16 10.16 0 0 1-3.22 4.55 8.3 8.3 0 0 1-5.21 1.64 8.06 8.06 0 0 1-5.25-1.7 10.4 10.4 0 0 1-3.22-4.63c-.72-1.95-1.08-4.16-1.08-6.57s.36-4.57 1.07-6.49a10.23 10.23 0 0 1 3.19-4.55c1.41-1.11 3.22-1.67 5.3-1.67s3.83.53 5.24 1.59a9.7 9.7 0 0 1 3.2 4.43c.72 1.89 1.08 4.14 1.08 6.68s-.37 4.78-1.1 6.72ZM159.05 603h-.01.01zM65.35 588.49h6.24V569.5h10.54l1.13-.02 10.2 19.01h7.23l-10.97-20.12c.63-.22 1.24-.48 1.8-.76 2.45-1.26 4.28-3 5.47-5.24s1.79-4.81 1.79-7.72-.6-5.5-1.79-7.78-3.02-4.07-5.48-5.37c-2.46-1.3-5.6-1.95-9.41-1.95H65.35v48.94Zm16.42-43.45c2.6 0 4.69.4 6.27 1.2a7.53 7.53 0 0 1 3.45 3.35c.72 1.43 1.08 3.17 1.08 5.07s-.36 3.55-1.08 4.94a7.23 7.23 0 0 1-3.43 3.22c-1.56.75-3.64 1.13-6.22 1.13H71.59v-18.91h10.18ZM153.81 516.84h4.47v-22.88c0-2.1.44-3.92 1.33-5.47a9.05 9.05 0 0 1 3.63-3.55 10.81 10.81 0 0 1 5.19-1.23c2.83 0 5.08.87 6.77 2.61s2.53 4.11 2.53 7.11v23.42h4.47V493.1c0-2.92-.53-5.37-1.59-7.36a11.02 11.02 0 0 0-4.42-4.55 13.35 13.35 0 0 0-6.57-1.56c-2.79 0-5.25.71-7.41 2.13a11.1 11.1 0 0 0-3.93 4.8V467.9h-4.47v48.94ZM156.61 445.19h2.96v-24.07c0-2 .46-3.76 1.36-5.29a9.69 9.69 0 0 1 3.74-3.61 11.04 11.04 0 0 1 6.45-1.26l.66.05v-2.99l-.74-.02c-.25-.02-.51-.02-.77-.02-2.41 0-4.56.57-6.45 1.72a9.78 9.78 0 0 0-4.06 4.55h-.26v-5.78h-2.89v36.72ZM207.71 695.07h8.54v36.72h-8.54zM249.54 400.89c.67 0 1.25-.23 1.72-.69.47-.46.71-.98.71-1.64s-.24-1.21-.71-1.66c-.47-.45-1.06-.67-1.72-.67a2.35 2.35 0 0 0-2.4 2.33c0 .63.24 1.18.71 1.64.47.46 1.03.69 1.69.69ZM199.77 731.8v-24.76c0-2.74-.51-5.03-1.54-6.88a10.52 10.52 0 0 0-4.17-4.22 12.04 12.04 0 0 0-5.94-1.45c-1.91 0-3.7.37-5.37 1.1a11.6 11.6 0 0 0-6.36 6.9 12.94 12.94 0 0 0-2.99-5.51c-1.63-1.67-3.77-2.5-6.42-2.5-1.62 0-3.17.33-4.65 1a10.52 10.52 0 0 0-3.88 3.07c-.78.97-1.41 2.15-1.9 3.53l-.26-7.01h-8.01v36.75h8.53v-22.5c0-1.64.31-3.02.92-4.14a6.11 6.11 0 0 1 2.48-2.53 7.12 7.12 0 0 1 3.43-.85c1.82 0 3.31.56 4.47 1.69a5.95 5.95 0 0 1 1.74 4.48v23.84h8.34v-23.06c0-1.38.26-2.59.8-3.63a6.02 6.02 0 0 1 2.32-2.45 6.9 6.9 0 0 1 3.55-.89c1.75 0 3.25.53 4.5 1.58s1.87 2.71 1.87 4.99v23.45h8.54ZM65.35 516.83H93.3v-4.17H70.05V467.9h-4.7v48.93zM236.58 560.01l5.68 1.87a9.28 9.28 0 0 1 4.8-4.56c1.25-.55 2.79-.82 4.5-.82s3.13.28 4.27.85c1.14.57 1.99 1.39 2.56 2.45s.85 2.36.85 3.89v.2c0 .9-.33 1.54-1 1.91s-1.69.64-3.07.79c-1.38.16-3.16.38-5.35.66-1.71.22-3.4.52-5.09.89-1.68.37-3.22.93-4.61 1.69a8.86 8.86 0 0 0-3.33 3.1 9.45 9.45 0 0 0-1.25 5.12c0 2.41.55 4.45 1.67 6.14a10.79 10.79 0 0 0 4.52 3.84c1.89.87 4 1.31 6.32 1.31 2.08 0 3.85-.32 5.32-.93a11.02 11.02 0 0 0 3.58-2.28 9.94 9.94 0 0 0 2-2.64h.39v4.99h5.81v-24.21c0-2.87-.48-5.16-1.43-6.88a10.1 10.1 0 0 0-3.61-3.89 13.46 13.46 0 0 0-4.53-1.76 23.34 23.34 0 0 0-4.19-.44c-1.88 0-3.78.26-5.71.79s-3.69 1.42-5.29 2.68-2.87 3.01-3.81 5.24Zm22.66 15.21c0 1.49 0 2.23-1.18 4.29-.79 1.37-1.94 2.48-3.45 3.33s-3.36 1.28-5.55 1.28h-.01c-1.47 0-2.77-.22-3.91-.66s-2.03-1.09-2.69-1.94a5.08 5.08 0 0 1-.99-3.19c0-1.4.38-2.51 1.12-3.33a6.98 6.98 0 0 1 2.97-1.87c1.24-.42 2.57-.73 3.99-.9l2.32-.28c.97-.12 1.98-.26 3.02-.44s1.97-.38 2.78-.61 1.34-.48 1.58-.77v5.09ZM149.16 754.5h9.85v48.94h-9.85zM248.09 408.47h2.96v36.72h-2.96zM215.51 681.89c-.97-.9-2.17-1.36-3.53-1.36s-2.53.45-3.5 1.36a4.46 4.46 0 0 0 0 6.61 4.93 4.93 0 0 0 3.5 1.38c1.38 0 2.56-.45 3.53-1.37.97-.92 1.46-2.03 1.46-3.32s-.49-2.39-1.46-3.3ZM82.63 373.54v-47.42h15.76v-1.51H65.35v1.51h15.77v47.42h1.51zM661.9 372.41a11.44 11.44 0 0 0 6.6 1.92h-.01c2.67.01 5.14-.66 7.41-1.99s4.24-3.12 5.9-5.35c1.67-2.24 2.96-4.72 3.88-7.46s1.38-5.37 1.38-8.28-.52-5.48-1.56-7.73-2.49-4.01-4.35-5.29a11.3 11.3 0 0 0-6.57-1.92c-2.69 0-5.17.67-7.44 2a20.36 20.36 0 0 0-5.91 5.34 26.13 26.13 0 0 0-3.89 7.42c-.92 2.72-1.38 5.38-1.38 8.29s.52 5.5 1.56 7.75 1.56 3.38 4.38 5.3Zm-3.12-20.98a24.75 24.75 0 0 1 3.68-6.91 18.9 18.9 0 0 1 5.44-4.89 12.84 12.84 0 0 1 6.63-1.81c2.23 0 4.18.57 5.83 1.72a11.09 11.09 0 0 1 3.83 4.76c.9 2.02 1.35 3.2 1.35 7.01a25.48 25.48 0 0 1-4.81 14.57 19.06 19.06 0 0 1-5.39 5.04 12.74 12.74 0 0 1-6.81 1.9h-.02a9.75 9.75 0 0 1-8.06-3.77c-2-2.51-3-5.76-3-9.75 0-2.7.44-5.32 1.33-7.87ZM65.35 445.19h27.89v-2.86h-24.8v-20.26H91.2v-2.86H68.44v-20.1h24.24v-2.86H65.35v48.94zM104.97 630.57c.45-1.3.92-2.74 1.41-4.32.49-1.58 1-3.21 1.51-4.91l.84-2.83-.05 2.49-.1 4.75-.08 4.45-.03 3.61v26.34h7.46v-48.94h-11.1l-10.51 28.08c-.31.83-.66 1.91-1.05 3.22a228.52 228.52 0 0 0-2.39 8.58l-.19.71-.21-.83a195.72 195.72 0 0 0-2.38-8.54 58.6 58.6 0 0 0-1.04-3.15L76.39 611.2H65.35v48.96h7.3v-26.34c0-1.25-.02-2.51-.05-3.76l-.1-4.55c-.03-1.6-.04-2.41-.1-4.75l-.05-2.02.85 2.74c.52 1.69 1.04 3.33 1.54 4.89l1.4 4.27c.42 1.28.8 2.34 1.13 3.17l10.15 26.34h6.4l10.02-26.34 1.13-3.24ZM101.64 712.5a12.49 12.49 0 0 0-3.27-4.02c-1.36-1.1-2.9-2.02-4.61-2.74s-3.47-1.3-5.29-1.74l-4.57-1.18a28.08 28.08 0 0 1-3.89-1.28c-1.28-.52-2.35-1.22-3.19-2.1s-1.26-1.99-1.26-3.35c0-1.25.36-2.36 1.07-3.32s1.72-1.72 3.05-2.28c1.33-.56 2.91-.84 4.75-.84 2.65 0 4.8.57 6.45 1.72a6.49 6.49 0 0 1 2.81 4.88h8.51c-.07-2.72-.84-5.14-2.32-7.26s-3.53-3.79-6.16-4.99c-2.62-1.21-5.75-1.81-9.16-1.81s-6.47.6-9.16 1.79-4.82 2.87-6.37 5.04a12.72 12.72 0 0 0-2.33 7.59c0 3.46 1.14 6.26 3.43 8.38 2.28 2.12 5.48 3.71 9.57 4.76l5.55 1.44c1.78.44 3.32.95 4.65 1.53 1.33.58 2.36 1.29 3.09 2.12s1.1 1.88 1.1 3.15c0 1.4-.42 2.63-1.25 3.69-.83 1.06-1.98 1.89-3.46 2.48s-3.28.89-5.11.89-3.5-.29-5.02-.84-2.73-1.4-3.65-2.54a7.7 7.7 0 0 1-1.61-4.27h-8.64c.13 3.22.98 5.96 2.56 8.21a14.75 14.75 0 0 0 6.55 5.16 25.22 25.22 0 0 0 9.87 1.77h.01c3.89 0 7.22-.62 9.98-1.83s4.87-2.91 6.34-5.09a13.2 13.2 0 0 0 2.2-7.57c0-2.12-.41-3.97-1.22-5.55Z"/></svg>