<svg xmlns="http://www.w3.org/2000/svg" data-name="InterPreview2" viewBox="0 0 950 976.42" class="fontpreview">
	<path d="M131.05 299.17q2.94-1.155 7.65-1.47c2.52-.19 4.51-.61 6-1.26a6.35 6.35 0 0 0 3.18-2.78c.64-1.19.97-2.66.97-4.38h-4.99c0 .77-.13 1.42-.4 1.94s-.77.93-1.52 1.23c-.73.31-1.81.49-3.23.58q-4.155.24-7.26 1.17t-5.28 2.7c-1.5 1.24-2.7 2.8-3.51 4.57-.89 1.86-1.55 4.13-1.95 6.8s-.61 5.81-.61 9.41v1.19c0 3.64.7 6.79 2.1 9.43 1.29 2.53 3.27 4.64 5.7 6.11 2.45 1.44 5.24 2.18 8.08 2.14 3 0 5.66-.75 8.01-2.28a15.8 15.8 0 0 0 5.54-6.21c1.34-2.62 2.02-5.7 2.02-8.86s-.6-6-1.81-8.5-2.83-4.49-4.87-5.96a11.4 11.4 0 0 0-6.84-2.2c-2.04 0-3.95.43-5.72 1.3s-3.33 2-4.62 3.39a13.9 13.9 0 0 0-2.89 4.52h-.15c.31-3.73.96-6.56 1.96-8.49a8.36 8.36 0 0 1 4.44-4.06Zm-4 14.15c.82-1.77 2.12-3.27 3.75-4.34 1.6-1.04 3.49-1.56 5.53-1.56s3.77.49 5.21 1.45 2.53 2.34 3.28 4.13 1.12 3.91 1.12 6.43-.4 4.69-1.19 6.5c-.7 1.7-1.88 3.16-3.4 4.19a9.4 9.4 0 0 1-5.31 1.47c-1.96.05-3.88-.5-5.53-1.56a10 10 0 0 1-3.55-4.23c-.86-1.91-1.29-3.99-1.25-6.08 0-2.41.45-4.55 1.34-6.4m99.02-3.14c.07-2.67-1.19-5.2-3.36-6.76-2.23-1.69-5.25-2.54-9.04-2.54h-14.26v34.89h16.47c2.4 0 4.45-.41 6.17-1.22s3.04-1.92 3.97-3.34 1.38-3 1.38-4.81c.1-3.13-1.54-6.05-4.26-7.6-1.19-.72-2.51-1.19-3.88-1.38 1.85-.3 3.58-1.13 4.96-2.4a6.37 6.37 0 0 0 1.84-4.84Zm-5.95 11.55c1.01 1 1.53 2.4 1.53 4.19 0 1.46-.51 2.62-1.53 3.47a6.46 6.46 0 0 1-4.22 1.28h-11.14v-10.42h11.14c1.8 0 3.19.49 4.22 1.49Zm-1.48-7.52c-1.18.87-2.82 1.31-4.93 1.31h-8.96V306h8.93q3.15 0 4.95 1.23c1.2.83 1.8 1.93 1.8 3.42s-.59 2.68-1.78 3.55h-.01Zm-207.85 8.58h19.18l4.64 12.98h6.25l-17.11-46.51h-6.87L0 335.77h6.29l4.5-12.97Zm7.13-20.87c.69-2.15 1.47-4.8 2.37-7.92 1.39 4.76 2.87 9.49 4.46 14.18l3.37 9.43H12.6l3.28-9.44c.55-1.58 1.23-3.66 2.05-6.26Zm48.05 12.28c-.92.43-1.91.69-2.92.75-1.32.14-3.01.35-5.09.62-1.63.21-3.24.49-4.84.84s-3.06.88-4.38 1.6a8.4 8.4 0 0 0-3.17 2.95 9.03 9.03 0 0 0-1.19 4.87c0 2.29.53 4.23 1.59 5.83s2.55 2.86 4.3 3.65c1.8.84 3.8 1.25 6.01 1.25h.01c1.97 0 3.66-.29 5.06-.87 2.26-.9 4.13-2.55 5.31-4.68h.37v4.74h5.53v-23c0-2.73-.01-4.09-1.36-6.54a9.6 9.6 0 0 0-3.43-3.7c-1.33-.81-2.78-1.37-4.31-1.67-1.31-.27-2.64-.41-3.98-.43q-2.685 0-5.43.75c-1.83.49-3.54 1.36-5.03 2.54a12.3 12.3 0 0 0-3.62 4.98l5.4 1.78a8.74 8.74 0 0 1 4.56-4.34c1.19-.52 2.65-.78 4.27-.78s2.98.27 4.06.81 1.89 1.31 2.43 2.32c.55 1 .82 2.23.82 3.7v.19c0 .85-.32 1.46-.95 1.81Zm.95 8.95a8.45 8.45 0 0 1-4.4 7.25c-1.62.86-3.44 1.28-5.28 1.22h.01c-1.4 0-2.64-.21-3.72-.62s-1.94-1.04-2.56-1.84a4.9 4.9 0 0 1-.94-3.03c0-1.33.35-2.39 1.06-3.17.78-.82 1.75-1.43 2.82-1.78 1.18-.4 2.44-.7 3.79-.86l2.2-.26c.96-.13 1.91-.27 2.87-.43.99-.16 1.86-.36 2.64-.58s1.28-.46 1.5-.73v4.84Zm42.76-28.67v-5.21H81.9v46.5h16.59c3.18 0 5.93-.57 8.24-1.69a12.35 12.35 0 0 0 5.34-4.78c1.25-2.06 1.88-4.58 1.88-7.3s-.62-5.08-1.89-7.05c-1.3-2.01-3.16-3.6-5.35-4.57a19.5 19.5 0 0 0-8.21-1.6H87.83v-14.29h21.85Zm-11.3 19.45c3.12 0 5.52.7 7.21 2.09s2.53 3.37 2.53 5.93c0 2.77-.84 4.91-2.53 6.4-1.68 1.49-4.09 2.25-7.21 2.25H87.83v-16.67zM81.9 335.78l-.01-.01h.01Zm153.41 0h5.93v-41.3h22.38v-5.21h-28.31zm-35.9 0-.01-.01h.01Zm-40.31-.02h17.01c3.66 0 6.64-.55 8.93-1.64s3.97-2.57 5.04-4.45c1.07-1.86 1.6-3.87 1.6-6.3s-.48-4.49-1.45-6.18-2.17-2.99-3.62-3.9c-1.3-.86-2.8-1.38-4.35-1.49v-.44c1.35-.37 2.61-.94 3.76-1.71a8.6 8.6 0 0 0 2.79-3.11c.7-1.3 1.06-2.95 1.06-4.95 0-2.27-.52-4.33-1.55-6.19a11.14 11.14 0 0 0-4.71-4.46c-2.1-1.11-4.79-1.67-8.03-1.67H159.1v46.51h.01v-.02Zm5.93-41.26h10.42c3.01 0 5.22.7 6.63 2.09a6.94 6.94 0 0 1 2.1 5.12c0 1.6-.39 3-1.19 4.2s-1.86 2.13-3.22 2.78c-1.41.67-2.96 1-4.52.98h-10.23v-15.18Zm-.02 20.17h11.24c1.8-.05 3.57.36 5.17 1.19 1.45.78 2.56 1.84 3.36 3.15s1.19 2.75 1.19 4.31c0 2.03-.75 3.73-2.29 5.12s-4.11 2.09-7.73 2.09h-10.93v-15.86Zm-29.02 21.86h-.02zm67.17 267.75h5.93v-46.51h-36.27v46.51h5.93v-41.26h24.41zm107.79.74c2.91 0 5.47-.74 7.7-2.21s3.95-3.57 5.2-6.27 1.88-5.93 1.88-9.62-.63-6.88-1.89-9.57a14.75 14.75 0 0 0-5.21-6.23 13.8 13.8 0 0 0-7.7-2.18c-2.27 0-4.07.37-5.4 1.12a9.5 9.5 0 0 0-3.06 2.54c-.71.95-1.26 1.73-1.66 2.35h-.62v-5.58h-5.43v47.94h5.6v-18.45h.44c.53.83 1.09 1.64 1.69 2.42a9.75 9.75 0 0 0 3.12 2.59c1.35.75 3.14 1.13 5.34 1.13Zm-9.5-11.31c-.75-1.97-1.12-4.25-1.12-6.84s.37-4.83 1.11-6.76 1.83-3.43 3.29-4.51c1.45-1.08 3.19-1.62 5.4-1.62s4.03.57 5.51 1.71 2.56 2.68 3.29 4.63 1.09 4.11 1.09 6.54-.37 4.64-1.11 6.63c-.65 1.85-1.8 3.49-3.31 4.74a8.5 8.5 0 0 1-5.47 1.77c-2.1 0-3.87-.55-5.34-1.66a10.2 10.2 0 0 1-3.33-4.63Zm9.12-168.02h-.01zM40.26 604.29v-46.51h-5.93v20.1H9.92v-20.1H3.99v46.51h5.93v-21.16h24.41v21.16zm-7.92-220.27v-5.24H3.99v46.52h28.63v-5.24H9.92v-15.61h20.89v-5.24H9.92v-15.18h22.42Zm108.31 218.77c2.38 1.49 5.16 2.25 8.32 2.25s5.96-.75 8.36-2.25c2.39-1.49 4.25-3.6 5.58-6.3s2-5.79 2-9.43-.67-6.82-2-9.54a15.17 15.17 0 0 0-5.58-6.32c-2.39-1.49-5.2-2.25-8.36-2.25s-5.93.74-8.32 2.25-4.24 3.61-5.57 6.32-2 5.95-2 9.54.67 6.73 2 9.43a15.2 15.2 0 0 0 5.57 6.3m-.76-22.2c.65-1.87 1.8-3.53 3.34-4.8 1.5-1.21 3.39-1.82 5.75-1.82s4.3.6 5.81 1.82 2.64 2.82 3.37 4.81c.73 1.98 1.09 4.14 1.09 6.44s-.36 4.43-1.09 6.39c-.73 1.97-1.84 3.55-3.37 4.76s-3.46 1.81-5.81 1.81c-2.07.09-4.1-.54-5.75-1.8-1.52-1.26-2.68-2.9-3.34-4.76-.73-1.97-1.09-4.06-1.09-6.39s.36-4.49 1.09-6.47Zm154.87 36.74-.01-.01h.01Z"/>
	<path d="M281.76 300.88H260.1v34.9h5.61v-29.72h16.05zm-.74 258.88c-2.33-1.32-5.32-1.98-8.94-1.98h-15.92v46.5h5.91v-16.82h10.03c3.62 0 6.6-.67 8.93-2 2.23-1.23 4.04-3.09 5.2-5.36 1.13-2.25 1.7-3.37 1.7-7.52 0-2.77-.57-5.27-1.7-7.49a12.6 12.6 0 0 0-5.21-5.32Zm-.01 17.75c-.68 1.47-1.77 2.63-3.26 3.47s-3.48 1.26-5.93 1.26h-9.75v-19.26h9.68c2.47 0 4.46.43 5.97 1.25s2.61 1.96 3.28 3.41 1.01 3.09 1.01 4.92-.34 3.48-1.01 4.95Zm-34.53 26.78v-34.9h-27.71v34.9h5.65v-29.72h16.45v29.72zm-43.99-89.51v-46.51h-28.72l-2.46 29.94c-.14 2.42-.51 4.82-1.12 7.16-.49 1.64-1.19 2.75-2.07 3.33s-2.05.87-3.51.87h-1.25v5.21h1.71c2.15 0 3.94-.32 5.39-.95a8.2 8.2 0 0 0 3.51-2.92c.89-1.32 1.58-2.99 2.07-5.02s.85-4.43 1.08-7.2l2.06-25.23h17.39v41.3h5.93Zm37.11 0v-34.9h-23.54l-.62 15.55c-.08 2.39-.26 4.78-.55 7.15-.24 1.85-.58 3.28-1.01 4.31s-1 1.73-1.69 2.13-1.54.59-2.56.59h-1.25v5.18h1.92c2.57 0 4.61-.65 6.08-1.94s2.55-3.23 3.23-5.82c.76-3.17 1.18-6.4 1.26-9.66l.53-12.3h12.55v29.72h5.65Zm50.47-33.71c-.03 1.35-.07 2.64-.07 3.87v3.28l-.01 26.57h5.83v-46.51h-8.46l-11.29 29.35c-.73 2.01-1.41 4.03-2.05 6.06-.39 1.21-.75 2.41-1.11 3.59l-.28.95-.32-1.07c-.7-2.33-1.44-4.65-2.2-6.97-.34-1.02-.64-1.89-.92-2.57l-11.46-29.35h-8.43v46.51h5.68v-26.56l-.03-3.45-.07-4-.08-4.11-.04-1.91.9 2.68 1.45 4.31 1.3 3.72q.585 1.665 1.02 2.76l10.55 26.57h5.15l10.39-26.57 1.06-2.85c.43-1.14.86-2.41 1.33-3.79s.96-2.82 1.44-4.31l.85-2.7-.04 2.38zh-.01ZM30.32 459c.8-1.35 1.22-2.89 1.2-4.46H27.4c0 1.42-.46 2.57-1.38 3.48-.93.9-2.1 1.36-3.54 1.36s-2.62-.46-3.54-1.36a4.63 4.63 0 0 1-1.38-3.48h-4.12c0 1.65.4 3.14 1.22 4.48a8.92 8.92 0 0 0 7.83 4.35c3.21.05 6.2-1.62 7.85-4.37ZM3.98 514.78h7.05l16.85-26.47c.8-1.23 1.57-2.5 2.34-3.79 1.78-3.03 3.51-6.09 5.2-9.17l-.19 4.34c-.1 1.96-.16 3.66-.22 5.12-.05 1.14-.07 2.29-.08 3.43v26.54h5.95v-46.51h-6.99l-18.92 29.75c-1.99 3.17-3.82 6.43-5.48 9.78.09-1.02.16-2.03.21-2.99.08-1.64.13-3.14.15-4.51.03-1.37.03-2.54.03-3.5v-28.53h-5.9zm125.7-34.9v34.9h5.61v-14.61h4.84l11.27 14.61h7.12l-14.11-18.01 13.92-16.89h-7.12l-12.43 15.11h-3.5v-15.11h-5.61Zm158.42-82.54c1.42-1.93 2.15-4.29 2.07-6.68 0-2.2-.57-4.25-1.69-6.15s-2.73-3.42-4.82-4.59-4.59-1.74-7.48-1.74c-2.73 0-5.22.52-7.48 1.56-2.16.96-4.03 2.45-5.45 4.34a11.3 11.3 0 0 0-2.18 6.43h5.71c.02-1.41.52-2.78 1.42-3.87a8.5 8.5 0 0 1 3.4-2.45c1.38-.58 2.87-.86 4.45-.86 1.69 0 3.15.32 4.4.95s2.21 1.53 2.89 2.67 1.01 2.42 1.01 4.02-.38 3-1.16 4.19a7.6 7.6 0 0 1-3.23 2.76c-1.38.65-2.98.98-4.79.98h-3.77v5.15h3.77c2.31 0 4.26.36 5.87 1.09 1.48.63 2.76 1.68 3.66 3.01.86 1.32 1.3 2.87 1.26 4.45 0 1.6-.44 3.01-1.31 4.24s-2.07 2.18-3.58 2.86c-1.64.7-3.41 1.05-5.2 1.01-1.77 0-3.37-.28-4.82-.86a8.56 8.56 0 0 1-3.5-2.46 6.83 6.83 0 0 1-1.52-3.83h-6c.11 2.46.85 4.61 2.23 6.47s3.25 3.3 5.6 4.34 5.05 1.56 8.09 1.56h.01v.02c2.81.05 5.6-.55 8.14-1.73 2.39-1.16 3.59-1.74 5.65-4.73 1.38-2 2.1-4.38 2.06-6.8q0-2.94-1.11-5.28c-.73-1.54-1.83-2.87-3.22-3.87a11.7 11.7 0 0 0-5.07-2v-.37c2.24-.62 4.22-1.95 5.64-3.8Zm-143.42 27.95h.01l-.01-.01Zm25.95-46.52v20.66h-5.56l-11.99-20.66h-7.21l13.82 22.26-15 24.25h6.72l12.52-20.61h6.7v20.61h5.93v-20.61h6.72l12.43 20.61h6.8l-14.98-24.19 13.82-22.32h-7.18l-11.93 20.66h-5.68v-20.66zm57.75 11.62v14.83h-2.78l-11.49-14.83h-6.65l13.82 17.14-14.02 17.76h6.84l11.64-14.89h2.65v14.89H234V410.4h2.65l11.58 14.89H255l-13.95-17.76 13.8-17.14h-6.72l-11.43 14.83h-2.71v-14.83zm-151.5 34.9 28.63.01v-5.24h-22.7v-15.61h20.89v-5.24H82.81v-15.18h22.42v-5.24H76.88v46.51Zm-36.93-26.64a21.7 21.7 0 0 0-1.94 9.46c0 3.59.67 6.72 1.98 9.4s3.21 4.78 5.65 6.27 5.35 2.25 8.72 2.25l.02-.02c2.2.04 4.39-.35 6.44-1.12 1.81-.68 3.44-1.74 4.8-3.12 1.27-1.3 2.21-2.89 2.75-4.62l-5.43-1.49a7.6 7.6 0 0 1-4.78 4.78c-1.12.39-2.38.59-3.75.59-2.13 0-3.99-.46-5.6-1.38a9.35 9.35 0 0 1-3.76-4.09c-.84-1.82-1.29-3.8-1.31-5.81h25.18v-2.34c0-3.23-.44-5.95-1.31-8.18-1.38-3.92-4.48-7-8.42-8.35-1.77-.6-3.62-.91-5.48-.92-3.16 0-5.92.77-8.29 2.31-2.4 1.57-4.3 3.79-5.48 6.4Zm8.38-2.18c1.49-1.04 3.29-1.55 5.4-1.55s3.86.5 5.28 1.52a9.3 9.3 0 0 1 3.19 4.19c.53 1.31.86 2.77 1 4.36H43.75c.09-1.56.47-3.08 1.14-4.49a10.1 10.1 0 0 1 3.43-4.02Zm33.7-24.51c.73.73 1.6 1.09 2.63 1.09s1.89-.36 2.61-1.09 1.08-1.61 1.08-2.63-.36-1.89-1.08-2.61-1.58-1.08-2.61-1.08-1.9.36-2.63 1.08-1.09 1.58-1.09 2.61.36 1.9 1.09 2.63m13.15-5.23c-.73.72-1.09 1.58-1.09 2.61s.36 1.9 1.09 2.63 1.6 1.09 2.63 1.09 1.89-.36 2.61-1.09 1.08-1.61 1.08-2.63-.36-1.89-1.08-2.61-1.58-1.08-2.61-1.08-1.9.36-2.63 1.08m-38.67 138.4h-.4v-25.25H50.5v34.9h5.34l16.55-25.16h.4v25.16h5.65-.01v-34.9h-5.31l-16.6 25.25Zm11.48-35.5c-.93.9-2.1 1.36-3.54 1.36s-2.62-.46-3.54-1.36a4.63 4.63 0 0 1-1.38-3.48h-4.12c0 1.65.41 3.14 1.22 4.48a8.86 8.86 0 0 0 7.83 4.35c3.21.05 6.2-1.62 7.85-4.37.8-1.35 1.22-2.89 1.2-4.46h-4.12c0 1.42-.46 2.57-1.38 3.48Zm20.06-1.36v46.51h5.93v-21.11h6.77l15.7 21.11h7.15l-18.08-23.97 17.32-22.53h-7.17l-15.18 20.26h-6.52v-20.26h-5.93Zm29.24-89.93c-.73.72-1.09 1.58-1.09 2.61s.36 1.9 1.09 2.63 1.6 1.09 2.63 1.09 1.89-.36 2.61-1.09 1.08-1.61 1.08-2.63-.36-1.89-1.08-2.61-1.58-1.08-2.61-1.08-1.9.36-2.63 1.08m15.76-1.08c-.99-.02-1.94.37-2.63 1.08-.73.72-1.09 1.58-1.09 2.61s.36 1.9 1.09 2.63 1.6 1.09 2.63 1.09 1.89-.36 2.61-1.09 1.08-1.61 1.08-2.63-.36-1.89-1.08-2.61-1.58-1.08-2.61-1.08m-22.15 30.85c0 3.59.67 6.72 1.98 9.4s3.21 4.78 5.65 6.27 5.35 2.25 8.72 2.25l.02-.02c2.2.04 4.39-.35 6.44-1.12 1.81-.68 3.44-1.74 4.8-3.12 1.27-1.3 2.21-2.89 2.75-4.62l-5.43-1.49a7.6 7.6 0 0 1-4.78 4.78c-1.12.39-2.38.59-3.75.59-2.13 0-3.99-.46-5.6-1.38a9.35 9.35 0 0 1-3.76-4.09c-.84-1.82-1.29-3.8-1.31-5.81h25.18v-2.34c0-3.23-.44-5.95-1.31-8.18-1.38-3.92-4.48-7-8.42-8.35-1.77-.6-3.62-.91-5.48-.92-3.16 0-5.92.77-8.29 2.31-2.4 1.57-4.3 3.79-5.48 6.4a21.7 21.7 0 0 0-1.94 9.46Zm6.89-7.62a10.1 10.1 0 0 1 3.43-4.02c1.49-1.04 3.29-1.55 5.4-1.55s3.86.5 5.28 1.52a9.3 9.3 0 0 1 3.19 4.19c.53 1.31.86 2.77 1 4.36h-19.45c.09-1.56.47-3.08 1.14-4.49Zm-67.85 168.9v34.9h5.61v-15.34h16.52v15.34h5.61v-34.9h-5.61v14.38H55.55v-14.38zm66.99 32.63c3.17-2 5.7-4.86 7.32-8.24 1.78-3.58 2.67-7.78 2.67-12.72s-.89-9.19-2.67-12.76-4.22-6.32-7.32-8.25a19.66 19.66 0 0 0-10.61-2.9c-3.98 0-7.52.96-10.63 2.9a20.06 20.06 0 0 0-7.35 8.25c-1.79 3.58-2.68 5.37-2.68 12.76 0 4.92.89 9.16 2.68 12.72s4.24 6.31 7.35 8.24 6.65 2.89 10.63 2.89 7.51-.96 10.61-2.89m-23.52-10.94c-1.32-2.73-1.98-6.05-1.98-10.02s.67-7.33 1.98-10.06 3.11-4.81 5.35-6.23 4.79-2.13 7.56-2.13 5.28.7 7.51 2.1a14.56 14.56 0 0 1 5.34 6.21c1.32 2.74 1.98 6.14 1.98 10.1s-.67 7.3-1.98 10.04c-1.33 2.74-3.1 4.81-5.34 6.21s-4.74 2.1-7.51 2.1-5.31-.71-7.56-2.13-4.03-3.49-5.35-6.21Zm-52.49-76.3h-.01zm311.6 90.13h-.01zm40.72.12c1.71 0 3.33-.23 4.84-.68 1.48-.43 2.88-1.09 4.15-1.96a13.7 13.7 0 0 0 3.23-3.12 12.7 12.7 0 0 0 2.05-4.16l-5.36-1.53c-.24.92-.63 1.8-1.16 2.59-.51.79-1.16 1.49-1.92 2.05-.76.58-1.62 1.01-2.61 1.33s-2.05.47-3.22.47c-2.07.09-4.1-.55-5.75-1.81-1.52-1.26-2.68-2.9-3.34-4.76-.73-1.97-1.09-4.06-1.09-6.39s.36-4.49 1.09-6.47c.65-1.87 1.8-3.53 3.34-4.8a8.88 8.88 0 0 1 5.75-1.82c1.14 0 2.19.14 3.15.45 2.71.82 4.81 2.97 5.58 5.69l5.4-1.53c-.45-1.47-1.15-2.84-2.06-4.08-.9-1.2-1.96-2.21-3.21-3.03a15.1 15.1 0 0 0-4.1-1.89c-1.49-.44-3.09-.65-4.78-.65-2.93-.07-5.82.71-8.32 2.25a15.14 15.14 0 0 0-5.57 6.32c-1.33 2.71-2 5.95-2 9.54s.67 6.73 2 9.43 3.18 4.8 5.57 6.3c2.5 1.53 5.39 2.31 8.32 2.25Zm-58.68-36.73c-1.78 3.58-2.67 7.84-2.67 12.76s.89 9.16 2.67 12.72 4.23 6.31 7.34 8.24c3.19 1.95 6.88 2.95 10.62 2.89v-.02c2.38 0 4.6-.35 6.69-1.05a17.77 17.77 0 0 0 12.07-14.22h-5.93c-.3 1.49-.88 2.92-1.7 4.2a11.1 11.1 0 0 1-2.93 3.06 13.3 13.3 0 0 1-3.83 1.88c-1.42.43-2.89.65-4.37.64-2.77 0-5.28-.7-7.52-2.1s-4.03-3.48-5.35-6.21-1.98-6.07-1.98-10.04.65-7.33 1.96-10.06c1.32-2.74 3.1-4.81 5.34-6.23 2.25-1.42 4.76-2.13 7.56-2.13 1.52 0 2.98.21 4.37.62s2.67 1.04 3.83 1.88 2.13 1.85 2.93 3.06 1.36 2.62 1.7 4.22h5.93c-.41-2.39-1.18-4.52-2.29-6.41s-2.5-3.49-4.16-4.81a18 18 0 0 0-5.64-3.01c-2.15-.7-4.4-1.05-6.66-1.04-3.98 0-7.52.96-10.63 2.9-3.18 2-5.72 4.86-7.34 8.25Zm-18.9-148.99a7.8 7.8 0 0 1-5.09 1.6c-1.85 0-3.47-.41-4.85-1.22-1.38-.82-2.12-1.81-2.2-3h-5.75c.05 1.81.67 3.39 1.82 4.74s2.69 2.4 4.62 3.14 4.04 1.11 6.36 1.11c2.52 0 4.76-.44 6.7-1.3 1.95-.86 3.49-2.05 4.6-3.55a8.5 8.5 0 0 0 1.67-5.17c0-2.16-.68-3.97-2.03-5.43s-3.37-2.4-6.03-2.81v-.25c1.8-.31 3.45-1.17 4.74-2.46a6.82 6.82 0 0 0 1.94-5.06c0-1.77-.46-3.38-1.38-4.84-.93-1.46-1.4-2.19-3.95-3.5-1.7-.87-3.72-1.31-6.05-1.31-2.21 0-4.23.38-6.07 1.17-1.73.7-3.26 1.83-4.44 3.28a8 8 0 0 0-1.73 4.92h5.43c.04-1.44.84-2.76 2.09-3.47 1.35-.87 2.86-1.31 4.66-1.31s3.24.49 4.33 1.48 1.64 2.18 1.64 3.83-.65 2.97-1.96 3.97a7.9 7.9 0 0 1-4.93 1.49h-2.28v4.19h2.28c2.41 0 4.32.53 5.72 1.59 1.35.95 2.13 2.51 2.1 4.15 0 1.6-.65 2.94-1.96 4.01Zm-22.62-130.04-1.59 19.6c-.22 2.92-.57 5.82-1.05 8.71-.35 2.09-.84 4.14-1.48 6.16-.56 1.68-1.18 3.06-1.85 4.15s-1.4 1.98-2.17 2.67h-3.8v15.2h5.67v-9.99h34.87v9.99h5.71v-15.2h-5.18v-41.3h-29.12Zm23.21 41.3h-24.5a14.5 14.5 0 0 0 2.63-5c.79-2.45 1.39-4.97 1.8-7.51.48-2.86.85-5.91 1.12-9.18l1.19-14.39h17.76v36.09Zm9.87 175.13c-.28.98-.53 1.92-.76 2.82l-.2.8-.22-.88q-.78-2.955-1.77-5.85c-.37-1.06-.81-2.19-1.31-3.4l-7.96-19.3h-8.43v34.9h5.58v-21.95c-.03-2.47-.07-4.94-.13-7.41v-.31l.57 1.97c.45 1.5.94 3.01 1.48 4.49.61 1.68 1.27 3.34 1.96 4.98l7.71 18.23h4.93l7.62-18.23c.76-1.85 1.14-2.77 1.96-5.02.85-2.29 1.57-4.63 2.18-7l-.02 1.21-.07 3.65c-.02 1.2-.04 2.4-.04 3.59v3.55l-.01 18.23h5.65v-34.9h-8.56l-7.86 19.3c-.88 2.13-1.64 4.31-2.29 6.52h-.02Zm51.77-115.31v34.9h5.34l16.55-25.16h.4v25.16h5.64v-34.9h-5.31l-16.6 25.25h-.4v-25.25h-5.61ZM16.07 693.79H22v-41.26h14.58v-5.24H1.43v5.24h14.64zm315.23-268.5h7.05l16.85-26.47c.8-1.23 1.57-2.5 2.34-3.79 1.78-3.03 3.51-6.09 5.2-9.17l-.19 4.34c-.1 1.96-.16 3.66-.22 5.12-.05 1.14-.07 2.29-.08 3.43v26.54h5.95v-46.51h-6.99l-18.92 29.75c-1.99 3.17-3.82 6.44-5.48 9.79.09-1.02.16-2.03.21-2.99.08-1.64.13-3.14.15-4.51.03-1.37.03-2.54.03-3.5v-28.53h-5.93v46.51Zm9.93-124.4-1.16 13.67c-.17 2.06-.41 4.12-.72 6.16-.22 1.48-.55 2.95-.97 4.38-.32 1.09-.77 2.13-1.34 3.11-.52.86-1.14 1.66-1.84 2.39h-2.87v15.2h5.63v-10.01h25.5v10.02h5.58v-15.2h-5.31v-29.72zm16.91 29.71h-16.58c1.33-1.95 2.22-4.14 2.64-6.45.58-2.69 1.02-5.89 1.36-9.59l.75-8.49h11.83v24.54Zm430.64 169.66h33.63v7.96h-33.63zm53.69-.78a5.34 5.34 0 0 0-1.67 3.92c0 1.6.56 2.95 1.67 4.06a5.656 5.656 0 0 0 8 .07 5.7 5.7 0 0 0 1.69-4.12c0-1.52-.56-2.82-1.67-3.92s-2.4-1.65-3.98-1.65-2.93.55-4.04 1.65Zm-80.72 55.63h-4.4v5.05l19.77 23.8-19.77 24.29v4.95h40.02v-7.86h-26.38l16.03-20.29v-2.25l-15.85-19.73h25.09v-7.96h-34.49Zm88.76-74.26q1.65-1.68 1.65-4.02c0-2.34-.55-2.89-1.65-3.99s-2.43-1.65-3.99-1.65-2.9.55-4.02 1.65-1.68 2.43-1.68 3.99.56 2.9 1.68 4.02a5.39 5.39 0 0 0 4.02 1.65c1.5.05 2.96-.55 3.99-1.65m-45.39 129.57 53.63-30.69-53.63-30.76zm-33.11-114.64c-.68.91-1.76 1.42-2.89 1.37-.75 0-1.48-.19-2.21-.55q-1.08-.54-2.64-1.83c-1.62-1.32-3.09-2.29-4.37-2.89s-2.75-.9-4.37-.9c-2.05 0-3.85.46-5.4 1.37a9.15 9.15 0 0 0-3.63 4.24c-.87 1.91-1.31 4.38-1.31 7.39s7.69 0 7.69 0c-.02-1.77.32-3.04 1.04-3.85s1.68-1.21 2.89-1.21c.77 0 1.46.15 2.05.46s1.4.87 2.41 1.71a22.6 22.6 0 0 0 4.67 2.99c1.33.58 2.75.87 4.24.87 2.12 0 3.96-.49 5.53-1.48s2.8-2.46 3.7-4.43 1.33-4.39 1.31-7.29h-7.69c.02 1.77-.31 3.1-1 4.01Zm-35.59 90.29c3.61 0 6.65-.68 9.13-2.02 2.38-1.25 4.34-3.17 5.63-5.53a16.3 16.3 0 0 0 1.92-7.97c0-2.94-.64-5.58-1.92-7.9s-3.15-4.16-5.63-5.52-5.52-2.03-9.13-2.03h-16.78v49.18h7.99v-41.45h5.95v23.23h2.83Zm35.59-105.86c-.67.91-1.76 1.43-2.89 1.38-.74 0-1.48-.2-2.22-.58s-1.62-1-2.66-1.86c-1.6-1.3-3.05-2.25-4.34-2.87s-2.75-.93-4.37-.93q-3.075 0-5.4 1.41a9.3 9.3 0 0 0-3.63 4.3c-.87 1.93-1.31 4.39-1.31 7.4h7.68c-.02-1.8.32-3.11 1.04-3.92s1.68-1.22 2.89-1.22c.76 0 1.46.16 2.06.48.61.32 1.43.9 2.46 1.77 1.42 1.18 2.99 2.18 4.66 2.99q1.995.87 4.2.87c2.08 0 3.91-.49 5.51-1.48a9.8 9.8 0 0 0 3.72-4.43c.89-1.96 1.33-4.4 1.31-7.33h-7.69c.02 1.76-.31 3.1-1 4.02Zm-13.9-102.79a20 20 0 0 0-8.93-1.98h-.02q-5.055.015-9.03 2.1-3.975 2.1-6.24 5.85c-2.265 3.75-2.26 5.43-2.26 8.78 0 3.14.64 5.85 1.93 8.13s3.07 4.02 5.36 5.24 4.94 1.83 7.93 1.83c1.72.01 3.43-.28 5.05-.85l-12.8 18.74h10.16l11.38-16.87c2.18-3.18 3.27-4.79 4.81-8.65 1-2.45 1.52-5.07 1.54-7.72 0-3.48-.81-6.45-2.42-8.93a15.96 15.96 0 0 0-6.47-5.69Zm-1.78 18.97a7.77 7.77 0 0 1-2.89 3.02c-1.24.73-2.62 1.09-4.2 1.09s-2.99-.36-4.21-1.1a7.96 7.96 0 0 1-2.89-3.04c-.71-1.29-1.06-2.73-1.06-4.4s.35-3.15 1.06-4.43a7.87 7.87 0 0 1 7.1-4.16h.01a7.88 7.88 0 0 1 7.08 4.19c.69 1.29 1.04 2.79 1.04 4.44s-.34 3.12-1.04 4.4Zm-44.91 82.48h-10.5l13.01 15.58-13.01 15.58h10.5l13.24-15.58zm-3.37 88.9-9.52 6.55.58-11.67h-7.75l.6 11.7-9.54-6.58-3.89 6.7 10.53 5.2-10.53 5.17 3.86 6.7 9.57-6.54-.6 11.72h7.75l-.58-11.69 9.55 6.51 3.86-6.7-10.56-5.17 10.56-5.2z"/>
	<path d="m740.13 494.45-13.24-15.58h-10.5l13.01 15.58-13.01 15.58h10.5zm151.02-167.1a8.56 8.56 0 0 1-4.37 1.1c-1.38 0-2.66-.26-3.83-.81s-2.1-1.3-2.82-2.28a6.23 6.23 0 0 1-1.17-3.38h-9.83c.09 2.79.89 5.28 2.42 7.46s3.61 3.89 6.24 5.13 5.63 1.86 8.99 1.86.03-.01.03-.01c3.61 0 6.78-.73 9.52-2.19 2.65-1.38 4.86-3.46 6.4-6.02 1.53-2.55 2.29-5.47 2.29-8.78 0-2.35-.38-4.51-1.16-6.5-1.43-3.83-4.38-6.9-8.14-8.48a15.7 15.7 0 0 0-6.16-1.19c-2.1 0-4.02.38-5.76 1.16a9.46 9.46 0 0 0-3.91 2.93h-.26l1.25-12.44h21.42v-8.32h-29.77l-2.34 25.81 9.04 1.58a7.55 7.55 0 0 1 3.15-2.35c1.34-.58 2.78-.87 4.24-.87 1.69 0 3.18.37 4.47 1.12s2.3 1.8 3.04 3.15c.73 1.35 1.1 2.89 1.1 4.63s-.36 3.27-1.09 4.59a8 8 0 0 1-2.99 3.09Zm-26.21 81.09h6.94c.42 2.03 1.08 4.01 1.97 5.89 1.63 3.55 4.25 6.55 7.56 8.63 3.33 2.03 7.16 3.06 11.05 2.99 2.49 0 4.83-.36 7.04-1.1a18 18 0 0 0 5.93-3.28l-3.79-7.96c-.59.44-1.33.93-2.22 1.45s-1.92.98-3.07 1.35-2.45.56-3.88.56c-2.09.05-4.14-.54-5.89-1.68a10.82 10.82 0 0 1-3.92-5.28c-.2-.51-.37-1.04-.51-1.57h10.13l2.54-5.34h-13.5c-.09-1.61-.09-3.21.01-4.82h15.7l2.34-5.18h-17.23c.15-.56.33-1.09.51-1.58.94-2.4 2.25-4.18 3.92-5.33s3.64-1.73 5.89-1.73c1.43 0 2.73.2 3.89.58s2.21.84 3.14 1.38 1.7 1.06 2.34 1.54l3.76-8.02c-1.79-1.46-3.82-2.6-6.01-3.35a21.9 21.9 0 0 0-7.13-1.13c-4.15 0-7.84 1-11.05 3.02-3.3 2.11-5.92 5.12-7.56 8.68-.87 1.8-1.53 3.79-1.98 5.95h-4.98l-1.95 5.18h6.26c-.09 1.6-.09 3.21-.01 4.82h-4.3l-1.95 5.34Zm69.04 325.58a15.6 15.6 0 0 0-7.68.01c-2.56.65-4.83 1.95-6.84 3.91l-3.24 3.17-3.3-3.17a15.28 15.28 0 0 0-14.53-3.91c-2.59.67-4.96 2.02-6.85 3.91a14.3 14.3 0 0 0-3.92 6.77 15.65 15.65 0 0 0 0 7.81c.65 2.61 1.96 4.9 3.92 6.88l24.68 24.68 24.62-24.68c1.93-1.88 3.3-4.26 3.95-6.88.65-2.61.65-5.21-.01-7.81-.65-2.59-2.03-4.95-3.96-6.8a14.9 14.9 0 0 0-6.85-3.89Zm3.4 16.51a6.97 6.97 0 0 1-1.93 3.38l-19.21 19.28-19.21-19.26c-.97-.95-1.61-2.06-1.93-3.34s-.32-2.56-.01-3.85a7.475 7.475 0 0 1 9.15-5.21c1.25.34 2.38 1 3.37 2l8.65 8.35 8.65-8.35a7.3 7.3 0 0 1 7.13-2.02c2.56.66 4.58 2.61 5.33 5.13.34 1.27.35 2.61.03 3.89h-.01Zm2.67-179.97c-1.59-.95-3.4-1.42-5.33-1.42s-3.71.47-5.31 1.42c-1.58.92-2.9 2.24-3.83 3.82-.95 1.59-1.42 3.4-1.42 5.33s.47 3.71 1.42 5.31c.93 1.58 2.25 2.9 3.83 3.83 1.6.95 3.37 1.42 5.31 1.42s3.74-.47 5.33-1.42c1.58-.93 2.89-2.25 3.82-3.83.95-1.6 1.42-3.35 1.42-5.31s-.47-3.74-1.42-5.33c-.93-1.58-2.24-2.89-3.82-3.82M918.7 424.18c2.4.99 5.17 1.56 8.26 1.74v5.99h3.96v-5.94c3.14-.17 5.92-.74 8.27-1.74 2.62-1.04 4.88-2.82 6.5-5.13 1.52-2.3 2.3-5.01 2.25-7.77 0-2.07-.36-3.9-1.1-5.48s-1.78-2.95-3.12-4.11-2.9-2.13-4.69-2.92a30.8 30.8 0 0 0-5.78-1.89l-2.33-.57v-12.29c1.64.21 3.01.7 4.11 1.49a5.98 5.98 0 0 1 2.53 4.59h9.74c0-2.72-.81-5.39-2.34-7.64a15.14 15.14 0 0 0-6.33-5.18 22 22 0 0 0-7.7-1.79v-6.06h-3.96v6.08c-2.7.21-5.17.78-7.37 1.76a15.67 15.67 0 0 0-6.57 5.18c-1.61 2.27-2.45 5-2.39 7.78 0 3.57 1.18 6.43 3.53 8.6s5.61 3.76 9.77 4.78l3.03.76v12.97c-1-.12-1.99-.35-2.93-.7a7.77 7.77 0 0 1-3.43-2.5 7.7 7.7 0 0 1-1.48-4.14h-9.8c.09 3.48.95 6.4 2.57 8.78s3.9 4.16 6.81 5.37v-.02Zm15.23-17.73c1.25.55 2.21 1.2 2.89 1.96.67.76 1 1.7 1 2.82 0 1.25-.37 2.35-1.12 3.3-.82 1-1.9 1.75-3.12 2.19-.8.31-1.69.51-2.66.64V405.4c1.13.32 2.14.67 3.01 1.05m-8.99-11.86c-1.21-.5-2.17-1.14-2.9-1.95s-1.09-1.81-1.09-3.02c0-1.09.31-2.07.94-2.93.71-.92 1.67-1.62 2.76-2.02.75-.29 1.53-.49 2.32-.59v11.24c-.7-.22-1.37-.46-2.03-.73m4.5-58.15h-.01zm-8.15 318.28v4.75h-6.43v-4.75c0-2.05-.51-3.92-1.54-5.61s-2.39-3.04-4.08-4.06c-1.7-1.01-3.58-1.52-5.65-1.52s-3.96.5-5.65 1.52a11.4 11.4 0 0 0-4.04 4.06c-1 1.7-1.5 3.54-1.5 5.61s.5 3.96 1.5 5.65c.98 1.67 2.37 3.06 4.04 4.04 1.7 1 3.64 1.52 5.61 1.5h4.82v6.47h-4.82c-2.05 0-3.92.51-5.61 1.54-1.67 1-3.06 2.4-4.04 4.08a10.8 10.8 0 0 0-1.5 5.65c0 2.07.5 3.96 1.5 5.65 2.02 3.43 5.68 5.55 9.66 5.58 2.09-.03 3.99-.55 5.68-1.55s3.05-2.35 4.08-4.04c1.03-1.7 1.56-3.66 1.54-5.65v-4.75h6.43v4.75c0 2.07.5 3.96 1.52 5.65.99 1.67 2.38 3.07 4.06 4.06 1.7 1.01 3.58 1.52 5.65 1.52s3.96-.5 5.65-1.52c1.67-.98 3.07-2.38 4.04-4.06 1.01-1.71 1.53-3.66 1.5-5.65 0-2.07-.5-3.96-1.5-5.65-.98-1.68-2.38-3.08-4.04-4.08-1.7-1.03-3.66-1.56-5.65-1.54h-4.79v-6.47h4.79c2.07 0 3.96-.5 5.65-1.52 1.7-1.01 3.04-2.37 4.04-4.04s1.5-3.58 1.5-5.63-.5-3.92-1.5-5.61-2.35-3.04-4.04-4.06c-1.7-1.01-3.58-1.52-5.65-1.52s-3.96.5-5.65 1.52-3.04 2.37-4.06 4.06c-1.01 1.7-1.54 3.64-1.52 5.61Zm-12.9 28.94a4.93 4.93 0 0 1-4.82 4.79 4.865 4.865 0 0 1-4.72-4.8c0-.87.22-1.67.64-2.39.43-.71.99-1.29 1.71-1.71s1.5-.64 2.37-.64h4.82zm0-24.16h-4.83c-.86 0-1.65-.22-2.37-.64a4.9 4.9 0 0 1-1.71-1.71c-.43-.71-.64-1.52-.64-2.39s.22-1.67.64-2.39c.84-1.46 2.4-2.35 4.08-2.33a4.797 4.797 0 0 1 4.83 4.72v4.75Zm12.89 12.9h-6.43v-6.47h6.43zm6.46 6.52h4.79c.88 0 1.67.22 2.38.64 1.44.87 2.33 2.42 2.34 4.1.01 1.69-.88 3.25-2.33 4.11-.72.43-1.52.65-2.4.68-1.71 0-3.28-.92-4.13-2.4a4.6 4.6 0 0 1-.64-2.38v-4.75Zm0-19.42v-4.75c-.02-1.7.89-3.27 2.38-4.09.73-.43 1.53-.63 2.41-.63s1.67.22 2.38.63c2.25 1.3 3.03 4.18 1.73 6.43 0 .01-.01.02-.02.03a4.73 4.73 0 0 1-4.1 2.38h-4.79zM724.26 775.4h22.97v7.89h-22.97zm-29.31-373.31a12.9 12.9 0 0 0-3.79 4.33c-.94 1.74-1.42 3.68-1.41 5.66 0 2.64.82 5 2.43 7.1 1.76 2.2 4.06 3.91 6.68 4.95 2.83 1.21 6.09 1.82 9.77 1.82s6.94-.61 9.79-1.82c2.63-1.04 4.94-2.75 6.72-4.95 1.6-2.02 2.46-4.52 2.44-7.1 0-2.05-.48-3.94-1.44-5.66-.96-1.73-2.23-3.17-3.83-4.33s-3.37-1.9-5.33-2.22v-.29a10.8 10.8 0 0 0 6.3-3.86 10.88 10.88 0 0 0 2.47-7.06q0-3.795-2.22-6.78c-1.59-2.07-3.7-3.69-6.11-4.7-2.58-1.13-5.51-1.71-8.8-1.71s-6.24.57-8.81 1.71-4.6 2.7-6.07 4.7a11.12 11.12 0 0 0-2.21 6.78c-.08 5.29 3.62 9.88 8.81 10.92v.29c-2.01.33-3.8 1.07-5.4 2.22Zm7.33-15.82a6.27 6.27 0 0 1 2.56-2.31c1.09-.56 2.34-.83 3.78-.83s2.69.28 3.78.83c1.09.56 1.94 1.32 2.56 2.31s.93 2.17.93 3.47-.32 2.45-.94 3.47-1.48 1.81-2.57 2.38c-1.09.58-2.34.86-3.75.86h-.02c-1.31.03-2.6-.27-3.76-.86a6.36 6.36 0 0 1-3.5-5.84c0-1.32.31-2.47.93-3.47Zm-.97 21.15a7.66 7.66 0 0 1 2.99-2.63c1.26-.64 2.71-.96 4.34-.96s3.07.33 4.34.97 2.26 1.53 2.99 2.64 1.09 2.43 1.09 3.85a6.71 6.71 0 0 1-3.99 6.29c-1.39.63-2.9.94-4.43.9-1.53.04-3.04-.27-4.43-.92a6.65 6.65 0 0 1-3.99-6.27c0-1.47.36-2.77 1.09-3.88Zm128.5 78.74h33.44v7.99h-33.44zm-28.39-14.05v8.45h-12.65v7.72h12.65v8.42h8.38v-8.42h12.6v-7.72h-12.6v-8.45zm107.09 89.66c-2.33-2.33-5.04-4.15-8.09-5.46s-6.33-1.96-9.83-1.96-6.78.65-9.83 1.96c-6.1 2.6-10.95 7.45-13.55 13.55-1.31 3.05-1.96 6.33-1.96 9.83s.65 6.78 1.96 9.83c2.6 6.1 7.45 10.95 13.55 13.55 3.05 1.31 6.33 1.96 9.83 1.96s6.78-.65 9.83-1.96c6.1-2.6 10.95-7.45 13.55-13.55 1.31-3.05 1.96-6.33 1.96-9.83s-.65-6.77-1.96-9.83a25.7 25.7 0 0 0-5.46-8.09M747.23 734.11h-20.27l-20.82 41.29H690.4v7.89h20.3l20.86-41.22h15.68v-7.96Zm-79.31-239.66 13.01-15.58H670.4l-13.24 15.58 13.24 15.58h10.53zm137.16-167.21c-1.35.6-2.82.89-4.3.86-1.4.01-2.8-.23-4.11-.73a7.1 7.1 0 0 1-3-2.12 5.86 5.86 0 0 1-1.31-3.27H782.2c.11 2.91.97 5.44 2.56 7.61s3.77 3.85 6.53 5.05a23.55 23.55 0 0 0 9.45 1.8h-.02q5.385 0 9.63-1.89c2.66-1.12 4.97-2.94 6.69-5.27 1.65-2.26 2.46-3.55 2.46-7.94 0-2.92-.76-5.52-2.29-7.78-1.58-2.31-3.8-4.1-6.4-5.13-2.27-.92-4.72-1.32-7.16-1.18l13.89-13.32v-7.33h-32.87v8.32h20.66v.33l-11.09 11.02v6.74h5.34c2.09 0 3.84.35 5.23 1.06a7.34 7.34 0 0 1 4.21 6.67 6.7 6.7 0 0 1-3.96 6.51Zm11.48 71.97v8.15h7.04v3.23h-7.04v8.15h7.04v6.54h10.03v-6.54h10.72v-8.15h-10.72v-3.23h9.06c3.82-.01 7.09-.65 9.82-1.91s4.85-3.04 6.33-5.37 2.21-5.06 2.19-8.19c.02-3-.69-5.68-2.15-8.06s-3.55-4.26-6.29-5.65c-2.75-1.38-6.05-2.08-9.92-2.08h-19.08v23.1h-7.04Zm17.07-14.85h9.04c1.86 0 3.41.35 4.63 1.02s2.14 1.59 2.74 2.74c.6 1.14.9 2.38.9 3.86s-.31 2.76-.9 3.85-1.54 1.93-2.8 2.51c-1.28.58-2.89.87-4.87.87h-8.73v-14.85ZM713.5 294.23v9.25l11.25-7.99h.33v40.29h10.06v-49.17h-10.78zM50.51 693.79v-29.87h11.43v-5.03H33.41v5.03H44.9v29.87zm797.75-358.01h9.47v-8.75h6.32v-8.12h-6.32V305.1h-9.18v13.81h-13.7v-.39l18.02-31.91h-9.7l-18.45 32.48v7.95h23.54v8.75ZM243.77 793.29h5.61l.03-15.18h-4.6v-41.34h-5.93v41.3h-16.1v-41.3h-5.9v41.3h-16.1v-41.3h-5.94v46.51h46.59l2.34.01zm129.69-610.22h36.87V74.7h43.25v-29H330.09v29h43.37zm-76.08 610.22h5.61l.03-15.18h-4.61v-29.73h-5.61v29.72h-12.92v-29.72h-5.61v29.72h-12.92v-29.72h-5.64v34.9h39.32l2.34.01v10Zm474.53-392.57q0 7.995 2.34 13.62c1.35 3.47 3.69 6.47 6.74 8.61 2.93 2 6.47 2.99 10.6 2.99s7.7-.99 10.64-2.99 5.19-4.86 6.74-8.61 2.32-8.32 2.32-13.62-.78-9.83-2.34-13.6-3.8-6.65-6.75-8.67c-2.93-2.02-6.47-3.02-10.61-3.02s-7.68.99-10.6 3c-3.05 2.16-5.4 5.18-6.74 8.67-1.56 3.77-2.34 8.29-2.34 13.62m11.36-9.21c.73-2.52 1.8-4.45 3.21-5.78s3.09-2 5.11-2 3.74.67 5.13 1.98c1.4 1.32 2.46 3.25 3.21 5.78.73 2.54 1.1 5.63 1.1 9.21s-.36 6.64-1.1 9.15-1.81 4.43-3.21 5.75-3.11 1.98-5.13 1.98c-1.9.02-3.73-.69-5.11-2-1.42-1.32-2.47-3.23-3.21-5.75s-1.09-5.54-1.09-9.15.36-6.67 1.09-9.19Zm-39.14-98.17a15.5 15.5 0 0 0-2.19 8.33h9.64c0-1.6.31-2.98.93-4.12a6.23 6.23 0 0 1 2.64-2.64c1.14-.62 2.52-.93 3.99-.93s2.78.29 3.92.86c1.11.55 2.05 1.39 2.7 2.44.67 1.06.99 2.32.99 3.79 0 1.32-.27 2.55-.81 3.68s-1.32 2.29-2.34 3.47a71 71 0 0 1-3.78 3.95l-17.42 16.34v7.26-.03h34.79v-8.29H756.4v-.36l7.42-7.33c2.77-2.47 5.38-5.12 7.81-7.94a23.7 23.7 0 0 0 3.83-5.99c.71-1.78 1.07-3.58 1.07-5.41 0-2.83 0-4.25-2.16-7.52-1.5-2.24-3.6-4.01-6.05-5.13-2.61-1.24-5.73-1.86-9.11-1.86s-6.38.64-8.97 1.93a14.6 14.6 0 0 0-6.09 5.48ZM383.98 703.78h5.61l.03-15.18h-4.6v-29.72h-5.65v29.72h-16.45v-29.72h-5.61v34.9h26.67zm-38.16 0h5.61l.03-15.18h-4.59v-41.33h-5.93v41.3h-23.07v-41.3h-5.93v46.51h33.87v10Zm528.13-196.26 11.22-11.21 11.23 11.21 6.11-6.11-11.2-11.23 11.2-11.19-6.11-6.2-11.23 11.24-11.22-11.24-6.14 6.2 11.22 11.19-11.22 11.23zM690.52 688.4l16.41-16.14-16.41-16.14v12.25h-30.86V644.6h-7.72v31.58h38.58v12.2Zm-38.76-303.98h23.83v.33l-20.46 40.53h10.46l20.53-40.73v-8.45h-34.35v8.32Zm-6.51 349.68h40.83v7.86h-40.83z"/>
	<path d="m672.64 494.45 13.24 15.58h10.53l-13.01-15.58 13.01-15.58h-10.53zm88.76 196.47 5.48 5.37v.02l24-24.03-24-24-5.48 5.37 8.42 8.41h-54.46v7.65h62.13l2.55 2.55-2.61 2.61h-62.08v7.65h54.42l-8.38 8.38Zm119.89 67.81-24.49-24.62h-45.88v49.17h45.88zm-62.48 16.87v-33.76h34.69l16.8 16.9-16.8 16.87h-34.69Zm44.79-107.29c-.76-.77-1.68-1.56-2.74-2.38-.99-.76-2-1.5-3.02-2.21l.35.04c1.89.27 3.85.5 5.89.7s3.89.29 5.56.29h10.86v-7.86h-33.86v33.93h7.85v-10.91c0-1.14-.07-2.45-.19-3.92s-.27-2.98-.46-4.49c-.14-1.21-.29-2.33-.44-3.42.72 1.05 1.46 2.06 2.23 3.06.82 1.05 1.6 1.96 2.38 2.76l20.27 20.3 5.61-5.61-20.3-20.27Z"/>
	<path d="m853.83 750.3-5.28-5.45-8.71 8.56-8.72-8.57-5.28 5.45 8.59 8.43-8.59 8.44 5.28 5.41 8.72-8.55 8.71 8.55 5.28-5.42-8.58-8.43zm-20-64.36h-10.86c-1.67 0-3.52.1-5.56.29-2.03.21-3.99.44-5.89.7l-.37.05c1-.7 2.01-1.43 3.04-2.22 1.06-.82 1.96-1.6 2.74-2.38l20.3-20.27-5.61-5.61-20.27 20.3c-.77.76-1.56 1.68-2.38 2.74-.8 1.04-1.54 2.05-2.22 3.05.36-2.62.66-5.25.89-7.88.12-1.47.19-2.78.19-3.92v-10.92h-7.86v33.94h33.86v-7.86Zm-73.92 90.16c2.27 2.24 4.93 4.03 7.86 5.28 2.97 1.29 6.14 1.92 9.54 1.92s6.6-.64 9.55-1.92c2.91-1.25 5.57-3.04 7.82-5.28s4.04-4.9 5.28-7.82c1.26-2.98 1.9-6.13 1.9-9.54s-.63-6.61-1.9-9.57a24.75 24.75 0 0 0-13.09-13.14 23.5 23.5 0 0 0-8.46-1.86v-11.83l-16.4 16.14 16.4 16.14v-12.46c4.04.21 7.86 1.93 10.7 4.82a16.57 16.57 0 0 1 3.57 18.26c-1.72 3.99-4.9 7.17-8.89 8.89-2.02.87-4.18 1.31-6.49 1.31s-4.47-.44-6.49-1.31c-4-1.72-7.18-4.91-8.89-8.92-.86-2.04-1.3-4.24-1.29-6.45h-7.95q0 5.085 1.92 9.54c1.28 2.97 3.04 5.57 5.31 7.82Zm156.04-444.96c1.75 1.8 3.89 3.19 6.26 4.04 2.33.84 4.73 1.25 7.22 1.25v-.02q5.445 0 9.54-2.19c5.52-2.88 8.91-8.67 8.71-14.89 0-3.09-.67-5.82-1.98-8.22-2.6-4.83-7.69-7.78-13.17-7.65-1.78 0-3.48.27-5.08.81-1.6.55-3.03 1.33-4.27 2.37s-2.23 2.27-2.99 3.7h-.33c0-3.23.37-6.02 1.12-8.36.58-2.09 1.74-3.97 3.35-5.43a8.13 8.13 0 0 1 5.46-1.92c1.94 0 3.57.5 4.87 1.5 1.31 1 2.18 2.38 2.59 4.11h9.9c-.28-2.62-1.23-5.13-2.76-7.27a16.25 16.25 0 0 0-6.02-5.11 18.6 18.6 0 0 0-8.58-1.9 17.3 17.3 0 0 0-14.46 6.99 24.8 24.8 0 0 0-3.99 8.32c-.97 3.61-1.44 7.35-1.38 11.09 0 4.5.53 8.3 1.61 11.38.89 2.76 2.38 5.3 4.37 7.41Zm5.6-14.89a8.64 8.64 0 0 1 4.54-4.72c1.06-.47 2.21-.71 3.37-.7a8.12 8.12 0 0 1 7.36 4.32c.73 1.32 1.09 2.79 1.09 4.46s-.37 3.17-1.12 4.5a8.27 8.27 0 0 1-7.4 4.34h.01v.02c-1.62 0-3.09-.4-4.37-1.21s-2.29-1.88-3.02-3.21a9 9 0 0 1-1.09-4.4c0-1.21.22-2.34.64-3.4ZM354.87 943.2h28.22v5.18h-28.22zm0-13.55h28.22v5.18h-28.22zm97.62-56.86h.01v-34.9h-13.89c-4.6 0-8.02 1.02-10.26 3.09s-3.36 4.73-3.36 7.96 1.12 5.83 3.36 7.81c1.09.93 2.36 1.62 3.73 2.05l-8.63 14.01h6.45l7.93-13.12.78.02h8.3v13.09h5.58Zm-13.51-17.8c-2.95 0-5.09-.53-6.4-1.59s-1.96-2.53-1.96-4.46.65-3.45 1.96-4.52c1.32-1.08 3.47-1.62 6.47-1.62h7.86V855h-7.93Zm-22.09 17.8v-46.52h-15.92c-3.62 0-6.6.62-8.94 1.85a11.94 11.94 0 0 0-5.21 5.1c-1.13 2.17-1.7 4.63-1.7 7.4s.57 5.21 1.7 7.34c1.17 2.16 3 3.91 5.21 4.98.53.27 1.1.5 1.7.72l-10.43 19.12h6.87l9.71-18.09c.36.01.7.04 1.06.04h10.02v18.04h5.93Zm-15.67-23.32c-2.43 0-4.39-.36-5.9-1.08s-2.59-1.74-3.28-3.06-1.02-2.85-1.02-4.7.34-3.46 1.02-4.82a7.2 7.2 0 0 1 3.29-3.18c1.5-.75 3.49-1.13 5.94-1.13h9.68v17.98h-9.74Zm191.71-735.81c0-11.8-1.66-22.03-4.97-30.72-3.31-8.68-7.93-15.91-13.82-21.68s-12.73-10.1-20.52-12.96c-7.78-2.87-16.18-4.3-25.18-4.3-13.36 0-24.99 2.99-34.9 8.97s-17.57 14.29-22.98 24.94-8.11 23.06-8.11 37.23 2.73 27.03 8.18 37.6c5.45 10.56 13.25 18.72 23.41 24.45s22.24 8.6 36.25 8.6c10.73 0 20.21-1.56 28.44-4.67s15.09-7.51 20.58-13.21a47.4 47.4 0 0 0 11.55-19.84l-33.43-6.27a23.74 23.74 0 0 1-5.71 8.91c-2.5 2.42-5.51 4.24-9.03 5.47s-7.46 1.84-11.8 1.84c-6.39 0-11.98-1.35-16.77-4.06s-8.53-6.76-11.19-12.17c-2.41-4.9-3.72-10.84-3.95-17.81h93.96v-10.32zm-93.81-12.79c.35-4.39 1.44-8.7 3.24-12.72 2.29-5.04 5.67-9.03 10.14-11.98 4.46-2.94 9.89-4.42 16.28-4.42s11.61 1.45 15.91 4.36c4.39 3.03 7.78 7.31 9.7 12.29 1.58 3.99 2.58 8.19 2.95 12.47h-58.23zM653 161.09h1.1c1.72 3.68 4.2 7.39 7.44 11.12s7.42 6.87 12.59 9.4 11.47 3.8 18.93 3.8c10.56 0 20.07-2.73 28.51-8.18s15.11-13.43 20.03-23.96 7.37-23 7.37-38.65-2.52-28.71-7.56-39.19c-5.04-10.49-11.77-18.35-20.21-23.59a51.84 51.84 0 0 0-27.89-7.86c-7.78 0-14.26 1.32-19.42 3.94a38.1 38.1 0 0 0-12.47 9.7 56 56 0 0 0-7.32 11.19h-1.72v-23.1h-36.25v188.73H653zm2.57-68.28c2.29-6.09 5.65-10.85 10.07-14.25s9.62-5.1 16.09-5.1 11.88 1.77 16.22 5.29 7.63 8.35 9.89 14.5 3.38 13.24 3.38 21.26-1.12 15.15-3.38 21.38-5.57 11.1-9.95 14.62c-4.38 3.53-9.77 5.29-16.16 5.29v-.02c-6.23 0-11.55-1.71-15.97-5.16-4.43-3.43-7.81-8.25-10.14-14.43s-3.5-13.33-3.5-21.68 1.16-15.58 3.45-21.68Zm25.24 679.03 5.41-5.37-20.56-20.53-20.53 20.53 5.41 5.37 15.12-15.08zM235.64 919a48 48 0 0 0-4.16-9.01h-5.46c3.25 6.54 5.56 13.5 6.87 20.68.62 3.45.94 6.68.94 9.72 0 2.66-.26 5.4-.8 8.21-.59 3.05-1.43 6.05-2.51 8.97-1.31 3.57-2.81 7.06-4.49 10.47h5.45c2.54-4.3 4.54-8.89 5.97-13.67 1.38-4.69 2.07-9.34 2.07-13.99 0-3.37-.34-6.91-1.02-10.64-.69-3.72-1.64-7.3-2.86-10.75Zm-9.61 49.06-.01-.01h.01Zm20.72-94.51c2.93.07 5.82-.71 8.32-2.25 2.42-1.53 4.35-3.72 5.57-6.3 1.33-2.7 2-5.79 2-9.43s-.67-6.82-2-9.54-3.18-4.82-5.57-6.32c-2.5-1.53-5.39-2.31-8.32-2.25-1.69 0-3.27.22-4.78.65a15 15 0 0 0-4.1 1.89c-1.24.82-2.32 1.84-3.21 3.03a13.5 13.5 0 0 0-2.06 4.08l5.4 1.53a8.44 8.44 0 0 1 5.58-5.69c1.02-.31 2.08-.47 3.15-.46 2.33 0 4.25.61 5.75 1.83 1.53 1.26 2.68 2.92 3.34 4.79.43 1.16.71 2.38.88 3.64h-15.03v5.06h15.11c-.15 1.42-.47 2.81-.96 4.15-.65 1.87-1.8 3.52-3.34 4.76a8.83 8.83 0 0 1-5.75 1.81c-1.17 0-2.23-.15-3.22-.47s-1.84-.75-2.61-1.33-1.4-1.25-1.92-2.05-.91-1.67-1.16-2.59l-5.36 1.53a13.4 13.4 0 0 0 5.28 7.28c1.28.87 2.67 1.53 4.15 1.96a17 17 0 0 0 4.84.68Zm87.2 50.63h-5.28v12.58h-12.42v4.96h12.42v12.61h5.28v-12.61h12.43v-4.96h-12.43zm29.75-50.64c3.18 0 5.97-.75 8.36-2.25s4.25-3.6 5.58-6.3 2-5.79 2-9.43-.67-6.82-2-9.54c-1.22-2.6-3.16-4.79-5.58-6.32-2.39-1.49-5.2-2.25-8.36-2.25s-5.94.75-8.32 2.25a15.14 15.14 0 0 0-5.57 6.32 20.1 20.1 0 0 0-1.86 6.85h-8.68v-14.98h-5.31v34.9h5.31v-14.93h8.65c.23 2.65.85 5.03 1.9 7.13a15.2 15.2 0 0 0 5.57 6.3c2.5 1.53 5.39 2.31 8.32 2.25Zm-10.17-17.99c0-2.33.36-4.49 1.09-6.47s1.85-3.57 3.36-4.79 3.37-1.83 5.72-1.83 4.3.61 5.81 1.83c1.54 1.26 2.71 2.93 3.37 4.81.73 1.98 1.09 4.14 1.09 6.44s-.36 4.43-1.09 6.39a10.7 10.7 0 0 1-3.37 4.76 9 9 0 0 1-5.81 1.81c-2.06.08-4.08-.56-5.72-1.81a10.77 10.77 0 0 1-3.36-4.76c-.73-1.97-1.09-4.06-1.09-6.39Zm-30.2 6.73c1.78-3.58 2.67-7.78 2.67-12.72s-.89-9.18-2.67-12.76a20 20 0 0 0-7.32-8.25c-3.11-1.93-6.64-2.9-10.62-2.9s-7.52.97-10.63 2.9-5.56 4.69-7.35 8.25a26.4 26.4 0 0 0-2.57 10.02h-8.36v-20.54h-5.93v46.51h5.93v-20.98h8.33c.15 3.63 1.04 7.19 2.61 10.47 1.63 3.38 4.17 6.24 7.35 8.24 3.11 1.93 6.65 2.89 10.63 2.89s7.52-.96 10.62-2.89c3.17-2 5.7-4.86 7.32-8.24Zm-10.42 3.54c-2.25 1.41-4.74 2.1-7.51 2.1s-5.31-.71-7.56-2.13-4.03-3.49-5.35-6.21-1.98-6.05-1.98-10.02.67-7.33 1.98-10.06c1.32-2.74 3.11-4.81 5.35-6.23s4.79-2.13 7.56-2.13 5.28.7 7.51 2.1c2.25 1.41 4.02 3.48 5.34 6.21s1.98 6.14 1.98 10.1-.67 7.3-1.98 10.04a14.63 14.63 0 0 1-5.34 6.21Zm-66.48 70.69h63.93v5.18h-63.93zm649.23-106.23c-2.33-2.33-5.04-4.15-8.09-5.46s-6.33-1.96-9.83-1.96-6.77.65-9.83 1.96c-6.1 2.6-10.95 7.45-13.55 13.55-1.31 3.05-1.96 6.33-1.96 9.83s.65 6.78 1.96 9.83c2.6 6.1 7.45 10.95 13.55 13.55 3.05 1.31 6.33 1.96 9.83 1.96s6.78-.65 9.83-1.96c6.1-2.6 10.95-7.45 13.55-13.55 1.31-3.05 1.96-6.33 1.96-9.83s-.65-6.77-1.96-9.83a25.7 25.7 0 0 0-5.46-8.09M893.92 855a17.78 17.78 0 0 1-9.38 9.38c-2.12.9-4.38 1.35-6.8 1.35s-4.69-.45-6.8-1.35c-2.09-.89-3.99-2.17-5.59-3.78-1.62-1.61-2.88-3.48-3.78-5.59s-1.35-4.38-1.35-6.8.45-4.69 1.35-6.8c.89-2.09 2.17-3.99 3.78-5.59 1.61-1.62 3.48-2.88 5.59-3.78s4.38-1.35 6.8-1.35 4.69.45 6.8 1.35a17.78 17.78 0 0 1 9.38 9.38c.9 2.12 1.35 4.38 1.35 6.8s-.45 4.69-1.35 6.8ZM223.7 836.82a20 20 0 0 0-7.32-8.25 19.7 19.7 0 0 0-10.62-2.9c-2.37 0-4.6.35-6.69 1.04-2.04.66-3.95 1.68-5.64 3.01a17 17 0 0 0-4.16 4.81 18.6 18.6 0 0 0-2.29 6.41h5.93c.54-2.94 2.21-5.55 4.63-7.28a12.5 12.5 0 0 1 3.84-1.88c1.41-.41 2.87-.62 4.38-.62 2.79 0 5.31.7 7.54 2.1 2.33 1.52 4.18 3.68 5.32 6.21 1 2.2 1.61 4.56 1.81 6.98h-19.26v5.21h19.33c-.11 2.75-.75 5.45-1.88 7.96a14.46 14.46 0 0 1-5.32 6.19 13.86 13.86 0 0 1-7.54 2.1c-1.52 0-2.98-.21-4.38-.62-1.41-.41-2.68-1.05-3.84-1.88a11.6 11.6 0 0 1-4.63-7.27h-5.93c.43 2.35 1.18 4.47 2.27 6.36 1.06 1.85 2.46 3.48 4.13 4.81 1.69 1.34 3.6 2.37 5.65 3.04 2.09.71 4.34 1.06 6.74 1.06 3.98.01 7.52-.96 10.62-2.89s5.54-4.69 7.32-8.25 2.67-7.75 2.67-12.69-.89-9.18-2.67-12.76Zm640.64 11.39"/>
	<path d="M874.5 842.22c1.05-.62 2.25-.94 3.47-.93 1.41 0 2.67.39 3.79 1.19s1.82 1.82 2.08 3.07h7c-.23-2.02-.99-3.95-2.19-5.59-1.2-1.65-2.73-2.94-4.59-3.91-1.88-.97-3.97-1.47-6.08-1.45-2.51 0-4.8.62-6.87 1.85s-3.11 1.84-4.94 4.92a13.07 13.07 0 0 0-1.83 6.82c0 2.51.61 4.79 1.83 6.85s2.87 3.7 4.94 4.92 4.36 1.83 6.87 1.83a12.7 12.7 0 0 0 10.49-5.35c1.17-1.65 1.9-3.57 2.12-5.58h-6.97c-.26 1.24-.92 2.25-1.96 3.04s-2.28 1.19-3.68 1.19a6.63 6.63 0 0 1-3.47-.94 7.16 7.16 0 0 1-2.53-2.51 6.54 6.54 0 0 1-.94-3.45c0-1.28.31-2.43.94-3.48s1.47-1.88 2.53-2.5Zm37.15 90.91 22.91 9.32v.45l-22.91 9.29v9.47l33.63-14.91v-8.18l-33.63-14.98zm23.72-90.92c.58-.89.87-1.96.87-3.22s-.28-2.31-.84-3.17-1.3-1.52-2.22-1.96-1.94-.68-3.04-.68h-8.68v17.69h4.56v-5.97h3l2.77 5.97h5.05l-3.41-6.84c.79-.44 1.46-1.07 1.95-1.83Zm-9.36-5.69h2.97c.64 0 1.21.2 1.7.59.49.4.74 1.04.74 1.98s-.24 1.66-.74 2.12c-.49.47-1.07.7-1.73.7h-2.93v-5.39Zm17.21-358.6 2.03-12.32h-7.49l-2.03 12.32h-9.79l2.02-12.32h-7.49l-2.02 12.32h-6.74l-1.25 7.49h6.76l-1.57 9.6h-6.74l-1.29 7.46h6.8l-2.02 12.31h7.49l2.02-12.31h9.78l-2.03 12.31h7.49l2.03-12.31h6.73l1.29-7.46h-6.79l1.58-9.6h6.76l1.25-7.49zm-10.3 17.1h-9.78l1.57-9.6h9.79z"/>
	<path d="M941.99 828.58c-1.77-1.76-3.8-3.14-6.13-4.14s-4.83-1.5-7.48-1.5-5.12.5-7.45 1.5c-4.6 1.98-8.27 5.66-10.23 10.27-1 2.32-1.5 4.8-1.5 7.45s.5 5.12 1.5 7.45a19.46 19.46 0 0 0 10.23 10.27c2.32 1 4.81 1.5 7.45 1.5s5.16-.5 7.48-1.5c4.62-1.97 8.29-5.65 10.25-10.27.99-2.32 1.48-4.8 1.48-7.45s-.49-5.12-1.48-7.45c-.98-2.32-2.37-4.36-4.12-6.13m-1.36 20.69a14.2 14.2 0 0 1-5.11 5.13 13.6 13.6 0 0 1-7.14 1.92h-.01q-3.885 0-7.11-1.92a14.4 14.4 0 0 1-5.13-5.13c-1.29-2.14-1.92-4.55-1.92-7.14s.64-4.96 1.92-7.1c1.26-2.11 3.02-3.87 5.13-5.11 2.14-1.28 4.49-1.92 7.11-1.92s4.99.64 7.13 1.92c2.1 1.25 3.86 3.01 5.11 5.11 1.28 2.14 1.92 4.54 1.92 7.13s-.63 4.96-1.9 7.11M715.67 838.8l-6.93-21.32-6.87 21.32h-22.31l18.22 13.14-7.2 21.32 18.15-13.07 18.15 13.07-7.13-21.32 18.15-13.14h-22.24Zm.36 19.66-7.28-5.21-7.25 5.21 2.93-8.65-7.52-5.37h9.08l2.77-8.81 2.9 8.81h9.01l-7.49 5.37 2.87 8.65h-.01Zm60.79 11.46c1.6.67 3.4.99 5.41.99 2.7 0 5.19-.56 7.42-1.68s4.04-2.61 5.41-4.46 2.05-3.86 2.05-6.04v-39.56l-40.83 8.12v38.91l-1.29.13c-.35-.99-.94-1.92-1.73-2.77s-1.76-1.55-2.87-2.09a8.25 8.25 0 0 0-3.62-.81c-1.69 0-3.18.43-4.47 1.28a9 9 0 0 0-4.11 7.51c0 1.7.47 3.16 1.41 4.39s2.21 2.17 3.82 2.83 3.4.99 5.41.99v-.02c2.7 0 5.19-.56 7.42-1.68s4.04-2.61 5.41-4.46a10.05 10.05 0 0 0 2.05-6.01v-27.27l25.98-5.18v26.41l-1.29.13a8.1 8.1 0 0 0-1.73-2.79c-.81-.88-1.79-1.6-2.87-2.12a8.25 8.25 0 0 0-3.62-.81c-1.59-.03-3.14.42-4.47 1.29-1.26.83-2.3 1.96-3.02 3.28-.72 1.3-1.1 2.76-1.09 4.24 0 1.7.47 3.16 1.41 4.39s2.21 2.17 3.82 2.83Zm50.82 51.64c-2.67-2.55-5.91-4.54-9.7-5.95-3.79-1.42-8.08-2.13-12.85-2.13-5.1 0-9.63.76-13.58 2.28-3.96 1.52-7.27 3.68-9.95 6.5q-4.035 4.23-6.09 10.05c-2.055 5.82-2.06 5.53-2.06 12.95 0 4.95.71 9.35 2.13 13.21 1.43 3.87 3.51 7.13 6.26 9.79s6.09 4.69 10.05 6.07 8.46 2.08 13.52 2.08.02-.02.02-.02c4.15.01 8.29-.56 12.28-1.71 1.44-.4 2.84-.92 4.19-1.55l-2.61-6.87a35.9 35.9 0 0 1-13.1 2.54c-3.98 0-7.48-.51-10.51-1.55-3.02-1.04-5.56-2.55-7.62-4.57s-3.61-4.5-4.66-7.46c-1.05-2.97-1.57-6.42-1.57-10.18s.51-7.13 1.54-10.12 2.54-5.51 4.57-7.58c2.12-2.12 4.68-3.74 7.51-4.73 2.98-1.09 6.42-1.64 10.31-1.64s6.93.51 9.7 1.54c2.78 1.02 5.08 2.47 6.93 4.37 1.84 1.9 3.23 4.15 4.15 6.78s1.38 5.55 1.38 8.77c0 2.86-.17 5.2-.52 7.04-.35 1.83-.93 3.19-1.74 4.09s-1.92 1.34-3.3 1.34c-1.01 0-1.77-.31-2.25-.93a3.94 3.94 0 0 1-.73-2.51v-22.27h-6.8v3.37h-.36c-.63-1.2-1.73-2.19-3.28-2.97s-3.4-1.16-5.56-1.16c-2.85 0-5.34.7-7.51 2.09s-3.86 3.34-5.07 5.81c-1.22 2.47-1.82 3.64-1.82 8.57 0 3.28.56 6.16 1.67 8.63s2.74 4.4 4.84 5.79 4.68 2.08 7.69 2.08c2.59 0 4.76-.51 6.49-1.54s2.89-2.37 3.48-4.01h.26c.22 1.25.75 2.29 1.61 3.12.86.82 1.93 1.43 3.21 1.81s2.63.58 4.06.58c2.46 0 4.57-.5 6.29-1.5 1.73-1 3.14-2.4 4.23-4.18 1.08-1.78 1.88-3.86 2.39-6.24s.76-4.94.76-7.69c.04-3.85-.68-7.67-2.12-11.24a25.8 25.8 0 0 0-6.13-8.99Zm-16.43 28.52c-.59 1.44-1.47 2.51-2.66 3.24s-2.7 1.09-4.52 1.09c-1.76.01-3.22-.4-4.37-1.24s-2.02-1.98-2.57-3.43-.84-3.1-.84-4.95c0-1.74.31-3.26.93-4.59s1.52-2.35 2.69-3.11 2.55-1.12 4.27-1.12 3.17.31 4.36.89 2.09 1.54 2.69 2.83.9 3.03.9 5.11-.29 3.85-.87 5.28zm57.09-3.33v.02l33.63 14.91v-9.47l-22.87-9.29v-.45l22.87-9.32v-9.54l-33.63 14.98v8.15Zm-159.57-93.5h.01zm134.34 100.2 17.76-10.76-17.76-10.76zm3.3-112.23c0-2.42-.46-4.69-1.37-6.81s-2.18-4-3.79-5.61-3.49-2.88-5.63-3.79c-2.17-.92-4.51-1.39-6.87-1.37h-9.18v42.58l-1.29.13c-.35-.99-.94-1.92-1.73-2.77s-1.76-1.55-2.87-2.09a8.25 8.25 0 0 0-3.62-.81c-1.69 0-3.18.43-4.47 1.28a9 9 0 0 0-4.11 7.51c0 1.7.47 3.16 1.41 4.39s2.21 2.17 3.82 2.83 3.4.99 5.41.99v-.02c2.7 0 5.19-.56 7.42-1.68s4.04-2.61 5.41-4.46a10.05 10.05 0 0 0 2.05-6.01h.01v-34.95h1.74c1.96 0 3.74.48 5.33 1.44 1.58.95 2.89 2.27 3.83 3.85.97 1.62 1.46 3.48 1.44 5.37-.04 2.73-1.08 5.35-2.93 7.36l5.21 4.66c1.41-1.52 2.55-3.31 3.45-5.4s1.34-4.2 1.34-6.62Zm-475.31-59.43a10.72 10.72 0 0 0 5.81-9.79c0-2.14-.49-4.04-1.47-5.71s-2.42-2.98-4.33-3.94-4.23-1.44-6.98-1.44h-9.14v-12.5h-5.61v34.9h14.76c2.74 0 5.06-.5 6.96-1.52m-16.1-15.65h9.15c2.06 0 3.76.57 5.09 1.7s2 2.68 2 4.42-.67 3.14-2 4.23a7.8 7.8 0 0 1-5.09 1.64h-9.15v-11.98Zm-129.1-639.1h51.24v56.03h36.86V45.7H277.1v51.97h-51.24V45.7H189v137.37h36.86zM76.59 687.78c-.94.49-2.18.73-3.72.73h-3.25v5.28h3.16c2.38 0 4.27-.33 5.7-.98s2.56-1.56 3.39-2.71c.88-1.24 1.61-2.57 2.18-3.98l16.08-38.83h-6.37l-5.56 13.86c-1.54 3.85-2.31 5.78-3.91 10.42l-2.22 6.41-1.24-3.73c-1.44-4.46-3.11-8.84-5.02-13.12l-6.12-13.86h-6.5l16.35 35.93-.87 2.13a4.5 4.5 0 0 1-2.09 2.45ZM94.36 99.04c4.01-6.3 7.62-12.43 10.82-18.37 3.19-5.94 6.6-12.49 10.19-19.66 2.2-4.39 4.67-9.32 7.37-14.77-.28 4.82-.56 9.65-.85 14.47-.49 8.11-.88 15.46-1.17 22.06s-.43 11.98-.43 16.16v84.17h38.33V0h-41.78L58.97 92.65q-4.605 7.65-8.91 15.48c-5.18 9.47-9.86 19.21-14 29.19.68-10.5 1.26-21.01 1.77-31.52.33-7.04.49-13.03.49-17.93V0H0v183.08h41.9l52.46-84.05Zm240.6 682.51a12.73 12.73 0 0 0 5.42-4.96c1.28-2.15 1.91-4.8 1.91-7.62s-.64-5.28-1.92-7.35c-1.3-2.1-3.19-3.76-5.43-4.8a19.06 19.06 0 0 0-8.32-1.69h-11.07v-18.35h-5.93v46.51h16.99c2.88.08 5.74-.52 8.35-1.74m-19.41-21.19h11.05c2.02 0 3.75.35 5.21 1.05 1.39.64 2.57 1.67 3.39 2.95a8.4 8.4 0 0 1 1.2 4.56c0 2.82-.88 5.07-2.64 6.74s-4.14 2.5-7.16 2.5h-11.05v-17.79Zm-305 4.02c2.32 1.04 5.1 1.56 8.33 1.56 2.93 0 5.58-.38 7.95-1.17a29 29 0 0 0 4.75-2.02v20.54h5.93v-46.51h-5.93v20.32a26 26 0 0 1-4.68 2.28c-2.29.85-4.71 1.28-7.27 1.28-3.01 0-5.51-.76-7.46-2.27-1.95-1.5-2.93-3.96-2.93-7.35v-14.26H3.31v14.29c0 3.43.62 6.26 1.88 8.45 1.21 2.16 3.09 3.87 5.36 4.85ZM216.1 920.22c1.16-3.49 2.55-6.9 4.16-10.2h-5.46c-1.56 2.56-2.94 5.56-4.15 9.01s-2.16 7.02-2.86 10.74c-.68 3.51-1.03 7.08-1.05 10.66 0 4.56.69 9.17 2.05 13.86s3.37 9.29 6.01 13.8h5.46c-1.79-3.71-3.26-7.14-4.42-10.29s-2.01-6.15-2.56-8.97-.83-5.63-.83-8.39c0-3.04.32-6.28.94-9.72a79 79 0 0 1 2.7-10.48ZM34.52 954.01c1.05-1.42 1.87-3 2.42-4.68.78-2.45 1.13-5.02 1.06-7.59h-5.4c.04 2.9-.63 5.77-1.93 8.36l-9.98-12.09 3.4-2.52c1.2-.89 2.28-1.85 3.19-2.87.92-1.01 1.65-2.13 2.18-3.34s.8-2.52.8-3.94c0-1.85-.46-3.53-1.37-5.04-.92-1.5-2.21-2.71-3.9-3.62s-3.74-1.36-6.03-1.36-4.3.45-6.01 1.34-3.04 2.14-3.98 3.72-1.41 3.4-1.41 5.46c0 1.85.37 3.57 1.13 5.12.85 1.7 1.89 3.29 3.12 4.73l1.19 1.43a92 92 0 0 0-4.54 3.62C7 942 5.85 943.38 5.01 944.86s-1.25 3.24-1.25 5.28c-.07 4.73 2.64 9.06 6.93 11.07 2.47 1.19 5.19 1.77 7.93 1.7h.03c2.22 0 4.48-.41 6.76-1.22 2.09-.75 3.84-1.85 5.29-3.28l3.23 3.87h6.77l-6.51-7.89.32-.38Zm-20.58-31.13a4.94 4.94 0 0 1 2.07-1.98c.95-.49 2.01-.74 3.09-.72 1.69 0 3.02.48 4.01 1.44a4.82 4.82 0 0 1 1.48 3.65c0 1.09.01 1.62-.7 2.85-.45.79-1.02 1.5-1.7 2.09-.67.59-1.28 1.09-1.84 1.5l-3.01 2.21-1.17-1.44c-.92-1.16-1.64-2.26-2.17-3.31s-.8-2.2-.8-3.34.24-2.12.73-2.95Zm9.66 33.99c-1.71.75-3.49 1.13-5.34 1.13-1.7 0-3.21-.32-4.52-.97s-2.33-1.55-3.06-2.7-1.09-2.5-1.09-4.01.38-2.77 1.17-3.98c1.11-1.54 2.48-2.88 4.04-3.95l1.58-1.18 10.99 13.18a14.4 14.4 0 0 1-3.76 2.46Zm35.04-21.82c1.4-.75 2.48-1.97 3.06-3.45.71-1.47 1.07-3.08 1.05-4.71v-2.43c0-1.71-.34-3.27-1.02-4.7a8.2 8.2 0 0 0-3.04-3.43c-1.35-.86-3.05-1.3-5.02-1.3s-3.62.44-4.98 1.3a8.44 8.44 0 0 0-3.11 3.43c-.71 1.46-1.08 3.07-1.06 4.7v2.43q0 2.55 1.05 4.71a8.2 8.2 0 0 0 3.09 3.45c1.51.91 3.25 1.36 5 1.3 1.98 0 3.64-.44 4.98-1.3m-9.34-8.15v-2.43c0-1.37.34-2.62 1.01-3.72s1.73-1.66 3.36-1.66 2.75.56 3.37 1.66c.62 1.11.94 2.34.94 3.72v2.43c0 1.4-.01 2.09-.97 3.73-.64 1.09-1.76 1.64-3.34 1.64s-2.41 0-3.39-1.64c-.65-1.09-.98-2.33-.98-3.73M3.98 826.27v46.51h16.99c2.88.08 5.74-.52 8.35-1.74a12.73 12.73 0 0 0 5.42-4.96c1.28-2.15 1.91-4.8 1.91-7.62s-.64-5.28-1.92-7.35c-1.3-2.09-3.19-3.75-5.43-4.79a19.05 19.05 0 0 0-8.32-1.68H9.91v-18.37zm16.99 23.57c2.02 0 3.75.35 5.21 1.05 1.39.64 2.57 1.67 3.39 2.95a8.4 8.4 0 0 1 1.2 4.56c0 2.82-.88 5.07-2.64 6.74s-4.14 2.5-7.16 2.5H9.92v-17.79h11.05Zm272.21-173.67 11.67-17.28h-6.43l-4.44 6.77a44 44 0 0 0-2.82 4.9c-.32.65-.65 1.28-.99 1.91l-1.07-1.91c-.92-1.67-1.89-3.3-2.92-4.9l-4.34-6.77h-6.55l11.57 17-12.29 17.9h6.5l5.18-7.84c1.02-1.53 1.95-3.12 2.78-4.76.29-.59.6-1.17.92-1.73l.98 1.73c.89 1.62 1.85 3.21 2.86 4.76l5.12 7.84h6.52l-12.22-17.62h-.01ZM128.5 658.9l-7.49 20.69a65 65 0 0 0-1.98 6.41l-.7 2.58-.69-2.57c-.55-2.18-1.22-4.32-2-6.43l-7.42-20.69h-6.15l13.33 35.08-1 2.9a9.9 9.9 0 0 1-1.96 3.68 4.25 4.25 0 0 1-2.53 1.38c-.94.14-1.97.07-3.12-.23l-.59-.15-1.44 4.87h-.02c.28.14.8.29 1.53.44s1.59.22 2.59.22c1.65 0 3.13-.28 4.44-.86 1.34-.6 2.52-1.5 3.45-2.65.98-1.19 1.83-2.71 2.54-4.57l15.33-40.11h-6.12Zm4.29 77.87h-5.93v41.3h-16.1v-41.3h-5.9v41.3h-16.1v-41.3h-5.94v46.51h49.98v-46.51ZM80.57 871.29a10.72 10.72 0 0 0 5.81-9.79c0-2.15-.49-4.04-1.47-5.71s-2.42-2.98-4.33-3.94-4.23-1.44-6.98-1.44h-9.14v-12.5h-5.61v34.9h14.76c2.74 0 5.06-.5 6.96-1.52m-16.11-15.65h9.15c2.06 0 3.76.57 5.09 1.7s2 2.69 2 4.42-.67 3.14-2 4.23a7.8 7.8 0 0 1-5.09 1.64h-9.15v-11.98Zm186.48-179.76c.52.93 1.09 1.85 1.69 2.78s1.34 2.04 2.21 3.33l8.14 11.8h6.84l-16.5-24.02 15.62-22.49h-6.72l-6.84 9.87c-1 1.45-1.83 2.68-2.49 3.7a52 52 0 0 0-3.06 5.35 55 55 0 0 0-3.03-5.36c-.79-1.24-1.61-2.47-2.45-3.68l-6.72-9.87h-6.87l15.64 22.69-16.67 23.82h6.76l8.21-11.8c.92-1.32 1.68-2.44 2.29-3.39 1.01-1.55 1.95-3.15 2.81-4.8.39.77.77 1.47 1.11 2.08ZM59.33 772.37l-.02.02c2.7.02 5.38-.34 7.98-1.07l.23-.07v12.04h5.61v-34.9h-5.61v17.64c-.71.2-1.41.39-2.12.55-1.83.41-3.9.62-6.08.62s-4.01-.61-5.46-1.84-2.18-3.15-2.18-5.78v-11.17h-5.61v11.17c0 4.26 1.21 7.47 3.61 9.59s5.63 3.19 9.66 3.19Zm89.29-84.35a23 23 0 0 0 10.03 2.41v6.11h5.93v-6.11c3.84-.11 7.2-.9 10.05-2.41 3.07-1.62 5.45-3.92 7.13-6.9 1.67-2.98 2.51-6.5 2.51-10.59s-.83-7.61-2.51-10.59a17.24 17.24 0 0 0-7.13-6.9 22.64 22.64 0 0 0-10.05-2.41v-6.11h-5.93v6.11c-3.83.11-7.17.9-10.03 2.41-3.01 1.55-5.5 3.95-7.15 6.9-1.67 2.98-2.51 6.5-2.51 10.59s.83 7.61 2.51 10.59c1.66 2.95 4.14 5.35 7.15 6.9m23.05-30.28c2.25 1.12 3.96 2.75 5.13 4.91s1.77 3.22 1.77 7.88c0 3.11-.59 5.73-1.77 7.88-1.18 2.16-1.77 3.24-5.13 4.91-1.96.97-4.34 1.49-7.09 1.61v-28.8c2.75.12 5.12.63 7.09 1.61m-25.23 4.91c1.15-2.14 2.95-3.86 5.15-4.91a17.6 17.6 0 0 1 7.06-1.61v28.8c-2.44-.04-4.85-.59-7.06-1.61a11.54 11.54 0 0 1-5.15-4.91c-1.18-2.16-1.77-4.79-1.77-7.88s.6-5.72 1.77-7.88m51.54 29.64c2.5 1.53 5.39 2.31 8.32 2.25v12.3h5.65v-12.3c3.16 0 5.93-.75 8.32-2.25 2.42-1.53 4.35-3.72 5.57-6.3 1.33-2.7 2-5.79 2-9.43s-.67-6.82-2-9.54-3.18-4.83-5.57-6.32-5.16-2.25-8.32-2.25v-11.17h-5.65v11.17c-3.16 0-5.93.74-8.32 2.25s-4.24 3.61-5.57 6.32-2 5.95-2 9.54.67 6.73 2 9.43a15.2 15.2 0 0 0 5.57 6.3m19.75-27.41c1.53 1.31 2.66 3 3.42 5.07 1.51 4.23 1.51 8.85 0 13.07-.68 1.91-1.87 3.61-3.42 4.92a8.82 8.82 0 0 1-5.78 1.89v-26.91c2.33 0 4.26.65 5.78 1.96m-20.63 5.07c.76-2.07 1.91-3.76 3.42-5.07a8.57 8.57 0 0 1 5.78-1.96v26.91c-2.09.08-4.14-.58-5.78-1.89-1.55-1.31-2.74-3-3.42-4.92-.75-2.02-1.13-4.13-1.13-6.47s.37-4.54 1.13-6.61Zm-11.97 78.43h-5.61v29.72H166.6v-29.72h-5.61v29.72h-12.92v-29.72h-5.64v34.9h42.7zm-141.87 77.9h5.93v46.51h-5.93zm98.29 39.79c1.28-2.15 1.91-4.8 1.91-7.62s-.64-5.28-1.92-7.35c-1.28-2.06-3.09-3.66-5.43-4.79s-5.11-1.68-8.32-1.68h-11.07v-18.37H97.56v5h13.22v41.5h16.99c2.88.08 5.74-.52 8.35-1.74a12.73 12.73 0 0 0 5.42-4.96Zm-6.6-.93c-1.76 1.67-4.14 2.5-7.16 2.5h-11.05v-17.79h11.05c2.02 0 3.75.35 5.21 1.05 1.39.64 2.57 1.66 3.39 2.95a8.4 8.4 0 0 1 1.2 4.56c0 2.82-.88 5.07-2.64 6.74Zm-6.3 86.08h-.44l-20.76-35.43h-5.61v46.51h5.8v-35.15h.5l20.64 35.15h5.61v-46.51h-5.75v35.43Zm-74.98-14.87h-.01zm35.23 6.84c-1.35-.86-3.06-1.3-5.03-1.3s-3.62.44-4.98 1.3-2.4 2.01-3.11 3.43c-.71 1.46-1.08 3.07-1.06 4.7v2.43q0 2.55 1.05 4.71a8.2 8.2 0 0 0 3.09 3.45c1.36.86 3.03 1.3 5 1.3s3.64-.44 4.98-1.3a8.23 8.23 0 0 0 3.06-3.45c.7-1.43 1.05-3.01 1.05-4.71v-2.43c0-1.71-.34-3.27-1.01-4.7s-1.69-2.57-3.04-3.43m-.73 10.56a7.17 7.17 0 0 1-.97 3.73c-.64 1.09-1.76 1.64-3.34 1.64s-2.74-.55-3.39-1.64-.98-2.33-.98-3.73v-2.43c0-1.37.34-2.62 1.01-3.72s1.73-1.66 3.36-1.66 2.75.55 3.37 1.66.94 2.34.94 3.72zm-6.25-37.96L49.95 962.3h5.28l31.97-46.51zm8.5-77.9h5.61v34.9h-5.61zm107.37 95.56-2.5-4.24-9.82 6.48.31-11.94h-4.93l.31 11.96-9.86-6.5-2.5 4.24 10.67 5.58-10.7 5.47 2.43 4.27 9.95-6.42-.31 11.98h4.91l-.31-11.96 9.92 6.4 2.43-4.27-10.7-5.47 10.67-5.58Zm-42.01-17.02c-1.62-.89-2.51-1.34-5.81-1.34-2.2 0-4.12.45-5.76 1.34s-2.89 2.15-3.76 3.75-1.31 3.49-1.31 5.65v3.03c0 2.14.45 4.01 1.33 5.61a9.3 9.3 0 0 0 3.77 3.75c1.78.93 3.78 1.39 5.79 1.34 2.2 0 4.11-.45 5.72-1.33a9.2 9.2 0 0 0 3.73-3.73c.87-1.6 1.31-3.48 1.31-5.65v-3.03c0-2.15-.44-4.02-1.3-5.64-.84-1.6-2.14-2.9-3.73-3.76h.01Zm-.5 12.43c0 1.85-.44 3.34-1.31 4.46s-2.19 1.69-3.94 1.69-3.16-.56-4.04-1.67-1.33-2.61-1.33-4.48v-3.03c0-1.81.43-3.27 1.31-4.37s2.21-1.66 4-1.66 3.11.56 3.98 1.66 1.31 2.56 1.33 4.37zm24.2-61.65c.99-1.71 1.48-3.57 1.48-5.71s-.49-4.04-1.48-5.71-2.43-2.98-4.33-3.94-4.22-1.44-6.97-1.44h-9.15v-12.5h-15.35v4.56h9.74v30.35h14.76c2.75 0 5.07-.5 6.97-1.52s3.34-2.38 4.33-4.08Zm-6.2-1.22a7.8 7.8 0 0 1-5.09 1.64h-9.15v-11.98h9.15c2.06 0 3.76.57 5.09 1.7s2 2.69 2 4.42-.67 3.14-2 4.23Zm-33.11 82.29h19.82v-4.71h-19.82zm259.06 7.09h7.35v7.28h-7.35zm6.87-39.48h-6.4l.38 31.74h5.61l.4-31.74Zm16.55 39.48H430v7.28h-7.35zm12.28-38.52c-2.19-1.1-4.62-1.64-7.08-1.58-2.47 0-4.72.49-6.75 1.46a12.1 12.1 0 0 0-4.92 4.22c-1.3 2-2 4.33-2.03 6.72h5.96c.13-1.74.56-3.15 1.32-4.24s1.7-1.89 2.85-2.4a8.65 8.65 0 0 1 7.42.11c1.12.56 2.07 1.41 2.75 2.46.69 1.06 1.02 2.32 1.02 3.78 0 1.82-.48 3.38-1.42 4.67-.94 1.28-2.13 2.36-3.49 3.18-1.33.76-2.58 1.65-3.74 2.65a8.65 8.65 0 0 0-2.4 3.71c-.56 1.56-.83 3.77-.83 6.64v.35h5.69v-.35c0-1.86.17-3.34.55-4.43s.96-2.02 1.79-2.78 1.91-1.55 3.25-2.37c1.91-1.12 3.53-2.68 4.71-4.55 1.16-1.97 1.73-4.22 1.67-6.5.14-4.51-2.32-8.7-6.33-10.76Zm13.87 6.32h3.83v1.22c0 1.22-.25 2.23-.75 3.06-.45.79-1.29 1.27-2.2 1.24h-.88v3.04h.89c2.02 0 3.6-.68 4.74-2.03s1.72-3.21 1.72-5.57v-8.25h-7.35v7.28Zm17.27 39.49h3.83v1.22c0 1.22-.25 2.23-.75 3.06-.45.79-1.29 1.27-2.2 1.24h-.88v3.04h.89c1.81.09 3.56-.66 4.74-2.03 1.14-1.35 1.72-3.21 1.72-5.57v-8.25h-7.35v7.28Zm-.01-33.11h7.35v7.28h-7.35zm18.52 0h7.35v7.28h-7.35zm0 25.82h7.35v7.28h-7.35zm18.53 7.29h3.83v1.22c0 1.22-.25 2.23-.75 3.06-.45.79-1.29 1.27-2.2 1.24h-.88v3.04h.89c1.81.09 3.56-.66 4.74-2.03 1.14-1.35 1.72-3.21 1.72-5.57v-8.25h-7.35v7.28Zm18.51-7.29h7.35v7.28h-7.35z"/></svg>