<svg xmlns="http://www.w3.org/2000/svg" data-name="StixPreview2" viewBox="0 0 973.49 980"
	class="fontpreview">
	<path d="m49.57 309.84-15.56-35.65h-2.69L17.4 307.15a54 54 0 0 1-2.63 5.55 6.1 6.1 0 0 1-2.17 2.4c-.92.43-1.94.63-2.96.59v1.97h13.78l.02-.02v-1.97c-1.13.06-2.27-.09-3.35-.43-.71-.28-1.05-.88-1.05-1.8q0-.93.24-1.68l.49-1.55 2.92-6.93h16.86l2.53 5.88c.44.96.73 1.76.88 2.4s.24 1.2.24 1.68c0 .75-.25 1.3-.73 1.65-.52.37-1.13.6-1.77.66-.71.09-1.38.13-2.04.13v1.97h17.66v-1.97c-1.76 0-3.08-.44-3.97-1.31a15.4 15.4 0 0 1-2.79-4.53Zm-18.24-27.59 7.23 18.41H23.7l7.42-18.41h.2Zm41.21 17.48c-1.49.39-3.01.87-4.57 1.44s-3 1.28-4.33 2.1c-1.28.78-2.37 1.82-3.21 3.06a7.8 7.8 0 0 0-1.21 4.43c0 2.1.67 3.85 2 5.25 1.33 1.41 3.27 2.1 5.81 2.1 1.4 0 2.63-.18 3.71-.55 1.07-.38 2.08-.91 3.02-1.61.94-.69 1.91-1.49 2.92-2.36h.3c.22 1.29.52 2.33.91 3.08.46.87 1.46 1.31 2.99 1.31 1.67 0 2.99-.36 3.97-1.09s2.03-1.87 3.12-3.45l-.99-1.05c-.44.49-.91.88-1.41 1.19s-1.06.46-1.68.46c-.71 0-1.21-.2-1.51-.59-.3-.4-.46-1.28-.46-2.63v-14.9c0-3.41-.74-5.95-2.23-7.61s-4.02-2.5-7.61-2.5c-2.36 0-4.41.36-6.14 1.05-1.53.56-2.91 1.48-4.01 2.69-.88.95-1.38 2.19-1.41 3.48 0 1.1.29 1.89.88 2.4s1.21.75 1.87.75c.93 0 1.63-.25 2.14-.75.49-.5.75-1.25.75-2.26 0-1.96.26-3.35.78-4.13.53-.79 1.65-1.19 3.62-1.19s3.45.59 4.43 1.8c.99 1.2 1.48 3.22 1.48 6.07v2.89c-1.3.4-2.62.78-3.94 1.12h-.01Zm.75 13.94c-1.12.54-2.34.83-3.58.85-1.3.05-2.54-.48-3.41-1.44s-1.31-2.17-1.31-3.87.55-3.08 1.65-4.13 2.52-1.9 4.27-2.56c1.82-.67 3.69-1.24 5.58-1.7v10.82c-.97.82-2.03 1.51-3.18 2.05Zm23.39-1.1c-.2 1.21-.72 2.03-1.55 2.46-.84.44-2.19.66-4.08.66v1.97h17.93-.01c5.48 0 9.68-1.12 12.64-3.38s4.43-5.37 4.43-9.36c.07-3.23-1.33-6.32-3.81-8.41-2.54-2.23-6.59-3.35-12.15-3.35-1.22 0-2.44.03-3.64.1-1.21.07-2.35.15-3.45.24v-16.02h8.46c2.59 0 4.51.26 5.78.78 1.23.48 2.21 1.46 2.69 2.69.53 1.28.96 3.07 1.31 5.39h2.17l-.26-11.81h-32.1v1.97c1.75 0 3.05.16 3.87.46.84.3 1.39.9 1.65 1.77s.39 2.16.39 3.87v24.82c0 2.23-.09 3.95-.29 5.15Zm6.34-16.57c1.4-.08 2.8-.13 4.2-.13 3.59 0 6.51.74 8.73 2.23s3.35 3.92 3.35 7.29c.07 1.72-.28 3.44-1.02 4.99-.67 1.27-1.58 2.24-2.72 2.92-1.15.69-2.42 1.16-3.74 1.38q-2.025.36-4.08.36c-1.61.01-3.19-.06-4.72-.19v-18.84Zm33.54-10.12a10.23 10.23 0 0 1 4.17-3.45c1.6-.71 3.2-1.23 4.83-1.58 1.57-.4 3.14-.78 4.69-1.15s2.97-.85 4.23-1.44a7.76 7.76 0 0 0 3.09-2.5 7.45 7.45 0 0 0 1.24-4.3v-.36c0-.16-.02-.31-.07-.49h-1.58c-.27 1.1-1.11 1.88-2.53 2.36-2.11.68-4.25 1.27-6.4 1.77-2.4.52-4.74 1.28-7 2.26-2.13.94-3.96 2.25-5.52 3.91-1.67 1.87-2.9 4.09-3.58 6.51a34 34 0 0 0-1.24 10.04q0 10.635 3.81 15.75c2.54 3.41 6.08 5.12 10.64 5.12l.02.02c2.68 0 5.14-.58 7.39-1.77 2.31-1.23 4.2-3.12 5.45-5.42 1.38-2.43 2.07-5.51 2.07-9.23 0-3.24-.55-6-1.65-8.27-.99-2.16-2.6-3.98-4.62-5.22-1.99-1.2-4.51-1.8-7.19-1.8s-5.14.68-7.39 2.04-4 3.56-5.22 6.63h-.39l.39-2.43c.39-3.07 1.18-5.4 2.36-7m1.8 8.56c.75-1.88 1.76-3.25 3.02-4.08s2.75-1.24 4.33-1.24 3.01.43 4.3 1.28c1.3.85 2.31 2.26 3.06 4.23s1.12 4.72 1.12 8.01-.38 5.88-1.12 7.78c-.75 1.9-1.74 3.27-2.96 4.08a7.3 7.3 0 0 1-4.13 1.21h-.02c-2.89 0-5.06-1.19-6.53-3.57s-2.19-5.74-2.19-10.08c0-3.19.37-5.73 1.12-7.61Zm31.35 18.96a2.84 2.84 0 0 1-1.84 1.84c-.91.3-2.25.46-4.04.46v1.97h20.22c4.9 0 8.74-1.01 11.52-3.02s4.17-4.88 4.17-8.6c0-2.41-.56-4.37-1.7-5.88a11.7 11.7 0 0 0-4.3-3.52c-1.72-.82-3.54-1.4-5.42-1.7v-.27c2.45-.61 4.73-1.74 6.7-3.31 1.76-1.47 2.63-3.66 2.63-6.59 0-2.19-.53-4.04-1.58-5.55-1.04-1.51-2.75-2.68-5.12-3.48-2.37-.81-5.5-1.21-9.39-1.21h-17.72v1.97c1.8 0 3.15.12 4.04.39.9.27 1.51.83 1.84 1.68s.49 2.16.49 3.91v26.85c0 1.8-.17 3.16-.49 4.08Zm21.4-13.03c1.15 1.38 1.74 3.31 1.74 5.81 0 2.1-.36 3.76-1.05 4.96a6.64 6.64 0 0 1-2.79 2.69c-1.16.59-2.44.97-3.84 1.15-1.4.17-2.8.26-4.2.26-.78.01-1.58 0-2.36-.06l-2.36-.13v-18.38h4.59c2.06 0 4 .27 5.81.82s3.3 1.51 4.47 2.89Zm-14.88-23.08c.66-.08 1.32-.13 2-.16s1.32-.03 1.94-.03c4.02 0 6.85.72 8.5 2.16s2.46 3.46 2.46 6.05c0 2.97-.74 5.15-2.23 6.53s-4.22 2.07-8.21 2.07h-4.47v-16.62Zm31.1 37.08c-.21.58-.65.97-1.31 1.18-.66.19-1.62.29-2.89.29v1.84h16.49c3.81.01 6.77-.66 8.92-1.99 2.14-1.33 3.21-3.4 3.21-6.2 0-1.84-.45-3.29-1.34-4.37s-1.97-1.88-3.21-2.43c-1.15-.51-2.35-.9-3.58-1.15v-.26c2.09-.48 3.81-1.3 5.12-2.46a6.23 6.23 0 0 0 1.97-4.89c0-2.36-1.03-4.18-3.09-5.42s-5.25-1.87-9.58-1.87h-14.9v1.9c1.35 0 2.35.08 2.99.26.63.18 1.05.56 1.24 1.15s.29 1.52.29 2.79v18.98c0 1.19-.1 2.07-.32 2.66Zm5.92-25.2h.01c.53-.08 1.06-.12 1.61-.12h1.41c3.19 0 5.44.41 6.73 1.24s1.94 2.21 1.94 4.13c0 2.06-.57 3.59-1.71 4.6s-3.26 1.51-6.37 1.51h-3.62zm-.01 13.86h3.94c1.44 0 2.82.16 4.11.46s2.34.92 3.15 1.84 1.21 2.3 1.21 4.13-.43 3.18-1.28 4.01c-.88.85-2 1.39-3.21 1.55-1.29.19-2.6.29-3.91.29-1.34.02-2.68-.02-4.01-.12v-12.15Zm28.05 10.2c-.27.94-.82 1.59-1.65 1.94s-2.13.53-3.87.53v1.97h18.85v-1.97c-1.93 0-3.39-.18-4.4-.53s-1.68-.99-2-1.9-.49-2.24-.49-3.94v-31.84h7.75c2.59 0 4.52.27 5.81.82s2.21 1.56 2.75 3.02 1 3.61 1.34 6.4h2.23l-.53-13.2h-31.32v1.97c1.75 0 3.05.16 3.87.46.84.3 1.39.9 1.65 1.77s.39 2.16.39 3.87v26.73c0 1.67-.12 2.97-.39 3.91Zm45.87 4.44h-.01zm-11.73-2.69c-.55.57-1.78.85-3.71.85v1.84h15.42v-1.83c-2.18 0-3.64-.27-4.33-.82-.71-.54-1.05-1.78-1.05-3.71v-22.26h5.25c1.8 0 3.14.27 4.01.82.96.67 1.66 1.66 1.97 2.79.44 1.32.9 3.14 1.38 5.45h2.04l-.26-11.49h-24.42v1.9c1.03-.04 2.06.05 3.06.29.63.19 1.03.6 1.21 1.24.17.64.26 1.61.26 2.92v18.25c0 1.93-.27 3.17-.82 3.74Zm31.09-21.64q-.705 3.66-1.68 7.26c-.65 2.41-1.41 4.61-2.26 6.63s-1.79 3.69-2.82 5.03c-1.03 1.33-2.13 2.14-3.31 2.4l-.82.13-1.15.2.2 15.23h2.02c.71-3.46 1.34-6.09 1.94-7.88.58-1.79 1.33-3.01 2.23-3.67s2.15-.99 3.77-.99h20.81c1.7 0 2.99.35 3.84 1.05.85.69 1.53 1.96 2.04 3.77s1.06 4.39 1.68 7.71h2.1l.39-15.1-2.69-.07c-1.31-.04-2.23-.36-2.75-.95-.53-.58-.78-1.8-.78-3.64v-29.09c0-1.37.18-2.4.53-3.09s.99-1.18 1.9-1.41c.92-.24 2.24-.36 3.94-.36v-1.97h-33.42v1.97c1.7 0 2.97.12 3.77.39.82.26 1.33.71 1.58 1.34.27.86.39 1.76.36 2.65 0 1.53-.12 3.39-.36 5.55q-.405 3.465-1.05 6.9Zm2.52 4.09a99.7 99.7 0 0 0 2.36-20h11.82v37.42h-21v-.39c1.65-2.36 3-4.91 4.01-7.6a67 67 0 0 0 2.82-9.43zm40.7-7.44c.21.55.32 1.32.32 2.33 0 1.62-.12 3.4-.39 5.35s-.65 3.91-1.15 5.88-1.14 3.81-1.9 5.49c-.77 1.68-1.65 3.08-2.63 4.2a5.77 5.77 0 0 1-4.1 2.1c-.22.02-.44.06-.66.1l.2 13.78h2.18c.62-3.12 1.14-5.52 1.58-7.2.44-1.69 1.02-2.83 1.77-3.45s1.88-.92 3.41-.92h14.77c.93-.04 1.86.13 2.72.49.68.32 1.24.91 1.68 1.74.44.84.84 2 1.19 3.52.36 1.51.75 3.45 1.19 5.81h2.16l.32-13.78-2.63-.07c-.96-.03-1.67-.29-2.1-.75-.44-.47-.66-1.5-.66-3.12v-17.72c0-1.44.04-2.53.13-3.28s.45-1.27 1.09-1.55 1.76-.43 3.38-.43v-1.9h-26.66v1.9c1.53 0 2.66.1 3.38.32s1.19.6 1.41 1.15Zm2.51 8.24c.37-3.06.58-6.1.63-9.13h8.6v26.07h-14.97v-.26c1.66-2.41 2.94-5.03 3.84-7.85s1.53-5.77 1.9-8.83M47.65 409.59h-.01v.02-.02Z"/>
	<path d="M17.51 405.43c-.35.82-.97 1.34-1.87 1.58s-2.17.36-3.84.36v2.23h35.84l1.77-12.38h-2.43a36 36 0 0 1-1.8 4.62 7.56 7.56 0 0 1-2.19 2.79c-.88.66-2.07 1.12-3.58 1.38s-3.47.39-5.88.39h-8.27v-17.53h7.09c2.09 0 3.66.13 4.69.39q1.545.405 2.07 1.68c.35.86.53 2.21.53 4.04h2.43v-15.23h-2.43c0 1.76-.18 3.08-.53 3.97-.36.9-1.04 1.5-2.07 1.8s-2.59.46-4.69.46h-7.09v-16.16h9.33c2.63 0 4.64.21 6.01.63a4.7 4.7 0 0 1 2.96 2.3c.59 1.12 1.04 2.72 1.34 4.83h2.5l-.39-11.1H11.8v2.23c1.8 0 3.14.16 4.01.46s1.47.9 1.77 1.77.46 2.14.46 3.81v26.92c0 1.7-.18 2.97-.53 3.77Zm37.48-20.53c-1.31 2.41-1.97 5.45-1.97 9.13s.59 6.47 1.8 8.9 2.89 4.27 5.06 5.49c2.28 1.25 4.85 1.88 7.45 1.84 1.91 0 3.57-.25 4.94-.75 1.3-.46 2.51-1.16 3.55-2.07.99-.87 1.85-1.89 2.6-3.06.74-1.16 1.42-2.35 2.04-3.58l-1.38-1.05c-.68.9-1.44 1.73-2.26 2.5a9 9 0 0 1-2.96 1.77c-1.16.45-2.52.66-4.37.66s-3.5-.45-4.99-1.34c-1.58-1-2.82-2.47-3.55-4.2-.89-2.15-1.33-4.47-1.29-6.8h20.55c-.13-4.74-1.34-8.34-3.62-10.84-2.27-2.5-5.3-3.74-9.06-3.74-2.68 0-5.11.58-7.29 1.77s-3.94 2.98-5.25 5.39Zm6.32-1.56a5.6 5.6 0 0 1 5.22-2.89c1.44 0 2.62.41 3.52 1.24s1.57 1.95 2 3.35c.45 1.4.68 2.94.73 4.66H59.71c.18-2.69.71-4.81 1.6-6.36m6.03 26.91h-.03zm50.63-.66h-.01v.02-.02Z"/>
	<path d="M82.12 368.7c1.8 0 3.14.16 4.01.46s1.47.9 1.77 1.77.46 2.14.46 3.81v26.92c0 1.7-.18 2.97-.53 3.77-.35.82-.97 1.34-1.87 1.58s-2.17.36-3.84.36v2.23h35.84l1.77-12.38h-2.43a36 36 0 0 1-1.8 4.62 7.56 7.56 0 0 1-2.19 2.79c-.88.66-2.07 1.12-3.58 1.38q-2.265.39-5.88.39h-8.27v-17.53h7.09c2.09 0 3.66.13 4.69.39q1.545.405 2.07 1.68c.35.86.53 2.21.53 4.04h2.43v-15.23h-2.43c0 1.76-.18 3.08-.53 3.97-.36.9-1.04 1.5-2.07 1.8s-2.59.46-4.69.46h-7.09v-16.16h9.33c2.63 0 4.64.21 6.01.63a4.7 4.7 0 0 1 2.96 2.3c.59 1.12 1.04 2.72 1.34 4.83h2.5l-.39-11.1H82.14v2.23Zm9.12-6.48c.75.78 1.81 1.2 2.89 1.15 1.28 0 2.27-.39 3.02-1.15s1.12-1.77 1.12-2.86-.38-2.03-1.12-2.79c-.75-.77-1.79-1.15-3.02-1.15s-2.19.39-2.92 1.15-1.09 1.76-1.09 2.86.37 2.03 1.12 2.79m14.48-5.64c-.73.76-1.09 1.76-1.09 2.86s.37 2.03 1.12 2.79c.75.78 1.81 1.2 2.89 1.15 1.12.05 2.22-.36 3.02-1.15.75-.76 1.12-1.77 1.12-2.86s-.38-2.03-1.12-2.79c-.75-.77-1.79-1.15-3.02-1.15s-2.19.39-2.92 1.15m21.58 9.61c-.73.78-1.09 1.75-1.09 2.89s.37 2.1 1.12 2.89 1.74 1.19 2.96 1.19 2.27-.4 3.02-1.19 1.12-1.75 1.12-2.89-.38-2.1-1.12-2.89c-.75-.79-1.75-1.19-3.02-1.19s-2.26.4-2.99 1.19m10.35 44.06h-.01.02zm4.13-44.06c-.75.78-1.12 1.75-1.12 2.89s.37 2.1 1.12 2.89 1.74 1.19 2.96 1.19 2.27-.4 3.02-1.19 1.12-1.75 1.12-2.89-.38-2.1-1.12-2.89c-.75-.79-1.79-1.19-3.02-1.19s-2.22.4-2.96 1.19m-18.44 27.84c0 3.5.59 6.47 1.8 8.9 1.08 2.3 2.84 4.22 5.05 5.49 2.28 1.25 4.85 1.88 7.45 1.84 1.91 0 3.57-.25 4.95-.75 1.3-.46 2.51-1.16 3.55-2.07.99-.87 1.85-1.89 2.6-3.06.74-1.16 1.42-2.35 2.04-3.58l-1.38-1.05c-.69.92-1.46 1.76-2.26 2.5a9 9 0 0 1-2.96 1.77c-1.16.45-2.52.66-4.37.66s-3.5-.45-4.99-1.34c-1.58-1-2.82-2.47-3.55-4.2a17.2 17.2 0 0 1-1.29-6.8h20.55c-.13-4.74-1.34-8.34-3.62-10.84-2.27-2.5-5.3-3.74-9.06-3.74-2.68 0-5.11.58-7.29 1.77a13 13 0 0 0-5.25 5.39c-1.31 2.41-1.97 5.45-1.97 9.13Zm8.3-10.69a5.6 5.6 0 0 1 5.22-2.89c1.44 0 2.62.41 3.52 1.24s1.57 1.95 2 3.35c.45 1.4.68 2.94.73 4.66h-13.07c.18-2.69.71-4.81 1.6-6.36m26.75-17.54c-1.44 0-2.7.31-3.77.95s-1.61 1.74-1.61 3.31c0 .87.28 1.69.85 2.43.57.75 1.42 1.12 2.56 1.12.69 0 1.28-.16 1.74-.46s.88-.6 1.28-.88.87-.43 1.44-.43c.75 0 1.44.37 2.1 1.12q.975 1.125 1.77 4.47c.53 2.02 1.07 3.77 1.65 5.28a10.74 10.74 0 0 0 3.21 4.3v.39c-.96.87-1.95 2-2.96 3.38a72 72 0 0 0-3.41 5.22q-1.905 3.15-4.59 7.68c-.6 1.01-1.18 1.77-1.7 2.3s-1.21.87-2.04 1.05c-.84.17-2.02.28-3.55.32v2.23h12.16l4.01-7.46c1.92-3.61 3.94-7.17 6.05-10.67.6-.96 1.2-1.62 1.77-1.97s1.44-.53 2.63-.53h2.17v11.76c0 1.88-.12 3.3-.36 4.27-.18.89-.82 1.61-1.68 1.9-.87.3-2.27.46-4.2.46v2.23h19.37v-2.23c-1.88 0-3.27-.18-4.17-.53a2.59 2.59 0 0 1-1.68-1.94c-.21-.94-.32-2.33-.32-4.17v-11.76h2.23c1.19 0 2.05.18 2.6.53.54.35 1.12 1.01 1.74 1.97 2.12 3.5 4.14 7.05 6.05 10.67 1.1 2.04 2.41 4.52 3.94 7.46h22.36q1.17-2.235 2.46-4.47l2.56-4.4 2.46-4.2c.44-.69.87-1.14 1.31-1.34.44-.19.99-.29 1.65-.29h1.77v8.01c0 1.31-.08 2.31-.26 2.99-.18.67-.56 1.12-1.15 1.31-.91.23-1.85.33-2.79.29v2.1h14.9v-2.1c-.93.04-1.86-.06-2.75-.29-.62-.19-1.01-.63-1.19-1.31-.17-.68-.26-1.68-.26-2.99v-8.01h1.84c.66 0 1.21.09 1.65.29.44.19.87.65 1.31 1.34.83 1.35 1.67 2.75 2.5 4.2l2.53 4.4c.85 1.49 1.68 2.98 2.46 4.47h10.31v-2.04c-.93-.02-1.87-.11-2.79-.27-.57-.09-1.1-.35-1.51-.75-.48-.52-.91-1.08-1.28-1.68a325 325 0 0 0-3.81-5.84c-.96-1.44-1.76-2.59-2.4-3.41s-1.31-1.57-2-2.23v-.2c.96-1.01 1.63-1.98 2-2.92s.72-2.12 1.02-3.52c.35-1.44.76-2.4 1.24-2.86s.99-.69 1.51-.69c.48 0 .9.12 1.24.36l1.15.75c.41.26.91.39 1.48.39 1.01 0 1.77-.29 2.3-.88.53-.58.78-1.31.78-2.19s-.24-1.59-.69-2.14c-.45-.54-1.04-.95-1.7-1.19-.71-.24-1.45-.36-2.19-.36-1.62 0-2.96.44-4.01 1.31a9.1 9.1 0 0 0-2.46 3.21q-.87 1.845-1.41 3.81c-.66 2.32-1.38 3.93-2.14 4.83-.77.9-1.94 1.34-3.52 1.34h-3.41v-7.22c0-1.18.09-2.09.29-2.75.17-.63.61-1.15 1.21-1.41a6.7 6.7 0 0 1 2.69-.43v-2.1h-14.84v2.1c1.18 0 2.07.15 2.69.43s1.01.75 1.19 1.41c.17.65.26 1.58.26 2.75v7.22h-3.35c-1.58 0-2.77-.45-3.55-1.34q-1.185-1.35-2.1-4.83-.45-1.905-1.38-3.81c-.93-1.905-1.43-2.34-2.46-3.21a6.03 6.03 0 0 0-4.04-1.31q-1.11 0-2.19.36c-.72.25-1.3.64-1.74 1.19s-.66 1.27-.66 2.14.26 1.6.78 2.19 1.29.88 2.3.88c.62 0 1.12-.13 1.51-.39s.77-.5 1.12-.75c.35-.24.76-.36 1.24-.36.53 0 1.03.24 1.51.69s.88 1.41 1.19 2.86c.35 1.4.72 2.58 1.09 3.52s1.02 1.91 1.94 2.92v.2c-.66.65-1.3 1.4-1.94 2.23s-1.42 1.97-2.36 3.41l-3.84 5.84c-.37.6-.79 1.16-1.28 1.68-.41.39-.92.65-1.48.75-.58.12-1.48.21-2.65.26v-.18c-1.18-.01-2.35-.12-3.52-.32-.77-.13-1.48-.5-2.04-1.05-.64-.71-1.23-1.48-1.74-2.3-1.79-3.07-3.34-5.64-4.62-7.75-1.07-1.76-2.2-3.49-3.38-5.18a18.9 18.9 0 0 0-2.96-3.35V387c1.41-1.14 2.52-2.62 3.21-4.3q.855-2.265 1.65-5.28c.53-2.24 1.12-3.72 1.8-4.47s1.37-1.12 2.07-1.12c.57 0 1.05.15 1.44.43s.82.58 1.28.88 1.03.46 1.74.46c1.19 0 2.04-.37 2.56-1.12.53-.74.78-1.56.78-2.43 0-1.58-.53-2.68-1.58-3.31s-2.3-.95-3.74-.95c-1.62 0-2.99.37-4.11 1.09a8.8 8.8 0 0 0-2.75 2.82c-.73 1.19-1.33 2.45-1.77 3.77-.44 1.3-.83 2.61-1.15 3.94-.79 3.06-1.65 5.3-2.56 6.7-.92 1.41-2.36 2.1-4.33 2.1h-5.06v-10.84c0-1.71.09-3.06.29-4.04.2-.99.73-1.68 1.58-2.07s2.28-.59 4.3-.59v-2.23h-19.37v2.23c2.02 0 3.46.2 4.33.59s1.41 1.09 1.61 2.07c.19.99.29 2.34.29 4.04v10.84h-5.06c-1.93 0-3.36-.71-4.3-2.1s-1.81-3.63-2.6-6.7a49 49 0 0 0-1.15-3.94c-.44-1.32-1.03-2.59-1.77-3.77-.7-1.13-1.64-2.1-2.75-2.82-1.12-.73-2.49-1.09-4.11-1.09Zm127.59 39.09c-1.56.52-3.19.77-4.83.75-4.65.05-9.07-1.97-12.08-5.51l-1.84 1.58a16.9 16.9 0 0 0 6.9 6.56c2.83 1.44 5.95 2.19 9.13 2.17l.03.03c1.88 0 3.74-.25 5.58-.73 1.79-.46 3.5-1.2 5.06-2.19 1.51-.97 2.77-2.29 3.67-3.84.96-1.72 1.43-3.67 1.38-5.64 0-1.88-.36-3.5-1.09-4.86-.69-1.32-1.66-2.48-2.86-3.38-1.19-.9-2.46-1.59-3.84-2.07s-2.73-.81-4.04-.99v-.27c1.01-.35 2.07-.78 3.21-1.31a18.3 18.3 0 0 0 3.28-2 9.09 9.09 0 0 0 3.62-7.52c0-2.15-.62-3.95-1.87-5.42s-2.92-2.55-5.03-3.28c-2.29-.76-4.68-1.12-7.09-1.09-2.89 0-5.18.31-6.86.95-1.23.43-2.42.95-3.58 1.55h-.13l-1.58-2.16h-1.97l-.13 14.38h2.36c.57-3.76 1.66-6.66 3.28-8.7s3.94-3.06 6.96-3.06c2.68 0 4.65.75 5.91 2.26 1.27 1.5 1.9 3.43 1.9 5.61s-.48 3.91-1.44 5.15a7.6 7.6 0 0 1-3.97 2.63c-1.69.5-3.67.75-5.95.75h-1.19v3.67h1.7c4.08 0 7.13.77 9.19 2.33a7.7 7.7 0 0 1 3.09 6.53c0 1.93-.45 3.46-1.34 4.62a7.4 7.4 0 0 1-3.55 2.5Zm30.39 1.2c-1.07.32-2.25.49-3.52.49-1.79 0-3.43-.31-4.89-.95-1.52-.68-2.9-1.65-4.04-2.86l-1.51 1.31c1.12 1.99 2.81 3.59 4.86 4.59 2.09 1.05 4.43 1.58 7.02 1.58h.03c1.4 0 2.86-.17 4.37-.5 1.51-.34 2.92-.84 4.23-1.55 1.27-.66 2.37-1.6 3.21-2.75.86-1.23 1.29-2.7 1.24-4.2 0-2.32-.81-4.13-2.43-5.42s-3.57-2.14-5.84-2.53v-.26c1.28-.44 2.45-.96 3.55-1.58a7.5 7.5 0 0 0 2.63-2.4c.69-1.09 1.03-2.35.99-3.64 0-2.5-1.01-4.4-3.02-5.71-2.02-1.31-4.75-1.97-8.21-1.97-2.36 0-4.17.24-5.39.69-1.23.46-2.06.83-2.5 1.09h-.13l-1.38-1.51h-1.65l-.13 10.57h2.04c.48-2.71 1.24-4.78 2.3-6.2 1.05-1.42 2.74-2.14 5.06-2.14 2.14 0 3.68.56 4.62 1.7a6.6 6.6 0 0 1 1.41 4.33c0 2.33-.68 3.85-2.04 4.57-1.35.73-3.33 1.09-5.91 1.09h-1.7v3.09h2.1c2.41 0 4.39.46 5.95 1.38s2.33 2.43 2.33 4.53q0 2.235-1.02 3.45c-.69.81-1.61 1.41-2.63 1.7Zm42.38-37.4c1.93 0 3.33.16 4.2.46s1.44.79 1.7 1.48c.26.68.41 1.55.46 2.6l-20.75 24.55h-.26v-22.39c0-1.71.09-3.06.29-4.04s.76-1.68 1.68-2.07 2.38-.59 4.4-.59v-2.23h-19.9v2.23c2.02 0 3.47.2 4.37.59s1.44 1.09 1.65 2.07c.19.99.29 2.34.29 4.04v25.35c0 1.93-.1 3.36-.32 4.3s-.78 1.57-1.68 1.87-2.33.46-4.3.46v2.23h19.83v-2.22c-1.8 0-3.15-.13-4.04-.39s-1.49-.74-1.77-1.44c-.33-.93-.5-1.9-.49-2.89l20.81-24.62h.2v22.72c0 1.93-.12 3.36-.36 4.3-.25.94-.82 1.57-1.71 1.87s-2.33.46-4.3.46v2.23h19.83v-2.23c-1.93 0-3.33-.18-4.2-.53a2.64 2.64 0 0 1-1.68-1.94q-.36-1.41-.36-4.17V375.4c0-1.71.09-3.06.29-4.04s.75-1.68 1.65-2.07 2.35-.59 4.37-.59v-2.23h-19.9v2.23Zm26.43 38.05c-.62.5-1.86.75-3.74.75v2.1h15.75l.02-.03v-2.1c-1.76 0-2.91-.25-3.48-.75s-.85-1.41-.85-2.72l14.77-15.75h.13v15.1c0 1.75-.27 2.88-.82 3.38s-1.7.75-3.45.75v2.1h15.56v-2.1c-1.76 0-2.94-.25-3.58-.75s-.95-1.63-.95-3.38v-18.13c0-1.35.11-2.36.36-3.02.24-.65.69-1.07 1.38-1.28.67-.19 1.63-.29 2.86-.29v-2.1h-15.63v2.1c1.79 0 2.97.21 3.48.63s.78 1.41.78 2.99L393 400.2h-.13v-15.29c0-1.27.08-2.19.26-2.79.16-.58.62-1.04 1.21-1.19.93-.23 1.89-.32 2.86-.29v-2.1h-15.69v2.1c1.35 0 2.36.09 3.02.29.65.2 1.07.59 1.28 1.19.19.59.29 1.48.29 2.66v18.59c0 1.75-.3 2.88-.92 3.38ZM32.29 447.76c.26-.37.39-.88.39-1.55 0-.92-.31-1.63-.95-2.16-.66-.53-1.48-.81-2.33-.78-1.1 0-2.16.44-2.96 1.21-.87.82-1.31 1.98-1.31 3.52 0 1.75.56 3.17 1.7 4.27 1.24 1.15 2.74 1.97 4.37 2.4 1.77.5 3.56.75 5.35.75h.02c1.79.01 3.57-.24 5.32-.74s3.2-1.3 4.37-2.4a5.73 5.73 0 0 0 1.74-4.33c0-1.58-.45-2.75-1.34-3.52a4.45 4.45 0 0 0-2.99-1.15c-.87 0-1.63.25-2.3.75q-.99.75-.99 2.19c0 .66.13 1.18.39 1.55s.53.72.78 1.02c.26.3.39.74.39 1.31 0 .31-.12.67-.36 1.09-.25.43-.75.78-1.51 1.09-.77.3-1.94.46-3.52.46s-2.77-.16-3.55-.46c-.79-.31-1.31-.67-1.55-1.09-.22-.35-.34-.74-.36-1.15 0-.53.13-.94.39-1.24q.42-.495.78-1.02Zm23.14 15.83c.2-.99.74-1.69 1.61-2.1s2.3-.63 4.27-.63v-2.5H40.43v2.5c1.75 0 3.07.16 3.94.46s1.47.78 1.77 1.44.48 1.51.53 2.56L26.58 488.5h-.2v-20.88c0-1.71.09-3.06.29-4.04s.75-1.69 1.65-2.1 2.33-.63 4.3-.63v-2.5H11.73v2.5c1.97 0 3.39.21 4.27.63.88.41 1.42 1.11 1.65 2.07.21.96.32 2.33.32 4.08v24.76q0 2.82-.36 4.23c-.19.88-.83 1.6-1.68 1.9-.87.32-2.27.49-4.2.49v2.5h20.69v-2.49c-1.76 0-3.07-.15-3.94-.43-.79-.21-1.43-.8-1.7-1.58-.3-1.03-.43-2.11-.39-3.18l20.03-23.24h.32v21.8q0 2.82-.36 4.23c-.19.88-.83 1.6-1.68 1.9-.87.32-2.3.49-4.27.49v2.5h20.75v-2.5c-1.89 0-3.26-.18-4.11-.53a2.57 2.57 0 0 1-1.61-1.94c-.21-.94-.32-2.33-.32-4.17v-24.76c0-1.71.09-3.06.29-4.04Zm42.34 10.77c.24-.65.69-1.07 1.38-1.28.94-.22 1.89-.32 2.86-.29v-2.36H85.14v2.36c1.79 0 2.96.21 3.48.63s.78 1.41.78 2.99l-14.19 15.17h-.13v-14.51c0-1.27.08-2.19.26-2.79.16-.58.62-1.03 1.21-1.18.93-.23 1.89-.32 2.86-.29v-2.36H62.4v2.36c1.35 0 2.37.09 3.06.29.67.19 1.12.58 1.34 1.18.21.59.32 1.48.32 2.66V495c0 1.75-.31 2.88-.95 3.38s-1.91.75-3.84.75v2.36H79.4l.02-.03v-2.36c-1.76 0-2.91-.25-3.48-.75s-.85-1.41-.85-2.72l14.19-14.97h.13v14.31c0 1.75-.27 2.88-.82 3.38q-.825.75-3.45.75v2.36h16.81v-2.36c-1.76 0-2.94-.25-3.58-.75s-.95-1.63-.95-3.38v-17.59c0-1.35.12-2.36.36-3.02Zm-19.74-14.84c.26-.41.39-.91.39-1.48 0-.95-.3-1.69-.92-2.19s-1.38-.75-2.3-.75c-1.15-.01-2.27.41-3.12 1.18-.9.78-1.34 1.93-1.34 3.41 0 1.7.57 3.08 1.74 4.13 1.25 1.1 2.75 1.87 4.37 2.26 1.75.46 3.55.69 5.39.69h.02c1.79 0 3.57-.24 5.32-.69 1.62-.39 3.12-1.17 4.37-2.26a5.35 5.35 0 0 0 1.74-4.13c0-1.58-.46-2.73-1.38-3.48s-1.93-1.12-3.02-1.12c-.84-.02-1.67.22-2.36.69-.66.46-.99 1.21-.99 2.26 0 .62.13 1.12.39 1.51s.53.74.78 1.02q.39.435.39 1.02 0 .39-.36.99c-.25.39-.74.75-1.48 1.05-.75.3-1.88.46-3.41.46s-2.7-.16-3.48-.46c-.79-.3-1.31-.66-1.55-1.05-.2-.29-.32-.63-.36-.99 0-.35.12-.68.39-.99.26-.31.53-.67.78-1.09Zm30.67 36.99c-.2.96-.68 1.62-1.44 1.97-.77.35-2.09.53-3.97.53v2.5h20.09v-2.5c-1.8 0-3.12-.16-3.97-.46a2.51 2.51 0 0 1-1.65-1.9c-.24-.96-.36-2.38-.36-4.27v-11.49h2.56c1.05 0 1.83.18 2.33.53s1.04 1.01 1.61 1.97c1.1 1.67 2.14 3.38 3.12 5.12l3.12 5.55c1.14 2.04 2.47 4.52 4.01 7.46h13.66v-2.5c-1.18 0-2.36-.13-3.52-.36-.79-.16-1.52-.54-2.1-1.09-.68-.7-1.29-1.47-1.8-2.3-1.97-3.16-3.61-5.74-4.89-7.78a71 71 0 0 0-3.41-4.99c-.87-1.17-1.88-2.24-2.99-3.18v-.46c1.35-1.16 2.41-2.6 3.12-4.23.67-1.72 1.21-3.48 1.61-5.28.48-2.09 1.06-3.48 1.77-4.17.71-.68 1.4-1.02 2.1-1.02.57 0 1.04.15 1.41.43s.79.58 1.28.88c.48.3 1.09.46 1.84.46 1.27 0 2.19-.4 2.79-1.19.59-.79.88-1.62.88-2.5 0-1.71-.57-2.89-1.74-3.55a8.04 8.04 0 0 0-4.04-.99c-1.66 0-3.07.37-4.23 1.09a9.15 9.15 0 0 0-2.89 2.82c-.77 1.18-1.4 2.44-1.87 3.77-.47 1.29-.87 2.61-1.19 3.94-.53 2.02-1.06 3.65-1.61 4.89a6.03 6.03 0 0 1-2.14 2.72c-.88.57-2.06.85-3.55.85h-5.25v-10.24c0-1.71.09-3.06.29-4.04s.72-1.68 1.55-2.07c.84-.39 2.19-.59 4.08-.59v-2.5h-20.09v2.5c1.88 0 3.24.2 4.04.59s1.3 1.07 1.48 2.04c.17.96.26 2.33.26 4.08v24.82c0 1.79-.09 3.17-.29 4.13Zm76.67 2.69c-1.14-.03-2.02-.13-2.63-.29-.56-.12-1.09-.39-1.51-.78-.39-.37-.85-.91-1.38-1.61-1.18-1.89-2.4-3.75-3.67-5.58-.78-1.11-1.59-2.21-2.43-3.28-.66-.83-1.37-1.57-2.1-2.23v-.26c.91-.81 1.6-1.82 2.04-2.96.35-1 .68-2.23.99-3.67.35-1.44.75-2.34 1.21-2.69s.95-.53 1.48-.53c.48 0 .9.12 1.24.36l1.15.75c.41.26.93.39 1.55.39 1.1 0 1.93-.31 2.5-.95.57-.63.85-1.37.85-2.33s-.26-1.7-.78-2.23c-.52-.52-1.16-.9-1.87-1.09-.72-.19-1.45-.29-2.19-.29-1.7 0-3.11.44-4.23 1.31a9.3 9.3 0 0 0-2.63 3.25c-.61 1.21-1.1 2.47-1.48 3.77-.57 2.27-1.24 3.83-2 4.66-.77.83-1.89 1.24-3.38 1.24h-3.87v-6.7q0-1.83.24-2.82c.24-.99.53-1.13 1.12-1.41s1.57-.43 2.92-.43v-2.36h-16.55v2.36c1.4 0 2.4.15 2.99.43s.96.75 1.12 1.41c.16.65.24 1.6.24 2.82v17.01c0 1.37-.08 2.37-.26 3.06-.18.67-.57 1.11-1.19 1.31-.62.19-1.6.29-2.96.29v2.36h16.62-.01v-2.37c-.97.05-1.95-.06-2.89-.32-.62-.21-1-.66-1.15-1.34s-.24-1.68-.24-2.99v-7.61h1.51c.62 0 1.14.11 1.58.32s.85.65 1.24 1.31c.87 1.32 1.71 2.64 2.5 3.97s1.59 2.73 2.4 4.2a224 224 0 0 1 2.6 4.83h11.35v-2.3Zm18.84-19.69q-.6 3.555-1.44 7.05c-.52 2.17-1.09 3.95-1.7 5.35s-1.28 2.36-1.97 2.89c-.71.53-1.39.78-2.04.78s-1.27-.17-1.84-.49c-.56-.32-1.13-.65-1.7-.95-.61-.31-1.29-.47-1.97-.46-1.18 0-2.08.4-2.72 1.19s-.95 1.68-.95 2.69c0 1.44.56 2.6 1.7 3.45 1.35.92 2.96 1.36 4.59 1.28l-.04.02c2.19 0 4.3-.77 5.98-2.17 1.79-1.44 3.26-3.57 4.4-6.37.83-2.1 1.51-4.25 2.04-6.44.65-2.63 1.19-5.29 1.61-7.97.46-2.87.85-5.8 1.15-8.8.31-3 .5-5.92.59-8.77h10.38v31.59c0 1.61-.18 2.83-.53 3.64-.35.82-.97 1.35-1.87 1.61s-2.23.39-3.97.39v2.5h21.14v-2.5c-1.39.05-2.78-.09-4.13-.43-.84-.21-1.51-.83-1.8-1.65-.28-.82-.43-2-.43-3.58v-27.25c0-2.23.45-3.66 1.34-4.3s2.58-.95 5.03-.95v-2.5h-35.97v2.5c2.32 0 3.97.21 4.96.63.99.41 1.48 1.59 1.48 3.52-.06 4.86-.5 9.72-1.31 14.51Zm47.21 4.58q-.42 2.43-1.02 4.83c-.39 1.57-.83 2.98-1.31 4.2-.44 1.01-.93 1.75-1.48 2.23s-1.11.72-1.68.72c-.71 0-1.38-.22-2.04-.66-.79-.48-1.7-.71-2.62-.66-.75 0-1.43.26-2.07.78s-.95 1.35-.95 2.5c0 1.31.46 2.33 1.38 3.02.92.71 2.21 1.05 3.87 1.05s3.18-.48 4.4-1.47c1.23-.99 2.28-2.31 3.16-3.97 1.05-1.97 1.89-4.24 2.53-6.83s1.14-5.3 1.51-8.14.62-5.61.75-8.27h6.83v22.39c0 1.35-.29 2.25-.88 2.69-.58.44-1.83.66-3.71.66v2.36h17.13v-2.36c-1.88 0-3.1-.24-3.67-.69s-.85-1.37-.85-2.72v-19.56c0-1.4.31-2.31.95-2.72.63-.41 1.85-.63 3.64-.63v-2.36H247v2.36c2.05 0 3.45.17 4.2.49s1.12 1.32 1.12 2.99c0 .78-.08 1.86-.24 3.25q-.27 2.28-.66 4.53Zm78.95-20.93c.3-.87.87-1.48 1.7-1.8 1.12-.37 2.3-.54 3.48-.49v-2.5h-15.43l-12.86 31.38h-.39l-12.93-31.38h-16.55v2.5c1.66 0 2.92.17 3.77.49s1.43.93 1.74 1.8.46 2.14.46 3.81v24.69c0 2.24-.16 3.87-.46 4.93s-.88 1.72-1.74 2c-1.27.33-2.59.48-3.91.43v2.5h16.22v-2.5c-1.66 0-2.91-.15-3.74-.43-.84-.28-1.4-.95-1.68-2s-.43-2.7-.43-4.93v-25.08h.32l14.84 34.93h3.87l14.58-34.93h.39v26.92c0 1.49-.13 2.63-.39 3.41s-.87 1.39-1.65 1.65c-.83.3-2.09.46-3.81.46v2.5h19.83v-2.5c-1.18.04-2.36-.11-3.48-.46-.79-.27-1.42-.87-1.74-1.65-.38-1.1-.54-2.26-.49-3.41v-26.59c0-1.61.16-2.87.46-3.74Zm31.73 27.85h-.32l-9.26-20.55h-13.59v2.36c1.35 0 2.37.09 3.06.29.67.19 1.12.58 1.34 1.18.21.58.32 1.5.32 2.72v16.87c0 1.58-.1 2.74-.32 3.48a1.99 1.99 0 0 1-1.38 1.44c-.71.21-1.76.32-3.16.32v2.36h13.01v-2.35c-1.28 0-2.24-.1-2.92-.32s-1.14-.69-1.38-1.44-.36-1.9-.36-3.48V478h.32l10.77 23.5h2.82l10.11-23.96h.32v17.53c0 1.1-.08 1.94-.24 2.53-.16.58-.53.99-1.12 1.21-.59.21-1.59.32-2.99.32v2.36h16.94v-2.36c-2.02 0-3.29-.27-3.84-.82-.55-.54-.82-1.62-.82-3.25v-17.99c0-1.84.31-3.01.95-3.52.63-.49 1.87-.75 3.71-.75v-2.36h-13.26l-8.73 20.55Zm-328.57 99.6c-1.8 0-3.11-.16-3.97-.46s-1.4-.93-1.61-1.87-.32-2.37-.32-4.3v-10.57h19.05v10.57c0 1.88-.1 3.3-.32 4.27s-.77 1.6-1.65 1.9-2.27.46-4.2.46v2.82h40.24v-2.63c-1.03.05-2.06-.06-3.06-.32-.64-.21-1.03-.66-1.19-1.34s-.24-1.7-.24-3.06v-7.09H89v7.09c0 1.37-.07 2.37-.2 3.06-.13.67-.5 1.12-1.12 1.34-.62.21-1.65.32-3.09.32v2.63h18.52v-2.63c-1.05.04-2.1-.06-3.12-.32-.67-.21-1.11-.66-1.31-1.34-.19-.68-.29-1.7-.29-3.06V569.8c0-1.27.07-2.24.2-2.92.12-.68.53-1.16 1.21-1.44.67-.28 1.78-.43 3.31-.43v-2.62H84.59v2.62c1.44 0 2.47.15 3.09.43s.99.76 1.12 1.44.2 1.66.2 2.92v6.03H76.26v-6.03c0-1.27.08-2.24.24-2.92s.55-1.16 1.19-1.44 1.66-.43 3.06-.43v-2.62H62.16v2.62q2.235 0 3.21.36c.975.36 1.06.69 1.24 1.38.17.68.26 1.7.26 3.06v16.48c.04.99-.07 1.97-.32 2.92-.21.63-.65 1.05-1.31 1.28-.83.22-1.68.32-2.54.31v-.18c-1.88 0-3.26-.16-4.13-.46s-1.44-.94-1.7-1.9-.39-2.38-.39-4.27V559.9c0-1.76.1-3.11.32-4.08s.77-1.66 1.65-2.07 2.3-.63 4.27-.63v-2.82H40.53v2.82c1.93 0 3.31.21 4.17.63.86.43 1.4 1.11 1.65 2.07.24.96.36 2.33.36 4.08v9.91H27.66v-9.91c0-1.76.1-3.11.32-4.08s.76-1.66 1.61-2.07 2.26-.63 4.23-.63v-2.82H11.75v2.82q2.955 0 4.23.63c.85.43 1.38 1.12 1.58 2.1.19.99.29 2.33.29 4.04v24.09c0 1.93-.12 3.36-.36 4.3-.25.94-.78 1.57-1.65 1.87s-2.23.46-4.11.46v2.82h21.8zm82.43 1.11c3.22 1.76 7.13 2.63 11.72 2.63s8.51-.93 11.72-2.79c3.21-1.84 5.77-4.63 7.36-7.97 1.69-3.45 2.53-7.78 2.53-12.34s-.85-8.45-2.53-11.69c-1.63-3.18-4.2-5.79-7.36-7.46-3.22-1.74-7.21-2.6-11.72-2.6s-8.39.91-11.62 2.72c-3.2 1.76-5.78 4.45-7.42 7.71-1.71 3.33-2.56 7.1-2.56 11.88s.84 8.85 2.53 12.22 4.14 5.93 7.36 7.68Zm3.35-34.14c1.99-3.19 4.71-4.79 8.17-4.79 2.36 0 4.41.72 6.14 2.14 1.74 1.42 3.07 3.52 4.01 6.27 1.02 3.32 1.5 6.78 1.41 10.24 0 6.74-.93 11.68-2.79 14.8s-4.69 4.69-8.5 4.69h-.01c-3.85 0-6.72-1.71-8.6-5.13s-2.82-8.34-2.82-14.38 1-10.66 2.99-13.85ZM183 586.37c1.22-2.55 1.84-5.7 1.84-9.42 0-4.74-1.3-8.48-3.91-11.23-2.61-2.77-6.54-4.14-11.79-4.14-3.67 0-6.71.71-9.09 2.1s-4.15 3.31-5.28 5.74-1.7 5.17-1.7 8.24c0 5.69 1.37 9.84 4.08 12.47s6.65 3.94 11.81 3.94c3.46 0 6.36-.65 8.7-1.94 2.36-1.3 4.23-3.33 5.35-5.78Zm-8.68-1.42c-.2 1.61-.81 3.13-1.77 4.43-.85.99-2.11 1.54-3.41 1.48-2.14-.01-3.69-1.15-4.66-3.43s-1.44-5.76-1.44-10.44c0-3.76.4-6.75 1.21-8.96s2.18-3.31 4.37-3.31 3.77 1.09 4.76 3.28c.99 2.18 1.48 5.34 1.48 9.45 0 3.02-.18 5.52-.53 7.49Zm43.64 3.62c-.3.92-.9 1.49-1.77 1.71-.87.21-2.15.32-3.81.32v2.82h22.26v-2.82c-1.84 0-3.21-.13-4.13-.39s-1.53-.84-1.84-1.74c-.3-.9-.46-2.33-.46-4.3v-24.69c0-1.71.13-3.01.39-3.91s.84-1.52 1.74-1.87 2.33-.53 4.3-.53v-2.89h-49.11v2.89c1.85 0 3.21.17 4.11.49s1.5.93 1.8 1.8c.3.88.46 2.19.46 3.94v25.01c0 1.84-.15 3.19-.43 4.06-.25.85-.94 1.5-1.8 1.71-.92.26-2.3.39-4.13.39v2.82h22.26-.02v-2.83c-1.8 0-3.14-.15-4.01-.43-.84-.24-1.49-.92-1.7-1.77q-.39-1.35-.39-4.11v-30.2h16.74v30.07c0 2.02-.16 3.48-.46 4.4ZM235.04 565q2.235 0 3.21.36c.975.36 1.06.69 1.24 1.38.17.68.26 1.7.26 3.06v16.48c.04.99-.07 1.97-.32 2.92-.21.63-.65 1.05-1.31 1.28-.66.21-1.69.32-3.09.32v2.63h18.61v-2.63c-1.03.05-2.06-.06-3.06-.32-.64-.21-1.03-.66-1.19-1.34s-.24-1.7-.24-3.06V565.6h12.74v20.48c0 1.37-.08 2.37-.24 3.06-.16.67-.54 1.12-1.15 1.34-.62.21-1.62.32-3.02.32v2.63H276v-2.63c-1.05.04-2.1-.06-3.12-.32-.67-.21-1.11-.66-1.31-1.34-.19-.68-.29-1.7-.29-3.06V569.8c0-1.27.07-2.24.2-2.92.12-.68.53-1.16 1.21-1.44.67-.28 1.78-.43 3.31-.43v-2.62h-40.97v2.62Zm48.69 23.38c-.19.85-.81 1.54-1.65 1.8-.86.28-2.23.43-4.11.43v2.82h23.27v-2.81c-2.24 0-3.87-.15-4.93-.43s-1.72-.86-2-1.74-.43-2.19-.43-3.94v-9.72c.74.18 1.56.35 2.43.53.87.17 1.71.26 2.5.26 2.32 0 4.53-.22 6.66-.66 2-.39 3.92-1.14 5.64-2.23 1.65-1.05 2.94-2.46 3.91-4.23s1.44-3.96 1.44-6.59q0-3.615-1.41-5.88a9.65 9.65 0 0 0-3.84-3.52c-1.74-.87-3.62-1.45-5.55-1.71-2.14-.31-4.31-.46-6.47-.46h-21.21v2.82c2.32 0 3.92.32 4.79.99.87.65 1.31 2.06 1.31 4.2v26q0 2.7-.36 4.08Zm10.13-34.67c1.07-.15 2.15-.22 3.22-.2 3.37 0 5.76.72 7.15 2.14s2.1 3.64 2.1 6.66c0 2.59-.32 4.57-.99 5.95a5.17 5.17 0 0 1-2.99 2.79c-1.34.48-3.01.72-5.03.72-.96.01-1.67-.03-2.1-.12s-.9-.16-1.38-.2v-17.72Zm58.46 22.6c0-3.46-.44-6.28-1.31-8.44s-2.1-3.76-3.71-4.79-3.4-1.55-5.55-1.55-4 .49-5.55 1.48-3.18 2.34-4.89 4.04h-.32v-5.39h-3.74l-10.11 1.84v2.75c.96-.09 1.67-.13 2.1-.13q1.65 0 2.07.75c.42.75.43 1.41.43 2.72v30.92c0 1.84-.28 3.08-.85 3.74s-1.88.99-3.94.99v2.63h20.53v-2.68c-1.71 0-3.02-.13-3.94-.39s-1.56-.77-1.9-1.51-.53-1.81-.53-3.21v-7.61h.2c1.01.65 2.04 1.11 3.09 1.34s2.19.36 3.41.36c2.68 0 5.09-.72 7.29-2.14 2.28-1.53 4.09-3.65 5.25-6.14 1.38-3 2.06-6.28 1.97-9.58m-11.92 11.44c-1.11 1.81-2.53 2.72-4.23 2.72h.01c-.87 0-1.62-.17-2.26-.52s-1.19-.78-1.65-1.31-.85-1.01-1.15-1.44v-16.28c.71-.71 1.56-1.42 2.56-2.14 1.01-.73 2.17-1.09 3.48-1.09 1.61 0 2.84.79 3.67 2.4.83 1.59 1.24 4.28 1.24 8.04 0 4.59-.57 7.8-1.68 9.62ZM337.49 607.87h-.01zm40.62-54.83c3.37 0 6.1 1.07 8.21 3.21q3.15 3.225 4.47 9.39h3.15v-16.16h-2.82c-.13.48-.34.96-.59 1.44-.27.49-.77.73-1.51.73-.66 0-1.38-.19-2.14-.56-1.01-.46-2.07-.82-3.15-1.09-1.34-.35-3.17-.53-5.49-.53-4.38 0-8.24.85-11.59 2.56a18.4 18.4 0 0 0-7.85 7.65c-1.88 3.39-2.82 7.61-2.82 12.64 0 4.25.73 8.02 2.19 11.3s3.73 5.87 6.8 7.75 6.99 2.82 11.76 2.82h.01c3.5-.01 6.4-.5 8.7-1.49s4.24-2.32 5.84-4.01c1.66-1.75 3.19-3.63 4.57-5.61l-2.1-1.84q-2.82 3.15-5.88 4.86c-3.06 1.71-4.68 1.71-7.92 1.71-3.07 0-5.61-.57-7.65-1.74a10.47 10.47 0 0 1-4.53-5.55c-.99-2.53-1.48-5.84-1.48-9.91 0-5.73.97-10.1 2.92-13.1s4.92-4.5 8.9-4.5Zm35.55 11.65c1.18 0 2.06.28 2.65.85s1.04 1.27 1.34 2.07l.92 2.46c.3.84.75 1.53 1.34 2.1.58.57 1.46.85 2.72.85s2.37-.36 3.31-1.05 1.41-1.77 1.41-3.21c0-2.05-1.05-3.77-3.18-5.15s-5.06-2.07-8.83-2.07-6.89.73-9.36 2.19c-2.42 1.4-4.34 3.5-5.52 6.03-1.2 2.56-1.8 5.42-1.8 8.83s.59 6.27 1.8 8.57c1.13 2.22 2.92 4.05 5.12 5.22 2.22 1.18 4.92 1.77 7.85 1.77s5.31-.49 7.12-1.48 3.3-2.3 4.47-3.94c1.19-1.68 2.21-3.47 3.06-5.35l-1.68-1.04a13.9 13.9 0 0 1-3.97 3.58c-1.69.87-3.58 1.28-5.49 1.21-3.49 0-5.86-1.01-7.05-3.02-1.2-2.02-1.8-4.9-1.8-8.67 0-3.49.43-6.17 1.28-8.01s2.28-2.75 4.3-2.75Zm12.72 17.64h.02zM37.33 644.76h3.75q3.675 0 5.25.72c1.04.48 1.77 1.46 1.94 2.6q.36 1.875.36 5.49h2.04l1.97-11.35H17.38l-2.69 11.35h2.1c.74-1.79 1.39-3.26 1.94-4.4s1.16-2.03 1.87-2.66a5.95 5.95 0 0 1 2.69-1.34c1.1-.26 2.56-.39 4.4-.39h3.73l-6.48 31.98c-.25 1.51-.69 2.97-1.31 4.37-.49.94-1.21 1.56-2.17 1.84s-2.36.43-4.2.43l-.39 1.97h18.72l.39-1.97c-1.85 0-3.2-.15-4.08-.43-.83-.23-1.43-.97-1.48-1.84-.11-.94.03-2.4.43-4.37l6.48-31.98Zm55.89 22.06-3.35 12.74-.2 1.02c-.09.5-.13 1.02-.13 1.55 0 .96.3 1.86.92 2.66.62.81 1.75 1.21 3.41 1.21v-.02c1.19 0 2.24-.24 3.16-.72s1.75-1.11 2.46-1.87 1.35-1.55 1.9-2.33l1.48-2.1-1.31-.99c-.65.74-1.31 1.47-2 2.17-.76.81-1.82 1.26-2.92 1.24-.83 0-1.24-.41-1.24-1.24 0-.39.07-.92.2-1.58l3.62-15.16.39-2.17c.17-.96.26-1.86.26-2.69 0-1.18-.28-2.25-.85-3.21q-.84-1.44-3.21-1.44c-1.76 0-3.4.52-4.96 1.55s-2.98 2.33-4.27 3.91a44 44 0 0 0-3.45 4.86c-.82 1.35-1.61 2.73-2.35 4.13h-.36l1.24-4.93c.04-.17.15-.78.32-1.84.17-1.05.26-2.06.26-3.02.02-1.12-.27-2.23-.82-3.21-.55-.96-1.62-1.44-3.25-1.44-1.88 0-3.65.55-5.32 1.65a20 20 0 0 0-4.5 4.06c-1.3 1.57-2.48 3.24-3.52 4.99-.73 1.23-1.44 2.49-2.12 3.75h-.5l3.21-14.25h-1.51l-8.99.73v1.77c.96-.09 1.67-.13 2.1-.13.79 0 1.34.16 1.65.46.3.3.46.74.46 1.31 0 .48-.07 1.21-.2 2.17l-5.25 24.95h5.39l2.07-9.07c1.67-3.88 3.71-7.59 6.08-11.08 1.15-1.71 2.48-3.3 3.97-4.72 1.32-1.22 2.52-1.84 3.62-1.84.75 0 1.25.25 1.51.75s.39 1.13.39 1.87c0 .52-.1 1.42-.32 2.69q-1.14 5.43-2.49 10.8c-.88 3.55-1.79 7.08-2.75 10.6h5.45l1.77-8.27.1-.3-.08.3c.39-1.14.99-2.49 1.77-4.04 1.71-3.37 3.73-6.56 6.03-9.55 1.14-1.44 2.24-2.62 3.31-3.52s2.03-1.34 2.86-1.34c.75 0 1.25.25 1.51.75s.39 1.13.39 1.87-.12 1.59-.36 2.66l-.69 2.92Zm25.55 17.8c1.83-1.3 3.44-2.9 4.76-4.72 1.51-2.02 3.15-4.33 4.89-6.96l12.47-18.52c1.31-1.96 2.69-3.88 4.13-5.74.97-1.31 2.15-2.45 3.48-3.38 1.14-.75 2.45-1.12 3.94-1.12l.26-1.97h-14.38l-.26 1.97c1.22 0 2.13.15 2.72.46s.88.86.88 1.65-.28 1.71-.85 2.79-1.28 2.25-2.1 3.52l-10.84 16.21h-.43l-2.14-7.18-2.89-8.92q-.66-2.1-1.02-3.45c-.21-.71-.33-1.45-.36-2.19 0-1.09.39-1.85 1.15-2.26s2.05-.63 3.84-.63l.32-1.97h-16.48l-.26 1.97c1.4 0 2.45.19 3.18.56q1.095.57 1.65 1.68c.555 1.11.74 1.68 1.09 2.82l8.1 25.66c-.9 1.32-1.91 2.57-3.01 3.73a5.85 5.85 0 0 1-4.3 1.94c-.92 0-1.68-.17-2.26-.49l-1.7-.95c-.64-.33-1.35-.48-2.07-.46a3.25 3.25 0 0 0-3.28 3.21v.21c.01 1.18.57 2.28 1.51 2.99 1.01.85 2.5 1.28 4.47 1.28 2.18.01 4.11-.56 5.78-1.7Zm35.74 8.23c2.61-3.48 5.15-7.02 7.61-10.6l2.92-4.27c1.14-1.66 2.27-3.4 3.41-5.22a87 87 0 0 0 2.96-5.03c1.01-1.88 1.74-3.52 2.17-4.89s.66-2.65.66-3.84c0-1.85-.41-3.19-1.24-4.04a3.99 3.99 0 0 0-2.96-1.28c-.92 0-1.62.26-2.1.76-.49.5-.75 1.17-.73 1.87 0 .83.27 1.57.82 2.23l1.61 1.9c.53.62.78 1.34.78 2.17 0 .52-.17 1.23-.49 2.13-.34.9-.9 1.98-1.68 3.25l-7.55 12.15h-.37l-.57-6.55-1.44-9.58c-.27-1.75-.52-3.2-.73-4.37s-.48-2.16-.78-2.99c-.31-.84-.71-1.67-1.19-2.5h-.99l-8.8.72v1.9c.59-.08 1.18-.13 1.77-.13 1.31 0 2.27.28 2.89.85.6.56 1.03 1.32 1.28 2.26s.45 1.96.63 3.06l3.76 23.04-1.39 2c-.82 1.15-1.7 2.37-2.66 3.64s-1.86 2.34-2.69 3.21-1.44 1.31-1.84 1.31c-.26 0-.54-.18-.82-.53s-.6-.76-.95-1.24-.76-.9-1.24-1.24a2.8 2.8 0 0 0-1.7-.53c-.69 0-1.3.25-1.8.73-.49.48-.75 1.23-.75 2.1s.25 1.65.73 2.33 1.12 1.21 1.9 1.58c.79.37 1.62.56 2.5.56h-.03a6.87 6.87 0 0 0 4.37-1.75 30 30 0 0 0 4.72-5.18Zm52.73-7.13.39-1.97c-2.09 0-3.53-.24-4.27-.69-.75-.46-1.12-1.21-1.12-2.26 0-.35.03-.74.1-1.18l.1-.6c4.31-.2 8.1-1 11.34-2.43 3.17-1.31 5.93-3.44 8.01-6.17 1.89-2.56 2.89-5.66 2.86-8.83 0-3.76-1.35-6.92-4.04-9.48-2.55-2.43-6.45-3.87-11.66-4.36.2-.83.41-1.53.66-2.07.39-.87 1.06-1.49 2-1.84 1.35-.41 2.76-.58 4.17-.53l.39-1.97H198.9l-.32 1.97c2.02 0 3.37.2 4.08.59s1.05 1.07 1.05 2.04c0 .31-.03.66-.1 1.05l-.11.64c-4.39.16-8.18.93-11.39 2.33-3.39 1.49-6 3.49-7.82 6.03s-2.72 5.43-2.72 8.67c0 2.41.56 4.64 1.7 6.7 1.26 2.17 3.12 3.93 5.35 5.08 2.63 1.34 5.51 2.14 8.45 2.37-.19.98-.5 1.94-.93 2.84-.44.84-1.09 1.4-1.94 1.68s-2.14.43-3.84.43l-.32 1.97h17.2-.01Zm11.29-24.21c0 2.8-.63 5.32-1.87 7.55-1.25 2.24-3.09 4.03-5.52 5.39a19.4 19.4 0 0 1-8.23 2.17l5.55-26.52c3.03.52 5.45 1.66 7.21 3.46 1.9 1.95 2.86 4.6 2.86 7.97Zm-28.42 11.13c-1.62-2.13-2.43-4.8-2.43-7.78s.69-5.56 2.07-7.75a14.25 14.25 0 0 1 5.71-5.15 19.9 19.9 0 0 1 7.59-2.07l-5.45 26.47c-3.48-.52-5.99-1.75-7.49-3.72m55.69 19.32 1.97-9.52h.2c.91 2.26 3.14 3.7 5.58 3.61 1.93 0 3.76-.57 5.49-1.74 1.83-1.26 3.4-2.87 4.62-4.72 1.4-2.09 2.48-4.36 3.21-6.76.8-2.54 1.2-5.19 1.19-7.85 0-3.24-.69-5.89-2.07-7.97-1.22-2-3.41-3.19-5.74-3.12-1.22.02-2.43.28-3.55.76a8.84 8.84 0 0 0-3.55 3.06h-.26l3.94-18.64h-1.12l-9.52.99v1.65c.7-.08 1.4-.12 2.1-.13 1.62 0 2.43.64 2.43 1.9-.02.62-.09 1.23-.2 1.84l-2.56 12.35h-.2a5.3 5.3 0 0 0-2.23-2.92 6.76 6.76 0 0 0-3.35-.82c-1.88 0-3.71.57-5.45 1.74a17.3 17.3 0 0 0-4.66 4.69 26 26 0 0 0-4.4 14.58c0 3.19.73 5.84 2.19 7.97 1.25 2 3.45 3.21 5.81 3.18 1.14 0 2.28-.25 3.45-.75 1.39-.7 2.58-1.76 3.45-3.06h.2l-3.67 17.53h12.61v-.02l.45-1.77c-2.62 0-4.39-.37-5.28-1.09-.9-.72-1.34-1.46-1.34-2.19 0-.92.09-1.85.27-2.75Zm3.35-16.23 1.7-8.46c.39-1.93 1.01-3.69 1.84-5.32s1.78-2.91 2.86-3.87c1.07-.96 2.22-1.44 3.31-1.44s1.91.4 2.46 1.19.91 1.71 1.09 2.79c.17 1.07.26 2.03.26 2.86 0 2.54-.27 4.99-.82 7.36s-1.29 4.49-2.23 6.37-1.99 3.36-3.18 4.43-2.4 1.61-3.62 1.61c-.53-.01-1.1-.15-1.74-.4s-1.18-.74-1.61-1.44c-.5-.93-.73-1.97-.66-3.02 0-.79.1-1.67.32-2.63h.01Zm-4.28-3.06c-.39 1.93-.99 3.69-1.77 5.32-.78 1.62-1.7 2.91-2.75 3.87s-2.14 1.44-3.28 1.44h-.01c-1.1 0-1.94-.41-2.53-1.24a7.1 7.1 0 0 1-1.19-2.89c-.18-.95-.28-1.92-.29-2.89 0-2.59.28-5.05.85-7.39.56-2.34 1.32-4.42 2.26-6.24s1.99-3.26 3.18-4.33 2.36-1.61 3.55-1.61c.56 0 1.15.12 1.77.39.62.26 1.14.73 1.58 1.41s.66 1.7.66 3.06c0 .79-.1 1.67-.32 2.63l-1.7 8.46Zm36.89 12.67.39-1.9c-1.61 0-2.68-.15-3.18-.43s-.75-.71-.75-1.28c0-.35.19-.78.56-1.31s.79-1.07 1.28-1.65.9-1.03 1.24-1.38l10.31-11.16h.2l1.19 3.4 2.89 6.37c.53 1.23.9 2.25 1.12 3.06.21.82.32 1.5.32 2.07 0 .92-.36 1.53-1.09 1.84s-1.77.46-3.12.46h-.66l-.39 1.9h17.67l.39-1.91c-1.62-.04-2.82-.31-3.58-.82s-1.52-1.55-2.26-3.12l-8.46-17.68 11.48-11.79h-.01c1.22-1.29 2.52-2.5 3.87-3.64.87-.74 1.87-1.31 2.96-1.68 1.15-.33 2.35-.51 3.55-.53l.32-1.97h-15.04l-.32 1.97c1.49 0 2.45.12 2.89.36.44.25.66.6.66 1.09q0 .66-.78 1.74c-.78 1.08-1.16 1.52-1.9 2.4l-8.8 9.72h-.17l-2.38-6.18c-.56-1.44-1.15-2.86-1.77-4.27-.44-.86-.71-1.79-.78-2.75q0-1.185 1.05-1.65c.92-.34 1.9-.5 2.89-.46h.73l.39-1.97h-17.53l-.39 1.97c1.49 0 2.63.15 3.41.43.79.29 1.46.84 2 1.65.55.82 1.16 1.98 1.87 3.52l6.38 13.91-14.09 14.6c-1.04 1.1-2.14 2.15-3.28 3.15-.87.75-1.71 1.27-2.5 1.55s-1.75.45-2.89.49l-.32 1.9h14.44ZM338.48 662q.855-1.38 1.65-2.07c.5-.45 1.16-.7 1.84-.69.56 0 1.14.11 1.74.32s1.19.32 1.8.32c.75 0 1.47-.27 2.04-.76.62-.5.92-1.3.92-2.4q0-1.32-.75-2.07c-.75-.75-1.32-.76-2.46-.76-1.37 0-2.56.32-3.62.99-1.04.65-1.96 1.47-2.72 2.43-.75.93-1.42 1.92-2 2.96l-3.21 5.52h-.22l-.76-3.35c-.44-1.79-.97-3.39-1.61-4.79s-1.35-2.56-2.14-3.48h-.99l-8.93 1.05v1.97c.38-.08.77-.14 1.15-.17.32-.03.67-.03 1.02-.03q1.965 0 3.18.66c1.215.66 1.49 1.18 2.04 2.23s1.11 2.5 1.68 4.33l1.85 6.01-4.71 6.84c-.84 1.23-1.53 2.1-2.1 2.63s-1.01.84-1.31.95c-.31.11-.5.17-.59.17-.53 0-1.18-.15-1.94-.43-.68-.26-1.41-.41-2.14-.43a2.38 2.38 0 0 0-1.94.85c-.46.57-.69 1.22-.69 1.97s.28 1.46.85 2.14 1.56 1.02 2.96 1.02v-.02c1.81.07 3.56-.65 4.8-1.97 1.28-1.39 2.43-2.91 3.41-4.52l4.2-6.83h.28l1.61 6.65a16.6 16.6 0 0 0 1.94 4.99c.77 1.18 1.96 1.77 3.58 1.77 1.05 0 2.03-.25 2.92-.73s1.71-1.11 2.46-1.87 1.42-1.58 2.04-2.43 1.14-1.62 1.58-2.33l-1.38-1.05c-.78 1.05-1.55 1.93-2.26 2.63s-1.52 1.05-2.4 1.05c-1.09 0-2.02-.68-2.75-2.04a38 38 0 0 1-2.5-6.44l-1.39-4.5 4.01-6.34v.03h-.01Zm62.99-17.83.39-1.97h-18.12l-.46 1.97c2.05 0 3.47.2 4.23.59.77.39 1.15 1.1 1.15 2.1 0 .35-.04.75-.13 1.21l-.26 1.48-6.9 32.96h-20.09l6.7-32.44c.31-1.53.67-2.73 1.09-3.58s1.11-1.46 2.07-1.8 2.38-.53 4.27-.53l.46-1.97h-18.12l-.39 1.97c1.88 0 3.24.19 4.04.56.81.37 1.21 1.2 1.21 2.46 0 .91-.11 1.81-.32 2.69l-5.84 27.58c-.24 1.38-.66 2.73-1.24 4.01-.44.84-1.11 1.34-2 1.55-.9.19-2.21.31-3.91.36l-.39 1.97h34.07c1.97 0 3.3.41 4.01 1.24s1.06 2.16 1.09 3.97-.01 4.25-.1 7.32h2.17-.04l3.62-15.16h-2.75c-.8 0-1.58-.22-2.26-.63-.55-.37-.82-1.04-.82-2 0-.66.08-1.33.26-2.04l5.91-28.29c.35-1.53.75-2.71 1.21-3.52.46-.82 1.18-1.37 2.14-1.65s2.33-.43 4.08-.43Zm25.7 33.37 4.86-23.24h-5.45l-2.1 9.26c-.33 1.42-.82 2.81-1.44 4.13-.75 1.61-1.58 3.17-2.5 4.69-.97 1.6-2 3.07-3.12 4.4s-2.23 2.42-3.35 3.25-2.16 1.24-3.12 1.24c-.71 0-1.21-.25-1.51-.75a3.64 3.64 0 0 1-.46-1.94c0-.35.03-.74.1-1.18s.18-1.1.36-1.97l4.53-21.34h-2.04l-8.87.73v1.77l1.21-.1c.37-.03.77-.03 1.21-.03q.72 0 1.44.36c.48.25.73.72.73 1.41 0 .57-.08 1.24-.24 2l-.43 2.13-3.15 14.12-.36 1.8c-.19.99-.29 1.99-.29 2.99 0 1.22.3 2.32.92 3.28s1.75 1.44 3.41 1.44c1.93 0 3.66-.48 5.22-1.44 1.57-.98 2.98-2.21 4.17-3.64 1.19-1.42 2.27-2.92 3.25-4.5.94-1.53 1.74-2.87 2.4-4.01h.59c-.57 2.15-1.06 3.96-1.48 5.45s-.63 3-.63 4.53c0 1.44.44 2.4 1.31 2.86 1.46.79 3.19.9 4.74.3.79-.32 1.54-.74 2.23-1.25l.13.13c-.66 1.01-1.18 1.84-1.55 2.5q-.555.975-.78 1.74c-.225.765-.24 1.06-.24 1.68 0 .56.03 1.14.1 1.7s.1 1 .1 1.31c0 .62-.26 1.29-.78 2-.78.93-1.77 1.66-2.89 2.14l.78 1.44h.02c2.04-.97 3.96-2.18 5.71-3.61a5.45 5.45 0 0 0 1.97-4.27c0-.84-.09-1.85-.29-3.02-.19-1.19-.29-2.13-.29-2.82 0-.9.21-1.8.63-2.6.41-.82 1.21-2 2.4-3.58l-1.38-.99c-.44.57-.93 1.12-1.48 1.65s-1.1.95-1.65 1.28-1.11.49-1.68.49c-.53 0-.9-.12-1.09-.36-.18-.21-.28-.47-.29-.75 0-.31.02-.65.07-1.02.04-.37.15-.97.32-1.8ZM42.66 768.61l5.32-25.54c.26-1.38.64-2.73 1.12-4.04.39-.99 1.05-1.68 1.97-2.07s2.34-.59 4.27-.59l.39-2.23H37.35l-.39 2.23c1.76 0 2.96.2 3.62.59q.99.585.99 2.16c-.05 1.33-.25 2.65-.59 3.94l-2.36 11.42c-1.32.54-2.71.96-4.19 1.23-1.75.32-3.33.49-4.72.49q-2.82 0-4.5-1.05c-1.68-1.05-1.68-2.02-1.68-3.94 0-.39.04-.87.13-1.44s.21-1.28.39-2.1l.99-4.53c.31-1.45.72-2.87 1.21-4.27.37-.96.95-1.62 1.74-1.97 1.14-.41 2.34-.58 3.55-.53l.46-2.23H14.89l-.46 2.23c1.62 0 2.73.19 3.35.56.62.38.92 1.06.92 2.07 0 .48-.04 1.05-.13 1.74s-.25 1.46-.46 2.33l-1.31 5.91c-.25 1.1-.39 2.22-.39 3.35 0 2.41.79 4.3 2.4 5.68q2.385 2.07 7.65 2.07h.01c2.02 0 4-.25 5.95-.75 1.86-.48 3.68-1.12 5.42-1.94l.16.03-2.27 11c-.27 1.46-.67 2.9-1.19 4.3-.32.88-1.02 1.56-1.9 1.87-.88.3-2.24.46-4.08.46l-.39 2.23h18.72l.53-2.22c-2.02 0-3.38-.19-4.11-.56s-1.09-1.2-1.09-2.46c0-.39.03-.85.1-1.38s.18-1.21.36-2.04Z"/>
	<path d="M81.31 774.39c.87-1.03 1.71-2.14 2.5-3.31l-1.58-1.12c-.22.22-.57.6-1.05 1.15-.49.55-1.04 1.04-1.68 1.48s-1.33.66-2.07.66c-.87 0-1.31-.44-1.31-1.31 0-.27.04-.62.13-1.05s.18-.99.27-1.65l4.79-23.04h-6.37l-.92 3.74c-.22.84-.69 1.89-1.41 3.16-.76 1.32-1.63 2.57-2.6 3.74q-1.395 1.74-3.15 3.12c-.88.77-1.99 1.22-3.16 1.28-.78 0-1.35-.2-1.7-.59s-.53-.87-.53-1.44c0-.44.07-1 .2-1.7.12-.71.24-1.21.32-1.51l2.17-9.98h-2.1l-9.91.73v2.1l.88-.07c.5-.04.95-.07 1.34-.07.62 0 1.16.12 1.65.36.48.25.72.76.72 1.55-.02.72-.11 1.44-.29 2.14-.19.85-.34 1.43-.43 1.74l-.92 3.81c-.09.3-.19.77-.32 1.41-.13.61-.2 1.24-.2 1.87 0 1.35.41 2.52 1.24 3.48s2.25 1.44 4.27 1.44c1.62 0 3.07-.31 4.33-.95s2.4-1.44 3.38-2.43 1.85-2.03 2.6-3.15c.74-1.12 1.4-2.16 1.97-3.12h.46l-2.43 11.1c-.3 1.27-.55 2.36-.75 3.28-.18.84-.28 1.7-.29 2.56 0 1.23.35 2.23 1.05 2.99.71.77 1.86 1.15 3.48 1.15l-.02-.02c1.75 0 3.2-.32 4.37-.99 1.16-.66 2.2-1.51 3.06-2.53Zm67.91 2.87v.03zm.44-2.19c-2-.04-3.39-.27-4.13-.66-.75-.39-1.12-1.18-1.12-2.36 0-.48.04-1.02.13-1.61s.21-1.25.39-2l5.25-25.35c.36-1.71.74-3.06 1.15-4.04s1.1-1.68 2.04-2.07 2.42-.59 4.43-.59l.46-2.23h-18.84l-.53 2.23c1.93 0 3.25.21 3.94.63.71.41 1.05 1.19 1.05 2.33 0 .48-.04 1.03-.13 1.65s-.21 1.32-.39 2.1l-6.56 31.06h-16.09l6.51-31.06c.4-1.71.78-3.06 1.15-4.04s.99-1.68 1.84-2.07c1.27-.46 2.62-.67 3.97-.59l.46-2.23h-17.99l-.53 2.23q2.82 0 3.84.63c1.02.63 1.02 1.14 1.02 2.19 0 .48-.06 1.04-.17 1.7-.11.65-.25 1.38-.43 2.16l-6.63 31.13H97.66l6.49-31.13c.26-1.38.64-2.73 1.12-4.04.39-.99 1.04-1.68 1.94-2.07s2.28-.59 4.17-.59l.46-2.23H93.06l-.39 2.23q3.03 0 4.11.66c.73.44 1.09 1.2 1.09 2.3 0 .48-.04 1.03-.13 1.65s-.21 1.32-.39 2.1l-5.39 25.35a24.6 24.6 0 0 1-1.19 4.27 3.17 3.17 0 0 1-1.9 1.84c-.87.31-2.27.48-4.2.53l-.46 2.23h65l.45-2.19Zm51.02 1.91c1.18-.6 2.23-1.43 3.09-2.43.9-1.03 1.8-2.18 2.72-3.45l-1.65-1.19c-.53.69-1.21 1.42-2.04 2.16-.72.7-1.68 1.11-2.69 1.12-.48 0-.82-.1-1.02-.32-.19-.22-.3-.5-.29-.78.04-.95.17-1.9.39-2.82l5.06-23.04h-6.51l-2.1 9.13c-.32 1.38-.76 2.73-1.31 4.04-.65 1.57-1.38 3.12-2.17 4.62-.83 1.58-1.72 3.03-2.69 4.37s-1.93 2.41-2.89 3.21-1.86 1.21-2.69 1.21q-1.065 0-1.44-.75c-.28-.61-.42-1.27-.39-1.94 0-.4.04-.79.1-1.19.07-.44.18-1.1.36-1.97l4.33-20.75h-6.24l-2.1 9.26c-.26 1.19-.69 2.53-1.31 4.04s-1.34 3.05-2.17 4.6-1.72 2.99-2.69 4.3c-.84 1.18-1.84 2.25-2.96 3.18a4.65 4.65 0 0 1-2.82 1.21q-1.065 0-1.44-.75c-.28-.61-.42-1.27-.39-1.94 0-.36.03-.75.1-1.19s.18-1.1.36-1.97l4.47-20.95h-2.75l-8.93.73v2.04c.8-.08 1.61-.12 2.42-.13q.72 0 1.44.36c.72.36.73.72.73 1.41 0 .62-.07 1.23-.2 1.87s-.28 1.31-.46 2l-3.15 14.12-.39 2.07c-.17.94-.26 1.85-.26 2.72 0 1.22.29 2.32.88 3.28s1.75 1.44 3.45 1.44v.02c1.91 0 3.63-.45 5.14-1.34 1.51-.9 2.83-2.02 3.97-3.35 1.09-1.27 2.07-2.63 2.92-4.08.81-1.39 1.46-2.58 1.94-3.58h.46l-.82 3.61q-.285 1.32-.39 2.1c-.105.78-.1 1.07-.1 1.65 0 1.28.29 2.42.88 3.45s1.68 1.55 3.52 1.55 3.48-.45 4.93-1.34 2.7-2.02 3.77-3.35q1.605-2.01 2.79-4.11l1.97-3.55h.53c-.53 1.88-.96 3.49-1.31 4.83s-.53 2.62-.53 3.84c0 1.35.4 2.3 1.21 2.82.82.53 1.8.78 2.99.78 1.75 0 3.2-.29 4.37-.88m66.28-7.63 5.45-26.27c.26-1.38.64-2.73 1.12-4.04.35-.94 1.08-1.69 2-2.07.94-.39 2.44-.59 4.5-.59l.39-2.23h-18.84l-.46 2.23c1.93 0 3.24.21 3.94.63s1.05 1.19 1.05 2.33c0 .48-.04 1.03-.13 1.65s-.21 1.32-.39 2.1l-6.56 31.06h-15.82l6.51-31.06c.35-1.71.72-3.06 1.09-4.04s1-1.68 1.87-2.07c1.28-.46 2.65-.66 4.01-.59l.46-2.23h-17.99l-.53 2.23c1.84 0 3.09.21 3.77.63s1.02 1.14 1.02 2.19c0 .48-.04 1.04-.13 1.7-.09.65-.21 1.38-.39 2.16l-6.63 31.13h-15.82l6.51-31.13c.26-1.38.64-2.73 1.12-4.04.39-.99 1.04-1.68 1.94-2.07s2.28-.59 4.17-.59l.46-2.23h-18.78l-.39 2.23c2.02 0 3.38.22 4.11.66s1.09 1.2 1.09 2.3c0 .48-.04 1.03-.13 1.65s-.21 1.32-.39 2.1l-5.39 25.35a24.6 24.6 0 0 1-1.19 4.27 3.17 3.17 0 0 1-1.9 1.84c-.87.31-2.27.48-4.2.53l-.46 2.23h54.36c1.88 0 3.17.4 3.87 1.21.71.81 1.09 2.13 1.15 3.94s.06 4.28-.03 7.39h2.6l3.66-15.4h-2.96c-.96-.04-1.71-.25-2.26-.59s-.82-.99-.82-1.9c.04-.87.17-1.72.39-2.56Zm2.01 20.45h-.03v.03zm59.41-18.67-1.58-1.19c-.65.78-1.38 1.53-2.16 2.23-.79.71-1.67 1.05-2.63 1.05-.48 0-.82-.1-1.02-.32-.19-.22-.3-.5-.29-.78.04-.95.17-1.9.39-2.82l5.06-23.04h-6.51l-2.1 9.13c-.32 1.38-.74 2.73-1.28 4.04a46 46 0 0 1-2.14 4.62c-.83 1.58-1.72 3.03-2.69 4.37s-1.91 2.41-2.86 3.21c-.95.81-1.84 1.21-2.66 1.21-.69 0-1.18-.25-1.44-.75-.28-.61-.42-1.27-.39-1.94 0-.36.03-.75.1-1.19s.18-1.1.36-1.97l4.33-20.75h-6.24l-2.1 9.26c-.26 1.19-.69 2.53-1.31 4.04s-1.34 3.05-2.17 4.6-1.72 2.99-2.69 4.3c-.84 1.18-1.82 2.25-2.92 3.18-.76.71-1.75 1.14-2.79 1.21q-1.065 0-1.44-.75c-.28-.61-.42-1.27-.39-1.94 0-.36.03-.75.1-1.19s.18-1.1.36-1.97l4.47-20.95H289l-8.92.73v2.04c.8-.08 1.61-.12 2.42-.13q.72 0 1.44.36c.48.24.72.72.72 1.41 0 .62-.07 1.23-.2 1.87s-.28 1.31-.46 2l-3.16 14.12-.39 2.07c-.17.94-.26 1.85-.26 2.72 0 1.22.29 2.32.88 3.28s1.75 1.44 3.45 1.44c1.93 0 3.64-.45 5.15-1.34s2.82-2.02 3.94-3.35c1.12-1.34 2.07-2.7 2.86-4.08.78-1.39 1.44-2.58 1.97-3.58h.46a78 78 0 0 0-.85 3.61l-.39 2.1c-.09.53-.13 1.07-.13 1.65 0 1.28.3 2.42.92 3.45s1.76 1.55 3.55 1.55 3.41-.45 4.86-1.34 2.69-2.02 3.74-3.35c1.05-1.34 1.97-2.71 2.75-4.11l1.97-3.55h.53c-.53 1.88-.95 3.49-1.28 4.83-.32 1.26-.48 2.55-.49 3.84 0 1.35.4 2.3 1.19 2.82.78.53 1.75.78 2.89.78 1.76.02 3.48-.51 4.93-1.51l.2.13c-.74 1.05-1.31 1.89-1.7 2.53-.39.63-.65 1.21-.78 1.7s-.2 1.07-.2 1.74c0 .39.02.79.07 1.21s.07.73.07.95c0 .83-.29 1.61-.88 2.36-.85.94-1.89 1.68-3.06 2.17l.92 1.7-.02.04c2.2-.97 4.28-2.18 6.2-3.62 1.35-1 2.15-2.58 2.14-4.27 0-.84-.1-1.86-.32-3.06-.19-.94-.29-1.9-.32-2.86 0-.93.25-1.8.73-2.63s1.24-1.95 2.3-3.35Zm20.49 6.13h-.02zm19.47-14.18c0-2.06-.49-3.89-1.48-5.45s-2.53-2.8-4.66-3.67-4.94-1.31-8.44-1.31c-1.4 0-2.79.06-4.17.17l-2.5.2 2.08-9.96c.26-1.38.64-2.73 1.12-4.04.35-.94 1.08-1.69 2-2.07.94-.39 2.37-.59 4.3-.59l.46-2.23h-18.98l-.39 2.23c2.02 0 3.37.21 4.08.63s1.05 1.16 1.05 2.26c0 .49-.07 1.04-.2 1.68l-.46 2.14-5.12 24.82c-.29 1.52-.69 3.01-1.19 4.47-.3.95-.99 1.73-1.9 2.14-.87.37-2.27.56-4.2.56l-.39 2.23h19.48c6.17 0 10.96-1.28 14.38-3.84a12.29 12.29 0 0 0 5.12-10.35Zm-8.95 6a8.3 8.3 0 0 1-3.09 3.35c-1.29.77-2.7 1.3-4.23 1.58s-3.1.43-4.72.43c-1.55-.04-3.11-.11-4.66-.2l3.86-18.54c1.31-.06 2.63-.09 3.94-.09 3.25 0 5.73.57 7.46 1.74 1.74 1.15 2.6 3.2 2.6 6.14 0 2.27-.39 4.14-1.15 5.61Zm30.25 7.41c2.11-.88 3.94-2.31 5.32-4.13 1.36-1.87 2.06-4.13 2-6.44 0-2.8-.85-5-2.53-6.63a8.84 8.84 0 0 0-6.4-2.43c-1.53 0-2.87.26-4.01.78-1.21.56-2.34 1.29-3.35 2.16l-.32-.07 3.09-13.73h-2.17l-9.85.73v2.04c.68-.07 1.36-.12 2.04-.13.96 0 1.62.21 1.97.63s.53.93.53 1.55c0 .53-.08 1.11-.26 1.77l-2.82 12.93-.2.88c-.14.63-.26 1.27-.36 1.9-.11.73-.17 1.39-.17 2 0 1.27.35 2.49 1.05 3.67a7.57 7.57 0 0 0 3.25 2.86c1.47.73 3.43 1.09 5.88 1.09 2.51.04 5.01-.45 7.32-1.43Zm-8.58-1.51c-.71-.29-1.3-.79-1.7-1.44-.49-.87-.72-1.86-.66-2.86 0-.62.08-1.4.24-2.36s.31-1.86.49-2.69a7.34 7.34 0 0 1 2.3-4.23c1.14-.99 2.52-1.48 4.01-1.48s2.63.56 3.41 1.68c.79 1.12 1.19 2.53 1.19 4.5s-.34 3.65-1.02 5.03a8.2 8.2 0 0 1-2.63 3.18c-1.07.75-2.23 1.12-3.45 1.12v-.02c-.75 0-1.48-.15-2.17-.43ZM69.25 835.31c.26-1.38.64-2.73 1.12-4.04.39-.99 1.06-1.69 2-2.1s2.35-.63 4.23-.63l.53-2.5H57.04l-.53 2.5c2.02 0 3.37.21 4.08.63s1.05 1.16 1.05 2.26c0 .48-.04 1.04-.13 1.7s-.21 1.39-.39 2.17l-5.18 24.76a25 25 0 0 1-1.19 4.23c-.34.89-1.04 1.58-1.94 1.9-.91.32-2.27.49-4.11.49l-.53 2.5h19.9l.53-2.49c-1.93 0-3.25-.18-3.97-.53s-1.09-1.09-1.09-2.23c0-.92.18-2.18.53-3.81l5.18-24.82ZM28.9 869.18c6.26 0 11.07-1.28 14.44-3.84s5.06-6.11 5.06-10.67c0-3.02-1.05-5.49-3.18-7.39s-5.73-2.86-10.8-2.86c-1.41 0-2.78.06-4.11.17-1.07.09-2.02.16-2.82.2l1.98-9.49c.36-1.71.74-3.06 1.15-4.04s1.11-1.69 2.07-2.1 2.43-.63 4.4-.63l.53-2.5H17.26l-.53 2.5c2.05 0 3.41.24 4.1.69s1.02 1.28 1.02 2.46c0 .44-.06.96-.17 1.58s-.25 1.29-.43 2.04L16.39 859c-.39 2.1-.79 3.69-1.21 4.79a3.85 3.85 0 0 1-2 2.26c-.92.43-2.36.63-4.33.63l-.53 2.5h20.57Zm-3.8-3.15c-.67-.04-1.34-.08-2-.13l3.78-18.16 1.22-.09c.69-.04 1.49-.07 2.36-.07 2.8 0 4.99.57 6.59 1.71s2.4 3.07 2.4 5.78c0 2.41-.36 4.34-1.09 5.81a7.84 7.84 0 0 1-2.86 3.31c-1.2.76-2.54 1.27-3.94 1.51-2.13.39-4.31.5-6.47.32Zm88.95.35c.87-1.03 1.71-2.1 2.5-3.25l-1.77-1.31-1.15 1.28c-.46.5-1 .95-1.61 1.34-.62.39-1.3.59-2.04.59-.83 0-1.24-.41-1.24-1.24 0-.39.06-.87.17-1.44.11-.56.19-1.01.24-1.31l4.86-22.98h-7.61l-4.66 21.8-.78 3.64c-.16.77-.25 1.55-.26 2.33 0 1.14.39 2.1 1.15 2.89s2.03 1.19 3.77 1.19h-.02c2.14-.06 3.87-.39 5.18-1.03s2.41-1.47 3.28-2.5Z"/>
	<path d="M89.73 868.5c2.31-.9 4.13-2.24 5.49-4.01 1.41-1.93 2.12-4.28 2.04-6.66 0-2.93-.81-5.2-2.43-6.8a8.33 8.33 0 0 0-6.1-2.4c-1.58 0-2.91.26-4.01.78q-1.635.78-3.21 2.16l-.39-.07 3.09-13.59h-2.69l-10.44.73v2.3l1.09-.1c.32-.03.65-.03.95-.03.92 0 1.57.22 1.94.66s.56 1.01.56 1.7c0 .48-.07 1.01-.2 1.58l-2.89 12.67-.2.88c-.14.63-.26 1.27-.36 1.9-.11.73-.17 1.39-.17 2 0 1.27.34 2.49 1.02 3.67a7.24 7.24 0 0 0 3.28 2.86c1.51.73 3.55 1.09 6.14 1.09h-.01c2.57.04 5.12-.42 7.51-1.33Zm-7.78-1.72a3.26 3.26 0 0 1-1.61-1.34c-.49-.86-.72-1.84-.66-2.82 0-.75.08-1.59.26-2.53l.32-1.8c.48-2.23 1.18-3.83 2.07-4.79s2.05-1.44 3.45-1.44c1.32 0 2.32.56 3.02 1.7s1.05 2.59 1.05 4.33-.26 3.31-.78 4.69a7.77 7.77 0 0 1-2.14 3.21c-.84.75-1.92 1.16-3.05 1.15-.66 0-1.3-.11-1.94-.36Zm48.52-2.99c-.44 1.09-1.12 1.85-2.04 2.26-.92.43-2.34.63-4.27.63l-.53 2.5h20.76q9.525 0 14.58-3.87c3.37-2.59 5.06-6.15 5.06-10.7 0-2.02-.46-3.78-1.38-5.32a8.96 8.96 0 0 0-4.47-3.58c-2.06-.85-4.79-1.28-8.21-1.28-1.4 0-2.8.06-4.2.17l-2.92.21 2.04-9.51c.39-1.71.77-3.06 1.12-4.04s.99-1.69 1.9-2.1 2.38-.63 4.4-.63l.53-2.5H122.9l-2.96 12.22h2.89c.58-1.48 1.21-2.94 1.9-4.37a8.4 8.4 0 0 1 1.97-2.69c.74-.63 1.71-1.1 2.92-1.38s2.73-.43 4.57-.43h3.87l-6.3 29.61c-.3 1.63-.74 3.23-1.31 4.79Zm11.77-16.09c.35-.04.78-.08 1.31-.09.78-.02 1.6-.03 2.43-.03q4.26 0 6.66 1.71c2.4 1.71 2.4 3.05 2.4 5.71 0 2.41-.36 4.36-1.09 5.84a7.77 7.77 0 0 1-2.89 3.35c-1.21.75-2.55 1.25-4.04 1.51-2.17.39-4.38.5-6.57.32l-2.1-.13 3.9-18.19Zm28.91 4.96a16.54 16.54 0 0 0-1.84 7.65q0 4.395 2.82 6.96c1.88 1.71 4.59 2.56 8.14 2.56 3.07 0 5.69-.5 7.88-1.51 2.18-1.01 3.86-2.42 5.05-4.23 1.18-1.83 1.77-3.89 1.77-6.47s-.79-4.69-2.4-6.34-3.84-2.46-6.73-2.46c-2.62-.03-5.15.94-7.09 2.7l-.2-.13c1.1-2.36 2.26-4.42 3.52-6.17s2.42-3.17 3.52-4.27 1.9-1.88 2.43-2.36l-1.38-1.51c-1.36.9-2.95 1.41-4.59 1.44-1.32 0-2.65-.19-4.01-.56-1.37-.37-2.72-.56-4.08-.56-1.88 0-3.71.44-5.45 1.31-1.75.88-3.3 2.56-4.66 5.06l1.44.99c.49-.79 1.15-1.45 1.94-1.94a5.4 5.4 0 0 1 2.86-.69c.78 0 1.44.09 1.97.27s1.05.34 1.58.49c1.57.44 3.25.29 4.72-.43 1.09-.44 2.3-.99 3.61-1.65l.13.32c-2.14 1.37-4.2 3.03-6.17 4.99s-3.57 4.14-4.79 6.53Zm5.88 5.26c.21-.88.46-1.74.75-2.6.71-1.14 1.51-1.95 2.43-2.43s1.84-.72 2.75-.72c1.49 0 2.6.56 3.35 1.7s1.12 2.63 1.12 4.47c0 1.62-.28 3.11-.85 4.47s-1.33 2.44-2.3 3.25c-.91.79-2.08 1.22-3.28 1.21-1.58 0-2.69-.58-3.35-1.77a8.66 8.66 0 0 1-.99-4.27c0-1.22.11-2.33.36-3.31Zm68.54-15.4q0-8.595-4.5-12.93c-3-2.89-7.21-4.33-12.64-4.33-3.33-.06-6.63.55-9.72 1.78-.96.39-1.7.59-2.23.59-.56 0-.97-.25-1.21-.75-.25-.5-.47-1.04-.69-1.61h-2.5l-3.35 15.04h2.69c1.66-4.33 3.71-7.4 6.14-9.19s5.33-2.69 8.7-2.69q3.54 0 5.91 1.44a9.24 9.24 0 0 1 3.61 4.23c.88 2.15 1.31 4.47 1.24 6.8 0 1.53-.08 2.98-.2 4.38h-22.05l-.72 3.41h22.28c-.31 1.69-.77 3.35-1.39 4.95a16.7 16.7 0 0 1-6.24 8.11q-4.17 2.79-10.47 2.79c-3.02 0-5.6-.52-7.75-1.55-2.03-.94-3.86-2.27-5.39-3.91l-2.16 1.51c.78 1.75 1.87 3.33 3.25 4.72s3.15 2.52 5.32 3.35 4.76 1.24 7.78 1.24h.02c4.11 0 7.8-.74 11.06-2.21s6.02-3.47 8.27-6.01 3.96-5.45 5.15-8.73c1.19-3.35 1.79-6.88 1.77-10.44Zm23.92 21.07c1.59-1.95 2.8-4.19 3.55-6.59.79-2.47 1.19-5.09 1.19-7.71s-.43-4.8-1.28-6.53a8.67 8.67 0 0 0-3.84-3.94c-1.71-.9-3.83-1.34-6.37-1.34-2.36 0-4.22.28-5.61.85s-2.27.94-2.66 1.12h-.2l-1.05-1.65h-2.04l-2.43 10.64h2.5c1.05-2.98 2.37-5.07 3.97-6.3a8.8 8.8 0 0 1 5.42-1.84c2.23 0 3.78.62 4.66 1.84.87 1.23 1.31 2.89 1.31 4.99 0 1.59-.11 3.12-.29 4.59h-12.61l-.66 2.89h12.75c-.41 1.86-1.09 3.66-2.03 5.32-.96 1.67-2.17 2.97-3.62 3.91s-3.14 1.41-5.06 1.41c-1.79 0-3.4-.3-4.83-.92s-2.6-1.44-3.52-2.5l-1.65 1.44c1.01 2.15 2.37 3.77 4.08 4.89s3.92 1.68 6.63 1.68h.02c2.98 0 5.61-.56 7.88-1.68s4.2-2.64 5.78-4.57Zm57.09 4.41c3.05-1.32 5.77-3.29 7.97-5.78 2.27-2.61 4.02-5.63 5.15-8.9 1.25-3.62 1.87-7.43 1.84-11.26 0-3.33-.62-6.25-1.84-8.77q-1.83-3.78-5.58-5.91c-3.75-2.13-5.51-2.14-9.33-2.14s-7.27.72-10.38 2.14c-3.05 1.38-5.77 3.4-7.97 5.91a26.74 26.74 0 0 0-6.05 12.32h-9.45l2.13-10.3c.36-1.76.74-3.11 1.15-4.08s1.1-1.66 2.04-2.07 2.37-.63 4.3-.63l.46-2.5h-20.15l-.46 2.5c2.02 0 3.37.21 4.08.63s1.05 1.16 1.05 2.26c0 .49-.06 1.04-.17 1.68-.11.63-.25 1.37-.43 2.19l-5.12 24.76c-.39 1.93-.81 3.36-1.24 4.3-.36.87-1.08 1.55-1.97 1.87-.88.3-2.22.46-4.01.46l-.59 2.5h19.95l.53-2.47c-1.88 0-3.21-.18-3.97-.53-.77-.35-1.15-1.11-1.15-2.3-.04-.48 0-1.04.13-1.68l.46-2.14 2.33-11.24h9.58c-.17 1.39-.26 2.8-.27 4.2 0 3.4.59 6.39 1.8 8.96 1.16 2.52 3.1 4.6 5.52 5.95 2.47 1.4 5.58 2.1 9.29 2.1h-.01c3.82.01 7.27-.67 10.38-2.03h-.01Zm-14.63-2.73a9.2 9.2 0 0 1-2.86-4.53c-.63-2.21-.93-4.5-.88-6.8 0-3.63.37-7 1.12-10.11.74-3.1 1.8-5.82 3.18-8.14s3.05-4.13 4.99-5.42c1.91-1.28 4.17-1.95 6.47-1.94 2.84 0 5.04 1.11 6.59 3.31 1.56 2.22 2.33 5.44 2.33 9.69 0 2.36-.17 4.75-.49 7.15-.32 2.35-.87 4.66-1.65 6.9-.72 2.09-1.72 4.07-2.99 5.88a13.9 13.9 0 0 1-4.5 4.11c-1.77 1.01-3.86 1.51-6.26 1.51-1.82.08-3.62-.49-5.06-1.61Z"/>
	<path d="M291.98 869.18h-.01v.02-.02Zm62.87-15.04h7.61c-.13 1.11-.22 2.24-.22 3.41 0 2.41.4 4.55 1.21 6.4s2.07 3.31 3.77 4.37 3.92 1.58 6.63 1.58h.02c2.52.03 5.01-.46 7.32-1.46 2.16-.96 4.02-2.32 5.58-4.04s2.75-3.81 3.58-6.24 1.24-5.13 1.24-8.11c0-2.66-.53-4.93-1.58-6.76s-2.47-3.24-4.27-4.2c-1.88-.98-3.98-1.48-6.1-1.44-2.72 0-5.14.49-7.29 1.48s-3.97 2.37-5.49 4.17-2.66 3.91-3.45 6.34c-.19.59-.36 1.2-.5 1.81h-7.52l2.75-13.54h-2.69l-10.57.73v2.43c.17 0 .45-.02.82-.07s.79-.07 1.28-.07c.96 0 1.58.2 1.84.59q.39.585.39 1.44c0 .31-.03.67-.1 1.09s-.1.68-.1.82l-5.18 24.3h7.95l3.07-15.04Zm16.11-3c.34-1.92.9-3.79 1.68-5.58.6-1.42 1.49-2.7 2.6-3.77.94-.89 2.19-1.38 3.48-1.38 1.18 0 2.1.4 2.79 1.19s1.16 1.84 1.44 3.15.43 2.75.43 4.33c0 2.5-.19 4.83-.56 7-.32 1.96-.86 3.87-1.61 5.71a11.7 11.7 0 0 1-2.56 3.91c-.92.93-2.18 1.45-3.48 1.44-1.37 0-2.37-.44-3.06-1.29s-1.14-1.98-1.38-3.38c-.24-1.41-.36-2.91-.36-4.53 0-2.41.2-4.67.59-6.8m32.96 12.45 3.18-4.43c.94-1.32 1.84-2.52 2.69-3.62s1.7-2.13 2.53-3.09c.83-1 1.58-1.74 2.26-2.19s1.66-.69 2.92-.69h3.01l-2.35 10.95c-.35 1.8-.75 3.14-1.21 4.01-.44.85-1.21 1.49-2.14 1.74-.96.28-2.34.43-4.13.43l-.53 2.5h20.15l.59-2.5c-1.84 0-3.14-.18-3.87-.53-.75-.35-1.12-1.09-1.12-2.23 0-.44.04-.95.13-1.55s.21-1.25.39-2l5.58-26.85c.27-1.22.6-2.19 1.02-2.92.41-.73 1.07-1.25 1.97-1.58s2.17-.49 3.84-.49l.53-2.5h-17.01c-2.84 0-5.58.2-8.21.59q-3.93.585-7.05 2.04c-1.96.86-3.66 2.22-4.93 3.94-1.2 1.67-1.8 3.61-1.8 6.24s.81 4.71 2.43 6.27c1.56 1.52 3.48 2.64 5.58 3.25v.2c-1.09.57-2.15 1.34-3.18 2.33s-2.15 2.23-3.35 3.74c-1.48 1.85-2.93 3.72-4.37 5.61-1.31 1.8-2.45 3.15-3.41 4.04s-1.96 1.51-2.99 1.84-2.35.49-3.97.49l-.53 2.56h13.27v.02c1.53-2.09 2.9-3.96 4.08-5.61Zm8.1-32c1.99-1.65 4.99-2.46 9.02-2.46 1.27 0 2.54.05 3.81.13l-3.71 17.28h-2.73c-1.75 0-3.33-.25-4.72-.73-1.4-.48-2.53-1.28-3.38-2.4s-1.28-2.6-1.28-4.43c0-3.28 1-5.74 2.99-7.39m55.29 31.54c-.46.5-1 .95-1.61 1.34-.62.39-1.3.59-2.04.59-.87 0-1.31-.41-1.31-1.24 0-.44.06-.93.17-1.48.11-.54.19-.97.24-1.28l4.66-22.65c-1.16-.14-2.32-.25-3.48-.32l-4.08-.24c-1.14-.06-2.28-.09-3.41-.1-4.06 0-7.28.4-9.62 1.21-2.35.81-4.01 1.88-4.99 3.21s-1.48 2.77-1.48 4.3q0 2.625 1.38 4.17c1.38 1.545 1.97 1.77 3.18 2.23 1.2.46 2.26.75 3.18.88v.26q-3.225.855-4.53 2.4c-.87 1.03-1.69 2.26-2.43 3.71q-.75 1.71-1.44 3.45a8.8 8.8 0 0 1-1.19 2.19c-.39.48-.96.72-1.7.72-.78 0-1.43-.16-1.94-.46-.54-.33-1.01-.75-1.41-1.24l-1.7 1.58c.71 1.18 1.55 2.07 2.53 2.69s2.24.92 3.77.92v.02c2.1 0 3.83-.5 5.16-1.51s2.43-2.28 3.28-3.84c.83-1.5 1.58-3.05 2.26-4.62.39-1.01.9-1.93 1.51-2.75s1.5-1.5 2.66-2c1.11-.43 2.29-.65 3.48-.64l-1.14 5.27-.78 3.67c-.17.83-.26 1.6-.26 2.3 0 1.14.4 2.1 1.21 2.89s2.07 1.19 3.77 1.19c2.14-.04 3.87-.38 5.18-1.02s2.42-1.47 3.31-2.5 1.71-2.1 2.46-3.25l-1.77-1.31c-.27.35-.63.77-1.09 1.28Zm-10.33-11.12c-.24.04-.55.07-.94.09-.75.03-1.22.03-1.44.03-1.63.08-3.25-.28-4.69-1.05-1.15-.71-1.74-2.15-1.74-4.08s.58-3.53 1.77-4.79 3.16-1.9 5.91-1.9c1.21.03 2.42.12 3.62.27l-2.49 11.44ZM18.7 953.82c-1.22 0-2.17.39-2.86 1.18s-1.02 1.74-1.02 2.82.32 1.99.99 2.72c.66.73 1.62 1.09 2.89 1.09 1.27.01 2.24-.37 2.92-1.11.68-.75 1.02-1.62 1.02-2.63 0-1.1-.34-2.05-1.02-2.86a3.68 3.68 0 0 0-2.92-1.21m3.44-30.25c.03-.73.03-1.37.03-1.94a6.1 6.1 0 0 0-.78-3.21c-.52-.84-1.42-1.25-2.69-1.25-1.35 0-2.27.43-2.75 1.25-.52.95-.77 2.01-.73 3.09 0 .53.03 1.14.1 1.84.07.71.12 1.51.17 2.43l2.04 24.16h2.3-.02l2.17-24.17c.09-.74.15-1.48.17-2.19Zm18.85 26.37h-.02zm4.4-31.73c-1.85-.68-3.78-1.02-5.98-1.02s-4.13.39-5.81 1.15a9.36 9.36 0 0 0-3.94 3.18 8.1 8.1 0 0 0-1.41 4.72c0 1.53.29 2.68.88 3.45.58.77 1.5 1.2 2.46 1.15.79 0 1.48-.24 2.07-.69s.88-1.19.88-2.19c0-.83-.1-1.46-.32-1.87-.22-.43-.46-.83-.69-1.22-.26-.5-.39-1.07-.36-1.63 0-1.01.46-1.85 1.38-2.53s2.34-1.02 4.27-1.02a6.8 6.8 0 0 1 4.99 1.8c1.22 1.2 1.84 3.09 1.84 5.68.06 3.29-.82 6.53-2.53 9.35-.71 1.19-1.44 2.36-2.19 3.52-.74 1.13-1.34 2.36-1.84 3.67s-.73 2.82-.73 4.53v1.7h2.61v-1.04c0-1.46.36-2.83 1.09-4.14a26.7 26.7 0 0 1 2.66-3.91c1.08-1.32 2.12-2.67 3.12-4.04 1.03-1.4 1.9-2.9 2.63-4.52s1.09-3.39 1.09-5.32c0-2.27-.56-4.13-1.7-5.58a9.9 9.9 0 0 0-4.47-3.18m-5.59 35.86c-1.22 0-2.17.39-2.86 1.15-.68.76-1.02 1.62-1.02 2.72s.31 1.98.95 2.66 1.59 1.02 2.86 1.02c1.03.05 2.03-.34 2.75-1.06.66-.71.99-1.63.99-2.63s-.34-1.9-.99-2.69a3.34 3.34 0 0 0-2.69-1.18Zm53.49 2.71c-1.1.59-2.34.88-3.58.85a7.5 7.5 0 0 1-4.96-1.77c-1.44-1.24-2.8-2.56-4.08-3.97 1.13-1.55 2.1-2.91 2.89-4.05.9-1.31 1.71-2.58 2.46-3.81.75-1.22 1.58-2.62 2.5-4.2a7.17 7.17 0 0 1 2.46-2.75c.9-.54 2.15-.79 3.77-.79v-2.04H80.31v2.04c1.52 0 2.59.21 3.18.63.59.43.88 1.11.88 2.07s-.19 1.97-.56 3.02-.97 2.3-1.8 3.74c-.89 1.53-1.82 3.03-2.78 4.51a76 76 0 0 1-2.87-3.72c-1.32-1.83-2.58-3.7-3.77-5.61-.91-1.45-1.77-2.93-2.59-4.43 3.54-1.59 6.06-3.19 7.54-4.78a8.72 8.72 0 0 0 2.36-6.11c0-2.68-.86-4.67-2.56-5.98a9.8 9.8 0 0 0-6.17-1.97c-3.1 0-5.6.78-7.48 2.36a7.66 7.66 0 0 0-2.82 6.17c0 1.88.3 3.64.92 5.28.56 1.49 1.43 3.35 2.59 5.55a48 48 0 0 0-6.65 4.39 15.3 15.3 0 0 0-4.11 4.79c-.87 1.73-1.31 3.64-1.28 5.58 0 3.33.99 5.87 2.96 7.61 1.96 1.76 4.79 2.63 8.46 2.63 3.28.14 6.51-.8 9.19-2.69 1.25-.86 2.58-1.99 3.96-3.38q1.62 1.665 3.36 3.21c1.12.99 2.21 1.7 3.28 2.16s2.33.69 3.77.69h.01c1.41.02 2.82-.27 4.11-.84a10.3 10.3 0 0 0 3.45-2.5c1.01-1.1 1.79-2.43 2.36-4.01l-1.12-.72a8.5 8.5 0 0 1-2.86 2.82Zm-26.08-35.72c.94-.96 2.18-1.44 3.84-1.44s2.93.56 3.81 1.68a6.58 6.58 0 0 1 1.31 4.17c.09 2.6-1.06 5.09-3.09 6.71-1 .84-2.35 1.68-4.04 2.52-.89-1.71-1.67-3.47-2.32-5.28-.55-1.45-.86-2.98-.92-4.53 0-1.58.47-2.84 1.41-3.81Zm3.62 36.21c-1.47.5-3.08.75-4.69.75s-3-.27-4.17-.82a5.65 5.65 0 0 1-2.66-2.56c-.67-1.4-.98-2.95-.92-4.5 0-2.45.59-4.58 1.8-6.37 1.12-1.66 2.88-3.24 5.28-4.75 1.11 2 2.25 3.98 3.44 5.93 1.28 2.09 2.62 4.14 4.04 6.14.9 1.25 1.71 2.32 2.44 3.19a14.5 14.5 0 0 1-4.57 2.99Zm62.21-39.9h.01c-1.58 1.58-2.89 2.8-3.94 3.65s-2 1.43-2.86 1.74c-.85.3-1.78.46-2.79.46-1.44 0-2.65-.2-3.64-.59s-1.87-.85-2.66-1.38c-.8-.53-1.65-.99-2.53-1.38a8 8 0 0 0-3.25-.59c-1.98-.01-3.92.61-5.52 1.77-1.67 1.18-2.98 2.77-3.94 4.76s-1.44 4.23-1.44 6.73c0 2.75.63 4.85 1.87 6.27 1.24 1.43 2.99 2.14 5.22 2.14 2.09 0 3.96-.58 5.61-1.77 1.69-1.23 3.02-2.89 3.87-4.79 1.25-2.71 1.7-5.71 1.28-8.67-.09-.6-.19-1.15-.32-1.63l.13-.13c1.01.44 1.8.72 2.4.85s1.29.2 2.07.2c1.37 0 2.55-.17 3.58-.49 1.02-.34 2.08-.86 3.18-1.61h.32l-23.43 39.59h3.15L136 917.39h-2.96Zm-16.82 9.85c0 2.06-.36 3.97-1.05 5.74s-1.61 3.18-2.75 4.23c-1.02 1-2.38 1.57-3.81 1.58-1.22 0-2.13-.48-2.72-1.44s-.88-2.47-.88-4.53c0-2.24.31-4.24.95-6.01s1.49-3.17 2.56-4.2c1.06-1.03 2.32-1.55 3.64-1.55s2.32.53 3.02 1.58 1.05 2.59 1.05 4.6zm16.76 13.52c-2.09 0-3.97.57-5.64 1.74-1.7 1.2-3.05 2.83-3.91 4.72-.97 2.11-1.45 4.41-1.41 6.73 0 2.8.64 4.92 1.9 6.34a6.68 6.68 0 0 0 5.25 2.14c2.09 0 3.95-.58 5.58-1.77 1.67-1.24 2.99-2.89 3.84-4.79.94-2.02 1.41-4.24 1.41-6.7q0-4.065-1.8-6.24c-1.2-1.46-2.94-2.17-5.22-2.17m4.78 7.95c0 2.06-.36 3.97-1.05 5.74s-1.61 3.18-2.75 4.23-2.41 1.58-3.81 1.58c-1.22 0-2.13-.48-2.72-1.44-.59-.95-.88-2.46-.88-4.52 0-2.24.31-4.24.95-6.01.52-1.58 1.4-3.02 2.56-4.2.96-.98 2.27-1.54 3.64-1.55 2.72 0 4.08 2.06 4.08 6.17h-.01Zm55.75-23.65c.5.53 1.22.79 2.14.79.53 0 1.07-.11 1.65-.36.57-.24 1.06-.63 1.48-1.18s.63-1.27.63-2.14c0-1.37-.28-2.38-.85-3.09-.56-.71-1.3-1.19-2.19-1.44s-1.85-.39-2.86-.39c-2.15 0-3.91.39-5.28 1.19a9.25 9.25 0 0 0-3.28 3.12c-.81 1.29-1.41 2.72-1.8 4.3s-.64 3.17-.75 4.79-.17 3.11-.17 4.47v14.58h-.32l-19.9-31.71h-11.16v1.97c1.13 0 2.05.12 2.75.36s1.38.68 2.04 1.34c.41.41.87.95 1.38 1.59v21.26c0 1.62-.06 3.24-.17 4.86s-.34 3.11-.66 4.47-.78 2.44-1.38 3.25c-.52.77-1.4 1.23-2.33 1.21-.52 0-.93-.26-1.21-.78-.28-.53-.57-1.13-.85-1.84-.27-.69-.69-1.31-1.21-1.84-.53-.54-1.29-.79-2.3-.79-.83 0-1.63.28-2.4.85s-1.15 1.51-1.15 2.82.29 2.32.88 3.02c.6.71 1.4 1.23 2.3 1.48.94.28 1.94.43 2.99.43h.02c2.58 0 4.59-.56 6.03-1.72 1.45-1.18 2.54-2.74 3.15-4.5.65-1.84 1.06-3.76 1.24-5.78.17-2 .26-3.86.26-5.58v-17.53h.29l22.82 35.11h2.17l-.04-.02v-26.13c0-1.66.07-3.37.2-5.12s.37-3.37.69-4.86c.32-1.48.81-2.69 1.44-3.61s1.46-1.38 2.46-1.38c.52 0 .93.26 1.21.78s.57 1.14.85 1.87c.29.72.68 1.34 1.19 1.87Zm-1.11 32.91h18.32v3.15H192.4z"/>
	<path d="M201.78 929.58c-2.76-.09-5.43.98-7.36 2.96-1.93 1.97-2.89 4.58-2.89 7.82q0 5.385 2.79 8.31c1.87 1.95 4.34 2.92 7.46 2.92 2.89 0 5.28-.97 7.19-2.9s2.86-4.75 2.86-8.46c0-3.33-.91-5.93-2.72-7.82s-4.34-2.82-7.32-2.82Zm4.15 18.1c-.83 1.24-2.15 1.87-3.94 1.87-1.93-.01-3.36-.75-4.3-2.24s-1.41-4-1.41-7.55c0-2.84.47-4.94 1.41-6.27s2.24-2 3.91-2c2.02 0 3.45.81 4.3 2.43s1.28 3.8 1.28 6.51c0 3.59-.41 6.01-1.24 7.26Zm25.18-20.86c1.01-.26 2.03-.49 3.06-.72 1.03-.21 1.89-.54 2.6-.95s1.05-1.04 1.05-1.87c0-.69-.25-1.31-.73-1.84s-1.04-.78-1.7-.78-1.38.34-2.14 1.02c-.77.68-1.6 1.49-2.5 2.43-.9.95-1.85 1.81-2.86 2.6l-.07-.07c-.04-1.4.04-2.56.29-3.48.24-.92.49-1.77.75-2.53s.39-1.59.39-2.46c0-.78-.25-1.37-.73-1.74s-1.03-.56-1.65-.56c-.57 0-1.12.19-1.65.56s-.78.97-.78 1.8.1 1.6.32 2.33.46 1.55.69 2.46.36 2.1.36 3.55l-.07.07c-.96-.75-1.9-1.58-2.82-2.5s-1.78-1.74-2.56-2.43c-.78-.71-1.51-1.05-2.16-1.05s-1.22.29-1.7.88c-.45.49-.71 1.13-.73 1.8 0 .78.3 1.38.92 1.77s1.41.68 2.4.88 2 .44 3.06.69 1.99.69 2.82 1.31v.13c-.74.54-1.63.95-2.69 1.25s-2.07.58-3.06.82c-.99.25-1.8.58-2.46 1.02s-.99 1.05-.99 1.84c0 .57.25 1.13.73 1.68s1.04.84 1.7.88c.74 0 1.48-.38 2.23-1.15s1.56-1.65 2.43-2.63c.81-.93 1.79-1.7 2.89-2.26l.07.07c.04 1.35-.06 2.5-.29 3.41s-.48 1.76-.72 2.5c-.25.81-.37 1.65-.36 2.5 0 .78.26 1.38.78 1.77.53.39 1.07.59 1.65.59l-.03-.02c.62 0 1.16-.2 1.65-.59.48-.4.73-.96.73-1.71 0-.87-.12-1.69-.39-2.46-.28-.84-.53-1.7-.75-2.56-.24-.94-.34-2.09-.29-3.45l.07-.07c1.05.71 2.02 1.53 2.89 2.5.78.87 1.6 1.7 2.46 2.5.77.71 1.49 1.05 2.14 1.05s1.22-.25 1.7-.75c.48-.49.73-1.07.73-1.74 0-.78-.27-1.39-.82-1.8-.54-.41-1.27-.76-2.16-1.02l-2.96-.85c-1.07-.3-2.15-.74-3.25-1.31V928c.74-.56 1.59-.96 2.5-1.18Zm29.34-11.95-1.05-1.71a31.5 31.5 0 0 0-12.71 11.59c-3.17 5.05-4.76 11.13-4.76 18.35s1.59 13.39 4.76 18.49c3.07 5 7.47 9.06 12.71 11.72l1.05-1.84c-4.77-3.15-8.15-7.02-10.14-11.59s-2.99-10.24-2.99-16.77 1-12.06 2.99-16.62 5.37-8.43 10.14-11.62m5.43-1.7-1.05 1.71c4.81 3.19 8.21 7.07 10.18 11.62 1.97 4.56 2.96 10.01 2.96 16.62s-.99 12.19-2.96 16.77c-1.97 4.57-5.36 8.44-10.18 11.59l1.05 1.84c5.24-2.66 9.63-6.72 12.71-11.72 3.17-5.11 4.76-11.31 4.76-18.49s-1.59-13.29-4.76-18.35a31.5 31.5 0 0 0-12.71-11.59m22.85 29.61h61.72v3.74h-61.72zm89.3-18.26h-4.72v17.4h-17.2v4.47h17.2v17.4h4.72v-17.4h17.2v-4.47h-17.2zm22.82 25.28h39.13v4.4h-39.13zm0-15.63h39.13v4.47h-39.13zm52.11 19.69c-.83-.49-1.79-.73-2.75-.69-1.32 0-2.33.39-3.02 1.15-.69.73-1.07 1.71-1.05 2.72 0 .96.28 1.8.85 2.5.56.71 1.49 1.05 2.75 1.05.66 0 1.33-.13 2.04-.39 0 1.75-.28 3.15-.85 4.2s-1.28 1.85-2.1 2.4-1.67 1-2.5 1.34l.78 1.63h.02c.66-.29 1.44-.68 2.36-1.16s1.81-1.11 2.69-1.9c.93-.87 1.67-1.93 2.19-3.09.59-1.27.88-2.82.88-4.66 0-1.23-.2-2.27-.59-3.12a4.46 4.46 0 0 0-1.7-1.97Zm.51-17.28c.71-.77 1.05-1.66 1.05-2.66 0-1.14-.36-2.13-1.05-2.96-.71-.83-1.74-1.24-2.96-1.24s-2.19.4-2.89 1.21c-.71.82-1.05 1.83-1.05 2.92s.31 2.02.95 2.75c.64.75 1.61 1.12 2.92 1.12 1.32.01 2.32-.37 3.02-1.14Zm11.67 17.04c-1.22 0-2.19.4-2.89 1.21-.71.82-1.05 1.83-1.05 2.92s.31 2.02.95 2.75c.64.75 1.61 1.12 2.92 1.12 1.32.01 2.32-.38 3.02-1.14.71-.77 1.05-1.66 1.05-2.66 0-1.14-.36-2.13-1.05-2.96-.75-.84-1.83-1.3-2.96-1.24Zm0-23.9c-1.22 0-2.19.4-2.89 1.21-.71.82-1.05 1.83-1.05 2.92s.31 2.02.95 2.75c.64.75 1.61 1.12 2.92 1.12 1.32.01 2.32-.37 3.02-1.14s1.05-1.66 1.05-2.66c0-1.14-.36-2.13-1.05-2.96-.75-.84-1.83-1.3-2.96-1.24Zm179.2-599.54q-3.405 1.77-11.76 1.77v3.29h40.71v-3.3q-8.115 0-11.64-1.77c-2.35-1.18-3.53-3.21-3.53-6.11v-63.98h-3.41l-22.82 6.47v3.89c1.25-.39 2.66-.72 4.23-1s3.06-.49 4.47-.65 2.51-.24 3.29-.24c1.49 0 2.51.46 3.06 1.35.54.91.82 2.37.82 4.41v49.75c0 2.9-1.14 4.94-3.41 6.11Zm41.06-52.68 2.82 1.18c2.19-4.39 4.64-7.41 7.34-9.06s5.98-2.47 9.82-2.47c4.55 0 8.13 1.32 10.76 3.94 2.63 2.63 3.94 6.14 3.94 10.52 0 4.08-.64 7.76-1.94 11.05a38.8 38.8 0 0 1-5.82 9.82c-3.07 3.79-6.32 7.43-9.76 10.88l-17.87 17.88v4h46.33l3.76-18.81h-3.41c-1.34 3.53-2.63 6-3.89 7.41s-3.45 2.12-6.58 2.12h-16.35l-8.23.35v-.58l15.53-14.7c4.15-4.23 7.66-8.04 10.52-11.41 2.6-2.96 4.77-6.27 6.47-9.82 1.43-3.12 2.17-6.51 2.17-9.94 0-4.15-.95-7.74-2.88-10.76-1.93-3.01-4.57-5.36-7.94-7.05s-7.29-2.53-11.76-2.53c-5.72 0-10.55 1.57-14.47 4.7s-6.79 7.57-8.59 13.29Zm85.81 52.05c-2.24.91-4.64 1.37-7.05 1.35-1.51 0-3.01-.31-4.41-.88-1.46-.6-2.89-1.27-4.29-2-1.33-.71-2.68-1.38-4.05-2a8.8 8.8 0 0 0-3.71-.88c-1.49 0-2.63.55-3.41 1.65a6 6 0 0 0-1.18 3.53c0 1.02.37 2.02 1.12 3s2.06 1.81 3.94 2.47 4.59 1 8.12 1h-.02c5.72-.01 11.02-.92 15.88-2.72s8.78-4.52 11.76-8.17 4.47-8.14 4.47-13.47c0-3.53-.78-6.56-2.35-9.11a21.1 21.1 0 0 0-6.29-6.47 31.9 31.9 0 0 0-8.64-4.05v-.35c3.68-2.35 6.72-4.78 9.11-7.29 2.38-2.51 3.58-5.8 3.58-9.88 0-4.47-1.65-8.21-4.94-11.23-3.29-3.01-7.96-4.52-14-4.52-4.52-.08-8.94 1.32-12.58 4-3.61 2.66-6.51 6.55-8.7 11.64l2.71 1.53c1.7-2.78 3.94-5.2 6.58-7.12 2.35-1.6 5.14-2.41 8.82-2.41s6.61.96 8.77 2.88c2.16 1.93 3.24 4.61 3.24 8.06 0 3.14-.79 5.92-2.41 8.35a16.64 16.64 0 0 1-6.17 5.64c-2.38 1.31-5.05 2-7.76 2h-2.24v4.47h2.35c3.76 0 7.27.73 10.52 2.17 3.26 1.46 5.87 3.47 7.83 6.06 1.97 2.64 3 5.87 2.93 9.17 0 3.85-.71 6.85-2.12 9a11.65 11.65 0 0 1-5.41 4.59Zm57.54 5.69h10.47v-18.59h11.99v-8.12h-11.99v-49.16h-7.18l-35.87 49.87v7.41h32.58zm-26.11-26.7v-.47l25.64-35.87h.47v36.34zm58.51 26.58q3.36 1.65 10.17 1.65c6.81 0 8.98-.57 12.82-1.7 3.64-1.03 7.03-2.77 10-5.12 2.82-2.28 5.06-5.21 6.53-8.53 1.6-3.77 2.39-7.84 2.3-11.94 0-3.68-.55-6.87-1.65-9.58-1.04-2.63-2.65-5-4.7-6.94a24.2 24.2 0 0 0-7.23-4.65c-3-1.24-6.11-2.16-9.29-2.77-3.63-.69-7.31-1.18-11-1.47l3.18-13.4h27.63l1.88-9.53h-32.22l-7.29 30.7 1.41 1.77c3.92.08 7.7.39 11.35.94s6.92 1.53 9.82 2.94 5.22 3.45 6.94 6.11 2.59 6.19 2.59 10.58c0 4.08-.73 7.33-2.17 9.76a12.93 12.93 0 0 1-5.77 5.3 18.7 18.7 0 0 1-7.83 1.65c-1.88 0-3.57-.3-5.06-.88a26.3 26.3 0 0 1-4.05-2c-1.15-.71-2.33-1.38-3.53-2a7.4 7.4 0 0 0-3.47-.88c-1.49 0-2.64.52-3.47 1.53-.81 1-1.25 2.24-1.23 3.53 0 2.19 1.11 3.84 3.35 4.94Zm10.18 1.65h-.01zm53.4-4.41c3.72 2.86 8.49 4.29 14.29 4.29h.02c7.45.01 13.19-2.19 17.23-6.63 4.04-4.43 6.06-10.95 6.06-18.64s-1.93-13.73-5.77-18.12-8.98-6.58-15.41-6.58c-3.06 0-5.77.63-8.12 1.88s-4.75 3.06-7.18 5.41l-.83-.11c.91-5.44 2.99-10.62 6.11-15.17 3-4.34 6.89-7.99 11.41-10.7a39.85 39.85 0 0 1 15.06-5.3l-.24-3.41a51 51 0 0 0-17.47 3.58c-5.3 2.16-9.88 5.17-13.76 9.06-3.89 3.89-6.9 8.61-9.06 14.17s-3.24 11.88-3.24 18.93c0 5.72.88 11.01 2.64 15.82 1.57 4.56 4.43 8.56 8.23 11.52Zm1.59-33.1a11.03 11.03 0 0 1 4.88-4.41c2.01-.91 4.2-1.37 6.4-1.35 4.86 0 8.49 1.8 10.88 5.41 2.38 3.61 3.58 8.07 3.58 13.4 0 7.45-1.11 12.67-3.35 15.7a10.86 10.86 0 0 1-9.24 4.52c-3.37.01-6.17-1.06-8.41-3.22-2.23-2.15-3.9-5.12-4.99-8.88s-1.65-8.07-1.65-12.93c0-3.45.63-6.19 1.88-8.23Zm-361.57 135.6 3.65.36c1.1-2.59 2.02-4.51 2.77-5.77a5.3 5.3 0 0 1 2.88-2.47c1.65-.45 3.35-.65 5.06-.59h26.22l-27.76 65.51h9.29l27.52-71.38v-3.65h-44.93zm64.2 25.4c-2.18 1.64-4 3.7-5.35 6.06a16.3 16.3 0 0 0-1.77 7.94c0 4 1.02 7.34 3.06 10.05s4.83 4.72 8.35 6.06 7.57 2 12.11 2v.02c4.7 0 8.83-.72 12.41-2.17s6.35-3.61 8.35-6.47 3-6.34 3-10.41q0-4.935-1.77-8.7c-1.77-3.765-3.18-4.99-6-7.47a73.7 73.7 0 0 0-10.23-7.22v-.38c3.07-1.64 6.02-3.51 8.82-5.59 2.19-1.69 3.81-3.55 4.83-5.59s1.53-4.47 1.53-7.29c0-3.14-.91-5.92-2.71-8.35-1.81-2.43-4.25-4.36-7.36-5.77s-6.61-2.12-10.52-2.12c-4.31 0-8.15.71-11.52 2.12s-6.02 3.41-7.94 6-2.88 5.69-2.88 9.29c0 2.74.4 5.23 1.23 7.47.82 2.24 2.38 4.49 4.7 6.76 2.69 2.54 5.59 4.85 8.65 6.92v.36c-3.62 2.43-6.61 4.59-9 6.47Zm28.7 9.41c1.06 2.12 1.59 4.39 1.59 7.05s-.62 4.87-1.83 6.64a11.5 11.5 0 0 1-4.88 4c-2.11.92-4.4 1.38-6.71 1.35-4.47 0-8.05-1.25-10.76-3.76q-4.05-3.765-4.05-11.64 0-4.23 1.35-7.29c1.35-3.06 2.22-3.92 3.94-5.64q2.52-2.475 5.25-4.71c4.39 2.84 7.84 5.31 10.32 7.37 2.79 2.31 4.7 4.52 5.77 6.64Zm-25.12-39.51c0-3.61 1.15-6.4 3.47-8.41s5.48-3 9.47-3c3.76 0 6.72 1.04 8.88 3.11q3.24 3.12 3.24 9c0 5.88-.81 7.19-2.41 9.82-1.46 2.36-4.03 4.68-7.74 6.94-4.98-3.08-8.67-5.81-11.03-8.17a12.7 12.7 0 0 1-3.89-9.29Zm65.8 34.7c2.98 0 5.62-.6 7.94-1.83a37 37 0 0 0 7.47-5.46l.71.11c-.86 6.35-2.81 11.73-5.82 16.17-2.91 4.33-6.8 7.92-11.35 10.47a39.8 39.8 0 0 1-14.94 4.76l.24 3.41v.03c6 0 11.97-.99 17.65-2.94a35.86 35.86 0 0 0 13.53-8.53c3.9-4.03 6.87-8.87 8.7-14.17 2.04-5.64 3.06-12.27 3.06-19.87 0-5.81-.85-11.14-2.53-16-1.48-4.56-4.24-8.6-7.94-11.64-3.61-2.9-8.35-4.36-14.23-4.36-7.37 0-13.16 2.21-17.34 6.64-4.2 4.42-6.29 10.76-6.29 18.52s1.93 13.82 5.77 18.17c3.84 4.36 8.98 6.53 15.41 6.53Zm-7.36-41.29c2.19-2.96 5.67-4.67 9.35-4.59 3.45 0 6.25 1.07 8.41 3.24 2.15 2.16 3.72 5.12 4.7 8.88.97 3.76 1.47 8.03 1.47 13.06s-1.31 8.58-3.94 10.65a14.3 14.3 0 0 1-9.11 3.11c-4.86 0-8.49-1.7-10.87-5.12-2.4-3.4-3.59-7.86-3.59-13.35 0-7.52 1.2-12.82 3.59-15.88Zm44.47 44.58c.94 4.7 2.43 8.86 4.47 12.46 1.9 3.47 4.65 6.41 7.99 8.53 3.29 2.07 7.29 3.11 11.99 3.11s8.59-1.06 11.88-3.18c3.34-2.17 6.11-5.11 8.06-8.59 2.17-3.85 3.72-8.02 4.59-12.35.99-4.76 1.48-9.61 1.47-14.47 0-8.07-1.1-14.95-3.29-20.64s-5.22-10.03-9.06-13.06c-3.81-3.01-8.55-4.6-13.4-4.52-5.64 0-10.4 1.61-14.29 4.83-3.89 3.21-6.82 7.66-8.82 13.35-2 5.68-3 12.25-3 19.69q0 7.77 1.41 14.82Zm13.63-40.24c2.51-5.64 5.84-8.46 10.7-8.46s8.52 2.84 11 8.53 3.71 14.49 3.71 26.4c0 11.29-1.28 19.72-3.82 25.28-2.55 5.56-6.14 8.35-10.76 8.35h-.01c-4.7 0-8.31-2.84-10.82-8.53s-3.76-13.91-3.76-25.58 1.25-20.34 3.76-25.99m56.91 6.24c-1.88.55-3.69 1.04-5.46 1.47-1.77.44-3.24 1.04-4.41 1.83-1.14.7-1.81 1.96-1.77 3.29 0 1.02.44 2.02 1.3 3 .76.93 1.86 1.5 3.06 1.59 1.33 0 2.66-.68 4-2.06 1.49-1.53 2.94-3.1 4.36-4.7 1.45-1.67 3.21-3.04 5.17-4.05l.12.11c.08 2.43-.1 4.47-.53 6.11-.44 1.65-.87 3.14-1.3 4.47-.45 1.45-.67 2.95-.65 4.47q0 2.115 1.41 3.18c.93.72 1.91 1.06 2.93 1.06h.04c1.08 0 2.12-.38 2.94-1.07.89-.76 1.37-1.89 1.3-3.06 0-1.57-.24-3.03-.71-4.41-.51-1.51-.97-3.04-1.35-4.59-.43-1.68-.6-3.74-.53-6.17l.12-.11c1.88 1.25 3.61 2.74 5.17 4.47s3.03 3.21 4.41 4.47c1.37 1.25 2.64 1.88 3.82 1.88s2.19-.45 3.06-1.35c.83-.82 1.3-1.94 1.3-3.11.08-1.25-.47-2.47-1.47-3.24-1.17-.84-2.49-1.46-3.89-1.83l-5.3-1.53c-2.02-.59-3.97-1.37-5.82-2.35v-.24c1.32-1.01 2.85-1.73 4.47-2.12 1.8-.47 3.62-.91 5.46-1.3s3.39-.95 4.65-1.7a3.64 3.64 0 0 0 1.88-3.35c0-1.25-.44-2.35-1.3-3.29q-1.29-1.41-3.06-1.41c-1.77 0-2.45.62-3.82 1.83a77 77 0 0 0-4.47 4.36c-1.59 1.67-3.3 3.22-5.12 4.65l-.12-.12c-.08-2.51.09-4.59.53-6.24s.88-3.15 1.35-4.52c.47-1.38.71-2.84.71-4.41 0-1.41-.44-2.44-1.3-3.11a4.75 4.75 0 0 0-2.94-1c-1.02 0-1.99.34-2.93 1q-1.41 1.005-1.41 3.24c0 2.235.19 2.88.58 4.18s.79 2.77 1.23 4.41c.44 1.65.65 3.76.65 6.35l-.12.11a52 52 0 0 1-5.06-4.47c-1.49-1.5-3.02-2.95-4.59-4.36-1.41-1.25-2.71-1.88-3.89-1.88s-2.19.53-3.06 1.59c-.8.89-1.26 2.04-1.3 3.24q0 2.115 1.65 3.18c1.65 1.065 2.52 1.23 4.29 1.59q2.64.525 5.46 1.23c2.82.705 3.57 1.25 5.06 2.35v.24c-1.34.94-2.94 1.69-4.83 2.24Zm34.21 18c0 7.85 1.69 14.82 5.06 20.94a36.9 36.9 0 0 0 13.94 14.34c5.92 3.45 12.69 5.17 20.29 5.17s14.62-1.72 20.58-5.17 10.63-8.23 14-14.34 5.06-13.02 5.06-20.94-1.69-14.94-5.06-21.05c-3.26-6-8.1-10.98-14-14.41-5.96-3.48-12.98-5.23-20.58-5.23s-14.37 1.74-20.29 5.23a37.4 37.4 0 0 0-13.94 14.41c-3.38 6.11-5.06 13.2-5.06 21.05m21.06-32.11c5.25-3.14 11.17-4.7 18.23-4.7s13.21 1.57 18.46 4.7c5.25 3.15 9.35 7.47 12.29 13s4.41 11.98 4.41 19.11-1.47 13.45-4.41 18.93a32.87 32.87 0 0 1-12.29 12.93c-5.25 3.14-11.41 4.7-18.46 4.7s-12.98-1.57-18.23-4.7c-5.25-3.14-9.33-7.45-12.23-12.93-2.91-5.49-4.36-11.72-4.36-18.93s1.46-13.58 4.36-19.11c2.77-5.4 7.01-9.9 12.23-13"/>
	<path d="M880.42 474.38h.02c4.86-.01 8.68-1.01 11.47-3.01s5.04-4.25 6.76-6.76l-2.24-2a17.6 17.6 0 0 1-6 4.23c-2.12.87-4.94 1.3-8.46 1.3-4.94 0-8.62-1.49-11.05-4.47-2.44-2.98-3.65-7.13-3.65-12.46 0-3.68.31-6.86.94-9.53s1.81-4.71 3.58-6.17c1.76-1.44 4.29-2.17 7.58-2.17 4.08 0 7.23.93 9.47 2.77 2.24 1.85 3.78 4.93 4.65 9.24h3.29v-15.76h-2.82c-1.18 1.41-2 2.12-2.47 2.12-.63 0-1.34-.2-2.17-.59s-1.97-.77-3.41-1.12c-1.46-.35-3.47-.53-6.06-.53-7.07 0-12.39 2.02-16 6.06s-5.41 9.54-5.41 16.76 1.88 12.71 5.64 16.47q5.64 5.64 16.35 5.64Zm72.22-40.47c-1.96-2.27-3.29-3.76-4-4.47s-1.3-1.33-1.77-1.88v-.24c1.41-.31 2.72-.86 3.94-1.65s1.83-2.16 1.83-4.12c0-2.27-1-3.77-3-4.52s-4.25-1.12-6.76-1.12h-10.11v1.65c1.33 0 2.17.16 2.53.47.35.32.53.99.53 2v12.58c0 1.34-.24 2.16-.71 2.47s-1.33.47-2.59.47v1.88h11.52v-1.88c-1.57 0-2.58-.16-3-.47-.44-.31-.65-1.14-.65-2.47v-4.59h1.41c.39 0 .83.28 1.3.83.78 1.02 1.53 2.02 2.24 3s2 2.84 3.89 5.59h6.24v-1.88q-1.065 0-1.53-.36c-.31-.24-.75-.67-1.3-1.3Zm-6.59-8.81c-.94.63-2.43.94-4.47.94h-1.18v-7.88h2.12c1.65 0 2.88.22 3.71.65.82.44 1.23 1.35 1.23 2.77 0 1.72-.47 2.9-1.41 3.53Z"/>
	<path d="M953.77 408.75c-3.02-1.8-6.64-2.71-10.41-2.71s-7.17.91-10.18 2.71a20 20 0 0 0-7.18 7.34c-1.76 3.1-2.64 6.73-2.64 10.65s.86 7.43 2.59 10.52c1.66 3.03 4.12 5.55 7.11 7.29a20.04 20.04 0 0 0 10.29 2.64h.01c3.93 0 7.39-.87 10.41-2.64 2.99-1.73 5.45-4.26 7.11-7.29 1.72-3.09 2.59-6.53 2.59-10.52s-.86-7.55-2.59-10.65a19.35 19.35 0 0 0-7.11-7.34m2.16 30.98c-3.21 3.41-7.41 5.12-12.58 5.12s-9.35-1.7-12.53-5.12c-3.17-3.41-4.76-7.59-4.76-13s1.58-9.82 4.76-13.23 7.36-5.12 12.53-5.12 9.37 1.7 12.58 5.12c3.21 3.41 4.83 7.97 4.83 13.23s-1.61 9.58-4.83 13M638.19 634.86c2.59 2.55 5.22 5.16 7.88 7.83l2.82-2.47h.01l-16.23-21.42v-.71l15.88-21.05-2.71-2.35q-3.72 3.72-7.47 7.41l-7.7 7.59c-2.66 2.62-5.36 5.19-8.12 7.7v2.71c2.66 2.35 5.3 4.77 7.88 7.23 2.59 2.46 5.17 4.98 7.76 7.52Z"/>
	<path d="m657.36 618.08 15.88-21.05-2.71-2.35c-2.43 2.43-4.93 4.9-7.47 7.41l-7.7 7.59c-2.64 2.6-5.3 5.17-7.99 7.7v2.71c2.66 2.35 5.26 4.76 7.82 7.23 5.23 5.08 10.43 10.2 15.59 15.35l2.82-2.47h.01l-16.23-21.42v-.71Zm54.8 2.03v-2.71a669 669 0 0 1-15.76-15.29c-2.49-2.49-5-4.96-7.52-7.41l-2.71 2.35 16 21.05v.71l-16.23 21.41 2.71 2.47 7.88-7.82c2.59-2.54 5.17-5.05 7.76-7.52s5.22-4.88 7.88-7.23Z"/>
	<path d="M736.86 620.11v-2.71a734 734 0 0 1-15.76-15.29c-2.49-2.49-5-4.96-7.52-7.41l-2.59 2.35 15.88 21.05v.71l-16.23 21.41 2.71 2.47 7.88-7.82c2.59-2.54 5.17-5.05 7.76-7.52s5.22-4.88 7.88-7.23Zm40.95-41.17v23.87h-31.05v7.88h31.05v25.17h7.99v-25.17h31.05v-7.88H785.8v-23.87zm-31.05 63.51h70.09v7.88h-70.09zm142.76-59.4-27.76 27.76L834 583.05l-5.64 5.53 27.81 27.81-27.81 27.81 5.53 5.53 27.79-27.85 27.83 27.85 5.53-5.64-27.79-27.79 27.79-27.85-5.53-5.41Zm28.67 59.87 3.37-21.17h18.53l-3.2 21.17h5.64l3.2-21.17h14.68v-4.7h-13.97l2.54-16.82h13.89v-4.83H949.7l3.29-21.75h-5.64l-3.29 21.75h-18.32l3.48-21.88-5.64.12-3.44 21.75h-14.21v4.83h13.45l-2.65 16.82h-13.6v4.7h12.86l-3.35 21.17h5.54Zm6.8-42.7h18.35l-2.54 16.82h-18.49zM813.63 768.65c3.53 0 6.94-.37 10.23-1.12 3.29-.74 6.24-1.99 8.82-3.76 2.59-1.77 4.64-4.08 6.17-6.94s2.3-6.42 2.3-10.65c0-4.78-1.2-8.44-3.58-11s-5.52-4.33-9.41-5.35a48.5 48.5 0 0 0-12.41-1.53H789.4v3.41c2.35 0 4.23.2 5.64.59s2.42 1.16 3 2.3c.59 1.13.88 2.8.88 4.99v24.23h-9.64v4.83h9.64v8.23h-9.53v4.94h9.53v6.24c0 3.14-.24 5.49-.71 7.05a4.45 4.45 0 0 1-2.82 3.11c-1.41.5-3.57.76-6.47.76v3.41h31.62v-3.41c-3.06 0-5.41-.25-7.05-.76a4.95 4.95 0 0 1-3.35-3.11c-.59-1.57-.88-3.96-.88-7.18v-6.11h20.7v-4.94h-20.7v-8.23h4.36Zm-4.33-35.4c1.83-.3 3.68-.46 5.53-.47 5.09 0 8.9 1.3 11.41 3.89s3.76 6.31 3.76 11.17c0 6.19-1.38 10.4-4.12 12.64-2.74 2.23-6.9 3.35-12.46 3.35h-4.12zm95.1 53.27c-2.19 3.37-4.67 5.72-7.41 7.05-2.74 1.34-6.08 2-10 2-4.78 0-8.59-1.38-11.41-4.12s-4.86-6.51-6.11-11.29c-.58-2.21-1.01-4.57-1.32-7.07h21.68l.94-5.17h-23.06c-.13-2.54-.13-5.09-.02-7.64h23.43l1.18-5.17h-24.2c.11-.94.24-1.88.38-2.82.58-3.84 1.55-7.34 2.88-10.52s3.1-5.72 5.3-7.65c2.21-1.92 5.06-2.95 7.99-2.88 4.86 0 8.54 1.42 11.05 4.29s4.15 7.78 4.94 14.76h3.65l1.06-23.29h-2.71c-.78 1.25-1.46 2.19-2 2.82s-1.1.94-1.65.94c-.47 0-1.23-.36-2.3-1.06s-2.53-1.39-4.41-2.06c-2.4-.74-4.9-1.07-7.41-1-6.11 0-11.13 1.62-15.05 4.88-3.93 3.26-6.93 7.68-9 13.29a61 61 0 0 0-2.74 10.3h-5.42l-1.06 5.17h5.73c-.14 1.21-.25 2.42-.32 3.64 0 1.35.03 2.69.09 4h-5.72l-1.06 5.17h7.18c.24 2.27.56 4.48.99 6.59.99 4.87 2.53 9.13 4.65 12.76s4.9 6.46 8.35 8.46 7.6 3 12.46 3h.02c4.15 0 7.68-.71 10.58-2.12s5.37-3.27 7.41-5.59c2.05-2.33 3.79-4.92 5.17-7.7l-2.71-2Zm54.66-51.05c3.1 2.66 5.27 7.02 6.53 13.06H969v-15.29a30.4 30.4 0 0 0-6.35-3.29 41.4 41.4 0 0 0-13.06-2.64v-7.8h-5.06v7.8c-6.29.32-11.36 1.9-15.23 4.76-4.19 2.9-6.65 7.72-6.53 12.82 0 3.29.75 6.25 2.24 8.88s4 5.17 7.52 7.65c3.82 2.58 7.83 4.88 11.99 6.86v30.49c-4.72-.02-8.71-1.41-11.94-4.18q-4.875-4.17-6.87-14.76h-3.41v17.88c2.19 1.25 4.4 2.28 6.64 3.11s4.69 1.43 7.36 1.83c2.47.36 5.22.56 8.23.58v10.12h5.06v-10.3c3.58-.28 6.84-.91 9.77-1.89 3.79-1.17 7.13-3.47 9.58-6.58 2.32-3.01 3.47-6.92 3.47-11.7 0-3.06-.59-5.78-1.77-8.17-1.19-2.4-2.83-4.56-4.83-6.35-2.04-1.84-4.29-3.5-6.76-4.99s-5-2.87-7.59-4.12l-1.88-.95v-26.67c3.73.38 6.89 1.66 9.46 3.86Zm-.4 41.17c2.43 2.27 3.65 5.3 3.65 9.06 0 4.56-1.38 7.87-4.12 9.94-1.96 1.48-4.84 2.42-8.59 2.84v-27.76c4.01 2.05 7.04 4.02 9.06 5.9Zm-19.24-23.82c-2.79-1.6-4.7-3.19-5.77-4.76s-1.59-3.49-1.59-5.77c0-3.61 1.31-6.31 3.94-8.12 2.1-1.44 5-2.31 8.53-2.6v24.05c-1.72-.91-3.43-1.85-5.12-2.82Zm-399.77 191.9c-2.19 0-3.92.73-5.17 2.17s-1.88 3.27-1.88 5.23.56 3.61 1.7 4.94c1.13 1.33 2.88 2 5.23 2 2.35.01 4.15-.68 5.41-2.05s1.88-2.96 1.88-4.76c0-2.04-.63-3.81-1.88-5.3s-3.1-2.24-5.3-2.24h.01Zm33.29 0c-2.19 0-3.92.73-5.17 2.17s-1.88 3.27-1.88 5.23.56 3.61 1.7 4.94c1.13 1.33 2.88 2 5.23 2 2.35.01 4.15-.68 5.41-2.05s1.88-2.96 1.88-4.76c0-2.04-.63-3.81-1.88-5.3s-3.1-2.24-5.3-2.24h.01Zm33.27 0c-2.19 0-3.92.73-5.17 2.17s-1.88 3.27-1.88 5.23.57 3.61 1.7 4.94 2.88 2 5.23 2c2.35.01 4.15-.68 5.41-2.05s1.88-2.96 1.88-4.76c0-2.04-.63-3.81-1.88-5.3s-3.1-2.24-5.3-2.24h.01Zm54.57-69.28c-2.04 0-3.49.64-4.36 1.94a15.4 15.4 0 0 0-2 4.29l-8.23 27.76 4 1.77 13.29-25.52h.01c.55-1.1.99-2.04 1.3-2.82.79-1.94.57-4.14-.59-5.88-.71-1.02-1.85-1.53-3.41-1.53Zm-15.41 1.53c-.71-1.02-1.85-1.53-3.41-1.53-2.05 0-3.49.64-4.36 1.94a15.4 15.4 0 0 0-2 4.29l-8.23 27.76 4 1.77 13.29-25.52h.01c.55-1.1.99-2.04 1.3-2.82.79-1.94.57-4.14-.59-5.88Zm233.18 12.94c-6.58-3.61-14.59-5.41-23.99-5.41-7.05 0-13.53 1.16-19.4 3.47s-10.95 5.59-15.23 9.82c-4.27 4.23-7.56 9.28-9.88 15.12-2.32 5.83-3.47 12.33-3.47 19.46q0 14.58 5.64 25.23 5.655 10.65 16.47 16.53c7.21 3.92 16 5.88 26.35 5.88 5.09.01 10.05-.6 14.88-1.81 5.3-1.41 10.38-3.53 15.12-6.29l-1.53-3.41a51.3 51.3 0 0 1-14.17 4.59c-4.51.72-8.96 1.06-13.35 1.06-8.54 0-15.88-1.69-21.99-5.06a33.94 33.94 0 0 1-14.05-14.59c-3.26-6.35-4.88-13.98-4.88-22.93s1.66-16.53 4.99-22.76a34.16 34.16 0 0 1 13.87-14.23c5.91-3.25 12.8-4.88 20.64-4.88 7.29 0 13.68 1.5 19.17 4.52s9.76 7.29 12.82 12.82 4.59 11.75 4.59 19.82-1.1 14.32-3.29 18.75c-2.19 4.42-5.72 6.64-10.58 6.64-1.8 0-2.99-.63-3.58-1.88a9.9 9.9 0 0 1-.88-4.36l.47-39.51h-5.41l-3.06 5.06h-.83q-1.875-2.355-4.65-4.05c-2.775-1.695-4.18-1.7-7-1.7-4.08 0-7.6.85-10.58 2.53-2.96 1.67-5.5 4.01-7.41 6.82-2 2.94-3.47 6.2-4.36 9.64-.94 3.55-1.41 7.21-1.41 10.88 0 6.19.87 11.03 2.64 14.52 1.76 3.49 4.03 5.92 6.82 7.29 2.68 1.35 5.64 2.05 8.64 2.06 3.53 0 6.79-1 9.76-3 3.05-2.09 5.59-4.84 7.41-8.06h.58c.47 3.84 1.53 6.57 3.18 8.17s4.31 2.41 7.99 2.41c4.78 0 8.9-1.27 12.35-3.82 3.45-2.54 6.14-6.21 8.06-11 1.91-4.77 2.88-10.58 2.88-17.4 0-8.23-1.74-15.54-5.23-21.93a37.2 37.2 0 0 0-15.12-14.99Zm-14.93 52.1c-.94 2.43-2.51 4.75-4.7 6.94s-5.14 3.29-8.82 3.29c-2.04 0-3.96-.52-5.77-1.53-1.8-1.01-3.28-2.91-4.41-5.7s-1.7-6.73-1.7-11.82c0-3.61.44-7.19 1.3-10.76.86-3.56 2.35-6.54 4.47-8.93s4.98-3.59 8.59-3.59c3.14 0 5.69 1.04 7.65 3.11 1.9 1.96 3.17 4.44 3.65 7.12l-.24 21.88h-.01ZM708.86 875.1c-2.35 0-4.15.69-5.41 2.06a7 7 0 0 0-1.88 4.88c0 1.65.52 3.1 1.53 4.36s2.66 1.88 4.94 1.88q.945 0 1.77-.12c.825-.12 1.18-.28 1.88-.59 0 2.82-.52 5.09-1.53 6.82s-2.27 3.06-3.76 4c-1.42.91-2.92 1.69-4.47 2.35l1.41 2.94v.02c1.25-.56 2.71-1.22 4.36-2s3.22-1.87 4.76-3.24c1.52-1.38 2.8-3.14 3.82-5.3s1.53-4.85 1.53-8.06-.75-5.49-2.24-7.29-3.73-2.71-6.71-2.71m-22.34 0c-2.35 0-4.15.69-5.41 2.06a7 7 0 0 0-1.88 4.88c0 1.65.52 3.1 1.53 4.36s2.66 1.88 4.94 1.88q.945 0 1.77-.12c.825-.12 1.18-.28 1.88-.59 0 2.82-.52 5.09-1.53 6.82s-2.27 3.06-3.76 4c-1.42.91-2.92 1.69-4.47 2.35l1.41 2.94v.02c1.25-.56 2.71-1.22 4.36-2s3.24-1.86 4.76-3.24 2.8-3.14 3.82-5.3 1.53-4.85 1.53-8.06-.75-5.49-2.24-7.29-3.73-2.71-6.71-2.71m39.63 53.04 68.1 32.93v-7.64l-52.1-25.88 52.1-25.88v-7.88l-68.1 33.16v1.18Zm179.25-34.36v7.88l51.99 25.88-51.99 25.88v7.65l68.1-32.93v-1.19l-68.1-33.16ZM26.1 167.34c9.3 5.77 21.71 8.65 37.22 8.65v.02c10.86 0 20.64-1.51 29.33-4.52a85.4 85.4 0 0 0 23.65-12.54 121.6 121.6 0 0 0 19.38-18.35l-4.65-4.92c-5.39 4.95-11.28 9.33-17.58 13.06-6.02 3.54-12.18 6.16-18.47 7.88s-12.8 2.59-19.52 2.59c-17.05 0-29.67-4.52-37.86-13.57-8.18-9.05-12.27-22.18-12.27-39.41 0-14.3 1.94-27.26 5.81-38.9 3.87-11.63 9.21-21.62 16.02-29.98 6.81-8.35 14.6-14.81 23.39-19.38 8.69-4.55 18.36-6.9 28.17-6.85 12.74 0 22.65 3.75 29.72 11.24s10.24 19.85 9.56 37.08h8.53L158.69.26h-7.49c-1.72 2.31-3.53 4.56-5.43 6.72-1.56 1.72-3.37 2.59-5.43 2.59s-4.48-.82-7.23-2.45-6.58-3.24-11.5-4.78C116.69.77 109.85 0 101.06 0a99 99 0 0 0-37.73 7.37 97.9 97.9 0 0 0-32.44 21.71c-9.56 9.56-17.11 21.36-22.62 35.4C2.75 78.53 0 94.59 0 112.68c0 11.38 2.02 21.88 6.07 31.53s10.73 17.37 20.03 23.13M155.67 59.95c3.8-.34 6.55-.52 8.27-.52 3.1 0 5.25.62 6.46 1.81 1.21 1.21 1.81 2.93 1.81 5.17 0 1.9-.26 4.75-.77 8.53l-20.68 98.2h21.2-.01l8.04-35.3c2.65-6.18 5.82-12.8 9.54-19.87 4.48-8.53 9.34-16.58 14.6-24.16 5.25-7.58 10.46-13.78 15.63-18.61 5.17-4.81 9.91-7.23 14.22-7.23 2.93 0 4.92.99 5.95 2.97a15.9 15.9 0 0 1 1.55 7.37c0 2.06-.43 5.6-1.29 10.59-3.06 14.22-6.33 28.39-9.82 42.51-3.44 13.96-7.06 27.87-10.85 41.74h21.44l6.98-32.56.06-.15-.04.15c1.55-4.48 3.87-9.79 6.98-15.9 3.1-6.11 6.72-12.48 10.85-19.12 3.97-6.39 8.28-12.56 12.92-18.47 4.48-5.69 8.83-10.29 13.06-13.83 4.22-3.53 7.97-5.3 11.24-5.3 2.93 0 4.92.99 5.95 2.97a15.9 15.9 0 0 1 1.55 7.37c0 2.75-.48 6.25-1.42 10.47-.85 3.84-1.76 7.68-2.71 11.5l-13.18 50.14c-.17.69-.43 2.03-.77 4.01-.35 2-.52 4.03-.52 6.07 0 3.8 1.2 7.28 3.62 10.47 2.41 3.19 6.89 4.78 13.44 4.78h.02c4.66.01 8.78-.94 12.41-2.83s6.85-4.36 9.7-7.37c2.72-2.87 5.22-5.93 7.49-9.17 2.15-3.1 4.09-5.86 5.81-8.27l-5.17-3.87c-2.07 2.42-4.69 5.26-7.88 8.53s-7.02 4.9-11.5 4.9c-3.28 0-4.92-1.63-4.92-4.9 0-1.56.26-3.62.77-6.2l14.22-59.7 1.55-8.53c.68-3.78 1.03-7.32 1.03-10.59q0-6.975-3.36-12.66c-3.36-5.685-6.46-5.69-12.66-5.69a34.8 34.8 0 0 0-19.52 6.07c-6.34 4.25-12 9.43-16.79 15.37-4.97 6.04-9.51 12.43-13.57 19.12-3.26 5.33-6.35 10.76-9.28 16.28H256l4.92-19.38c.17-.68.59-3.1 1.29-7.23.68-4.14 1.03-8.1 1.03-11.89 0-4.65-1.07-8.87-3.22-12.66-2.16-3.8-6.43-5.69-12.8-5.69a37.5 37.5 0 0 0-20.94 6.46 79.6 79.6 0 0 0-17.7 16.02c-5.12 6.17-9.74 12.74-13.83 19.64-3.24 5.49-6 10.39-8.32 14.72h-2.02l12.66-56.08h-5.95l-35.4 2.84v6.98Zm305.4 94.61q-4.26 3.36-8.91 3.36c-2.07 0-3.49-.47-4.27-1.42a4.58 4.58 0 0 1-1.16-2.97c0-1.9.53-5.6 1.56-11.12l19.12-91.49h-21.45l-8.27 36.44a86 86 0 0 1-5.69 16.16 168 168 0 0 1-9.82 18.47c-3.68 6.05-7.78 11.83-12.27 17.31a76.7 76.7 0 0 1-13.18 12.92c-4.39 3.28-8.49 4.92-12.27 4.92-2.75 0-4.75-.99-5.95-2.97-1.21-1.98-1.81-4.52-1.81-7.62 0-2.41.6-6.55 1.81-12.41l17.84-84h-8.02l-34.89 2.84v6.98c2.91-.38 5.84-.55 8.78-.53 2.24 0 4.36.48 6.34 1.42 1.97.95 2.97 2.8 2.97 5.55 0 1.56-.22 3.62-.65 6.2s-1.07 5.95-1.94 10.08l-12.41 55.57c-.35 1.72-.86 4.43-1.55 8.14-.68 3.71-1.03 7.28-1.03 10.73 0 4.83 1.2 9.14 3.62 12.92 2.41 3.78 6.89 5.69 13.44 5.69H371c7.58 0 14.43-1.89 20.55-5.68a68 68 0 0 0 16.41-14.34c4.69-5.58 8.97-11.5 12.8-17.7 3.69-6.02 6.84-11.29 9.43-15.76h2.33c-2.24 8.44-4.18 15.6-5.81 21.45a66 66 0 0 0-2.45 17.84c0 5.69 1.72 9.43 5.17 11.24a22 22 0 0 0 10.33 2.71c5.34 0 10.03-1.12 14.09-3.36 4.04-2.24 7.88-5.39 11.5-9.44 3.63-4.04 7.32-8.82 11.12-14.34l-5.43-3.87c-3.8 4.48-7.11 7.84-9.95 10.08Zm103.72 20.9c4.83 0 9.18-1.21 13.06-3.62 4.16-2.67 7.87-5.98 10.98-9.82 3.44-4.13 6.89-8.78 10.33-13.95l-5.43-3.87a78 78 0 0 1-4.01 4.52 49.3 49.3 0 0 1-7.62 6.59c-2.93 2.07-5.86 3.1-8.79 3.1-3.96 0-7.02-1.98-9.17-5.95a82 82 0 0 1-5.81-13.95 97.2 97.2 0 0 0-7.62-17.7c-3.19-5.77-7.28-9.77-12.27-12.01v-.52c7.07-3.78 12.41-8.31 16.02-13.57 3.63-5.26 6.29-9.53 8.02-12.8 1.68-3.41 3.53-6.73 5.55-9.95a8.58 8.58 0 0 1 7.62-4.27c1.72 0 3.24.48 4.52 1.42 1.3.94 2.72 1.94 4.27 2.97 1.7 1.08 3.68 1.62 5.69 1.56 3.8 0 6.72-1.12 8.79-3.36s3.1-4.92 3.1-8.02c0-4.48-1.63-7.88-4.9-10.21a19.54 19.54 0 0 0-11.63-3.49c-5.69 0-10.47 1.51-14.34 4.52s-7.15 6.84-9.82 11.5c-2.73 4.77-5.36 9.59-7.88 14.48-4.99 10-10.51 16.9-16.54 20.68-5.46 3.44-11.98 5.23-19.55 5.41l11.55-55.02h-5.69l-36.7 2.84v6.98c1.56-.18 2.98-.3 4.27-.39 1.3-.09 2.54-.13 3.75-.13 4.13 0 6.76.69 7.88 2.07 1.12 1.39 1.68 3.19 1.68 5.43 0 1.21-.09 2.77-.26 4.66s-.35 3.01-.52 3.36l-20.94 98.2h20.68l12.46-59.3c.75-.09 1.28-.15 1.6-.15h1.42c4.31 0 7.54.9 9.7 2.71 2.15 1.81 4.01 4.99 5.55 9.56 1.56 4.57 3.36 11.07 5.43 19.52 1.56 5.69 3.19 10.77 4.92 15.25 1.72 4.48 4.18 8.06 7.37 10.73 3.19 2.68 7.62 4.01 13.31 4.01zm76.84 1.04c7.76 0 14.73-1.51 20.94-4.52 6.11-2.95 11.7-6.88 16.54-11.63 4.83-4.74 8.96-9.77 12.41-15.12l-4.39-3.87a50.7 50.7 0 0 1-13.83 12.15c-5.43 3.27-12.36 4.9-20.8 4.9-6.38 0-11.63-1.12-15.76-3.36-4.13-2.23-7.19-5.77-9.17-10.59-1.98-4.83-2.97-11.03-2.97-18.61s.94-15.33 2.84-23.26a93.3 93.3 0 0 1 8.27-22.1c3.62-6.81 8.05-12.28 13.31-16.41 5.17-4.11 11.61-6.3 18.22-6.2 3.95 0 7.01.69 9.17 2.07 2.15 1.39 3.22 3.02 3.22 4.92 0 2.07-.82 4.75-2.45 8.02s-2.45 6.63-2.45 10.08c0 2.77.86 4.96 2.59 6.59 1.71 1.63 4.13 2.45 7.23 2.45 4.81 0 8.43-1.81 10.85-5.43 2.41-3.62 3.62-8.01 3.62-13.18 0-8.44-2.84-14.56-8.53-18.35-5.69-3.8-12.58-5.69-20.68-5.69-8.96 0-17.49 2.12-25.58 6.34a68.9 68.9 0 0 0-21.32 17.44 86.1 86.1 0 0 0-14.48 25.72 90.8 90.8 0 0 0-5.3 31.14c0 9.48 1.46 17.67 4.39 24.55 2.92 6.9 7.23 12.28 12.92 16.16s12.75 5.81 21.2 5.81Z"/></svg>