<svg xmlns="http://www.w3.org/2000/svg" viewBox="0 0 1000 1000"><path d="M185.55 334.96c1.8-.71 4.14-1.16 7.02-1.35 2.31-.17 4.14-.56 5.5-1.16a5.87 5.87 0 0 0 2.92-2.55c.59-1.09.89-2.44.89-4.02h-4.58c0 .71-.12 1.3-.37 1.78s-.71.85-1.39 1.13c-.67.28-1.66.45-2.96.53-2.54.15-4.76.5-6.66 1.07-1.9.57-3.51 1.39-4.84 2.48a11.95 11.95 0 0 0-3.22 4.19c-.82 1.71-1.42 3.79-1.79 6.24s-.56 5.33-.56 8.63v1.09c0 3.34.64 6.23 1.93 8.65a13.95 13.95 0 0 0 5.23 5.6 14.18 14.18 0 0 0 7.41 1.96c2.75 0 5.19-.69 7.35-2.09a14.48 14.48 0 0 0 5.08-5.7c1.23-2.4 1.85-5.23 1.85-8.13s-.55-5.5-1.66-7.8-2.6-4.12-4.47-5.47a10.45 10.45 0 0 0-6.27-2.02c-1.87 0-3.62.39-5.25 1.19s-3.05 1.83-4.24 3.11a12.83 12.83 0 0 0-2.65 4.15h-.14c.28-3.42.88-6.02 1.8-7.79a7.66 7.66 0 0 1 4.07-3.72Zm-3.66 12.98a9.63 9.63 0 0 1 3.44-3.98c1.47-.95 3.2-1.43 5.07-1.43s3.46.45 4.78 1.33 2.32 2.15 3.01 3.79c.69 1.64 1.03 3.59 1.03 5.9s-.37 4.3-1.09 5.96a8.54 8.54 0 0 1-3.12 3.84 8.61 8.61 0 0 1-4.87 1.35 8.94 8.94 0 0 1-5.07-1.43 9.2 9.2 0 0 1-3.26-3.88 12.98 12.98 0 0 1-1.15-5.58c0-2.21.41-4.17 1.23-5.87ZM65.35 368.53v.01-.01zM272.71 345.06a7.4 7.4 0 0 0-3.08-6.2c-2.05-1.55-4.82-2.33-8.29-2.33h-13.08v32h15.11c2.2 0 4.08-.38 5.66-1.12s2.79-1.76 3.64-3.06c.85-1.3 1.27-2.75 1.27-4.41a7.75 7.75 0 0 0-3.91-6.97 9.47 9.47 0 0 0-3.56-1.27 8.85 8.85 0 0 0 4.55-2.2 5.88 5.88 0 0 0 1.69-4.44Zm-5.46 10.59c.93.92 1.4 2.2 1.4 3.84 0 1.34-.47 2.4-1.4 3.18a5.88 5.88 0 0 1-3.87 1.17h-10.22v-9.56h10.22c1.65 0 2.93.45 3.87 1.37Zm-1.35-6.89c-1.08.8-2.59 1.2-4.52 1.2h-8.22v-8.73h8.19c1.93 0 3.44.38 4.54 1.13 1.1.76 1.65 1.77 1.65 3.14s-.54 2.46-1.63 3.26ZM75.25 356.63h17.59l4.26 11.91h5.73l-15.69-42.66h-6.3l-15.49 42.65h5.77l4.13-11.9Zm6.54-19.15c.63-1.97 1.35-4.4 2.17-7.26a327.24 327.24 0 0 0 4.09 13.01l3.09 8.65H76.9l3.01-8.66c.5-1.45 1.13-3.36 1.88-5.74ZM125.86 348.75a7.3 7.3 0 0 1-2.68.69c-1.21.13-2.76.32-4.67.57a51.5 51.5 0 0 0-4.44.77c-1.47.32-2.81.81-4.02 1.47a7.73 7.73 0 0 0-2.91 2.71 8.22 8.22 0 0 0-1.09 4.47c0 2.1.49 3.88 1.46 5.35a9.33 9.33 0 0 0 3.94 3.35c1.65.77 3.49 1.15 5.51 1.15h.01c1.81 0 3.36-.27 4.64-.8a9.63 9.63 0 0 0 4.87-4.29h.34v4.35h5.07v-21.1c0-2.5-.01-3.75-1.25-6a8.78 8.78 0 0 0-3.15-3.39 12 12 0 0 0-3.95-1.53 19.68 19.68 0 0 0-3.65-.39c-1.64 0-3.3.23-4.98.69a12.64 12.64 0 0 0-4.61 2.33 11.23 11.23 0 0 0-3.32 4.57l4.95 1.63a8.02 8.02 0 0 1 4.18-3.98c1.09-.48 2.43-.72 3.92-.72s2.73.25 3.72.74 1.73 1.2 2.23 2.13c.5.92.75 2.05.75 3.39v.17c0 .78-.29 1.34-.87 1.66Zm.87 8.21a7.74 7.74 0 0 1-4.04 6.65 9.65 9.65 0 0 1-4.84 1.12s.01 0 .01 0c-1.28 0-2.42-.19-3.41-.57s-1.78-.95-2.35-1.69a4.45 4.45 0 0 1-.86-2.78c0-1.22.32-2.19.97-2.91a6.13 6.13 0 0 1 2.59-1.63c1.08-.37 2.24-.64 3.48-.79l2.02-.24a80.4 80.4 0 0 0 2.63-.39c.91-.15 1.71-.33 2.42-.53s1.17-.42 1.38-.67v4.44ZM165.95 330.66v-4.78h-25.48v42.65h15.22c2.92 0 5.44-.52 7.56-1.55a11.42 11.42 0 0 0 4.9-4.38c1.15-1.89 1.72-4.2 1.72-6.7s-.57-4.66-1.73-6.47a11.3 11.3 0 0 0-4.91-4.19 17.8 17.8 0 0 0-7.53-1.47h-9.79v-13.11h20.04Zm-10.36 17.84c2.86 0 5.06.64 6.61 1.92 1.55 1.28 2.32 3.09 2.32 5.44 0 2.54-.77 4.5-2.32 5.87-1.54 1.37-3.75 2.06-6.61 2.06h-9.68V348.5h9.68ZM140.47 368.54v-.01h-.01l.01.01zM281.19 368.54h5.44v-37.88h20.53v-4.78h-25.97v42.66zM248.26 368.54v-.01h-.01l.01.01zM211.28 368.52h15.6c3.36 0 6.09-.5 8.19-1.5 2.1-1 3.64-2.36 4.62-4.08.98-1.71 1.47-3.55 1.47-5.78s-.44-4.12-1.33-5.67-1.99-2.74-3.32-3.58a8.3 8.3 0 0 0-3.99-1.37v-.4c1.24-.34 2.39-.86 3.45-1.57a7.93 7.93 0 0 0 2.56-2.85c.64-1.19.97-2.71.97-4.54 0-2.08-.48-3.97-1.42-5.68a10.2 10.2 0 0 0-4.32-4.09c-1.93-1.02-4.39-1.53-7.37-1.53h-15.12v42.66h.01v-.02Zm5.44-37.84h9.56c2.76 0 4.79.64 6.08 1.92a6.37 6.37 0 0 1 1.93 4.7c0 1.47-.36 2.75-1.09 3.85s-1.71 1.95-2.95 2.55a9.4 9.4 0 0 1-4.15.9h-9.38v-13.92Zm-.02 18.5h10.31a9.7 9.7 0 0 1 4.74 1.09c1.33.72 2.35 1.69 3.08 2.89s1.09 2.52 1.09 3.95c0 1.86-.69 3.42-2.1 4.7-1.41 1.28-3.77 1.92-7.09 1.92H216.7v-14.55ZM190.09 369.23h-.02.02zM251.7 614.82h5.44v-42.66h-33.27v42.66h5.44v-37.85h22.39v37.85zM350.57 615.5c2.67 0 5.02-.68 7.06-2.03s3.62-3.27 4.77-5.75c1.15-2.48 1.72-5.44 1.72-8.82s-.58-6.31-1.73-8.78a13.45 13.45 0 0 0-4.78-5.71 12.6 12.6 0 0 0-7.06-2c-2.08 0-3.73.34-4.95 1.03a8.66 8.66 0 0 0-2.81 2.33c-.65.87-1.16 1.59-1.52 2.16h-.57v-5.12h-4.98v43.97h5.14v-16.92h.4c.49.76 1 1.5 1.55 2.22a8.98 8.98 0 0 0 2.86 2.38c1.24.69 2.88 1.04 4.9 1.04Zm-8.72-10.37c-.69-1.81-1.03-3.9-1.03-6.27s.34-4.43 1.02-6.2 1.68-3.15 3.02-4.14c1.33-.99 2.93-1.49 4.95-1.49s3.7.52 5.05 1.57 2.35 2.46 3.02 4.25c.67 1.79 1 3.77 1 6s-.34 4.26-1.02 6.08a9.9 9.9 0 0 1-3.04 4.35 7.76 7.76 0 0 1-5.02 1.62c-1.93 0-3.55-.5-4.9-1.52a9.33 9.33 0 0 1-3.05-4.25ZM350.22 451.01h-.01.01zM102.28 614.83v-42.66h-5.44v18.44H74.45v-18.44h-5.44v42.66h5.44v-19.41h22.39v19.41h5.44zM95.01 412.79v-4.81h-26V450.65h26.26v-4.81H74.45v-14.32h19.16v-4.81H74.45v-13.92h20.56zM194.36 613.45c2.18 1.37 4.73 2.06 7.63 2.06s5.47-.69 7.67-2.06c2.19-1.37 3.9-3.3 5.12-5.78 1.22-2.48 1.83-5.31 1.83-8.65s-.61-6.26-1.83-8.75a13.92 13.92 0 0 0-5.12-5.8c-2.19-1.37-4.77-2.06-7.67-2.06s-5.44.68-7.63 2.06-3.89 3.31-5.11 5.8c-1.22 2.49-1.83 5.46-1.83 8.75s.61 6.17 1.83 8.65a13.9 13.9 0 0 0 5.11 5.78Zm-.7-20.36a9.92 9.92 0 0 1 3.06-4.4c1.38-1.11 3.11-1.67 5.27-1.67s3.94.55 5.33 1.67 2.42 2.59 3.09 4.41c.67 1.82 1 3.8 1 5.91s-.33 4.06-1 5.86c-.67 1.81-1.69 3.26-3.09 4.37s-3.17 1.66-5.33 1.66a8.07 8.07 0 0 1-5.27-1.65 9.97 9.97 0 0 1-3.06-4.37c-.67-1.81-1-3.72-1-5.86s.33-4.12 1-5.93ZM335.72 626.79v-.01h-.01l.01.01z"/><path d="M323.79 336.53h-19.87v32.01h5.15v-27.26h14.72v-4.75zM323.11 573.99c-2.14-1.21-4.88-1.82-8.2-1.82h-14.6v42.65h5.42v-15.43h9.2c3.32 0 6.05-.61 8.19-1.83a11.64 11.64 0 0 0 4.77-4.92c1.04-2.06 1.56-3.09 1.56-6.9 0-2.54-.52-4.83-1.56-6.87a11.58 11.58 0 0 0-4.78-4.88Zm-.01 16.28c-.62 1.35-1.62 2.41-2.99 3.18s-3.19 1.16-5.44 1.16h-8.94v-17.67h8.88c2.27 0 4.09.39 5.48 1.15s2.39 1.8 3.01 3.13.93 2.83.93 4.51-.31 3.19-.93 4.54ZM291.43 614.83v-32.01h-25.42v32.01h5.18v-27.26h15.09v27.26h5.15zM251.08 532.73v-42.66h-26.34l-2.26 27.46a33.51 33.51 0 0 1-1.03 6.57c-.45 1.5-1.09 2.52-1.9 3.05s-1.88.8-3.22.8h-1.15v4.78h1.57c1.97 0 3.61-.29 4.94-.87a7.5 7.5 0 0 0 3.22-2.68c.82-1.21 1.45-2.74 1.9-4.6s.78-4.06.99-6.6l1.89-23.14h15.95v37.88h5.44ZM285.12 532.73v-32.01h-21.59l-.57 14.26a77.42 77.42 0 0 1-.5 6.56c-.22 1.7-.53 3.01-.93 3.95-.4.94-.92 1.59-1.55 1.95s-1.41.54-2.35.54h-1.15v4.75h1.76c2.36 0 4.23-.6 5.58-1.78 1.35-1.18 2.34-2.96 2.96-5.34a42.92 42.92 0 0 0 1.16-8.86l.49-11.28h11.51v27.26h5.18ZM331.41 501.81c-.03 1.24-.06 2.42-.06 3.55l-.01 3.01v24.37h5.35v-42.66h-7.76L318.57 517a131.4 131.4 0 0 0-1.88 5.56c-.36 1.11-.69 2.21-1.02 3.29l-.26.87-.29-.98a247.33 247.33 0 0 0-2.02-6.39c-.31-.94-.59-1.73-.84-2.36l-10.51-26.92h-7.73v42.66l5.21.01v-24.37l-.03-3.16-.06-3.67-.07-3.77-.04-1.75.83 2.46 1.33 3.95 1.19 3.41c.36 1.02.67 1.86.94 2.53l9.68 24.37h4.72l9.53-24.37.97-2.61c.39-1.05.79-2.21 1.22-3.48s.88-2.59 1.32-3.95l.78-2.48-.04 2.18-.08 3.78ZM93.16 481.56a7.8 7.8 0 0 0 1.1-4.09h-3.78c0 1.3-.42 2.36-1.27 3.19-.85.83-1.93 1.25-3.25 1.25s-2.4-.42-3.25-1.25a4.26 4.26 0 0 1-1.27-3.19h-3.78c0 1.51.37 2.88 1.12 4.11a8.2 8.2 0 0 0 7.18 3.99 8.24 8.24 0 0 0 7.2-4.01ZM69 532.73h6.47l15.46-24.28c.73-1.13 1.44-2.29 2.15-3.48a345.15 345.15 0 0 0 4.77-8.41l-.17 3.98c-.09 1.8-.15 3.36-.2 4.7a87.5 87.5 0 0 0-.07 3.15v24.34h5.46v-42.66h-6.41l-17.35 27.29a105.4 105.4 0 0 0-5.03 8.97c.08-.94.15-1.86.19-2.74.07-1.5.12-2.88.14-4.14.03-1.26.03-2.33.03-3.21v-26.17H69v42.66ZM184.3 500.72v32.01h5.15v-13.4h4.44l10.34 13.4h6.53l-12.94-16.52 12.77-15.49h-6.53l-11.4 13.86h-3.21v-13.86h-5.15zM329.61 425.01a9.86 9.86 0 0 0 1.9-6.13c0-2.02-.52-3.9-1.55-5.64-1.03-1.74-2.5-3.14-4.42-4.21s-4.21-1.6-6.86-1.6c-2.5 0-4.79.48-6.86 1.43a12.7 12.7 0 0 0-5 3.98 10.36 10.36 0 0 0-2 5.9h5.24a5.7 5.7 0 0 1 1.3-3.55 7.9 7.9 0 0 1 3.12-2.25c1.27-.53 2.63-.79 4.08-.79 1.55 0 2.89.29 4.04.87 1.15.58 2.03 1.4 2.65 2.45s.93 2.22.93 3.69-.35 2.75-1.06 3.84a7 7 0 0 1-2.96 2.53c-1.27.6-2.73.9-4.39.9h-3.46v4.72h3.46c2.12 0 3.91.33 5.38 1a7.73 7.73 0 0 1 3.36 2.76 7.25 7.25 0 0 1 1.16 4.08c0 1.47-.4 2.76-1.2 3.89s-1.9 2-3.28 2.62a11.6 11.6 0 0 1-4.77.93c-1.62 0-3.09-.26-4.42-.79a7.73 7.73 0 0 1-3.21-2.26 6.25 6.25 0 0 1-1.39-3.51h-5.5c.1 2.26.78 4.23 2.05 5.93s2.98 3.03 5.14 3.98c2.16.95 4.63 1.43 7.42 1.43h.01v.02a17 17 0 0 0 7.47-1.59c2.19-1.06 3.29-1.6 5.18-4.34a10.74 10.74 0 0 0 1.89-6.24c0-1.8-.34-3.41-1.02-4.84a9.22 9.22 0 0 0-2.95-3.55 10.72 10.72 0 0 0-4.65-1.83v-.34a9.77 9.77 0 0 0 5.17-3.49ZM198.06 450.64l.01-.01h-.01v.01zM221.86 407.97v18.95h-5.1l-11-18.95h-6.61l12.68 20.42-13.76 22.24h6.16l11.48-18.9h6.15v18.9h5.44v-18.9h6.16l11.4 18.9h6.24l-13.74-22.19 12.68-20.47h-6.59l-10.94 18.95h-5.21v-18.95h-5.44zM274.83 418.63v13.6h-2.55l-10.54-13.6h-6.1l12.68 15.72-12.86 16.29h6.27l10.68-13.66h2.43v13.66h5.15v-13.66h2.43l10.62 13.66h6.21l-12.8-16.29 12.66-15.72h-6.16l-10.48 13.6h-2.49v-13.6h-5.15zM135.87 450.64v.01h26.26v-4.81h-20.82v-14.32h19.16v-4.81h-19.16v-13.92h20.56v-4.81h-26v42.66zM101.99 426.21a20 20 0 0 0-1.78 8.68c0 3.29.61 6.16 1.82 8.62 1.21 2.46 2.94 4.38 5.18 5.75s4.91 2.06 8 2.06l.02-.02a16 16 0 0 0 5.91-1.03 12.16 12.16 0 0 0 4.4-2.86 10.56 10.56 0 0 0 2.52-4.24l-4.98-1.37a6.95 6.95 0 0 1-4.38 4.38c-1.03.36-2.18.54-3.44.54-1.95 0-3.66-.42-5.14-1.27a8.61 8.61 0 0 1-3.45-3.75 13 13 0 0 1-1.2-5.33h23.1v-2.15c0-2.96-.4-5.46-1.2-7.5a12.5 12.5 0 0 0-7.72-7.66 15.61 15.61 0 0 0-5.03-.84c-2.9 0-5.43.71-7.6 2.12a13.9 13.9 0 0 0-5.03 5.87Zm7.69-2c1.37-.95 3.02-1.42 4.95-1.42s3.54.46 4.84 1.39a8.57 8.57 0 0 1 2.93 3.84c.49 1.2.79 2.54.92 4h-17.84a11 11 0 0 1 1.05-4.12 9.24 9.24 0 0 1 3.15-3.69ZM140.59 401.73c.67.67 1.47 1 2.41 1s1.73-.33 2.39-1c.66-.67.99-1.48.99-2.41s-.33-1.73-.99-2.39c-.66-.66-1.45-.99-2.39-.99s-1.74.33-2.41.99c-.67.66-1 1.45-1 2.39s.33 1.74 1 2.41ZM152.65 396.93c-.67.66-1 1.45-1 2.39s.33 1.74 1 2.41 1.47 1 2.41 1 1.73-.33 2.39-1c.66-.67.99-1.48.99-2.41s-.33-1.73-.99-2.39c-.66-.66-1.45-.99-2.39-.99s-1.74.33-2.41.99ZM117.18 523.88h-.37v-23.16h-5.15v32.01h4.9l15.18-23.08h.37v23.08h5.18-.01v-32.01h-4.87l-15.23 23.16zM127.71 491.31c-.85.83-1.93 1.25-3.25 1.25s-2.4-.42-3.25-1.25a4.26 4.26 0 0 1-1.27-3.19h-3.78c0 1.51.38 2.88 1.12 4.11a8.13 8.13 0 0 0 7.18 3.99 8.24 8.24 0 0 0 7.2-4.01 7.8 7.8 0 0 0 1.1-4.09h-3.78c0 1.3-.42 2.36-1.27 3.19ZM146.11 490.07v42.66h5.44v-19.36h6.21l14.4 19.36h6.56l-16.58-21.99 15.89-20.67h-6.58l-13.92 18.58h-5.98v-18.58h-5.44zM172.93 407.58c-.67.66-1 1.45-1 2.39s.33 1.74 1 2.41c.67.67 1.47 1 2.41 1s1.73-.33 2.39-1c.66-.67.99-1.48.99-2.41s-.33-1.73-.99-2.39c-.66-.66-1.45-.99-2.39-.99s-1.74.33-2.41.99ZM187.39 406.59a3.3 3.3 0 0 0-2.41.99c-.67.66-1 1.45-1 2.39s.33 1.74 1 2.41 1.47 1 2.41 1 1.73-.33 2.39-1c.66-.67.99-1.48.99-2.41s-.33-1.73-.99-2.39-1.45-.99-2.39-.99ZM167.07 434.89c0 3.29.61 6.16 1.82 8.62 1.21 2.46 2.94 4.38 5.18 5.75s4.91 2.06 8 2.06l.02-.02a16 16 0 0 0 5.91-1.03 12.16 12.16 0 0 0 4.4-2.86 10.56 10.56 0 0 0 2.52-4.24l-4.98-1.37a6.95 6.95 0 0 1-4.38 4.38c-1.03.36-2.18.54-3.44.54-1.95 0-3.66-.42-5.14-1.27a8.61 8.61 0 0 1-3.45-3.75 13 13 0 0 1-1.2-5.33h23.1v-2.15c0-2.96-.4-5.46-1.2-7.5a12.5 12.5 0 0 0-7.72-7.66 15.61 15.61 0 0 0-5.03-.84c-2.9 0-5.43.71-7.6 2.12a13.9 13.9 0 0 0-5.03 5.87 20 20 0 0 0-1.78 8.68Zm6.32-6.99a9.24 9.24 0 0 1 3.15-3.69c1.37-.95 3.02-1.42 4.95-1.42s3.54.46 4.84 1.39a8.57 8.57 0 0 1 2.93 3.84c.49 1.2.79 2.54.92 4h-17.84a11 11 0 0 1 1.05-4.12ZM85.96 485.57zM111.16 582.82v32.01h5.15v-14.07h15.15v14.07h5.15v-32.01h-5.15v13.19h-15.15v-13.19h-5.15zM172.6 612.75a18.27 18.27 0 0 0 6.71-7.56c1.63-3.28 2.45-7.14 2.45-11.67s-.82-8.43-2.45-11.7-3.87-5.8-6.71-7.57a18 18 0 0 0-9.73-2.66c-3.65 0-6.9.88-9.75 2.66a18.36 18.36 0 0 0-6.74 7.57c-1.64 3.28-2.46 4.93-2.46 11.7 0 4.51.82 8.4 2.46 11.67s3.89 5.79 6.74 7.56c2.85 1.77 6.1 2.65 9.75 2.65s6.89-.88 9.73-2.65Zm-21.57-10.04c-1.21-2.5-1.82-5.55-1.82-9.19s.61-6.72 1.82-9.23c1.21-2.51 2.85-4.41 4.91-5.71s4.39-1.95 6.93-1.95 4.84.64 6.89 1.93a13.33 13.33 0 0 1 4.9 5.7c1.21 2.51 1.82 5.63 1.82 9.26s-.61 6.7-1.82 9.21c-1.22 2.51-2.84 4.41-4.9 5.7s-4.35 1.93-6.89 1.93-4.87-.65-6.93-1.95-3.7-3.2-4.91-5.7ZM102.88 532.73h-.01.01zM388.7 615.4h-.01.01zM426.05 615.51c1.57 0 3.05-.21 4.44-.62a13.22 13.22 0 0 0 3.81-1.8 12.56 12.56 0 0 0 2.96-2.86 11.75 11.75 0 0 0 1.88-3.82l-4.92-1.4a8.1 8.1 0 0 1-1.06 2.38 7.33 7.33 0 0 1-1.76 1.88c-.7.53-1.49.93-2.39 1.22s-1.88.43-2.95.43a8.13 8.13 0 0 1-5.27-1.66 9.97 9.97 0 0 1-3.06-4.37c-.67-1.81-1-3.72-1-5.86s.33-4.12 1-5.93a9.92 9.92 0 0 1 3.06-4.4 8.13 8.13 0 0 1 5.27-1.67c1.05 0 2.01.13 2.89.41a7.61 7.61 0 0 1 5.12 5.22l4.95-1.4a12.42 12.42 0 0 0-1.89-3.74c-.83-1.1-1.8-2.03-2.94-2.78a13.73 13.73 0 0 0-3.76-1.73c-1.37-.4-2.83-.6-4.38-.6a14 14 0 0 0-7.63 2.06 13.9 13.9 0 0 0-5.11 5.8c-1.22 2.49-1.83 5.46-1.83 8.75s.61 6.17 1.83 8.65 2.92 4.4 5.11 5.78a14.05 14.05 0 0 0 7.63 2.06ZM372.22 581.82c-1.63 3.28-2.45 7.19-2.45 11.7s.82 8.4 2.45 11.67 3.88 5.79 6.73 7.56a18.06 18.06 0 0 0 9.74 2.65v-.02c2.18 0 4.22-.32 6.14-.96a16.3 16.3 0 0 0 11.07-13.04h-5.44a11.3 11.3 0 0 1-1.56 3.85 10.3 10.3 0 0 1-2.69 2.81 11.95 11.95 0 0 1-3.51 1.72 13.7 13.7 0 0 1-4.01.59c-2.54 0-4.84-.64-6.9-1.93s-3.7-3.19-4.91-5.7-1.82-5.57-1.82-9.21.6-6.72 1.8-9.23c1.21-2.51 2.84-4.41 4.9-5.71s4.37-1.95 6.93-1.95c1.39 0 2.73.19 4.01.57 1.28.38 2.45.95 3.51 1.72s1.95 1.7 2.69 2.81c.73 1.11 1.25 2.4 1.56 3.87h5.44c-.38-2.19-1.08-4.15-2.1-5.88s-2.29-3.2-3.82-4.41a16.6 16.6 0 0 0-5.17-2.76 19.12 19.12 0 0 0-6.11-.95c-3.65 0-6.9.88-9.75 2.66a18.2 18.2 0 0 0-6.73 7.57ZM354.89 445.16a7.17 7.17 0 0 1-4.67 1.47c-1.7 0-3.18-.38-4.45-1.12-1.27-.75-1.94-1.66-2.02-2.75h-5.27c.05 1.66.61 3.11 1.67 4.35s2.47 2.2 4.24 2.88c1.77.68 3.71 1.02 5.83 1.02 2.31 0 4.37-.4 6.15-1.19 1.79-.79 3.2-1.88 4.22-3.26a7.79 7.79 0 0 0 1.53-4.74c0-1.98-.62-3.64-1.86-4.98-1.24-1.34-3.09-2.2-5.53-2.58v-.23a8.14 8.14 0 0 0 4.35-2.26 6.25 6.25 0 0 0 1.78-4.64c0-1.62-.42-3.1-1.27-4.44-.85-1.34-1.28-2.01-3.62-3.21-1.56-.8-3.41-1.2-5.55-1.2-2.03 0-3.88.35-5.57 1.07a10.12 10.12 0 0 0-4.07 3.01 7.34 7.34 0 0 0-1.59 4.51h4.98a3.79 3.79 0 0 1 1.92-3.18c1.24-.8 2.62-1.2 4.27-1.2s2.97.45 3.97 1.36c1 .91 1.5 2 1.5 3.51s-.6 2.72-1.8 3.64a7.28 7.28 0 0 1-4.52 1.37h-2.09v3.84h2.09c2.21 0 3.96.49 5.25 1.46a4.57 4.57 0 0 1 1.93 3.81c0 1.47-.6 2.7-1.8 3.68ZM334.14 325.88l-1.46 17.98a88.86 88.86 0 0 1-.96 7.99 40.25 40.25 0 0 1-1.36 5.65c-.51 1.54-1.08 2.81-1.7 3.81s-1.28 1.82-1.99 2.45h-3.49v13.94h5.2v-9.16h31.98v9.16h5.24v-13.94h-4.75v-37.88h-26.71Zm21.29 37.88h-22.47a13.3 13.3 0 0 0 2.41-4.59 46 46 0 0 0 1.65-6.89c.44-2.62.78-5.42 1.03-8.42l1.09-13.2h16.29v33.1ZM364.48 524.4c-.26.9-.49 1.76-.7 2.59l-.18.73-.2-.81a78.97 78.97 0 0 0-1.62-5.37c-.34-.97-.74-2.01-1.2-3.12l-7.3-17.7h-7.73v32.01l5.12.01v-16.72l-.01-3.42a392.28 392.28 0 0 0-.11-6.8v-.28l.52 1.81c.41 1.38.86 2.76 1.36 4.12a94.15 94.15 0 0 0 1.8 4.57l7.07 16.72h4.52l6.99-16.72c.7-1.7 1.05-2.54 1.8-4.6a65.68 65.68 0 0 0 2-6.42l-.02 1.11-.06 3.35c-.02 1.1-.04 2.2-.04 3.29l-.01 3.26v16.72h5.18v-32.01h-7.85l-7.21 17.7a60.88 60.88 0 0 0-2.1 5.98ZM411.97 418.63v32.01h4.9l15.18-23.08h.37v23.08h5.17v-32.01h-4.87l-15.23 23.16h-.37v-23.16h-5.15zM80.09 696.92h5.44v-37.85H98.9v-4.81H66.66v4.81h13.43v37.85zM369.23 450.64h6.47l15.46-24.28c.73-1.13 1.44-2.29 2.15-3.48a345.15 345.15 0 0 0 4.77-8.41l-.17 3.98c-.09 1.8-.15 3.36-.2 4.7a87.5 87.5 0 0 0-.07 3.15v24.34h5.46v-42.66h-6.41l-17.35 27.29a105.4 105.4 0 0 0-5.03 8.98c.08-.94.15-1.86.19-2.74.07-1.5.12-2.88.14-4.14.03-1.26.03-2.33.03-3.21v-26.17h-5.44v42.66ZM378.34 336.54l-1.06 12.54a81.5 81.5 0 0 1-.66 5.65 30.02 30.02 0 0 1-.89 4.02 12.58 12.58 0 0 1-1.23 2.85 12.3 12.3 0 0 1-1.69 2.19h-2.63v13.94l5.16.01v-9.19h23.39v9.19h5.12V363.8h-4.87v-27.26h-20.64Zm15.51 27.25h-15.2l-.01-.01a15.22 15.22 0 0 0 2.42-5.91c.53-2.47.94-5.4 1.25-8.8l.69-7.79h10.85v22.51ZM788.85 519.41h30.85v7.3h-30.85zM838.1 518.69a4.9 4.9 0 0 0-1.53 3.6c0 1.47.51 2.71 1.53 3.72a5.19 5.19 0 0 0 8.89-3.72c0-1.39-.51-2.59-1.53-3.6s-2.2-1.51-3.65-1.51-2.69.5-3.71 1.51ZM764.06 569.72h-4.04v4.63l18.13 21.83-18.13 22.28V623h36.71v-7.21h-24.2l14.7-18.61v-2.06l-14.54-18.1h23.01v-7.3h-31.64zM845.47 501.61c1.01-1.03 1.51-2.26 1.51-3.69s-.5-2.65-1.51-3.66-2.23-1.51-3.66-1.51-2.66.5-3.69 1.51-1.54 2.23-1.54 3.66.51 2.66 1.54 3.69a4.93 4.93 0 0 0 3.69 1.51 4.83 4.83 0 0 0 3.66-1.51ZM803.84 620.45l49.19-28.15-49.19-28.21v56.36zM773.47 515.3a3.14 3.14 0 0 1-2.65 1.26c-.69 0-1.36-.17-2.03-.5-.66-.33-1.47-.89-2.42-1.68-1.49-1.21-2.83-2.1-4.01-2.65s-2.52-.83-4.01-.83c-1.88 0-3.53.42-4.95 1.26a8.36 8.36 0 0 0-3.33 3.89c-.8 1.75-1.2 4.02-1.2 6.78s7.05 0 7.05 0c-.02-1.62.29-2.79.95-3.53s1.54-1.11 2.65-1.11c.71 0 1.34.14 1.88.42s1.28.8 2.21 1.57a20.79 20.79 0 0 0 4.28 2.74c1.22.53 2.52.8 3.89.8 1.94 0 3.63-.45 5.07-1.36s2.57-2.26 3.39-4.06 1.22-4.03 1.2-6.69h-7.05c.02 1.62-.28 2.84-.92 3.68ZM740.83 598.12c3.31 0 6.1-.62 8.37-1.85a12.49 12.49 0 0 0 5.16-5.07 15 15 0 0 0 1.76-7.31c0-2.7-.59-5.12-1.76-7.25s-2.89-3.82-5.16-5.06-5.06-1.86-8.37-1.86h-15.39v45.11h7.33v-38.02h5.46v21.31h2.6ZM773.47 501.02a3.12 3.12 0 0 1-2.65 1.27c-.68 0-1.36-.18-2.04-.53-.68-.35-1.49-.92-2.44-1.71-1.47-1.19-2.8-2.06-3.98-2.63s-2.52-.85-4.01-.85c-1.88 0-3.53.43-4.95 1.29a8.55 8.55 0 0 0-3.33 3.94c-.8 1.77-1.2 4.03-1.2 6.79h7.04c-.02-1.65.29-2.85.95-3.6s1.54-1.12 2.65-1.12c.7 0 1.34.15 1.89.44.56.29 1.31.83 2.26 1.62a20.86 20.86 0 0 0 4.27 2.74c1.22.53 2.5.8 3.85.8 1.91 0 3.59-.45 5.05-1.36a9 9 0 0 0 3.41-4.06c.82-1.8 1.22-4.04 1.2-6.72h-7.05c.02 1.61-.28 2.84-.92 3.69ZM760.72 406.74a18.37 18.37 0 0 0-8.19-1.82s-.02.01-.02.01c-3.09 0-5.85.64-8.28 1.92-2.43 1.28-4.34 3.07-5.72 5.37s-2.07 4.98-2.07 8.05c0 2.88.59 5.37 1.77 7.46 1.18 2.09 2.82 3.69 4.92 4.81s4.53 1.68 7.27 1.68a13.63 13.63 0 0 0 4.63-.78l-11.74 17.19h9.32l10.44-15.47c2-2.92 3-4.39 4.41-7.93a19 19 0 0 0 1.41-7.08c0-3.19-.74-5.92-2.22-8.19a14.62 14.62 0 0 0-5.93-5.22Zm-1.63 17.4a7.06 7.06 0 0 1-2.65 2.77c-1.14.67-2.4 1-3.85 1s-2.74-.33-3.86-1.01a7.25 7.25 0 0 1-2.65-2.79c-.65-1.18-.97-2.5-.97-4.04s.32-2.89.97-4.06a7.21 7.21 0 0 1 6.51-3.82s.01.01.01.01a7.21 7.21 0 0 1 6.49 3.83c.63 1.18.95 2.56.95 4.07s-.31 2.86-.95 4.04ZM748.87 508.6v-.01.01zM717.89 499.79h-9.63l11.93 14.29-11.93 14.29h9.63l12.14-14.29-12.14-14.29zM714.8 581.33l-8.73 6.01.53-10.7h-7.11l.55 10.73-8.75-6.04-3.57 6.15 9.66 4.77-9.66 4.74 3.54 6.15 8.78-6-.55 10.75h7.11l-.53-10.72 8.76 5.97 3.54-6.15-9.69-4.74 9.69-4.77-3.57-6.15z"/><path d="m744.23 514.08-12.14-14.29h-9.63l11.93 14.29-11.93 14.29h9.63l12.14-14.29zM882.75 360.81a7.88 7.88 0 0 1-4.01 1.01c-1.27 0-2.44-.24-3.51-.74s-1.93-1.19-2.59-2.09a5.64 5.64 0 0 1-1.07-3.1h-9.02c.08 2.56.82 4.84 2.22 6.84s3.31 3.57 5.72 4.71 5.16 1.71 8.25 1.71.03-.01.03-.01c3.31 0 6.22-.67 8.73-2.01a14.81 14.81 0 0 0 5.87-5.52c1.4-2.34 2.1-5.02 2.1-8.05 0-2.16-.35-4.14-1.06-5.96a13.59 13.59 0 0 0-7.47-7.78 14.37 14.37 0 0 0-5.65-1.09c-1.93 0-3.69.35-5.28 1.06a8.71 8.71 0 0 0-3.59 2.69h-.24l1.15-11.41h19.65v-7.63h-27.31l-2.15 23.67 8.29 1.45a6.97 6.97 0 0 1 2.89-2.16 9.81 9.81 0 0 1 3.89-.8c1.55 0 2.92.34 4.1 1.03s2.11 1.65 2.79 2.89c.67 1.24 1.01 2.65 1.01 4.25s-.33 3-1 4.21a7.31 7.31 0 0 1-2.74 2.83ZM858.71 435.19h6.37a23.96 23.96 0 0 0 1.81 5.4 18.5 18.5 0 0 0 6.93 7.92 18.8 18.8 0 0 0 10.14 2.74c2.28 0 4.43-.33 6.46-1.01a16.55 16.55 0 0 0 5.44-3.01l-3.48-7.3c-.54.4-1.22.85-2.04 1.33s-1.76.9-2.82 1.24c-1.06.34-2.25.51-3.56.51a9.5 9.5 0 0 1-5.4-1.54 9.94 9.94 0 0 1-3.6-4.84 14.3 14.3 0 0 1-.47-1.44h9.29l2.33-4.9h-12.38a36.91 36.91 0 0 1 .01-4.42h14.4l2.15-4.75h-15.8c.14-.51.3-1 .47-1.45.86-2.2 2.06-3.83 3.6-4.89s3.34-1.59 5.4-1.59c1.31 0 2.5.18 3.57.53s2.03.77 2.88 1.27 1.56.97 2.15 1.41l3.45-7.36a17.87 17.87 0 0 0-5.51-3.07 20.1 20.1 0 0 0-6.54-1.04c-3.81 0-7.19.92-10.14 2.77a18.8 18.8 0 0 0-6.93 7.96c-.8 1.65-1.4 3.48-1.82 5.46h-4.57l-1.79 4.75h5.74a42.4 42.4 0 0 0-.01 4.42h-3.94l-1.79 4.9ZM922.04 733.82c-2.35-.59-4.7-.58-7.04.01-2.35.6-4.43 1.79-6.27 3.59l-2.97 2.91-3.03-2.91a14.03 14.03 0 0 0-13.33-3.59 13.7 13.7 0 0 0-6.28 3.59 13.15 13.15 0 0 0-3.6 6.21 14.24 14.24 0 0 0 0 7.16c.6 2.39 1.8 4.49 3.6 6.31l22.64 22.64 22.58-22.64a13.27 13.27 0 0 0 3.62-6.31c.6-2.39.6-4.78-.01-7.16a13.06 13.06 0 0 0-3.63-6.24 13.62 13.62 0 0 0-6.28-3.57Zm3.11 15.15a6.33 6.33 0 0 1-1.77 3.1l-17.62 17.68-17.62-17.67c-.89-.87-1.48-1.89-1.77-3.06s-.29-2.35-.01-3.53a6.86 6.86 0 0 1 8.39-4.78c1.15.31 2.18.92 3.09 1.83l7.93 7.66 7.93-7.66a6.7 6.7 0 0 1 6.54-1.85 6.89 6.89 0 0 1 4.89 4.71 7.2 7.2 0 0 1 .03 3.57ZM927.6 583.89c-1.46-.87-3.12-1.3-4.89-1.3s-3.4.43-4.87 1.3a9.81 9.81 0 0 0-3.51 3.5c-.87 1.46-1.3 3.12-1.3 4.89s.43 3.4 1.3 4.87a9.84 9.84 0 0 0 3.51 3.51c1.47.87 3.09 1.3 4.87 1.3s3.43-.43 4.89-1.3a9.81 9.81 0 0 0 3.5-3.51c.87-1.47 1.3-3.07 1.3-4.87s-.43-3.43-1.3-4.89a9.86 9.86 0 0 0-3.5-3.5ZM908.02 449.63c2.2.91 4.74 1.43 7.58 1.6v5.49h3.63v-5.45c2.88-.16 5.43-.68 7.59-1.6a13.22 13.22 0 0 0 5.96-4.71 12.45 12.45 0 0 0 2.06-7.13c0-1.9-.33-3.58-1.01-5.03-.68-1.45-1.63-2.71-2.86-3.77s-2.66-1.95-4.3-2.68a27.66 27.66 0 0 0-5.3-1.73l-2.14-.52v-11.27c1.5.19 2.76.64 3.77 1.37a5.49 5.49 0 0 1 2.32 4.21h8.93a12.47 12.47 0 0 0-2.15-7.01 13.86 13.86 0 0 0-5.81-4.75 20.1 20.1 0 0 0-7.06-1.64v-5.56h-3.63v5.58c-2.48.19-4.74.72-6.76 1.61a14.32 14.32 0 0 0-6.03 4.75 11.93 11.93 0 0 0-2.19 7.14c0 3.27 1.08 5.9 3.24 7.89 2.16 1.99 5.15 3.45 8.96 4.38l2.78.7v11.9a11.9 11.9 0 0 1-2.69-.64 7.17 7.17 0 0 1-3.15-2.29 7.04 7.04 0 0 1-1.36-3.8h-8.99c.08 3.19.87 5.87 2.36 8.05s3.58 3.82 6.25 4.93Zm13.97-16.27c1.15.5 2.03 1.1 2.65 1.8.61.7.92 1.56.92 2.59 0 1.15-.34 2.16-1.03 3.03a6.63 6.63 0 0 1-2.86 2.01c-.73.28-1.55.47-2.44.59v-10.97c1.04.29 1.96.61 2.76.96Zm-8.25-10.88c-1.11-.46-1.99-1.05-2.66-1.79s-1-1.66-1-2.77c0-1 .28-1.9.86-2.69a5.6 5.6 0 0 1 2.53-1.85 8.85 8.85 0 0 1 2.13-.54v10.31c-.64-.2-1.26-.42-1.86-.67ZM917.87 369.15h-.01.01zM910.4 661.09v4.36h-5.9v-4.36c0-1.88-.47-3.6-1.41-5.15s-2.19-2.79-3.74-3.72c-1.56-.93-3.28-1.39-5.18-1.39s-3.63.46-5.18 1.39a10.5 10.5 0 0 0-3.71 3.72c-.92 1.56-1.38 3.25-1.38 5.15s.46 3.63 1.38 5.18a10.39 10.39 0 0 0 3.71 3.71 9.94 9.94 0 0 0 5.15 1.38h4.42v5.93h-4.42c-1.88 0-3.6.47-5.15 1.41a10.63 10.63 0 0 0-3.71 3.74 10 10 0 0 0-1.38 5.18c0 1.9.46 3.63 1.38 5.18a10.39 10.39 0 0 0 8.86 5.12c1.92-.03 3.66-.5 5.21-1.42s2.8-2.16 3.74-3.71a9.83 9.83 0 0 0 1.41-5.18v-4.36h5.9v4.36c0 1.9.46 3.63 1.39 5.18a10.6 10.6 0 0 0 3.72 3.72c1.56.93 3.28 1.39 5.18 1.39s3.63-.46 5.18-1.39a10.41 10.41 0 0 0 3.71-3.72 10 10 0 0 0 1.38-5.18c0-1.9-.46-3.63-1.38-5.18a10.63 10.63 0 0 0-3.71-3.74 9.83 9.83 0 0 0-5.18-1.41h-4.39v-5.93h4.39c1.9 0 3.63-.46 5.18-1.39 1.56-.93 2.79-2.17 3.71-3.71s1.38-3.28 1.38-5.16-.46-3.6-1.38-5.15-2.16-2.79-3.71-3.72c-1.56-.93-3.28-1.39-5.18-1.39s-3.63.46-5.18 1.39-2.79 2.17-3.72 3.72a9.85 9.85 0 0 0-1.39 5.15Zm-11.84 26.54a4.52 4.52 0 0 1-4.42 4.39 4.46 4.46 0 0 1-4.33-4.4c0-.8.2-1.53.59-2.19.39-.65.91-1.18 1.57-1.57s1.38-.59 2.17-.59h4.42v4.36Zm0-22.16h-4.43c-.79 0-1.51-.2-2.17-.59a4.46 4.46 0 0 1-1.57-1.57c-.39-.65-.59-1.39-.59-2.19s.2-1.53.59-2.19a4.27 4.27 0 0 1 3.74-2.14 4.39 4.39 0 0 1 4.43 4.33v4.36Zm11.83 11.83h-5.9v-5.93h5.9v5.93Zm5.92 5.98h4.39c.81 0 1.53.2 2.18.59a4.43 4.43 0 0 1 2.15 3.76 4.34 4.34 0 0 1-2.14 3.77c-.66.39-1.39.6-2.2.62a4.38 4.38 0 0 1-3.79-2.2 4.25 4.25 0 0 1-.59-2.18v-4.36Zm0-17.81v-4.36a4.23 4.23 0 0 1 2.18-3.75c.67-.39 1.4-.58 2.21-.58s1.53.2 2.18.58a4.32 4.32 0 0 1 1.57 5.93 4.33 4.33 0 0 1-3.76 2.18h-4.39ZM729.67 771.78h21.07v7.24h-21.07zM702.79 429.36a11.86 11.86 0 0 0-3.48 3.97 10.68 10.68 0 0 0-1.29 5.19c0 2.42.75 4.59 2.23 6.51a14.94 14.94 0 0 0 6.13 4.54c2.6 1.11 5.59 1.67 8.96 1.67s6.37-.56 8.98-1.67a15.05 15.05 0 0 0 6.16-4.54 10.35 10.35 0 0 0 2.24-6.51c0-1.88-.44-3.61-1.32-5.19-.88-1.59-2.05-2.91-3.51-3.97s-3.09-1.74-4.89-2.04v-.27a9.91 9.91 0 0 0 5.78-3.54 9.98 9.98 0 0 0 2.27-6.48c0-2.32-.68-4.39-2.04-6.22a13.79 13.79 0 0 0-5.6-4.31c-2.37-1.04-5.05-1.57-8.07-1.57s-5.72.52-8.08 1.57-4.22 2.48-5.57 4.31a10.21 10.21 0 0 0-2.03 6.22 10.07 10.07 0 0 0 8.08 10.02v.27c-1.84.3-3.49.98-4.95 2.04Zm6.72-14.51a5.75 5.75 0 0 1 2.35-2.12c1-.51 2.15-.76 3.47-.76s2.47.26 3.47.76c1 .51 1.78 1.21 2.35 2.12.57.91.85 1.99.85 3.18s-.29 2.25-.86 3.18-1.36 1.66-2.36 2.18c-1 .53-2.15.79-3.44.79h-.02a7.31 7.31 0 0 1-3.45-.79 5.85 5.85 0 0 1-3.21-5.36c0-1.21.28-2.27.85-3.18Zm-.89 19.4a6.98 6.98 0 0 1 2.74-2.41c1.16-.59 2.49-.88 3.98-.88s2.82.3 3.98.89 2.07 1.4 2.74 2.42c.67 1.02 1 2.23 1 3.53a6.15 6.15 0 0 1-3.66 5.77 9.34 9.34 0 0 1-4.06.83 9.02 9.02 0 0 1-4.06-.84 6.1 6.1 0 0 1-3.66-5.75c0-1.35.33-2.54 1-3.56ZM826.49 506.48h30.67v7.33h-30.67zM800.45 493.59v7.75h-11.6v7.08h11.6v7.72h7.69v-7.72h11.56v-7.08h-11.56v-7.75h-7.69zM898.67 575.83c-2.14-2.14-4.62-3.81-7.42-5.01s-5.81-1.8-9.02-1.8-6.22.6-9.02 1.8a23.54 23.54 0 0 0-12.43 12.43c-1.2 2.8-1.8 5.81-1.8 9.02s.6 6.22 1.8 9.02a23.54 23.54 0 0 0 12.43 12.43c2.8 1.2 5.81 1.8 9.02 1.8s6.22-.6 9.02-1.8a23.54 23.54 0 0 0 12.43-12.43c1.2-2.8 1.8-5.81 1.8-9.02s-.6-6.21-1.8-9.02a23.54 23.54 0 0 0-5.01-7.42ZM750.74 733.91h-18.59l-19.1 37.87h-14.44v7.24h18.62l19.13-37.81h14.38v-7.3zM677.99 514.08l11.93-14.29h-9.66l-12.14 14.29 12.14 14.29h9.66l-11.93-14.29zM803.8 360.71a9.24 9.24 0 0 1-3.94.79 10.4 10.4 0 0 1-3.77-.67 6.6 6.6 0 0 1-2.75-1.94 5.33 5.33 0 0 1-1.2-3h-9.32c.1 2.67.89 4.99 2.35 6.98s3.46 3.53 5.99 4.63a21.56 21.56 0 0 0 8.67 1.65s-.02 0-.02 0c3.29 0 6.24-.58 8.83-1.73a14.81 14.81 0 0 0 6.14-4.83c1.51-2.07 2.26-3.26 2.26-7.28 0-2.68-.7-5.06-2.1-7.14a12.94 12.94 0 0 0-5.87-4.71 15.25 15.25 0 0 0-6.57-1.08l12.74-12.22v-6.72h-30.15v7.63h18.95v.3l-10.17 10.11v6.18h4.9c1.92 0 3.52.32 4.8.97a6.72 6.72 0 0 1 3.86 6.12 6.14 6.14 0 0 1-3.63 5.97ZM814.33 426.72v7.48h6.46v2.96h-6.46v7.48h6.46v6h9.2v-6h9.83v-7.48h-9.83v-2.96h8.29l.02.01c3.5-.02 6.5-.61 9.01-1.76s4.45-2.79 5.81-4.93 2.03-4.64 2.01-7.51c.02-2.75-.63-5.21-1.97-7.39s-3.26-3.91-5.77-5.18c-2.52-1.27-5.55-1.91-9.1-1.91h-17.5v21.19h-6.46Zm15.66-13.62h8.29c1.71 0 3.13.32 4.25.94s1.96 1.46 2.51 2.51c.55 1.05.83 2.18.83 3.54s-.28 2.53-.83 3.53-1.41 1.77-2.57 2.3c-1.17.53-2.65.8-4.47.8h-8.01V413.1ZM719.8 330.43v8.48l10.32-7.33h.3v36.96h9.23v-45.1h-9.89l-9.96 6.99zM111.68 696.92v-27.4h10.48v-4.61H95.99v4.61h10.54v27.4h5.15zM821.82 360.52v-.01.01zM843.41 368.54h8.69v-8.03h5.8v-7.45h-5.8v-12.67h-8.42v12.67h-12.57v-.36l16.53-29.27h-8.9l-16.92 29.79v7.29h21.59v8.03zM288.95 788.19h5.15l.03-13.92h-4.22v-37.92h-5.44v37.88H269.7v-37.88h-5.41v37.88h-14.77v-37.88h-5.45v42.66h42.73v.01h2.15v9.17zM407.9 228.47h33.82v-99.4h39.67v-26.6H368.12v26.6h39.78v99.4zM338.12 788.19h5.15l.03-13.92h-4.23V747h-5.15v27.26h-11.85V747h-5.15v27.26h-11.85V747h-5.17v32.01h36.07v.01h2.15v9.17zM773.38 428.11c0 4.89.72 9.05 2.15 12.49a17.38 17.38 0 0 0 6.18 7.9c2.69 1.83 5.93 2.74 9.72 2.74s7.06-.91 9.76-2.74 4.76-4.46 6.18-7.9 2.13-7.63 2.13-12.49-.72-9.02-2.15-12.47-3.49-6.1-6.19-7.95c-2.69-1.85-5.93-2.77-9.73-2.77s-7.04.91-9.72 2.75a17.34 17.34 0 0 0-6.18 7.95c-1.43 3.46-2.15 7.6-2.15 12.49Zm10.42-8.45c.67-2.31 1.65-4.08 2.94-5.3 1.29-1.22 2.83-1.83 4.69-1.83s3.43.61 4.71 1.82c1.28 1.21 2.26 2.98 2.94 5.3.67 2.33 1.01 5.16 1.01 8.45s-.33 6.09-1.01 8.39-1.66 4.06-2.94 5.27-2.85 1.82-4.71 1.82a6.7 6.7 0 0 1-4.69-1.83c-1.3-1.21-2.27-2.96-2.94-5.27-.67-2.31-1-5.08-1-8.39s.33-6.12 1-8.43ZM747.9 329.61a14.23 14.23 0 0 0-2.01 7.64h8.84c0-1.47.28-2.73.85-3.78a5.76 5.76 0 0 1 2.42-2.42c1.05-.57 2.31-.85 3.66-.85s2.55.27 3.6.79a6.1 6.1 0 0 1 2.48 2.24c.61.97.91 2.13.91 3.48 0 1.21-.25 2.34-.74 3.38s-1.21 2.1-2.15 3.18a60.7 60.7 0 0 1-3.47 3.62l-15.98 14.99v6.66-.03h31.91v-7.6h-19.07v-.33l6.81-6.72a77.32 77.32 0 0 0 7.16-7.28 21.7 21.7 0 0 0 3.51-5.49c.65-1.63.98-3.28.98-4.96 0-2.6 0-3.9-1.98-6.9a13.4 13.4 0 0 0-5.55-4.71c-2.39-1.14-5.26-1.71-8.36-1.71s-5.85.59-8.23 1.77a13.37 13.37 0 0 0-5.59 5.03ZM417.55 706.09h5.15l.03-13.92h-4.22v-27.26h-5.18v27.26h-15.09v-27.26h-5.15v32.01H417.55v9.17zM382.55 706.09h5.15l.03-13.92h-4.21v-37.91h-5.44v37.88h-21.16v-37.88h-5.44v42.66h31.07v9.17zM866.97 526.07l10.29-10.28 10.3 10.28 5.6-5.6-10.27-10.3 10.27-10.26-5.6-5.69-10.3 10.31-10.29-10.31-5.63 5.69 10.29 10.26-10.29 10.3 5.63 5.6zM698.72 691.98l15.05-14.8-15.05-14.8v11.24h-28.31v-21.8h-7.08v28.97h35.39v11.19zM663.17 413.16h21.86v.3l-18.77 37.18h9.59l18.83-37.36v-7.75h-31.51v7.63zM657.2 733.9h37.45v7.21H657.2z"/><path d="m682.32 514.08 12.14 14.29h9.66l-11.93-14.29 11.93-14.29h-9.66l-12.14 14.29zM866.97 526.07zM763.74 694.29l5.03 4.93v.02l22.01-22.04-22.01-22.01-5.03 4.93 7.72 7.71h-49.95v7.02h56.99l2.34 2.34-2.39 2.39h-56.94v7.02h49.92l-7.69 7.69zM739.65 323.43v.01-.01zM873.71 756.49l-22.46-22.58h-42.08v45.1h42.08l22.46-22.52Zm-57.31 15.47v-30.97h31.82l15.41 15.5-15.41 15.47H816.4ZM857.48 673.55c-.7-.71-1.54-1.43-2.51-2.18a84 84 0 0 0-2.77-2.03l.32.04c1.73.25 3.53.46 5.4.64s3.57.27 5.1.27h9.96v-7.21h-31.06v31.12l7.2.01v-10.02c0-1.05-.06-2.25-.17-3.6s-.25-2.73-.42-4.12c-.13-1.11-.27-2.14-.4-3.14.66.96 1.34 1.89 2.05 2.81.75.96 1.47 1.8 2.18 2.53l18.59 18.62 5.15-5.15-18.62-18.59Z"/><path d="m848.52 748.76-4.84-5-7.99 7.85-8-7.86-4.84 5 7.88 7.73-7.88 7.74 4.84 4.96v.01l8-7.85 7.99 7.84v-.01l4.84-4.96-7.87-7.73 7.87-7.72zM830.17 689.72h-9.96c-1.53 0-3.23.09-5.1.27-1.86.19-3.66.4-5.4.64l-.34.05c.92-.64 1.84-1.31 2.79-2.04.97-.75 1.8-1.47 2.51-2.18l18.62-18.59-5.15-5.15-18.59 18.62c-.71.7-1.43 1.54-2.18 2.51-.73.95-1.41 1.88-2.04 2.8a144.46 144.46 0 0 0 .82-7.23c.11-1.35.17-2.55.17-3.6V665.8h-7.21v31.13h31.06v-7.21ZM762.37 772.42a23.32 23.32 0 0 0 7.21 4.84c2.72 1.18 5.63 1.76 8.75 1.76s6.05-.59 8.76-1.76c2.67-1.15 5.11-2.79 7.17-4.84s3.71-4.49 4.84-7.17c1.16-2.73 1.74-5.62 1.74-8.75s-.58-6.06-1.74-8.78a22.66 22.66 0 0 0-12.01-12.05 21.67 21.67 0 0 0-7.76-1.71v-10.85l-15.04 14.8 15.04 14.8v-11.43a14.85 14.85 0 0 1 9.81 4.42 15.18 15.18 0 0 1 3.27 16.75 15.56 15.56 0 0 1-8.15 8.15c-1.85.8-3.83 1.2-5.95 1.2s-4.1-.4-5.95-1.2a15.48 15.48 0 0 1-8.15-8.18 14.9 14.9 0 0 1-1.18-5.92h-7.29c0 3.11.59 6.03 1.76 8.75s2.79 5.11 4.87 7.17ZM905.5 364.29a15.25 15.25 0 0 0 5.74 3.71c2.14.77 4.34 1.15 6.62 1.15v-.02c3.33 0 6.25-.67 8.75-2.01a14.88 14.88 0 0 0 7.99-13.66c0-2.83-.61-5.34-1.82-7.54a13.36 13.36 0 0 0-12.08-7.02c-1.63 0-3.19.25-4.66.74-1.47.5-2.78 1.22-3.92 2.17s-2.05 2.08-2.74 3.39h-.3c0-2.96.34-5.52 1.03-7.67a10.6 10.6 0 0 1 3.07-4.98 7.42 7.42 0 0 1 5.01-1.76c1.78 0 3.27.46 4.47 1.38 1.2.92 2 2.18 2.38 3.77h9.08a14.04 14.04 0 0 0-2.53-6.67 14.95 14.95 0 0 0-5.52-4.69 17.11 17.11 0 0 0-7.87-1.74 15.85 15.85 0 0 0-13.26 6.41 22.84 22.84 0 0 0-3.66 7.63 37.23 37.23 0 0 0-1.27 10.17c0 4.13.49 7.61 1.48 10.44a18.02 18.02 0 0 0 4.01 6.8Zm5.13-13.66a7.94 7.94 0 0 1 4.16-4.33 7.4 7.4 0 0 1 3.09-.64 7.46 7.46 0 0 1 6.75 3.96c.67 1.21 1 2.56 1 4.09s-.34 2.91-1.03 4.13a7.58 7.58 0 0 1-6.79 3.98h.01v.02c-1.49 0-2.83-.37-4.01-1.11s-2.1-1.72-2.77-2.94a8.26 8.26 0 0 1-1-4.04c0-1.11.2-2.15.59-3.12ZM390.85 925.69h25.88v4.75h-25.88zM390.85 913.26h25.88v4.75h-25.88zM480.39 861.11h.01V829.1h-12.74c-4.22 0-7.36.94-9.41 2.83s-3.08 4.34-3.08 7.3 1.03 5.35 3.08 7.16a9.8 9.8 0 0 0 3.42 1.88l-7.92 12.85h5.92l7.27-12.03.72.02h7.61v12.01h5.12ZM468 844.78c-2.71 0-4.67-.49-5.87-1.46-1.2-.97-1.8-2.32-1.8-4.09s.6-3.16 1.8-4.15c1.21-.99 3.18-1.49 5.93-1.49h7.21v11.19H468ZM447.74 861.11v-42.67h-14.6c-3.32 0-6.05.57-8.2 1.7a10.98 10.98 0 0 0-4.78 4.68c-1.04 1.99-1.56 4.25-1.56 6.79s.52 4.78 1.56 6.73a10.8 10.8 0 0 0 4.78 4.57c.49.25 1.01.46 1.56.66l-9.57 17.54h6.3l8.91-16.59c.33.01.64.04.97.04h9.19v16.55h5.44Zm-14.37-21.39c-2.23 0-4.03-.33-5.41-.99s-2.38-1.6-3.01-2.81-.94-2.61-.94-4.31.31-3.17.94-4.42a6.58 6.58 0 0 1 3.02-2.92c1.38-.69 3.2-1.04 5.45-1.04h8.88v16.49h-8.93ZM662.05 768.51zM609.21 164.8c0-10.82-1.52-20.21-4.56-28.18-3.04-7.96-7.27-14.59-12.68-19.89-5.41-5.3-11.68-9.26-18.82-11.89s-14.84-3.94-23.1-3.94c-12.25 0-22.92 2.74-32.01 8.23s-16.12 13.11-21.08 22.88c-4.96 9.77-7.44 21.15-7.44 34.15s2.5 24.79 7.5 34.49c5 9.69 12.15 17.17 21.47 22.43s20.4 7.89 33.25 7.89c9.84 0 18.54-1.43 26.09-4.28 7.55-2.85 13.84-6.89 18.88-12.12a43.47 43.47 0 0 0 10.59-18.2l-30.66-5.75a21.65 21.65 0 0 1-5.24 8.17c-2.29 2.22-5.05 3.89-8.28 5.02s-6.84 1.69-10.82 1.69c-5.86 0-10.99-1.24-15.38-3.72-4.39-2.48-7.82-6.2-10.26-11.16-2.21-4.49-3.41-9.94-3.62-16.34h86.18v-9.47h-.01Zm-86.05-11.73a35.52 35.52 0 0 1 2.97-11.67c2.1-4.62 5.2-8.28 9.3-10.99 4.09-2.7 9.07-4.05 14.93-4.05s10.65 1.33 14.59 4a24.38 24.38 0 0 1 8.9 11.27 40.74 40.74 0 0 1 2.71 11.44h-53.41ZM664.31 208.31h1.01c1.58 3.38 3.85 6.78 6.82 10.2s6.81 6.3 11.55 8.62 10.52 3.49 17.36 3.49c9.69 0 18.41-2.5 26.15-7.5s13.86-12.32 18.37-21.98c4.51-9.66 6.76-21.1 6.76-35.45s-2.31-26.33-6.93-35.95-10.8-16.83-18.54-21.64a47.58 47.58 0 0 0-25.58-7.21c-7.14 0-13.08 1.21-17.81 3.61a34.96 34.96 0 0 0-11.44 8.9 51.2 51.2 0 0 0-6.71 10.26h-1.58v-21.19h-33.25v173.11h33.82V208.3Zm2.36-62.63c2.1-5.59 5.18-9.95 9.24-13.07 4.05-3.12 8.82-4.68 14.76-4.68s10.9 1.62 14.88 4.85c3.98 3.23 7 7.66 9.07 13.3s3.1 12.14 3.1 19.5-1.03 13.9-3.1 19.61-5.11 10.18-9.13 13.41c-4.02 3.24-8.96 4.85-14.82 4.85v-.02c-5.71 0-10.59-1.57-14.65-4.73-4.06-3.15-7.16-7.57-9.3-13.24s-3.21-12.23-3.21-19.89 1.06-14.29 3.16-19.89ZM689.82 768.51l4.96-4.93-18.86-18.83-18.83 18.83 4.96 4.93 13.87-13.83 13.9 13.83zM281.49 903.5a43.8 43.8 0 0 0-3.82-8.26h-5.01a71.29 71.29 0 0 1 6.3 18.97c.57 3.16.86 6.13.86 8.92 0 2.44-.24 4.95-.73 7.53a52.9 52.9 0 0 1-2.3 8.23 98.45 98.45 0 0 1-4.12 9.6h5a56.48 56.48 0 0 0 5.48-12.54c1.27-4.3 1.9-8.57 1.9-12.83 0-3.09-.31-6.34-.94-9.76-.63-3.41-1.5-6.7-2.62-9.86ZM272.67 948.5v-.01h-.01l.01.01zM291.68 861.81a14 14 0 0 0 7.63-2.06 13.84 13.84 0 0 0 5.11-5.78c1.22-2.48 1.83-5.31 1.83-8.65s-.61-6.26-1.83-8.75-2.92-4.42-5.11-5.8a14.08 14.08 0 0 0-7.63-2.06c-1.55 0-3 .2-4.38.6-1.37.4-2.63.98-3.76 1.73a11.78 11.78 0 0 0-2.94 2.78 12.55 12.55 0 0 0-1.89 3.74l4.95 1.4a7.74 7.74 0 0 1 5.12-5.22 9.47 9.47 0 0 1 2.89-.42c2.14 0 3.9.56 5.27 1.68a9.97 9.97 0 0 1 3.06 4.39c.39 1.06.65 2.18.81 3.34h-13.79v4.64h13.86a15.8 15.8 0 0 1-.88 3.81 9.75 9.75 0 0 1-3.06 4.37 8.13 8.13 0 0 1-5.27 1.66c-1.07 0-2.05-.14-2.95-.43s-1.69-.69-2.39-1.22-1.28-1.15-1.76-1.88a8.1 8.1 0 0 1-1.06-2.38l-4.92 1.4a12.33 12.33 0 0 0 4.84 6.68c1.17.8 2.45 1.4 3.81 1.8 1.4.41 2.87.62 4.44.62ZM371.66 908.25h-4.84v11.54h-11.39v4.55h11.39v11.57h4.84v-11.57h11.4v-4.55h-11.4v-11.54zM398.95 861.8c2.92 0 5.48-.69 7.67-2.06s3.9-3.3 5.12-5.78c1.22-2.48 1.83-5.31 1.83-8.65s-.61-6.26-1.83-8.75a13.85 13.85 0 0 0-5.12-5.8c-2.19-1.37-4.77-2.06-7.67-2.06s-5.45.69-7.63 2.06a13.9 13.9 0 0 0-5.11 5.8 18.53 18.53 0 0 0-1.71 6.28h-7.96V829.1h-4.87v32.01h4.87v-13.69h7.93c.21 2.43.78 4.61 1.74 6.54a13.9 13.9 0 0 0 5.11 5.78 14.05 14.05 0 0 0 7.63 2.06Zm-9.33-16.5c0-2.14.33-4.12 1-5.93s1.7-3.27 3.08-4.39 3.09-1.68 5.25-1.68 3.94.56 5.33 1.68a9.93 9.93 0 0 1 3.09 4.41c.67 1.82 1 3.8 1 5.91s-.33 4.06-1 5.86a9.8 9.8 0 0 1-3.09 4.37 8.3 8.3 0 0 1-5.33 1.66 8.15 8.15 0 0 1-5.25-1.66 9.84 9.84 0 0 1-3.08-4.37c-.67-1.81-1-3.72-1-5.86ZM361.92 851.47c1.63-3.28 2.45-7.14 2.45-11.67s-.82-8.42-2.45-11.7a18.36 18.36 0 0 0-6.71-7.57c-2.85-1.77-6.09-2.66-9.74-2.66s-6.9.89-9.75 2.66-5.1 4.3-6.74 7.57a24.25 24.25 0 0 0-2.36 9.19h-7.67v-18.84h-5.44v42.66h5.44v-19.24h7.64a24.58 24.58 0 0 0 2.39 9.6 18.33 18.33 0 0 0 6.74 7.56c2.85 1.77 6.1 2.65 9.75 2.65s6.9-.88 9.74-2.65a18.27 18.27 0 0 0 6.71-7.56Zm-9.56 3.25c-2.06 1.29-4.35 1.93-6.89 1.93s-4.87-.65-6.93-1.95-3.7-3.2-4.91-5.7-1.82-5.55-1.82-9.19.61-6.72 1.82-9.23c1.21-2.51 2.85-4.41 4.91-5.71s4.39-1.95 6.93-1.95 4.84.64 6.89 1.93c2.06 1.29 3.69 3.19 4.9 5.7s1.82 5.63 1.82 9.26-.61 6.7-1.82 9.21a13.47 13.47 0 0 1-4.9 5.7ZM291.39 919.56h58.64v4.75h-58.64zM886.89 822.12c-2.14-2.14-4.62-3.81-7.42-5.01s-5.81-1.8-9.02-1.8-6.21.6-9.02 1.8A23.54 23.54 0 0 0 849 829.54c-1.2 2.8-1.8 5.81-1.8 9.02s.6 6.22 1.8 9.02a23.54 23.54 0 0 0 12.43 12.43c2.8 1.2 5.81 1.8 9.02 1.8s6.22-.6 9.02-1.8a23.54 23.54 0 0 0 12.43-12.43c1.2-2.8 1.8-5.81 1.8-9.02s-.6-6.21-1.8-9.02a23.54 23.54 0 0 0-5.01-7.42Zm-1.6 22.67a16.32 16.32 0 0 1-8.6 8.6c-1.94.83-4.02 1.24-6.24 1.24s-4.3-.41-6.24-1.24a16.16 16.16 0 0 1-5.13-3.47c-1.49-1.48-2.64-3.19-3.47-5.13s-1.24-4.02-1.24-6.24.41-4.3 1.24-6.24a16.16 16.16 0 0 1 3.47-5.13c1.48-1.49 3.19-2.64 5.13-3.47s4.02-1.24 6.24-1.24 4.3.41 6.24 1.24a16.32 16.32 0 0 1 8.6 8.6c.83 1.94 1.24 4.02 1.24 6.24s-.41 4.3-1.24 6.24ZM270.54 828.12a18.36 18.36 0 0 0-6.71-7.57 18.07 18.07 0 0 0-9.74-2.66c-2.17 0-4.22.32-6.14.95a16.6 16.6 0 0 0-5.17 2.76 15.77 15.77 0 0 0-3.82 4.41 17.14 17.14 0 0 0-2.1 5.88h5.44a10.59 10.59 0 0 1 4.25-6.68 11.42 11.42 0 0 1 3.52-1.72c1.29-.38 2.63-.57 4.02-.57 2.56 0 4.87.64 6.92 1.93a13.3 13.3 0 0 1 4.88 5.7 19.2 19.2 0 0 1 1.66 6.4h-17.67v4.78h17.73a19.74 19.74 0 0 1-1.72 7.3 13.3 13.3 0 0 1-4.88 5.68 12.75 12.75 0 0 1-6.92 1.93c-1.39 0-2.73-.19-4.02-.57-1.29-.38-2.46-.96-3.52-1.72a10.64 10.64 0 0 1-4.25-6.67h-5.44c.39 2.16 1.08 4.1 2.08 5.83.97 1.7 2.26 3.19 3.79 4.41a16.91 16.91 0 0 0 5.18 2.79c1.92.65 3.98.97 6.18.97 3.65.01 6.9-.88 9.74-2.65s5.08-4.3 6.71-7.57 2.45-7.11 2.45-11.64-.82-8.42-2.45-11.7ZM858.16 838.56v-.01.01z"/><path d="M867.48 833.07a6.16 6.16 0 0 1 3.18-.85c1.29 0 2.45.36 3.48 1.09s1.67 1.67 1.91 2.82h6.42a10.79 10.79 0 0 0-2.01-5.13c-1.1-1.51-2.5-2.7-4.21-3.59a11.84 11.84 0 0 0-5.58-1.33c-2.3 0-4.4.57-6.3 1.7s-2.85 1.69-4.53 4.51a12 12 0 0 0-1.68 6.26c0 2.3.56 4.39 1.68 6.28 1.12 1.89 2.63 3.39 4.53 4.51s4 1.68 6.3 1.68a11.63 11.63 0 0 0 9.62-4.91 10.92 10.92 0 0 0 1.94-5.12h-6.39c-.24 1.14-.84 2.06-1.8 2.79s-2.09 1.09-3.38 1.09a6.07 6.07 0 0 1-3.18-.86 6.55 6.55 0 0 1-2.32-2.3 6 6 0 0 1-.86-3.16c0-1.17.28-2.23.86-3.19s1.35-1.72 2.32-2.29ZM901.55 916.46l21.01 8.55v.41l-21.01 8.52v8.69l30.85-13.68v-7.5l-30.85-13.74v8.75zM923.31 833.06c.53-.82.8-1.8.8-2.95s-.26-2.12-.77-2.91-1.19-1.39-2.04-1.8-1.78-.62-2.79-.62h-7.96v16.23h4.18v-5.48h2.75l2.54 5.48h4.63l-3.13-6.27a5.05 5.05 0 0 0 1.79-1.68Zm-8.58-5.22h2.72c.59 0 1.11.18 1.56.54.45.37.68.95.68 1.82s-.22 1.52-.68 1.94c-.45.43-.98.64-1.59.64h-2.69v-4.94ZM930.51 498.92l1.86-11.3h-6.87l-1.86 11.3h-8.98l1.85-11.3h-6.87l-1.85 11.3h-6.18l-1.15 6.87h6.2l-1.44 8.81h-6.18l-1.18 6.84h6.24l-1.85 11.29h6.87l1.85-11.29h8.97l-1.86 11.29h6.87l1.86-11.29h6.17l1.18-6.84h-6.23l1.45-8.81h6.2l1.15-6.87h-6.22Zm-9.45 15.68h-8.97l1.44-8.81h8.98l-1.45 8.81Z"/><path d="M929.38 820.56c-1.62-1.61-3.49-2.88-5.62-3.8s-4.43-1.38-6.86-1.38-4.7.46-6.83 1.38a17.85 17.85 0 0 0-9.38 9.42c-.92 2.13-1.38 4.4-1.38 6.83s.46 4.7 1.38 6.83a17.88 17.88 0 0 0 9.38 9.42c2.13.92 4.41 1.38 6.83 1.38s4.73-.46 6.86-1.38a17.77 17.77 0 0 0 9.4-9.42c.91-2.13 1.36-4.4 1.36-6.83s-.45-4.7-1.36-6.83c-.9-2.13-2.17-4-3.78-5.62Zm-1.24 18.98a13.07 13.07 0 0 1-4.69 4.71 12.46 12.46 0 0 1-6.55 1.76h-.01c-2.38 0-4.55-.59-6.52-1.76a13.28 13.28 0 0 1-4.71-4.71c-1.18-1.96-1.76-4.17-1.76-6.55s.59-4.55 1.76-6.51a13.4 13.4 0 0 1 4.71-4.69c1.96-1.17 4.12-1.76 6.52-1.76s4.58.59 6.54 1.76a13.5 13.5 0 0 1 4.69 4.69c1.17 1.96 1.76 4.16 1.76 6.54s-.58 4.55-1.74 6.52ZM721.79 829.93l-6.36-19.56-6.3 19.56h-20.46l16.71 12.05-6.6 19.56 16.65-11.99 16.65 11.99-6.54-19.56 16.65-12.05h-20.4Zm.33 18.04-6.68-4.78-6.65 4.78 2.69-7.93-6.9-4.93h8.33l2.54-8.08 2.66 8.08h8.26l-6.87 4.93 2.63 7.93ZM777.88 858.48c1.47.61 3.12.91 4.96.91 2.48 0 4.76-.51 6.81-1.54s3.71-2.39 4.96-4.09 1.88-3.54 1.88-5.54v-36.29l-37.45 7.45v35.69l-1.18.12c-.32-.91-.86-1.76-1.59-2.54s-1.61-1.42-2.63-1.92a7.58 7.58 0 0 0-3.32-.74c-1.55 0-2.92.39-4.1 1.17a8.26 8.26 0 0 0-3.77 6.89c0 1.56.43 2.9 1.29 4.03s2.03 1.99 3.5 2.6 3.12.91 4.96.91v-.02c2.48 0 4.76-.51 6.81-1.54s3.71-2.39 4.96-4.09a9.2 9.2 0 0 0 1.88-5.51v-25.01l23.83-4.75v24.22l-1.18.12a7.37 7.37 0 0 0-1.59-2.56 8.68 8.68 0 0 0-2.63-1.94 7.58 7.58 0 0 0-3.32-.74 7.2 7.2 0 0 0-4.1 1.18 8.5 8.5 0 0 0-2.77 3.01 7.96 7.96 0 0 0-1 3.89c0 1.56.43 2.9 1.29 4.03s2.03 1.99 3.5 2.6ZM824.5 905.84c-2.45-2.34-5.42-4.16-8.9-5.46s-7.41-1.95-11.79-1.95c-4.68 0-8.83.7-12.46 2.09s-6.67 3.38-9.13 5.96c-2.47 2.59-4.33 5.66-5.59 9.22s-1.89 5.07-1.89 11.88c0 4.54.65 8.58 1.95 12.12 1.31 3.55 3.22 6.54 5.74 8.98s5.59 4.3 9.22 5.57 7.76 1.91 12.4 1.91.02-.02.02-.02a40.3 40.3 0 0 0 11.26-1.57 25.2 25.2 0 0 0 3.84-1.42l-2.39-6.3a32.92 32.92 0 0 1-12.02 2.33c-3.65 0-6.86-.47-9.64-1.42-2.77-.95-5.1-2.34-6.99-4.19s-3.31-4.13-4.27-6.84c-.96-2.72-1.44-5.89-1.44-9.34s.47-6.54 1.41-9.28 2.33-5.05 4.19-6.95a18.3 18.3 0 0 1 6.89-4.34c2.73-1 5.89-1.5 9.46-1.5s6.36.47 8.9 1.41c2.55.94 4.66 2.27 6.36 4.01 1.69 1.74 2.96 3.81 3.81 6.22s1.27 5.09 1.27 8.04c0 2.62-.16 4.77-.48 6.46-.32 1.68-.85 2.93-1.6 3.75s-1.76 1.23-3.03 1.23c-.93 0-1.62-.28-2.06-.85a3.58 3.58 0 0 1-.67-2.3v-20.43h-6.24v3.09h-.33c-.58-1.1-1.59-2.01-3.01-2.72s-3.12-1.06-5.1-1.06c-2.61 0-4.9.64-6.89 1.92s-3.54 3.06-4.65 5.33c-1.12 2.27-1.67 3.34-1.67 7.86 0 3.01.51 5.65 1.53 7.92s2.51 4.04 4.44 5.31 4.29 1.91 7.05 1.91c2.38 0 4.37-.47 5.95-1.41s2.65-2.17 3.19-3.68h.24c.2 1.15.69 2.1 1.48 2.86.79.75 1.77 1.31 2.94 1.66s2.41.53 3.72.53c2.26 0 4.19-.46 5.77-1.38 1.59-.92 2.88-2.2 3.88-3.83.99-1.63 1.72-3.54 2.19-5.72s.7-4.53.7-7.05a27 27 0 0 0-1.94-10.31 23.79 23.79 0 0 0-5.62-8.25ZM809.43 932c-.54 1.32-1.35 2.3-2.44 2.97s-2.48 1-4.15 1c-1.61.01-2.95-.37-4.01-1.14s-1.85-1.82-2.36-3.15-.77-2.84-.77-4.54c0-1.6.28-2.99.85-4.21s1.39-2.16 2.47-2.85 2.34-1.03 3.92-1.03 2.91.28 4 .82 1.92 1.41 2.47 2.6.83 2.78.83 4.69-.27 3.53-.8 4.84ZM861.79 928.95v.02l30.85 13.68v-8.69l-20.98-8.52v-.41l20.98-8.55v-8.75l-30.85 13.74v7.48zM715.43 843.19h.01-.01zM838.65 935.09l16.29-9.87-16.29-9.87v19.74zM841.68 832.15c0-2.22-.42-4.3-1.26-6.25s-2-3.67-3.48-5.15-3.2-2.64-5.16-3.48a15.82 15.82 0 0 0-6.3-1.26h-8.42v39.06l-1.18.12c-.32-.91-.86-1.76-1.59-2.54s-1.61-1.42-2.63-1.92a7.58 7.58 0 0 0-3.32-.74c-1.55 0-2.92.39-4.1 1.17a8.26 8.26 0 0 0-3.77 6.89c0 1.56.43 2.9 1.29 4.03s2.03 1.99 3.5 2.6 3.12.91 4.96.91v-.02c2.48 0 4.76-.51 6.81-1.54s3.71-2.39 4.96-4.09a9.2 9.2 0 0 0 1.88-5.51h.01v-32.06h1.6c1.8 0 3.43.44 4.89 1.32 1.45.87 2.65 2.08 3.51 3.53a9.4 9.4 0 0 1 1.32 4.93 10.18 10.18 0 0 1-2.69 6.75l4.78 4.27c1.29-1.39 2.34-3.04 3.16-4.95s1.23-3.85 1.23-6.07ZM405.7 777.64a9.84 9.84 0 0 0 5.33-8.98c0-1.96-.45-3.71-1.35-5.24-.9-1.53-2.22-2.73-3.97-3.61s-3.88-1.32-6.4-1.32h-8.38v-11.47h-5.15v32.01h13.54c2.51 0 4.64-.46 6.38-1.39Zm-14.77-14.35h8.39c1.89 0 3.45.52 4.67 1.56 1.22 1.04 1.83 2.46 1.83 4.05s-.61 2.88-1.83 3.88a7.13 7.13 0 0 1-4.67 1.5h-8.39v-10.99ZM272.52 177.08h47v51.39h33.81v-126h-33.81v47.67h-47v-47.67h-33.81v126h33.81v-51.39zM135.6 691.41c-.86.45-2 .67-3.41.67h-2.98v4.84h2.9c2.18 0 3.92-.3 5.23-.9s2.35-1.43 3.11-2.49a18.34 18.34 0 0 0 2-3.65l14.75-35.62h-5.84l-5.1 12.71c-1.41 3.53-2.12 5.3-3.59 9.56l-2.04 5.88-1.14-3.42a121 121 0 0 0-4.6-12.03l-5.61-12.71h-5.96l15 32.96-.8 1.95a4.16 4.16 0 0 1-1.92 2.25ZM151.9 151.39c3.68-5.78 6.99-11.4 9.92-16.85s6.05-11.46 9.35-18.03c2.02-4.03 4.28-8.55 6.76-13.55a4562 4562 0 0 1-.78 13.27c-.45 7.44-.81 14.18-1.07 20.23s-.39 10.99-.39 14.82v77.2h35.16V60.55h-38.32l-53.08 84.98a426.9 426.9 0 0 0-8.17 14.2 276.76 276.76 0 0 0-12.84 26.77 1746 1746 0 0 0 1.62-28.91c.3-6.46.45-11.95.45-16.45V60.55H65.35v167.93h38.43l48.12-77.09ZM372.59 777.42a11.66 11.66 0 0 0 4.97-4.55c1.17-1.97 1.75-4.4 1.75-6.99s-.59-4.84-1.76-6.74a11.56 11.56 0 0 0-4.98-4.4 17.49 17.49 0 0 0-7.63-1.55h-10.15v-16.83h-5.44v42.66h15.58a17 17 0 0 0 7.66-1.6Zm-17.8-19.44h10.14c1.85 0 3.44.32 4.78.96a7.36 7.36 0 0 1 3.11 2.71 7.7 7.7 0 0 1 1.1 4.18c0 2.59-.81 4.65-2.42 6.18-1.61 1.53-3.8 2.29-6.57 2.29h-10.14v-16.32ZM75.03 761.67c2.13.95 4.68 1.43 7.64 1.43 2.69 0 5.12-.35 7.29-1.07a27.43 27.43 0 0 0 4.36-1.85v18.84h5.44v-42.66h-5.44V755c-1.37.84-2.8 1.54-4.29 2.09-2.1.78-4.32 1.17-6.67 1.17-2.76 0-5.05-.7-6.84-2.08-1.79-1.38-2.69-3.63-2.69-6.74v-13.08h-5.44v13.11c0 3.15.57 5.74 1.72 7.75a10.34 10.34 0 0 0 4.92 4.45ZM263.57 904.61a75.49 75.49 0 0 1 3.82-9.36h-5.01c-1.43 2.35-2.7 5.1-3.81 8.26s-1.98 6.44-2.62 9.85a53.05 53.05 0 0 0-.96 9.78c0 4.18.63 8.41 1.88 12.71s3.09 8.52 5.51 12.66h5.01c-1.64-3.4-2.99-6.55-4.05-9.44s-1.84-5.64-2.35-8.23-.76-5.16-.76-7.7c0-2.79.29-5.76.86-8.92a71.2 71.2 0 0 1 2.48-9.61ZM97.01 935.61a15.1 15.1 0 0 0 2.22-4.29 21 21 0 0 0 .97-6.96h-4.95a16.6 16.6 0 0 1-1.77 7.67l-9.15-11.09 3.12-2.31c1.1-.82 2.09-1.7 2.93-2.63.84-.93 1.51-1.95 2-3.06s.73-2.31.73-3.61c0-1.7-.42-3.24-1.26-4.62-.84-1.38-2.03-2.49-3.58-3.32s-3.43-1.25-5.53-1.25-3.94.41-5.51 1.23c-1.57.82-2.79 1.96-3.65 3.41s-1.29 3.12-1.29 5.01c0 1.7.34 3.27 1.04 4.7a21.6 21.6 0 0 0 2.86 4.34l1.09 1.31a79.68 79.68 0 0 0-4.16 3.32c-1.34 1.16-2.39 2.42-3.16 3.78s-1.15 2.97-1.15 4.84a11.02 11.02 0 0 0 6.36 10.15 15.82 15.82 0 0 0 7.27 1.56s.03 0 .03 0c2.04 0 4.11-.38 6.2-1.12 1.92-.69 3.52-1.7 4.85-3.01l2.96 3.55h6.21l-5.97-7.24.29-.35Zm-18.87-28.56a4.63 4.63 0 0 1 1.9-1.82 5.88 5.88 0 0 1 2.83-.66c1.55 0 2.77.44 3.68 1.32a4.45 4.45 0 0 1 1.36 3.35c0 1 .01 1.49-.64 2.61a7.38 7.38 0 0 1-1.56 1.92c-.61.54-1.17 1-1.69 1.38l-2.76 2.03-1.07-1.32c-.84-1.06-1.5-2.07-1.99-3.04s-.73-2.02-.73-3.06.22-1.94.67-2.71ZM87 938.23c-1.57.69-3.2 1.04-4.9 1.04-1.56 0-2.94-.29-4.15-.89s-2.14-1.42-2.81-2.48-1-2.29-1-3.68.35-2.54 1.07-3.65a15.04 15.04 0 0 1 3.71-3.62l1.45-1.08 10.08 12.09a13.1 13.1 0 0 1-3.45 2.26ZM119.14 918.22a6.14 6.14 0 0 0 2.81-3.16 9.7 9.7 0 0 0 .96-4.32v-2.23c0-1.57-.31-3-.94-4.31a7.58 7.58 0 0 0-2.79-3.15c-1.24-.79-2.8-1.19-4.6-1.19s-3.32.4-4.57 1.19a7.73 7.73 0 0 0-2.85 3.15 9.57 9.57 0 0 0-.97 4.31v2.23c0 1.56.32 3 .96 4.32.62 1.3 1.6 2.4 2.83 3.16a8.36 8.36 0 0 0 4.59 1.19c1.82 0 3.34-.4 4.57-1.19Zm-8.57-7.48v-2.23c0-1.26.31-2.4.93-3.41s1.59-1.52 3.08-1.52 2.52.51 3.09 1.52c.57 1.02.86 2.15.86 3.41v2.23c0 1.28-.01 1.92-.89 3.42-.59 1-1.61 1.5-3.06 1.5s-2.21 0-3.11-1.5c-.6-1-.9-2.14-.9-3.42ZM69 818.44v42.66h15.58a17 17 0 0 0 7.66-1.6 11.66 11.66 0 0 0 4.97-4.55c1.17-1.97 1.75-4.4 1.75-6.99s-.59-4.84-1.76-6.74a11.6 11.6 0 0 0-4.98-4.39 17.49 17.49 0 0 0-7.63-1.54H74.44v-16.85H69Zm15.58 21.62c1.85 0 3.44.32 4.78.96a7.36 7.36 0 0 1 3.11 2.71 7.7 7.7 0 0 1 1.1 4.18c0 2.59-.81 4.65-2.42 6.18-1.61 1.53-3.8 2.29-6.57 2.29H74.44v-16.32h10.14ZM334.27 680.76l10.7-15.85h-5.9l-4.07 6.21a41.47 41.47 0 0 0-2.59 4.49c-.29.6-.6 1.17-.91 1.75l-.98-1.75a73.25 73.25 0 0 0-2.68-4.49l-3.98-6.21h-6.01l10.61 15.59-11.27 16.42h5.96l4.75-7.19a42.56 42.56 0 0 0 2.55-4.37c.27-.54.55-1.07.84-1.59l.9 1.59c.82 1.49 1.7 2.94 2.62 4.37l4.7 7.19h5.98l-11.21-16.16ZM183.22 664.92l-6.87 18.98a62.99 62.99 0 0 0-1.82 5.88l-.64 2.37-.63-2.36a58.54 58.54 0 0 0-1.83-5.9l-6.81-18.98h-5.64l12.23 32.18-.92 2.66a9.1 9.1 0 0 1-1.8 3.38 3.94 3.94 0 0 1-2.32 1.27c-.86.13-1.81.06-2.86-.21l-.54-.14-1.32 4.47h-.02c.26.13.73.27 1.4.4s1.46.2 2.38.2c1.51 0 2.87-.26 4.07-.79a8.46 8.46 0 0 0 3.16-2.43c.9-1.09 1.68-2.49 2.33-4.19l14.06-36.79h-5.61ZM187.15 736.35h-5.44v37.88h-14.77v-37.88h-5.41v37.88h-14.77v-37.88h-5.45v42.66h45.84v-42.66zM139.25 859.73a9.84 9.84 0 0 0 5.33-8.98c0-1.97-.45-3.71-1.35-5.24-.9-1.53-2.22-2.73-3.97-3.61s-3.88-1.32-6.4-1.32h-8.38v-11.47h-5.15v32.01h13.54c2.51 0 4.64-.46 6.38-1.39Zm-14.77-14.35h8.39c1.89 0 3.45.52 4.67 1.56 1.22 1.04 1.83 2.47 1.83 4.05s-.61 2.88-1.83 3.88a7.13 7.13 0 0 1-4.67 1.5h-8.39v-10.99ZM295.52 680.5c.48.85 1 1.7 1.55 2.55s1.23 1.87 2.03 3.05l7.47 10.82h6.27l-15.13-22.03 14.33-20.63h-6.16l-6.27 9.05c-.92 1.33-1.68 2.46-2.28 3.39a48.66 48.66 0 0 0-2.81 4.91 49.85 49.85 0 0 0-2.78-4.92 108.2 108.2 0 0 0-2.25-3.38l-6.16-9.05h-6.3l14.35 20.81-15.29 21.85h6.2l7.53-10.82c.84-1.21 1.54-2.24 2.1-3.11a52.8 52.8 0 0 0 2.58-4.4c.36.71.71 1.35 1.02 1.91ZM119.77 769l-.02.02a26.22 26.22 0 0 0 7.32-.98l.21-.06v11.04h5.15v-32.01h-5.15v16.18c-.65.18-1.29.36-1.94.5-1.68.38-3.58.57-5.58.57s-3.68-.56-5.01-1.69-2-2.89-2-5.3v-10.25h-5.15v10.25c0 3.91 1.11 6.85 3.31 8.8 2.2 1.95 5.16 2.93 8.86 2.93ZM201.67 691.63a21.05 21.05 0 0 0 9.2 2.21v5.6h5.44v-5.6c3.52-.1 6.6-.83 9.22-2.21 2.82-1.49 5-3.6 6.54-6.33 1.53-2.73 2.3-5.96 2.3-9.71s-.76-6.98-2.3-9.71a15.84 15.84 0 0 0-6.54-6.33 20.83 20.83 0 0 0-9.22-2.21v-5.6h-5.44v5.6c-3.51.1-6.58.83-9.2 2.21a15.77 15.77 0 0 0-6.56 6.33c-1.53 2.73-2.3 5.96-2.3 9.71s.76 6.98 2.3 9.71a15.83 15.83 0 0 0 6.56 6.33Zm21.14-27.77c2.06 1.03 3.63 2.52 4.71 4.5s1.62 2.95 1.62 7.23c0 2.85-.54 5.26-1.62 7.23-1.08 1.98-1.62 2.97-4.71 4.5-1.8.89-3.98 1.37-6.5 1.48v-26.42c2.52.11 4.7.58 6.5 1.48Zm-23.14 4.5a10.5 10.5 0 0 1 4.72-4.5 16.23 16.23 0 0 1 6.48-1.48v26.42a16.1 16.1 0 0 1-6.48-1.48 10.6 10.6 0 0 1-4.72-4.5c-1.08-1.98-1.62-4.39-1.62-7.23s.55-5.25 1.62-7.23ZM246.95 695.55a14.05 14.05 0 0 0 7.63 2.06v11.28h5.18v-11.28c2.9 0 5.44-.69 7.63-2.06a13.84 13.84 0 0 0 5.11-5.78c1.22-2.48 1.83-5.31 1.83-8.65s-.61-6.26-1.83-8.75-2.92-4.43-5.11-5.8-4.73-2.06-7.63-2.06v-10.25h-5.18v10.25c-2.9 0-5.44.68-7.63 2.06s-3.89 3.31-5.11 5.8c-1.22 2.49-1.83 5.46-1.83 8.75s.61 6.17 1.83 8.65a13.9 13.9 0 0 0 5.11 5.78Zm18.11-25.14c1.4 1.2 2.44 2.75 3.14 4.65a17.78 17.78 0 0 1 0 11.99 10.5 10.5 0 0 1-3.14 4.51 8.06 8.06 0 0 1-5.3 1.73v-24.68c2.14 0 3.91.6 5.3 1.8Zm-18.92 4.65c.7-1.9 1.75-3.45 3.14-4.65a7.84 7.84 0 0 1 5.3-1.8v24.68a8 8 0 0 1-5.3-1.73 10.57 10.57 0 0 1-3.14-4.51c-.69-1.85-1.04-3.79-1.04-5.93s.34-4.16 1.04-6.06ZM235.16 747h-5.15v27.26h-11.85V747h-5.15v27.26h-11.85V747h-5.17v32.01h39.17V747zM105.03 818.45h5.44v42.66h-5.44zM195.19 854.95c1.17-1.97 1.75-4.4 1.75-6.99s-.59-4.84-1.76-6.74c-1.17-1.89-2.83-3.36-4.98-4.39s-4.69-1.54-7.63-1.54h-10.15v-16.85h-5.44l-12.13.01v4.58h12.13v38.07h15.58a17 17 0 0 0 7.66-1.6 11.66 11.66 0 0 0 4.97-4.55Zm-6.06-.86c-1.61 1.53-3.8 2.29-6.57 2.29h-10.14v-16.32h10.14c1.85 0 3.44.32 4.78.96a7.3 7.3 0 0 1 3.11 2.71 7.7 7.7 0 0 1 1.1 4.18c0 2.59-.81 4.65-2.42 6.18ZM183.35 933.05h-.4l-19.04-32.5h-5.15v42.66h5.32v-32.24h.46l18.93 32.24h5.15v-42.66h-5.27v32.5zM114.58 919.41h-.01.01zM146.89 925.68c-1.24-.79-2.81-1.19-4.61-1.19s-3.32.4-4.57 1.19-2.2 1.84-2.85 3.15a9.57 9.57 0 0 0-.97 4.31v2.23c0 1.56.32 3 .96 4.32.62 1.3 1.6 2.4 2.83 3.16 1.25.79 2.78 1.19 4.59 1.19s3.34-.4 4.57-1.19a7.6 7.6 0 0 0 2.81-3.16c.64-1.31.96-2.76.96-4.32v-2.23c0-1.57-.31-3-.93-4.31s-1.55-2.36-2.79-3.15Zm-.67 9.69a6.6 6.6 0 0 1-.89 3.42c-.59 1-1.61 1.5-3.06 1.5s-2.51-.5-3.11-1.5c-.6-1-.9-2.14-.9-3.42v-2.23c0-1.26.31-2.4.93-3.41s1.59-1.52 3.08-1.52 2.52.5 3.09 1.52.86 2.15.86 3.41v2.23ZM140.49 900.55l-29.32 42.66h4.84l29.32-42.66h-4.84zM148.29 829.1h5.15v32.01h-5.15zM246.77 916.75l-2.29-3.89-9.01 5.94.28-10.95h-4.52l.28 10.97-9.04-5.96-2.29 3.89 9.79 5.12-9.81 5.02 2.23 3.92 9.13-5.89-.28 10.99h4.5l-.28-10.97 9.1 5.87 2.23-3.92-9.81-5.02 9.79-5.12zM254.99 923.14zM208.24 901.14c-1.49-.82-2.3-1.23-5.33-1.23-2.02 0-3.78.41-5.28 1.23s-2.65 1.97-3.45 3.44-1.2 3.2-1.2 5.18v2.78c0 1.96.41 3.68 1.22 5.15.79 1.46 2 2.65 3.46 3.44a10.9 10.9 0 0 0 5.31 1.23c2.02 0 3.77-.41 5.25-1.22a8.4 8.4 0 0 0 3.42-3.42c.8-1.47 1.2-3.19 1.2-5.18v-2.78c0-1.97-.4-3.69-1.19-5.17a8.36 8.36 0 0 0-3.42-3.45Zm-.46 11.4c0 1.7-.4 3.06-1.2 4.09s-2.01 1.55-3.61 1.55-2.9-.51-3.71-1.53-1.22-2.39-1.22-4.11v-2.78c0-1.66.39-3 1.2-4.01s2.03-1.52 3.67-1.52 2.85.51 3.65 1.52 1.2 2.35 1.22 4.01v2.78ZM229.98 855.99c.91-1.57 1.36-3.27 1.36-5.24s-.45-3.71-1.36-5.24c-.91-1.53-2.23-2.73-3.97-3.61s-3.87-1.32-6.39-1.32h-8.39v-11.47h-14.08v4.18h8.93v27.84h13.54c2.52 0 4.65-.46 6.39-1.39s3.06-2.18 3.97-3.74Zm-5.69-1.12a7.13 7.13 0 0 1-4.67 1.5h-8.39v-10.99h8.39c1.89 0 3.45.52 4.67 1.56 1.22 1.04 1.83 2.47 1.83 4.05s-.61 2.88-1.83 3.88ZM193.92 930.35h18.18v-4.32h-18.18v4.32zM431.54 936.86h6.74v6.68h-6.74zM437.84 900.64h-5.87l.35 29.11h5.15l.37-29.11zM453.02 936.86h6.74v6.68h-6.74zM464.29 901.52a13.78 13.78 0 0 0-6.49-1.45c-2.27 0-4.33.45-6.19 1.34a11.08 11.08 0 0 0-4.51 3.87 11.55 11.55 0 0 0-1.86 6.16h5.47c.12-1.6.51-2.89 1.21-3.89s1.56-1.73 2.61-2.2a7.93 7.93 0 0 1 6.81.1 6.34 6.34 0 0 1 2.52 2.26c.63.97.94 2.13.94 3.47 0 1.67-.44 3.1-1.3 4.28a11.03 11.03 0 0 1-3.2 2.92 22.4 22.4 0 0 0-3.43 2.43 7.94 7.94 0 0 0-2.2 3.4c-.51 1.43-.76 3.46-.76 6.09v.32h5.22v-.32c0-1.71.16-3.06.5-4.06s.88-1.85 1.64-2.55 1.75-1.42 2.98-2.17a12.72 12.72 0 0 0 4.32-4.17 11.12 11.12 0 0 0 1.53-5.96 10.71 10.71 0 0 0-5.81-9.87ZM477.01 907.32h3.51v1.12c0 1.12-.23 2.05-.69 2.81a2.24 2.24 0 0 1-2.02 1.14H477v2.79h.82c1.85 0 3.3-.62 4.35-1.86s1.58-2.94 1.58-5.11v-7.57h-6.74v6.68ZM492.85 943.54h3.51v1.12c0 1.12-.23 2.05-.69 2.81a2.24 2.24 0 0 1-2.02 1.14h-.81v2.79h.82a5.4 5.4 0 0 0 4.35-1.86c1.05-1.24 1.58-2.94 1.58-5.11v-7.57h-6.74v6.68ZM492.84 913.17h6.74v6.68h-6.74zM509.83 913.17h6.74v6.68h-6.74zM509.83 936.86h6.74v6.68h-6.74zM526.82 943.54h3.51v1.12c0 1.12-.23 2.05-.69 2.81a2.24 2.24 0 0 1-2.02 1.14h-.81v2.79h.82a5.4 5.4 0 0 0 4.35-1.86c1.05-1.24 1.58-2.94 1.58-5.11v-7.57h-6.74v6.68ZM543.8 936.86h6.74v6.68h-6.74z"/></svg>