<svg xmlns="http://www.w3.org/2000/svg" xml:space="preserve" overflow="visible" viewBox="0 0 523 125">
  <style>
    .plnlogo--el{fill:#d01b1f!important}
  </style>
  <path d="M398.1808-.0883h36.5v36.5h-36.5zM442.5808-.0883h36.5v36.5h-36.5zM486.9808-.0883h36.5v36.5h-36.5zM398.1808 88.2117h36.5v36.5h-36.5zM486.9808 88.2117h36.5v36.5h-36.5zM398.1808 44.1117h36.5v36.5h-36.5zM442.5808 44.1117h36.5v36.5h-36.5zM-.1191-.0883v124.9h124.9v-124.9zm97.2 101.1h-14.3v-63h-40.2v63h-14.3v-77.2h68.7v77.2zM132.5809-.0883v124.9h124.9v-124.9zm97.2 101.1h-14.1v-63h-29l-1.2 25.3c-.4 8.3-1.4 15.3-3 20.9s-4.2 9.8-7.9 12.6-8.9 4.2-15.7 4.2h-4v-10.7l2.5-.1c3.4-.1 6.2-1.2 8.2-3.2s3.5-5.2 4.4-9.6 1.6-10.3 1.9-17.7l1.5-35.9h56.4zM265.3809-.0883v124.9h124.9v-124.9zm98.1 101.1h-14.3v-31.6h-42.6v31.6h-14.4v-77.2h14.3v31.4h42.7v-31.4h14.3z" class="plnlogo--el"/>
</svg>
