<svg xmlns="http://www.w3.org/2000/svg" data-name="Layer 1" viewBox="0 0 379.16 275.75"><defs><linearGradient id="a" x1="0" x2="34.47" y1="260.77" y2="260.77" gradientTransform="matrix(1 0 0 -1 0 278)" gradientUnits="userSpaceOnUse"><stop offset="0" stop-color="#9d0714"/><stop offset="1" stop-color="#93082e"/></linearGradient><linearGradient id="b" x1="34.47" x2="68.94" y1="260.77" y2="260.77" gradientTransform="matrix(1 0 0 -1 0 278)" gradientUnits="userSpaceOnUse"><stop offset="0" stop-color="#b2002a"/><stop offset="1" stop-color="#aa0217"/></linearGradient><linearGradient id="c" x1="68.94" x2="103.41" y1="260.77" y2="260.77" gradientTransform="matrix(1 0 0 -1 0 278)" gradientUnits="userSpaceOnUse"><stop offset="0" stop-color="#b50218"/><stop offset="1" stop-color="#bd1128"/></linearGradient><linearGradient id="d" x1="103.41" x2="137.88" y1="260.77" y2="260.77" gradientTransform="matrix(1 0 0 -1 0 278)" gradientUnits="userSpaceOnUse"><stop offset="0" stop-color="#c61012"/><stop offset="1" stop-color="#c50b13"/></linearGradient><linearGradient id="e" x1="137.88" x2="172.35" y1="260.77" y2="260.77" gradientTransform="matrix(1 0 0 -1 0 278)" gradientUnits="userSpaceOnUse"><stop offset="0" stop-color="#cd2104"/><stop offset="1" stop-color="#d90615"/></linearGradient><linearGradient id="f" x1="172.35" x2="206.81" y1="260.77" y2="260.77" gradientTransform="matrix(1 0 0 -1 0 278)" gradientUnits="userSpaceOnUse"><stop offset="0" stop-color="#ed1416"/><stop offset="1" stop-color="#fe052b"/></linearGradient><linearGradient id="g" x1="224.05" x2="224.05" y1="243.53" y2="278" gradientTransform="matrix(1 0 0 -1 0 278)" gradientUnits="userSpaceOnUse"><stop offset="0" stop-color="#f62e14"/><stop offset="1" stop-color="#dc3a0d"/></linearGradient><linearGradient id="h" x1="241.29" x2="275.75" y1="260.77" y2="260.77" gradientTransform="matrix(1 0 0 -1 0 278)" gradientUnits="userSpaceOnUse"><stop offset="0" stop-color="#eb4901"/><stop offset="1" stop-color="#fc4312"/></linearGradient><linearGradient id="i" x1="275.75" x2="310.22" y1="260.77" y2="260.77" gradientTransform="matrix(1 0 0 -1 0 278)" gradientUnits="userSpaceOnUse"><stop offset="0" stop-color="#eb4901"/><stop offset="1" stop-color="#fd4513"/></linearGradient><linearGradient id="j" x1="310.22" x2="344.69" y1="260.77" y2="260.77" gradientTransform="matrix(1 0 0 -1 0 278)" gradientUnits="userSpaceOnUse"><stop offset="0" stop-color="#fe4414"/><stop offset="1" stop-color="#e12b18"/></linearGradient><linearGradient id="k" x1="361.93" x2="361.93" y1="243.53" y2="278" gradientTransform="matrix(1 0 0 -1 0 278)" gradientUnits="userSpaceOnUse"><stop offset="0" stop-color="#fa4713"/><stop offset="1" stop-color="#de6104"/></linearGradient><linearGradient id="l" x1="0" x2="34.47" y1="209.06" y2="243.53" gradientTransform="matrix(1 0 0 -1 0 278)" gradientUnits="userSpaceOnUse"><stop offset="0" stop-color="#9a0811"/><stop offset="1" stop-color="#b20811"/></linearGradient><linearGradient id="m" x1="34.47" x2="68.94" y1="226.3" y2="226.3" gradientTransform="matrix(1 0 0 -1 0 278)" gradientUnits="userSpaceOnUse"><stop offset="0" stop-color="#a40007"/><stop offset="1" stop-color="#b40312"/></linearGradient><linearGradient id="n" x1="68.94" x2="103.41" y1="243.53" y2="209.06" gradientTransform="matrix(1 0 0 -1 0 278)" gradientUnits="userSpaceOnUse"><stop offset="0" stop-color="#be0025"/><stop offset="1" stop-color="#bf0116"/></linearGradient><linearGradient id="o" x1="103.41" x2="137.88" y1="226.3" y2="226.3" gradientTransform="matrix(1 0 0 -1 0 278)" gradientUnits="userSpaceOnUse"><stop offset="0" stop-color="#ce0417"/><stop offset="1" stop-color="#bc1a1d"/></linearGradient><linearGradient id="p" x1="137.88" x2="172.35" y1="226.3" y2="226.3" gradientTransform="matrix(1 0 0 -1 0 278)" gradientUnits="userSpaceOnUse"><stop offset="0" stop-color="#cc1c25"/><stop offset="1" stop-color="#e50f15"/></linearGradient><linearGradient id="q" x1="172.35" x2="206.81" y1="226.3" y2="226.3" gradientTransform="matrix(1 0 0 -1 0 278)" gradientUnits="userSpaceOnUse"><stop offset="0" stop-color="#f81618"/><stop offset="1" stop-color="#f71817"/></linearGradient><linearGradient id="r" x1="206.82" x2="241.28" y1="226.3" y2="226.3" gradientTransform="matrix(1 0 0 -1 0 278)" gradientUnits="userSpaceOnUse"><stop offset="0" stop-color="#ff3e17"/><stop offset="1" stop-color="#fa4029"/></linearGradient><linearGradient id="s" x1="241.29" x2="275.75" y1="226.3" y2="226.3" gradientTransform="matrix(1 0 0 -1 0 278)" gradientUnits="userSpaceOnUse"><stop offset="0" stop-color="#ff462e"/><stop offset="1" stop-color="#ff4520"/></linearGradient><linearGradient id="t" x1="275.75" x2="310.22" y1="226.3" y2="226.3" gradientTransform="matrix(1 0 0 -1 0 278)" gradientUnits="userSpaceOnUse"><stop offset="0" stop-color="#ff532b"/><stop offset="1" stop-color="#ff4616"/></linearGradient><linearGradient id="u" x1="310.22" x2="344.69" y1="226.3" y2="226.3" gradientTransform="matrix(1 0 0 -1 0 278)" gradientUnits="userSpaceOnUse"><stop offset="0" stop-color="#fd4016"/><stop offset="1" stop-color="#f54d1f"/></linearGradient><linearGradient id="v" x1="361.93" x2="361.93" y1="209.06" y2="243.53" gradientTransform="matrix(1 0 0 -1 0 278)" gradientUnits="userSpaceOnUse"><stop offset="0" stop-color="#f31c22"/><stop offset="1" stop-color="#f93314"/></linearGradient><linearGradient id="w" x1="0" x2="34.47" y1="191.83" y2="191.83" gradientTransform="matrix(1 0 0 -1 0 278)" gradientUnits="userSpaceOnUse"><stop offset="0" stop-color="#db0d0d"/><stop offset="1" stop-color="#e10d0c"/></linearGradient><linearGradient id="x" x1="34.47" x2="68.94" y1="191.83" y2="191.83" gradientTransform="matrix(1 0 0 -1 0 278)" gradientUnits="userSpaceOnUse"><stop offset="0" stop-color="#fa010e"/><stop offset="1" stop-color="#ea1117"/></linearGradient><linearGradient id="y" x1="86.17" x2="86.17" y1="209.06" y2="174.59" gradientTransform="matrix(1 0 0 -1 0 278)" gradientUnits="userSpaceOnUse"><stop offset="0" stop-color="#c82627"/><stop offset="1" stop-color="#e0111c"/></linearGradient><linearGradient id="z" x1="103.41" x2="137.88" y1="191.83" y2="191.83" gradientTransform="matrix(1 0 0 -1 0 278)" gradientUnits="userSpaceOnUse"><stop offset="0" stop-color="#e8171f"/><stop offset="1" stop-color="#d51a19"/></linearGradient><linearGradient id="A" x1="137.88" x2="172.35" y1="191.83" y2="191.83" gradientTransform="matrix(1 0 0 -1 0 278)" gradientUnits="userSpaceOnUse"><stop offset="0" stop-color="#f72c1e"/><stop offset="1" stop-color="#fe2809"/></linearGradient><linearGradient id="B" x1="172.35" x2="206.81" y1="191.83" y2="191.83" gradientTransform="matrix(1 0 0 -1 0 278)" gradientUnits="userSpaceOnUse"><stop offset="0" stop-color="#fb481f"/><stop offset="1" stop-color="#e03310"/></linearGradient><linearGradient id="C" x1="206.82" x2="241.28" y1="191.83" y2="191.83" gradientTransform="matrix(1 0 0 -1 0 278)" gradientUnits="userSpaceOnUse"><stop offset="0" stop-color="#ff4421"/><stop offset="1" stop-color="#ff511e"/></linearGradient><linearGradient id="D" x1="241.29" x2="275.75" y1="191.83" y2="191.83" gradientTransform="matrix(1 0 0 -1 0 278)" gradientUnits="userSpaceOnUse"><stop offset="0" stop-color="#f14604"/><stop offset="1" stop-color="#fc4c1e"/></linearGradient><linearGradient id="E" x1="327.46" x2="327.46" y1="209.06" y2="174.59" gradientTransform="matrix(1 0 0 -1 0 278)" gradientUnits="userSpaceOnUse"><stop offset="0" stop-color="#e41917"/><stop offset="1" stop-color="#d12f10"/></linearGradient><linearGradient id="F" x1="361.93" x2="361.93" y1="174.59" y2="209.06" gradientTransform="matrix(1 0 0 -1 0 278)" gradientUnits="userSpaceOnUse"><stop offset="0" stop-color="#e01602"/><stop offset="1" stop-color="#d40f15"/></linearGradient><linearGradient id="G" x1="0" x2="34.47" y1="157.36" y2="157.36" gradientTransform="matrix(1 0 0 -1 0 278)" gradientUnits="userSpaceOnUse"><stop offset="0" stop-color="#ec1516"/><stop offset="1" stop-color="#df2b04"/></linearGradient><linearGradient id="H" x1="34.47" x2="68.94" y1="157.36" y2="157.36" gradientTransform="matrix(1 0 0 -1 0 278)" gradientUnits="userSpaceOnUse"><stop offset="0" stop-color="#f7181c"/><stop offset="1" stop-color="#fe1825"/></linearGradient><linearGradient id="I" x1="86.17" x2="86.17" y1="140.12" y2="174.59" gradientTransform="matrix(1 0 0 -1 0 278)" gradientUnits="userSpaceOnUse"><stop offset="0" stop-color="#ee2022"/><stop offset="1" stop-color="#f73327"/></linearGradient><linearGradient id="J" x1="103.41" x2="137.88" y1="157.36" y2="157.36" gradientTransform="matrix(1 0 0 -1 0 278)" gradientUnits="userSpaceOnUse"><stop offset="0" stop-color="#fc542c"/><stop offset="1" stop-color="#fc491a"/></linearGradient><linearGradient id="K" x1="137.88" x2="172.35" y1="157.36" y2="157.36" gradientTransform="matrix(1 0 0 -1 0 278)" gradientUnits="userSpaceOnUse"><stop offset="0" stop-color="#f75335"/><stop offset="1" stop-color="#f75335"/></linearGradient><linearGradient id="L" x1="172.35" x2="206.81" y1="157.36" y2="157.36" gradientTransform="matrix(1 0 0 -1 0 278)" gradientUnits="userSpaceOnUse"><stop offset="0" stop-color="#ff5f33"/><stop offset="1" stop-color="#fe5728"/></linearGradient><linearGradient id="M" x1="206.82" x2="241.28" y1="157.36" y2="157.36" gradientTransform="matrix(1 0 0 -1 0 278)" gradientUnits="userSpaceOnUse"><stop offset="0" stop-color="#fd603b"/><stop offset="1" stop-color="#ff5635"/></linearGradient><linearGradient id="N" x1="292.99" x2="292.99" y1="140.12" y2="174.59" gradientTransform="matrix(1 0 0 -1 0 278)" gradientUnits="userSpaceOnUse"><stop offset="0" stop-color="#d40f1b"/><stop offset="1" stop-color="#c40130"/></linearGradient><linearGradient id="O" x1="310.22" x2="344.69" y1="157.36" y2="157.36" gradientTransform="matrix(1 0 0 -1 0 278)" gradientUnits="userSpaceOnUse"><stop offset="0" stop-color="#c60917"/><stop offset="1" stop-color="#b01712"/></linearGradient><linearGradient id="P" x1="361.93" x2="361.93" y1="174.59" y2="140.12" gradientTransform="matrix(1 0 0 -1 0 278)" gradientUnits="userSpaceOnUse"><stop offset="0" stop-color="#ac1912"/><stop offset="1" stop-color="#bd0716"/></linearGradient><linearGradient id="Q" x1="0" x2="34.47" y1="122.89" y2="122.89" gradientTransform="matrix(1 0 0 -1 0 278)" gradientUnits="userSpaceOnUse"><stop offset="0" stop-color="#fa1215"/><stop offset="1" stop-color="#fa1215"/></linearGradient><linearGradient id="R" x1="34.47" x2="68.94" y1="122.89" y2="122.89" gradientTransform="matrix(1 0 0 -1 0 278)" gradientUnits="userSpaceOnUse"><stop offset="0" stop-color="#e92c0b"/><stop offset="1" stop-color="#f91b1a"/></linearGradient><linearGradient id="S" x1="68.94" x2="103.41" y1="122.89" y2="122.89" gradientTransform="matrix(1 0 0 -1 0 278)" gradientUnits="userSpaceOnUse"><stop offset="0" stop-color="#e71f3d"/><stop offset="1" stop-color="#fb2c23"/></linearGradient><linearGradient id="T" x1="103.41" x2="137.88" y1="122.89" y2="122.89" gradientTransform="matrix(1 0 0 -1 0 278)" gradientUnits="userSpaceOnUse"><stop offset="0" stop-color="#f42b26"/><stop offset="1" stop-color="#fc4f30"/></linearGradient><linearGradient id="U" x1="137.88" x2="172.35" y1="122.89" y2="122.89" gradientTransform="matrix(1 0 0 -1 0 278)" gradientUnits="userSpaceOnUse"><stop offset="0" stop-color="#f54938"/><stop offset="1" stop-color="#f04d4a"/></linearGradient><linearGradient id="V" x1="189.58" x2="189.58" y1="105.65" y2="140.12" gradientTransform="matrix(1 0 0 -1 0 278)" gradientUnits="userSpaceOnUse"><stop offset="0" stop-color="#ea4045"/><stop offset="1" stop-color="#df464b"/></linearGradient><linearGradient id="W" x1="224.05" x2="224.05" y1="105.65" y2="140.12" gradientTransform="matrix(1 0 0 -1 0 278)" gradientUnits="userSpaceOnUse"><stop offset="0" stop-color="#d43840"/><stop offset="1" stop-color="#d23c45"/></linearGradient><linearGradient id="X" x1="275.75" x2="310.22" y1="122.89" y2="122.89" gradientTransform="matrix(1 0 0 -1 0 278)" gradientUnits="userSpaceOnUse"><stop offset="0" stop-color="#cd0107"/><stop offset="1" stop-color="#bb081b"/></linearGradient><linearGradient id="Y" x1="327.46" x2="327.46" y1="105.65" y2="140.12" gradientTransform="matrix(1 0 0 -1 0 278)" gradientUnits="userSpaceOnUse"><stop offset="0" stop-color="#c00616"/><stop offset="1" stop-color="#a60323"/></linearGradient><linearGradient id="Z" x1="344.69" x2="379.16" y1="105.66" y2="140.12" gradientTransform="matrix(1 0 0 -1 0 278)" gradientUnits="userSpaceOnUse"><stop offset="0" stop-color="#bd0f14"/><stop offset="1" stop-color="#920323"/></linearGradient><linearGradient id="aa" x1="51.7" x2="51.7" y1="71.19" y2="105.65" gradientTransform="matrix(1 0 0 -1 0 278)" gradientUnits="userSpaceOnUse"><stop offset="0" stop-color="#ff3511"/><stop offset="1" stop-color="#fe211c"/></linearGradient><linearGradient id="ab" x1="68.94" x2="103.41" y1="88.42" y2="88.42" gradientTransform="matrix(1 0 0 -1 0 278)" gradientUnits="userSpaceOnUse"><stop offset="0" stop-color="#fe231e"/><stop offset="1" stop-color="#f80f1e"/></linearGradient><linearGradient id="ac" x1="103.41" x2="137.88" y1="88.42" y2="88.42" gradientTransform="matrix(1 0 0 -1 0 278)" gradientUnits="userSpaceOnUse"><stop offset="0" stop-color="#ff3f3e"/><stop offset="1" stop-color="#fc4431"/></linearGradient><linearGradient id="ad" x1="137.88" x2="172.35" y1="88.42" y2="88.42" gradientTransform="matrix(1 0 0 -1 0 278)" gradientUnits="userSpaceOnUse"><stop offset="0" stop-color="#fb522b"/><stop offset="1" stop-color="#fb3e36"/></linearGradient><linearGradient id="ae" x1="172.35" x2="206.81" y1="88.42" y2="88.42" gradientTransform="matrix(1 0 0 -1 0 278)" gradientUnits="userSpaceOnUse"><stop offset="0" stop-color="#fe2a28"/><stop offset="1" stop-color="#fc3633"/></linearGradient><linearGradient id="af" x1="206.82" x2="241.28" y1="88.42" y2="88.42" gradientTransform="matrix(1 0 0 -1 0 278)" gradientUnits="userSpaceOnUse"><stop offset="0" stop-color="#f0532b"/><stop offset="1" stop-color="#ed4625"/></linearGradient><linearGradient id="ag" x1="292.99" x2="292.99" y1="71.19" y2="105.65" gradientTransform="matrix(1 0 0 -1 0 278)" gradientUnits="userSpaceOnUse"><stop offset="0" stop-color="#a90f21"/><stop offset="1" stop-color="#bc241d"/></linearGradient><linearGradient id="ah" x1="310.22" x2="344.69" y1="88.42" y2="88.42" gradientTransform="matrix(1 0 0 -1 0 278)" gradientUnits="userSpaceOnUse"><stop offset="0" stop-color="#9d000c"/><stop offset="1" stop-color="#8e0112"/></linearGradient><linearGradient id="ai" x1="344.69" x2="379.16" y1="88.42" y2="88.42" gradientTransform="matrix(1 0 0 -1 0 278)" gradientUnits="userSpaceOnUse"><stop offset="0" stop-color="#881119"/><stop offset="1" stop-color="#870313"/></linearGradient><linearGradient id="aj" x1="0" x2="34.47" y1="53.95" y2="53.95" gradientTransform="matrix(1 0 0 -1 0 278)" gradientUnits="userSpaceOnUse"><stop offset="0" stop-color="#9d0811"/><stop offset="0" stop-color="#f92622"/><stop offset="1" stop-color="#fd221e"/></linearGradient><linearGradient id="ak" x1="51.7" x2="51.7" y1="36.72" y2="71.18" gradientTransform="matrix(1 0 0 -1 0 278)" gradientUnits="userSpaceOnUse"><stop offset="0" stop-color="#fc231f"/><stop offset="1" stop-color="#e22520"/></linearGradient><linearGradient id="al" x1="86.17" x2="86.17" y1="36.72" y2="71.18" gradientTransform="matrix(1 0 0 -1 0 278)" gradientUnits="userSpaceOnUse"><stop offset="0" stop-color="#ff1432"/><stop offset="1" stop-color="#fd241f"/></linearGradient><linearGradient id="am" x1="103.41" x2="137.88" y1="53.95" y2="53.95" gradientTransform="matrix(1 0 0 -1 0 278)" gradientUnits="userSpaceOnUse"><stop offset="0" stop-color="#f52618"/><stop offset="1" stop-color="#fe2a1d"/></linearGradient><linearGradient id="an" x1="137.88" x2="172.35" y1="53.95" y2="53.95" gradientTransform="matrix(1 0 0 -1 0 278)" gradientUnits="userSpaceOnUse"><stop offset="0" stop-color="#fc3611"/><stop offset="1" stop-color="#fa3021"/></linearGradient><linearGradient id="ao" x1="172.35" x2="206.81" y1="53.95" y2="53.95" gradientTransform="matrix(1 0 0 -1 0 278)" gradientUnits="userSpaceOnUse"><stop offset="0" stop-color="#ea383a"/><stop offset="1" stop-color="#ed3c2e"/></linearGradient><linearGradient id="ap" x1="224.05" x2="224.05" y1="36.72" y2="71.18" gradientTransform="matrix(1 0 0 -1 0 278)" gradientUnits="userSpaceOnUse"><stop offset="0" stop-color="#d65e3a"/><stop offset="1" stop-color="#d9503f"/></linearGradient><linearGradient id="aq" x1="241.29" x2="275.75" y1="53.95" y2="53.95" gradientTransform="matrix(1 0 0 -1 0 278)" gradientUnits="userSpaceOnUse"><stop offset="0" stop-color="#c45245"/><stop offset="1" stop-color="#b93934"/></linearGradient><linearGradient id="ar" x1="275.75" x2="310.22" y1="53.95" y2="53.95" gradientTransform="matrix(1 0 0 -1 0 278)" gradientUnits="userSpaceOnUse"><stop offset="0" stop-color="#b02912"/><stop offset="1" stop-color="#a12025"/></linearGradient><linearGradient id="as" x1="310.22" x2="344.69" y1="53.95" y2="53.95" gradientTransform="matrix(1 0 0 -1 0 278)" gradientUnits="userSpaceOnUse"><stop offset="0" stop-color="#6f0f27"/><stop offset="1" stop-color="#750313"/></linearGradient><linearGradient id="at" x1="344.69" x2="379.16" y1="53.95" y2="53.95" gradientTransform="matrix(1 0 0 -1 0 278)" gradientUnits="userSpaceOnUse"><stop offset="0" stop-color="#78151f"/><stop offset="1" stop-color="#71020f"/></linearGradient><linearGradient id="au" x1="0" x2="34.47" y1="19.48" y2="19.48" gradientTransform="matrix(1 0 0 -1 0 278)" gradientUnits="userSpaceOnUse"><stop offset="0" stop-color="#9d0811"/><stop offset="0" stop-color="#f0262a"/><stop offset="1" stop-color="#fc281f"/></linearGradient><linearGradient id="av" x1="34.47" x2="68.94" y1="19.48" y2="19.48" gradientTransform="matrix(1 0 0 -1 0 278)" gradientUnits="userSpaceOnUse"><stop offset="0" stop-color="#ff3f37"/><stop offset="1" stop-color="#fe2a20"/></linearGradient><linearGradient id="aw" x1="68.94" x2="103.41" y1="19.48" y2="19.48" gradientTransform="matrix(1 0 0 -1 0 278)" gradientUnits="userSpaceOnUse"><stop offset="0" stop-color="#fd2a1c"/><stop offset="1" stop-color="#f43d06"/></linearGradient><linearGradient id="ax" x1="103.41" x2="137.88" y1="19.48" y2="19.48" gradientTransform="matrix(1 0 0 -1 0 278)" gradientUnits="userSpaceOnUse"><stop offset="0" stop-color="#ff100c"/><stop offset="1" stop-color="#fe261c"/></linearGradient><linearGradient id="ay" x1="137.88" x2="172.35" y1="19.48" y2="19.48" gradientTransform="matrix(1 0 0 -1 0 278)" gradientUnits="userSpaceOnUse"><stop offset="0" stop-color="#fc2316"/><stop offset="1" stop-color="#fc2315"/></linearGradient><linearGradient id="az" x1="172.35" x2="206.81" y1="19.48" y2="19.48" gradientTransform="matrix(1 0 0 -1 0 278)" gradientUnits="userSpaceOnUse"><stop offset="0" stop-color="#d02518"/><stop offset="1" stop-color="#e91511"/></linearGradient><linearGradient id="aA" x1="224.05" x2="224.05" y1="2.25" y2="36.71" gradientTransform="matrix(1 0 0 -1 0 278)" gradientUnits="userSpaceOnUse"><stop offset="0" stop-color="#c80e0b"/><stop offset="1" stop-color="#cc2521"/></linearGradient><linearGradient id="aB" x1="241.29" x2="275.75" y1="19.48" y2="19.48" gradientTransform="matrix(1 0 0 -1 0 278)" gradientUnits="userSpaceOnUse"><stop offset="0" stop-color="#970304"/><stop offset="1" stop-color="#a30013"/></linearGradient><linearGradient id="aC" x1="275.75" x2="310.22" y1="19.48" y2="19.48" gradientTransform="matrix(1 0 0 -1 0 278)" gradientUnits="userSpaceOnUse"><stop offset="0" stop-color="#710301"/><stop offset="1" stop-color="#750d00"/></linearGradient><linearGradient id="aD" x1="310.22" x2="344.69" y1="19.48" y2="19.48" gradientTransform="matrix(1 0 0 -1 0 278)" gradientUnits="userSpaceOnUse"><stop offset="0" stop-color="#66050e"/><stop offset="1" stop-color="#670710"/></linearGradient><linearGradient id="aE" x1="344.69" x2="379.16" y1="19.48" y2="19.48" gradientTransform="matrix(1 0 0 -1 0 278)" gradientUnits="userSpaceOnUse"><stop offset="0" stop-color="#520501"/><stop offset="1" stop-color="#60010a"/></linearGradient></defs><path fill="url(#a)" d="M0 0h34.47v34.47H0z" opacity=".05"/><path fill="url(#b)" d="M34.47 0h34.47v34.47H34.47z" opacity=".15"/><path fill="url(#c)" d="M68.94 0h34.47v34.47H68.94z" opacity=".5"/><path fill="url(#d)" d="M103.41 0h34.47v34.47h-34.47z"/><path fill="url(#e)" d="M137.88 0h34.47v34.47h-34.47z" opacity=".5"/><path fill="url(#f)" d="M172.35 0h34.47v34.47h-34.47z" opacity=".35"/><path fill="url(#g)" d="M206.82 0h34.47v34.47h-34.47z" opacity=".35"/><path fill="url(#h)" d="M241.29 0h34.47v34.47h-34.47z" opacity=".25"/><path fill="url(#i)" d="M275.75 0h34.47v34.47h-34.47z" opacity=".15"/><path fill="url(#j)" d="M310.22 0h34.47v34.47h-34.47z" opacity=".1"/><path fill="url(#k)" d="M344.69 0h34.47v34.47h-34.47z" opacity=".05"/><path fill="url(#l)" d="M0 34.47h34.47v34.47H0z" opacity=".1"/><path fill="url(#m)" d="M34.47 34.47h34.47v34.47H34.47z" opacity=".25"/><path fill="url(#n)" d="M68.94 34.47h34.47v34.47H68.94z" opacity=".35"/><path fill="url(#o)" d="M103.41 34.47h34.47v34.47h-34.47z"/><path fill="url(#p)" d="M137.88 34.47h34.47v34.47h-34.47z"/><path fill="url(#q)" d="M172.35 34.47h34.47v34.47h-34.47z" opacity=".5"/><path fill="url(#r)" d="M206.82 34.47h34.47v34.47h-34.47z" opacity=".35"/><path fill="url(#s)" d="M241.29 34.47h34.47v34.47h-34.47z" opacity=".35"/><path fill="url(#t)" d="M275.75 34.47h34.47v34.47h-34.47z" opacity=".15"/><path fill="url(#u)" d="M310.22 34.47h34.47v34.47h-34.47z" opacity=".25"/><path fill="url(#v)" d="M344.69 34.47h34.47v34.47h-34.47z" opacity=".1"/><path fill="url(#w)" d="M0 68.94h34.47v34.47H0z" opacity=".25"/><path fill="url(#x)" d="M34.47 68.94h34.47v34.47H34.47z" opacity=".15"/><path fill="url(#y)" d="M68.94 68.94h34.47v34.47H68.94z" opacity=".5"/><path fill="url(#z)" d="M103.41 68.94h34.47v34.47h-34.47z"/><path fill="url(#A)" d="M137.88 68.94h34.47v34.47h-34.47z" opacity=".75"/><path fill="url(#B)" d="M172.35 68.94h34.47v34.47h-34.47z"/><path fill="url(#C)" d="M206.82 68.94h34.47v34.47h-34.47z" opacity=".5"/><path fill="url(#D)" d="M241.29 68.94h34.47v34.47h-34.47z" opacity=".25"/><path fill="#f83520" d="M275.75 68.94h34.47v34.47h-34.47z" opacity=".25"/><path fill="url(#E)" d="M310.22 68.94h34.47v34.47h-34.47z" opacity=".1"/><path fill="url(#F)" d="M344.69 68.94h34.47v34.47h-34.47z" opacity=".05"/><path fill="url(#G)" d="M0 103.41h34.47v34.47H0z" opacity=".05"/><path fill="url(#H)" d="M34.47 103.41h34.47v34.47H34.47z" opacity=".25"/><path fill="url(#I)" d="M68.94 103.41h34.47v34.47H68.94z" opacity=".35"/><path fill="url(#J)" d="M103.41 103.41h34.47v34.47h-34.47z"/><path fill="url(#K)" d="M137.88 103.41h34.47v34.47h-34.47z" opacity=".75"/><path fill="url(#L)" d="M172.35 103.41h34.47v34.47h-34.47z" opacity=".75"/><path fill="url(#M)" d="M206.82 103.41h34.47v34.47h-34.47z"/><path fill="#f1291e" d="M241.29 103.41h34.47v34.47h-34.47z" opacity=".25"/><path fill="url(#N)" d="M275.75 103.41h34.47v34.47h-34.47z" opacity=".15"/><path fill="url(#O)" d="M310.22 103.41h34.47v34.47h-34.47z" opacity=".1"/><path fill="url(#P)" d="M344.69 103.41h34.47v34.47h-34.47z" opacity=".15"/><path fill="url(#Q)" d="M0 137.88h34.47v34.47H0z" opacity=".1"/><path fill="url(#R)" d="M34.47 137.88h34.47v34.47H34.47z" opacity=".25"/><path fill="url(#S)" d="M68.94 137.88h34.47v34.47H68.94z" opacity=".5"/><path fill="url(#T)" d="M103.41 137.88h34.47v34.47h-34.47z"/><path fill="url(#U)" d="M137.88 137.88h34.47v34.47h-34.47z" opacity=".75"/><path fill="url(#V)" d="M172.35 137.88h34.47v34.47h-34.47z" opacity=".75"/><path fill="url(#W)" d="M206.82 137.88h34.47v34.47h-34.47z"/><path fill="#e0212b" d="M241.29 137.88h34.47v34.47h-34.47z"/><path fill="url(#X)" d="M275.75 137.88h34.47v34.47h-34.47z" opacity=".35"/><path fill="url(#Y)" d="M310.22 137.88h34.47v34.47h-34.47z" opacity=".1"/><path fill="url(#Z)" d="M344.69 137.88h34.47v34.47h-34.47z" opacity=".1"/><path fill="#fd1416" d="M0 172.35h34.47v34.47H0z" opacity=".25"/><path fill="url(#aa)" d="M34.47 172.35h34.47v34.47H34.47z" opacity=".15"/><path fill="url(#ab)" d="M68.94 172.35h34.47v34.47H68.94z" opacity=".35"/><path fill="url(#ac)" d="M103.41 172.35h34.47v34.47h-34.47z"/><path fill="url(#ad)" d="M137.88 172.35h34.47v34.47h-34.47z" opacity=".75"/><path fill="url(#ae)" d="M172.35 172.35h34.47v34.47h-34.47z"/><path fill="url(#af)" d="M206.82 172.35h34.47v34.47h-34.47z"/><path fill="#cd303f" d="M241.29 172.35h34.47v34.47h-34.47z"/><path fill="url(#ag)" d="M275.75 172.35h34.47v34.47h-34.47z" opacity=".25"/><path fill="url(#ah)" d="M310.22 172.35h34.47v34.47h-34.47z" opacity=".1"/><path fill="url(#ai)" d="M344.69 172.35h34.47v34.47h-34.47z" opacity=".35"/><path fill="url(#aj)" d="M0 206.82h34.47v34.47H0z" opacity=".1"/><path fill="url(#ak)" d="M34.47 206.82h34.47v34.47H34.47z" opacity=".25"/><path fill="url(#al)" d="M68.94 206.82h34.47v34.47H68.94z" opacity=".5"/><path fill="url(#am)" d="M103.41 206.82h34.47v34.47h-34.47z"/><path fill="url(#an)" d="M137.88 206.82h34.47v34.47h-34.47z"/><path fill="url(#ao)" d="M172.35 206.82h34.47v34.47h-34.47z"/><path fill="url(#ap)" d="M206.82 206.82h34.47v34.47h-34.47z"/><path fill="url(#aq)" d="M241.29 206.82h34.47v34.47h-34.47z" opacity=".5"/><path fill="url(#ar)" d="M275.75 206.82h34.47v34.47h-34.47z" opacity=".25"/><path fill="url(#as)" d="M310.22 206.82h34.47v34.47h-34.47z" opacity=".25"/><path fill="url(#at)" d="M344.69 206.82h34.47v34.47h-34.47z" opacity=".1"/><path fill="url(#au)" d="M0 241.29h34.47v34.47H0z" opacity=".05"/><path fill="url(#av)" d="M34.47 241.29h34.47v34.47H34.47z" opacity=".15"/><path fill="url(#aw)" d="M68.94 241.29h34.47v34.47H68.94z" opacity=".25"/><path fill="url(#ax)" d="M103.41 241.29h34.47v34.47h-34.47z" opacity=".5"/><path fill="url(#ay)" d="M137.88 241.29h34.47v34.47h-34.47z" opacity=".5"/><path fill="url(#az)" d="M172.35 241.29h34.47v34.47h-34.47z"/><path fill="url(#aA)" d="M206.82 241.29h34.47v34.47h-34.47z"/><path fill="url(#aB)" d="M241.29 241.29h34.47v34.47h-34.47z" opacity=".5"/><path fill="url(#aC)" d="M275.75 241.29h34.47v34.47h-34.47z" opacity=".15"/><path fill="url(#aD)" d="M310.22 241.29h34.47v34.47h-34.47z" opacity=".1"/><path fill="url(#aE)" d="M344.69 241.29h34.47v34.47h-34.47z" opacity=".05"/></svg>