<svg xmlns="http://www.w3.org/2000/svg" xml:space="preserve" overflow="visible" viewBox="0 0 691.97 124.8">
  <path fill="#d01b1f" d="M348.18 0h36.5v36.5h-36.5zm0 88.3h36.5v36.5h-36.5zm0-44.1h36.5v36.5h-36.5zm44.4-21.96h36.5v36.5h-36.5zm0 44.2h36.5v36.5h-36.5zm44.4-22.24h36.5v36.5h-36.5zM303.7 23.9v77.2h-14.3V69.5h-42.6v31.6h-14.4V23.9h14.3v31.4h42.7V23.9zm-115.7 0v77.2h-14.1v-63h-29l-1.2 25.3c-.4 8.3-1.4 15.3-3 20.9s-4.2 9.8-7.9 12.6-8.9 4.2-15.7 4.2h-4V90.4l2.5-.1c3.4-.1 6.2-1.2 8.2-3.2s3.5-5.2 4.4-9.6 1.6-10.3 1.9-17.7l1.5-35.9zm-119.3 0v77.2H54.5v-63H14.3v63H0V23.9zm474.43 12.95h-25.17v-12.9h65.45v12.9h-25.03v64.62h-15.25zm84.77-12.9H660c17.47 0 28.57 7.97 28.57 20.73 0 8.88-6.03 14.21-15.88 16.16 10.47 1.18 19.28 8.32 19.28 19.76 0 12.34-9.98 20.87-27.04 20.87H627.9zm32.24 32.31c8.46 0 13.52-3.74 13.52-9.85s-5.2-9.5-13.66-9.5h-17.75v19.34h17.89Zm4.78 32.38c7.35 0 11.79-3.74 11.79-9.78 0-7.14-4.44-11.44-11.79-11.44h-22.67v21.22z"/>
</svg>
