<svg xmlns="http://www.w3.org/2000/svg" xmlns:xlink="http://www.w3.org/1999/xlink" data-name="Layer 1" viewBox="0 0 1100 500"><defs><linearGradient id="c" x1="0" x2="100" y1="228" y2="228" gradientTransform="matrix(1 0 0 -1 0 278)" gradientUnits="userSpaceOnUse"><stop offset="0" stop-color="#9d0714"/><stop offset="1" stop-color="#93082e"/></linearGradient><linearGradient id="d" x1="100" x2="200" y1="228" y2="228" gradientTransform="matrix(1 0 0 -1 0 278)" gradientUnits="userSpaceOnUse"><stop offset="0" stop-color="#b2002a"/><stop offset="1" stop-color="#aa0217"/></linearGradient><linearGradient id="e" x1="200" x2="300" y1="228" y2="228" gradientTransform="matrix(1 0 0 -1 0 278)" gradientUnits="userSpaceOnUse"><stop offset="0" stop-color="#b50218"/><stop offset="1" stop-color="#bd1128"/></linearGradient><linearGradient id="f" x1="300" x2="400" y1="228" y2="228" gradientTransform="matrix(1 0 0 -1 0 278)" gradientUnits="userSpaceOnUse"><stop offset="0" stop-color="#c61012"/><stop offset="1" stop-color="#c50b13"/></linearGradient><linearGradient id="g" x1="400" x2="500" y1="228" y2="228" gradientTransform="matrix(1 0 0 -1 0 278)" gradientUnits="userSpaceOnUse"><stop offset="0" stop-color="#cd2104"/><stop offset="1" stop-color="#d90615"/></linearGradient><linearGradient id="h" x1="500" x2="600" y1="228" y2="228" gradientTransform="matrix(1 0 0 -1 0 278)" gradientUnits="userSpaceOnUse"><stop offset="0" stop-color="#ed1416"/><stop offset="1" stop-color="#fe052b"/></linearGradient><linearGradient id="i" x1="650" x2="650" y1="178" y2="278" gradientTransform="matrix(1 0 0 -1 0 278)" gradientUnits="userSpaceOnUse"><stop offset="0" stop-color="#f62e14"/><stop offset="1" stop-color="#dc3a0d"/></linearGradient><linearGradient id="j" x1="700" x2="800" y1="228" y2="228" gradientTransform="matrix(1 0 0 -1 0 278)" gradientUnits="userSpaceOnUse"><stop offset="0" stop-color="#eb4901"/><stop offset="1" stop-color="#fc4312"/></linearGradient><linearGradient id="k" x1="800" x2="900" y1="228" y2="228" gradientTransform="matrix(1 0 0 -1 0 278)" gradientUnits="userSpaceOnUse"><stop offset="0" stop-color="#eb4901"/><stop offset="1" stop-color="#fd4513"/></linearGradient><linearGradient id="l" x1="900" x2="1000" y1="228" y2="228" gradientTransform="matrix(1 0 0 -1 0 278)" gradientUnits="userSpaceOnUse"><stop offset="0" stop-color="#fe4414"/><stop offset="1" stop-color="#e12b18"/></linearGradient><linearGradient id="m" x1="1050" x2="1050" y1="178" y2="278" gradientTransform="matrix(1 0 0 -1 0 278)" gradientUnits="userSpaceOnUse"><stop offset="0" stop-color="#fa4713"/><stop offset="1" stop-color="#de6104"/></linearGradient><linearGradient id="a" x1="0" x2="100" y1="78" y2="178" data-name="New Gradient Swatch copy 2" gradientTransform="matrix(1 0 0 -1 0 278)" gradientUnits="userSpaceOnUse"><stop offset="0" stop-color="#cc1c25"/><stop offset="1" stop-color="#e50f15"/></linearGradient><linearGradient id="b" x1="150" x2="150" y1="178" y2="78" data-name="New Gradient Swatch copy" gradientTransform="matrix(1 0 0 -1 0 278)" gradientUnits="userSpaceOnUse"><stop offset="0" stop-color="#c82627"/><stop offset="1" stop-color="#e0111c"/></linearGradient><linearGradient id="n" x1="200" x2="300" y1="178" y2="78" gradientTransform="matrix(1 0 0 -1 0 278)" gradientUnits="userSpaceOnUse"><stop offset="0" stop-color="#be0025"/><stop offset="1" stop-color="#bf0116"/></linearGradient><linearGradient id="o" x1="300" x2="400" y1="128" y2="128" gradientTransform="matrix(1 0 0 -1 0 278)" gradientUnits="userSpaceOnUse"><stop offset="0" stop-color="#ce0417"/><stop offset="1" stop-color="#bc1a1d"/></linearGradient><linearGradient xlink:href="#a" id="p" x1="400" x2="500" y1="128" y2="128" data-name="New Gradient Swatch copy 2"/><linearGradient id="q" x1="500" x2="600" y1="128" y2="128" gradientTransform="matrix(1 0 0 -1 0 278)" gradientUnits="userSpaceOnUse"><stop offset="0" stop-color="#f81618"/><stop offset="1" stop-color="#f71817"/></linearGradient><linearGradient id="r" x1="600" x2="700" y1="128" y2="128" gradientTransform="matrix(1 0 0 -1 0 278)" gradientUnits="userSpaceOnUse"><stop offset="0" stop-color="#ff3e17"/><stop offset="1" stop-color="#fa4029"/></linearGradient><linearGradient id="s" x1="700" x2="800" y1="128" y2="128" gradientTransform="matrix(1 0 0 -1 0 278)" gradientUnits="userSpaceOnUse"><stop offset="0" stop-color="#ff462e"/><stop offset="1" stop-color="#ff4520"/></linearGradient><linearGradient id="t" x1="800" x2="900" y1="128" y2="128" gradientTransform="matrix(1 0 0 -1 0 278)" gradientUnits="userSpaceOnUse"><stop offset="0" stop-color="#ff532b"/><stop offset="1" stop-color="#ff4616"/></linearGradient><linearGradient id="u" x1="900" x2="1000" y1="128" y2="128" gradientTransform="matrix(1 0 0 -1 0 278)" gradientUnits="userSpaceOnUse"><stop offset="0" stop-color="#fd4016"/><stop offset="1" stop-color="#f54d1f"/></linearGradient><linearGradient id="v" x1="1050" x2="1050" y1="78" y2="178" gradientTransform="matrix(1 0 0 -1 0 278)" gradientUnits="userSpaceOnUse"><stop offset="0" stop-color="#f31c22"/><stop offset="1" stop-color="#f93314"/></linearGradient><linearGradient id="w" x1="0" x2="100" y1="28" y2="28" gradientTransform="matrix(1 0 0 -1 0 278)" gradientUnits="userSpaceOnUse"><stop offset="0" stop-color="#db0d0d"/><stop offset="1" stop-color="#e10d0c"/></linearGradient><linearGradient id="x" x1="100" x2="200" y1="28" y2="28" gradientTransform="matrix(1 0 0 -1 0 278)" gradientUnits="userSpaceOnUse"><stop offset="0" stop-color="#fa010e"/><stop offset="1" stop-color="#ea1117"/></linearGradient><linearGradient xlink:href="#b" id="y" x1="250" x2="250" y1="78" y2="-22" data-name="New Gradient Swatch copy"/><linearGradient id="z" x1="300" x2="400" y1="28" y2="28" gradientTransform="matrix(1 0 0 -1 0 278)" gradientUnits="userSpaceOnUse"><stop offset="0" stop-color="#e8171f"/><stop offset="1" stop-color="#d51a19"/></linearGradient><linearGradient id="A" x1="400" x2="500" y1="28" y2="28" gradientTransform="matrix(1 0 0 -1 0 278)" gradientUnits="userSpaceOnUse"><stop offset="0" stop-color="#f72c1e"/><stop offset="1" stop-color="#fe2809"/></linearGradient><linearGradient id="B" x1="500" x2="600" y1="28" y2="28" gradientTransform="matrix(1 0 0 -1 0 278)" gradientUnits="userSpaceOnUse"><stop offset="0" stop-color="#fb481f"/><stop offset="1" stop-color="#e03310"/></linearGradient><linearGradient id="C" x1="600" x2="700" y1="28" y2="28" gradientTransform="matrix(1 0 0 -1 0 278)" gradientUnits="userSpaceOnUse"><stop offset="0" stop-color="#ff4421"/><stop offset="1" stop-color="#ff511e"/></linearGradient><linearGradient id="D" x1="700" x2="800" y1="28" y2="28" gradientTransform="matrix(1 0 0 -1 0 278)" gradientUnits="userSpaceOnUse"><stop offset="0" stop-color="#f14604"/><stop offset="1" stop-color="#fc4c1e"/></linearGradient><linearGradient id="E" x1="950" x2="950" y1="78" y2="-22" gradientTransform="matrix(1 0 0 -1 0 278)" gradientUnits="userSpaceOnUse"><stop offset="0" stop-color="#e41917"/><stop offset="1" stop-color="#d12f10"/></linearGradient><linearGradient id="F" x1="1050" x2="1050" y1="-22" y2="78" gradientTransform="matrix(1 0 0 -1 0 278)" gradientUnits="userSpaceOnUse"><stop offset="0" stop-color="#e01602"/><stop offset="1" stop-color="#d40f15"/></linearGradient><linearGradient id="G" x1="0" x2="100" y1="-72" y2="-72" gradientTransform="matrix(1 0 0 -1 0 278)" gradientUnits="userSpaceOnUse"><stop offset="0" stop-color="#ec1516"/><stop offset="1" stop-color="#df2b04"/></linearGradient><linearGradient id="H" x1="100" x2="200" y1="-72" y2="-72" gradientTransform="matrix(1 0 0 -1 0 278)" gradientUnits="userSpaceOnUse"><stop offset="0" stop-color="#f7181c"/><stop offset="1" stop-color="#fe1825"/></linearGradient><linearGradient id="I" x1="250" x2="250" y1="-122" y2="-22" gradientTransform="matrix(1 0 0 -1 0 278)" gradientUnits="userSpaceOnUse"><stop offset="0" stop-color="#ee2022"/><stop offset="1" stop-color="#f73327"/></linearGradient><linearGradient id="J" x1="300" x2="400" y1="-72" y2="-72" gradientTransform="matrix(1 0 0 -1 0 278)" gradientUnits="userSpaceOnUse"><stop offset="0" stop-color="#fc542c"/><stop offset="1" stop-color="#fc491a"/></linearGradient><linearGradient id="K" x1="400" x2="500" y1="-72" y2="-72" gradientTransform="matrix(1 0 0 -1 0 278)" gradientUnits="userSpaceOnUse"><stop offset="0" stop-color="#f75335"/><stop offset="1" stop-color="#f75335"/></linearGradient><linearGradient id="L" x1="500" x2="600" y1="-72" y2="-72" gradientTransform="matrix(1 0 0 -1 0 278)" gradientUnits="userSpaceOnUse"><stop offset="0" stop-color="#ff5f33"/><stop offset="1" stop-color="#fe5728"/></linearGradient><linearGradient id="M" x1="600" x2="700" y1="-72" y2="-72" gradientTransform="matrix(1 0 0 -1 0 278)" gradientUnits="userSpaceOnUse"><stop offset="0" stop-color="#fd603b"/><stop offset="1" stop-color="#ff5635"/></linearGradient><linearGradient id="N" x1="850" x2="850" y1="-122" y2="-22" gradientTransform="matrix(1 0 0 -1 0 278)" gradientUnits="userSpaceOnUse"><stop offset="0" stop-color="#d40f1b"/><stop offset="1" stop-color="#c40130"/></linearGradient><linearGradient id="O" x1="900" x2="1000" y1="-72" y2="-72" gradientTransform="matrix(1 0 0 -1 0 278)" gradientUnits="userSpaceOnUse"><stop offset="0" stop-color="#c60917"/><stop offset="1" stop-color="#b01712"/></linearGradient><linearGradient id="P" x1="1050" x2="1050" y1="-22" y2="-122" gradientTransform="matrix(1 0 0 -1 0 278)" gradientUnits="userSpaceOnUse"><stop offset="0" stop-color="#ac1912"/><stop offset="1" stop-color="#bd0716"/></linearGradient><linearGradient id="Q" x1="0" x2="100" y1="-172" y2="-172" gradientTransform="matrix(1 0 0 -1 0 278)" gradientUnits="userSpaceOnUse"><stop offset="0" stop-color="#fa1215"/><stop offset="1" stop-color="#fa1215"/></linearGradient><linearGradient id="R" x1="100" x2="200" y1="-172" y2="-172" gradientTransform="matrix(1 0 0 -1 0 278)" gradientUnits="userSpaceOnUse"><stop offset="0" stop-color="#e92c0b"/><stop offset="1" stop-color="#f91b1a"/></linearGradient><linearGradient id="S" x1="200" x2="300" y1="-172" y2="-172" gradientTransform="matrix(1 0 0 -1 0 278)" gradientUnits="userSpaceOnUse"><stop offset="0" stop-color="#e71f3d"/><stop offset="1" stop-color="#fb2c23"/></linearGradient><linearGradient id="T" x1="300" x2="400" y1="-172" y2="-172" gradientTransform="matrix(1 0 0 -1 0 278)" gradientUnits="userSpaceOnUse"><stop offset="0" stop-color="#f42b26"/><stop offset="1" stop-color="#fc4f30"/></linearGradient><linearGradient id="U" x1="400" x2="500" y1="-172" y2="-172" gradientTransform="matrix(1 0 0 -1 0 278)" gradientUnits="userSpaceOnUse"><stop offset="0" stop-color="#f54938"/><stop offset="1" stop-color="#f04d4a"/></linearGradient><linearGradient id="V" x1="550" x2="550" y1="-222" y2="-122" gradientTransform="matrix(1 0 0 -1 0 278)" gradientUnits="userSpaceOnUse"><stop offset="0" stop-color="#ea4045"/><stop offset="1" stop-color="#df464b"/></linearGradient><linearGradient id="W" x1="650" x2="650" y1="-222" y2="-122" gradientTransform="matrix(1 0 0 -1 0 278)" gradientUnits="userSpaceOnUse"><stop offset="0" stop-color="#d43840"/><stop offset="1" stop-color="#d23c45"/></linearGradient><linearGradient id="X" x1="800" x2="900" y1="-172" y2="-172" gradientTransform="matrix(1 0 0 -1 0 278)" gradientUnits="userSpaceOnUse"><stop offset="0" stop-color="#cd0107"/><stop offset="1" stop-color="#bb081b"/></linearGradient><linearGradient id="Y" x1="950" x2="950" y1="-222" y2="-122" gradientTransform="matrix(1 0 0 -1 0 278)" gradientUnits="userSpaceOnUse"><stop offset="0" stop-color="#c00616"/><stop offset="1" stop-color="#a60323"/></linearGradient><linearGradient id="Z" x1="1000" x2="1100" y1="-222" y2="-122" gradientTransform="matrix(1 0 0 -1 0 278)" gradientUnits="userSpaceOnUse"><stop offset="0" stop-color="#bd0f14"/><stop offset="1" stop-color="#920323"/></linearGradient></defs><path fill="url(#c)" d="M0 0h100v100H0z"/><path fill="url(#d)" d="M100 0h100v100H100z"/><path fill="url(#e)" d="M200 0h100v100H200z"/><path fill="url(#f)" d="M300 0h100v100H300z"/><path fill="url(#g)" d="M400 0h100v100H400z"/><path fill="url(#h)" d="M500 0h100v100H500z"/><path fill="url(#i)" d="M600 0h100v100H600z"/><path fill="url(#j)" d="M700 0h100v100H700z"/><path fill="url(#k)" d="M800 0h100v100H800z"/><path fill="url(#l)" d="M900 0h100v100H900z"/><path fill="url(#m)" d="M1000 0h100v100h-100z"/><path fill="url(#a)" d="M0 100h100v100H0z"/><path fill="url(#b)" d="M100 100h100v100H100z"/><path fill="url(#n)" d="M200 100h100v100H200z"/><path fill="url(#o)" d="M300 100h100v100H300z"/><path fill="url(#p)" d="M400 100h100v100H400z"/><path fill="url(#q)" d="M500 100h100v100H500z"/><path fill="url(#r)" d="M600 100h100v100H600z"/><path fill="url(#s)" d="M700 100h100v100H700z"/><path fill="url(#t)" d="M800 100h100v100H800z"/><path fill="url(#u)" d="M900 100h100v100H900z"/><path fill="url(#v)" d="M1000 100h100v100h-100z"/><path fill="url(#w)" d="M0 200h100v100H0z"/><path fill="url(#x)" d="M100 200h100v100H100z"/><path fill="url(#y)" d="M200 200h100v100H200z"/><path fill="url(#z)" d="M300 200h100v100H300z"/><path fill="url(#A)" d="M400 200h100v100H400z"/><path fill="url(#B)" d="M500 200h100v100H500z"/><path fill="url(#C)" d="M600 200h100v100H600z"/><path fill="url(#D)" d="M700 200h100v100H700z"/><path fill="#f83520" d="M800 200h100v100H800z"/><path fill="url(#E)" d="M900 200h100v100H900z"/><path fill="url(#F)" d="M1000 200h100v100h-100z"/><path fill="url(#G)" d="M0 300h100v100H0z"/><path fill="url(#H)" d="M100 300h100v100H100z"/><path fill="url(#I)" d="M200 300h100v100H200z"/><path fill="url(#J)" d="M300 300h100v100H300z"/><path fill="url(#K)" d="M400 300h100v100H400z"/><path fill="url(#L)" d="M500 300h100v100H500z"/><path fill="url(#M)" d="M600 300h100v100H600z"/><path fill="#f1291e" d="M700 300h100v100H700z"/><path fill="url(#N)" d="M800 300h100v100H800z"/><path fill="url(#O)" d="M900 300h100v100H900z"/><path fill="url(#P)" d="M1000 300h100v100h-100z"/><path fill="url(#Q)" d="M0 400h100v100H0z"/><path fill="url(#R)" d="M100 400h100v100H100z"/><path fill="url(#S)" d="M200 400h100v100H200z"/><path fill="url(#T)" d="M300 400h100v100H300z"/><path fill="url(#U)" d="M400 400h100v100H400z"/><path fill="url(#V)" d="M500 400h100v100H500z"/><path fill="url(#W)" d="M600 400h100v100H600z"/><path fill="#e0212b" d="M700 400h100v100H700z"/><path fill="url(#X)" d="M800 400h100v100H800z"/><path fill="url(#Y)" d="M900 400h100v100H900z"/><path fill="url(#Z)" d="M1000 400h100v100h-100z"/></svg>