<svg xmlns="http://www.w3.org/2000/svg" xmlns:xlink="http://www.w3.org/1999/xlink" fill="none"
	viewBox="0 0 438 249">
	<path stroke="var(--color-content-main, #151617)" stroke-opacity="0.2" fill="none"
		d="M37.8 154.2h375M37.8 79.2h375M37.8 5.2h375" />
	<path stroke="var(--color-content-main, #151617)" fill="none"
		stroke-linecap="round" d="M37.8 229.2h375" />
	<path fill="var(--color-content-main, #151617)" fill-opacity=".5"
		d="M23.58 229.95v-3.01q0-1.33.74-2.13.75-.81 2.06-.81t2.06.8a3 3 0 0 1 .75 2.14v3q0 1.33-.75 2.14-.75.8-2.06.8-1.3 0-2.06-.8a3 3 0 0 1-.74-2.13m1.16.06q0 .83.4 1.38t1.24.54q.84 0 1.25-.54.4-.55.4-1.38v-3.13q0-.84-.4-1.38t-1.25-.54-1.24.54q-.4.54-.4 1.38zM23.58 155.28v-3.01q0-1.32.74-2.13.75-.8 2.06-.8t2.06.8a3 3 0 0 1 .75 2.13v3.01q0 1.33-.75 2.13t-2.06.8-2.06-.8a3 3 0 0 1-.74-2.13m1.16.06q0 .84.4 1.38t1.24.54 1.25-.54.4-1.38v-3.13q0-.84-.4-1.38t-1.25-.54-1.24.54q-.4.54-.4 1.38zM16.74 155.28v-3.01q0-1.32.74-2.13.75-.8 2.06-.8 1.3 0 2.06.8a3 3 0 0 1 .75 2.13v3.01q0 1.33-.75 2.13t-2.06.8q-1.32 0-2.06-.8a3 3 0 0 1-.74-2.13m1.16.06q0 .84.4 1.38t1.24.54 1.24-.54.4-1.38v-3.13q0-.84-.4-1.38t-1.24-.54-1.24.54q-.4.54-.4 1.38zM9.83 155.89v-.06h1.11v.06q0 .64.46 1 .47.38 1.25.38t1.28-.51q.5-.53.5-1.44 0-.94-.5-1.42a1.8 1.8 0 0 0-1.28-.48q-.54 0-.94.2-.41.18-.77.54l-.8-.4.42-4.25h4.55v1.02h-3.6l-.26 2.39a3.3 3.3 0 0 1 1.59-.46q1.14 0 1.93.76.8.75.8 2.1 0 1.34-.83 2.12t-2.09.78q-1.3 0-2.07-.67-.75-.66-.75-1.66M23.58 80.61v-3q0-1.33.74-2.13.75-.81 2.06-.81t2.06.8a3 3 0 0 1 .75 2.13v3.01q0 1.33-.75 2.14-.75.8-2.06.8-1.3 0-2.06-.8a3 3 0 0 1-.74-2.14m1.16.06q0 .84.4 1.39.41.53 1.24.53t1.25-.53q.4-.55.4-1.39v-3.13q0-.84-.4-1.37-.4-.55-1.25-.55-.83 0-1.24.55-.4.54-.4 1.37zM16.74 80.61v-3q0-1.33.74-2.13.75-.81 2.06-.81 1.3 0 2.06.8a3 3 0 0 1 .75 2.13v3.01q0 1.33-.75 2.14-.75.8-2.06.8-1.32 0-2.06-.8a3 3 0 0 1-.74-2.14m1.16.06q0 .84.4 1.39.4.53 1.24.53t1.24-.53.4-1.39v-3.13q0-.84-.4-1.37-.4-.55-1.24-.55t-1.24.55-.4 1.37zM9.9 80.61v-3q0-1.33.73-2.13.75-.81 2.07-.81 1.3 0 2.05.8a3 3 0 0 1 .75 2.13v3.01q0 1.33-.75 2.14-.75.8-2.05.8-1.32 0-2.07-.8a3 3 0 0 1-.73-2.14m1.16.06q0 .84.4 1.39.4.53 1.24.53t1.24-.53.4-1.39v-3.13q0-.84-.4-1.37-.4-.55-1.24-.55-.85 0-1.24.55-.4.54-.4 1.37zM6.5 84.66q.27-.38.43-.78.15-.39.15-.93v-.9h1.08v.9q0 .66-.3 1.2-.27.56-.74.95zM2.2 83.37V76.1l-2.2.91V75.9l3.15-1.17h.2v8.64zM23.58 5.95V2.94q0-1.33.74-2.13.75-.81 2.06-.81t2.06.8a3 3 0 0 1 .75 2.14v3q0 1.33-.75 2.14-.75.8-2.06.8-1.3 0-2.06-.8a3 3 0 0 1-.74-2.13m1.16.06q0 .83.4 1.38t1.24.54q.84 0 1.25-.54.4-.55.4-1.38V2.88q0-.84-.4-1.38T26.38.96t-1.24.54q-.4.54-.4 1.38zM16.74 5.95V2.94q0-1.33.74-2.13.75-.81 2.06-.81 1.3 0 2.06.8a3 3 0 0 1 .75 2.14v3q0 1.33-.75 2.14-.75.8-2.06.8-1.32 0-2.06-.8a3 3 0 0 1-.74-2.13M17.9 6q0 .83.4 1.38t1.24.54q.84 0 1.24-.54.4-.55.4-1.38V2.88q0-.84-.4-1.38T19.54.96t-1.24.54q-.4.54-.4 1.38zM9.83 6.56V6.5h1.11v.06q0 .63.46 1t1.25.37 1.28-.5q.5-.52.5-1.45t-.5-1.41a1.8 1.8 0 0 0-1.28-.49q-.54 0-.94.2a3 3 0 0 0-.77.54l-.8-.38.42-4.26h4.55V1.2h-3.6l-.26 2.39a3.3 3.3 0 0 1 1.59-.46q1.14 0 1.93.75.8.75.8 2.1t-.83 2.13-2.09.77q-1.3 0-2.07-.66-.75-.66-.75-1.66M6.5 9.99q.27-.37.43-.77t.15-.93v-.9h1.08v.9q0 .65-.3 1.2-.27.54-.74.95zM2.2 8.7V1.45l-2.2.9V1.23L3.15.06h.2V8.7zM61.27 240.35v-.88h5.06v.88h-1.97v5.36h-1.11v-5.36zM59.75 245.7l-2.46-2.85.69-.74 3.15 3.6zm-3.5-3.6h1.1l2.23-2.63h1.3l-3.01 3.5h-1.61zm.56-2.63v6.24H55.7v-6.24zM48.36 242.68v-.18q0-1.41.81-2.3a2.8 2.8 0 0 1 2.18-.9q1.35 0 2.17.9.81.89.81 2.3v.18a3.3 3.3 0 0 1-.81 2.31q-.82.9-2.17.9-1.37 0-2.18-.9a3.3 3.3 0 0 1-.81-2.3m1.13-.18v.18q0 .96.47 1.62.45.66 1.39.66.9 0 1.38-.66.45-.66.46-1.62v-.18q0-.97-.46-1.63t-1.38-.66a1.6 1.6 0 0 0-1.4.66q-.46.66-.46 1.63M38.64 243.56v-.06h1.11v.06q0 .63.46 1t1.25.37 1.28-.5q.5-.52.5-1.45t-.5-1.41a1.8 1.8 0 0 0-1.28-.49q-.53 0-.94.2a3 3 0 0 0-.77.54l-.8-.38.42-4.26h4.55v1.02h-3.6l-.26 2.39a3 3 0 0 1 1.59-.46q1.14 0 1.93.75.8.75.8 2.1t-.83 2.13-2.09.77q-1.3 0-2.07-.66-.75-.66-.75-1.66M113.51 245.7h-1.23l1.87-2.65 1.13.1zm2.87 0v-2.25h-1.41l-.1-.07q-1.14 0-1.75-.51-.6-.52-.6-1.4 0-.9.6-1.45.62-.55 1.77-.55h2.6v6.24zm-1.5-3.13h1.5v-2.22h-1.5q-.69 0-.97.32-.28.31-.28.8t.28.8.98.3M105.34 242.68v-.18q0-1.41.81-2.3a2.8 2.8 0 0 1 2.18-.9q1.36 0 2.17.9.82.89.82 2.3v.18a3.3 3.3 0 0 1-.82 2.31q-.81.9-2.17.9t-2.18-.9a3.3 3.3 0 0 1-.81-2.3m1.14-.18v.18q0 .96.46 1.62t1.39.66q.91 0 1.38-.66t.46-1.62v-.18q0-.97-.46-1.63t-1.38-.66a1.6 1.6 0 0 0-1.4.66q-.45.66-.45 1.63M98.89 239.47H100v2.62h2.86v-2.62h1.1v6.24h-1.1v-2.74H100v2.74H98.9zM88.64 239.84q0-1.27.82-2.06a3 3 0 0 1 2.08-.78q1.26 0 2.16.9.9.87.91 2.87v.18q0 2.12-1.23 3.47-1.25 1.35-3.51 1.35h-.13v-.96h.12q1.68 0 2.65-.94t.97-2.86v-.3q0-1.5-.55-2.13a1.8 1.8 0 0 0-1.39-.63q-.84 0-1.3.5-.45.5-.46 1.39 0 .9.46 1.38.45.5 1.3.5.78 0 1.38-.5.6-.49.6-1.38h.42a3 3 0 0 1-.72 2.05q-.72.78-1.92.78-1.19 0-1.93-.78a3 3 0 0 1-.73-2.05M175.04 245.7l-2.47-2.85.7-.74 3.14 3.6zm-3.5-3.6h1.1l2.23-2.63h1.3l-3.02 3.5h-1.6zm.56-2.63v6.24h-1.11v-6.24zM164.14 242.68v-.18q0-1.41.78-2.3.8-.9 2.08-.9 1.3 0 2 .83.7.84.7 2.26v.46h-4.88v-.89h3.75v-.09q0-.7-.38-1.18t-1.16-.48q-.87 0-1.32.66-.44.66-.44 1.63v.18q0 .97.47 1.63t1.44.66a2 2 0 0 0 1.04-.26q.43-.25.7-.6l.73.57a3 3 0 0 1-2.47 1.2q-1.47 0-2.26-.89a3.4 3.4 0 0 1-.78-2.3M162.5 247.29v-1.58h-4.56v1.58h-1.02v-2.46h6.6v2.46zm-3.36-6.94-.1 2.12q-.04 1.08-.12 1.6-.09.5-.24.85h-1.16q.21-.3.33-.81.14-.54.18-1.78l.12-2.86h4.46v6.24h-1.12v-5.36zM151.4 245.7v-6.75h-.08l-2.64 3.81h5.01v.95h-6.32v-.77l4.06-5.76h1.05v8.53zM143.44 245.7v-7.26l-2.2.9v-1.11l3.14-1.17h.21v8.65zM228.86 245.7v-6.23h2.7q1.03 0 1.63.42.6.4.6 1.25 0 .52-.31.88-.32.35-.84.46v.02q.64.1 1 .46.37.36.37.93 0 .87-.62 1.34-.63.48-1.66.48zm1.12-3.6h1.57q.6 0 .85-.24a.9.9 0 0 0 .27-.67q0-.4-.27-.62-.25-.21-.85-.22h-1.57zm0 2.73h1.75q.6 0 .88-.25.29-.26.28-.69t-.28-.67-.88-.25h-1.75zM222.04 239.47h1.12v2.62H226v-2.62h1.11v6.24h-1.11v-2.74h-2.85v2.74h-1.12zM216.32 245.7h-1.23l1.87-2.65 1.13.1zm2.87 0v-2.25h-1.41l-.1-.07q-1.14 0-1.75-.51-.6-.52-.6-1.4 0-.9.6-1.45.63-.55 1.76-.55h2.61v6.24zm-1.5-3.13h1.5v-2.22h-1.5q-.69 0-.97.32-.28.31-.28.8t.28.8.97.3M205.43 243.45q0-.77.43-1.3.42-.55 1.1-.8v-.03a2.4 2.4 0 0 1-.89-.76 2 2 0 0 1-.36-1.22q0-1.05.74-1.7a2.7 2.7 0 0 1 1.83-.64q1.07 0 1.82.64t.74 1.7q0 .7-.36 1.22-.37.5-.88.76v.02q.66.26 1.09.8.43.55.43 1.3 0 1.17-.83 1.8-.81.64-2.01.64a3.2 3.2 0 0 1-2.02-.64 2.1 2.1 0 0 1-.83-1.8m1.13-.07q0 .7.47 1.13t1.25.42 1.24-.42.47-1.13-.47-1.13a1.8 1.8 0 0 0-1.24-.43q-.78 0-1.25.43-.47.44-.47 1.13m.25-3.98q0 .64.4 1.06.42.4 1.07.4t1.05-.4q.4-.42.4-1.06 0-.63-.4-1.04a1.4 1.4 0 0 0-1.05-.41q-.67 0-1.06.4-.4.42-.4 1.05M201.2 245.7v-7.26l-2.2.9v-1.11l3.15-1.17h.2v8.65zM288.75 245.7v-6.23h2.7q1.03 0 1.63.42.6.4.6 1.25 0 .52-.31.88-.32.35-.84.46v.02q.64.1 1 .46.37.36.37.93 0 .87-.62 1.34-.63.48-1.65.48zm1.12-3.6h1.57q.6 0 .85-.24a.9.9 0 0 0 .27-.67q0-.4-.27-.62-.25-.21-.85-.22h-1.57zm0 2.73h1.75q.6 0 .88-.25.3-.26.29-.69 0-.42-.29-.67-.27-.24-.87-.25h-1.76zM281.9 242.68v-.18q0-1.41.79-2.3.78-.9 2.08-.9t2 .83.7 2.26v.46h-4.88v-.89h3.75v-.09q0-.7-.38-1.18t-1.16-.48q-.87 0-1.32.66-.44.66-.44 1.63v.18q0 .97.46 1.63.48.66 1.45.66.6 0 1.04-.26.43-.25.7-.6l.72.57q-.3.45-.93.82a3 3 0 0 1-1.53.38q-1.48 0-2.26-.89a3.4 3.4 0 0 1-.79-2.3M274.37 242.68q0 .99.5 1.6t1.64.68v-4.75q-1.13.06-1.64.69-.5.61-.5 1.6zm5.4-.18q0-.99-.5-1.6-.5-.63-1.64-.69v4.75q1.14-.05 1.64-.68.5-.61.5-1.6zm-3.26 3.38a3.5 3.5 0 0 1-2.43-.91 3 3 0 0 1-.85-2.29v-.18q0-1.44.85-2.29a3.5 3.5 0 0 1 2.43-.91v-2.6h1.12v2.6q1.56.06 2.42.91t.85 2.29v.18q0 1.44-.85 2.29-.86.85-2.42.91v2.27h-1.12zM263.58 245.7v-.85l3.13-3.26q.6-.63.92-1.12t.32-1.08-.4-1a1.5 1.5 0 0 0-1.13-.43q-.72 0-1.2.46-.5.46-.5 1.26v.06h-1.14v-.06q0-1.17.81-1.92.83-.75 2.03-.76 1.2 0 1.94.7.74.69.74 1.63 0 .84-.48 1.52-.47.67-1.17 1.38l-2.43 2.5h4.31v.98zM256.74 245.7v-.85l3.12-3.26q.6-.63.93-1.12.32-.5.32-1.08a1.4 1.4 0 0 0-1.53-1.43q-.72 0-1.21.46-.5.46-.5 1.26v.06h-1.14v-.06q0-1.17.82-1.92t2.03-.76q1.2 0 1.93.7.75.69.74 1.63 0 .84-.47 1.52-.47.67-1.17 1.38l-2.43 2.5h4.3v.98zM349.25 248.15v-8.68h1.01l.05.81h.03q.24-.38.74-.65a2.4 2.4 0 0 1 1.17-.28q1.2 0 1.93.9.72.89.72 2.25v.18q0 1.36-.72 2.25-.72.9-1.93.9-.66 0-1.13-.24a2 2 0 0 1-.75-.62v3.18zm1.12-4.3a2 2 0 0 0 .6.73q.44.32 1.04.32.9 0 1.33-.63.42-.65.42-1.59v-.18q0-.94-.42-1.59-.42-.64-1.33-.64-.6 0-1.03.33-.43.32-.61.74zM342.27 243.87q0-.94.76-1.47a3.4 3.4 0 0 1 1.95-.54h1.44v-.44q0-.56-.3-.9t-1.02-.34q-.73 0-1.04.3a1 1 0 0 0-.31.67v.03h-1.11v-.03q0-.75.67-1.3a2.8 2.8 0 0 1 1.82-.55q1.15 0 1.77.53.64.53.64 1.59v2.88q0 .38.06.72t.17.6v.09h-1.08q-.09-.15-.16-.39a3 3 0 0 1-.08-.47q-.23.38-.73.68t-1.29.3q-.9 0-1.53-.51a1.7 1.7 0 0 1-.63-1.45m1.11-.06q0 .54.32.83.32.3.98.3t1.2-.45.54-.95v-.88h-1.32q-.85 0-1.28.31a1 1 0 0 0-.44.84M333.7 245.7v-6.23h1.55l1.77 4.3a7 7 0 0 1 .25.75h.06l.06-.27q.05-.15.2-.47l1.77-4.3h1.51v6.23h-1.06v-4.25l.03-.77h-.05a5 5 0 0 1-.26.76l-1.77 4.26h-.98l-1.77-4.28a6 6 0 0 1-.25-.74h-.06l.03.73v4.29zM323.46 239.84q0-1.27.81-2.06a3 3 0 0 1 2.09-.78q1.25 0 2.16.9.9.87.9 2.87v.18q0 2.12-1.23 3.47-1.24 1.35-3.51 1.35h-.12v-.96h.11q1.69 0 2.65-.94.98-.94.98-2.86v-.3q0-1.5-.56-2.13a1.8 1.8 0 0 0-1.38-.63q-.85 0-1.3.5t-.46 1.39.45 1.38 1.3.5q.78 0 1.38-.5.6-.49.6-1.38h.42a3 3 0 0 1-.72 2.05q-.7.78-1.91.78-1.2 0-1.93-.78a2.9 2.9 0 0 1-.74-2.05M316.84 245.7v-.85l3.12-3.26q.6-.63.93-1.12.32-.5.32-1.08t-.4-1a1.5 1.5 0 0 0-1.13-.43q-.72 0-1.21.46-.5.46-.5 1.26v.06h-1.14v-.06q0-1.17.82-1.92t2.03-.76q1.2 0 1.94.7.73.69.73 1.63a2.6 2.6 0 0 1-.47 1.52q-.47.67-1.17 1.38l-2.43 2.5h4.3v.98zM408.18 248.15v-8.68h1l.06.81h.03q.24-.38.74-.65a2.4 2.4 0 0 1 1.17-.28q1.2 0 1.92.9.72.89.72 2.25v.18q0 1.36-.72 2.25-.72.9-1.92.9-.66 0-1.13-.24a2 2 0 0 1-.75-.62v3.18zm1.12-4.3a2 2 0 0 0 .6.73q.43.32 1.04.32.9 0 1.33-.63.42-.65.42-1.59v-.18q0-.94-.42-1.59-.43-.64-1.33-.64-.6 0-1.04.33-.42.32-.6.74zM401.42 239.47h5.02v6.24h-1.11v-5.36h-2.8v5.36h-1.11zM394.44 243.87q0-.94.76-1.47a3.4 3.4 0 0 1 1.95-.54h1.44v-.44q0-.56-.3-.9t-1.02-.34q-.73 0-1.05.3a1 1 0 0 0-.3.67v.03h-1.12v-.03q0-.75.68-1.3a2.8 2.8 0 0 1 1.81-.55q1.15 0 1.78.53t.63 1.59v2.88q0 .38.06.72t.17.6v.09h-1.08q-.08-.15-.16-.39a3 3 0 0 1-.08-.47q-.22.38-.72.68t-1.3.3q-.89 0-1.52-.51a1.7 1.7 0 0 1-.63-1.45m1.1-.06q0 .54.32.83.33.3.98.3.67 0 1.21-.45.54-.44.54-.95v-.88h-1.32q-.85 0-1.29.31a1 1 0 0 0-.43.84M384.53 239.84q0-1.27.82-2.06a3 3 0 0 1 2.08-.78q1.26 0 2.16.9.9.87.9 2.87v.18q0 2.12-1.23 3.47t-3.5 1.35h-.13v-.96h.12q1.68 0 2.64-.94.98-.94.98-2.86v-.3q0-1.5-.55-2.13a1.8 1.8 0 0 0-1.4-.63q-.82 0-1.3.5-.45.5-.45 1.39 0 .9.46 1.38.45.5 1.3.5.78 0 1.38-.5.6-.49.6-1.38h.41a3 3 0 0 1-.72 2.05q-.7.78-1.91.78-1.2 0-1.93-.78a3 3 0 0 1-.73-2.05M377.91 245.7v-.85l3.13-3.26q.6-.63.92-1.12t.32-1.08-.4-1a1.5 1.5 0 0 0-1.13-.43q-.72 0-1.2.46-.5.46-.5 1.26v.06h-1.14v-.06q0-1.17.81-1.92t2.03-.76q1.2 0 1.94.7.74.69.74 1.63 0 .84-.48 1.52-.47.67-1.16 1.38l-2.44 2.5h4.31v.98z" />
	<path fill="url(#pln-metrics-forum-gradient)" fill-opacity=".7"
		d="M37.8 179.28s3.33-32.86 12.5-32.86c3.33 0 6.86 2.54 12.5 2.54 6.86 0 7.5-3.39 12.5-9.1 7.5-8.55 4.63-11.66 12.5-19.42 4.63-4.56 7.8-5.23 12.5-5.23 7.8 0 6.58 18.67 12.5 18.67 6.58 0 5.08-21.5 12.5-21.5 5.08 0 7.2 11.5 12.5 11.5 7.2 0 7.54-19.27 12.5-19.27 7.54 0 3.4 32.56 12.5 32.56 3.4 0 8.79-3.59 12.5-3.59 8.79 0 7.05 13.73 12.5 28.08 7.05 18.5 4.67 37.63 12.5 37.63 4.67 0 8.05-9.19 12.5-20.01 8.05-19.57 3.9-21.68 12.5-40.77 3.9-8.61 10.33-5.49 12.5-14.63 10.33-43.42 6-90.5 12.5-90.5 6 0 1.64 69.3 12.5 83.18 1.64 2.09 8.18 2.09 12.5 2.09 8.18 0 5.39-10.9 12.5-20.46 5.39-7.24 9.71-13.14 12.5-13.14 9.71 0 2.63 32.98 12.5 61.82 2.63 7.68 6.1 11.2 12.5 11.2 6.1 0 6.13-10 12.5-10 6.13 0 5.61 8.96 12.5 8.96h12.5c7.37 0 7.56-5.49 12.5-12.85 7.56-11.23 7.76-11.57 12.5-24.34 7.76-20.83 6.95-21.25 12.5-42.86 6.95-27 12.5-54.35 12.5-54.35V228.7h-375z" />
	<path stroke="var(--color-brand-main, #6667AB)" stroke-linejoin="bevel" stroke-width="2"
		d="M37.8 179.28s3.33-32.86 12.5-32.86c3.33 0 6.86 2.54 12.5 2.54 6.86 0 7.5-3.39 12.5-9.1 7.5-8.55 4.63-11.66 12.5-19.42 4.63-4.56 7.8-5.23 12.5-5.23 7.8 0 6.58 18.67 12.5 18.67 6.58 0 5.08-21.5 12.5-21.5 5.08 0 7.2 11.5 12.5 11.5 7.2 0 7.54-19.27 12.5-19.27 7.54 0 3.4 32.56 12.5 32.56 3.4 0 8.79-3.59 12.5-3.59 8.79 0 7.05 13.73 12.5 28.08 7.05 18.5 4.67 37.63 12.5 37.63 4.67 0 8.05-9.19 12.5-20.01 8.05-19.57 3.9-21.68 12.5-40.77 3.9-8.61 10.33-5.49 12.5-14.63 10.33-43.42 6-90.5 12.5-90.5 6 0 1.64 69.3 12.5 83.18 1.64 2.09 8.18 2.09 12.5 2.09 8.18 0 5.39-10.9 12.5-20.46 5.39-7.24 9.71-13.14 12.5-13.14 9.71 0 2.63 32.98 12.5 61.82 2.63 7.68 6.1 11.2 12.5 11.2 6.1 0 6.13-10 12.5-10 6.13 0 5.61 8.96 12.5 8.96h12.5c7.37 0 7.56-5.49 12.5-12.85 7.56-11.23 7.76-11.57 12.5-24.34 7.76-20.83 6.95-21.25 12.5-42.86 6.95-27 12.5-54.35 12.5-54.35" />
	<path stroke="var(--color-brand-main, #6667AB)" stroke-dasharray="4 2" d="M37.8 134.2h375" />
	<path fill="var(--color-content-main, #151617)"
		d="M432.05 135.73v-.06h1.1v.06q0 .64.47 1 .47.38 1.25.38.77 0 1.28-.51.5-.53.5-1.44 0-.94-.5-1.42a1.8 1.8 0 0 0-1.28-.48q-.54 0-.94.2-.41.18-.77.54l-.81-.4.43-4.25h4.55v1.02h-3.6l-.26 2.39a3.3 3.3 0 0 1 1.59-.46q1.13 0 1.92.76.8.75.8 2.1 0 1.34-.82 2.12-.83.78-2.1.78-1.3 0-2.06-.67-.75-.67-.75-1.66M425.09 135.64v-.06h1.12v.06q0 .7.47 1.09.49.38 1.27.38.8 0 1.27-.38.48-.39.47-1.2 0-.81-.53-1.22a2.3 2.3 0 0 0-1.43-.41h-.7v-.93h.64q.84 0 1.27-.39.46-.38.46-1.08 0-.69-.4-1.03-.37-.35-1.05-.35-.67 0-1.1.35-.4.33-.4.98v.06h-1.12v-.06q0-.95.73-1.6a2.7 2.7 0 0 1 1.9-.68q1.14 0 1.86.64.73.63.73 1.63 0 .6-.33 1.13t-1.02.82v.03q.75.18 1.2.74t.46 1.37q0 1.17-.82 1.85-.83.68-2.09.68a3 3 0 0 1-2.08-.68 2.2 2.2 0 0 1-.78-1.74M418.3 134.28v-.17q0-2.23 1.22-3.58 1.24-1.36 3.52-1.36h.12v.96h-.12q-1.68 0-2.65.94t-.97 2.98v.3q0 1.5.55 2.13t1.39.63q.84 0 1.3-.51.45-.51.45-1.44t-.46-1.43q-.45-.5-1.3-.5-.77 0-1.37.5t-.6 1.43h-.42a3 3 0 0 1 .72-2.09q.72-.8 1.92-.8t1.92.8q.75.8.74 2.1a2.8 2.8 0 0 1-.82 2.08q-.82.8-2.08.8t-2.17-.89-.9-2.88" />
	<path fill="var(--color-content-main, #151617)" fill-opacity=".5"
		d="m198.3 22.7 2.4-5h-5.78l2.39 5zm0 204.02v-.5h-1v.5h1m-1-1.98v.5h1v-.5h-1m1-1.99v-.5h-1v.5h1m-1-1.98v.5h1v-.5h-1m1-1.98v-.5h-1v.5h1m-1-1.98v.5h1v-.5h-1m1-1.98v-.5h-1v.5h1m-1-1.98v.5h1v-.5h-1m1-1.98v-.5h-1v.5h1m-1-1.98v.5h1v-.5h-1m1-1.98v-.5h-1v.5h1m-1-1.99v.5h1v-.5h-1m1-1.98v-.5h-1v.5h1m-1-1.98v.5h1v-.5h-1m1-1.98v-.5h-1v.5h1m-1-1.98v.5h1v-.5h-1m1-1.98v-.5h-1v.5h1m-1-1.98v.5h1v-.5h-1m1-1.98v-.5h-1v.5h1m-1-1.99v.5h1v-.5h-1m1-1.98v-.5h-1v.5h1m-1-1.98v.5h1v-.5h-1m1-1.98v-.5h-1v.5h1m-1-1.98v.5h1v-.5h-1m1-1.98v-.5h-1v.5h1m-1-1.98v.5h1v-.5h-1m1-1.98v-.5h-1v.5h1m-1-1.98v.5h1v-.5h-1m1-1.98v-.5h-1v.5h1m-1-1.99v.5h1v-.5h-1m1-1.98v-.5h-1v.5h1m-1-1.98v.5h1v-.5h-1m1-1.98v-.5h-1v.5h1m-1-1.98v.5h1v-.5h-1m1-1.98v-.5h-1v.5h1m-1-1.98v.5h1v-.5h-1m1-1.98v-.5h-1v.5h1m-1-1.99v.5h1v-.5h-1m1-1.98v-.5h-1v.5h1m-1-1.98v.5h1v-.5h-1m1-1.98v-.5h-1v.5h1m-1-1.98v.5h1v-.5h-1m1-1.98v-.5h-1v.5h1m-1-1.98v.5h1v-.5h-1m1-1.98v-.5h-1v.5h1m-1-1.98v.5h1v-.5h-1m1-1.99v-.5h-1v.5h1m-1-1.98v.5h1v-.5h-1m1-1.98v-.5h-1v.5h1m-1-1.98v.5h1v-.5h-1m1-1.98v-.5h-1v.5h1m-1-1.98v.5h1v-.5h-1m1-1.98v-.5h-1v.5h1m-1-1.98v.5h1v-.5h-1m1-1.98v-.5h-1v.5h1m-1-1.99v.5h1v-.5h-1m1-1.98v-.5h-1v.5h1m-1-1.98v.5h1v-.5h-1m1-1.98v-.5h-1v.5h1m-1-1.98v.5h1v-.5h-1m1-1.98v-.5h-1v.5h1m-1-1.98v.5h1v-.5h-1m1-1.98v-.5h-1v.5h1m-1-1.98v.5h1v-.5h-1m1-1.99v-.5h-1v.5h1m-1-1.98v.5h1v-.5h-1m1-1.98v-.5h-1v.5h1m-1-1.98v.5h1v-.5h-1m1-1.98v-.5h-1v.5h1m-1-1.98v.5h1v-.5h-1m1-1.98v-.5h-1v.5h1m-1-1.98v.5h1v-.5h-1m1-1.98v-.5h-1v.5h1m-1-1.99v.5h1v-.5h-1m1-1.98v-.5h-1v.5h1m-1-1.98v.5h1v-.5h-1m1-1.98v-.5h-1v.5h1m-1-1.98v.5h1v-.5h-1m1-1.98v-.5h-1v.5h1m-1-1.98v.5h1v-.5h-1m1-1.98v-.5h-1v.5h1m-1-1.99v.5h1v-.5h-1m1-1.98v-.5h-1v.5h1m-1-1.98v.5h1v-.5h-1m1-1.98v-.5h-1v.5h1m-1-1.98v.5h1v-.5h-1m1-1.98v-.5h-1v.5h1m-1-1.98v.5h1v-.5h-1m1-1.98v-.5h-1v.5h1m-1-1.98v.5h1v-.5h-1m1-1.99v-.5h-1v.5h1m-1-1.98v.5h1v-.5h-1m1-1.98v-.5h-1v.5h1m-1-1.98v.5h1v-.5h-1m1-1.98v-.5h-1v.5h1m-1-1.98v.5h1v-.5h-1m1-1.98v-.5h-1v.5h1m-1-1.98v.5h1v-.5h-1m1-1.98v-.5h-1v.5h1m-1-1.99v.5h1v-.5h-1m1-1.98v-.5h-1v.5h1m-1-1.98v.5h1v-.5h-1m1-1.98v-.5h-1v.5h1m-1-1.98v.5h1v-.5h-1m1-1.98v-.5h-1v.5h1m-1-1.98v.5h1v-.5h-1m.5 209h.5v-.98h-1v.99zm0-2.96h.5v-1.99h-1v1.99zm0-3.97h.5v-1.98h-1v1.98zm0-3.96h.5v-1.98h-1v1.98zm0-3.96h.5v-1.98h-1v1.98zm0-3.96h.5v-1.98h-1v1.98zm0-3.97h.5v-1.98h-1v1.98zm0-3.96h.5v-1.98h-1v1.98zm0-3.96h.5v-1.98h-1V197zm0-3.96h.5v-1.98h-1v1.98zm0-3.97h.5v-1.98h-1v1.98zm0-3.96h.5v-1.98h-1v1.98zm0-3.96h.5v-1.98h-1v1.98zm0-3.96h.5v-1.98h-1v1.98zm0-3.96h.5v-1.98h-1v1.98zm0-3.97h.5v-1.98h-1v1.98zm0-3.96h.5v-1.98h-1v1.98zm0-3.96h.5v-1.98h-1v1.98zm0-3.96h.5v-1.98h-1v1.98zm0-3.97h.5v-1.98h-1v1.98zm0-3.96h.5v-1.98h-1v1.98zm0-3.96h.5v-1.98h-1v1.98zm0-3.96h.5v-1.98h-1v1.98zm0-3.96h.5v-1.99h-1v1.99zm0-3.97h.5v-1.98h-1v1.98zm0-3.96h.5v-1.98h-1v1.98zm0-3.96h.5v-1.98h-1v1.98zm0-3.96h.5v-1.98h-1v1.98zm0-3.97h.5v-1.98h-1v1.98zm0-3.96h.5v-1.98h-1v1.98zm0-3.96h.5v-1.98h-1v1.98zm0-3.96h.5v-1.98h-1v1.98zm0-3.97h.5v-1.98h-1v1.98zm0-3.96h.5v-1.98h-1v1.98zm0-3.96h.5V92h-1v1.98zm0-3.96h.5v-1.98h-1v1.98zm0-3.96h.5v-1.98h-1v1.98zm0-3.97h.5v-1.98h-1v1.98zm0-3.96h.5v-1.98h-1v1.98zm0-3.96h.5v-1.98h-1v1.98zm0-3.96h.5v-1.98h-1v1.98zm0-3.97h.5v-1.98h-1v1.98zm0-3.96h.5V60.3h-1v1.98zm0-3.96h.5v-1.98h-1v1.98zm0-3.96h.5v-1.98h-1v1.98zm0-3.96h.5V48.4h-1v1.99zm0-3.97h.5v-1.98h-1v1.98zm0-3.96h.5V40.5h-1v1.98zm0-3.96h.5v-1.98h-1v1.98zm0-3.96h.5v-1.98h-1v1.98zm0-3.97h.5V28.6h-1v1.98zm0-3.96h.5v-1.98h-1v1.98zm0-3.96h.5v-1.98h-1v1.98z" />
	<path fill="var(--color-content-main, #151617)"
		d="M303.7 21.87q0-.95.77-1.47a3.3 3.3 0 0 1 1.95-.54h1.44v-.44q0-.56-.3-.9t-1.02-.34q-.74 0-1.05.3a1 1 0 0 0-.3.67v.03h-1.12v-.03q0-.75.68-1.3a2.8 2.8 0 0 1 1.81-.55q1.15 0 1.78.53t.63 1.59v2.88q0 .38.06.72t.17.6v.09h-1.08q-.08-.15-.16-.39a3 3 0 0 1-.08-.47q-.22.38-.72.68t-1.3.3q-.89 0-1.52-.51a1.7 1.7 0 0 1-.63-1.45m1.12-.06q0 .54.31.83.33.3.98.3.67 0 1.21-.45.54-.44.54-.95v-.88h-1.32q-.85 0-1.29.31a1 1 0 0 0-.43.84M297.23 17.47h1.1v2.62h2.86v-2.62h1.12v6.24h-1.12v-2.74h-2.85v2.74h-1.11zM290.31 23.7v-6.23h1.1v3.87l-.01.8h.05l.19-.33.22-.35 2.5-3.99h1.12v6.24h-1.1v-3.86l.03-.82h-.07a8 8 0 0 1-.4.7l-2.51 3.98zm2.6-8.13q.42 0 .7-.23t.46-.77l.85.5q-.28.72-.82 1.05-.52.33-1.2.33t-1.2-.32a2 2 0 0 1-.8-1.06l.84-.52q.2.57.46.8.28.22.7.22M283.33 21.87q0-.95.76-1.47a3.3 3.3 0 0 1 1.95-.54h1.44v-.44q0-.56-.3-.9t-1.02-.34q-.73 0-1.05.3a1 1 0 0 0-.3.67v.03h-1.12v-.03q0-.75.68-1.3a2.8 2.8 0 0 1 1.82-.55q1.14 0 1.77.53t.63 1.59v2.88q0 .38.06.72t.17.6v.09h-1.08a2 2 0 0 1-.15-.39 3 3 0 0 1-.09-.47q-.22.38-.72.68t-1.3.3q-.89 0-1.52-.51a1.7 1.7 0 0 1-.63-1.45m1.1-.06q0 .54.33.83.3.3.97.3t1.21-.45q.54-.44.54-.95v-.88h-1.32q-.85 0-1.29.31a1 1 0 0 0-.43.84M279.58 23.88q-1.34 0-2-.66a2 2 0 0 1-.66-1.49v-.03H278v.03q0 .47.36.86.36.38 1.22.38.75 0 1.14-.29.4-.3.4-.8 0-.42-.3-.66-.28-.25-.94-.25h-1.09v-.87h.98q.6 0 .87-.24a.9.9 0 0 0 .27-.66q0-.48-.32-.74a1.5 1.5 0 0 0-.94-.25q-.77 0-1.15.36t-.37.88v.03h-1.08v-.03q0-.93.68-1.54.67-.6 1.92-.61 1.15 0 1.77.48t.62 1.34q0 .5-.33.87-.31.38-.85.5v.01q.64.1 1 .46.37.35.37.92a1.7 1.7 0 0 1-.74 1.48q-.75.52-1.9.52M270.46 23.7v-6.23h1.1v3.87l-.01.8h.05l.18-.33.23-.35 2.5-3.99h1.12v6.24h-1.1v-3.86l.03-.82h-.08a7 7 0 0 1-.4.7l-2.5 3.98zM268.46 25.29V23.7h-4.56v1.58h-1.02v-2.46h6.59v2.46zm-3.37-6.94-.1 2.12q-.04 1.08-.12 1.6-.09.5-.24.85h-1.16q.21-.3.33-.81.13-.54.18-1.78l.12-2.86h4.46v6.24h-1.11v-5.36zM256.84 20.68v-.18q0-1.42.78-2.3.79-.9 2.08-.9 1.3 0 2 .83.7.84.7 2.26v.46h-4.88v-.89h3.75v-.09q0-.7-.38-1.18t-1.16-.48q-.87 0-1.32.66-.44.66-.44 1.63v.18q0 .97.47 1.63t1.44.66a2 2 0 0 0 1.04-.26q.43-.26.7-.6l.72.57a2.9 2.9 0 0 1-2.46 1.2q-1.48 0-2.26-.89a3.4 3.4 0 0 1-.78-2.3M250.2 26.14v-8.67h1l.05.81h.04q.23-.38.74-.65a2.4 2.4 0 0 1 1.17-.27q1.2 0 1.92.89.72.88.72 2.25v.18q0 1.37-.72 2.25-.72.9-1.92.9-.68 0-1.14-.24a2 2 0 0 1-.75-.62v3.17zm1.11-4.3a2 2 0 0 0 .61.74q.43.33 1.03.32.9 0 1.33-.63.42-.65.42-1.59v-.18q0-.95-.42-1.59t-1.33-.64q-.6 0-1.03.33-.42.32-.6.74zM245.07 23.7l-2.46-2.85.7-.74 3.14 3.6zm-3.5-3.6h1.1l2.24-2.63h1.3l-3.02 3.5h-1.61zm.56-2.63v6.24h-1.1v-6.24zM234.3 20.68v-.18q0-1.42.78-2.3a2.7 2.7 0 0 1 2.15-.9q1.27 0 1.92.67.66.67.66 1.5v.02h-1.08v-.03q0-.48-.36-.87-.36-.38-1.14-.38-.92 0-1.36.66a3 3 0 0 0-.43 1.63v.18q0 .97.43 1.63.45.66 1.36.66.78 0 1.14-.38.36-.39.36-.88v-.03h1.08v.03a2 2 0 0 1-.66 1.5q-.66.67-1.92.67a2.7 2.7 0 0 1-2.15-.89 3.4 3.4 0 0 1-.78-2.3M228.45 26.14v-.94a3 3 0 0 0 .72.1q.42 0 .72-.28.3-.27.66-1.35l-2.35-6.2h1.1l1.48 4.09a10 10 0 0 1 .27.85h.03a5 5 0 0 1 .27-.85l1.4-4.09h1.05l-2.56 7.06q-.3.82-.8 1.27t-1.21.46a3 3 0 0 1-.78-.12M222.25 17.47h5.02v6.24h-1.11v-5.36h-2.8v5.36h-1.11zM215.26 21.87q0-.95.77-1.47a3.4 3.4 0 0 1 1.95-.54h1.44v-.44q0-.56-.3-.9t-1.03-.34q-.72 0-1.04.3a1 1 0 0 0-.31.67v.03h-1.1v-.03q0-.75.67-1.3a2.8 2.8 0 0 1 1.81-.55q1.15 0 1.78.53t.63 1.59v2.88q0 .38.06.72t.17.6v.09h-1.08q-.09-.15-.16-.39a3 3 0 0 1-.08-.47q-.22.38-.72.68t-1.3.3q-.9 0-1.52-.51a1.7 1.7 0 0 1-.64-1.45m1.12-.06q0 .54.31.83.32.3.98.3.68 0 1.2-.45.55-.44.55-.95v-.88h-1.33q-.84 0-1.28.31a1 1 0 0 0-.43.84M211.03 22.9q1.03 0 1.5-.45t.47-1.21q0-.69-.43-1.08-.41-.4-1.35-.4h-1.28v-.95h1.16q.87 0 1.27-.36t.4-1.02q0-.7-.43-1.07-.42-.37-1.34-.37-.95 0-1.46.43t-.51 1.33v.07h-1.16v-.06q0-1.25.8-2Q209.5 15 211 15q1.36 0 2.14.6.78.57.78 1.8a1.8 1.8 0 0 1-1.26 1.81v.03q.65.18 1.07.69a2 2 0 0 1 .41 1.32q0 1.25-.85 1.94-.83.7-2.25.7-1.48 0-2.38-.71-.88-.7-.88-2.14v-.06h1.15v.06q0 .95.53 1.4t1.58.45" />
	<defs>
		<linearGradient id="pln-metrics-forum-gradient" x1="37.81" x2="37.81" y1="22.63" y2="228.71"
			gradientUnits="userSpaceOnUse">
			<stop offset=".05" stop-color="var(--color-brand-main, #6667AB)" stop-opacity=".88" />
			<stop offset=".95" stop-color="var(--color-brand-main, #6667AB)" stop-opacity="0" />
		</linearGradient>
	</defs>
</svg>