<svg xmlns="http://www.w3.org/2000/svg" id="Layer_2" data-name="Layer 2" viewBox="0 0 1000 311.5">
  <defs>
    <style>
      .cls-1{fill:#aa2020}
    </style>
  </defs>
  <path d="M856.54 0h59.6v59.07h-59.6zM828.59 0v59.07h-58.81c-.44 0-.94-1.28-.82-1.82L768.99 0zM940.93 0H1000v59.07h-59.07zM940.93 169.83H1000v59.07h-59.07zM768.99 86.5h59.6v59.07h-59.6zM856.54 86.5h59.6v59.07h-59.6zM768.99 169.83h59.6v59.07h-59.6zM230.49 0 230 229.73l-229.99.23V0H230.5Zm-59.08 51.69H62.24v130.8h27.95V74.9h53.8v107.59h27.43V51.69ZM486.81 0l-.79 229.96h-228.9L256.33 0h230.49Zm-54.85 51.69h-94.09c-.11 26.39 4.43 92.74-26.69 108.65l5.85 23.68c44.03-13.05 48.08-71.59 47.42-109.13h39.56v107.59h27.95zM743.14 0l-.79 229.96h-228.9L512.66 0h230.49ZM601.27 51.69h-27.95v130.8h27.95v-53.8h53.27v53.8h27.95V51.69h-27.95v53.8h-53.27zM36.25 265.69v44.71h-8.71v-37.2H9.57v37.2H.86v-44.71zM80.36 308.79c-15.09 8.36-35.86-3.73-34.59-20.71.04-19.29 18.59-28.52 34.59-20.65v10.19c-11.1-11.4-25.65-2.11-25.61 10.59-.13 14.58 17.34 20.16 25.61 10.39zM99.49 284.59l16.42-18.9h10.99L108 286.34l19.91 24.06h-11.53l-15.89-20.04-1.01 1.01v19.04h-8.71V265.7h8.71v18.9ZM177.44 288.08c.85 30.77-48.58 30.77-47.73 0-.84-30.85 48.57-30.85 47.73 0m-8.98 0c.49-20.43-30.25-20.43-29.76 0-.5 20.35 30.26 20.35 29.76 0M198.06 265.69c12.69-1.97 21.17 13.82 10.06 20.85 10.09 1.94 11.88 13.6 5.23 20.24-6.2 5.75-18.87 3.01-26.34 3.62v-44.71h11.06Zm-2.35 18.56c3.17-.27 8.53 1.27 9.25-5.83.06-5.33-5.17-5.88-9.25-5.63zm0 19.04c4.49.37 12.89.04 12.47-6.37.46-5.95-7.97-6.32-12.47-5.97v12.33ZM278.69 284.59l16.42-18.9h10.99l-18.9 20.65 19.91 24.06h-11.53l-15.89-20.04-1.01 1.01v19.04h-8.71V265.7h8.71v18.9ZM339.63 301.01H321.6l-3.95 9.38h-9.45l19.37-45.65h6.57l18.84 45.65h-9.38l-3.95-9.38Zm-2.55-7.1-6.3-16.09-6.44 16.09zM387.08 310.4h-8.71v-17.29h-1.61l-11.4 17.29H354.9l13.27-18.1c-10.3-.71-13.03-17.58-5.5-23.19 6.27-5.48 17.09-2.81 24.4-3.42v44.71Zm-11.4-37.61c-12.36-.21-11.35 15.47 2.68 13.47v-13.47zM450.95 265.69v44.71h-8.71v-37.2h-13c-.07 2.44-1.23 42.57-19.07 37.2v-7.51c1.29.05 9.16-.11 10.36-27.21.35-5.75 0-10 0-10h30.43ZM489.37 273.19h-18.34v9.99h16.19v7.51h-16.19v12.2h18.72v7.51h-27.43v-44.71h27.06v7.51ZM508.79 282.98h18.9v-17.29h8.71v44.71h-8.71v-19.91h-18.9v19.91h-8.71v-44.71h8.71zM566.58 273.19v37.2h-8.71v-37.2h-13.56v-7.51h37.45v7.51h-15.17ZM611.01 301.01h-18.03l-3.96 9.38h-9.45l19.37-45.65h6.57l18.84 45.65h-9.38l-3.95-9.38Zm-2.55-7.1-6.3-16.09-6.44 16.09zM653.91 282.98h18.9v-17.29h8.71v44.71h-8.71v-19.91h-18.9v19.91h-8.71v-44.71h8.71zM738.77 288.08c.85 30.77-48.58 30.77-47.73 0-.84-30.85 48.57-30.85 47.73 0m-8.98 0c.48-20.43-30.25-20.43-29.76 0-.5 20.35 30.26 20.35 29.76 0M759.38 265.69c12.69-1.97 21.17 13.82 10.05 20.85 10.09 1.94 11.88 13.6 5.23 20.24-6.2 5.75-18.87 3.01-26.34 3.62v-44.71zm-2.34 18.56c3.17-.27 8.53 1.27 9.25-5.83.06-5.32-5.16-5.88-9.25-5.63zm0 19.04c4.49.37 12.89.04 12.47-6.37.46-5.95-7.97-6.32-12.47-5.97v12.33ZM833.98 288.08c.85 30.77-48.58 30.77-47.73 0-.84-30.85 48.57-30.85 47.73 0m-8.98 0c.48-20.43-30.25-20.43-29.76 0-.5 20.35 30.26 20.35 29.76 0M901.83 273.19v37.2h-8.71v-37.2h-13.9v-7.51h37.45v7.51zM949.95 273.19h-18.53v9.99l16.42-.06v7.51l-16.42.06v12.2h19.04v7.51h-27.75v-44.71h27.24v7.51ZM968.92 265.69v30.03l24.67-31.04h6.03v45.72h-8.71v-30.16l-24.67 31.04h-6.03V265.7h8.71Zm6.62-11.39c2.51 5.71 9.5 5.73 12.07 0h7.07c-3.47 12.96-22.67 13.12-26.23 0h7.1ZM249.1 303.49c-25.48-.76-15.68-42.08 8.45-28.06l3.81-6.3c-15.09-10.86-36.69-1.1-36.4 18.95-1.45 18.54 23.36 30.56 37.4 18.7l-3.69-6.45c-1.94 1.06-4.32 3.17-9.58 3.17ZM862.97 303.49c-25.48-.76-15.68-42.08 8.45-28.06l3.81-6.3c-15.09-10.86-36.69-1.1-36.4 18.95-1.45 18.54 23.36 30.56 37.4 18.7l-3.69-6.45c-1.94 1.06-4.32 3.17-9.58 3.17Z" class="cls-1"/>
</svg>
