<svg xmlns="http://www.w3.org/2000/svg" xmlns:xlink="http://www.w3.org/1999/xlink" fill="none" viewBox="0 0 486 261">
  <g clip-path="url(#a)">
    <path fill="#d01b1f" d="M14 7A7 7 0 1 1 0 7a7 7 0 0 1 14 0" />
    <path fill="var(--color-content-main, #151617)"
			d="M173.42 8.54h1.17l-1.83 3.02h-1.18zm.9-3.32h2.66v6.34h-1.09V6.1h-1.56q-.46 0-.76.16-.3.15-.43.4a1 1 0 0 0 0 1q.1.24.38.4.26.15.68.15h1.98v.89h-1.98q-.55 0-.97-.15t-.71-.4a1.8 1.8 0 0 1-.6-1.4q0-.41.16-.76t.46-.62.76-.4 1.03-.15M169.43 5.22v.9h-3.06v-.9zm.96 0v6.34h-1.08V5.22zm-4.28 0h1.08l-.16 3.06q-.04.71-.13 1.26-.09.53-.25.92-.15.39-.39.63-.22.24-.55.36-.32.12-.74.11h-.34v-.95l.23-.02a1 1 0 0 0 .43-.12 1 1 0 0 0 .3-.29q.13-.2.2-.51.09-.3.13-.74.04-.42.07-1zM161.47 11.68q-.67 0-1.2-.22a2.7 2.7 0 0 1-1.51-1.61q-.2-.57-.2-1.23v-.25q0-.78.22-1.38.23-.6.62-1.03a2.7 2.7 0 0 1 3.1-.62q.5.23.81.66.32.4.47.98.15.57.15 1.23v.49h-4.73V7.8h3.65v-.08a3 3 0 0 0-.18-.82q-.15-.4-.47-.66-.31-.25-.88-.25a1.5 1.5 0 0 0-1.2.61q-.24.3-.35.75-.13.44-.13 1v.26q0 .45.13.84.12.4.36.7a1.8 1.8 0 0 0 1.4.63q.57 0 .97-.23t.7-.63l.65.53q-.2.3-.52.59a3 3 0 0 1-.78.45q-.46.18-1.09.18M156.1 5.22v6.34h-1.08V5.22zm2.14 0v.88h-5.3v-.88zM147.77 9.85l2.92-4.63h1.1v6.34h-1.1V6.94l-2.92 4.62h-1.08V5.22h1.08zM143.4 5.22v6.34h-1.08V5.22zm2.13 0v.88h-5.3v-.88zM137.15 11.68q-.66 0-1.2-.22a2.7 2.7 0 0 1-1.5-1.61q-.21-.57-.21-1.23v-.25q0-.78.22-1.38.23-.6.63-1.03a2.7 2.7 0 0 1 3.09-.62q.5.23.81.66.33.4.47.98.16.57.16 1.23v.49h-4.74V7.8h3.65v-.08a3 3 0 0 0-.18-.82q-.15-.4-.46-.66Q137.56 6 137 6a1.5 1.5 0 0 0-1.22.61q-.21.3-.34.75-.12.44-.12 1v.26q0 .45.12.84.13.4.37.7t.59.46.8.17q.57 0 .97-.23t.7-.63l.65.53q-.2.3-.52.59-.3.28-.78.45-.45.18-1.08.18M130.77 10.79q.39 0 .72-.16t.54-.43.24-.64h1.03q-.03.55-.38 1.05a2.6 2.6 0 0 1-2.15 1.07q-.7 0-1.25-.25-.52-.25-.87-.7a3 3 0 0 1-.53-1 4 4 0 0 1-.17-1.21v-.25q0-.64.17-1.2.18-.58.53-1.02.34-.44.88-.7a3 3 0 0 1 1.24-.24q.75 0 1.3.3.57.3.88.82.32.51.35 1.17h-1.03q-.03-.4-.23-.7-.19-.33-.51-.51-.33-.2-.76-.2-.49 0-.83.2t-.54.53q-.2.33-.28.74a4 4 0 0 0-.08.81v.25q0 .41.08.82t.28.73.53.53q.34.19.84.19M121.1 8.46v-.13q0-.69.2-1.27.2-.6.58-1.03t.9-.68q.54-.24 1.2-.24.67 0 1.2.24.54.24.92.68.38.43.58 1.03.2.58.2 1.27v.13q0 .69-.2 1.27-.2.6-.58 1.03a2.7 2.7 0 0 1-2.1.92 2.72 2.72 0 0 1-2.69-1.95q-.2-.58-.2-1.27m1.09-.13v.13q0 .48.11.9t.34.74.56.5q.35.2.8.19.44 0 .77-.18.35-.2.57-.51.22-.32.33-.74t.12-.9v-.13q0-.46-.12-.89a2 2 0 0 0-.34-.74q-.23-.33-.56-.52a1.6 1.6 0 0 0-.79-.18q-.45 0-.78.18-.34.2-.56.52t-.34.74q-.1.42-.11.89M118.7 5.22v.9h-3.21v-.9zm-3.06 0v6.34h-1.08V5.22zm4.01 0v6.34h-1.09V5.22zM108.7 10.48V7.2q0-.37-.15-.65a1 1 0 0 0-.45-.43q-.3-.15-.73-.15-.42 0-.73.14-.3.15-.48.37a1 1 0 0 0-.17.49h-1.08q0-.34.18-.67.17-.35.5-.6.33-.28.8-.44.46-.16 1.04-.16.7 0 1.22.23.53.25.83.7.3.48.3 1.19v2.95q0 .32.06.67t.17.62v.1h-1.13a4.05 4.05 0 0 1-.18-1.08m.19-2.76.01.76h-1.1q-.45 0-.82.08t-.61.21q-.25.15-.38.37a1.11 1.11 0 0 0 0 1.05q.14.25.41.4.28.15.68.14a1.8 1.8 0 0 0 1.48-.73q.22-.3.25-.59l.46.52q-.04.25-.22.55a2.6 2.6 0 0 1-1.2 1.02q-.42.18-.93.18-.64 0-1.13-.25-.48-.26-.75-.68t-.27-.95q0-.51.2-.9.2-.4.58-.65t.9-.4q.52-.13 1.18-.13zM102.34 7.97v.88h-3.35v-.88zM99.2 5.22v6.34h-1.08V5.22zm4 0v6.34h-1.08V5.22zM91.17 8.77h-2.08l-.01-.86h1.7q.5 0 .84-.1t.5-.3.17-.5a.8.8 0 0 0-.38-.68 1 1 0 0 0-.48-.17q-.28-.06-.66-.06h-1.4v5.46H88.3V5.22h2.48q.6 0 1.08.1.48.12.83.33t.52.54a1.6 1.6 0 0 1 .07 1.32q-.12.25-.35.45t-.56.33a3 3 0 0 1-.77.16zm0 2.8H88.7l.54-.89h1.93q.45 0 .75-.1.3-.13.45-.34t.15-.51a.85.85 0 0 0-.6-.84q-.3-.12-.75-.12h-1.65l.02-.86h2.05l.4.32q.52.05.88.26t.55.55q.19.33.19.72 0 .45-.17.78-.16.35-.48.57t-.77.34-1.02.11M81.06 8.46v-.13q0-.69.2-1.27.2-.6.58-1.03t.9-.68q.54-.24 1.2-.24.67 0 1.2.24.54.24.91.68.39.43.58 1.03.2.58.2 1.27v.13q0 .69-.2 1.27-.2.6-.58 1.03a2.7 2.7 0 0 1-2.1.92 2.72 2.72 0 0 1-2.69-1.95q-.2-.58-.2-1.27m1.09-.13v.13q0 .48.1.9.13.42.34.74.23.32.57.5.34.2.8.19.44 0 .77-.18.34-.2.56-.51.22-.32.34-.74.11-.42.11-.9v-.13q0-.46-.11-.89a2 2 0 0 0-.34-.74q-.23-.33-.57-.52a1.6 1.6 0 0 0-.78-.18q-.45 0-.79.18-.33.2-.56.52-.22.32-.33.74t-.11.89M75.7 6.44V14h-1.1V5.22h1zm4.27 1.9v.12q0 .7-.17 1.29-.16.59-.48 1.02-.3.42-.77.67-.45.24-1.04.24t-1.07-.2a2 2 0 0 1-.79-.58 3 3 0 0 1-.51-.91 5 5 0 0 1-.26-1.2v-.66q.08-.7.26-1.26.2-.56.51-.95.33-.4.78-.6.45-.21 1.06-.21.6 0 1.06.23t.78.66.47 1.02q.17.6.17 1.32m-1.1.12v-.12q0-.47-.1-.9a2 2 0 0 0-.3-.73 1.5 1.5 0 0 0-1.3-.69q-.4 0-.71.14t-.51.38q-.21.24-.35.54-.12.3-.2.62v1.52q.13.4.34.77.2.36.56.58.35.22.88.22.45 0 .76-.18.32-.2.53-.51.21-.32.3-.74.1-.42.1-.9M71.42 5.22v6.34h-1.1V5.22zm2.12 0v.88h-5.3v-.88zM61.83 8.46v-.13q0-.69.2-1.27.2-.6.58-1.03t.9-.68q.54-.24 1.2-.24t1.2.24q.54.24.91.68.39.43.58 1.03.2.58.2 1.27v.13q0 .69-.2 1.27-.2.6-.58 1.03a2.7 2.7 0 0 1-2.1.92 2.72 2.72 0 0 1-2.69-1.95q-.2-.58-.2-1.27m1.09-.13v.13q0 .48.1.9.12.42.34.74t.57.5q.34.2.8.19.44 0 .77-.18.34-.2.56-.51.22-.32.34-.74.1-.42.11-.9v-.13q0-.46-.11-.89a2 2 0 0 0-.34-.74q-.23-.33-.57-.52a1.6 1.6 0 0 0-.78-.18q-.45 0-.79.18-.32.2-.56.52-.22.32-.33.74t-.11.89M56.86 10.12 59 5.22h1.05l-2.83 6.34h-.75l-2.81-6.34h1.04zm-2.46-4.9v6.34H53.3V5.22zm4.88 6.34V5.22h1.1v6.34zM49.47 10.79q.4 0 .71-.16.33-.16.54-.43.21-.28.24-.64H52q-.03.55-.38 1.05a2.6 2.6 0 0 1-2.14 1.07q-.72 0-1.25-.25-.52-.25-.88-.7-.34-.43-.52-1a4 4 0 0 1-.17-1.21v-.25q0-.64.17-1.2.18-.58.52-1.02.36-.44.88-.7a3 3 0 0 1 1.25-.24q.75 0 1.3.3t.87.82T52 7.4h-1.03q-.04-.4-.22-.7-.19-.33-.52-.51-.32-.2-.75-.2-.5 0-.84.2t-.53.53-.28.74q-.09.39-.09.81v.25q0 .41.09.82t.27.73.53.53q.34.19.85.19M39.8 8.46v-.13q0-.69.2-1.27.2-.6.57-1.03.38-.44.91-.68.54-.24 1.2-.24t1.2.24q.54.24.91.68.39.43.58 1.03.2.58.2 1.27v.13q0 .69-.2 1.27-.2.6-.58 1.03a2.7 2.7 0 0 1-2.1.92A2.72 2.72 0 0 1 40 9.73q-.2-.58-.2-1.27m1.08-.13v.13q0 .48.12.9.1.42.33.74t.57.5.79.19.78-.18q.34-.2.56-.51.22-.32.34-.74.1-.42.11-.9v-.13q0-.46-.11-.89a2 2 0 0 0-.34-.74q-.23-.33-.57-.52a1.6 1.6 0 0 0-.78-.18q-.45 0-.79.18-.33.2-.56.52-.22.32-.33.74t-.12.89M34.43 6.44V14h-1.09V5.22h1zm4.28 1.9v.12q0 .7-.17 1.29-.16.59-.48 1.02-.3.42-.77.67-.45.24-1.05.24t-1.06-.2a2 2 0 0 1-.79-.58 3 3 0 0 1-.51-.91 5 5 0 0 1-.26-1.2v-.66q.07-.7.26-1.26.2-.56.51-.95.33-.4.78-.6.45-.21 1.06-.21.6 0 1.06.23t.78.66a3 3 0 0 1 .47 1.02q.17.6.17 1.32m-1.1.12v-.12q0-.47-.1-.9a2 2 0 0 0-.3-.73 1.5 1.5 0 0 0-1.3-.69q-.4 0-.71.14t-.51.38q-.22.24-.35.54t-.2.62v1.52q.13.4.33.77.22.36.57.58t.88.22q.45 0 .76-.18.32-.2.53-.51.21-.32.3-.74.1-.42.1-.9M31.46 3.03v8.53h-1.12v-7.6h-4.2v7.6H25V3.03z" />
    <path fill="var(--color-brand-main, #6667AB)" d="M333.25 7a7 7 0 1 1-14 0 7 7 0 0 1 14 0" />
    <path fill="var(--color-content-main, #151617)"
			d="M464.65 9.53q0-.28.17-.47.18-.2.5-.2.35 0 .5.2.18.19.18.47t-.18.45q-.15.2-.5.19-.32 0-.5-.19a.7.7 0 0 1-.17-.45M462.01 6.5v.89h-3.35V6.5zm-3.12-2.74v6.34h-1.09V3.76zm4 0v6.34h-1.1V3.76zM451.96 8.38l2.92-4.62h1.09v6.34h-1.1V5.48l-2.92 4.62h-1.07V3.76h1.07zM445.52 8.66l2.16-4.9h1.04l-2.82 6.34h-.75l-2.82-6.34h1.05zm-2.46-4.9v6.34h-1.08V3.76zm4.89 6.34V3.76h1.09v6.34zM437.72 1.57l-3.56 9.26h-.93l3.56-9.26zM427.23 10.22q-.66 0-1.2-.23a2.7 2.7 0 0 1-1.5-1.6q-.2-.57-.2-1.24v-.24q0-.78.22-1.38.23-.6.62-1.03a2.7 2.7 0 0 1 3.1-.62q.5.23.81.65.32.41.47.99.15.56.15 1.23v.48h-4.73v-.88h3.65v-.08a3 3 0 0 0-.18-.82q-.15-.4-.47-.66t-.88-.26a1.5 1.5 0 0 0-1.2.62q-.24.3-.35.74-.13.44-.13 1.02v.24q0 .46.13.85.12.4.36.7.25.3.6.46t.8.17q.57 0 .97-.23t.7-.63l.65.52q-.2.3-.52.6-.31.27-.78.45-.46.18-1.09.18M421.88 3.76v6.34h-1.1V3.76zm2.13 0v.88h-5.3v-.88zM413.54 8.38l2.92-4.62h1.1v6.34h-1.1V5.48l-2.92 4.62h-1.08V3.76h1.08zm2.33-6.92h.88q0 .46-.2.82-.22.35-.61.55t-.93.2q-.82 0-1.3-.44-.46-.44-.46-1.13h.88q0 .35.2.61.2.27.68.27.46 0 .66-.27.2-.26.2-.6M409.58 9.02V5.75q0-.37-.15-.65a1 1 0 0 0-.45-.43q-.3-.15-.74-.15-.4 0-.72.14-.3.13-.48.37a1 1 0 0 0-.17.49h-1.08q0-.34.17-.68.18-.33.5-.6.35-.27.8-.43.48-.17 1.05-.17.7 0 1.22.24.53.23.83.7.3.48.3 1.18v2.96q0 .3.06.67.06.36.17.62v.09h-1.13a4.05 4.05 0 0 1-.18-1.08m.19-2.76v.76h-1.09q-.45 0-.82.07t-.61.22q-.26.15-.38.37a1.11 1.11 0 0 0 0 1.05q.15.25.41.4.28.14.68.14a1.8 1.8 0 0 0 1.48-.73q.22-.3.25-.6l.46.53q-.04.24-.22.55a2.6 2.6 0 0 1-1.2 1.02q-.42.18-.93.18-.64 0-1.13-.26-.48-.25-.75-.67t-.27-.95q0-.51.2-.9.2-.4.58-.65.38-.27.9-.4t1.18-.13zM402.1 9.33q.39 0 .71-.16.33-.15.54-.44.21-.28.24-.63h1.03q-.02.56-.38 1.04a2.6 2.6 0 0 1-2.14 1.08q-.72 0-1.25-.26-.53-.25-.88-.69t-.52-1a4 4 0 0 1-.17-1.22v-.24q0-.64.17-1.21t.52-1.01.88-.7 1.25-.25q.75 0 1.3.3.56.3.87.83.32.51.35 1.17h-1.03q-.04-.4-.22-.71a1.44 1.44 0 0 0-1.27-.7q-.5 0-.84.2-.33.19-.53.53-.2.33-.29.73t-.08.82v.24q0 .42.08.82t.28.74q.2.32.53.52.34.2.85.2M393.8 9.02V5.75q0-.37-.16-.65a1 1 0 0 0-.44-.43q-.3-.15-.74-.15-.4 0-.72.14-.3.13-.48.37a1 1 0 0 0-.17.49H390q0-.34.18-.68.17-.33.5-.6.35-.27.8-.43.47-.17 1.04-.17.7 0 1.22.24.54.23.83.7.3.48.3 1.18v2.96q0 .3.06.67.06.36.17.62v.09h-1.13a4.05 4.05 0 0 1-.18-1.08m.18-2.76.01.76h-1.1q-.45 0-.82.07t-.6.22q-.26.15-.38.37a1.11 1.11 0 0 0 0 1.05q.15.25.4.4.3.14.68.14a1.8 1.8 0 0 0 1.48-.73q.24-.3.25-.6l.46.53q-.04.24-.22.55a2.6 2.6 0 0 1-1.2 1.02q-.4.18-.93.18-.64 0-1.13-.26-.48-.25-.75-.67-.26-.42-.26-.95 0-.51.2-.9.2-.4.57-.65.38-.27.9-.4.54-.13 1.18-.13zM387.43 6.5v.89h-3.35V6.5zm-3.12-2.74v6.34h-1.08V3.76zm4 0v6.34h-1.09V3.76zM374.85 7.08h1.17l-1.83 3.02h-1.17zm.91-3.32h2.65v6.34h-1.09V4.64h-1.56q-.46 0-.76.16a1 1 0 0 0-.56.9q0 .27.12.5.13.24.4.39.26.15.67.15h1.99v.9h-1.99q-.55 0-.97-.15-.42-.16-.71-.4a1.8 1.8 0 0 1-.6-1.4q0-.41.16-.76.15-.36.47-.62.3-.27.75-.4.45-.15 1.03-.15M368.3 8.66l2.16-4.9h1.05l-2.83 6.34h-.75l-2.81-6.34h1.04zm-2.45-4.9v6.34h-1.09V3.76zm4.88 6.34V3.76h1.1v6.34zM360.93 10.22q-.66 0-1.2-.23a2.7 2.7 0 0 1-1.5-1.6q-.21-.57-.21-1.24v-.24q0-.78.23-1.38t.62-1.03a2.7 2.7 0 0 1 3.1-.62q.49.23.8.65.33.41.47.99.16.56.16 1.23v.48h-4.74v-.88h3.65v-.08a3 3 0 0 0-.17-.82q-.15-.4-.47-.66-.33-.26-.88-.26a1.5 1.5 0 0 0-1.21.62q-.23.3-.35.74t-.12 1.02v.24q0 .46.12.85.13.4.37.7t.6.46.79.17q.57 0 .97-.23t.7-.63l.65.52a3 3 0 0 1-.52.6 3 3 0 0 1-.78.45q-.45.18-1.08.18M352.65 4.98v7.56h-1.1V3.76h1zm4.27 1.9V7q0 .7-.17 1.28-.16.6-.48 1.02a2.2 2.2 0 0 1-1.81.92q-.6 0-1.07-.2a2 2 0 0 1-.79-.58 3 3 0 0 1-.51-.92 5 5 0 0 1-.26-1.2v-.65q.07-.71.26-1.26.2-.57.51-.95.33-.4.78-.6.45-.22 1.06-.22.6 0 1.06.24t.78.65a3 3 0 0 1 .47 1.03q.17.6.17 1.32m-1.1.12v-.12q0-.48-.1-.9a2 2 0 0 0-.3-.73 1.5 1.5 0 0 0-1.3-.7q-.4 0-.71.15t-.51.38q-.21.22-.35.54-.13.3-.2.62v1.52q.13.4.34.77.2.36.56.58.35.21.88.22.45 0 .76-.19.32-.18.53-.5.21-.33.3-.74.1-.42.1-.9M347.29 6.1h-2.16l-.01-.9h1.96q.48 0 .85-.16.36-.17.56-.47t.2-.74q0-.47-.18-.76a1 1 0 0 0-.54-.44 3 3 0 0 0-.93-.14h-1.66v7.61h-1.13V1.57h2.8q.65 0 1.16.13.52.14.88.41.36.28.55.7.19.44.19 1.03 0 .52-.27.96-.27.41-.75.69-.49.27-1.12.34zm-.05 4h-2.56l.64-.92h1.92q.54 0 .91-.19.38-.18.58-.53t.2-.81q0-.48-.17-.82t-.53-.53a2 2 0 0 0-.94-.2h-1.61v-.9h2.21l.24.33q.61.05 1.05.35.42.3.65.75.23.46.23 1 0 .8-.36 1.36a2 2 0 0 1-.97.83q-.64.28-1.5.28" />
    <path stroke="var(--color-content-main, #151617)" stroke-opacity=".1"
			d="M14.44 241.03h450M14.44 188.03h450M14.44 136.03h450M14.44 83.03h450M14.44 31.03h450" />
    <path stroke="var(--color-content-main, #151617)" stroke-linecap="round" d="M14.44 241.03h450" />
    <path fill="var(--color-content-main, #151617)" fill-opacity=".5"
			d="M5.75 239.59v1.3q0 1.05-.18 1.77-.19.71-.54 1.16-.36.43-.85.64-.5.19-1.12.19a3 3 0 0 1-.9-.12 2 2 0 0 1-.75-.4q-.33-.27-.57-.71t-.35-1.07a8 8 0 0 1-.13-1.46v-1.3a7 7 0 0 1 .2-1.76q.18-.71.54-1.14.35-.44.84-.62.5-.19 1.11-.19.5 0 .92.13a2 2 0 0 1 1.3 1.07q.24.42.36 1.05.12.62.12 1.46m-1.09 1.47v-1.66q0-.57-.07-1a3 3 0 0 0-.19-.75q-.13-.32-.33-.5a1 1 0 0 0-.45-.29q-.25-.1-.57-.1-.39 0-.68.15t-.5.46-.31.81-.1 1.22v1.66q0 .57.06 1.02.06.43.2.76.14.3.33.52.2.21.45.3.26.1.56.1.4 0 .7-.16.3-.15.5-.47.21-.33.3-.84.1-.51.1-1.23M3.96 183.45v8.58H2.88v-7.22l-2.19.8v-.99l3.1-1.17zM5.99 138.64v.9H.4v-.79l2.8-3.1q.5-.6.8-.98.28-.4.4-.72.1-.33.11-.66 0-.42-.17-.76a1.3 1.3 0 0 0-.5-.55q-.34-.2-.82-.2-.57 0-.95.22-.37.21-.56.6-.19.4-.19.9H.24q0-.7.32-1.31.3-.6.93-.95.63-.36 1.53-.36.8 0 1.39.29.57.28.88.8.3.51.3 1.2 0 .37-.12.75-.13.39-.35.77-.21.37-.5.75-.3.36-.62.72l-2.29 2.48zM1.98 82.23h.77q.57 0 .94-.19.38-.18.56-.52.19-.33.19-.75 0-.48-.17-.82a1 1 0 0 0-.5-.5 2 2 0 0 0-.82-.18q-.46 0-.81.19a1.3 1.3 0 0 0-.74 1.27H.32q0-.65.32-1.18.33-.54.92-.85.6-.32 1.39-.32.77 0 1.35.28.58.27.9.8t.33 1.34q0 .31-.16.69-.15.36-.46.68-.31.3-.8.52-.51.2-1.2.2h-.93zm0 .9v-.66h.93a4 4 0 0 1 1.34.2q.54.19.84.51.3.33.44.71.12.37.12.76 0 .6-.2 1.06t-.57.79-.85.48-1.08.17a3 3 0 0 1-1.05-.16q-.48-.15-.86-.46a2.1 2.1 0 0 1-.8-1.75h1.09q0 .45.2.77.19.34.56.53.36.18.86.18t.86-.17q.36-.18.56-.53t.2-.88-.23-.88a1.3 1.3 0 0 0-.63-.5 3 3 0 0 0-.96-.18zM6.16 31.66v.9H0v-.65L3.82 26h.89l-.95 1.71-2.53 3.95zM4.97 26v8.53H3.9V26zM50.66 254.94v.88h-3.35v-.88zm-3.12-2.75v6.34h-1.08v-6.34zm4 0v6.34h-1.09v-6.34zM42.63 258.65q-.66 0-1.2-.22a2.7 2.7 0 0 1-1.5-1.62q-.21-.56-.21-1.23v-.24q0-.78.23-1.38t.62-1.03a2.7 2.7 0 0 1 3.1-.62q.49.23.8.66.32.4.48.98.15.56.15 1.23v.49h-4.74v-.89h3.65v-.08a3 3 0 0 0-.17-.82q-.15-.4-.47-.66-.32-.25-.88-.25a1.5 1.5 0 0 0-1.21.61q-.23.3-.35.74-.12.45-.12 1.02v.24q0 .45.12.85.13.4.37.7t.6.46.79.17q.57 0 .97-.23t.7-.63l.66.52q-.2.3-.53.6-.3.28-.78.45-.45.18-1.08.18M36.26 257.76q.38 0 .71-.16.33-.15.54-.43t.24-.64h1.03q-.03.56-.38 1.05a2.6 2.6 0 0 1-2.14 1.07q-.72 0-1.25-.25t-.88-.7q-.34-.43-.52-1a4 4 0 0 1-.17-1.22v-.24q0-.65.17-1.2.17-.6.52-1.02.35-.45.88-.7a3 3 0 0 1 1.25-.25q.75 0 1.3.3t.87.83.35 1.17h-1.03q-.04-.4-.22-.7-.2-.33-.52-.51-.32-.2-.75-.2-.51 0-.84.2-.33.19-.54.53-.19.33-.28.73-.08.4-.08.82v.24q0 .42.08.83.09.39.28.73t.53.52q.34.2.85.2M29.25 256.22q0 .78-.36 1.33-.36.54-.97.82-.6.28-1.38.28t-1.38-.28a2.3 2.3 0 0 1-.97-.82q-.36-.55-.36-1.33a2.2 2.2 0 0 1 1.6-2.16q.5-.18 1.1-.18.78 0 1.4.3t.97.84.35 1.2m-1.09-.02q0-.48-.2-.84a1.5 1.5 0 0 0-.58-.57q-.37-.2-.85-.2-.5 0-.86.2t-.56.57-.2.84q0 .49.2.84t.56.54.87.18.87-.18.55-.54.2-.84m.9-3.98q0 .62-.33 1.12t-.9.78q-.56.3-1.29.3t-1.3-.3-.9-.78q-.32-.5-.32-1.12 0-.75.32-1.26.33-.53.9-.8.57-.28 1.3-.28t1.3.28q.56.27.89.8.32.51.32 1.26m-1.09.02q0-.43-.18-.76a1.3 1.3 0 0 0-.5-.51q-.33-.2-.75-.2-.43 0-.75.19-.33.17-.5.5-.18.33-.18.78 0 .44.18.77t.5.5q.33.2.75.19.43 0 .75-.18.32-.19.5-.51.18-.33.18-.77M22.71 257.64v.9h-5.58v-.79l2.8-3.1q.5-.6.8-.98.28-.4.4-.72.1-.33.1-.66 0-.42-.17-.76a1.3 1.3 0 0 0-.5-.55q-.34-.2-.81-.2-.57 0-.95.22-.38.21-.56.6-.2.4-.19.9h-1.08q0-.7.31-1.31.32-.6.94-.95.62-.36 1.53-.36.81 0 1.38.29.58.28.88.8.3.51.31 1.2 0 .37-.13.75-.12.39-.34.77-.22.37-.51.75-.3.36-.62.72l-2.28 2.48zM107.43 252.2v6.33h-1.09v-6.34zm2.13 0v.87h-5.3v-.88zM99.53 252.2v6.33h-1.08v-6.34zm4.16 0-3 3.62h-1.52l-.16-.94h1.24l2.13-2.69zm-1.16 6.33-2.34-2.87.7-.78 3.01 3.65zM91.22 255.43v-.13q0-.69.2-1.28.2-.58.58-1.02t.9-.68 1.2-.25q.67 0 1.2.25.54.24.92.68.37.43.58 1.03.2.58.2 1.27v.13q0 .69-.2 1.27-.2.6-.58 1.03a2.7 2.7 0 0 1-2.1.92 2.72 2.72 0 0 1-2.69-1.95q-.2-.58-.2-1.27m1.09-.13v.13q0 .48.11.9.11.41.33.74.24.32.57.5.35.2.8.19.44 0 .77-.18.34-.2.57-.51.21-.33.33-.74.12-.42.12-.9v-.13q0-.48-.12-.89a2 2 0 0 0-.34-.74q-.23-.34-.56-.52a1.6 1.6 0 0 0-.79-.19q-.45 0-.78.2-.34.18-.57.5-.22.33-.33.75a3 3 0 0 0-.11.89M85.83 249.99h.1v.92h-.1q-.87 0-1.44.28-.59.27-.92.74-.35.46-.5 1.05-.14.58-.14 1.17v1.26q0 .57.13 1 .15.44.37.74.23.3.53.45t.62.15q.37 0 .67-.14t.5-.4.3-.62a3 3 0 0 0 .01-1.52 2 2 0 0 0-.28-.63 1.4 1.4 0 0 0-1.18-.6q-.45 0-.84.22-.39.21-.64.57-.25.35-.28.77h-.57q.08-.67.3-1.13.23-.46.56-.76t.76-.43a2.8 2.8 0 0 1 2 .1q.45.24.75.64t.44.9a3.6 3.6 0 0 1-.02 2.16q-.16.53-.51.93-.33.4-.83.62t-1.14.22q-.69 0-1.2-.28-.53-.3-.86-.76-.34-.48-.51-1.06a4 4 0 0 1-.17-1.18v-.5q0-.9.18-1.78.18-.86.63-1.57.44-.7 1.25-1.12.79-.4 2.03-.41M80.5 257.64v.9h-5.58v-.79l2.8-3.1q.5-.6.8-.98.28-.4.4-.72.1-.33.11-.66 0-.42-.17-.76a1.3 1.3 0 0 0-.5-.55q-.34-.2-.82-.2-.57 0-.95.22-.37.21-.56.6-.18.4-.19.9h-1.08q0-.7.32-1.31.3-.6.93-.95.63-.36 1.53-.36.8 0 1.39.29.57.28.87.8.32.51.32 1.2 0 .37-.13.75-.13.39-.35.77-.21.37-.5.75-.3.36-.62.72l-2.29 2.48zM164.5 255.5h1.18l-1.83 3.03h-1.18zm.92-3.3h2.65v6.33h-1.09v-5.46h-1.56q-.46 0-.76.16-.3.15-.43.4a1 1 0 0 0 0 1q.1.24.38.4.26.15.68.14h1.98v.9h-1.98q-.55 0-.97-.15t-.71-.4a1.8 1.8 0 0 1-.6-1.4q0-.41.16-.76.15-.35.47-.62.3-.25.75-.4t1.03-.15M156.1 255.43v-.13q0-.69.2-1.28.2-.58.57-1.02.38-.45.9-.68.54-.24 1.2-.25.67 0 1.2.25.54.24.92.68.37.43.58 1.03.2.58.2 1.27v.13q0 .69-.2 1.27-.2.6-.58 1.03a2.7 2.7 0 0 1-2.1.92 2.72 2.72 0 0 1-2.69-1.95q-.2-.58-.2-1.27m1.08-.13v.13q0 .48.1.9.13.41.34.74.23.32.57.5.35.2.8.19.44 0 .77-.18.35-.2.56-.51.22-.33.34-.74.12-.42.12-.9v-.13q0-.48-.12-.89a2 2 0 0 0-.34-.74 1.58 1.58 0 0 0-1.35-.7q-.45 0-.78.18-.34.2-.57.52t-.33.74q-.1.41-.11.89M153.76 254.94v.88h-3.36v-.88zm-3.13-2.75v6.34h-1.08v-6.34zm4 0v6.34h-1.09v-6.34zM141.2 253.73h.77q.57 0 .93-.19.38-.19.56-.52.2-.33.19-.75 0-.5-.17-.82a1 1 0 0 0-.49-.5 2 2 0 0 0-.83-.18q-.45 0-.8.19-.36.17-.55.5t-.2.77h-1.08q0-.65.33-1.18.32-.54.92-.85.6-.32 1.38-.32t1.35.28q.6.27.9.8.33.54.33 1.34 0 .31-.15.69-.15.36-.47.68-.3.3-.8.52-.51.2-1.2.2h-.93zm0 .9v-.66h.92a4 4 0 0 1 1.35.2q.53.2.84.51.3.32.43.71t.13.76q0 .6-.2 1.06t-.58.79-.85.48-1.07.17a3 3 0 0 1-1.05-.16q-.49-.15-.86-.46a2.1 2.1 0 0 1-.8-1.75h1.08q0 .44.2.78.2.33.56.52.36.18.87.18.5 0 .85-.17.36-.18.56-.53t.2-.88-.22-.88a1.3 1.3 0 0 0-.64-.5 3 3 0 0 0-.95-.18zM138.45 257.64v.9h-5.58v-.79l2.8-3.1q.5-.6.79-.98.28-.4.4-.72.12-.33.11-.66 0-.42-.17-.76a1.3 1.3 0 0 0-.5-.55q-.34-.2-.81-.2-.57 0-.95.22-.38.21-.56.6-.2.4-.2.9h-1.08q0-.7.32-1.31.31-.6.94-.95.62-.36 1.53-.36.8 0 1.38.29t.88.8.3 1.2q0 .37-.12.75-.12.39-.35.77-.21.37-.5.75-.3.36-.62.72l-2.29 2.48zM222.43 252.2v6.33h-1.08v-6.34zm4.16 0-3 3.62h-1.52l-.17-.94h1.25l2.12-2.69zm-1.16 6.33-2.34-2.87.7-.78 3.01 3.65zM217.52 258.65q-.66 0-1.2-.22a2.7 2.7 0 0 1-1.5-1.62q-.21-.56-.21-1.23v-.24q0-.78.23-1.38t.62-1.03a2.7 2.7 0 0 1 3.1-.62q.49.23.8.66.33.4.48.98.15.56.15 1.23v.49h-4.74v-.89h3.65v-.08a3 3 0 0 0-.17-.82q-.15-.4-.47-.66-.32-.25-.88-.25a1.5 1.5 0 0 0-1.21.61q-.23.3-.35.74-.12.45-.12 1.02v.24q0 .45.12.85.13.4.37.7.25.3.6.46.35.18.79.17.57 0 .97-.23t.7-.63l.66.52q-.2.3-.53.6-.31.28-.77.45-.46.18-1.09.18M208.8 252.2h1.07l-.09 2.36q-.03.9-.2 1.56t-.44 1.12q-.26.45-.59.77-.32.3-.67.52h-.54l.03-.88h.23l.37-.48a3 3 0 0 0 .59-1.4q.1-.5.13-1.2zm.26 0h3.81v6.33h-1.08v-5.34h-2.73zm-1.96 5.44h6.59v2.76h-1.08v-1.87h-4.43v1.87h-1.09zM201.37 249.95v8.58h-1.09v-7.22l-2.18.8v-.99l3.1-1.17zM196.65 257.64v.9h-5.59v-.79l2.8-3.1q.5-.6.8-.98.27-.4.4-.72.1-.33.1-.66 0-.42-.17-.76a1.3 1.3 0 0 0-.5-.55q-.34-.2-.81-.2-.57 0-.95.22-.38.21-.56.6-.2.4-.19.9h-1.08q0-.7.31-1.31.32-.6.94-.95.61-.36 1.53-.36.81 0 1.38.29.58.28.88.8.3.51.31 1.2 0 .37-.13.75-.12.39-.34.77-.22.37-.51.75-.3.36-.62.72l-2.28 2.48zM282.06 255.74h-2.08l-.01-.87h1.7q.5 0 .84-.1.34-.09.5-.3.18-.2.18-.49a.8.8 0 0 0-.4-.68 1 1 0 0 0-.47-.17 3 3 0 0 0-.66-.06h-1.4v5.46h-1.08v-6.34h2.48q.6 0 1.08.1.48.12.83.33t.52.54a1.6 1.6 0 0 1 .07 1.32q-.12.25-.35.45a2 2 0 0 1-.56.33q-.33.13-.77.16zm0 2.8h-2.47l.54-.89h1.93q.45 0 .75-.1.3-.13.45-.34t.15-.51q0-.3-.15-.51a1 1 0 0 0-.45-.33q-.3-.12-.75-.12h-1.65l.02-.87h2.05l.4.33a2 2 0 0 1 .88.26q.37.21.55.55.2.33.19.72 0 .45-.17.78-.16.35-.48.57t-.77.34q-.45.1-1.02.11M276.46 254.94v.88h-3.35v-.88zm-3.12-2.75v6.34h-1.09v-6.34zm4 0v6.34h-1.1v-6.34zM266.86 255.5h1.17l-1.84 3.03h-1.17zm.9-3.3h2.65v6.33h-1.08v-5.46h-1.57q-.46 0-.75.16a1 1 0 0 0-.56.9q0 .27.12.5.11.24.38.4.26.15.69.14h1.98v.9h-1.99q-.54 0-.96-.15t-.72-.4a1.8 1.8 0 0 1-.6-1.4q0-.41.16-.76.17-.35.47-.62.31-.25.76-.4t1.02-.15M261.1 256.22q0 .78-.36 1.33-.35.54-.97.82-.6.28-1.37.28t-1.39-.28a2.3 2.3 0 0 1-.97-.82q-.36-.55-.36-1.33a2.2 2.2 0 0 1 1.6-2.16q.5-.18 1.1-.18.8 0 1.4.3.62.3.97.84.36.53.36 1.2m-1.08-.02q0-.48-.2-.84a1.5 1.5 0 0 0-.58-.57q-.37-.2-.86-.2-.5 0-.86.2-.35.2-.56.57-.2.36-.2.84 0 .49.2.84t.56.54.88.18.86-.18.56-.54.2-.84m.89-3.98q0 .62-.33 1.12t-.9.78q-.56.3-1.29.3t-1.3-.3-.9-.78q-.3-.5-.31-1.12 0-.75.32-1.26.32-.53.9-.8.56-.28 1.29-.28t1.3.28.89.8q.33.51.33 1.26m-1.09.02q0-.43-.18-.76a1.3 1.3 0 0 0-.5-.51q-.33-.2-.75-.2-.44 0-.75.19-.32.17-.5.5t-.18.78.18.77.5.5q.33.2.75.19.44 0 .75-.18.32-.19.5-.51.18-.33.18-.77M252.54 249.95v8.58h-1.08v-7.22l-2.19.8v-.99l3.1-1.17zM340.9 255.74h-2.08v-.87h1.7q.49 0 .83-.1.35-.09.51-.3t.17-.49a.8.8 0 0 0-.39-.68 1 1 0 0 0-.48-.17q-.28-.06-.66-.06h-1.39v5.46h-1.08v-6.34h2.47q.6 0 1.08.1.49.12.83.33t.53.54a1.6 1.6 0 0 1 .06 1.32q-.12.25-.34.45t-.57.33-.76.16zm0 2.8h-2.47l.54-.89h1.93q.46 0 .75-.1.3-.13.45-.34t.15-.51a.85.85 0 0 0-.6-.84q-.3-.12-.75-.12h-1.64l.01-.87h2.06l.39.33a2 2 0 0 1 .88.26q.37.21.55.55.2.33.2.72 0 .45-.18.78-.16.35-.48.57-.3.22-.77.34-.45.1-1.02.11M334.2 258.65q-.68 0-1.2-.22a2.7 2.7 0 0 1-1.51-1.62q-.2-.56-.2-1.23v-.24q0-.78.22-1.38.23-.6.62-1.03a2.7 2.7 0 0 1 3.1-.62q.5.23.81.66.32.4.47.98.15.56.15 1.23v.49h-4.73v-.89h3.65v-.08a3 3 0 0 0-.18-.82q-.14-.4-.47-.66-.31-.25-.87-.25a1.5 1.5 0 0 0-1.22.61q-.22.3-.34.74-.13.45-.13 1.02v.24q0 .45.13.85.12.4.37.7.24.3.59.46.35.18.8.17.57 0 .97-.23t.7-.63l.65.52q-.2.3-.52.6-.31.28-.78.45-.46.18-1.08.18M330.15 255.47v.13q0 .66-.15 1.23-.14.55-.44.96-.3.42-.71.64-.43.22-1 .22-.45 0-.8-.12a1.7 1.7 0 0 1-1-.94q-.13-.34-.19-.76V254q.06-.45.2-.8.15-.37.38-.61.25-.25.6-.4.35-.12.8-.13a2 2 0 0 1 1.47.63q.28.3.46.72.2.41.28.93.1.52.1 1.12m-1.09.13v-.13a5 5 0 0 0-.23-1.46q-.1-.32-.29-.55a1.3 1.3 0 0 0-1.02-.5q-.35 0-.58.1a.9.9 0 0 0-.54.53v3.67a1 1 0 0 0 .56.43q.22.07.57.07.41 0 .7-.16.3-.17.47-.47.2-.3.28-.7.08-.38.08-.83m-6.44 0v-.13q0-.6.1-1.12.08-.52.27-.93.2-.42.46-.72a2 2 0 0 1 1.48-.63q.45 0 .78.14.34.14.58.39t.37.6.2.81v2.7q-.06.45-.2.8-.13.37-.37.62-.24.26-.58.39t-.8.13q-.55 0-.99-.22a2 2 0 0 1-.72-.64q-.28-.41-.44-.96-.14-.57-.14-1.23m1.09-.13v.13q0 .45.07.84.08.4.26.7t.45.46q.28.16.7.16.35 0 .57-.08a1 1 0 0 0 .57-.53v-3.56a1 1 0 0 0-.2-.3 1 1 0 0 0-.35-.24 2 2 0 0 0-.58-.09q-.42 0-.7.2-.3.2-.46.55-.18.35-.26.8-.07.45-.07.96m2.08 5.5v-11.44h1.1v11.44zM314.39 254.47l-.87-.22.43-4.25h4.37v1h-3.45l-.26 2.32q.23-.13.59-.25t.83-.12q.6 0 1.06.2t.8.58q.34.38.5.9.19.54.18 1.18 0 .62-.17 1.13-.15.52-.5.9-.33.39-.84.6-.5.2-1.19.2-.51 0-.98-.13-.45-.15-.82-.44-.35-.3-.58-.74t-.28-1.04h1.03a2 2 0 0 0 .28.8q.2.33.55.5t.8.17q.39 0 .69-.14t.5-.38.31-.61a2.7 2.7 0 0 0 0-1.56 2 2 0 0 0-.33-.6q-.22-.25-.53-.4-.32-.14-.73-.14-.54 0-.83.14-.27.15-.56.4M309.83 249.95v8.58h-1.09v-7.22l-2.18.8v-.99l3.1-1.17zM397.32 253.41v7.56h-1.09v-8.78h1zm4.27 1.9v.12q0 .7-.16 1.28-.16.6-.48 1.02-.3.44-.77.68-.45.24-1.05.24t-1.06-.2a2 2 0 0 1-.79-.58 3 3 0 0 1-.51-.92 5 5 0 0 1-.26-1.2v-.65q.07-.71.26-1.26.2-.56.51-.95.33-.4.78-.6.46-.22 1.06-.22t1.06.24q.45.22.77.66.33.42.48 1.02.16.6.16 1.32m-1.09.12v-.12q0-.48-.1-.9a2 2 0 0 0-.3-.73 1.5 1.5 0 0 0-1.3-.7q-.4 0-.72.15-.3.14-.5.38-.22.24-.35.54t-.2.62v1.52q.13.4.33.77.21.36.57.58.34.22.88.22.45 0 .76-.18.32-.2.52-.51.22-.33.31-.74.1-.42.1-.9M393.45 257.45v-3.27q0-.37-.15-.65a1 1 0 0 0-.45-.43 2 2 0 0 0-.74-.15q-.4 0-.72.14-.3.15-.48.37a1 1 0 0 0-.17.49h-1.08q0-.34.17-.67a2 2 0 0 1 .5-.6q.35-.3.8-.44.48-.17 1.05-.17.7 0 1.22.24.53.24.83.7.3.47.3 1.19v2.95q0 .3.06.67.06.36.17.62v.1h-1.13a4.04 4.04 0 0 1-.18-1.08m.19-2.76v.76h-1.09q-.45 0-.82.08a2 2 0 0 0-.61.21q-.26.15-.38.37a1.13 1.13 0 0 0 0 1.06q.15.25.41.39.28.14.68.14.5 0 .88-.21t.6-.52.25-.59l.46.52q-.04.25-.22.55a2.6 2.6 0 0 1-1.2 1.02q-.42.18-.93.18-.64 0-1.13-.25-.48-.26-.75-.68a2 2 0 0 1-.27-.95q0-.51.2-.9.2-.4.58-.65.38-.26.9-.4.52-.13 1.18-.13zM384.45 257.09l2.16-4.9h1.04l-2.82 6.34h-.75l-2.82-6.34h1.05zm-2.46-4.9v6.34h-1.09v-6.34zm4.88 6.34v-6.34h1.1v6.34zM372.33 254.47l-.87-.22.43-4.25h4.38v1h-3.46l-.25 2.32q.23-.13.59-.25t.83-.12q.6 0 1.06.2t.8.58q.33.38.5.9.18.54.18 1.18 0 .62-.17 1.13-.15.52-.5.9-.33.39-.84.6-.5.2-1.19.2-.51 0-.98-.13a2.38 2.38 0 0 1-1.4-1.18q-.23-.44-.29-1.04h1.04q.06.48.28.8.2.33.55.5t.8.17q.39 0 .69-.14t.5-.38.31-.61a2.7 2.7 0 0 0 0-1.56 2 2 0 0 0-.33-.6q-.22-.25-.54-.4-.3-.14-.72-.14-.55 0-.83.14t-.57.4M367.77 249.95v8.58h-1.08v-7.22l-2.19.8v-.99l3.1-1.17zM454.4 253.41v7.56h-1.1v-8.78h1zm4.27 1.9v.12q0 .7-.17 1.28-.15.6-.48 1.02-.3.44-.76.68t-1.05.24q-.6 0-1.07-.2a2 2 0 0 1-.78-.58 3 3 0 0 1-.52-.92 5 5 0 0 1-.26-1.2v-.65q.07-.71.27-1.26.2-.56.5-.95.33-.4.78-.6.46-.22 1.06-.22t1.06.24.78.66q.32.42.47 1.02.17.6.17 1.32m-1.1.12v-.12q.01-.48-.1-.9a2 2 0 0 0-.3-.73 1.5 1.5 0 0 0-1.3-.7q-.4 0-.71.15t-.51.38q-.21.24-.35.54-.12.3-.19.62v1.52q.12.4.33.77.21.36.56.58t.88.22q.45 0 .76-.18.33-.2.53-.51.21-.33.3-.74.1-.42.1-.9M450.61 252.2v.89h-3.2v-.9zm-3.05 0v6.33h-1.08v-6.34zm4.01 0v6.33h-1.09v-6.34zM443.6 257.45v-3.27q0-.37-.15-.65a1 1 0 0 0-.45-.43 2 2 0 0 0-.74-.15q-.4 0-.72.14-.3.15-.48.37a1 1 0 0 0-.17.49h-1.08q0-.34.17-.67.18-.34.5-.6.35-.3.8-.44.47-.17 1.05-.17.69 0 1.22.24t.83.7.3 1.19v2.95q0 .3.06.67.06.36.16.62v.1h-1.13a4.05 4.05 0 0 1-.18-1.08m.19-2.76v.76h-1.09q-.46 0-.82.08a2 2 0 0 0-.61.21q-.26.15-.38.37a1.11 1.11 0 0 0 0 1.06q.15.25.41.39.27.14.68.14a1.8 1.8 0 0 0 1.48-.73q.23-.3.24-.59l.47.52q-.04.25-.23.55a2.6 2.6 0 0 1-2.12 1.2q-.65 0-1.13-.25-.48-.26-.75-.68t-.27-.95q0-.51.2-.9.2-.4.58-.65.38-.26.9-.4.52-.13 1.18-.13zM435.6 257.64v.9h-5.58v-.79l2.8-3.1q.5-.6.8-.98.28-.4.4-.72.1-.33.1-.66 0-.42-.17-.76a1.3 1.3 0 0 0-.5-.55q-.34-.2-.8-.2-.58 0-.96.22-.38.21-.56.6-.2.4-.19.9h-1.08q0-.7.31-1.31.32-.6.94-.95.63-.36 1.53-.36.81 0 1.38.29.58.28.88.8.31.51.31 1.2 0 .37-.13.75-.12.39-.34.77-.22.37-.51.75-.3.36-.62.72l-2.28 2.48zM426.83 249.95v8.58h-1.08v-7.22l-2.2.8v-.99l3.1-1.17z" />
    <path fill="var(--color-brand-main, #6667AB)"
			d="M355.57 150.28c3.15 0 5.23.42 7.4 1.34 2.1.88 4.3 2.25 7.6 4.03 4.1 2.23 5.92 5.05 7.55 7.1a9 9 0 0 0 2.52 2.37c.94.55 2.15.91 3.96.91 3.02 0 4.55-1.14 6.4-2.44 1.9-1.35 4.07-2.8 8.12-2.8h14.51c4.6 0 6.68 3.1 8.38 5.7 1.79 2.72 3.13 4.8 6.14 4.8 1.69 0 2.89-.31 3.86-.8.98-.5 1.79-1.22 2.66-2.17 1.73-1.87 3.67-4.65 7.4-7.35l9.99-7.22 3.29-2.38.92-.66.24-.18.06-.04.02-.02 1.18 1.62-.02.02-.07.04-.24.18-.92.66-3.29 2.38-9.98 7.22c-3.52 2.55-5.2 5.02-7.1 7.09a11 11 0 0 1-3.24 2.6c-1.3.65-2.82 1-4.76 1-4.25 0-6.15-3.17-7.81-5.7-1.73-2.65-3.28-4.8-6.7-4.8h-14.52c-3.43 0-5.17 1.17-6.97 2.44-1.87 1.32-3.85 2.81-7.55 2.81-2.1 0-3.67-.42-4.97-1.18a11 11 0 0 1-3.07-2.86c-1.72-2.15-3.27-4.58-6.95-6.58-3.44-1.86-5.44-3.12-7.41-3.95-1.89-.8-3.7-1.18-6.63-1.18a4.7 4.7 0 0 0-3.93 2.07c-1.03 1.35-1.8 3.18-2.6 5.18-.78 1.93-1.6 4.03-2.76 5.63-1.2 1.65-2.84 2.87-5.23 2.87a6.6 6.6 0 0 1-4.64-1.9c-1.16-1.08-2.1-2.5-3-3.78-1.84-2.65-3.55-4.82-6.87-4.82-3.02 0-4.56 1.14-6.4 2.44-1.91 1.36-4.07 2.81-8.12 2.81H297.5c-1.9 0-3.37 1.24-4.63 3.58s-2.16 5.5-2.97 8.79c-.8 3.22-1.52 6.6-2.44 9.12-.45 1.26-1 2.41-1.67 3.26-.7.86-1.62 1.5-2.8 1.5-1.46 0-2.6-.83-3.46-1.98a15 15 0 0 1-2.08-4.46c-1.13-3.52-1.93-8.2-2.7-12.77-.8-4.61-1.56-9.13-2.64-12.5q-.8-2.54-1.79-3.86c-.64-.86-1.25-1.18-1.85-1.18-1.13 0-2.06.57-3 1.88-.96 1.35-1.81 3.31-2.75 5.8-1.85 4.9-3.96 11.59-7.91 18.1-3.33 5.47-4.9 10.66-6.77 14.8-.91 2.02-1.91 3.82-3.26 5.11a7.4 7.4 0 0 1-5.34 2.09c-1.9 0-3.4-.6-4.66-1.63-1.24-1.01-2.24-2.41-3.19-3.96-1.94-3.15-3.83-7.07-7.4-11.02-3.7-4.06-5.45-8.2-7.12-11.01a11 11 0 0 0-2.66-3.26 6.4 6.4 0 0 0-4-1.15c-1.35 0-2.36.52-3.28 1.38-.97.89-1.78 2.1-2.72 3.44-1.8 2.6-4.05 5.68-8.52 5.68-3.54 0-5.5-.7-7.52-1.75-1.96-1.03-3.8-2.28-7.34-3.56-3.72-1.35-5.62-2.74-7.31-3.67-1.63-.9-3.28-1.52-6.86-1.52h-14.52c-1.8 0-3.06.8-4.12 2.1-1.1 1.34-1.9 3.18-2.73 5.16-.8 1.92-1.63 4.02-2.73 5.6-1.13 1.63-2.67 2.9-4.93 2.9-2.23 0-3.95-1.23-5.32-2.82a29 29 0 0 1-3.5-5.6c-1.03-2.02-1.95-3.9-2.95-5.3-1.02-1.43-1.9-2.04-2.75-2.04q-1.18-.01-2.23 1.07-1.09 1.14-2.03 3.33c-1.24 2.9-2.16 6.8-3.01 10.82-.85 3.97-1.63 8.04-2.6 11.1a15 15 0 0 1-1.74 3.9c-.68 1-1.63 1.8-2.9 1.8-1.54 0-2.64-1.02-3.4-2.31a19 19 0 0 1-1.82-5.1c-.95-4.05-1.55-9.44-2.2-14.72-.66-5.33-1.38-10.56-2.56-14.45a14 14 0 0 0-2.06-4.5c-.78-1-1.58-1.44-2.48-1.44-3.64 0-8.77 3.04-13.7 10.07-4.63 6.62-6.13 14.16-7.53 20.25-.7 2.99-1.38 5.73-2.47 7.71a7 7 0 0 1-2.13 2.5 5.86 5.86 0 0 1-7.7-1.2 22 22 0 0 1-3.03-5c-1.91-3.95-3.94-8.93-7.77-13.7a52 52 0 0 1-4.15-6.1c-1.13-1.92-2.02-3.56-2.95-4.99-.92-1.4-1.8-2.47-2.82-3.18-1-.7-2.2-1.1-3.82-1.1-1.46 0-3.04.8-4.67 2.2a28 28 0 0 0-4.48 5.23 57 57 0 0 0-4.38 7.56l-.06.13-.01.03v.01l-1.82-.84v-.01l.02-.04.07-.13a37 37 0 0 1 1.18-2.33c.8-1.5 1.96-3.5 3.35-5.51s3.03-4.05 4.82-5.6c1.77-1.54 3.81-2.7 5.98-2.7 2 0 3.6.5 4.97 1.46 1.33.93 2.38 2.25 3.34 3.73.96 1.47 1.93 3.24 3 5.06a50 50 0 0 0 3.99 5.87c4 5 6.16 10.25 8.01 14.09a20 20 0 0 0 2.71 4.51c.9 1 1.83 1.5 3.02 1.5.86 0 1.52-.22 2.07-.6a5 5 0 0 0 1.5-1.81c.94-1.7 1.57-4.15 2.28-7.2 1.38-6 2.95-13.95 7.84-20.94 5.06-7.22 10.7-10.93 15.34-10.93 1.7 0 3.03.9 4.06 2.22 1 1.3 1.78 3.1 2.4 5.13 1.24 4.09 1.97 9.5 2.63 14.8.66 5.34 1.24 10.58 2.15 14.5q.69 2.98 1.6 4.54c.61 1.03 1.17 1.34 1.67 1.34.32 0 .74-.19 1.26-.95q.78-1.14 1.48-3.36c.94-2.94 1.69-6.87 2.55-10.91.85-4 1.8-8.1 3.13-11.2a13 13 0 0 1 2.43-3.93c1-1.02 2.21-1.68 3.67-1.68 1.9 0 3.3 1.36 4.38 2.88 1.1 1.55 2.11 3.61 3.1 5.54a28 28 0 0 0 3.24 5.22c1.17 1.36 2.4 2.11 3.8 2.11 1.36 0 2.37-.7 3.29-2.03.95-1.37 1.68-3.21 2.52-5.23.81-1.95 1.73-4.05 3.03-5.66a7 7 0 0 1 5.67-2.83h14.52c3.9 0 5.88.7 7.82 1.77 1.88 1.03 3.5 2.26 7.03 3.54 3.72 1.34 5.79 2.72 7.59 3.66 1.75.92 3.41 1.53 6.6 1.53 3.32 0 5.03-2.17 6.87-4.82.9-1.27 1.84-2.7 3-3.77a6.6 6.6 0 0 1 4.64-1.9c2.16 0 3.81.53 5.18 1.53 1.34.98 2.31 2.34 3.2 3.85 1.82 3.08 3.37 6.82 6.87 10.69 3.75 4.13 5.8 8.35 7.63 11.31a14 14 0 0 0 2.75 3.45 5 5 0 0 0 3.4 1.19c1.71 0 2.94-.56 3.96-1.53 1.06-1.01 1.93-2.52 2.82-4.5 1.73-3.84 3.47-9.41 6.88-15.02 3.83-6.3 5.85-12.73 7.75-17.76.93-2.47 1.86-4.67 3-6.25 1.15-1.61 2.62-2.72 4.62-2.72 1.46 0 2.6.83 3.46 1.98.85 1.14 1.52 2.7 2.08 4.46 1.13 3.53 1.93 8.2 2.7 12.77.8 4.62 1.56 9.13 2.64 12.5.54 1.68 1.13 3 1.78 3.86s1.26 1.18 1.86 1.18c.38 0 .78-.18 1.24-.75q.7-.9 1.35-2.69c.87-2.4 1.55-5.59 2.38-8.92.8-3.28 1.75-6.68 3.15-9.26s3.4-4.63 6.4-4.63h14.51c3.43 0 5.17-1.17 6.97-2.44 1.86-1.32 3.85-2.8 7.55-2.8 4.46 0 6.71 3.07 8.52 5.67.94 1.35 1.75 2.55 2.71 3.45a4.6 4.6 0 0 0 3.28 1.37c1.57 0 2.66-.75 3.6-2.05 1-1.35 1.73-3.19 2.53-5.2.79-1.94 1.64-4.04 2.88-5.65a6.7 6.7 0 0 1 5.5-2.85" />
    <path fill="#d01b1f"
			d="M355.57 71.53c2.79 0 5.02.22 7.36 1.03 2.32.81 4.67 2.19 7.74 4.41 4.47 3.23 6.04 7.45 7.5 10.55.74 1.58 1.43 2.81 2.37 3.67.9.8 2.1 1.34 4.06 1.34h14.52c3.47 0 5.48-2.23 7.42-4.84.94-1.26 1.9-2.67 2.96-3.73a5.8 5.8 0 0 1 4.13-1.93c2.9 0 4.6 2.15 5.68 4.71 1.09 2.58 1.74 5.98 2.38 9.22.65 3.32 1.3 6.48 2.34 8.81s2.32 3.51 4.12 3.51c4.94 0 9.6-.03 13.75-4.9 4.91-5.76 8.5-13.5 10.85-19.87A108 108 0 0 0 456 73.16l.16-.64.03-.16.01-.04c.01 0 .08 0 .98.21l.98.22v.02l-.02.04-.04.18-.16.66q-.21.87-.65 2.42c-.58 2.05-1.46 4.9-2.66 8.14-2.39 6.43-6.07 14.44-11.2 20.47-4.8 5.63-10.35 5.6-15.28 5.6-3 0-4.79-2.1-5.95-4.7-1.15-2.58-1.83-5.98-2.48-9.23-.65-3.32-1.27-6.48-2.25-8.83-1-2.35-2.2-3.49-3.84-3.49-.99 0-1.83.47-2.72 1.35-.92.92-1.75 2.13-2.76 3.5-1.95 2.63-4.5 5.65-9.03 5.65H384.6c-2.37 0-4.09-.67-5.4-1.86-1.27-1.15-2.1-2.71-2.84-4.3-1.53-3.25-2.9-6.9-6.86-9.78-3.01-2.18-5.18-3.42-7.23-4.14-2.04-.7-4.02-.92-6.7-.92-1.77 0-3 .98-4.02 2.78-1.04 1.83-1.74 4.33-2.47 6.98-.7 2.59-1.43 5.34-2.55 7.43-1.14 2.13-2.82 3.81-5.48 3.81a6 6 0 0 1-4.36-1.92c-1.1-1.07-2.04-2.48-2.95-3.75-1.88-2.62-3.74-4.83-7.2-4.83h-14.52c-3.87 0-6.1.75-7.93 2.26-1.9 1.57-3.44 4.03-5.73 7.76-4.9 7.98-7.06 17.01-8.71 24.18-.82 3.54-1.54 6.7-2.42 8.96a9 9 0 0 1-1.63 2.85 3.5 3.5 0 0 1-2.61 1.24c-1.72 0-2.88-1.41-3.69-3.04a30 30 0 0 1-2.07-6.78c-1.13-5.47-1.9-12.75-2.65-19.95-.75-7.24-1.48-14.4-2.54-19.76a29 29 0 0 0-1.82-6.31c-.73-1.56-1.36-1.9-1.75-1.9-.43 0-.85.17-1.29.65a8 8 0 0 0-1.37 2.46c-.9 2.28-1.63 5.56-2.49 9.59-1.7 7.97-3.8 18.59-8.46 28.71-1.3 2.84-2.37 5.57-3.37 8.08a75 75 0 0 1-2.93 6.77 15 15 0 0 1-3.64 4.84 8.4 8.4 0 0 1-5.48 1.9c-3.78 0-6.16-2.06-8.29-5.02-1.05-1.46-2.08-3.2-3.2-5.08a105 105 0 0 0-3.85-6.09c-4.33-6.26-6.32-12.98-8.03-17.96-.87-2.53-1.64-4.54-2.57-5.92-.9-1.33-1.85-1.94-3.1-1.94-.58 0-1.13.28-1.7.99a11 11 0 0 0-1.64 3.26c-1 2.87-1.71 6.72-2.48 10.7-.77 3.9-1.59 7.94-2.8 11-.6 1.53-1.34 2.9-2.28 3.88a4.9 4.9 0 0 1-3.6 1.67 6 6 0 0 1-4.18-1.72 20 20 0 0 1-3.04-3.94c-1.98-3.08-4.15-6.88-7.98-10.35-1.69-1.53-3-2.96-4.11-4.24-1.14-1.3-2.02-2.37-2.93-3.28a9 9 0 0 0-2.8-2 10 10 0 0 0-4-.72c-1.7 0-2.97.27-4 .72a9 9 0 0 0-2.8 2c-.91.9-1.8 1.98-2.93 3.28a49 49 0 0 1-4.12 4.24c-3.81 3.45-5.7 7.22-7.55 10.33a16 16 0 0 1-3.03 3.98 6.7 6.7 0 0 1-4.6 1.7c-2.48 0-4.3-1.66-5.69-3.72-1.39-2.08-2.5-4.8-3.48-7.43-1-2.67-1.89-5.21-2.85-7.12a9 9 0 0 0-1.4-2.13c-.44-.46-.8-.6-1.1-.6-.72 0-1.44.4-2.2 1.4a16 16 0 0 0-2.09 4.47c-1.25 3.85-2.16 9.03-3 14.29-.82 5.22-1.57 10.52-2.53 14.51a22 22 0 0 1-1.7 5c-.63 1.2-1.58 2.33-3 2.33-1.63 0-2.69-1.35-3.37-2.83a27 27 0 0 1-1.72-6.2c-.89-4.97-1.43-11.6-2.06-18.12-.63-6.58-1.35-13.06-2.58-17.9a19 19 0 0 0-2.19-5.65c-.84-1.28-1.7-1.8-2.6-1.8-3.2 0-9.92 2.6-13.61 9.95-5.24 10.42-6.6 22.05-7.77 31.25-.58 4.55-1.12 8.58-2.12 11.47a9.5 9.5 0 0 1-2.03 3.62 4.7 4.7 0 0 1-3.5 1.46c-1.85 0-3.22-1.17-4.3-2.74s-2.02-3.75-3-6.23c-1.98-5.02-4.2-11.47-8.06-17.75-3.37-5.48-5.27-10.92-7.09-14.67-.93-1.92-1.83-3.39-2.87-4.38a5 5 0 0 0-3.7-1.48q-2.06.02-4.58 2.94a37 37 0 0 0-4.52 7.02 85 85 0 0 0-4.4 10.14l-.06.17-.01.05-1.9-.65v-.01l.02-.05.07-.18a65 65 0 0 1 1.18-3.08 86 86 0 0 1 3.33-7.3c1.37-2.66 3-5.37 4.78-7.42 1.73-2 3.8-3.63 6.08-3.63 2.09 0 3.73.74 5.08 2.03 1.32 1.25 2.34 3 3.3 4.96 1.96 4.04 3.68 9.1 7 14.49 3.97 6.47 6.27 13.15 8.21 18.06.99 2.5 1.86 4.48 2.8 5.84.92 1.35 1.76 1.87 2.65 1.87.85 0 1.5-.3 2.06-.86q.9-.89 1.57-2.87c.91-2.65 1.44-6.46 2.02-11.07 1.17-9.13 2.55-21.12 7.97-31.9 4.03-8.02 11.44-11.05 15.4-11.05 1.85 0 3.24 1.13 4.28 2.7a21 21 0 0 1 2.45 6.26c1.27 5 2 11.65 2.63 18.2.64 6.59 1.17 13.1 2.04 17.96.44 2.44.95 4.39 1.56 5.7.64 1.39 1.2 1.68 1.56 1.68.21 0 .66-.17 1.24-1.27a21 21 0 0 0 1.52-4.52c.93-3.9 1.67-9.08 2.5-14.37.83-5.23 1.76-10.56 3.07-14.59.65-2 1.43-3.77 2.39-5.05s2.21-2.2 3.8-2.2c1.03 0 1.87.52 2.54 1.2.66.69 1.23 1.61 1.75 2.63 1.02 2.03 1.96 4.74 2.93 7.32 1 2.63 2.03 5.15 3.27 7.01 1.26 1.88 2.56 2.84 4.03 2.84 1.4 0 2.41-.44 3.29-1.2a14 14 0 0 0 2.62-3.5c1.78-2.99 3.84-7.1 7.93-10.8a47 47 0 0 0 3.96-4.07c1.07-1.23 2.04-2.4 3.03-3.38 1-1 2.06-1.83 3.4-2.41s2.88-.89 4.8-.89 3.46.3 4.8.89c1.33.58 2.4 1.42 3.4 2.4.98.98 1.95 2.16 3.03 3.4a47 47 0 0 0 3.95 4.07c4.08 3.68 6.4 7.76 8.32 10.76a18 18 0 0 0 2.71 3.54 4 4 0 0 0 2.82 1.2q1.17 0 2.16-1.05a10 10 0 0 0 1.87-3.25c1.13-2.85 1.92-6.7 2.7-10.65.75-3.9 1.5-7.93 2.55-10.97a13 13 0 0 1 1.97-3.87 4.2 4.2 0 0 1 3.27-1.72c2.12 0 3.61 1.14 4.74 2.82 1.1 1.63 1.95 3.89 2.8 6.39 1.76 5.08 3.66 11.49 7.8 17.47a108 108 0 0 1 3.92 6.21c1.14 1.9 2.12 3.55 3.1 4.93 1.97 2.74 3.83 4.18 6.67 4.18 1.75 0 3.09-.52 4.22-1.44a13 13 0 0 0 3.12-4.2 74 74 0 0 0 2.85-6.6c1-2.5 2.08-5.28 3.42-8.18 4.55-9.88 6.61-20.27 8.32-28.29.84-3.98 1.62-7.44 2.58-9.9a10 10 0 0 1 1.76-3.08c.73-.8 1.65-1.3 2.76-1.3 1.7 0 2.8 1.45 3.56 3.05.8 1.69 1.43 4.04 1.97 6.77 1.08 5.47 1.82 12.74 2.57 19.94.75 7.24 1.5 14.4 2.62 19.76a28 28 0 0 0 1.9 6.3c.77 1.53 1.43 1.92 1.9 1.92.38 0 .74-.15 1.13-.59q.63-.67 1.24-2.23c.82-2.09 1.5-5.07 2.34-8.68 1.65-7.15 3.86-16.49 8.95-24.77 2.24-3.64 3.95-6.43 6.17-8.26 2.3-1.9 5.05-2.72 9.2-2.72h14.52c4.55 0 6.95 3.05 8.83 5.67.97 1.36 1.78 2.57 2.71 3.47.9.87 1.81 1.36 2.97 1.36 1.6 0 2.74-.94 3.71-2.75 1-1.85 1.67-4.35 2.4-7.01.7-2.6 1.46-5.35 2.65-7.45 1.22-2.14 3-3.79 5.76-3.79" />
    <path fill="var(--color-brand-main, #6667AB)"
			d="M24.7 177.53a3 3 0 1 1-6 0 3 3 0 0 1 6 0M39.21 161.78a3 3 0 1 1-6 0 3 3 0 0 1 6 0M53.73 177.53a3 3 0 1 1-6 0 3 3 0 0 1 6 0M68.25 198a3 3 0 1 1-6 0 3 3 0 0 1 6 0M82.76 167.03a3 3 0 1 1-6 0 3 3 0 0 1 6 0M97.28 156.53a3 3 0 1 1-6 0 3 3 0 0 1 6 0M111.8 199.06a3 3 0 1 1-6 0 3 3 0 0 1 6 0M126.31 167.03a3 3 0 1 1-6 0 3 3 0 0 1 6 0M140.83 182.78a3 3 0 1 1-6.01 0 3 3 0 0 1 6 0M155.34 167.03a3 3 0 1 1-6 0 3 3 0 0 1 6 0M169.86 167.03a3 3 0 1 1-6 0 3 3 0 0 1 6 0M184.38 172.28a3 3 0 1 1-6 0 3 3 0 0 1 6 0M198.9 177.53a3 3 0 1 1-6.01 0 3 3 0 0 1 6 0M213.4 167.03a3 3 0 1 1-6 0 3 3 0 0 1 6 0M227.92 182.78a3 3 0 1 1-6 0 3 3 0 0 1 6 0M242.44 199.06a3 3 0 1 1-6 0 3 3 0 0 1 6 0M256.96 177.53a3 3 0 1 1-6.01 0 3 3 0 0 1 6 0M271.47 151.28a3 3 0 1 1-6 0 3 3 0 0 1 6 0M285.99 188.03a3 3 0 1 1-6 0 3 3 0 0 1 6 0M300.5 161.78a3 3 0 1 1-6 0 3 3 0 0 1 6 0M315.02 161.78a3 3 0 1 1-6 0 3 3 0 0 1 6 0M329.54 156.53a3 3 0 1 1-6 0 3 3 0 0 1 6 0M344.05 167.03a3 3 0 1 1-6 0 3 3 0 0 1 6 0M358.57 151.28a3 3 0 1 1-6 0 3 3 0 0 1 6 0M373.09 156.53a3 3 0 1 1-6 0 3 3 0 0 1 6 0M387.6 167.03a3 3 0 1 1-6 0 3 3 0 0 1 6 0M402.12 161.78a3 3 0 1 1-6 0 3 3 0 0 1 6 0M416.63 161.78a3 3 0 1 1-6 0 3 3 0 0 1 6 0M431.15 172.28a3 3 0 1 1-6 0 3 3 0 0 1 6 0M445.67 161.78a3 3 0 1 1-6.01 0 3 3 0 0 1 6 0M460.18 151.28a3 3 0 1 1-6 0 3 3 0 0 1 6 0" />
    <path fill="#d01b1f"
			d="M24.7 125.03a3 3 0 1 1-6 0 3 3 0 0 1 6 0M39.21 104.03a3 3 0 1 1-6 0 3 3 0 0 1 6 0M53.73 125.03a3 3 0 1 1-6 0 3 3 0 0 1 6 0M68.25 151.28a3 3 0 1 1-6 0 3 3 0 0 1 6 0M82.76 104.03a3 3 0 1 1-6 0 3 3 0 0 1 6 0M97.28 93.53a3 3 0 1 1-6 0 3 3 0 0 1 6 0M111.8 146.03a3 3 0 1 1-6 0 3 3 0 0 1 6 0M126.31 104.03a3 3 0 1 1-6 0 3 3 0 0 1 6 0M140.83 125.03a3 3 0 1 1-6.01 0 3 3 0 0 1 6 0M155.34 109.28a3 3 0 1 1-6 0 3 3 0 0 1 6 0M169.86 98.78a3 3 0 1 1-6 0 3 3 0 0 1 6 0M184.38 109.28a3 3 0 1 1-6 0 3 3 0 0 1 6 0M198.9 125.03a3 3 0 1 1-6.01 0 3 3 0 0 1 6 0M213.4 93.53a3 3 0 1 1-5.99 0 3 3 0 0 1 6 0M227.92 119.78a3 3 0 1 1-6 0 3 3 0 0 1 6 0M242.44 135.53a3 3 0 1 1-6 0 3 3 0 0 1 6 0M256.96 114.53a3 3 0 1 1-6.01 0 3 3 0 0 1 6 0M271.47 72.53a3 3 0 1 1-6 0 3 3 0 0 1 6 0M285.99 130.28a3 3 0 1 1-6 0 3 3 0 0 1 6 0M300.5 93.53a3 3 0 1 1-6 0 3 3 0 0 1 6 0M315.02 83.03a3 3 0 1 1-6 0 3 3 0 0 1 6 0M329.54 83.03a3 3 0 1 1-6 0 3 3 0 0 1 6 0M344.05 93.53a3 3 0 1 1-6 0 3 3 0 0 1 6 0M358.57 72.53a3 3 0 1 1-6 0 3 3 0 0 1 6 0M373.09 77.78a3 3 0 1 1-6 0 3 3 0 0 1 6 0M387.6 93.53a3 3 0 1 1-6 0 3 3 0 0 1 6 0M402.12 93.53a3 3 0 1 1-6 0 3 3 0 0 1 6 0M416.63 83.03a3 3 0 1 1-6 0 3 3 0 0 1 6 0M431.15 109.28a3 3 0 1 1-6 0 3 3 0 0 1 6 0M445.67 104.03a3 3 0 1 1-6.01 0 3 3 0 0 1 6 0M460.18 72.53a3 3 0 1 1-6 0 3 3 0 0 1 6 0" />
    <path stroke="var(--color-brand-main, #6667AB)" stroke-dasharray="4 2" d="M14.44 167.03h450" />
    <path stroke="#d01b1f" stroke-dasharray="4 2" d="M14.44 104.03h450" />
    <path fill="var(--color-content-main, #151617)"
			d="M485.83 168.16v.9h-6.17v-.65l3.82-5.91h.89l-.95 1.71-2.53 3.95zm-1.2-5.66v8.53h-1.07v-8.53zM477.03 170.46q0-.28.17-.47t.5-.19q.35 0 .5.2.18.18.18.46 0 .27-.18.45-.15.2-.5.2-.32 0-.5-.2a.7.7 0 0 1-.17-.45M473.71 162.45v8.58h-1.08v-7.22l-2.19.8v-.99l3.1-1.17zM484.22 99.49h.1v.92h-.1q-.85 0-1.44.28-.58.27-.92.74t-.5 1.05q-.14.58-.14 1.17v1.26q0 .57.14 1 .13.44.37.74t.52.45q.3.15.63.15.38 0 .66-.14.3-.15.5-.4.2-.27.3-.62a3 3 0 0 0 .02-1.52 2 2 0 0 0-.29-.63 1.4 1.4 0 0 0-1.17-.6q-.45 0-.84.22-.4.21-.64.57-.25.35-.29.77h-.57q.09-.67.3-1.13.23-.46.57-.76t.75-.43a2.8 2.8 0 0 1 2 .1q.46.24.76.64t.44.9a3.6 3.6 0 0 1-.03 2.16 3 3 0 0 1-.5.93q-.34.4-.83.62-.5.21-1.14.22-.7 0-1.21-.28-.52-.3-.86-.77t-.5-1.05a4 4 0 0 1-.18-1.18v-.5q0-.9.18-1.78.19-.86.63-1.57.45-.7 1.25-1.12.79-.4 2.03-.41M477.03 107.46q0-.28.17-.47t.5-.19q.35 0 .5.2.18.18.18.46 0 .27-.18.45-.15.2-.5.2-.32 0-.5-.2a.7.7 0 0 1-.17-.45M475.74 107.14v.9h-5.59v-.79l2.8-3.1q.5-.6.8-.98.28-.4.4-.72.1-.33.11-.66 0-.42-.17-.76a1.3 1.3 0 0 0-.5-.55q-.34-.2-.82-.2-.57 0-.95.22-.37.21-.56.6-.19.4-.19.9H470q0-.7.32-1.31.3-.6.93-.95.63-.36 1.53-.36.8 0 1.39.29.57.28.88.8.3.5.3 1.2 0 .37-.12.75-.13.38-.35.77-.21.37-.5.75-.3.36-.62.72l-2.29 2.48z" />
    <path fill="var(--color-content-main, #151617)" fill-opacity=".5"
			d="m232.94 54.53 2.39-5h-5.78l2.39 5zm0 185v-.5h-1v.5h1m-1-1.98v.5h1v-.5h-1m1-2v-.5h-1v.5h1m-1-1.98v.5h1v-.5h-1m1-2v-.5h-1v.5h1m-1-1.98v.5h1v-.5h-1m1-2v-.5h-1v.5h1m-1-1.98v.5h1v-.5h-1m1-1.99v-.5h-1v.5h1m-1-1.99v.5h1v-.5h-1m1-1.99v-.5h-1v.5h1m-1-1.99v.5h1v-.5h-1m1-1.99v-.5h-1v.5h1m-1-1.99v.5h1v-.5h-1m1-1.99v-.5h-1v.5h1m-1-1.99v.5h1v-.5h-1m1-1.99v-.5h-1v.5h1m-1-1.99v.5h1v-.5h-1m1-1.99v-.5h-1v.5h1m-1-1.99v.5h1v-.5h-1m1-1.98v-.5h-1v.5h1m-1-2v.5h1v-.5h-1m1-1.98v-.5h-1v.5h1m-1-2v.5h1v-.5h-1m1-1.98v-.5h-1v.5h1m-1-2v.5h1v-.5h-1m1-1.98v-.5h-1v.5h1m-1-2v.5h1v-.5h-1m1-1.98v-.5h-1v.5h1m-1-2v.5h1v-.5h-1m1-1.98v-.5h-1v.5h1m-1-2v.5h1v-.5h-1m1-1.98v-.5h-1v.5h1m-1-1.99v.5h1v-.5h-1m1-1.99v-.5h-1v.5h1m-1-1.99v.5h1v-.5h-1m1-1.99v-.5h-1v.5h1m-1-1.99v.5h1v-.5h-1m1-1.99v-.5h-1v.5h1m-1-1.99v.5h1v-.5h-1m1-1.99v-.5h-1v.5h1m-1-1.99v.5h1v-.5h-1m1-1.99v-.5h-1v.5h1m-1-1.99v.5h1v-.5h-1m1-1.98v-.5h-1v.5h1m-1-2v.5h1v-.5h-1m1-1.98v-.5h-1v.5h1m-1-2v.5h1v-.5h-1m1-1.98v-.5h-1v.5h1m-1-2v.5h1v-.5h-1m1-1.98v-.5h-1v.5h1m-1-2v.5h1v-.5h-1m1-1.98v-.5h-1v.5h1m-1-2v.5h1v-.5h-1m1-1.98v-.5h-1v.5h1m-1-2v.5h1v-.5h-1m1-1.98v-.5h-1v.5h1m-1-1.99v.5h1v-.5h-1m1-1.99v-.5h-1v.5h1m-1-1.99v.5h1v-.5h-1m1-1.99v-.5h-1v.5h1m-1-1.99v.5h1v-.5h-1m1-1.99v-.5h-1v.5h1m-1-1.99v.5h1v-.5h-1m1-1.99v-.5h-1v.5h1m-1-1.99v.5h1v-.5h-1m1-1.99v-.5h-1v.5h1m-1-1.99v.5h1v-.5h-1m1-1.98v-.5h-1v.5h1m-1-2v.5h1v-.5h-1m1-1.98v-.5h-1v.5h1m-1-2v.5h1v-.5h-1m1-1.98v-.5h-1v.5h1m-1-2v.5h1v-.5h-1m1-1.98v-.5h-1v.5h1m-1-2v.5h1v-.5h-1m1-1.98v-.5h-1v.5h1m-1-2v.5h1v-.5h-1m1-1.98v-.5h-1v.5h1m-1-2v.5h1v-.5h-1m1-1.98v-.5h-1v.5h1m-1-1.99v.5h1v-.5h-1m1-1.99v-.5h-1v.5h1m-1-1.99v.5h1v-.5h-1m1-1.99v-.5h-1v.5h1m-1-1.99v.5h1v-.5h-1m1-1.99v-.5h-1v.5h1m-1-1.99v.5h1v-.5h-1m1-1.99v-.5h-1v.5h1m-1-1.99v.5h1v-.5h-1m1-1.99v-.5h-1v.5h1m-1-1.99v.5h1v-.5h-1m1-1.99V56h-1v.5h1m-1-1.98v.5h1v-.5h-1m1-2v-.5h-1v.5h1m-1-1.98v.5h1v-.5h-1m.5 190h.5v-1h-1v1zm0-2.98h.5v-2h-1v2zm0-3.98h.5v-2h-1v2zm0-3.98h.5v-2h-1v2zm0-3.98h.5v-1.99h-1v1.99zm0-3.98h.5v-1.99h-1v1.99zm0-3.98h.5v-1.99h-1v2zm0-3.98h.5v-1.99h-1v2zm0-3.98h.5v-1.99h-1v2zm0-3.98h.5v-1.99h-1v2zm0-3.98h.5v-1.98h-1v1.98zm0-3.97h.5v-2h-1v2zm0-3.98h.5v-2h-1v2zm0-3.98h.5v-2h-1v2zm0-3.98h.5v-2h-1v2zm0-3.98h.5v-2h-1v2zm0-3.98h.5v-1.99h-1v1.99zm0-3.98h.5v-1.99h-1v1.99zm0-3.98h.5v-1.99h-1v2zm0-3.98h.5v-1.99h-1v2zm0-3.98h.5v-1.99h-1v2zm0-3.98h.5v-1.99h-1v2zm0-3.98h.5V152h-1v1.98zm0-3.97h.5v-2h-1v2zm0-3.98h.5v-2h-1v2zm0-3.98h.5v-2h-1v2zm0-3.98h.5v-2h-1v2zm0-3.98h.5v-2h-1v2zm0-3.98h.5v-1.99h-1v1.99zm0-3.98h.5v-1.99h-1v1.99zm0-3.98h.5v-1.99h-1v2zm0-3.98h.5v-1.99h-1v2zm0-3.98h.5v-1.99h-1v2zm0-3.98h.5v-1.99h-1v2zm0-3.98h.5v-1.98h-1v1.98zm0-3.98h.5v-1.98h-1v1.98zm0-3.97h.5v-2h-1v2zm0-3.98h.5v-2h-1v2zm0-3.98h.5v-2h-1v2zm0-3.98h.5v-2h-1v2zm0-3.98h.5v-1.99h-1v1.99zm0-3.98h.5v-1.99h-1v1.99zm0-3.98h.5v-1.99h-1v2zm0-3.98h.5v-1.99h-1v2zm0-3.98h.5v-1.99h-1v2zm0-3.98h.5v-1.99h-1v2zm0-3.98h.5V56.5h-1v2zm0-3.97h.5v-2h-1v2z" />
    <path fill="var(--color-content-main, #151617)"
			d="M342.19 54.95v-3.27q0-.37-.15-.65a1 1 0 0 0-.45-.43q-.3-.15-.74-.15-.4 0-.72.14-.3.14-.48.37a1 1 0 0 0-.17.49h-1.08q0-.34.17-.67.18-.34.5-.6.35-.3.8-.44.47-.17 1.05-.17.69 0 1.21.24.54.24.84.7.3.48.3 1.19v2.95q0 .3.05.67.06.36.17.62v.1h-1.13a4.04 4.04 0 0 1-.18-1.08m.19-2.76v.76h-1.09q-.45 0-.83.08a2 2 0 0 0-.6.21q-.26.15-.38.37a1 1 0 0 0-.13.51q0 .3.14.55.13.25.4.39t.67.14a1.8 1.8 0 0 0 1.49-.73q.22-.3.24-.59l.47.52q-.04.25-.23.55a2.6 2.6 0 0 1-1.2 1.02q-.4.18-.92.18-.65 0-1.14-.25-.46-.26-.75-.68-.26-.42-.26-.95 0-.51.2-.9.2-.4.58-.65.38-.26.9-.4.52-.13 1.18-.13zM335.82 52.44v.88h-3.35v-.88zm-3.12-2.75v6.34h-1.08V49.7zm4 0v6.34h-1.09V49.7zM325.77 54.31l2.92-4.62h1.1v6.34h-1.1v-4.62l-2.92 4.62h-1.08V49.7h1.08zm2.33-6.92h.88q0 .45-.21.82-.21.35-.6.55-.4.2-.94.2-.81 0-1.29-.43-.45-.44-.46-1.14h.88q0 .35.2.61.2.27.67.27t.67-.27q.2-.25.2-.6M321.8 54.95v-3.27q0-.37-.14-.65a1 1 0 0 0-.45-.43q-.3-.15-.74-.15-.4 0-.72.14-.3.14-.48.37a1 1 0 0 0-.17.49h-1.08q0-.34.17-.67a2 2 0 0 1 .5-.6q.35-.3.8-.44.47-.17 1.05-.17.69 0 1.22.24t.83.7.3 1.19v2.95q0 .3.06.67.06.36.17.62v.1h-1.14a4.04 4.04 0 0 1-.17-1.08m.2-2.76v.76h-1.09q-.45 0-.82.08-.37.06-.61.21-.26.15-.38.37a1.12 1.12 0 0 0 0 1.05q.15.25.41.4.28.14.68.14a1.8 1.8 0 0 0 1.48-.73q.23-.3.24-.59l.47.52q-.04.25-.23.55a2.6 2.6 0 0 1-1.2 1.02q-.4.18-.92.18-.64 0-1.13-.25-.48-.26-.75-.68t-.27-.95q0-.51.2-.9.2-.4.58-.65.38-.26.9-.4.52-.13 1.18-.13zM314.34 53h-1.16v-.67h1.08q.45 0 .71-.1.26-.14.38-.33a1 1 0 0 0-.02-.94 1 1 0 0 0-.4-.36q-.27-.14-.74-.14-.38 0-.68.13t-.49.36a1 1 0 0 0-.17.5h-1.08q0-.57.32-1 .34-.41.89-.64t1.21-.23q.56 0 .99.12.44.12.74.35.3.24.46.58t.17.79q0 .32-.16.6-.14.3-.44.52-.28.21-.7.34-.4.12-.9.12m-1.16-.4h1.16q.57 0 1 .1.45.1.73.32.3.2.44.52.15.3.15.7a1.7 1.7 0 0 1-.68 1.4q-.33.26-.79.38a3.6 3.6 0 0 1-2.2-.08q-.57-.21-.95-.65a1.7 1.7 0 0 1-.37-1.13h1.08q0 .28.18.54.19.26.5.42.34.16.76.16.45 0 .76-.15.3-.13.46-.37t.16-.51q0-.36-.14-.57a1 1 0 0 0-.44-.32q-.28-.1-.73-.1h-1.08zM306.22 54.31l2.93-4.62h1.09v6.34h-1.1v-4.62l-2.92 4.62h-1.08V49.7h1.08zM298.95 49.7h1.09l-.1 2.36q-.03.9-.2 1.56t-.44 1.12q-.26.45-.59.77-.32.3-.67.52h-.54l.03-.88h.23l.37-.48a3 3 0 0 0 .59-1.4q.1-.5.13-1.2zm.27 0h3.81v6.33h-1.08V50.7h-2.73zm-1.96 5.44h6.59v2.76h-1.08v-1.87h-4.43v1.87h-1.09zM294.08 56.15q-.67 0-1.2-.22a2.7 2.7 0 0 1-1.51-1.62q-.2-.55-.2-1.23v-.24q0-.78.22-1.38.24-.6.62-1.03a2.65 2.65 0 0 1 3.1-.62q.5.23.81.65t.47.99.15 1.23v.49h-4.73v-.89h3.65v-.08a3 3 0 0 0-.18-.82q-.14-.4-.47-.66-.31-.26-.87-.26a1.5 1.5 0 0 0-1.22.62q-.22.3-.34.74-.12.45-.13 1.02v.24q0 .45.13.85.12.4.37.7.24.3.59.46t.8.17q.57 0 .97-.23t.7-.63l.65.52q-.2.3-.52.6-.32.28-.78.45-.46.18-1.08.18M285.8 50.91v7.56h-1.1v-8.78h1zm4.26 1.9v.12q0 .7-.16 1.28-.16.6-.48 1.02a2.2 2.2 0 0 1-1.82.92q-.6 0-1.06-.2a2 2 0 0 1-.79-.58 3 3 0 0 1-.52-.91 5 5 0 0 1-.25-1.2v-.66q.06-.71.26-1.26.2-.56.51-.95.32-.4.78-.6.46-.22 1.05-.22t1.06.24.78.65.48 1.03.16 1.32m-1.09.12v-.12q0-.47-.1-.9a2 2 0 0 0-.3-.73 1.5 1.5 0 0 0-1.3-.7q-.41 0-.72.15-.3.14-.5.38-.22.24-.35.54t-.2.62v1.52q.13.4.33.77.21.36.56.58t.89.22q.44 0 .76-.18.32-.2.52-.51.22-.33.31-.74.1-.42.1-.9M276.42 49.7v6.33h-1.09V49.7zm4.16 0-3.01 3.62h-1.52l-.16-.95h1.24l2.13-2.68zm-1.17 6.33-2.33-2.87.7-.78 3 3.65zM271.5 55.26q.38 0 .7-.16.33-.16.55-.43.21-.29.24-.64h1.03q-.03.55-.38 1.05a2.6 2.6 0 0 1-2.15 1.07q-.71 0-1.24-.25-.54-.25-.88-.7a3 3 0 0 1-.52-1 4 4 0 0 1-.17-1.22v-.24q0-.64.17-1.2.17-.6.52-1.02.34-.45.88-.7a3 3 0 0 1 1.24-.25q.75 0 1.3.3.57.3.88.83.32.51.35 1.17h-1.03q-.04-.4-.22-.7-.2-.33-.52-.51-.32-.2-.76-.2-.49 0-.83.2-.34.19-.54.53-.2.33-.28.73a4 4 0 0 0-.08.82v.24q0 .43.08.82.09.4.28.74t.53.52.84.2M265.13 55.38l1.76-5.69h1.16l-2.54 7.32a4 4 0 0 1-.6 1.03 1.7 1.7 0 0 1-1.29.55l-.32-.03-.28-.06-.01-.88a3 3 0 0 0 .92-.08 1 1 0 0 0 .43-.32q.19-.22.31-.61zm-1.3-5.69 1.65 4.92.28 1.15-.78.4-2.33-6.47zM260.64 49.7v.89h-3.2v-.9zm-3.04 0v6.33h-1.09V49.7zm4 0v6.33h-1.09V49.7zM253.63 54.95v-3.27q0-.37-.15-.65a1 1 0 0 0-.45-.43q-.3-.15-.74-.15-.4 0-.72.14-.3.14-.48.37a1 1 0 0 0-.17.49h-1.08q0-.34.17-.67.18-.34.5-.6.35-.3.8-.44.47-.17 1.05-.17.69 0 1.22.24t.83.7.3 1.19v2.95q0 .3.06.67.05.36.17.62v.1h-1.13a4.05 4.05 0 0 1-.18-1.08m.19-2.76v.76h-1.09q-.46 0-.82.08-.37.06-.61.21-.26.15-.38.37a1.11 1.11 0 0 0 0 1.05q.14.25.41.4.28.14.68.14a1.8 1.8 0 0 0 1.48-.73q.22-.3.24-.59l.47.52q-.04.25-.22.55a2.6 2.6 0 0 1-1.2 1.02q-.42.18-.93.18-.64 0-1.13-.25-.48-.26-.75-.68t-.27-.95q0-.51.2-.9.2-.4.58-.65.38-.26.9-.4.52-.13 1.18-.13zM245.54 51.94h-1.01v-.73h.97q.65 0 1.04-.18.4-.18.59-.5.18-.33.18-.74t-.2-.74q-.2-.34-.62-.54-.41-.2-1.07-.2-.49 0-.9.18-.4.19-.62.51-.24.32-.24.74h-1.13q0-.54.23-.97.23-.45.63-.75t.92-.47q.52-.17 1.11-.17.69 0 1.24.16.56.15.96.46.4.3.6.75.22.45.22 1.05 0 .44-.2.83t-.6.68q-.37.3-.9.46-.54.17-1.2.17m-1.01-.5h1.01q.72 0 1.29.14.56.15.94.43.39.28.6.7t.2.94q0 .6-.24 1.06t-.65.79-1 .48a4.6 4.6 0 0 1-2.35.03q-.54-.15-.97-.45t-.7-.77a2.3 2.3 0 0 1-.25-1.13h1.13q0 .43.23.79t.67.57q.41.21.98.21.65 0 1.09-.2t.69-.55.24-.8q0-.4-.13-.68-.12-.3-.37-.48a2 2 0 0 0-.6-.28 3 3 0 0 0-.84-.1h-.97z" />
	</g>
</svg>
