<svg xmlns="http://www.w3.org/2000/svg" xml:space="preserve" overflow="visible" viewBox="0 0 510 220">
  <path fill="#d01b1f" d="M0 99.5v81.9h81.9V99.5zm63.7 66.3h-9.4v-41.3H28v41.3h-9.4v-50.6h45.1zM87 99.5v81.9h82V99.5zm63.8 66.3h-9.2v-41.3h-19l-.8 16.6c-.2 5.4-1 10.1-1.9 13.6a15.3 15.3 0 0 1-5.2 8.3c-2.4 1.9-5.8 2.7-10.2 2.7h-2.6v-7h1.6c2.2-.1 4-.8 5.4-2 1.3-1.3 2.2-3.5 2.9-6.3.6-2.9 1.1-6.8 1.2-11.6l1-23.5h36.9zm23.3-66.3v81.9H256V99.5zm64.3 66.3H229V145h-27.9v20.8h-9.4v-50.6h9.4v20.6H229v-20.6h9.4z"/>
  <path fill="#9c9e9f" d="M315.3 38c-30.2 2-56.9 16.2-75.4 37.4l34.6 30.4a63.5 63.5 0 0 1 111.1 37.3c1.2 17.6-5.1 34-16 46.2l34.6 30.4c18.7-21 29.4-49.4 27.4-79.6A109.6 109.6 0 0 0 315.3 38"/>
  <path fill="#d01b1f" d="m510 111.4-24.8.1-6.4-41.1 7.5-.5-47-36.6-46.3 37 7.3.1-3.3 12.1-25.4-7.8.1-25.2c4.5-5.2 6.6-10.1 6.4-14.3-.3-6-5-10.2-10-14.6C362 15.2 356.3 9.7 356 .1h-3.4c.3 9.1-6.9 14.9-12.6 20.3-4.8 4.6-9.3 8.9-9.4 14.9 0 4.4 2.4 8.9 7.7 14.1l-.1 25.9-24 9.2v102.2H0v4.1h318.4V87.2l24-9.2.1-30.4s-7.8-6.2-7.6-12.4c.1-4.2 3.7-7.8 8.1-11.9 3.9-3.7 8.9-8 11.3-13.7a43.6 43.6 0 0 0 11.2 13.9c4.5 4 8.6 7.5 8.7 11.7.1 6.5-6.4 12.3-6.4 12.3l-.2 29.9 32.2 10 6.2-22.3 33.5-26.9L474 65.1l7.8 50.3 28.2-.1z"/>
  <path fill="#111" d="M274.5 166.1V115h32.7v7.7h-23.5v13.9H305v7.7h-21.2V166h-9.3zm39.7-51.2h11.3l15.2 37.1h.6l15.2-37.1h11.3V166H359v-35h-.5l-14.1 35h-6.7l-14.1-35h-.5v35.2h-8.9z"/>
</svg>
