<svg xmlns="http://www.w3.org/2000/svg" fill="none" viewBox="0 0 32 32">
  <path d="M12.42 31c-4.33 0-8.61-1.68-10.87-5.63-1.74-3.04-2.02-6.59-.81-10.26C2.57 9.53 7.96 3.83 13.84 1.25c4.53-1.99 8.88-1.6 11.94 1.08a9.5 9.5 0 0 1 2.82 9.7 18.5 18.5 0 0 1-13.66 12.94c-3.73.82-6.42-.02-7.99-2.49-2.49-3.91.61-9.35 4.8-13.01 3.17-2.77 7.46-4.94 10.03-2.74a3.9 3.9 0 0 1 1.32 4.22c-.72 2.3-3.4 4.01-6.84 4.36l-.35-3.46c2.34-.24 3.68-1.27 3.89-1.93.03-.1.08-.25-.26-.54s-2.53.12-5.51 2.71c-2.98 2.61-5.45 6.48-4.15 8.51.35.55 1.07 1.68 4.34.97a15.2 15.2 0 0 0 11.06-10.48 6 6 0 0 0-1.76-6.14c-2.01-1.75-5.02-1.94-8.27-.51C10.2 6.65 5.6 11.49 4.05 16.2q-1.35 4.14.52 7.43c2.61 4.56 8.84 4.37 12.39 3.12 5.14-1.8 7.95-4.48 11.34-8.78l2.72 2.16c-3.61 4.59-7.03 7.84-12.92 9.91-1.78.62-3.72.96-5.66.96Z"/>
  <style>
        path { fill: #000; }
        @media (prefers-color-scheme: dark) {
            path { fill: #FFF; }
        }
    </style>
</svg>
