<svg xmlns="http://www.w3.org/2000/svg" viewBox="0 0 73.05 100"><path d="M2.49 66.55c-.25-.19-.77-.55-1.06-.81-.34-.49-3.01-1.92-.06-4.56 2.21-1.98 6.53-1.96 9.49-1.94.42 0 .68-.46.45-.81-.91-1.43-3.5-3.84-5.25-4.93a1.42 1.42 0 0 1-.42-2.04c.34-.46.7-.65 1.86-1.03.77-.25 5.89-.21 6.96-.37a5.55 5.55 0 0 0 1.38-.34.54.54 0 0 0 .12-.91 7.23 7.23 0 0 1-1.69-2c-.74-1.94.08-2.55 2.01-3.67 3.14-1.82 6.94-1.15 10.32-1.15 0 2.52-14.53.39-10.14 4.86 2.56 2.61 1.36 4.19-3.09 4.38-1.17.05-6.48-.78-6.97.86-.69 2.33 12.45 7.36 3.73 8.51-2.77.36-5.82-1.23-8.22 1.15s.1 3.22 2.18 4.44c9.23 5.43 22.36 3.8 32.2.01 4.91-1.89 10.51-3.22 14.9-6.22 2.25-1.54 4.44-3.72 4.94-6.52.71-3.96-2.13-4.91-4.49-7.26 3.72.83 3.87 4.28 7.96 3.66 1.42-.21 6.31-3.26 6.77-.5-3.02-.34-5.74 1.46-8.72 1.66a.53.53 0 0 0-.5.56c.44 10.75-18.53 15.33-26.24 17.25-9 2.25-20.25 2.7-28.41-2.28ZM55.1 19.09l.02.08c1.5 4.6 3.35 8.99 4.91 13.61.8 2.38 1.13 4.85.14 6.27-.24.34-.37.27-.19-.09 1.57-3.17-2.46-10.36-3.3-12.86-1.59-4.71-2.43-9.62-5.41-13.66A31.35 31.35 0 0 0 36.95 1.91c-2.17-.76-5.57-2.17-5.76.61-.08 1.13 1.14 2.92 1.75 3.99.1.17.07.36 0 .54-.17.38-.07 1.05-.24 1.05 1.47 1.47-1.37 2.39-1.89 2.67-2.37 1.27-4.2 1.35-2.39 4.3 1.22 1.98 3.8 2.48 4.22 4.62a.53.53 0 0 1-.47.63c-1.9.14-4.57 1.01-4.15 3.19.32 1.68 3.18 1.97 4.02 3.07.22.28.07.7-.27.81-5.13 1.61 4.08 5.01 4.08 7.43-1.2 0-4.02-2.74-4.76-3.61-1.27-1.49-1.4-.93-1.5-2.91-.03-.7.31-.89.68-1.03.41-.15.48-.71.11-.94-1.36-.86-3.14-1.05-3.07-3.27s2.25-2.57 4.08-3.3a.54.54 0 0 0 .2-.87c-1.64-1.72-4.8-3.36-4.42-5.96.31-2.08 3.17-3.54 4.38-4.14a.52.52 0 0 0 .23-.72c-.91-1.63-3.17-7.02.2-7.92 3.76-1 9.36 3.02 12.34 4.88 4.83 3.01 10.01 8.06 10.79 14.05ZM11.12 19.18c3.93-.51 8.37 2.52 11.28 6.27 1.38 1.78 5.66 6.55 5.66 7.7a60.1 60.1 0 0 0-11.15-11.99c-.85-.67-5.12-2.46-5.89-.84s2.78 3.12.21 4.42c-1.42.71-7.47-2.88-7.58 1.38-.06 2.24 6.4 2.46 4.01 4.72-1.37 1.29-6.9-.99-4.84 2.74 2.43 4.41 19.88 2.44 18.94 7.15 0-2.89-13.59-3.41-15.57-4.03-1.61-.51-4.86-2.51-4.75-4.5.14-2.49 4-2.08 4.43-2.06s1.02-.17 1.16-.35c0-1.74-5.36-.85-4.37-4.33.87-3.04 5-2.31 7.65-2.05.44.04.72-.43.5-.81-.76-1.26-1.54-3.31.32-3.41Z"/><path d="M68.18 47.87c.21-4.39-2.68-4.45-5.98-5.51-1.66-.53-4.98-3.23-6.16-2.06 2.8 1.94 6.92 2.06 9.43 3.91 1.23.91 2.5 6.55 3.4 5.35-.55-.55-.77-.91-.7-1.69Z"/><path d="M65.91 46.06c0 .48-.49.99-.99.97-.49-.01-.82-.46-.57-.9.27-.52 1.28-.89 1.54-.21l.02.15ZM72.45 62.31l-1.37.34-.09-.49c.24-.07.77-.2 1.22-.35.15-.05.18-.52-.02-.58-.23-.06-.42.03-.65.08l-.64.16h-.02l-.09-.52c.28-.15.57-.27.88-.35.2-.06.48-.24.41-.49-.07-.24-.4-.27-.6-.22-.28.08-.56.18-.83.3l-.85-4.8a.54.54 0 0 1 .31-.57 3.04 3.04 0 0 0-.66-5.57c-.26-.08-1.17.33-.83.43.94.28 1.71.96 1.99 1.92a2.81 2.81 0 0 1-.2 2.01c-.31.63-.51.68-1.24.82-.76.14-.86.14-1.44-.25a5.66 5.66 0 0 1-1.55-1.66c-.25-.49-.31-1-.26-1.54.08-.83.46-1.05 1.18-1.36.66-.29.04-.48-.37-.3-.55.24-1.31.42-1.63.96-.43.74-.26 1.95.13 2.65a4.45 4.45 0 0 0 3.04 2.22c.24.03.45.2.49.44l1.33 7.52c.01.08.12.21.12.23.05.18.46.09.56.07l1.82-.45c.12-.03.5-.16.45-.34-.05-.18-.48-.33-.59-.3ZM6.34 92.83H2.55L1.42 100H.68l3.13-20.09h1.26L8.2 100h-.74l-1.13-7.17ZM4.66 82.08l-.22-1.62-.22 1.62-1.54 10.01H6.2L4.66 82.08ZM13.17 90.27c-.11-.91-.36-.96-.74-.96H10.4V100h-.74V79.91h4.07c.88 0 1.46.63 1.46 1.65v6.1c0 .99-.58 1.65-1.51 1.65.14.27.19.58.22.88l1.35 9.81h-.71l-1.35-9.73Zm1.29-2.61v-6.1c0-.33-.11-.91-.74-.91h-3.33v7.92h3.33c.63 0 .74-.58.74-.91ZM20.32 100h-.74V80.65h-3.02v-.74h6.82v.74h-3.05V100ZM34.7 99.26v.74h-5.14V79.91h5.14v.74h-4.4v7.92h4.43v.74H30.3v9.95h4.4ZM36.6 98.35h.74c0 .33.11.91.74.91h2.58c.63 0 .74-.58.74-.91 0-5.55-1.29-7.5-2.56-9.37a11.56 11.56 0 0 1-2.25-6.79c0-1.62.33-2.28 1.48-2.28h2.58c.91 0 1.48.63 1.48 1.65h-.74c0-.33-.11-.91-.74-.91h-2.58c-.69 0-.74.55-.74 1.26 0 3.41 1.24 5.36 2.12 6.65.19.3 2.69 3.38 2.69 8.93 0 1.84-.27 2.5-1.48 2.5h-2.58c-.91 0-1.48-.63-1.48-1.65ZM47.52 100h-.74V80.65h-3.02v-.74h6.82v.74h-3.05V100ZM55.74 92.83h-3.79L50.82 100h-.74l3.13-20.09h1.26L57.6 100h-.74l-1.13-7.17Zm-1.68-10.75-.22-1.62-.22 1.62-1.54 10.01h3.52l-1.54-10.01ZM60.87 100h-.74V80.65h-3.02v-.74h6.82v.74h-3.05V100ZM70.68 99.26v.74h-5.14V79.91h5.14v.74h-4.4v7.92h4.43v.74h-4.43v9.95h4.4Z"/></svg>