<svg xmlns="http://www.w3.org/2000/svg" id="snow-city" viewBox="0 0 76.89 100"><defs><clipPath id="clippath"><path fill="none" d="M0 0h76.89v100H0z"/></clipPath><style>.cls-1{fill:#fff}</style></defs><g clip-path="url(#clippath)"><path d="m47.49 93.63-.06-.4h-.04c-.04-.51-.07-1.03-.12-1.54-.06-.52.18-.65.66-.63.75.04 1.5 0 2.25.01.36 0 .72.09 1.08.12.16.01.32-.02.5-.05l.91-.06c.26 0 .52-.02.78.01.12.01.24.1.34.18.03.02-.02.14-.04.23.02.05.08.14.08.22-.02.32-.02.64-.11.94-.04.12-.27.27-.42.27-.99.02-1.98.02-2.97 0-.18 0-.35-.11-.54-.13-.14-.01-.29.05-.56.1l-.03-.02.28 1.44c.31.06.67.2 1.03.2.63 0 1.25-.07 1.88-.1.08 0 .15.08.32-.02l1.6 1-.18.18c.09.13.22.26.27.41.08.24.15.49.16.74 0 .45-.02.9-.06 1.35-.05.51-.92 1.37-1.43 1.46-.69.11-1.37.26-2.05.35-.22.03-.45-.08-.68-.08-.83.02-1.65.08-2.48.1-.44.01-.74-.09-.49-.65.09-.21 0-.5-.01-.75-.03-.65-.06-1.31-.06-1.96 0-.11.14-.22.04-.31v-2.63h.16m4.6 2.55c-.1.01-.21.05-.31.04l-1.51-.13-.03.01-.85.04-.14 2.01c1.17-.23 2.3.28 3.19-.53.03-.14.11-.28.09-.41a4.36 4.36 0 0 0-.2-.81c-.03-.09-.15-.14-.23-.21Zm-4.73-1.09c.07 0 .12.02.2.03l-.09-.21-.11.19m.01 1.5v.04l.11.03.01-.04c-.04 0-.08-.02-.11-.03m1.44-5.39-.01-.01-.03.03.01.01.03-.03m4.86.49v.02h.03v-.02h-.02M22.93 91.41l-.07-.24.1-.06.18.26.02.02.09 1.73h-.09l.05.63-.06.02.07.53 1.7-1.68-.05-.06.52-.38c.39-.82.92-1.25 2.12-1.02a.56.56 0 0 0-.03.04l.9-.06c.07 0 .07 0-.02.5l-.47.53-1.11 1.24c-.32.36-.6.75-.93 1.1-.22.23-.65.41-.01.65.03.01.02.12.12.13l.48 1.13c.04.09.12.16.18.24l.44.59.95 1.52c.15.24.31.46.44.71.05.09.07.27.02.31a.58.58 0 0 1-.38.12c-.65-.05-1.3-.12-1.94-.21-.11-.02-.19-.19-.28-.29l.02-.03-.02.02-1.34-2.26c.02 0 .03 0 .04-.02l-.56-.76c-.19.18-.49.37-.68.63-.47.66.05 1.38-.06 2.08-.1.66-.46 1.01-1.16.87-.14-.03-.3 0-.45 0-.47 0-.63-.27-.49-.73.06-.19-.06-.43-.06-.65 0-1.5 0-3 .05-4.5.02-.6.18-1.19.27-1.78 0-.06-.05-.13-.07-.2l-.09.07-.15-.73.99-.2c.21-.04.43-.09.64-.09.04 0 .08.22.13.34l.06-.07ZM29.5 99.87l-.21-1.41c.83-.25 1.08-.79 1.07-1.55 0-.48.16-.97.21-1.45.03-.28-.02-.56-.02-.84 0-.06.04-.12.02-.06.08-1.1.15-2.07.24-3.05 0-.06.13-.12.24-.22l.05-.18 2.37.13v-.12c.36.02.72.05 1.09.06.26.01.51.03.77.03.34 0 .67-.03 1.01-.05.08 0 .15-.04.22-.03.69.03.33.55.38.85.04.29-.03.6-.08.9l.12 2.44-.31-.21.22.41v1.78h.08c-.04.8-.04 1.61-.15 2.4-.02.12-.51.18-.71.25-.45-.04-1.06.01-1.09-.1a4.7 4.7 0 0 1-.1-1.76v-2.88h.01l-.06-1.35h.17c-.06-.18-.09-.39-.2-.54a.72.72 0 0 0-.42-.26 5.75 5.75 0 0 0-1.17-.13c-.51.02-.59.42-.61.84-.03.67-.04 1.33-.08 2 0 .08-.09.16-.12.25a.7.7 0 0 0 0 .57c-.04.49-.16.98-.11 1.46.1 1.01-.89 2.06-1.91 1.95l-.9-.09-.01-.02m1.22-5.22.03-.02-.03-.07-.03.02.03.07M40.58 96.53l-.21-.52-.36-.62-2.02-3.99.27-.19.01-.02 1.41-.07-.01.07c.11-.04.24-.14.33-.11.13.04.3.14.35.25.14.32.21.66.34.99.03.07.16.1.25.15l.02-.02c.09.29.16.6.28.88.11.25.32.45.45.69.17.33.31.68.46 1.03l.36-.1-.04-.19-.11.16-.1-.05 1.25-2.57c.18-.25.42-.89.88-1.14.44-.24 1.1-.06 1.67-.05.03 0 .05.1.08.16-.03.19-.03.39-.1.57-.07.2-.21.38-.31.57l-1.51 3.13c-.5 1.05-.99 2.11-1.5 3.15-.61 1.24-1.18 1.5-2.75 1.14l.38-.96.7-1.39-.47-.98m.68 1.04-.03-.02h-.02l.01.03c.01 0 .02 0 .03-.02m-1.26-6.3h-.02l.01.01ZM44.62 86.01c.28.37.69.68.75 1.05.09.49.03 1.09-.19 1.53-.2.41-.69.69-1.14.91l-1.31.2-.02-.1h-.36c-.29.03-.49.08-.68.06-.32-.02-.63-.09-.95-.11-.32-.01-.65.05-.96.01-.12-.01-.31-.22-.3-.33.04-.51.16-1.02.2-1.54.01-.16-.17-.33-.18-.51-.02-.61 0-1.22 0-1.85l.14-.05-.03-.22h-.05v-.8h-.02v-.8h-.03c.02-.26 0-.52.08-.76.03-.08.29-.11.45-.11.7 0 1.4 0 2.1.04.58.02 1.17.04 1.73.15.26.05.5.31.72.5.22.18.41.39.6.61.04.05-.03.18-.02.27.02.12.12.25.1.35-.14.46-.3.92-.47 1.37-.03.09-.15.14-.14.13m-3.49 2.12h1.96l-.02.07.33-.07.66-.34c-.17-.43-.34-.97-.96-.93-.83.06-.95-.37-.85-1.03v-.08c.13-.14.27-.39.41-.39.58 0 .95-.19.96-.91l-.34-.3h-1.92c-.08 0-.22.09-.22.14v1.29l-.01 2.52ZM18.6 88.4l.14.34-.1-.7h-.18l.3-.88-.08-.03.1-.07-.24-.38.1-.12v-2.34h-.06c0-.33.06-.68-.01-.99-.12-.5.06-.65.53-.6.36.04.72.05 1.04.08v3.95l2.35-3.74.05.03c.03-.08.06-.23.1-.24.2-.03.4-.03.61-.02.21.01.43.02.64.08.14.04.35.15.35.24.02.46 0 .92-.03 1.38 0 .06-.1.12-.05.06l.07.92-.14.04-.02.17h.09v4.01c-.52 0-1.06 0-1.6-.02 0 0 0-.34.02-.52v-3.24l-.52.19.18.27c-.31.42-.69.86-1.01 1.35-.26.41-.41.91-.69 1.3-.22.3-.57.51-.87.75-.04.03-.16-.04-.24-.01-.19-.03-.41 0-.58-.09-.54-.25-.15-.77-.25-1.16m5.53-.5v.02-.02ZM68.55 86.62l1-1.5-.09-.04c.13-.2.24-.44.41-.6.19-.18.44-.3.61-.42l-.1-.21c.19-.41.33-.73.5-1.04a.39.39 0 0 1 .3-.17c.35-.01.7 0 1.05.02.13 0 .35.08.35.14a.6.6 0 0 1-.07.3v4.87l.16 1.59c-.53.04-.97.11-1.41.1-.12 0-.34-.22-.35-.35-.03-1.03-.02-2.06-.02-3.09v-.49l-1.05 1.73c-.4.66-.8 1.32-1.23 1.97a.6.6 0 0 1-.44.24c-.43.02-.86-.03-1.18-.04v-.99h-.12l.23-1.5-.16-.04v-3.29l-.05-.04.18-.03c-.05-.28-.11-.56-.13-.85 0-.08.13-.22.22-.23.26-.03.53 0 .79-.02.48-.04.65.15.62.64-.04.73-.01 1.46-.01 2.19v1.16ZM6.66 83.91l-.06 1.18c.18.28.47.23.89.14.49-.11 1.03.02 1.54.07.07 0 .13.15.18.21l.05-.15.52.21c.76.38 1.29 1.75.81 2.14l.26.31c-.39.45-.72 1.05-1.23 1.35-.5.29-1.18.26-1.83.3-.46-.07-.91-.16-1.37-.2-.17-.02-.35.07-.53.1l-.87.11c-.03-.24-.08-.48-.08-.71-.02-.68-.04-1.35-.03-2.03 0-.49.08-.98.1-1.48 0-.14-.06-.29-.07-.32l.09-.91h-.04c-.02-.34-.06-.68-.05-1.01.01-1 .82-.47 1.24-.56.5-.11 1.06.03 1.6.07.45.03.89.08 1.34.07.22 0 .44-.17.65-.16.12 0 .32.2.34.33.05.31.07.65-.02.94-.04.12-.38.2-.59.21-.52.03-1.04 0-1.56 0-.05 0-.1-.06.02.02-.45-.05-.74-.08-1.03-.13-.09-.01-.18-.06-.27-.09Zm2.24 4.17-.05-1.25-2.21-.24v1.03c.01.26.05.51.07.66h1.1l-.02-.06 1.1-.14Zm.61-2.49h-.02.02m-1.55-1.61V84l.02-.01-.01-.01h-.02M63.76 83.45l.03-.38.12.06c.12-.17.22-.45.36-.48.38-.07.79-.02 1.19-.02l.01.24.1.04-.08.22c.04.31.11.63.12.94.02.56.03 1.12 0 1.68 0 .21-.17.43-.16.64.03.95.11 1.89.16 2.84 0 .13-.06.26-.1.41h-1.56l.05-1.13c.07.09.03.04.02.02l-.13-2.82c-.3.49-.52.88-.76 1.25-.37.58-.74 1.16-1.15 1.71-.24.33-.51.69-.85.87-.29.15-.72.12-1.06.04-.11-.03-.18-.45-.18-.69 0-.55.1-1.1.1-1.65 0-.49-.09-.99-.1-1.48 0-.28.11-.56.12-.85.02-.46 0-.93-.01-1.39v-.78l1.48-.09v3.75l-.02-.01 1.18-.47-.29-.31.05.07c.09-.96.72-1.59 1.34-2.23l.02-.02M31.6 89.96l.16.33.21-.05c-.12.14-.22.38-.36.4-.36.05-.73.03-1.1 0-.07 0-.17-.23-.17-.35 0-.49.03-.96-.69-.71-.09.03-.18.1-.26.1h-3.41c-.28 0-.56.02-.45-.41.01-.04-.05-.1-.01-.03v-5.03l-.02.01-.07-.78h.07v-.19h-.04c0-.15-.04-.32.02-.44.04-.08.23-.1.35-.11.38-.01.76-.02 1.14 0 .07 0 .18.17.18.26-.02.6-.07 1.2-.08 1.8 0 .41.06.83.06 1.24v2.27c.42 0 .97-.04 1.51.01.77.08.73-.35.7-.89-.03-.49.1-.98.13-1.48.03-.47 0-.94 0-1.45l-.12-.05c0-.09-.03-.19-.03-.29v-.67c0-.85.29-1.03 1.06-.66h.04c.73-.16.55.36.55.73v3.42l-.19.06.02.09c.06.28.1.57.2.83.04.11.24.22.37.22.4 0 .52.11.44.53-.08.41-.05.85-.07 1.27l-.15.03m-4.38-1.51v-.03h-.05v.03h.05m-1.52.08h.01-.02ZM16.81 88.82c-.68 1.2-2.76 1.24-3.81.69-.56-.3-1.14-.64-1.27-1.41l-.12-1.22.05-.02.07-1.05c.01-.2.07-.42.02-.59-.42-1.31.77-2.38 1.91-2.6l1.16-.12c.57-.06 1.65.32 1.93.86.21.41.43.81.6 1.24.06.15-.06.35-.05.53.03.67.12 1.35.1 2.02 0 .44-.13.88-.25 1.31-.04.13-.23.22-.35.32l-.02.03.02.03m-3.56-3.15c.04.14.12.28.13.42.04.51-.03 1.04.11 1.51.11.36.48.65.79 1.04l.14-.34c.93.06 1.28-.55 1.43-1.38.05-.04.06-.13.05-.22-.05-.46-.19-.93-.13-1.38.07-.57-.15-1.11-.69-1.27-.15-.04-.31-.13-.45-.1-.32.07-.77.1-.93.31-.22.3-.21.76-.31 1.15-.02.09-.08.17-.13.26m3.4-2.3h.01v-.01ZM36.04 82.64c.59-.07.99.25 1.47.56.87.56.84 1.33.83 2.15 0 .04-.05.09-.08.13.03.36.09.71.09 1.06 0 .51-.04 1.02-.08 1.53 0 .08-.08.16-.12.24l-.02.02-.12.27.02.02c-.36.7-1.68 1.34-2.47 1.21-.22-.04-.46.02-.67-.03-.34-.09-.67-.24-1.12-.41l.16-.1c-.27-.13-.51-.17-.63-.31-.18-.2-.27-.47-.4-.71-.65-1.18-.09-2.38-.11-3.57-.01-.77.2-1.34.86-1.71.41-.23.82-.4 1.33-.23.18.06.45-.16.68-.2.11-.02.24.07.36.1Zm.73 5.04v-.29c-.04-.73-.1-1.47-.11-2.2 0-.8-.34-1.11-1.58-1.12-.24 0-.59.54-.71.89-.16.46-.15.97-.19 1.47-.01.15.05.31.07.41v.75c.27.19.65.64 1.09.73.4.07.87-.26 1.31-.41l-.06-.18.19-.06m1.17.61v.03h.06v-.03h-.06M55.35 84.75l.57-.77c.23-.19.42-.33.57-.5.18-.2.31-.44.48-.65.05-.07.16-.1.24-.14l.03-.04-.02.05c.39 0 .78 0 1.16.03.19.01.39.08.57.14.02 0 0 .1 0 .15l-.73.76-1.65 1.82a4 4 0 0 0 .17.29l.02-.01.31.46.34.54-.02.01 1.4 2.29c-.04.08-.02.04 0 0h.01c.21.33.19.54-.29.5-.37-.03-.79.09-1.09-.05a2.4 2.4 0 0 1-.85-.83c-.43-.62-.8-1.28-1.21-1.92-.02-.03-.15-.03-.18 0-.32.42-.57.88-.52 1.44.03.37.04.75.04 1.13 0 .08-.11.22-.17.22-.43.01-.86.03-1.27-.05-.12-.02-.24-.36-.25-.55-.03-.56-.01-1.13 0-1.7 0-.1.09-.19.09-.2v-3.36l-.15-1.05 1.18.17.12-.11-.26-.15c.19 0 .41-.03.62.02.06.01.1.24.1.37l-.03 1.11c0 .05-.06.1-.06.1l.08.97a.86.86 0 0 0 .16-.1l.48-.38Zm-.69.57v.01-.01m.5.11-.01-.03-.25.08.03.07.23-.11M50.73 82.81l.57.44.49.53.23.56c-.06.17-.12.46-.18.46-.47 0-.93-.05-1.4-.09-.44-.8-1.13-.84-1.87-.53-.22.09-.41.4-.47.65-.08.32.02.69 0 1.03-.02.31-.11.61-.19 1.02.03.06.16.27.19.49.08.58.63 1.04 1.22.93.27-.05.54-.16.8-.25.16-.28.29-.75.49-.79.42-.09.89.06 1.34.11l-.16.69c-.02.11-.03.22.09.43l-.86.7-.01.12c-.26.13-.56.38-.86.39a8.8 8.8 0 0 1-2.24-.13c-.35-.08-.56-.63-.92-.82-.49-.26-.59-.64-.61-1.11l.02-.01.23-.08-.37-.04.28-.11-.22-2.38h.1v-.3l.21-1 .38-.03-.17-.15c.55-.87 2.76-1.37 3.66-.84l.24.12Zm.95.99v-.01l-.01.01.01.01h.01" class="cls-1"/><path d="m22.07 80.71-.58 1.92.15-.06-.17.55-.43-.71-.63-1.87.85.11.99-.32-.16.37-.02.02M70.45 81.14l-.35.95c-.12.36-.21.73-.32 1.1 0 .03-.03.05-.07.11l-.3-1.21-.05.02-.34-1.1-.14-.44c.14-.01.28-.04.41-.03.15.01.3.05.45.08l-.21.25.08-.25.02.03 1.05-.27-.23.75.03.05-.03-.04m-1.04.66v-.02ZM42.5 82.64l.03-.02.02.04-.03.01-.02-.03M34.96 82.65l-.01.03c-.01 0-.03 0-.03-.02l.01-.03.03.02M29.52 99.9l-.07.03-.01-.03.07-.02.01.02M63.74 83.47l-.05-.03.01-.02c.02 0 .03.02.05.03l-.02.02M31.86 90.08h.01v.01l-.02-.01h.01M29.72 89.61h-.02v-.02h.02v.01M66.93 83.63v-.01l.02-.01v.02h-.01M40.94 92.47l-.03-.04.02-.02.03.04-.02.02M31.02 83.72v-.01l.02-.01v.02h-.01M49.74 94.35h.02v.02h-.01v-.01M21.71 82.36v.01h-.01l.01-.02v.01" class="cls-1"/><path d="M21.58 82.46h.02v.02h-.02v-.01M26.56 96.59h-.02v-.02h.01v.01M63.98 87.99v.02h-.02v-.02h.01M26.12 99.74h.02v.02h-.02v-.01M42.45 82.74h.01v.01l-.02-.01h.01M46.4 85.1h.01v.01l-.01-.01zM4.94 85.35h-.01v-.01l.01.01zM20.75 85.67l.01-.01v.01h-.01zM69.12 85.71h.01-.01zM22.19 86.04h-.01v-.01l.01.01zM47.98 86.64h.01v.01l-.01-.01zM59.92 86.65l-.01-.01h.01v.01zM63.94 87.29v.01l-.01-.01h.01zM46.48 87.37h.01v.01l-.01-.01zM67.01 87.41h.01v.01l-.01-.01zM46.38 87.64l-.01-.03.03.01-.02.02M22.09 80.69l.01.03-.03-.01.02-.02M69.33 82.13l.01.01h-.01v-.01zM72.57 88.06h.01v.01l-.01-.01zM39.54 88.1h.01v.01l-.01-.01zM72.58 88.18v.01h-.01l.01-.01zM38.16 88.32l.01.03-.03-.01.02-.02M53.7 82.71l.01-.01v.01h-.01zM66.9 88.5v.01h-.01l.01-.01zM38.02 88.6l.03-.01-.01.03-.02-.02M16.81 88.77v.05l-.02-.03.02-.03M47.05 88.91h.01v.01l-.01-.01zM58.79 89.19l-.01-.03.03.01-.02.02M33.96 82.83h-.02l.01-.01.01.01zM25.47 89.23v.01h-.01l.01-.01zM51.11 89.25v-.01h.01l-.01.01zM25.46 89.32h.01v.01l-.01-.01zM66.9 89.36v.01l-.01-.01h.01zM18.6 89.44h.01v.01l-.01-.01zM44.01 82.82l.01.01h-.01v-.01zM61.38 89.52v.01h-.01l.01-.01zM7.81 89.56h.01v.01l-.01-.01zM7.58 89.61h-.01v-.01l.01.01zM29.82 89.61h-.01v-.01l.01.01zM69.57 82.91h.01v.01l-.01-.01zM38.25 91.1v.01h-.01l.01-.01zM47.35 83.03l-.02.01.01-.01h.01zM39.47 83.15l-.01.01v-.01h.01zM51.4 91.14v.01h-.01l.01-.01zM51.76 91.14l.01.01h-.01v-.01zM38.26 91.21l-.01-.03.03.01-.02.02M51.76 91.24v-.02l.01.01-.01.01zM66.94 83.24h-.01v-.01l.01.01zM23.13 91.36l.03-.01-.01.03-.02-.02M21.38 83.29l.03-.01-.01.03-.02-.02M28.07 92h-.01v-.01l.01.01zM43.48 92.33v-.01h.01l-.01.01z" class="cls-1"/><path d="m21.4 83.3-.03.01.01-.03.02.02M51.39 83.32l.01-.01v.01h-.01zM36.91 93.01v.01-.01zM70.64 83.36h-.01v-.01l.01.01zM36.9 93.18l.01-.01v.01h-.01zM47.38 93.39l-.01-.01h.01v.01zM66.94 83.43v.01h-.01l.01-.01zM67.02 83.44h-.01l.01-.01v.01zM67.02 87.5l-.01-.01h.01v.01zM52.61 94.55l.01.01h-.01v-.01zM42.27 94.97l-.01-.01h.01v.01zM32.36 96.14l.01-.01v.01h-.01zM59.96 84.91l-.01-.01h.01v.01zM50.29 99.91h.01v.01l-.01-.01zM44.29 91.11l.01-.01v.01h-.01zM50.28 96.07s-.02.07 0-.01l-.03.03.03-.01M43.7 87.88s0 .03-.02.03h-.03c0-.01 0-.02.02-.03h.03M43.97 87.71v-.02l.01.01-.01.01zM15.81 86.88l.01.01h-.01v-.01zM15.32 84.2l.01.01h-.01v-.01zM36.74 86.56h.01v.01l-.01-.01zM34.32 87.09h-.01v-.01l.01.01zM36.71 87.58l-.01-.01h.01v.01zM30.32 45.34l-.58 1.84a.21.21 0 0 1-.07.11c-.21.13-.24.32-.21.53l-.02.16-.36-.3c-.16-.14-.17-.14-.37.05l.15.23-.35.45c.25.19.25.18.46-.03.1-.1.26-.15.4-.23-.03.51-.46.75-.87.48-.44-.29-.85-.62-1.29-.91a6.79 6.79 0 0 0-1-.6c-.59-.27-.86-.78-1.06-1.35l-.05-.22c-.05-.25-.02-.28.24-.29.18 0 .21-.06.19-.38l-.5.2c-.06-.28-.04-.54.1-.85l.08.33c.17.04.26-.04.3-.18.07-.25-.08-.38-.31-.47l.3-1.02.14-.56c.08-.33.11-.35.43-.22l1.5.59.33.1.03-.06a9.14 9.14 0 0 0-.49-.38l-1.22-.9c-.26-.2-.27-.24-.17-.54.44-1.37.91-2.73 1.55-4.02.03-.05.04-.12.05-.17l-.05-.04c-.09.09-.18.18-.26.29a9.4 9.4 0 0 0-1.14 2.23l-.41 1.05c-.03.09-.09.17-.13.26-.12 0-.22-.02-.33-.03-.07.22.06.27.24.3l-.15.27c-.39-.75-.66-1.47-.28-2.27.14.02.13.1.09.19a.67.67 0 0 0-.01.59l.35-.49a7.46 7.46 0 0 0-.18-.24c.12-.22.18-.46-.03-.7l.69-1.3c.05-.09.12-.18.19-.26.43-.6 1.01-.71 1.69-.51.58.16 1.16.29 1.75.43l.15-.02-.74-.57-.31-.23c-.16-.1-.19-.2-.1-.37.29-.6.56-1.21.84-1.81l1.09-2.34a.46.46 0 0 0 .05-.21 9.05 9.05 0 0 0-1.31 1.82c-.2-.16-.22-.6-.67-.43l.25.33c-.23.47-.1.45.25.44l-1 1.97a1.57 1.57 0 0 1-.65-.96c-.1-.4.1-.75.25-1.13.16.09.3.07.43-.1a4.71 4.71 0 0 0-.11-.24c-.17-.39 0-.68.42-.74.38-.05.55-.3.68-.62l-.42-.33.31-.51c.26.43.54.09.81.09.04 0 .09-.11.11-.18l.2-.68c.24-.11.45 0 .65.16l1.39 1.05c.13.1.28.19.46.25l-.07-.14c-.26-.35-.52-.72-.8-1.06-.19-.23-.2-.44-.09-.71.29-.73.66-1.42 1.05-2.1.16-.27.3-.54.47-.81.1-.16.21-.3.32-.45.4-.5.28-.67-.21-.89.39-.08.74-.13 1.1.06l-.22.28c.21.22.45.15.64-.21.51.16 1.02.3 1.42.69l1.39 1.35c.16.16.31.35.5.57l-.39.02c.1.13.15.27.23.28.23.03.34.17.44.32.02.14-.26.23-.07.36.07.05.22-.02.37-.04 0-.01.02.01.02.03-.03.33.26.56.57.43.16-.07.28-.03.39.11.11.13.25.23.39.36l-.17.08v.57c0 .15.12.19.23.11.06-.04.09-.16.1-.24 0-.1-.02-.2-.04-.3l.07-.04.39.35c-.11.13-.15.26-.03.35.06.04.19 0 .34-.02l.42.4c.18.19.2.4.08.64.19.17.38.16.58 0l.34.33-.08.22c.08.03.16.09.21.07.17-.08.26.03.36.13l.64.64c.13.13.22.24.04.4l.17.16.17-.15c.02 0 .04.02.05.03.5.44 1.11.69 1.69 1l4.23 2.27.28.15c.37.15.38.17.34.57-.08-.02-.17-.05-.25-.04-.06 0-.16.05-.17.09a.26.26 0 0 0 .02.23c.03.04.14.05.2.04.09-.02.17-.09.29-.15.05.32.1.62.13.92 0 .06-.05.14-.1.18-.2.16-.41.3-.67.49.18.04.33.06.46.12s.25.18.41.23l.09.3c-.09.16-.14.31-.24.4-.1.1-.26.15-.42.24.04.16.11.34.36.36.2.02.3.14.3.32l-.03 1.68-.02.5-.22.07v.08c.13.08.14.17.1.32-.12.44-.22.89-.32 1.34-.03.11 0 .21.03.33.18.62.49 1.17.88 1.67.12.15.22.32.35.46.28.34.29.44.05.81.19.11.35.12.5-.09.16.21.37.36.29.67-.04.16.29.46.48.5l.09.01c-.07.19-.13.37-.21.54a.35.35 0 0 1-.17.17c-.12.06-.26.1-.38.15-.21.08-.27.05-.26-.18v-.14c-.17 0-.22.09-.22.21 0 .09.02.17.01.26 0 .06-.02.15-.06.17-.32.19-.55.47-.81.73-.07.07-.19.1-.29.15.08.24-.13.33-.24.5l-.27-.08c-.02.04-.06.07-.06.09.03.16-.24.29-.05.48l-.07.13c-.31.45-.61.91-.94 1.35-.09.12-.24.19-.38.29l.08.16-1.13 1.87c-.37.61-.78 1.19-1.12 1.82a.3.3 0 0 0 .07.05l1.11-1.23q.15.22-.15.44c.09.21.23.32.37.23.13-.08.22-.23.34-.36l.2.24c.04-.05.08-.08.1-.12.03-.1.1-.22-.02-.29a1.2 1.2 0 0 0-.33-.13c-.11-.03-.23-.03-.37-.05.14-.31.33-.51.57-.71l.12.43c.11-.2.19-.34.16-.52a.6.6 0 0 1 0-.19c.03-.17.22-.31.41-.13.12.12.29.19.44.28l-.18.56.2.27c.18-.08.33-.15.49-.2.07-.02.17.01.25.02.1.02.24.09.29.05.11-.08.18-.22.26-.35.03-.04.03-.1.05-.19l.15.14c.1.09.21.09.27-.02.07-.11.03-.23-.09-.26a4.9 4.9 0 0 0-.77-.08c-.03 0-.1.13-.1.2 0 .14-.03.25-.16.33-.19-.08-.12-.27-.18-.39-.07-.13-.16-.25-.25-.39.04-.01.09-.04.14-.04.26-.02.49-.1.68-.25l-.25-.06.21-.18.24-.15-.33-.4c.06-.15.2-.19.37-.21l.15.45.08-.02c0-.06 0-.14.02-.19.06-.13.16-.19.31-.18.06 0 .14-.06.18-.12.02-.03-.01-.13-.05-.16-.12-.1-.27-.18-.37-.29-.11-.11-.19-.26-.29-.41l.22-.25c.1.09.19.24.34.07l.11.2c.25-.12-.13-.29.08-.42l.2.07.35-.52-.26-.14c-.04-.19.37-.51.69-.53.01-.23.12-.4.34-.48.04-.02.09-.05.12-.04.26.1.47-.13.73-.11a5.68 5.68 0 0 0-.3-.09 4.2 4.2 0 0 1 1.4-.43l.4 1.18c.1.33.2.65.28.99.03.11-.02.24-.03.37.27.04.27.27.31.51l-.19.12c-.26.15-.25.16-.22.46.01.12-.04.24-.07.4l.79.06c.09.14.15.28-.02.42-.13.12-.11.24.02.34.24-.04.1-.23.17-.37.12.23.15.46.16.69 0 .08.02.18.07.23.29.28.27.64.28.99 0 .09-.11.19-.19.31.12.16.08.43.29.58.04.03.03.14.03.22.02.26.12.38.37.46.06.02.15.06.17.11l.34.99c-.26.05-.39.18-.45.42-.04.16-.18.29-.27.43l-.16.22c.24.23.26.24.46.06.2-.17.32-.21.42-.11.13.14.11.3 0 .44-.13.19-.04.4-.04.6 0 .19.03.37.05.56l.79.41c.19.09.29.24.35.44l.18.62h-.57l.18.55.33.05-.06.3.13.12c.07.08.17.15.18.24.01.13-.11.19-.24.21-.03 0-.05.04-.07.06.07.21.23.03.31.11l.45.47-.24.13c0 .03-.03.06-.02.09.1.24.05.46-.09.67-.04.07-.04.18-.03.28.01.13.05.25.08.42h.3c.13-.01.26.02.29.14.06.22.21.34.42.41l-.26.48c.23.11.25-.13.37-.16.17.16.12.35.06.52.08.11.2.2.2.3.01.22-.03.44-.06.65 0 .05-.06.09-.07.14 0 .03 0 .09.03.11.03.02.09.04.12.02.07-.04.13-.11.23-.19.35.98.66 1.94 1 2.97l-.44-.3-6.61-4.81c-.14-.1-.24-.2-.24-.41a.69.69 0 0 0-.25-.5l-.36.27-.38-.27.15-.27-.45-.22c-.26.14-.31.13-.59-.2.11-.22.07-.41-.19-.53l-.3.14c-.32-.2-.65-.44-1-.64-.36-.21-.5-.61-.8-.86-.17.13-.36.11-.44-.09-.12-.29-.32-.43-.61-.51-.18-.05-.4-.13-.34-.42.03-.14-.07-.21-.2-.25-.34-.12-.34-.12-.22-.4-.1-.08-.2-.14-.28-.23-.07-.08-.11-.19-.19-.34l-.21.33c-.1-.13-.19-.29-.41-.21-.05.02-.15-.04-.19-.09a.6.6 0 0 0-.46-.2c-.16 0-.24-.07-.24-.23l-.03-.22c0-.43-.06-.51-.49-.61l-.16-.05-.12-.6-.53.26.02-.38c0-.13-.06-.19-.2-.2-.26-.01-.27-.03-.23-.28l.02-.09-.01-.03c-.25-.1-.43.1-.67.21l.1-.47c-.39-.09-.65-.35-.89-.64l-.76-.94c-.04-.05-.1-.1-.11-.16-.04-.17-.14-.23-.3-.22-.37 0-.5-.31-.7-.53-.01-.01.02-.06.02-.09 0-.17-.12-.32-.27-.28-.19.06-.24-.08-.29-.16-.11-.17-.23-.35-.23-.57 0-.13-.06-.26-.1-.41-.14.05-.25.1-.36.12-.16.03-.24-.08-.15-.21a.77.77 0 0 0 .14-.61c-.03-.2.1-.35.29-.46.25-.13.27-.31.11-.5-.23-.27-.39-.25-.56.07l-.27.51c-.15.27-.3.31-.54.12-.19-.16-.36-.3-.63-.17-.07.03-.23-.02-.28-.09-.09-.12-.2-.15-.33-.17-.27-.05-.35-.15-.34-.41 0-.05.03-.12 0-.16-.04-.06-.11-.11-.16-.17-.05.05-.11.09-.14.15-.03.09-.04.18-.06.28 0 0-.02.01 0 0-.17-.08-.31-.16-.47-.22-.1-.04-.17-.08-.19-.19-.01-.08-.06-.15-.1-.25-.1.06-.15.11-.22.14-.11.06-.2.05-.29-.05-.14-.15-.15-.15-.39-.11l-.15-.18-.27.11-.23-.19-.14.19c-.05-.07-.09-.12-.11-.18-.11-.25-.3-.36-.57-.41a3.08 3.08 0 0 1-.98-.44.93.93 0 0 1-.41-.4c-.02-.05-.17-.04-.26-.06-.11-.02-.24-.02-.33-.07l-2.25-1.27c-.33-.19-.32-.24-.26-.6.07-.43.22-.82.43-1.2.11-.2.19-.43.26-.65.16-.52.28-1.06.46-1.57.1-.26.2-.52.26-.79.02-.1.09-.19.14-.3.04.02.07.02.08.04.15.2.26.21.44.05.16-.14.17-.28.03-.44l-.22-.26.29-.19c.21-.17.33-.37.32-.65 0-.08.05-.19.12-.24.19-.15.27-.33.17-.57-.06-.15 0-.25.11-.34.11-.09.19-.03.28.04.05.04.18.05.2.02.06-.1.11-.21.13-.32.01-.1-.02-.2-.03-.32l.34-.06-.2-.22v-.09c.02-.09.07-.19.05-.26-.06-.2.04-.3.19-.35.12-.05.17-.13.24-.23.17-.24.38-.45.6-.69l-.08-.73c0-.07-.04-.15-.07-.21-.13-.23-.14-.45.09-.65.12.11.23.23.36.33.06.04.15.03.22.05 0-.08.03-.16 0-.24-.02-.08-.07-.15-.11-.23a.36.36 0 0 0-.49-.15l-.14.07-.11-.04c.06-.15.09-.32.18-.45.05-.07.21-.09.32-.09.04 0 .08.12.12.18l.04.09.5-.05c.03-.07.09-.15.11-.24a.32.32 0 0 0-.18-.38c-.17-.05-.22.07-.27.2l-.07.16c-.08-.07-.15-.11-.18-.17l-.16-.35c-.02-.04-.04-.09-.03-.12.11-.24.11-.53.36-.69.13-.08.16-.2.13-.37-.08-.39.03-.57.39-.73l.15-.06c.13-.08.16-.19.06-.32-.04-.06-.1-.11-.18-.19l1.61-2.52-.05-.05-.18.14-1.78 2.05c-.19.22-.36.46-.54.68-.05.06-.14.1-.2.16-.05.05-.12.13-.1.17.07.19-.08.21-.18.28-.14-.08-.19-.3-.39-.25l-.09.6c.16.13.28-.15.48-.12-.05.21-.06.43-.28.56-.07.04-.11.13-.14.21-.02.05.02.12.03.21l-.2.02c-.24 0-.34.08-.37.31-.02.14.01.29-.14.4-.09.06-.05.18.04.25.07.05.15.08.26.13l-.13.17-.29-.28c.06.18.08.31.14.42.06.11.06.19-.01.29l-.79 1.08c-.06.08-.17.11-.3.18l.29.2-.1.04-.51.03c-.09 0-.17.05-.33.1.21.11.46.11.37.39-.15-.02-.32-.08-.45-.03-.13.04-.21.19-.34.32l.15.11-.48.32c.08.12.3.13.28.34l.45.1-.16-.28c.23-.26.37.03.57.03l-.04.3c-.19.06-.36.08-.49.17-.17.13-.31.12-.46-.01-.02-.02-.05-.02-.1-.04l-.12.27h-.31l.42.54c.06.08.11.18.15.27l.2.48c-.07.12-.08.39-.36.4l-.44.42q-.05.43-.28.74l.35.04-.2.46c-.13-.13-.28-.24-.39-.38-.11-.14-.24-.15-.37-.13l-.14.44.45.66.46-.6m4.61-2.45s-.12.06-.14.12c-.05.12.02.22.14.25.25.06.4.19.35.48 0 .06.09.19.15.21.07.02.2-.02.26-.08.08-.08.13-.2.19-.3.09-.15.04-.27-.09-.37-.24-.18-.5-.29-.86-.3m9.21 11.35c-.09-.3-.27-.58-.58-.77-.04-.03-.14-.02-.17 0a.34.34 0 0 0-.06.2c0 .03.03.08.06.11.15.17.21.34.04.54-.08.09-.09.22.03.31.14.11.29.05.42-.02s.27-.14.26-.37m-7.35-18.54c.16.15.27.08.36-.02.14-.14.27-.23.48-.11.06.03.22-.01.28-.07.12-.11.07-.26-.01-.38-.07-.1-.14-.21-.28-.16a1.5 1.5 0 0 0-.83.74m5.18 14.18-.08.05.13.41c.05.17.16.25.34.23.18-.02.38-.04.43-.27.02-.08.04-.19 0-.24-.03-.04-.16-.05-.23-.03a.41.41 0 0 1-.4-.06l-.2-.1m-.61 2.5c-.3.21-.31.24-.12.49.07-.11.12-.23.21-.29.09-.06.22-.07.33-.11.04-.01.07-.05.1-.08.12-.12.1-.24-.06-.3-.13-.04-.26-.06-.42-.09l-.04.37M67.08 34.53l.27.29-.36-.05-.05.03c-.07.4-.4.57-.69.76-.05.03-.14.01-.21.02-.09.01-.2 0-.27.04-.18.09-.29.31-.54.29-.03 0-.07.08-.11.11-.08.07-.15.15-.24.19-.17.08-.29.18-.29.39-.16.05-.3.11-.44.13-.15.02-.2.14-.3.2-.11.06-.24.06-.28.21-.01.05-.07.08-.11.12-.2.23-.2.23-.46.14-.27.28-.42.66-.83.85l.08.2c-.16.24-.23-.11-.42-.04-.1.27-.34.46-.7.53-.17-.26-.39.07-.61-.03v.43c-.26.02-.45.11-.49.39 0 .04-.09.08-.14.11-.05.04-.13.06-.15.11-.07.18-.18.21-.36.17-.21-.04-.23 0-.29.22-.03.1-.11.18-.18.29l-.26-.19c-.33.03-.17.32-.28.49l-.21-.1-.24.6c-.38-.86-.53-1.71-.84-2.52-.31-.81-.54-1.64-.81-2.46l.22-.25-.33-.26c1.02-.83 2.1-1.52 3.1-2.36H56.6v-.33c-.19.43-.55.31-.88.27.21-.08.3-.26.36-.45.02-.06 0-.16-.04-.2-.16-.14-.33-.26-.53-.42-.08 0-.27.19-.33-.11.19-.05.46.08.55-.27l-.3-.24-.37-.23-.32.12-.19-.53.27-.22c-.08-.06-.14-.14-.21-.16-.18-.03-.24-.17-.28-.32l-.34-1.07-.06-.21c-.07-.18 0-.3.16-.36.15-.05.21-.12.16-.29-.02-.07.03-.18.08-.25.09-.14.2-.26.33-.43h1.2c.05.1.08.21.15.29.05.05.15.04.26.05l.02-.36c.16 0 .31.02.46 0 .2-.04.22.21.37.21.13 0 .26-.06.39-.06.04 0 .09.08.13.12l.26.2v-.45c.22 0 .44-.12.63.12.04.05.21 0 .32-.03.04-.01.08-.09.11-.1h.87l.02.07-.21.17c-.11.11-.09.24.05.32.18.1.46.01.55-.17l.21-.4c.43.07.94-.18 1.23.41l.28-.41h5.43a2 2 0 0 1 .35.02c.1.02.18.08.29.14.05-.14.21-.16.39-.16l4.11-.02 1.83.03-.11.22c.23.2.37.19.52 0 .21-.27.34-.29.63-.1l.17.1-.04.32c.34.07.53-.14.52-.57h.86l-.16.15-2.79 2.03-2.35 1.7c-.22.16-.43.32-.72.19l-.05.06c-.01.35-.07.44-.42.53a.32.32 0 0 0-.23.18c-.05.11-.2.18-.3.26-.08-.04-.15-.11-.2-.1-.09.02-.08.1-.03.18.02.03-.04.14-.08.15-.37.1-.57.44-.88.63-.2.13-.38.27-.57.42-.28.23-.61.29-1.03.29M45.65 22.2h-2.22c-.03-.14.04-.2.14-.25.24-.13.25-.21.02-.43-.27.13-.3.42-.41.66q-.28.06-.48-.24c-.06.02-.13.02-.17.05-.15.12-.3.13-.48.06-.09-.04-.21-.02-.32 0-.09.01-.18.05-.32.09 0-.17 0-.31-.03-.45-.02-.07-.1-.15-.17-.19a1.02 1.02 0 0 1-.49-.69l-.13.2-.2.2-.11-.91-.99.48c-.07-.21-.16-.43-.22-.67-.01-.05.07-.12.14-.22.13.2.2.38.43.36.2-.02.3-.12.25-.31-.06-.2-.14-.4-.2-.56l-.89.07c-.12-.28-.27-.55-.14-.88l-.49-.28c-.14.3-.13.3.08.53l-.2.74-.01.03c-.05.04-.09.1-.14.1-.28.03-.41.48-.79.26-.22-.13-.26-.08-.28.19 0 .05 0 .11-.03.15-.1.14-.05.26.06.41l-.27.17c.14.11.22.24.32.26.1.02.22-.06.36-.1l.02.14c0 .08-.06.17-.03.22.2.31-.06.56-.09.85l-.23.02h-4.82c-.16 0-.3 0-.43-.14-.06-.07-.24-.05-.39-.08l.69-2.1c.25.41.3.42.57.08l-.23-.16c-.24-.14-.25-.17-.18-.43.1-.41.15-.45.6-.4.05-.1.12-.21.17-.33.09-.23.22-.42.46-.51a.22.22 0 0 0 .08-.05c.11-.06.24-.13.23-.28 0-.15-.14-.19-.24-.22-.21-.07-.29-.24-.35-.42.12-.15.25-.29.35-.45.1-.14.07-.29-.09-.38-.16-.09-.15-.2-.07-.32.1-.14.12-.28.11-.45 0-.18.08-.37.13-.53.17.03.33.1.45.06.14-.05.24-.19.37-.29.14-.12.13-.25.01-.36-.18-.17-.22-.35-.14-.59.02-.06.03-.17 0-.22-.22-.25-.06-.48.02-.72l.12-.39c.05-.15.06-.32.24-.39.15-.06.17-.2.11-.33-.08-.16-.04-.29.03-.43a.73.73 0 0 0 .06-.21c.02-.08.02-.17.06-.24.17-.32.27-.65.34-1.01.06-.34.2-.67.31-1.01l.35-1.04.29-.96.27.04c.13-.11.07-.23.01-.33-.09-.16-.08-.31-.02-.49L38.13.87l.28-.85h.07l3.27 10.1-.23.25c.28.07.43.22.47.48.04.24.09.47-.15.63l.06.08c.28.02.38.19.46.44 1.06 3.31 2.14 6.62 3.21 9.92l.08.3M41.13 8.77c-.09.33-.19.64-.42.95.13.01.24.03.34.02.23 0 .3-.1.26-.33 0-.07-.03-.15-.01-.22.06-.19-.05-.3-.17-.42m-9.47 12.72.07.06c.19-.15.37-.28.53.01.01.02.1.02.11 0 .05-.08.11-.16.11-.25 0-.08-.06-.23-.1-.23-.19 0-.39 0-.56.06-.09.03-.11.22-.16.34m3.49-7.78s.07.08.12.1c.06.03.14.05.19.04.03 0 .05-.11.05-.17-.03-.33-.24-.43-.54-.27-.11.06-.27.13-.21.28.07.19.21.05.32.02h.07m2.5 5.66-.29-.1a.44.44 0 0 0-.52.12c-.08.1-.04.24.08.24.26 0 .55.04.73-.26m-3.39-3.61c-.12-.07-.25-.12-.33.03-.11.19 0 .54.22.68.12-.06.2-.13.15-.3-.04-.12-.03-.25-.04-.41M28.33 56.56l.22-.13c.26-.12.26-.12.15-.4.29-.13.61-.04.69.23.05.16.14.19.26.24l.5.21-.12.25c.14.21.29.18.43 0l.7.49c.38.28.77.55 1.14.84.19.14.35.32.53.47.15.13-.01.26.01.43.09-.02.19-.01.26-.05.19-.11.34-.08.5.11l-2.77 2-.46-.25.13.49-.69.49-.04-.04c.05-.05.1-.12.16-.16.12-.08.13-.19.1-.31-.03-.15-.12-.19-.26-.11l-.38.2.12.42c-.17.11-.34.2-.54.26s-.36.24-.58.38a.8.8 0 0 1-.14-.08c-.1-.07-.2-.14-.31-.02-.1.12-.11.3-.02.41.04.05.09.08.15.12-.15.12-.21 0-.27-.07-.1-.13-.21-.13-.33-.03.03.4-.03.48-.51.63.04.16-.02.26-.2.31a.68.68 0 0 0-.29.18c-.19.18-.26.19-.48.06a.83.83 0 0 1-.15-.11c-.24.02-.16.23-.23.38l-.35.12-.04.3-.38-.11.03.26c0 .08.05.19.01.25-.18.27-.29.59-.57.8l-1.25.91c-.16.12-.33.24-.59.11.08.28-.07.39-.24.5-.48.33-.96.65-1.43.99-1.47 1.07-2.93 2.16-4.39 3.24l-.78.57c-.2.14-.22.14-.49.07.02-.04.03-.08.06-.11.26-.22.3-.4.09-.65-.13-.15-.12-.26.03-.4.05.05.1.1.17.13.06.03.16.05.2.02.21-.14.4-.31.57-.44-.07-.2-.16-.36-.18-.53-.01-.17.06-.35.09-.55.33-.01.27.34.49.49.16.03.28-.08.36-.24.09-.19-.02-.32-.16-.41a1.62 1.62 0 0 0-.37-.19c-.16-.05-.33-.08-.49-.12-.11-.03-.13-.12-.1-.2.1-.22.2-.45.33-.65.14-.23.31-.44.2-.74.34-.22.4-.52.31-.89-.03-.12.04-.26.07-.43l.24.14c.28-.23.18-.51.1-.79-.08-.26-.07-.28.1-.54.17.13.35.18.55.06.12-.07.17-.15.09-.29-.08-.13-.14-.26-.2-.39.05-.03.07-.05.08-.04.09.03.18.14.26.03.06-.09.12-.23.1-.32-.04-.18-.02-.31.08-.45.07-.1.06-.21-.11-.25l-.13.21c-.12.04-.26-.06-.24-.19.03-.17.1-.34.17-.56l.23.39c.03-.14.07-.21.05-.25-.03-.08-.1-.14-.16-.2-.1-.12-.09-.3.05-.34.37-.1.5-.4.61-.7.04-.1-.04-.24-.08-.36-.04-.11-.11-.22-.16-.32l.05-.04.18.1q-.06-.55.02-.71s.04-.02.06-.02c.32.04.38-.02.27-.32a.96.96 0 0 1 .03-.81c.12-.26.24-.53.33-.8.09-.28.14-.58.23-.87l.96-3 .88-2.68.4-1.22a.38.38 0 0 1 .15-.2l.1.44c.27-.18.44-.05.61.12.15.14.35.24.52.36l1.7 1.23c.34.24.35.27.23.66.18.06.33.04.45-.17l.62.47c-.14.21-.28.36-.53.32 0 .25.15.38.35.32.11-.04.22-.1.33-.12.05-.01.13.01.16.05.02.03 0 .13-.04.16-.1.09-.08.19-.08.29 0 .12.02.25-.02.37l-.79 2.48-.07.27.31-.18 1.87-1.33c.26-.18.34-.18.59.01m-2.39-1.59c-.18.37-.16.53.05.78.17-.11.35-.44.3-.57-.05-.15-.19-.19-.35-.21m-5.11.69c-.06.02-.14.03-.16.07-.02.04.01.14.05.16.15.07.19.17.17.33-.01.13.11.18.22.1.24-.18.23-.41-.03-.56-.07-.04-.16-.06-.25-.1m.76-2.06.05.06c.05.08.08.24.22.16.07-.04.1-.18.11-.28.02-.11-.05-.19-.16-.2-.15-.01-.3 0-.45.01-.04 0-.11.08-.11.13 0 .04.07.1.12.11.07.02.15 0 .22 0M2.88 29.86l-.52-.38v-.05a4 4 0 0 0 .3-.49.7.7 0 0 1 .15-.2c.08-.1.11-.2.03-.3-.16.05-.32.09-.46.16a.4.4 0 0 0-.17.17c-.14.28-.47.34-.74.11.05-.12.13-.2.26-.16.2.06.28-.07.35-.2.08-.15.02-.24-.15-.27l-.4-.09c-.12.13-.44.03-.55.32l.18.16a.28.28 0 0 1-.06.03c-.23-.31-.6-.43-.9-.65l-.22-.15c.1-.02.15-.05.2-.05h.99l2.75.02h2.71c.49 0 .99.03 1.48.04.23 0 .45-.02.68-.03.45 0 .45 0 .79.33l.07.06.06-.03c.15-.3.4-.39.72-.37h.55c-.05.17-.14.35.09.41.2.06.35-.07.47-.4.37.04.75-.1 1.12.1.21.11.42 0 .61-.1l.24.27a.2.2 0 0 0 .06-.04l-.05-.22c.23 0 .46-.06.65.12.05.05.19.03.28.02.09 0 .18-.04.34-.09-.22.3-.31.56-.02.86l.34-.43v.38c.19-.28.57-.26.75-.53.1-.14.28-.06.35.15l.12.37.05.08c.46-.05.34-.5.53-.77l.25.31c.15-.09.31-.1.46.02.12.09.26.08.4 0l.24-.13.35.28.06-.02c0-.07 0-.15-.03-.22-.1-.3-.01-.42.31-.43h.32c.03 0 .06 0 .11.02.1.26.29.41.56.52.18.08.3.3.44.45l.21.25c.35-.2.59-.58 1.04-.5l.28.21c.3.24.54.22.86-.12l-.32-.24c-.04.08-.06.14-.1.18-.11.14-.32.16-.41.01-.14-.23-.24-.48-.17-.77l.28-.02.12.29.59-.08-.08-.21.67.06-.04.24-.67 2.08c-.06.19-.11.4-.22.55-.12.16-.32.26-.49.4l.27.19-.6 2.14c-.33-.24 0-.54-.18-.78l-.09.18c-.04.15-.11.24-.28.27a.42.42 0 0 0-.27.16c-.16.19-.35.23-.57.2-.06 0-.13 0-.2-.02l-.13-.27c-.3-.02-.43.4-.78.29-.26-.08-.56.1-.75-.09l-.77.12.99.76c-.03.13-.07.24-.08.34 0 .15 0 .27-.15.36-.13.07-.13.19-.06.3l.01.03.52.82.78-.48.77.36c.24-.22-.07-.31-.11-.54.19.14.35.23.46.36.05.05 0 .18 0 .27-.14.06-.29-.1-.38.08-.09.16-.1.31.09.47-.12.05-.21.13-.27.11-.07-.03-.13-.13-.15-.22-.02-.1 0-.21 0-.31-.28-.19-.3-.19-.69-.12-.05.13 0 .22.12.28.1.05.27.01.28.17 0 .1-.04.2-.07.3.17.06.38.08.49.2.1.1.08.31.12.48l-.32.09-.04.45c0 .02-.03.05-.02.06.25.29-.19.48-.11.75l-.42.38c-.16-.05-.31-.11-.47-.15-.19-.04-.25 0-.24.18 0 .2-.09.27-.26.29l-.61.09-.27.73c-.08-.05-.13-.1-.19-.12-.17-.08-.28-.18-.26-.4.02-.14-.08-.25-.22-.19-.25.1-.43-.02-.62-.14l-.34-.24c.17-.22.21-.44.05-.58-.14-.13-.16-.25-.17-.42l-.23.68c-.28-.09-.31-.17-.17-.37.06-.08.15-.15.16-.23.02-.13 0-.29-.13-.37-.09-.05-.32.02-.41.12-.05.06-.08.13-.12.19l-.13.18-.45-.32.54-.39c-.32-.13-.5-.35-.81-.33a.4.4 0 0 1-.25-.1c-.21-.22-.42-.23-.68-.05-.4-.31-.86-.54-1.12-1.01-.53-.05-.85-.46-1.28-.73q.22-.16.19-.47l-.46-.12c-.05-.01-.12-.03-.16-.01-.27.17-.44-.03-.62-.17l-1.27-.93c-.13-.1-.27-.18-.39-.28-.14-.14-.13-.24.02-.38.1-.1.21-.19.28-.31.04-.06.02-.17-.01-.24-.02-.04-.13-.05-.2-.03-.41.07-.45.11-.61.59l-4.22-3.05.21-.11c.11-.08.12-.19.08-.32-.04-.11-.1-.21-.23-.16-.17.06-.17-.13-.32-.18l-.11.42m15.4-1.17-.69.08c.05.14.13.28.16.43.03.18.16.22.3.24.14.02.25-.06.3-.19a.7.7 0 0 0-.06-.56m-2.13 10.42c0 .06 0 .11.02.15.04.06.09.1.14.15.04-.04.11-.08.11-.13.03-.14.13-.13.24-.16.14-.04.18-.18.08-.27a.73.73 0 0 0-.36-.16c-.15-.01-.16.15-.19.25l-.03.17m3.08-6.59-.16.36-.19.27.48.11c.12.03.23 0 .27-.1.02-.06-.01-.21-.05-.22-.18-.06-.24-.22-.34-.41m-.52-2.41c.24-.26.24-.28 0-.59l-.38.07c-.05.02-.09.08-.11.13 0 .03.05.08.09.11l.4.27" class="cls-1"/><path d="m44.12 31.77.26-.13c-.17-.37-.17-.36-.57-.35a.31.31 0 0 1-.21-.11l-1.63-1.74c-.28-.3-.55-.61-.81-.92-.04-.04-.05-.11-.07-.16a.2.2 0 0 0 .06-.04l.25.16c.15-.1.18-.24.13-.38-.05-.14-.19-.15-.33-.16-.16 0-.32-.02-.48-.04-.04 0-.08-.07-.14-.14a.84.84 0 0 1 .54-.02c.6.15 1.21.28 1.81.44.84.23 1.69.4 2.56.45.81.04 1.63.15 2.44.26.41.05.79.19 1.14.42.33.22.49.54.59.89.03.11-.07.24-.12.43l.12.51-.21.06c.07.25.27.34.48.46l-.13.11c-.23.19-.22.27.03.43.14.09.21.25.14.41-.07.19-.02.35.12.45.12.08.12.17.09.27-.04.16-.11.32-.17.5l.2.01c.11.21-.01.4-.08.57-.02.06-.2.07-.34.12-.07.09-.08.24.03.32.16.12.3-.02.46-.14.05.19.13.34.07.53-.01.05-.02.11 0 .16.05.15.04.26-.12.35-.04.02-.05.11-.08.21-.11-.05-.22-.09-.32-.15l-3.68-2.39c-.19-.13-.41-.23-.43-.52 0-.07-.17-.14-.27-.19-.06-.03-.16 0-.21-.04l-1.02-.79c-.04-.03-.06-.09-.1-.15m5.39 2.07c.11-.02.23-.03.35-.07.12-.04.13-.12.05-.22l-.18-.22c-.13-.16-.18-.16-.38-.02l.17.53M33.09 25.14l.31.31.08-.07c.04.17-.02.3-.13.44-.5.6-1.02 1.19-1.38 1.88l-.71-.12c.23-.31.41-.68.71-.96l.08.03-.02.39c.25.06.33-.13.39-.27.11-.24-.19-.29-.27-.48.32-.4.56-.89.94-1.15M31.29 28.96c-.32-.41-.35-.8-.12-1.16.28-.01.44.14.56.41l-.44.75M18.88 39.74c.16.31.28.56.1.84-.09.14-.17.29-.36.32-.14-.18.08-.24.1-.36-.11-.2-.31-.17-.48-.2-.06-.11-.05-.21.08-.22.16-.02.24-.1.32-.23.04-.07.15-.09.24-.14M18.81 34.53c.35.17.49.63.96.6q-.23.26-.75.11c-.02-.13-.02-.27-.07-.39-.04-.1-.22-.14-.14-.32M37.56 20.15l.09.51c.01.12-.11.19-.22.14-.12-.06-.24-.12-.21-.31.05-.27.07-.31.34-.34M54 27.89l-.06.32c-.02.13-.09.21-.21.2-.05 0-.11-.1-.14-.17-.05-.1-.07-.22-.11-.35H54Z" class="cls-1"/></g></svg>