<svg xmlns="http://www.w3.org/2000/svg" xmlns:xlink="http://www.w3.org/1999/xlink" viewBox="0 0 100 98.84"><defs><linearGradient id="a" x1="-3.32" x2="75.32" y1="79.01" y2="14.92" data-name="New Gradient Swatch copy 2" gradientUnits="userSpaceOnUse"><stop offset="0" stop-color="#561b67"/><stop offset=".17" stop-color="#bd3688"/><stop offset=".34" stop-color="#d34882"/><stop offset=".5" stop-color="#a8678d"/><stop offset=".67" stop-color="#708bc4"/><stop offset=".83" stop-color="#347cbf"/><stop offset="1" stop-color="#405295"/></linearGradient><linearGradient xlink:href="#a" id="b" x1="5.87" x2="84.51" y1="90.29" y2="26.21" data-name="New Gradient Swatch copy 2"/><linearGradient xlink:href="#a" id="c" x1="13.14" x2="91.78" y1="99.21" y2="35.13" data-name="New Gradient Swatch copy 2"/><linearGradient xlink:href="#a" id="d" x1="30.52" x2="109.16" y1="120.53" y2="56.45" data-name="New Gradient Swatch copy 2"/><linearGradient xlink:href="#a" id="e" x1="22.61" x2="101.25" y1="110.83" y2="46.75" data-name="New Gradient Swatch copy 2"/><linearGradient xlink:href="#a" id="f" x1="16.98" x2="95.62" y1="103.92" y2="39.84" data-name="New Gradient Swatch copy 2"/><linearGradient xlink:href="#a" id="g" x1="21.27" x2="99.9" y1="109.18" y2="45.09" data-name="New Gradient Swatch copy 2"/><linearGradient xlink:href="#a" id="h" x1="24.66" x2="103.29" y1="113.34" y2="49.25" data-name="New Gradient Swatch copy 2"/><linearGradient xlink:href="#a" id="i" x1="28.04" x2="106.68" y1="117.49" y2="53.41" data-name="New Gradient Swatch copy 2"/><linearGradient xlink:href="#a" id="j" x1="32.2" x2="110.84" y1="122.6" y2="58.52" data-name="New Gradient Swatch copy 2"/><linearGradient xlink:href="#a" id="k" x1="-4.04" x2="74.6" y1="78.13" y2="14.05" data-name="New Gradient Swatch copy 2"/><linearGradient xlink:href="#a" id="l" x1="-17.33" x2="61.31" y1="61.82" y2="-2.26" data-name="New Gradient Swatch copy 2"/><linearGradient xlink:href="#a" id="m" x1="-6.28" x2="72.36" y1="75.38" y2="11.3" data-name="New Gradient Swatch copy 2"/></defs><path fill="url(#a)" d="M3.97 64.05H1.98c-1.09 0-1.98.9-1.99 2v17.26a2 2 0 0 0 2 2c.49 0 .99-.18 1.39-.59.37-.38.58-.89.58-1.42v-3.69a2 2 0 0 1 1.99-2.01H9.6c.53 0 1.03-.21 1.4-.59 1.25-1.26.36-3.43-1.4-3.43H5.95a2 2 0 0 1-1.99-2.01v-1.51a2 2 0 0 1 1.99-2.01h13.08c.53 0 1.03-.21 1.4-.59 1.25-1.27.36-3.43-1.4-3.43H3.97Z"/><path fill="url(#b)" d="M26.88 64.29c-.23.12-.42.3-.57.5-.27.36-.5.89-.5 1.26v7.32c0 2.24-.88 4.39-2.44 5.98l-.41.41a5.5 5.5 0 0 1-3.9 1.63h-.71a5.9 5.9 0 0 1-4.21-1.76 1.71 1.71 0 0 0-2.46 0l-.65.65c-.68.69-.62 1.75.13 2.36a9.3 9.3 0 0 0 6.61 2.77h2.14a8.2 8.2 0 0 0 5.84-2.45l.06-.06.71-.71a11.38 11.38 0 0 0 3.27-7.98v-8.64c0-.99-.93-1.51-1.87-1.51-.36 0-.73.08-1.04.24"/><path fill="url(#c)" d="M39.96 80.85a7.94 7.94 0 0 1-2.54-1.53c-1.4-1.25-2.17-2.88-2.17-4.59s.77-3.34 2.17-4.59a8.05 8.05 0 0 1 2.54-1.53 9.2 9.2 0 0 1 6.46 0c.96.36 1.81.88 2.54 1.53 1.4 1.25 2.17 2.88 2.17 4.59s-.77 3.34-2.17 4.59a8.05 8.05 0 0 1-2.54 1.53 9.24 9.24 0 0 1-6.46 0m-8.69-6.12c0 5.89 5.33 10.67 11.91 10.67s11.91-4.78 11.91-10.67-5.33-10.67-11.91-10.67-11.91 4.78-11.91 10.67"/><path fill="url(#d)" d="M83.12 79.37v-9.36a2 2 0 0 1 1.98-1.94H89c.8.08 1.57.26 2.31.54.96.36 1.82.88 2.54 1.53 1.4 1.25 2.17 2.88 2.17 4.59s-.77 3.34-2.17 4.59a8.05 8.05 0 0 1-2.54 1.53c-.74.28-1.51.46-2.31.54h-3.9a1.99 1.99 0 0 1-1.98-1.94v-.07Zm0-15.32h-1.98a2 2 0 0 0-1.99 2.01v17.33a2 2 0 0 0 1.99 2.01h8.44c6.11-.45 10.42-5.08 10.42-10.67s-4.81-10.22-10.92-10.67h-5.96Z"/><path fill="url(#e)" d="M60.79 71.58v-1.51a2 2 0 0 1 1.99-2.01H71.22a2 2 0 0 1 1.98 1.83v1.85a2 2 0 0 1-1.98 1.83H62.78a2 2 0 0 1-1.99-2.01m0-7.51H58.8a2 2 0 0 0-1.99 2.01V83.3a2 2 0 0 0 2 2.01c.49 0 .98-.18 1.39-.59.37-.38.58-.89.58-1.42v-3.69a2 2 0 0 1 1.99-2.01h3.66a5.5 5.5 0 0 1 3.9 1.63l.41.41a8.58 8.58 0 0 1 2.16 3.79l.1.4c.09.26.23.53.39.74.12.17.28.32.45.43l.12.07c.31.16.67.24 1.04.24.42 0 .84-.11 1.17-.31.41-.25.62-.54.69-1.2 0 0 .17-.95-.07-1.88-.41-1.58-1.01-3.46-3.34-4.63 0 0 3.72-1 3.72-4.31v-3.5a5.54 5.54 0 0 0-5.44-5.44H60.79Z"/><path fill="url(#f)" d="M30.17 91.87v-2.44c0-.15.12-.27.27-.28h2.32c1.32 0 2.59.85 2.59 2.72s-1.27 2.71-2.59 2.71-2.59-.83-2.59-2.71m-.53-3.81c-.3 0-.54.24-.54.54v9.44c0 .3.24.54.54.54s.54-.24.54-.54v-2.63c0-.25.11-.38.32-.38.11 0 .2.03.29.09.62.36 1.28.53 1.98.53 1.8 0 3.67-1.21 3.67-3.79s-1.87-3.8-3.67-3.8h-3.13Z"/><path fill="url(#g)" d="M38.55 88.46v6.57c0 2.57 1.87 3.8 3.67 3.8.3 0 .54-.24.54-.54s-.24-.54-.54-.54c-1.29 0-2.59-.85-2.59-2.72v-6.57c0-.3-.24-.54-.54-.54s-.54.24-.54.54"/><path fill="url(#h)" d="M45.73 92.49v-.76c0-1.89 1.27-2.72 2.59-2.72s2.59.83 2.59 2.73v.75c0 .23-.11.33-.33.33h-4.53a.32.32 0 0 1-.32-.33m-1.08-.77v6.32c0 .3.24.54.54.54s.54-.24.54-.54v-3.83c0-.17.15-.31.32-.31h4.53c.2 0 .33.14.33.31v3.83c0 .3.24.54.54.54s.54-.24.54-.54v-6.32c0-2.58-1.86-3.8-3.67-3.8s-3.67 1.23-3.67 3.8"/><path fill="url(#i)" d="M54.57 88.06c-.3 0-.53.21-.53.52s.22.54.53.54h5.46l-5.93 8.59a.5.5 0 0 0-.08.26c0 .3.25.46.45.46H61c.3 0 .53-.23.53-.53s-.23-.53-.53-.53h-5.56l5.93-8.59a.42.42 0 0 0 .08-.26.44.44 0 0 0-.2-.38.5.5 0 0 0-.26-.08h-6.43Z"/><path fill="url(#j)" d="M64.65 92.49v-.76c0-1.89 1.27-2.72 2.59-2.72s2.59.83 2.59 2.73v.75c0 .23-.11.33-.33.33h-4.53a.32.32 0 0 1-.32-.33m-1.08-.77v6.32c0 .3.24.54.54.54s.54-.24.54-.54v-3.83c0-.17.14-.31.32-.31h4.53c.2 0 .33.14.33.31v3.83c0 .3.24.54.54.54s.54-.24.54-.54v-6.32c0-2.58-1.86-3.8-3.67-3.8s-3.67 1.23-3.67 3.8"/><path fill="url(#k)" d="M86.27 32.38c-11.82 11.83-24.1 17.81-36.52 17.81-.62 0-1.24-.01-1.86-.05C27.81 49.17 14 32.69 13.86 32.52a2.02 2.02 0 0 0-3.11 2.56c.15.18 3.8 4.58 10.14 9.14 5.88 4.23 15.31 9.38 26.76 9.94.71.04 1.41.05 2.11.05 13.51 0 26.74-6.38 39.35-18.99a2 2 0 0 0 0-2.84 2.02 2.02 0 0 0-2.85 0"/><path fill="url(#l)" d="M29.05 15.62v-1.4h6.54v1.4a2.01 2.01 0 0 0 4.02 0v-1.37c.43.12.75.51.75.97v14.09c0 .54-.46 1.01-1.01 1.01H25.26c-.55 0-1.01-.46-1.01-1.01V15.22c0-.46.32-.85.75-.97v1.37a2.01 2.01 0 0 0 4.02 0m.03-6.02c.05-.32.45-1.85 3.27-1.85 2.66 0 3.17 1.35 3.27 1.87v.57h-6.54v-.6Zm-4.02-.28v.89a5.03 5.03 0 0 0-4.78 5.02v14.09a5.03 5.03 0 0 0 5.03 5.03h14.09a5.03 5.03 0 0 0 5.03-5.03V15.23a5.03 5.03 0 0 0-4.78-5.02v-.89c-.16-1.94-1.89-5.59-7.29-5.59s-7.13 3.66-7.29 5.59"/><path fill="url(#m)" d="M57.11 29.31V15.22c0-.54.46-1 1.01-1h5.03v16.1h-5.03c-.55 0-1.01-.46-1.01-1.01m10.06-15.09h5.03c.55 0 1.01.46 1.01 1v14.09c0 .54-.46 1.01-1.01 1.01h-5.03v-16.1Zm.95-7.32a4.1 4.1 0 0 1 1.96-.61c.38 0 .62.1.69.19.24.3.51.76.42 1.24-.08.46-.49.93-1.13 1.3-.61.36-1.94.67-3.24.9.11-1.23.46-2.54 1.3-3.02m-11.05-.76c-.31-1.6.31-1.85.57-1.95.27-.11.59-.16.92-.16 1.06 0 2.3.49 2.76 1.21.79 1.23 1.19 3.11 1.38 4.67-2.16-.42-5.17-1.43-5.63-3.76m-.92-5.7c-2.49 1-3.62 3.42-3.02 6.47a7.2 7.2 0 0 0 2.34 4.05 5.04 5.04 0 0 0-2.38 4.26v14.09a5.03 5.03 0 0 0 5.03 5.03h14.09a5.03 5.03 0 0 0 5.03-5.03V15.23a5.03 5.03 0 0 0-3.03-4.61c.48-.66.8-1.39.94-2.17a5.52 5.52 0 0 0-1.26-4.5 4.84 4.84 0 0 0-3.83-1.68 8.1 8.1 0 0 0-4.82 1.76c-.16-.33-.34-.65-.53-.96C63.5 1.17 60.98.01 58.58.01a6.4 6.4 0 0 0-2.43.45"/></svg>