<svg xmlns="http://www.w3.org/2000/svg" xmlns:xlink="http://www.w3.org/1999/xlink" viewBox="0 0 100 49.82"><defs><linearGradient id="a" x1="-1.82" x2="8.77" y1="10.57" y2="49.21" data-name="New Gradient Swatch 4" gradientUnits="userSpaceOnUse"><stop offset="0" stop-color="#716558"/><stop offset="1" stop-color="#40342d"/></linearGradient><linearGradient xlink:href="#a" id="c" x1="11.01" x2="21.59" y1="7.06" y2="45.69" data-name="New Gradient Swatch 4"/><linearGradient xlink:href="#a" id="d" x1="31.8" x2="42.38" y1="1.36" y2="40" data-name="New Gradient Swatch 4"/><linearGradient xlink:href="#a" id="e" x1="54.3" x2="64.89" y1="-4.8" y2="33.83" data-name="New Gradient Swatch 4"/><linearGradient xlink:href="#a" id="f" x1="72.32" x2="82.9" y1="-9.74" y2="28.89" data-name="New Gradient Swatch 4"/><linearGradient id="b" x1="33.38" x2="33.42" y1="9.04" y2="9.04" data-name="New Gradient Swatch 2" gradientUnits="userSpaceOnUse"><stop offset="0" stop-color="#b01117"/><stop offset=".09" stop-color="#c1141a"/><stop offset=".23" stop-color="#d4171e"/><stop offset=".4" stop-color="#e11a21"/><stop offset=".61" stop-color="#e91b23"/><stop offset="1" stop-color="#ec1c24"/></linearGradient><linearGradient xlink:href="#b" id="g" x1="0" x2="100" y1="9.3" y2="9.3" data-name="New Gradient Swatch 2"/></defs><path fill="url(#a)" d="M3.27 7.56c.01-.45-3.08-.78-3.08-.77-.38 14.12 3.01 28.13 2.63 42.26-.01.45 3.08.78 3.08.77.38-14.12-3.01-28.14-2.63-42.26Z"/><path fill="url(#c)" d="m29.63 28.51.01-.03.76.72c.12.12-.14-1.01-.17-1.11-.16-.51-.34-1.43-.74-1.81-1.98-1.88-3.99-3.77-5.81-5.82l.05-1.98c.03-.97-.68-2.22-1.06-3.08-.21-.48-.43-.97-.71-1.42 0-.01-.28-.49-.29-.17l-.1 4.04c-.31-.41-.63-.81-.98-1.19-.11-.11.14 1 .17 1.11.17.54.34 1.39.74 1.81l.03.04-.14 8.23-.06 2.24c-.52.26-.63.35-1.03.44-.18.04-.9.23-1.32.32l.33-11c.33-.8.66-1.61.97-2.42.03-.07-.37-.26-.89-.46l.04-1.42c0 .1-3.01.39-3.03.95a169 169 0 0 1-.07 2.25c-1.44 3.5-3.03 6.95-4.52 10.43-.75 1.74-1.51 3.5-2.22 5.29-1.29.81-2.56 1.68-3.88 2.41-.16.09.98.29 1.09.3.39.05 1.22.24 1.73.15a41.67 41.67 0 0 0-1.37 4.76c-.07.33 2.99 1.13 3.01 1a51.8 51.8 0 0 1 2.76-8.39 25.81 25.81 0 0 1 2.99-1.62l-.25 8.47c0-.1 3.01-.39 3.03-.95l.25-8.56a9.44 9.44 0 0 0 2.36-1.12l-.03 1.56a8.42 8.42 0 0 0-.98 2.33c-.1.4.41 1.15.58 1.49l.44.66c.06 2.44.07 4.89-.55 7.25-.19.71.5 1.92.75 2.55.24.58.49 1.15.78 1.7-.04-.08.44.73.47.65.77-2.93.64-5.97.57-8.97-.04-1.94 0-3.87.05-5.8 1.72-2.19 4.27-3.69 6.21-5.82Zm-15.7 3.83a471.65 471.65 0 0 1 2.18-5.06l-.13 4.39c-.67.24-1.37.44-2.05.67Zm13.55-5.94c-1.27 1.23-2.7 2.29-3.97 3.46l.13-7.59a51.57 51.57 0 0 0 3.84 4.13Z"/><path fill="url(#d)" d="m53.23 24.07.07-.04c.04-.03 0-.05-.1-.08-.94-3.44-1.83-6.88-1.67-10.51 0-.1-.22-.2-.55-.29.13-.51.24-1.02.34-1.53-.01.07-3.06-.13-3.15.38-.64 3.55-2.16 6.88-3.47 10.22a50.47 50.47 0 0 0-1.84 5.53 9.2 9.2 0 0 0-2.37 2.29l-.17-2.65c-.27-3.74-1.44-7.35-1.92-11.06-.05-.38-2.91-1.25-2.99-1.08-1.78 4.23-3.14 8.64-4.58 12.99-1.26 3.81-2.41 7.83-4.35 11.36l-.39.12c.05-.02-.48.18-.43.22a10 10 0 0 1 2.4 2.37c.07.09.42 0 .48 0a9.48 9.48 0 0 0 2.61-.73c-.35-.45-.72-.9-1.12-1.3.9-.17 1.73-.5 2.71-.86 1.19-.44 2.47-1.05 3.64-1.51.53-.21 2.42-.75 2.32-.75.2 1.46.75 2.45.47 3.95-.02.08 1.97-.41 2.08-.44.29-.09 1.88-.45 1.95-.85.28-1.5-.38-2.79-.58-4.25a.37.37 0 0 0-.31-.01l-1.18.17a40.2 40.2 0 0 1-.64-5.36c.42.06 1.31.15 1.37.15l.34.02c-.3 1.59-.5 3.19-.56 4.82 0 .08 3.14.01 3.15-.38.09-2.41.48-4.75 1.07-7.04 1.45-1.02 3.14-1.72 4.79-2.49a44.12 44.12 0 0 1 1.26 6c.07.54 3.1.53 3.12.62-.33-2.72-1.08-5.36-1.81-8ZM35.21 37.03c-1.19.46-3.02 1.23-4.28 1.41a4.5 4.5 0 0 0-.39.07c1.27-2.84 2.18-5.89 3.15-8.81.94-2.82 1.83-5.66 2.82-8.46.34 1.68.66 3.37.81 5.08.3 3.32.3 6.58 1.19 9.81-1.08.2-2.16.46-3.3.9Zm11.27-11.21c.41-1.34.87-2.66 1.37-3.99l1.14-2.91c.34 1.66.79 3.3 1.24 4.95-1.18.77-2.47 1.36-3.76 1.95Z"/><path fill="url(#e)" d="m72.76 22.15.06-2.48c.01-.38-.77-1-1-1.24-.09-.09-1.23-.99-1.23-1.02-.04 1.25-.06 2.51-.08 3.76-.14-.03-.24-.04-.26 0-1.52 3.28-2.37 6.82-3.79 10.14l-.55 1.29.07-5.68.06-2.6c.01-.38-.77-1-1-1.24-.09-.09-1.23-.99-1.23-1.02-.03.91-.05 1.81-.06 2.72l-.12.01-.29.21a62.89 62.89 0 0 0-4.08-3.37l.02-.45c0-.17-.54-.32-1.18-.43l-1.69-1.27c-.5-.37-1.22-.56-1.81-.74a5.73 5.73 0 0 0-1.11-.18c.89.67 1.79 1.34 2.67 2.02-.12 3.76-.45 7.52-.65 11.28a9.05 9.05 0 0 0-1.53 2.87c-.11.35.69.92 1.38 1.39-.03 2.4.04 4.8.3 7.19.06.53 3.11.55 3.11.62-.4-3.6-.36-7.2-.18-10.8.55-.61 1.13-1.18 1.71-1.73 1.07-1 2.21-1.93 3.38-2.81-.04 3.4-.05 6.8-.12 10.2-.28.98-.5 1.97-.64 2.99-.05.36 1.48.84 2.34 1.1l.48.4v-.25l.08.03c.48-3.53 1.95-6.8 3.35-10.05.46-1.07.87-2.16 1.25-3.26-.02 3.76-.04 7.51-.14 11.27-.01.38.77 1 1 1.24.09.09 1.23.99 1.23 1.02.19-6.63.11-13.26.21-19.89l.41-.94c.02-.05-.14-.17-.39-.31Zm-13.89 6.33c.12-1.82.24-3.63.33-5.45 1.04.89 2.05 1.81 3.01 2.8a52.97 52.97 0 0 0-3.33 2.65Z"/><path fill="url(#f)" d="M92.41 21.61c-.53.05-1.47.03-1.93.34l-.57.38.26-8.96c0-.13-.09-.3-.25-.25-.72.22-2.65.57-2.67 1.08l-.03.9c-1.91 4.34-3.99 8.61-5.97 12.92-.96.66-1.91 1.33-2.84 2.04-.14.11 1.02.07 1.12.06l.78-.05-.75 1.69a19.15 19.15 0 0 0-2.19-2.84c-.25-.26-.6-.47-.96-.65 2.58-4.54 4.84-9.29 6.79-14.12.13-.32-.53-1.2-.68-1.45-.05-.09-.94-1.3-.95-1.28a118.91 118.91 0 0 1-6.17 13.01c-.01-1.5 0-3 .04-4.5.02-.7-.84-1.77-1.18-2.33-.08-.12-.96-1.39-.97-1.15-.1 3.81 0 7.63.11 11.44l-.18.31c-.1.17 0 .46.22.79.11 3.91.22 7.82.11 11.73-.02.7.84 1.77 1.18 2.33.08.12.96 1.39.97 1.15.13-4.8-.06-9.59-.19-14.39l.05-.08c.81 1.18 1.55 2.41 2.38 3.54l.62.82c-.86 2.04-1.68 4.1-2.42 6.19-.06.17.91-.47.99-.53.39-.29 1.29-.81 1.47-1.29.36-1.01.73-2.01 1.12-3a19.29 19.29 0 0 0 7.98 5.3c.79.22-.45-.52-.57-.58-2.44-1.28-4.28-3.66-5.85-5.85-.24-.33-.47-.67-.7-1.02.58-1.41 1.19-2.81 1.81-4.21 1.47-1.07 2.98-2.09 4.51-3.09l-.32 10.93c0-.19 2.92-.58 2.94-1.21l.34-11.64c1.23-.8 2.46-1.6 3.67-2.42.14-.1-1.01-.07-1.12-.06Zm-8.81 4.85c1.16-2.52 2.35-5.02 3.52-7.53l-.16 5.35-3.36 2.18Z"/><path fill="url(#b)" d="M33.4 9.04c-.06-.01.08.02 0 0Z"/><path fill="url(#g)" d="M89.73 4.71c.49-.92 4.7-2.93 7.64-4.71-2.76.67-11.68 2.3-15.58 3.28-5.37 1.35-11.75 1.33-15.44 1.09-3.62-.23-7.92-1.16-11.49-1.78-6.81-1.19-14.15-1.7-21.01-.66-6.92 1.05-13.63 3.52-20.11 6.1-3.65 1.45-7.36 3.45-11.23 4.26-.44.09-2.51-.08-2.51.64 0 .27.08.99.19 1.12.27.33 2.18-.3 3.03-.39-.02.47 0 .68 0 .95.01.25.09.7.08.94 0 .13-1.72.51-1.9.57-.74.25-1.35-.18-1.22.69.16 1.05-.12 1.64.43 1.73 1.05.18 1.59-.24 2.61-.47 1.32-.29 9.07-2.65 11.63-3.53 8.47-2.91 12.2-4.43 21.17-5.28 6.25-.59 11.18-.54 15.04.18 3.54.66 11.42 2.14 16.76 2.16a80.8 80.8 0 0 0 16.07-1.7c3.32-.76 14.6-3.6 16.12-3.69-1.49-.83-9.04-.52-10.27-1.51ZM32.94 9.04c.08.02-.06-.01 0 0Z"/></svg>