<svg xmlns="http://www.w3.org/2000/svg" xmlns:xlink="http://www.w3.org/1999/xlink" id="snow-city" viewBox="0 0 100 95.52"><defs><radialGradient id="New_Gradient_Swatch_3" cx="48.65" cy="31.63" r="45.63" data-name="New Gradient Swatch 3" fx="48.65" fy="31.63" gradientUnits="userSpaceOnUse"><stop offset="0" stop-color="#f05a28"/><stop offset="1" stop-color="#be1e2d"/></radialGradient><radialGradient xlink:href="#New_Gradient_Swatch_3" id="New_Gradient_Swatch_3-2" cx="48.65" cy="31.63" r="45.63" data-name="New Gradient Swatch 3" fx="48.65" fy="31.63"/><radialGradient xlink:href="#New_Gradient_Swatch_3" id="New_Gradient_Swatch_3-3" cx="48.65" cy="31.63" r="45.63" data-name="New Gradient Swatch 3" fx="48.65" fy="31.63"/><radialGradient xlink:href="#New_Gradient_Swatch_3" id="New_Gradient_Swatch_3-4" cx="48.65" cy="31.63" r="45.63" data-name="New Gradient Swatch 3" fx="48.65" fy="31.63"/><radialGradient xlink:href="#New_Gradient_Swatch_3" id="New_Gradient_Swatch_3-5" cx="48.65" cy="31.63" r="45.63" data-name="New Gradient Swatch 3" fx="48.65" fy="31.63"/><radialGradient xlink:href="#New_Gradient_Swatch_3" id="New_Gradient_Swatch_3-6" cx="48.65" cy="31.63" r="45.63" data-name="New Gradient Swatch 3" fx="48.65" fy="31.63"/><radialGradient xlink:href="#New_Gradient_Swatch_3" id="New_Gradient_Swatch_3-7" cx="48.65" cy="31.63" r="45.63" data-name="New Gradient Swatch 3" fx="48.65" fy="31.63"/><style>.cls-5{fill:#231f20}.cls-8{fill:#be1e2d}</style></defs><path d="M34.67 83.49c-.33 0-.46.03-.59.1-.83.4-2.15 1.02-4.81 1.47 0 .53.1 1.04.38 1.04.26 0 1.7-.28 2.58-.69 0 1.75-.16 4.74-.16 5.88 0 .45.25.64.46.64.12 0 1.24-.12 1.98-.2.28-.03.35-.28.35-.61 0-.21-.05-1.44-.05-2.36 0-1.83.22-4.08.22-4.61 0-.43-.03-.66-.35-.66ZM41.8 83.49c-.33 0-.46.03-.59.1-.83.4-2.15 1.02-4.81 1.47 0 .53.1 1.04.38 1.04.27 0 1.7-.28 2.58-.69 0 1.75-.16 4.74-.16 5.88 0 .45.25.64.46.64.12 0 1.24-.12 1.98-.2.28-.03.35-.28.35-.61 0-.21-.05-1.44-.05-2.36 0-1.83.21-4.08.21-4.61 0-.43-.03-.66-.35-.66ZM50.77 86.43c1.21 0 2.92-1.14 3.63-2.74l-.61-.53c-.28.68-.73 1.17-1.11 1.17-1.04 0-2.94-.68-5.43-.68h-1.97l-.21.26c.25.55.31 1.19.31 1.88 0 1.06-.17 2.2-.17 3.2 0 .33.02.64.07.94l.48.2c.73-.4 2.69-.83 3.04-.83.94 0 2.31 1.45 2.31 4.16 0 .35-.2.36-.31.36-.93 0-3.11-1.52-4.59-1.52-.68 0-2.16 1.31-3.11 2.16h.02l.36.56c.64-.61 1.35-1.01 2.11-1.01.96 0 2.64 1.47 4.24 1.47.99 0 1.75-.5 2.48-1.14.66-.58 1.68-1.57 1.68-2.56 0-1.17-.64-2.87-2.01-3.75-.33-.21-.89-.3-1.57-.3-1.16 0-2.63.25-3.86.51l.25-2.92c1.27 0 2.33 1.07 3.96 1.07ZM61.57 79.93c-2.84 1.27-5.28 3.01-5.28 7.14 0 1.06 1.14 5.1 2.92 5.1.28 0 .58-.07.91-.25l2.13-1.14c1.78-.96 2.66-3.22 2.66-5.72 0-2.99-1.32-4.64-3.34-5.14Zm-.21 9.99c-1.45 0-2.96-1.88-2.96-4.71 0-1.45.31-3.02 1.14-3.02 1.92 0 3.06 1.92 3.06 5.15 0 1.12-.4 2.58-1.24 2.58Z" class="cls-8"/><path d="M13.82 61.88c-.15 0-.87.09-4.1.57-.21.84-.39 2.35-.48 4.34-2.38 1.48-3.47 2.05-4.1 2.05-.15 0-.24-.09-.24-.21 0-1.12.97-4.37.97-5.43 0-.57-.21-.84-.72-.84-.18 0-2.62.18-3.86.27A48.42 48.42 0 0 0 .02 73.94c0 1.15.06 2.35.21 3.17l4.31-.42v-3.14c0-.48.06-1.93.12-2.59l3.83-2.14a.8.8 0 0 1 .36-.09c.21 0 .36.18.36.64v2.68c0 1.96.09 4.65.72 4.8.97.21 1.84.27 2.5.27.72 0 1.15-.24 1.15-1.06 0-.45-.24-6.73-.24-6.94a22 22 0 0 1 .75-6.03c.03-.12.09-.39.09-.57 0-.33-.09-.63-.36-.63ZM24.29 62.5c-3.55 0-6.89 1.15-6.89 5.38l3.06-.29a5.9 5.9 0 0 1-.08-.91c0-2.19 1.41-3.21 3.89-3.21 2.3 0 3.84 3.32 3.84 5.48 0 1.41-.68 2.85-1.49 2.85-1.59 0-1.83-.99-2.98-.99-1.3 0-2.59.47-2.59 2.12 0 .7.89 1.2 1.41 1.2.71 0 1.78-.24 2.22-.24 1.28 0 1.88.6 1.88 2.82 0 1.77-1.33 3.66-1.88 3.66-1.15 0-3.5-3.11-6.19-3.11-.94 0-2.45 1.05-3.11 1.88l.23.42c.5-.34 1.46-.55 1.93-.55 1.38 0 3.26 3.66 5.04 3.66 1.28 0 3.66-1.54 5.41-2.71 1.15-.78 1.62-3.45 1.62-4.44 0-2.27-1.93-2.51-1.93-3 0-.63 3.71-1.57 3.71-4.31 0-3.63-3.55-5.69-7.1-5.69ZM43 62.19c-2.02 0-4.04.09-5.43.27-1.12.15-1.96 1.45-2.2 2.69-.54 2.77-1.48 8.38-1.48 10.29 0 1.54.6 1.87 1.6 1.87.39 0 .78-.06 1.15-.12h8.08c.6 0 1.12-.42 1.12-1.27 0-.24-1.48-6.51-3.5-6.51-.21 0-.42.06-.66.18l-2.93 1.54c-.06-.06-.24-.18-.24-.39 0-1.39.54-3.56.84-4.71.48-1.75 1.21-2.8 3.17-2.8 1.66 0 1.66 2.8 2.87 2.8.69 0 3.26-2.56 3.26-3.23 0-.54-3.2-.6-5.64-.6Zm-3.4 9.5c.87 0 1.48 1.39 1.48 2.65 0 1-.39 1.93-1.3 1.93s-1.36-1.21-1.36-2.41c0-1.12.39-2.17 1.18-2.17ZM57.36 62.99c-4.52 1.66-8.44 3.86-8.44 9.17 0 1.36 1.84 6.58 4.67 6.58.45 0 .94-.09 1.45-.3l3.41-1.48c2.62-1.14 4.22-4.1 4.22-7.36 0-3.83-2.08-5.97-5.31-6.61Zm-.33 12.84c-2.32 0-4.71-2.41-4.71-6.06 0-1.84.48-3.86 1.81-3.86 3.05 0 4.86 2.44 4.86 6.61 0 1.48-.63 3.32-1.96 3.32ZM71.07 60.96c-2.02 0-5.22 4.13-5.22 7.69 0 4.28 1.51 12.22 1.51 15.87 0 2.2-.18 5.64-.93 7.42l.72.15 1.54-1.27c.72-2.08 1.09-5.16 1.09-8.69 0-2.53-.18-3.41-.39-5.58 2.11 0 3.26-4.98 3.26-7.51 0-5.1-.9-8.08-1.57-8.08Zm-1.9 12.25c-.63-.9-.75-3.71-.75-5.04 0-.87.12-1.57.48-1.57.66-.03 1.69 2.14 1.69 4.01 0 .84-.27 2.35-1.42 2.59ZM80.76 67.92l1.09-.27c.39-.97.78-3.14.78-4.01s-.48-1.06-.9-1.06c-3.14 0-5.85 3.5-5.85 8.2 0 2.29.48 4.68 1 6.91.27.36.81.48 1.24.48 2.29 0 3.77-3.62 3.77-5.25 0-.39 0-.81-.57-.81-.42 0-1.57 1.09-1.78 1.09-.66 0-.72-1.48-.72-2.08 0-2.08.75-2.93 1.96-3.2ZM99.76 62.28c-.42 0-.84.48-1.54.48-1.03 0-1.87-.57-2.99-.57-1.33 0-2.26.69-3.08 1.75-.63.78-1.6 2.08-2.26 3.22.11-1.27.29-2.47.61-3.77.03-.15.09-.36.09-.6 0-.27-.09-.54-.33-.54-.15 0-.94.09-4.07.57-.39 1.51-.51 3.14-.51 8.72 0 3.41.21 5.76.93 5.76.15 0 1.87-.15 2.99-.27.21-.03.39-.21.39-.66 0-.69-.21-5.25-.21-6.36.13.19.25.38.32.52 1.18 2.2 1.63 4.61 2.2 6.51.12.15.24.24.33.27l3.98-.24c.12 0 .21-.15.21-.24 0-.06-1.78-8.69-4.89-8.69-.57 0-.88-.09-.88-.36 0-.87 1.93-2.96 3.38-2.96 1.12 0 1.15.57 2.96.57 1 0 2.6-2.14 2.6-2.83 0-.15-.06-.27-.24-.27Z" class="cls-5"/><path fill="url(#New_Gradient_Swatch_3)" d="M81.88 24.28c-.89-.5-2.14-1.38-3.46-2.01a9.83 9.83 0 0 0-2.26-.73 12.21 12.21 0 0 0-7.58.89c-.54.24-1.07.52-1.58.82 1.36.63 2.24 1.37 3.54 1.78-.82-.23-1.57-.16-2.34-.09-.78.09-1.59.21-2.58.28l-1.69.11c-2.57 2.04-4.36 3.91-4.37 3.89l-5.13 5.12a42.5 42.5 0 0 1-4.79 4.11c1.62.71 3.25 1.43 5.12 2.05a29.1 29.1 0 0 0-6.37-1.16l-4.02 2.83-.74.53c0 .21-.02.41-.03.61a27.56 27.56 0 0 1-.26 2.4c-.24 1.64-.95 2.59-.95 3.92-.11-1.33-.94-2.17-1.46-3.7a23.8 23.8 0 0 1-.32-.98c-.79.6-1.44 1.12-1.92 1.51l-6.73 5.55-2.12 1.7c2.62.02 4.67.44 5.52 1.91 2-5.6 45.65-3.7 53.48-4.06a399.4 399.4 0 0 1-.38-24.61 22.57 22.57 0 0 1-6.6-2.64Z"/><path fill="url(#New_Gradient_Swatch_3-2)" d="M16.82 40.89c.6-.43 1.44-1.03 2.51-1.73a32.7 32.7 0 0 1 3.96-2.21c.63-.32 1.86-.77 1.87-.77 0 0 1.05-.41 1.76-.6 2.49-.73 4.86-.98 6.79-1.01 1.94-.03 3.48.13 4.49.25l.44.07c-.08-.85-.17-2.23-.17-3.72a29 29 0 0 1 .46-5.12c-1.68-.32-2.79-.89-4.3-.88 1.69-.12 2.8-.93 4.8-1.41l.18-.04c.36-.82.74-1.49.86-2.34a4.8 4.8 0 0 0 .43 2.05l1.47-.3a95.3 95.3 0 0 1 4.33-.72c-.07-.3-.16-.79-.27-1.38l-.18-1.06-.09-.56.01-.02h-.01l-.08-.05a2.4 2.4 0 0 1-.21-.13c-.14-.09-.26-.19-.38-.29a4.37 4.37 0 0 1-.99-1.29c-.44-.86-.42-1.64-.42-1.63 0 0-.01-.16.02-.46.04-.29.13-.75.44-1.24l.18-.26.18-.23A5.05 5.05 0 0 1 47 12.2l.12-.05.09-.03c.11-.04.23-.11.34-.18.22-.15.45-.36.64-.59.39-.46.66-.97.79-1.22l.68-1.24c.19-.39.36-.77.36-1.25.03.93.42 1.62.36 2.86l.26.24c.25.19.52.34.83.54.16.11.48.31.9.55.42.24.95.53 1.49.96.54.42 1.09 1.1 1.31 1.74.23.63.2 1.06.21 1.05 0 0 .04.4-.07 1-.06.3-.17.7-.43 1.11-.25.41-.67.79-1.06.99-.39.21-.73.31-.98.38l-.32.09s-.09.03-.11.02l-.08.04h-.01l-.04-.05-.02.03-.14.36-.33.96c-.05.15-.09.3-.1.46v.23l.02.1v-.11c0 .04.02.08 0 .12h-.01c-.04-.02-.04-.06-.07-.09a32.32 32.32 0 0 0-.41-.6c-.2-.27-.4-.57-.55-1.02-.03-.12-.09-.31-.11-.57a2.54 2.54 0 0 1 0-.48 1.52 1.52 0 0 1 .5-.97l.08-.09.24-.21.44-.32c.28-.19.49-.33.6-.44.11-.11.11-.16.12-.21l.04-.24.02-.36s0-.13-.05-.29a2.23 2.23 0 0 0-.47-.8c-.31-.38-.75-.85-1.09-1.33a5.89 5.89 0 0 1-.68-1.16c-.06-.17-.1-.32-.13-.47-.06.21-.13.43-.23.67a4.22 4.22 0 0 1-1.49 1.87c-.06.05-.13.08-.19.12l-.16.1-.18.13a3.3 3.3 0 0 0-.85.91l-.12.17-.08.12c-.02.03-.03.16-.02.16 0 0-.02.14.13.49.07.17.2.37.35.54l.11.12.06.05.18.15c.34.29.58.49.88.77l.02.61v.3l.02.15c0 .05 0 .1-.03.15l-.04.61a26.1 26.1 0 0 1-.3 2.33c2.34-.28 4.23-.4 4.23-.41l1.74-.12c1.07-.06 2.48-.13 4.08-.11.88.02 1.78.08 2.64.18l.3-.24a26.91 26.91 0 0 1 5.44-3.35 17.04 17.04 0 0 1 10.37-1.2c1.22.23 2.39.63 3.35 1.09.97.46 1.73.93 2.36 1.32l1.51.93c1.43.87 2.69 1.53 3.94 2.13l.36.17c.09-4.17.24-8.28.43-12.24-.87-17.31-18.92-.42-25.06-10.35-8.54 14.27-46.41-12.71-55.42 9.79C11.3 19.1 3.16 37.34 7.78 48c.69-.48 1.35-.98 2.02-1.5 2.09-1.63 4.11-3.47 7.02-5.6Z"/><path fill="url(#New_Gradient_Swatch_3-3)" d="M35.75 42.85c.8-.67 2.05-1.66 3.61-2.82l-.21-1.12-1.24-.02c-1.84 0-5.55-.03-9.68 1.18-.59.17-1.48.46-1.48.46l-1.59.63c-2.72 1.16-4.89 2.46-6.17 3.15a50.55 50.55 0 0 1-10.77 4.62c.5.93 1.1 1.81 1.84 2.59 3.52 3.73 11.03 2.59 17.02 2.23a32.2 32.2 0 0 1 8.65-10.93Z"/><path fill="url(#New_Gradient_Swatch_3-4)" d="M52.81 26.43s-2.74.24-5.78.23a62.38 62.38 0 0 1-5.21-.23c.28 1.17.64 2.83.91 4.4.4 2.31.61 4.43.61 4.43l.08.73 1.08.36 2.06-1.45a36.56 36.56 0 0 0 4.62-3.92l4.89-4.86c-.55.06-1.07.12-1.51.15l-1.74.14Z"/><path fill="url(#New_Gradient_Swatch_3-5)" d="M2.85 50.63c1.91-.66 3.66-1.16 5.39-1.69a13.9 13.9 0 0 1-.46-.95 21.23 21.23 0 0 1-4.94 2.64Z"/><path fill="url(#New_Gradient_Swatch_3-6)" d="M91.8 24.06c-1.06-.47-2.14-.95-3.25-1.47l-.08 4.33c.84.19 1.65.33 2.45.43 2.75.32 5.35.23 8.4-.08a325.19 325.19 0 0 1-7.52-3.2Z"/><path fill="url(#New_Gradient_Swatch_3-7)" d="M27.1 53.77a67.2 67.2 0 0 0-1.53 3.35l4.28-3.44c-.86 0-1.79.03-2.75.09Z"/></svg>