<svg xmlns="http://www.w3.org/2000/svg" id="snow-city" viewBox="0 0 100 100"><defs><style>.cls-1{fill:#00aeef}.cls-2{fill:#ec008c}</style></defs><path d="M16.43 87.24v10.4h-2.97v-8.72l-3.07 8.72H6.21l-3.07-8.72v8.72H.17v-10.4h5.41l2.75 8.59 2.69-8.59h5.41ZM19.46 87.24h10.6v2.41h-7.5v1.58h5.85v2.26h-5.85v1.75h7.79v2.41H19.47v-10.4ZM45.96 95.11V100h-2.9v-2.36H34.9V100H32v-4.89h1.23c.67-.68 1.2-2.54 1.35-7.88h9.99v7.88h1.38Zm-4.48-5.35h-4.12c-.1 1.11-.27 2.45-.55 3.52a8.7 8.7 0 0 1-.64 1.83h5.31v-5.35ZM60.71 87.24v10.4h-3.02v-8.22l-4.79 8.22h-4.76v-10.4h3.02v8.22l4.79-8.22h4.76ZM72.58 95.63h-6l-.85 2.01h-3.05l4.56-10.4H72l4.58 10.4h-3.15l-.85-2.01Zm-.98-2.32-2.02-4.76-2.01 4.76h4.03ZM87.68 94.34c0 2.19-1.9 3.48-4.86 3.48-3.37 0-5.17-1.62-5.17-5.14s1.92-5.62 5.22-5.62c2.57 0 4.07 1.14 4.27 2.84l-1.01.04c-.16-1.14-1.34-2.01-3.25-2.01-2.6 0-4.16 1.65-4.16 4.64l.01.44c.59-1.35 2.23-2.1 4.32-2.1 2.65 0 4.64 1.19 4.64 3.42Zm-1.07 0c0-1.56-1.5-2.59-3.79-2.59s-3.8 1.03-3.8 2.59 1.53 2.6 3.8 2.6 3.79-1.03 3.79-2.6ZM94.92 87.06c3.19 0 5.08 2.07 5.08 5.38s-1.89 5.38-5.08 5.38-5.08-2.07-5.08-5.38 1.9-5.38 5.08-5.38Zm0 9.88c2.63 0 4.03-1.81 4.03-4.5s-1.4-4.5-4.03-4.5-4.01 1.81-4.01 4.5 1.4 4.5 4.01 4.5ZM3.87 82.72H1.1l-.52 1.03H0l2.06-4.02h.86l2.06 4.02h-.6l-.52-1.03Zm-.23-.44-1.16-2.29-1.16 2.29h2.32ZM9.92 79.73v4.02h-.57v-1.81H6.21v1.81h-.57v-4.02h.57v1.74h3.14v-1.74h.57ZM13.17 79.66c1.61 0 2.48.88 2.48 2.08s-.87 2.08-2.48 2.08-2.47-.89-2.47-2.08.87-2.08 2.47-2.08Zm0 3.69c1.25 0 1.9-.71 1.9-1.61s-.65-1.61-1.9-1.61-1.9.71-1.9 1.61c0 .9.65 1.61 1.9 1.61ZM22.86 79.73v4.02h-.87v-3.43l-2.38 3.43h-1.38v-4.02h.87v3.43l2.38-3.43h1.38ZM27.92 82.69c0 .79-.89 1.13-2.16 1.13-1.37 0-2.14-.41-2.26-1.32l.86-.03c.08.42.54.65 1.4.65.81 0 1.26-.21 1.26-.55s-.41-.54-1.27-.54h-.68v-.67h.64c.77 0 1.14-.2 1.14-.51 0-.32-.42-.51-1.09-.51s-1.19.16-1.29.59l-.85-.04c.12-.84.97-1.24 2.14-1.24 1.1 0 1.99.29 1.99 1.05 0 .55-.44.88-1.35.97.9.07 1.52.35 1.52 1.01ZM33.52 83.02v1.66h-.83v-.93h-3.53v.93h-.83v-1.66h.43c.36-.41.53-1.36.61-3.29h3.65v3.29h.5Zm-1.4-2.55h-1.95c-.04.52-.11 1.16-.23 1.7-.09.35-.19.64-.31.86h2.5v-2.55ZM37.73 82.86h-2.54l-.42.9h-.89l1.91-4.02h1.37l1.91 4.02h-.92l-.42-.9Zm-.31-.68-.96-2.07-.96 2.07h1.92ZM38.69 79.73h4.4v.74h-1.75v3.29h-.9v-3.29h-1.75v-.74ZM43.68 79.73h3.89v.7h-2.99v.94h2.36v.66h-2.36v1.01h3.1v.7h-4v-4.02ZM53.02 79.73v4.02h-.9v-3.29h-2.08c-.12 2.03-.03 3.32-1.38 3.32-.11 0-.33 0-.52-.02v-.73c.13.02.22.02.29.02.79 0 .69-1.22.8-3.32h3.79ZM58.21 82.49c0 .88-.65 1.26-1.56 1.26H54v-4.02h.9v1.48h1.75c.89 0 1.56.38 1.56 1.28Zm-.9-.01c0-.37-.28-.55-.71-.55h-1.7v1.09h1.7c.42 0 .71-.17.71-.54ZM63.52 82.38c-.15.9-.93 1.45-2.29 1.45-1.64 0-2.54-.82-2.54-2.08s.89-2.08 2.47-2.08c1.28 0 2.12.54 2.29 1.37l-.86.06c-.13-.42-.7-.7-1.43-.7-1.03 0-1.58.57-1.58 1.35s.56 1.35 1.64 1.35c.82 0 1.31-.34 1.43-.76l.87.04ZM67.67 83.76l-1.75-1.68h-.84v1.68h-.9v-4.02h.9v1.66h.83l1.66-1.66h1.09l-2.03 1.94 2.2 2.08h-1.15ZM74.04 79.73v4.02h-.87v-3.43l-2.38 3.43h-1.38v-4.02h.87v3.43l2.38-3.43h1.38ZM79.66 79.73v4.02h-.87v-3.43l-2.38 3.43h-1.38v-4.02h.87v3.43l2.38-3.43h1.38Zm-3.54-1.16h.58c.02.21.17.37.64.37s.61-.17.64-.37h.58c-.02.52-.36.84-1.22.84s-1.2-.33-1.23-.84ZM87.19 83.02v1.66h-.83v-.93h-3.53v.93H82v-1.66h.43c.36-.41.53-1.36.61-3.29h3.65v3.29h.5Zm-1.4-2.55h-1.95c-.04.52-.11 1.16-.23 1.7-.09.35-.19.64-.31.86h2.5v-2.55ZM90.06 79.66c1.64 0 2.58.83 2.58 2.08s-.94 2.08-2.58 2.08-2.58-.83-2.58-2.08.93-2.08 2.58-2.08Zm0 3.44c1.1 0 1.68-.57 1.68-1.35s-.59-1.35-1.68-1.35-1.68.57-1.68 1.35.58 1.35 1.68 1.35ZM99.44 79.73v4.02h-.87v-3.57l-1.56 3.57h-1.22l-1.56-3.56v3.56h-.86v-4.02h1.57l1.47 3.54 1.46-3.54h1.57Z"/><path d="M84.18 20.17a5.13 5.13 0 1 1-10.26 0 5.13 5.13 0 0 1 10.26 0ZM84.18 35.22a5.13 5.13 0 1 1-5.11-5.16 5.13 5.13 0 0 1 5.11 5.16ZM79.06 45.04c2.84 0 5.12 2.3 5.12 5.15a5.12 5.12 0 1 1-10.27-.03c0-2.85 2.3-5.13 5.15-5.12ZM84.18 65.23a5.13 5.13 0 1 1-10.28-.07c0-2.83 2.32-5.1 5.17-5.09a5.12 5.12 0 0 1 5.11 5.16ZM79.03 10.27A5.12 5.12 0 1 1 79.06 0a5.13 5.13 0 0 1-.03 10.27ZM71.54 17.58c-2.71 0-4.94-2.22-4.94-4.93s2.23-4.94 4.94-4.93a4.94 4.94 0 0 1 0 9.86Z" class="cls-2"/><path d="M71.53 32.61c-2.71 0-4.94-2.23-4.94-4.94s2.24-4.94 4.94-4.93 4.91 2.22 4.92 4.92a4.94 4.94 0 0 1-4.92 4.95ZM76.46 57.67c0 2.71-2.22 4.94-4.93 4.94s-4.94-2.23-4.94-4.94 2.21-4.91 4.91-4.93a4.98 4.98 0 0 1 4.96 4.93Z" class="cls-2"/><path d="M71.53 37.78a4.96 4.96 0 0 1 4.93 4.95 4.94 4.94 0 0 1-4.95 4.86 4.94 4.94 0 0 1-4.91-4.87 4.96 4.96 0 0 1 4.93-4.94ZM59.3 20.16c0-2.62 2.1-4.71 4.71-4.7 2.61 0 4.7 2.1 4.69 4.72a4.7 4.7 0 1 1-9.4-.02Z" class="cls-1"/><path d="M68.71 35.2c0 2.61-2.1 4.7-4.72 4.7s-4.7-2.1-4.69-4.72c0-2.6 2.1-4.68 4.7-4.68a4.68 4.68 0 0 1 4.71 4.7ZM64.01 54.88a4.68 4.68 0 0 1-4.7-4.71c0-2.61 2.1-4.7 4.72-4.69a4.7 4.7 0 1 1-.02 9.4Z" class="cls-2"/><path d="M68.71 65.2c0 2.62-2.1 4.71-4.71 4.71s-4.7-2.1-4.7-4.72a4.7 4.7 0 0 1 9.41.01Z" class="cls-1"/><path d="M60.97 27.85c-.17 2.54-2.25 4.47-4.64 4.32-2.54-.17-4.47-2.25-4.32-4.64.17-2.54 2.25-4.47 4.64-4.32a4.49 4.49 0 0 1 4.32 4.64ZM56.35 53.21a4.49 4.49 0 0 1 4.62 4.34 4.49 4.49 0 0 1-4.34 4.62 4.49 4.49 0 0 1-4.62-4.34 4.5 4.5 0 0 1 4.34-4.62Z" class="cls-2"/><path d="M56.32 47.13a4.45 4.45 0 1 1 .32-8.9c2.54.17 4.47 2.25 4.32 4.64a4.49 4.49 0 0 1-4.64 4.25ZM48.97 30.96c2.33 0 4.25 1.91 4.25 4.24s-1.91 4.25-4.24 4.25-4.25-1.91-4.25-4.24 1.91-4.25 4.24-4.25Z" class="cls-1"/><path d="M48.98 54.42a4.28 4.28 0 0 1-4.26-4.23c0-2.32 1.9-4.25 4.23-4.26 2.32 0 4.25 1.9 4.26 4.23a4.27 4.27 0 0 1-4.23 4.26Z" class="cls-2"/><path d="M53.22 65.21a4.26 4.26 0 0 1-4.25 4.24 4.26 4.26 0 0 1-4.24-4.25 4.26 4.26 0 0 1 4.25-4.24 4.26 4.26 0 0 1 4.24 4.25Z" class="cls-1"/><path d="M45.44 27.67a4 4 0 0 1-3.98 4 4 4 0 0 1-4-3.98 4 4 0 0 1 3.98-4 4 4 0 0 1 4 3.98Z" class="cls-2"/><path d="M41.42 61.67a4 4 0 1 1 .09-7.99 4 4 0 0 1-.09 7.99Z" class="cls-1"/><path d="M41.42 46.64a4 4 0 0 1-3.95-3.96 4 4 0 0 1 7.98.08 4 4 0 0 1-4.03 3.88Z" class="cls-2"/><path d="M33.94 23.86a3.7 3.7 0 0 1-3.71-3.69c0-2.07 1.64-3.72 3.71-3.72s3.69 1.65 3.69 3.71-1.63 3.7-3.69 3.7ZM33.94 31.5c2.06 0 3.7 1.64 3.7 3.7s-1.65 3.72-3.72 3.71a3.67 3.67 0 0 1-3.68-3.71c0-2.06 1.64-3.7 3.7-3.7Z" class="cls-1"/><path d="M33.93 46.47a3.68 3.68 0 0 1 3.71 3.69c0 2.07-1.64 3.72-3.71 3.72s-3.7-1.65-3.7-3.7a3.69 3.69 0 0 1 3.7-3.71ZM37.64 65.2a3.68 3.68 0 0 1-3.69 3.71c-2.07 0-3.72-1.64-3.72-3.71s1.65-3.7 3.7-3.7 3.71 1.64 3.71 3.7Z" class="cls-2"/><path d="M29.83 12.64a3.4 3.4 0 1 1-6.82 0 3.41 3.41 0 0 1 6.82 0Z" class="cls-1"/><path d="M29.83 27.68a3.41 3.41 0 1 1-6.82.02 3.41 3.41 0 0 1 6.82-.02Z" class="cls-2"/><path d="M29.83 57.69a3.41 3.41 0 1 1-6.81-.03 3.41 3.41 0 0 1 6.81.03Z" class="cls-1"/><path d="M26.41 46.06a3.4 3.4 0 0 1-3.4-3.36 3.41 3.41 0 0 1 6.82.04 3.4 3.4 0 0 1-3.42 3.32Z" class="cls-2"/><path d="M18.91 38.21c-1.71 0-3.08-1.37-3.08-3.08s1.37-3.08 3.08-3.08 3.08 1.37 3.08 3.08-1.37 3.08-3.08 3.08ZM15.83 5.04a3.06 3.06 0 0 1 3.11-3.05 3.06 3.06 0 0 1 3.05 3.11 3.06 3.06 0 0 1-3.11 3.05 3.05 3.05 0 0 1-3.05-3.11Z" class="cls-1"/><path d="M18.89 17.02a3.06 3.06 0 0 1 3.09 3.07 3.06 3.06 0 0 1-3.07 3.09 3.07 3.07 0 1 1-.02-6.16Z" class="cls-2"/><path d="M21.99 50.12a3.07 3.07 0 0 1-3.09 3.07 3.07 3.07 0 0 1-3.07-3.09c0-1.71 1.38-3.07 3.09-3.07s3.07 1.37 3.07 3.09ZM21.99 65.17a3.06 3.06 0 0 1-3.11 3.05 3.06 3.06 0 0 1-3.05-3.11 3.06 3.06 0 0 1 3.11-3.05 3.06 3.06 0 0 1 3.05 3.11Z" class="cls-1"/></svg>