<svg xmlns="http://www.w3.org/2000/svg" xmlns:xlink="http://www.w3.org/1999/xlink" viewBox="0 0 100 31.15"><defs><radialGradient id="New_Gradient_Swatch" cx="50.24" cy="10" r="4.75" data-name="New Gradient Swatch" fx="50.24" fy="10" gradientUnits="userSpaceOnUse"><stop offset="0" stop-color="#72a6d0"/><stop offset=".33" stop-color="#4099ce"/><stop offset=".69" stop-color="#376fbf"/><stop offset="1" stop-color="#374287"/></radialGradient><radialGradient xlink:href="#New_Gradient_Swatch" id="New_Gradient_Swatch-2" cx="43.96" cy="5.74" r="5.3" data-name="New Gradient Swatch" fx="43.96" fy="5.74"/><radialGradient id="radial-gradient" cx="38.25" cy="10.5" r="5.32" fx="38.25" fy="10.5" gradientUnits="userSpaceOnUse"><stop offset="0" stop-color="#72a6d0"/><stop offset=".33" stop-color="#4099ce"/><stop offset=".69" stop-color="#376fbf"/><stop offset=".94" stop-color="#374287"/></radialGradient><radialGradient xlink:href="#New_Gradient_Swatch" id="New_Gradient_Swatch-3" cx="41.3" cy="16.15" r="4.79" data-name="New Gradient Swatch" fx="41.3" fy="16.15"/><radialGradient xlink:href="#New_Gradient_Swatch" id="New_Gradient_Swatch-4" cx="47.9" cy="16.05" r="5.15" data-name="New Gradient Swatch" fx="47.9" fy="16.05"/><radialGradient id="radial-gradient-2" cx="42.49" cy="10.1" r="7.07" fx="42.49" fy="10.1" gradientTransform="rotate(3.3 18.53 35.06)" gradientUnits="userSpaceOnUse"><stop offset="0" stop-color="#2b235e"/><stop offset="1" stop-color="#fff"/></radialGradient><radialGradient xlink:href="#radial-gradient-2" id="radial-gradient-3" cx="33.42" cy="2.78" r="7.07" fx="33.42" fy="2.78" gradientTransform="matrix(.866 .08 -.112 .894 15.54 6.57)"/><radialGradient xlink:href="#radial-gradient-2" id="radial-gradient-4" cx="40.4" cy="-1.13" r="7.07" fx="40.4" fy="-1.13" gradientTransform="matrix(.859 .048 -.05 .859 9.12 11.5)"/><radialGradient xlink:href="#radial-gradient-2" id="radial-gradient-5" cx="36.43" cy="3.9" r="7.07" fx="36.43" fy="3.9" gradientTransform="matrix(.87 .03 -.072 .908 12.83 7.38)"/><radialGradient xlink:href="#radial-gradient-2" id="radial-gradient-6" cx="42.49" cy="10.1" r="7.07" fx="42.49" fy="10.1"/><radialGradient xlink:href="#radial-gradient-2" id="radial-gradient-7" cx="42.49" cy="10.1" r="7.07" fx="42.49" fy="10.1"/><radialGradient xlink:href="#radial-gradient-2" id="radial-gradient-8" cx="42.58" cy="10.1" r="7.07" fx="42.58" fy="10.1"/><radialGradient xlink:href="#radial-gradient-2" id="radial-gradient-9" cx="42.58" cy="10.1" r="7.07" fx="42.58" fy="10.1"/><radialGradient xlink:href="#radial-gradient-2" id="radial-gradient-10" cx="42.58" cy="10.1" r="7.07" fx="42.58" fy="10.1"/><radialGradient xlink:href="#radial-gradient-2" id="radial-gradient-11" cx="42.58" cy="10.1" r="7.07" fx="42.58" fy="10.1"/><radialGradient xlink:href="#radial-gradient-2" id="radial-gradient-12" cx="42.58" cy="10.1" r="7.07" fx="42.58" fy="10.1"/><radialGradient xlink:href="#radial-gradient-2" id="radial-gradient-13" cx="42.49" cy="10.1" r="7.07" fx="42.49" fy="10.1"/><radialGradient xlink:href="#radial-gradient-2" id="radial-gradient-14" cx="42.37" cy="10.31" r="7.07" fx="42.37" fy="10.31"/><radialGradient xlink:href="#radial-gradient-2" id="radial-gradient-15" cx="42.49" cy="10.3" r="7.07" fx="42.49" fy="10.3"/><radialGradient xlink:href="#radial-gradient-2" id="radial-gradient-16" cx="42.49" cy="10.1" r="7.07" fx="42.49" fy="10.1"/><radialGradient xlink:href="#radial-gradient-2" id="radial-gradient-17" cx="42.49" cy="10.1" r="7.07" fx="42.49" fy="10.1"/><radialGradient xlink:href="#radial-gradient-2" id="radial-gradient-18" cx="45.03" cy="18.79" r="7.07" fx="45.03" fy="18.79" gradientTransform="rotate(-2.6 -120.08 37.5)"/><radialGradient xlink:href="#radial-gradient-2" id="radial-gradient-19" cx="42.49" cy="10.1" r="7.07" fx="42.49" fy="10.1"/><radialGradient xlink:href="#radial-gradient-2" id="radial-gradient-20" cx="42.49" cy="10.1" r="7.07" fx="42.49" fy="10.1"/><radialGradient xlink:href="#radial-gradient-2" id="radial-gradient-21" cx="20.44" cy="-13.41" r="7.07" fx="20.44" fy="-13.41" gradientTransform="rotate(20.6 -35.64 62.87)"/><radialGradient xlink:href="#radial-gradient-2" id="radial-gradient-22" cx="42.49" cy="10.1" r="7.07" fx="42.49" fy="10.1"/><radialGradient xlink:href="#radial-gradient-2" id="radial-gradient-23" cx="42.49" cy="10.1" r="7.07" fx="42.49" fy="10.1"/><radialGradient xlink:href="#radial-gradient-2" id="radial-gradient-24" cx="42.49" cy="10.1" r="7.07" fx="42.49" fy="10.1"/><radialGradient xlink:href="#radial-gradient-2" id="radial-gradient-25" cx="58.21" cy="18.33" r="7.07" fx="58.21" fy="18.33" gradientTransform="rotate(-5 -27.68 178.89)"/><radialGradient xlink:href="#radial-gradient-2" id="radial-gradient-26" cx="42.49" cy="10.02" r="7.07" fx="42.49" fy="10.02"/><radialGradient xlink:href="#radial-gradient-2" id="radial-gradient-27" cx="42.43" cy="9.79" r="7.07" fx="42.43" fy="9.79"/><radialGradient xlink:href="#radial-gradient-2" id="radial-gradient-28" cx="42.6" cy="9.87" r="7.07" fx="42.6" fy="9.87"/><radialGradient xlink:href="#radial-gradient-2" id="radial-gradient-29" cx="42.9" cy="9.28" r="7.07" fx="42.9" fy="9.28"/><radialGradient xlink:href="#radial-gradient-2" id="radial-gradient-30" cx="42.53" cy="9.87" r="7.07" fx="42.53" fy="9.87"/><radialGradient xlink:href="#radial-gradient-2" id="radial-gradient-31" cx="42.49" cy="10.1" r="7.07" fx="42.49" fy="10.1"/><radialGradient xlink:href="#radial-gradient-2" id="radial-gradient-32" cx="42.49" cy="10.1" r="7.07" fx="42.49" fy="10.1"/><radialGradient xlink:href="#radial-gradient-2" id="radial-gradient-33" cx="42.49" cy="10.1" r="7.07" fx="42.49" fy="10.1"/><radialGradient xlink:href="#radial-gradient-2" id="radial-gradient-34" cx="42.49" cy="10.1" r="7.07" fx="42.49" fy="10.1"/><style>.cls-7{fill:#fff}.cls-22{fill:#2b0000}.cls-32{mix-blend-mode:multiply}</style></defs><g style="isolation:isolate"><g id="snow-city"><path d="M82.54 17.02c-.84-.32-4.44-2.06-5.17-3.29-.28-.41 0-.63.24-.9.21-.27 2.52-2.88 2.68-3.14.2-.2.14-.25 0-.5-.19-.31-.54-.75-.66-.91-.11-.14-.21-.02-.33.06-.96.82-1.81 2.27-2.83 3.17-.03 0-.05-.01-.05-.06.05-.5-.01-1.06-.06-1.57-.05-.49-.02-1 .16-1.44a.19.19 0 0 0-.03-.15c-.22-.21-1.56-.29-1.53.17-.04 1.52-.25 7.25-.26 7.32-.01.43-.11 1.84-.18 2.13-.03.16-.07.28 0 .39.21.32 1.07.48 1.37.62.19-.13.16-.36.21-.6.2-1.03.1-2.17.26-3.17.15.12.39.47.6.65.27.27.58.53.8.71.97.74 3.54 1.77 3.75 1.85.17.04.36.15.52.04.32-.26.54-1.39.51-1.33v-.03ZM68.21 8.96c-.54.15-1.41.68-1.73.94-1.44 1.2-1.59 3.21-1.63 3.52-.21 1.65.72 2.73.77 2.8a5.6 5.6 0 0 0 2.12 1.48c.6.21 3.16.89 4.88-.89.07-.07.32-.33.37-.4.48-.57.46-.66-.06-1.18a3.6 3.6 0 0 1-.48-.65c-.03-.01-.35.5-.47.63-1.75 2.37-6.28.95-5.3-2.37a3.46 3.46 0 0 1 2.26-2.31c1.26-.49 2.7 0 2.82 1.44.04.29.27.36.54.41.71.13.96-.38 1-.54v-.19c-.17-1.42-1.36-2.8-2.85-2.92a8.2 8.2 0 0 0-2.24.23ZM91.29 17.54c-.21-1.26.15-5.59 0-5.65-.1-.04-.15-.12-.23-.19-.33-.2-1.29.05-1.32.13-.27.4-.06.99-.18 1.46-.26 1.81-2.18 2.89-3.67 2.69-3.33-.43-1.5-6.2 1.46-6.04.58.01 1.02.5 1.42.85.56.58 1.89 0 1.42-.84-2.03-2.77-7.15-1.54-7.69 2.62-.37 1.81-.02 3.67 1.8 4.75 1.16.69 3.43.46 4.66-.43.04-.03.42-.21.48-.21l.07.06c.02.72.2 1.17 1.02 1.19.19.01.43.06.61.09.11.01.15-.48.15-.48ZM99.95 17.09c-.23-2.6.91-7.24-1.77-8.89-3.1-.76-6.57 2.35-4.69 4.91.58.73 1.7 1.15 2.66 1.3.16.04.24.01.31.19a4.17 4.17 0 0 1-1.33 1.65c-1.36 1-2.88.79-2.88 1.66.02.37.44.87.81.92.09 0 .17-.04.22-.06 2-.58 3.95-1.6 4.87-3.62.31-.53.16.62.2.8 0 .33 0 1.85.05 2.18.06.2.2.24.43.32.42.15.86.34 1.05.54.04.02.07-1.49.09-1.87v-.04Zm-2.26-4.21c-1.01-.02-3.25-.05-3.05-1.46.05-.38.32-.67.62-.84.36-.22.81-.33 1.15-.46.11-.03.45-.11.55-.2.07-.02.84-.14.98.35.06.13.19.5.2.58.11.42.17.94.19 1.4a25 25 0 0 1 0 1.5c-.01.08-.09-.05-.16-.16l-.45-.68-.03-.02Zm.6 2.07c-.01.08 0-.33 0 0 0 .05 0-.06 0 0ZM59.66 25.83c-.73.43-1.01.87-1.2 1.69a4.4 4.4 0 0 0-.1.96c0 .64.1 1.09.44 1.58.24.34.62.65 1.05.75.08.02.3.11.4.13.57.11 1.12.03 1.53-.08.27-.08.36-.14.6-.32.56-.48.96-.76.21-1.33-.13-.13-.14-.15-.23-.04-.31.45-.99 1.08-1.51 1.02-1.44-.16-1.95-1.57-1.28-2.79.56-1.11 1.73-1.13 2.33-.08.22.34.67-.05.77-.25.03-.07.04-.09.01-.12-.37-.43-.74-1.07-1.35-1.24-.47-.12-1.17-.19-1.61.07l-.07.06ZM36.98 26.93c-.41.89-.6 2.14.11 3.03a2.9 2.9 0 0 0 2.33 1.16c.42-.04.79-.16 1.17-.36.18-.1.36-.25.58-.5.37-.41.63-1.01.71-1.44.03-.18.09-.44.04-.6-.13-.46-.33-1.62-1.02-1.42-.15.06-.38.14-.46.19-.06.09.02.15.06.22.91 1.06.4 3.02-1.19 2.94-2.66-.01-1.79-4.35.53-3.54.26.11.47.36.69.03.12-.15.14-.45.09-.59a6.3 6.3 0 0 0-.52-.22 2.6 2.6 0 0 0-2.13.11c-.38.18-.59.36-.83.73l-.15.28ZM58.06 30.5c-.02-.77-.34-2.51-.15-3.12.07-.1.09-.07-.12-.08-.17 0-.41-.03-.63-.03-.1 0-.16 0-.17.03.2.46-.12 1.27-.32 1.66-.33.51-.95.87-1.54.84-2.03-.24-1.34-3.73.83-3.26.37.09.59.55.99.51.2-.02.4-.26.41-.46 0-.09 0-.16-.02-.19l-.03-.04c-.73-.54-1.93-1.11-2.81-.57a4.6 4.6 0 0 0-1.21.9c-.56 1.21-.5 2.95.73 3.77.2.14.41.15.58.18.48.09.97.15 1.68-.12.2-.08.43-.3.63-.37.11-.04.25 0 .23.16-.02.27.16.42.45.39.17 0 .46-.03.49-.16v-.06ZM44.01 30.79c2.46.69 3.99-.83 3.77-3.33-.04-.28-.73-2.17-1.72-2.83-.26-.17-.46-.31-.74-.43-.1-.05-.15-.13-.23-.17-.49-.29-1.38-.38-1.69-.92-.01-.99 2.57-.53 2.79-.03.18.38.25.23.64.47.82.46 1.86.84 2.79.63.1-.04.16-.1.2-.18.07-.18.17-.54.33-.84.03-.1-.11-.05-.2 0-1.56.77-3.07-1.08-4.77-1.48-1.49-.37-3.72.83-2.14 2.39.64.58 1.75.75 2.43 1.33 2.1 1.54 1.48 3.83.29 4.5-1.32.85-3.06-1.19-2.17-2.63.22-.46.88-.78 1.44-.59.25.09.43.24.68.25.61 0 .57-.7.14-.9a4.09 4.09 0 0 0-.28-.11c-3-1.13-4.48 3.8-1.68 4.84l.11.04ZM52.41 30.57v-.13a7.94 7.94 0 0 1-.4-1.75c-.1-.7.03-1.4.02-2.1.09-.32-.01-.81-.03-1.09 0-.13-.05-.19-.09-.27-.02-.04-.56-.08-.72-.04-.29.03-.31.28-.33.49-.05.35 0 .92.06 1.23.05.44-.16.95-.31 1.4-.31.78-1.17 2.12-2.08 1.43-.18-.17-.37-.28-.55-.08-.15.15-.17.46-.13.63a.3.3 0 0 0 .13.19c.74.57 1.93.44 2.58-.25.22-.22.36-.62.55-.82.13-.01.17.47.22.58.03.24.08.49.29.65.17.1.52.09.72.03.08-.03.09-.05.08-.09v-.02ZM67.68 25.48c-.61-.21-1.68.05-2.33.01-.71-.23-1.67.28-2.31.16-.25.01-.1.4-.08.62.03.17.04.26.17.3.26.08.8-.05 1.22-.08.24-.01.45 0 .51.14.07.64.06 1.36.13 2.02.05.66.07 1.33 0 1.94 0 .21.21.15.39.14.57-.07.53-.02.58-.74.08-.97-.03-1.69-.17-2.61.05-.25.03-.64 0-.89 0-.06.12-.04.26-.1.25-.12.31-.04.53-.06.24-.02.59 0 .78-.06.23-.13.26-.49.32-.77v-.03Zm-2.79.61v-.02.02ZM72.11 28.84c-.1-.62-.5-1.49-1.57-1.59-.04 0-.82-.06-1.11-.04s-.42-.04-.42-.39a5.6 5.6 0 0 1 .05-1.42l-.05-.1c-.12-.15-.81.14-.81.26 0 .48 0 1.12-.02 1.9-.03 1.64-.46 3.54 1.35 3.68.87.07 1.68-.12 2.17-.77.24-.32.51-.93.41-1.53Zm-1.84 1.34c-.3-.04-.87.18-1.12-.02a.3.3 0 0 1-.08-.17c-.03-.43-.15-1.56.08-1.83.69-.05 1.71-.23 2.05.57.25.54-.4 1.49-.9 1.45h-.03ZM34.78 16.68c-1.78-.37-3.89-.67-5.3-2.12a.54.54 0 0 1-.14-.65c.28-.7 1.02-1.13 1.39-1.8.14-.25.17-.42.34-.73.16-.35.31-.65.37-1.03.12-.23.36-.61.4-.87.03-.35.19-.8-.12-1.06-.18-.18-1.01-.36-1.06.07a12.47 12.47 0 0 1-1.99 4.2c-.23.35-.11-.23-.12-.4 0-.97-.07-2.05-.04-2.98-.15-.27-.57-.08-.85-.02-.2.06-.32.12-.36.12-.04 0-.04.01-.04.14.02 1.32-.28 2.65-.15 3.98.14.72.07 1.69.3 2.35.08.19.03.19.02.43.01.38.05 1.01.1 1.19.13.3.02.67.19.94.22.33.97.48 1.14.43.1-.07.09-.17.1-.26-.04-.88-.21-1.83-.29-2.72 0-.04-.03-.21.03-.2.27.28.63.62.99.84.63.46 1.38.62 2.04.91.25.08.65-.02.85.16.38.16.84.27 1.15.23.23 0 .57.09.77-.07.16-.09.21-.52.25-.64.03-.06.06-.4.05-.38v-.03ZM18.9 10.71a6.89 6.89 0 0 0-1.14 3.12c-.07.92.06 1.77.43 2.63a7 7 0 0 0 1.27 1.37c.4.23 1.11.48 1.19.51.8.25 2.51.12 3.23-.07a4.63 4.63 0 0 0 1.74-1.24c.19-.23.38-.53.45-.8.05-.2-.21-.35-.49-.57-.25-.19-.5-.38-.58-.48-.08-.07-.1.04-.16.09-1.57 2.97-6.35 1.57-5.25-1.98.46-1.43 1.77-3.04 3.41-2.72.37.06.62.4.78.81.17.37.26.71.45.78.34.12 1.28-.02 1.31-.48 0-.03.03-.14.01-.21-.3-.99-.57-1.85-1.76-2.25-.28-.09-.78-.28-1.1-.27a4.74 4.74 0 0 0-3.82 1.79ZM60.77 12.21c-.68-.18-.71-.01-.5-.73.12-.25.01-.84 0-.97-.11-.69-.72-1.25-1.2-1.7a3 3 0 0 0-.86-.36c-.6-.15-2.08.39-2.03 1.08.42 1.2.12 2.77-.11 4.09-.45 2.27.04 4.01 2.33 4.74.93.3 2.25-.05 2.9-.29s2.53-1.11 2.42-3.57c-.08-1.77-2.35-2.12-2.96-2.28Zm0 4.4a2.2 2.2 0 0 1-1.19.16c-.8-.07-1.85-.27-1.92-1.05.04-1.9.66-3.61.21-5.49-.09-.3.18-.16.33-.07.75.41.33 1.32.05 1.91l-.02.13c.14.56.51 1.1.74 1.63.01.02.2-.12.48-.1 1.01.03 3.7.62 2.34 1.98 0 0-.63.7-1.03.9ZM18.61 1.43C12.8-.32 4.53-1.28 0 3.54c-.03.54 1.1 1.05 1.41.83.27-.52 1.21-.96 1.89-1.29.17-.09.32-.14.34-.02.65 3.58.67 10.97.67 11.1-.02.58-.06 2.13-.05 2.71 0 .39 0 .88-.06 1.3-.14.74.82.84 1.31.98.09.03.25.04.26-.04.17-2.65.19-5.37.17-8.05-.03-2.7-.21-5.39-.62-7.84-.02-.36-.12-.97.21-1.04 2.11-.4 4.54-.66 8-.25.26.03.38.31.36.57-.19 4.15.53 10.85.54 10.97.05.57.38 2.89.42 3.08.09.44.07 1.11.34 1.47.12.14.33.11.67.14.34 0 .74-.03.77-.04.07-.03.14-.06.12-.17A104.78 104.78 0 0 1 15.49 2.6c0-.19.03-.32.23-.3.66.04 1.5.55 2.15.4.23-.14.27-.33.42-.58l.38-.59c.04-.09-.09-.12-.09-.12Z" class="cls-22"/><path fill="url(#New_Gradient_Swatch)" d="M45.35 11.11c.41.5.96 1.41 1.54 1.94.28.24.6.19.96.34.26.08.42.3.57.51.13.19.36.13.6.12.32.09.55.32.91.38.37.09.66.75 1.13.88.41.13 1.27.36 1.86.06.8-.4 1.52-1.22 1.71-2.05.28-.68.04-1.56-.05-2.31-.02-.5.1-.76.03-1.25 0-.56-.52-.97-.75-1.47a5.15 5.15 0 0 0-.59-1.39c-.54-1.3-1.72-2.48-3.19-2.61-.81.11-1.51.91-2.07 1.53-1.04 1.49-3.24 3.18-2.7 5.23l.05.08Z"/><path fill="url(#New_Gradient_Swatch-2)" d="M44.82 10.77A9.8 9.8 0 0 0 47 9.15c.73-.87 1.11-1.98 1.91-2.75 1.78-1.97.44-4.5-2.04-4.7-1.18-.17-2.36-.51-3.57-.09-.7.09-1.45.18-2.09.55-.88.22-2.39.56-2.85 1.32-.56.87-.42 2.17.14 3.03.56.8 1.38 1.15 1.9 1.9.29.38.29.39.56.65.21.24.48.6.86.65.3.3.61.7 1.13.76.51.18 1.29.61 1.77.34l.1-.05Z"/><path fill="url(#radial-gradient)" d="M43.44 11.01c.22-1.22-1.11-2.13-1.74-2.93-.41-.9-1.57-1.05-1.97-1.96-.21-.39-.4-.82-.85-.99-1.13-.27-2.81.05-3.46 1.02-.58 1.1-1.23 2.2-1.36 3.43-.05.57.2 1.15.29 1.71-.02.98.18 2.49.74 3.25.43.57 1.28 1.14 1.87 1.12.28 0 .55.16.85.04.18-.04.34-.2.54-.25.75-.13 1.17-.68 1.83-1.11.99-.34 2.32-.87 2.83-1.86.18-.41.17-1.01.39-1.39l.04-.1Z"/><path fill="url(#New_Gradient_Swatch-3)" d="M43.35 11.81c-.48-.37-1.5.17-2.01.39-.78.75-1.67.85-2.35 1.62-.16.17-.31.34-.5.42-.3.18-.58-.06-.79.23-.27.42-.95 1.09-1.08 1.65-.63 1.04-.16 2.3.75 3.02a4.7 4.7 0 0 0 3.46 1.56c1.22.05 2.52.23 3.68-.28.55-.3 1-.85 1.35-1.32.4-.8.16-2.1-.11-2.98-.42-1.28-.19-3.56-1.74-3.97-.18-.07-.41-.15-.56-.27l-.08-.07Z"/><path fill="url(#New_Gradient_Swatch-4)" d="M44.87 12.37c-.82.9-.2 2.3-.21 3.14-.13.84.33 1.45.41 2.22-.11.6.21 1.31.42 1.86.14.46.36.93.83 1.09 1.22.38 2.53-.16 3.43-.98 1.11-.39 1.92-.87 2.51-1.97.32-.84.92-1.77.36-2.67-.23-.49-.6-.86-.77-1.28-.42-.66-1.41-1.18-2.24-1.34-1.35-.21-3-1.56-4.21-.41-.13.1-.29.2-.44.28l-.09.06Z"/><path fill="#fbb03b" d="M45.05 13.01c-.18.05-.64-.38-.64-.38-.21-.12-.44-.2-.68-.24 0 0-.63.05-.74-.1s.16-.73.16-.73c.05-.24.06-.48.01-.72 0 0-.24-.59-.13-.73s.74-.07.74-.07c.24-.02.47-.09.69-.21 0 0 .48-.41.66-.35s.3.68.3.68c.1.22.24.42.41.59 0 0 .54.33.54.52s-.56.5-.56.5c-.18.16-.33.36-.43.57 0 0-.15.62-.33.67Z"/><g opacity=".4"><path fill="url(#radial-gradient-2)" d="M44.1 12.8c-.09.25-.18.42-.27.74l-.11.47a12.76 12.76 0 0 0-.16 1.61l-.03.9a7.33 7.33 0 0 1-.08 1.15l-.05.4c-.02.12-.03.23-.07.36.08-.26.15-.43.22-.75l.09-.47.08-.7c.04-.48.05-.9.05-.9l.05-.9.06-.69c.02-.21.05-.38.07-.46l.07-.4.09-.36Z" class="cls-32"/><path fill="url(#radial-gradient-3)" d="M44.35 12.81c-.06.26-.12.43-.15.75l-.02.47a15.84 15.84 0 0 0 .31 2.44l.11.67.06.45.05.39c.01.11.02.23.01.36.02-.26.06-.44.06-.76 0-.09 0-.26-.02-.47a8.73 8.73 0 0 0-.07-.68c-.06-.46-.14-.88-.14-.88l-.14-.87-.08-.67-.03-.45v-.39c0-.12 0-.23.04-.36Z" class="cls-32"/><path fill="url(#radial-gradient-4)" d="M44.82 13.02c-.04.25-.09.43-.09.74a4.62 4.62 0 0 0 .41 1.71l.1.25.11.24.25.55.27.61.16.42.12.37c.03.11.06.21.08.34-.03-.26-.02-.44-.09-.74l-.12-.44c-.06-.2-.15-.42-.23-.64l-.24-.56-.11-.24s-.17-.38-.33-.8a4.44 4.44 0 0 1-.19-.63c-.05-.19-.07-.36-.08-.44l-.04-.38.01-.35Z" class="cls-32"/><path fill="url(#radial-gradient-5)" d="M45.54 12.5c.12.26.18.44.34.74l.25.43.39.62a16.72 16.72 0 0 1 .47.82l.03.07.04.08.05.1a7.27 7.27 0 0 1 .38 1.34l.09.5c.06.34.13.53.19.81-.05-.28-.04-.48-.07-.83l-.05-.51c-.03-.23-.06-.5-.13-.75a4.62 4.62 0 0 0-.22-.66l-.05-.11-.04-.08-.04-.07-.14-.26a14.7 14.7 0 0 0-.79-1.16l-.29-.4-.25-.34c-.07-.1-.14-.2-.2-.33Z" class="cls-32"/><path fill="url(#radial-gradient-6)" d="M46.1 12.63c.17.17.26.31.45.52l.71.76.54.59a9.33 9.33 0 0 0 .81 1.15c.09.16.15.3.17.37l.13.33c.03.1.06.2.07.32-.02-.24 0-.4-.07-.69a3.4 3.4 0 0 0-.42-.98 5.3 5.3 0 0 0-.49-.66l-.17-.19-.4-.41c-.31-.3-.67-.59-.79-.69-.22-.18-.37-.26-.54-.42Z" class="cls-32"/><path fill="url(#radial-gradient-7)" d="M45.41 12.84c0 .2-.03.33 0 .57l.05.35.12.51c.1.34.21.64.21.64l.24.63.31.8c.08.22.15.34.18.54-.03-.19-.01-.33-.05-.57l-.07-.34-.14-.5-.22-.63-.23-.63a14.2 14.2 0 0 1-.17-.48l-.1-.33-.08-.28a1.1 1.1 0 0 1-.04-.27Z" class="cls-32"/><path fill="url(#radial-gradient-8)" d="M45.97 12.01c.16.12.26.23.46.36a3.28 3.28 0 0 0 .82.4l.58.24.78.21.52.17c.16.05.28.1.34.13l.29.12c.08.04.16.07.25.13-.17-.11-.27-.21-.49-.33-.06-.03-.18-.1-.33-.16a4.94 4.94 0 0 0-.51-.2c-.35-.13-.68-.22-.68-.22l-.68-.22a9.41 9.41 0 0 1-.84-.34l-.28-.14a1.05 1.05 0 0 1-.24-.15Z" class="cls-32"/><path fill="url(#radial-gradient-9)" d="M45.96 12.01c.17.08.27.14.49.21a3.62 3.62 0 0 0 .82.14c.34.03.66.02.66.02h1.15l.33.01c.11 0 .2 0 .29.02.08 0 .16.01.25.04-.18-.05-.3-.1-.52-.14a9.9 9.9 0 0 0-.33-.05l-.5-.04-.65-.01h-.65c-.17 0-.35-.01-.49-.03l-.33-.04-.28-.05a2.17 2.17 0 0 1-.24-.07Z" class="cls-32"/><path fill="url(#radial-gradient-10)" d="M45.76 11.49c.17.08.28.15.5.21l.34.06a5.1 5.1 0 0 0 1-.05l.21-.03.21-.04.47-.09.51-.09.35-.04.3-.02h.27c-.19-.03-.32-.07-.55-.07h-.35c-.16 0-.34.03-.52.06l-.47.07-.2.03s-.32.06-.67.09a4.5 4.5 0 0 1-.85.01l-.28-.04a1.44 1.44 0 0 1-.25-.08Z" class="cls-32"/><path fill="url(#radial-gradient-11)" d="M45.8 11.21c.21-.05.36-.06.61-.13l.37-.12.54-.19.49-.16.21-.06h.06l.07-.03.09-.02c.13-.03.3-.06.49-.07h.91c.25.02.4 0 .61 0-.21 0-.34-.05-.59-.08l-.36-.05a4.68 4.68 0 0 0-.55-.03 2.57 2.57 0 0 0-.61.08l-.07.02h-.06s-.09.04-.22.07a10.14 10.14 0 0 0-1.04.39l-.36.15-.31.13a1.3 1.3 0 0 1-.28.09Z" class="cls-32"/><path fill="url(#radial-gradient-12)" d="M46.34 11.24c.12.03.2.07.35.1l.23.03h.34c.24 0 .45-.03.45-.03l.45-.05.57-.07c.16-.01.25-.04.38-.03-.13-.01-.21-.05-.36-.06l-.23-.01h-.34c-.23.01-.45.04-.45.04l-.44.05-.34.03-.23.01h-.2c-.06 0-.11 0-.17-.02Z" class="cls-32"/><path fill="url(#radial-gradient-13)" d="M43.42 9.59c-.06-.23-.08-.39-.2-.65a4.53 4.53 0 0 0-.54-.89 9.55 9.55 0 0 0-.52-.62s-.26-.29-.56-.58c-.3-.3-.64-.61-.75-.71-.21-.19-.34-.29-.5-.47.15.18.23.33.41.54l.27.32.42.46.55.59.53.6c.13.16.27.33.37.48l.23.34.18.3c.05.09.09.18.12.3Z" class="cls-32"/><path fill="url(#radial-gradient-14)" d="M43.11 10.09c-.15-.22-.23-.38-.43-.62a4.9 4.9 0 0 0-.82-.82c-.36-.31-.71-.55-.71-.56l-.73-.53-.55-.41-.36-.29-.3-.26c-.09-.08-.17-.15-.25-.26.16.2.25.36.47.59l.33.33.53.45.72.54s.35.25.72.54l.53.43c.16.13.28.25.34.31l.28.28c.08.08.16.17.23.27Z" class="cls-32"/><path fill="url(#radial-gradient-15)" d="M42.94 10.42c-.14-.19-.23-.33-.43-.53-.05-.06-.17-.16-.31-.28a7.5 7.5 0 0 0-.51-.37c-.36-.23-.7-.42-.7-.42l-.71-.39-.54-.3a4.5 4.5 0 0 1-.36-.22 3.23 3.23 0 0 1-.3-.19c-.09-.06-.17-.11-.26-.19.17.16.27.29.49.47l.34.26.52.34.7.41.7.4c.18.11.37.22.52.33l.34.24.28.22.23.23Z" class="cls-32"/><path fill="url(#radial-gradient-16)" d="M42.92 10.93c-.15-.19-.23-.33-.44-.54-.06-.05-.18-.16-.34-.27a3.73 3.73 0 0 0-.56-.32c-.2-.1-.39-.17-.54-.23l-.24-.09-.24-.08-.55-.18-.6-.21-.39-.16-.33-.15a1.6 1.6 0 0 1-.28-.17c.19.15.31.26.56.42l.38.2a17.53 17.53 0 0 0 1.14.45l.24.08.77.29c.2.08.4.18.56.28l.35.22.29.22c.08.07.16.14.23.23Z" class="cls-32"/><path fill="url(#radial-gradient-17)" d="M42.8 11.02c-.26-.05-.43-.11-.74-.16l-.46-.05-.69-.06a6.97 6.97 0 0 1-.87-.11h-.07l-.09-.03a4.72 4.72 0 0 1-1.3-.46l-.41-.2c-.28-.14-.45-.19-.69-.3.23.12.37.23.63.4l.39.24c.18.1.39.22.61.32.22.09.44.16.6.2l.11.02h.08l.07.03s.12-.02.29 0c.17.02.38.08.62.09l.69.02H42.43c.12 0 .23.01.36.04Z" class="cls-32"/><path fill="url(#radial-gradient-18)" d="M42.25 10.8c-.13-.1-.2-.18-.36-.29a3.52 3.52 0 0 0-.64-.31l-.52-.18-.53-.16-.67-.2c-.18-.06-.3-.07-.44-.15.14.08.22.16.39.25l.26.12.39.16c.27.1.52.17.52.17l.52.16.4.13.26.1.23.09.19.1Z" class="cls-32"/><path fill="url(#radial-gradient-19)" d="M42.78 11.53c-.26.04-.44.04-.75.11-.08.02-.25.06-.45.13l-.65.25c-.43.19-.81.4-.81.4l-.79.42-.61.31-.42.19-.36.16c-.11.04-.21.08-.34.11.25-.06.44-.07.74-.16a5.86 5.86 0 0 0 1.08-.43c.43-.2.8-.41.8-.41l.8-.41.62-.29.43-.17.37-.13c.11-.04.22-.07.35-.09Z" class="cls-32"/><path fill="url(#radial-gradient-20)" d="M42.96 11.94c-.23.05-.39.06-.66.15l-.39.16a5.9 5.9 0 0 0-.55.29c-.37.22-.68.45-.68.44l-.66.47-.51.35-.35.23-.3.19-.29.15c.22-.08.38-.12.64-.24l.38-.19.54-.32.67-.45.67-.45.52-.32.36-.2.32-.15c.1-.04.19-.08.3-.1Z" class="cls-32"/><path fill="url(#radial-gradient-21)" d="M42.69 11.33c-.23-.02-.39-.06-.68-.05-.08 0-.23 0-.42.03a10.36 10.36 0 0 0-1.4.34l-.77.25-.59.18-.4.11-.35.09c-.1.02-.2.05-.32.05.23-.01.4 0 .68-.03a8.98 8.98 0 0 0 1.03-.22c.41-.11.78-.23.78-.23l.77-.23a8.54 8.54 0 0 1 1-.23l.35-.05c.1-.01.2-.02.32 0Z" class="cls-32"/><path fill="url(#radial-gradient-22)" d="M43.57 12.27c-.23.05-.4.06-.68.16-.07.03-.22.09-.39.19a5.52 5.52 0 0 0-.97.74l-.18.18-.18.18-.4.41-.45.45-.32.28-.28.23c-.09.07-.17.13-.28.18.21-.11.37-.16.62-.32a8.47 8.47 0 0 0 .83-.68l.42-.4.18-.18s.28-.28.6-.56c.16-.14.34-.28.49-.38.15-.11.29-.18.36-.22l.32-.16c.1-.04.19-.08.31-.1Z" class="cls-32"/><path fill="url(#radial-gradient-23)" d="M43.76 12.57c-.18.19-.31.31-.51.56l-.28.37-.4.56-.37.49-.17.2-.05.05-.06.07-.07.08c-.11.12-.26.27-.44.41a8.1 8.1 0 0 1-.55.39l-.38.25c-.26.17-.4.29-.61.44.22-.14.39-.2.66-.34l.41-.21a3.5 3.5 0 0 0 1.06-.78l.08-.09.05-.06.05-.06.18-.21a8.35 8.35 0 0 0 .74-1.11l.24-.4.21-.34c.06-.1.13-.19.21-.29Z" class="cls-32"/><path fill="url(#radial-gradient-24)" d="M43.53 13.39c-.08.18-.17.29-.27.5l-.38.77-.3.59s-.15.28-.34.56a6.97 6.97 0 0 1-.54.64l-.22.19c-.07.05-.13.1-.22.14.17-.08.31-.12.5-.25.05-.04.16-.11.27-.22.12-.11.24-.25.35-.39.22-.28.37-.57.37-.57l.1-.18.2-.43c.14-.33.27-.69.31-.81.08-.22.1-.36.18-.54Z" class="cls-32"/><path fill="url(#radial-gradient-25)" d="M43.16 12.82c-.14.08-.25.11-.41.22l-.23.17-.31.29-.37.41-.35.42a31 31 0 0 1-.45.54c-.13.14-.19.24-.31.34.13-.1.23-.14.38-.26l.22-.19.3-.3.37-.41.36-.41.28-.31.19-.2.17-.17c.05-.05.1-.1.17-.13Z" class="cls-32"/><path fill="url(#radial-gradient-26)" d="M45.93 10.3c.21-.08.37-.12.61-.26l.34-.23c.15-.11.31-.25.46-.39.3-.29.54-.58.54-.57 0 0 .25-.28.5-.61l.6-.81c.16-.22.24-.37.4-.53-.16.16-.29.26-.48.46l-.27.3-.39.46-.51.6-.52.58-.42.42-.3.26-.27.21c-.08.06-.17.11-.27.15Z" class="cls-32"/><path fill="url(#radial-gradient-27)" d="M45.57 9.91c.19-.17.34-.26.55-.48a4.81 4.81 0 0 0 .7-.89c.25-.39.45-.76.45-.76l.43-.77a9.93 9.93 0 0 1 .8-1.28c.07-.09.13-.18.22-.27-.18.18-.32.29-.52.52l-.28.36-.37.56-.44.76s-.2.37-.44.76c-.12.2-.24.4-.36.56l-.26.37-.23.31a1.4 1.4 0 0 1-.24.25Z" class="cls-32"/><path fill="url(#radial-gradient-28)" d="M45.37 9.75c.16-.16.29-.25.46-.47a8.72 8.72 0 0 0 .54-.88c.18-.38.32-.73.32-.73l.29-.74.23-.56c.07-.17.13-.31.17-.37l.15-.32c.05-.09.09-.18.16-.27-.14.18-.25.3-.4.53l-.21.36c-.09.16-.18.36-.27.55l-.31.74-.3.73-.26.55-.19.35-.18.3-.19.25Z" class="cls-32"/><path fill="url(#radial-gradient-29)" d="M45.02 9.21c.17-.16.3-.26.47-.49a3.16 3.16 0 0 0 .46-.95l.16-.56.06-.25.05-.25.11-.56.13-.61.11-.41a3.44 3.44 0 0 1 .24-.64c-.12.2-.22.33-.34.6a5.55 5.55 0 0 0-.32 1.01l-.13.56-.05.24s-.08.38-.19.79a6.52 6.52 0 0 1-.38.95l-.18.31c-.06.09-.11.17-.2.25Z" class="cls-32"/><path fill="url(#radial-gradient-30)" d="M44.31 9.63c.04-.26.09-.43.12-.74l.03-.46.03-.68c0-.23.02-.45.04-.61l.03-.26v-.07l.02-.09c0-.03 0-.07.02-.11a7.06 7.06 0 0 1 .39-1.19l.18-.41.27-.69c-.1.23-.21.37-.36.63l-.22.39a4.31 4.31 0 0 0-.47 1.32v.08l-.02.07-.03.27c-.01.17-.03.39-.03.63a15.2 15.2 0 0 0 .02 1.15v.4c0 .12 0 .23-.02.36Z" class="cls-32"/><path fill="url(#radial-gradient-31)" d="M43.8 9.64c-.03-.24-.03-.42-.08-.71a25.58 25.58 0 0 0-.23-1.06l-.13-.57-.05-.25s-.09-.39-.14-.82a4.74 4.74 0 0 1 0-1.05c.02-.14.05-.25.08-.35.03-.1.08-.19.15-.28l-.19.26c-.05.09-.11.19-.15.34-.02.08-.06.23-.08.43a5.45 5.45 0 0 0 .19 1.76l.15.57.31 1.05.11.36c.03.11.06.21.07.33Z" class="cls-32"/><path fill="url(#radial-gradient-32)" d="M46.39 10.58c.19-.13.34-.19.58-.33l.85-.55.64-.47s.3-.23.61-.5l.45-.41.29-.29c.19-.2.28-.34.45-.5-.17.16-.3.24-.52.42l-.79.63-.62.48-.62.48-.8.63c-.22.17-.32.29-.51.43Z" class="cls-32"/><path fill="url(#radial-gradient-33)" d="M44.01 9.03c-.03-.2-.02-.33-.04-.57l-.1-.86-.06-.66s-.03-.31-.02-.65c0-.17.02-.35.04-.49l.06-.33.08-.28c.03-.08.05-.16.1-.24-.1.16-.19.26-.28.47l-.11.33a4.34 4.34 0 0 0-.06 1.4l.06.47c.06.35.15.73.18.85.06.23.11.36.15.55Z" class="cls-32"/><path fill="url(#radial-gradient-34)" d="M44.54 9.26c.09-.12.17-.2.27-.36a5.2 5.2 0 0 0 .29-.64c.1-.27.16-.52.17-.52l.14-.52.18-.67c.05-.18.07-.3.14-.44-.07.14-.15.22-.24.39l-.12.26-.14.39-.16.52-.15.52-.12.39-.09.26-.08.22c-.03.07-.05.13-.1.19Z" class="cls-32"/></g><path d="M45.26 9.57c.04.45-.18.44-.31.46-.15-.02-.24-.12-.29-.43.02-.14.22-.19.31-.46.12-.2.27.04.29.43ZM46.19 11.57c-.25-.03-.5.04-.55-.12-.02-.57.09-.47.3-.44.09.21.21.19.32-.05.11-.13.18.17.23.17.09.24-.06.59-.3.44ZM43.36 10.06c.16.46.25.42.17.51-.07-.05-.32.37-.5-.03-.2-.01-.29-.1-.17-.51.1-.11.33-.28.5.03ZM42.99 12.16c.19-.07.46-.49.55-.16.11 0 .09.29-.05.53-.12-.15-.39.32-.55.16-.15-.37-.17.09.05-.53ZM44.85 12.82c-.08-.11-.04.03.16-.49.08.12.18.25.27.13.07.35.16.08.19.29.05.2-.08.28-.25.44-.16.17-.32.08-.37-.38Z" class="cls-7"/></g></g></svg>