<svg xmlns="http://www.w3.org/2000/svg" id="Layer_1" data-name="Layer 1" viewBox="0 0 100.01 90.33"><defs><style>.cls-1{fill:#f9b234}</style></defs><path d="M88.15 47.93c.15-.19.2-.26 0 0m-42.85 0c-.2-.26-.15-.19 0 0m9.4 0c.15-.19.2-.26 0 0m-.6.78.53-.69-.53.69c-.35.45-.23.3 0 0a10.01 10.01 0 0 1-4.1 3.18 10.01 10.01 0 0 1-4.1-3.18c.23.3.35.45 0 0l-.53-.69.53.69C40.16 41.24 44.55 34.67 50 29c5.45 5.67 9.84 12.24 4.1 19.71m-42.24-.78c-.2-.26-.15-.19 0 0m87.08-12.21C92.56 20.13 71.61 17.28 66.73 0c-2.58 9.14-9.68 14.25-16.72 19.34C42.96 14.25 35.87 9.14 33.29 0 28.4 17.27 7.44 20.13 1.06 35.72c-3.02 7.39.73 15.03 7.26 19 4.15 2.52 11.49 3.27 14-1.96-3.89.27-7.46-.92-9.87-4.05.23.3.35.45 0 0l-.53-.69.53.69c-8.34-10.85 4.69-19.79 11.31-26.86 2.61-2.79 9.52-9.57 9.52-13.47 0 3.91 6.91 10.68 9.52 13.47.51.55 1.06 1.1 1.64 1.68-4.16 3.33-7.83 7.08-9.92 12.2-3.03 7.39.73 15.03 7.25 19a13.66 13.66 0 0 0 8.24 1.87c2.84.33 6-.51 8.24-1.87 6.52-3.97 10.28-11.61 7.25-19-2.1-5.12-5.77-8.86-9.92-12.2.58-.57 1.13-1.13 1.64-1.68 2.61-2.79 9.52-9.57 9.52-13.47 0 3.91 6.91 10.68 9.52 13.47 6.62 7.08 19.65 16.01 11.31 26.86l.53-.69-.53.69c-.35.45-.23.3 0 0-2.4 3.13-5.98 4.32-9.87 4.05 2.51 5.23 9.86 4.49 14 1.96 6.52-3.97 10.28-11.61 7.25-19M47.81 87.53c-3.95 3.84-1.76-3.61-3.18-2.68-.85.82-2.16 4.88-3.22 3.06-.33-.57.11-1.64-.09-2.33-.1-.34-.64-.53-.8-.22-.68 1.34-1.85 4.51-4.37 3.2-1.13-.59-2.03-1.27-.68-2.2.22-.19.59-.57.98-.38.62.22.96 1.28 1.51.84 1.36-.49 3.54-7.97 4.54-4.55.18.62.06 2.45.82 2.53 1.35-.57 1.59-2.96 3.46-3.37.73-.13.44.7.43 1.01-.57 1.64.43 2.57.65 4.15 0 0 .1.81-.05.96ZM52.56 84.36c.86-.94.97-1.44.72-1.62-.31-.23-1.18.03-1.84.52-.54.4-.95.96-.78 1.52.33.57 1.27.28 1.91-.42Zm1.74 3.34c-1.64 1.29-2.42 1.16-3.34.95a2.8 2.8 0 0 1-2.09-2.35c-.26-1.56.32-3.17 3.13-4.64 3-1.15 4.3 1.28 1.71 3.42-1.04.86-3.25 1.23-2.1 2.05.56.4 1.29-.48 2.23-.45.72.02.8.75.47 1.02ZM59.28 83.49c-.64.18-1.18 1.78-1.49 2.3-.29.81 3.05.51 3.13.1.2-.96-1.4-2.48-1.64-2.41Zm4.99 3.86c-.18.54-.38 3.03-1.72 2.98a.64.64 0 0 1-.6-.75c.13-.78.66-1.21.07-1.95-1.1-.81-2.99-.52-4.4-.19-.4.1-.68.45-.66.86 0 .2.01.41-.08.65-1.38 2.53-3.08-.49-1.4-2.33 2.79-3.05 2.62-9.09 7.42-1.24.94.89 1.69-.24 1.38 1.98ZM21.63 78.73c-3.49 2.77-3.09-2.47-3-4.54.05-1.26.56-3.35-1.86-2.75a2.08 2.08 0 0 0-1.53 1.8c-.17 1.28.1 3.23-.03 4.65-.1.7-.57 1.23-1.04 1.51-3.02 1.39-1.81-3.16-1.72-4.77.08-1.35.11-3.35.51-4.16 1.42-2.01 6.49-1.56 8.56-.42.28 1.95-.56 4.81-.13 6.9.09.72.54 1.35.25 1.78ZM29.13 76.53c-4.42 6.13-9.93-2.02-3.85-5.12 1.84-.92 5.03 2.16 2.17 2.89-.7.22-.14-1.36-1.21-1.16-2.54.5-2.49 5.37 1.73 3 .43-.24 1.86-.8 1.16.4ZM39.74 80.89c-1.53 1.6-4.1-.92-5.2-2.31-.49-.61-2.49-3.01-2.34-1.73.27 2.36-.81 2.71-1.12 2.54-2.07-1.09-.48-3.89-1.29-6.27-.54-1.64 2.38-3.49 2.07-.74 0 5.81 2-.73 3.97-.51 3.17.36-1.12 1.71-1.01 3.34s2.49 3.42 4.19 4.32c.57.3 1.25.81.72 1.36Z" class="cls-1"/><path d="M42.46 76.13c1.24-1.8-1.58-3.99-2.93-2.34-1.69 2.36 1.64 4.23 2.93 2.34Zm-.81 2.62c-3.23.04-4.96-2.27-4.61-3.94.77-3.6 6.93-4.54 7.81-.43.4 1.87-.08 4.33-3.21 4.37ZM50.75 75.6c-.58-.53-3.23-.62-3.04.88.11 1.32 1.76 1.38 2.75.66.6-.44.87-1.01.29-1.54Zm-1.32-2.31c-.25-.47-.85-.73-1.24-.54-.49.24-.97 1.15-.36 1.66.27.22.86.11 1.13-.05.37-.22.62-.69.46-1.07m3.67 3.13c-.08 1.43-2.68 2.73-4.66 2.62-1.47-.08-2.31-1.08-2.37-1.91-.13-1.81-.06-2.94.13-3.96.25-1.39 1.38-1.96 3.34-1.65 1.21.19 1.24.92 1.33 1.61.04.33.24.63.55.82 1.02.64 1.76 1.16 1.69 2.46ZM60.68 75.9c-2.55 7.06-10.38.47-5.04-3.81 1.68-1.35 5.38.63 2.82 2.1-.62.4-.78-.72-1.34-.86-1.4.35-1.44 3.51.23 3.56.48.02 1.47-.68 2.24-1.57.57-.66 1.37-.21 1.08.58ZM70.23 81.51c-2.28.03-3.94-2.6-5.6-4.39-.39-.42-1.1-.2-1.15.38a1.58 1.58 0 0 1-.95 1.38c-.38.19-1.04-.37-1.06-.79-.16-2.45.3-2.75-.08-5.06-.13-.8.49-1.97 1.17-2.23.41-.16.85.15.88.59.11 1.56.01 2.19.14 2.82.25 1.25.56.98 1.03.26.62-.95 1.74-2.26 3.18-2.22.93.03 1.72.2-1.01 2.83a.65.65 0 0 0-.08.82c1.05 1.62 2.3 3.3 3.88 4.38.54.37.31 1.21-.34 1.22Z" class="cls-1"/><path d="M74.23 76.8h-.2c.1-.04.17-.04.2 0m-2.7-2.12c.25 1.55 1.51 1.64 1.82.33.03-1.61 1.06-3.36 2.21-3.81.45-.08.33.52.34 1.25.04 2.25-.26 3.78.91 5.3.25.32.74.93.49 1.34-.71 1.14-2.05.32-2.79-1.23-.24-.5-.54-1.47-1.21-1.18-1.75 1.58-3.92 3.3-3.68-.63.06-1.03.03-1.82-.38-1.8-.12 0-.19-.16-.11-.27.61-.91 1.2-2.09 2.37-2.59.54-.23-.16 2.18.02 3.29ZM87.76 67.1c-.67-1.48-3.73 4.64-6.17 2.75-.53-.41-.18-1.06.92-.98.93.07 1.37-.5 1.45-.94.12-.67-.62-1.21-1.91-.84-2.63.75-5.58 3.78.48 4.75.27.11.32.24.12.5-1.46 3.4-3.12 6.01-2.55.11.08-1.65-2.68-.94-2.87.49-.23 1.68.32 5.3 1.42 5.52s1.93-1.77 3.15-1.76c1.26.71 2.87 3.14 4.64 1.69.4-.79-.97-1.22-1.45-1.97-.99-1.56-.79-3.11-.16-4.54.34-.77.9-.7 1.32-.99a3.8 3.8 0 0 0 1.66-1.95s.25-1.24-.02-1.83ZM49.37 80.27c-.55.08-1.01.58-.96 1.03.07.57.79 1.35 1.5.93.31-.18.41-.81.34-1.13-.09-.44-.45-.85-.89-.83M51.42 81.25c.46.06 1.54-.77.8-1.44-.62-.6-1.29-.09-1.36.59-.04.41.1.78.56.84Z" class="cls-1"/></svg>