<svg xmlns="http://www.w3.org/2000/svg" id="snow-city" viewBox="0 0 100 99.53"><defs><radialGradient id="radial-gradient" cx="43.21" cy="44.2" r="61.68" fx="1.6" fy="-1.33" gradientUnits="userSpaceOnUse"><stop offset=".01" stop-color="#fbc1c1"/><stop offset=".02" stop-color="#fbbdbd"/><stop offset=".36" stop-color="#fd483f"/><stop offset=".5" stop-color="#fe1a0d"/><stop offset=".59" stop-color="#f9180c"/><stop offset=".68" stop-color="#eb140a"/><stop offset=".79" stop-color="#d40c06"/><stop offset=".89" stop-color="#b40201"/><stop offset=".92" stop-color="#ac0000"/></radialGradient><style>.cls-1{fill:#fe1a0d}.cls-3{fill:#ac0000}</style></defs><path fill="url(#radial-gradient)" d="M81.7 26.01c7.16-8.67 7.09-15.63 3.98-11.64-1.25 1.61-3.14 2.49-5.09 2.94-3.53.82-7.26.14-10.36-1.72a39.5 39.5 0 0 0-22.72-5.57C28.35 11.13 11.28 28.31 10.3 47.48a39.6 39.6 0 0 0 41.62 41.63c19.24-.98 36.44-18.12 37.48-37.36a39.45 39.45 0 0 0-7.7-25.74ZM65.3 63.5c-3.77 4.51-8.27 6.93-13.32 7.31a20.99 20.99 0 0 1-11.62-2.52c-7.45 4.56-13.06 3.38-9.9 1.98a4.81 4.81 0 0 0 1.95-1.68 7.09 7.09 0 0 0 .02-7.78 21.66 21.66 0 0 1-2.9-7.81c-1.29-7.55.57-13.85 4.75-19.01a19.45 19.45 0 0 1 12.79-7.36c.92-.13 1.84-.19 2.62-.26 6.58.22 12.31 2.72 16.81 9.08a22.19 22.19 0 0 1 4.06 12.74c.1 6.2-1.85 11.25-5.27 15.32Z"/><path d="M9.71 76.4c-.62.35-1.19.56-1.71.62-.39.04-.77.02-1.15-.07a2.64 2.64 0 0 1-.99-.45c-.37-.28-.7-.66-.97-1.14a3.16 3.16 0 0 1-.37-2.58c.25-.84.87-1.55 1.86-2.12.98-.56 1.9-.74 2.75-.54.85.2 1.53.74 2.03 1.61.51.88.64 1.74.38 2.58a3.66 3.66 0 0 1-1.83 2.09Zm-.75-1.22c.69-.39 1.12-.85 1.29-1.36a1.7 1.7 0 0 0-.15-1.49 1.7 1.7 0 0 0-1.2-.87c-.53-.1-1.14.05-1.85.45-.69.4-1.13.85-1.3 1.34-.17.5-.11.99.17 1.48s.69.79 1.21.9 1.13-.04 1.83-.45ZM1.17 67.55l-.33-.83c.39-.12.71-.14.97-.05.26.09.52.46.78 1.11l.09.24.06.16c.16.39.33.68.51.89.18.21.43.34.75.39.31.05.75-.03 1.31-.25a1.96 1.96 0 0 1-1.71-1.3c-.24-.6-.21-1.21.1-1.82.31-.61.78-1.04 1.42-1.3a2.6 2.6 0 0 1 1.96-.02 2.4 2.4 0 0 1 1.4 1.44c.2.49.25.97.16 1.43-.09.47-.31.86-.66 1.19-.35.32-1.01.68-1.97 1.06-1.13.45-2.02.57-2.68.37-.66-.21-1.19-.82-1.59-1.83l-.25-.61c-.07-.17-.17-.26-.32-.27Zm5.31.72c.43-.17.72-.41.89-.72.17-.31.19-.62.07-.92a1.07 1.07 0 0 0-.71-.65c-.34-.1-.72-.08-1.13.09-.42.17-.71.41-.88.72-.17.31-.19.63-.07.94.12.3.35.51.69.63.34.11.72.08 1.14-.08ZM2.24 64.51l-.28-1.18 3.88-.92-.35-1.47-3.88.92-.28-1.18 3.88-.92-.35-1.49-3.88.92-.28-1.18 3.88-.92-.12-.52 2.35-.56.25 1.03-1.3.31 1.42 5.97-4.93 1.18ZM3.68 53.16l.1-1.32c.5.12.9.35 1.19.69.29.34.46.78.51 1.32.08.86-.15 1.52-.68 1.99a2.9 2.9 0 0 1-1.69.65 2.81 2.81 0 0 1-2.03-.46 2.1 2.1 0 0 1-.86-1.56c-.07-.73.12-1.34.58-1.81.46-.47 1.2-.75 2.22-.82l.31 3.27c.4-.05.69-.18.89-.4.2-.22.29-.48.26-.78a.77.77 0 0 0-.22-.5 1.01 1.01 0 0 0-.58-.26Zm-1.35.06c-.39.05-.67.17-.85.38a.94.94 0 0 0 .14 1.39c.23.17.53.23.89.19l-.18-1.95ZM1.64 46.76l.22 1.3a.98.98 0 0 0-.6.29.9.9 0 0 0-.21.6c0 .33.11.59.34.79.23.2.61.3 1.15.31.6 0 1.03-.09 1.28-.28a.95.95 0 0 0 .38-.79.89.89 0 0 0-.21-.61c-.14-.16-.39-.27-.74-.35l.24-1.29c.6.14 1.06.4 1.36.79.3.38.45.89.44 1.53 0 .72-.25 1.3-.72 1.72-.47.43-1.12.63-1.95.62-.84-.01-1.49-.24-1.95-.67S0 49.68 0 48.95c0-.61.15-1.08.42-1.44.27-.35.68-.6 1.22-.75ZM.18 46.2l.52-4.46 1.08.13-.18 1.58 3.96.46-.15 1.3-3.96-.46-.18 1.58-1.08-.13ZM.85 40.84l.64-2.8c.13-.57.34-.98.61-1.22.28-.24.63-.31 1.07-.21.28.06.5.2.67.4.17.2.26.43.28.68a1.28 1.28 0 0 1 2.29-.09c.18.33.21.77.08 1.31l-.69 3.05-4.94-1.12Zm2.35-.83.19-.82c.09-.4.1-.7.04-.9a.53.53 0 0 0-.42-.38c-.21-.05-.37 0-.5.15s-.24.43-.33.85l-.19.82 1.21.28Zm2.05.47.23-1.01c.08-.36.1-.64.05-.83-.05-.19-.19-.31-.43-.36-.24-.05-.43 0-.57.17-.13.17-.26.53-.39 1.09l-.15.66 1.26.29ZM6.47 33.54l.64-1.16c.41.32.67.69.79 1.12.12.43.09.9-.09 1.41-.28.81-.77 1.32-1.45 1.52-.54.16-1.15.12-1.81-.11a2.88 2.88 0 0 1-1.65-1.26 2.1 2.1 0 0 1-.14-1.77c.24-.7.67-1.16 1.28-1.4s1.4-.18 2.36.18l-1.09 3.1c.38.12.71.13.98 0a.98.98 0 0 0 .56-.6.75.75 0 0 0 0-.55c-.06-.17-.2-.33-.42-.48Zm-1.26-.52a1.36 1.36 0 0 0-.93-.02.93.93 0 0 0-.44 1.32c.14.25.38.43.73.55l.65-1.85ZM4.1 30.04l.57-1.18 1.67.81.82-1.69-1.67-.81.57-1.19 4.56 2.21-.57 1.19-1.92-.93-.82 1.69 1.92.93-.57 1.18-4.56-2.21ZM6.78 24.69l.71-1.1 1.56 1 1.02-1.58L8.51 22l.71-1.11 4.26 2.74-.71 1.11-1.79-1.15-1.02 1.58 1.79 1.15-.71 1.1-4.26-2.74ZM10.11 19.59l.86-.99 1.58 1.39.87-.99c.34-.39.63-.66.86-.82.24-.16.51-.22.82-.2.31.02.6.15.85.37.37.32.54.69.51 1.1a2.4 2.4 0 0 1-.7 1.36l-1.85 2.11-3.82-3.33Zm4.04 1.78.8-.92c.21-.24.32-.45.34-.62s-.06-.34-.23-.49c-.18-.16-.37-.2-.56-.12-.19.08-.44.3-.76.66l-.56.64.97.85Zm-.4-5.95.86-.99 3.82 3.33-.86.99-3.82-3.33ZM16.82 9.81l.49-.42c.25.35.36.71.32 1.06a1.4 1.4 0 0 1-.53.94c-.31.27-.65.4-1.01.38a1.54 1.54 0 0 1-1-.48l.49-.42c.16.16.33.24.51.24s.36-.08.56-.25c.19-.17.3-.34.33-.51.03-.18-.03-.36-.16-.54Zm-1.05 3.61.96-.82 2.07 2.42-.54-3.73.98-.84 3.29 3.85-.96.82-2.11-2.46.55 3.79-.96.82-3.29-3.85ZM22.55 8.08l3.79-2.25 2.59 4.36-1.13.67-2.03-3.43-1.53.91 2.04 3.43-1.13.67-2.59-4.36ZM27.71 5.11l1.12-.49.3.68c.04-.3.16-.57.34-.83a1.88 1.88 0 0 1 2.35-.54c.55.26 1 .77 1.33 1.52.34.78.42 1.46.24 2.05a1.87 1.87 0 0 1-1.81 1.39 2.39 2.39 0 0 1-.87-.24l1.03 2.34-1.2.53-2.82-6.4Zm2.18 1.72c.23.52.5.86.81 1.02s.61.17.9.05a.95.95 0 0 0 .55-.65c.08-.31.01-.73-.22-1.25-.21-.49-.47-.8-.76-.96A.96.96 0 0 0 30.3 5a1 1 0 0 0-.58.67c-.09.32-.04.7.16 1.16ZM37.03 5.23l1.32-.17a2.2 2.2 0 0 1-.43 1.3c-.27.35-.67.61-1.19.77-.82.25-1.52.17-2.08-.26a2.87 2.87 0 0 1-.98-1.52c-.25-.8-.24-1.49.03-2.08.27-.58.72-.97 1.35-1.16.7-.22 1.33-.15 1.89.2.55.35.97 1.02 1.26 2.01l-3.14.97c.13.38.32.64.58.79.26.15.53.18.82.09.2-.06.34-.17.44-.32.1-.15.15-.36.14-.62Zm-.33-1.32c-.12-.37-.3-.62-.54-.76a.88.88 0 0 0-.74-.09.9.9 0 0 0-.58.51c-.12.26-.12.56 0 .91l1.87-.58ZM42.9 1.92l-1.22.48a.98.98 0 0 0-.4-.53.89.89 0 0 0-.63-.08.95.95 0 0 0-.7.49c-.15.26-.17.66-.07 1.19.11.59.29.99.53 1.2.24.21.53.28.85.21a.91.91 0 0 0 .56-.33c.13-.17.19-.44.19-.8l1.31-.03a2.32 2.32 0 0 1-.5 1.49c-.31.38-.78.62-1.41.75-.71.14-1.32.02-1.84-.36a2.79 2.79 0 0 1-1.01-1.78c-.16-.82-.07-1.5.26-2.04A2.3 2.3 0 0 1 40.41.76a2.28 2.28 0 0 1 1.49.12c.4.19.73.54.99 1.05ZM48.19 1.46l-1.27.34c-.06-.26-.18-.45-.34-.57s-.37-.17-.61-.15a.95.95 0 0 0-.75.41c-.18.25-.24.64-.2 1.18.05.6.18 1.01.4 1.25.22.23.49.33.82.31.25-.02.45-.11.59-.27s.24-.41.27-.77l1.3.12c-.08.61-.3 1.09-.66 1.43-.35.34-.85.53-1.48.59a2.26 2.26 0 0 1-1.79-.56 2.71 2.71 0 0 1-.8-1.88c-.07-.83.09-1.5.49-2 .39-.5.96-.78 1.69-.84.6-.05 1.09.04 1.47.28.38.24.66.62.86 1.15ZM48.94 3.19V1.85l2.58.01V3.2l-2.58-.01ZM52.33 0l1.31.13-.39 3.97 1.86.18.39-3.97 1.31.13-.39 3.97.52.05-.23 2.41-1.05-.1.13-1.33-3.94-.38.49-5.04ZM60.47 4.68l1.23.5c-.27.44-.61.75-1.01.92-.41.18-.88.2-1.41.09-.84-.18-1.41-.6-1.69-1.25a2.95 2.95 0 0 1-.11-1.81c.18-.82.53-1.42 1.05-1.79.52-.38 1.1-.49 1.74-.35.72.16 1.24.52 1.55 1.1s.35 1.36.12 2.37l-3.21-.69c-.07.39-.04.72.11.97.15.26.37.42.67.48.2.04.38.02.54-.06.16-.08.3-.24.43-.47Zm.36-1.31c.07-.38.04-.69-.1-.93a.93.93 0 0 0-1.36-.28c-.23.17-.38.43-.45.79l1.92.41ZM63.64 1.9l1.24.42-.6 1.76 1.78.6.6-1.76 1.25.42-1.63 4.8-1.25-.42.68-2.02-1.78-.6-.68 2.02-1.24-.42 1.63-4.8ZM68.71 3.66l4.07 1.89-.46.98-1.44-.67-1.68 3.61-1.19-.55 1.68-3.61-1.44-.67.46-.98ZM73.57 5.97l1.05.63-.39.64c.27-.14.56-.2.87-.2.31 0 .61.09.89.26.49.3.79.75.9 1.35.1.6-.06 1.26-.48 1.96a2.93 2.93 0 0 1-1.54 1.37 1.87 1.87 0 0 1-2.17-.69c-.13-.21-.23-.5-.31-.85l-1.32 2.18-1.12-.68 3.62-5.99Zm-.16 2.77c-.29.49-.42.9-.37 1.25.05.35.21.6.48.77.26.16.54.18.85.07.3-.11.6-.41.9-.89.28-.46.39-.85.35-1.18a.97.97 0 0 0-.46-.73 1 1 0 0 0-.88-.09c-.31.11-.6.37-.85.8Z" class="cls-1"/><path d="m20.88 81.58 4.3 3.42-4.36 5.48-1.09-.87 3.62-4.56-2.12-1.68-3.62 4.56-1.09-.87 4.36-5.48ZM27.96 90.67l-1.24-.46c.1-.25.11-.47.05-.67a.84.84 0 0 0-.42-.48.98.98 0 0 0-.86-.11c-.29.1-.57.38-.85.84-.31.52-.44.93-.4 1.25.04.32.21.56.5.73.22.13.43.17.64.13.21-.04.44-.2.67-.47l1 .86c-.43.45-.88.71-1.37.78a2.37 2.37 0 0 1-1.56-.39 2.28 2.28 0 0 1-1.14-1.5c-.13-.63.01-1.29.44-2 .43-.72.95-1.17 1.56-1.34a2.3 2.3 0 0 1 1.88.31c.52.31.87.67 1.04 1.09.17.41.19.89.04 1.44ZM29.43 89.71l1.2.55-.86 1.88c.21.07.38.07.51 0 .13-.06.33-.24.6-.53.36-.38.66-.6.9-.64.24-.04.51 0 .81.14l.47.24-.36.81c-.32-.14-.53-.21-.65-.19-.12.02-.3.17-.55.44-.33.36-.66.53-.96.51.33.28.5.76.51 1.44v.11l.09 1.58-1.29-.59v-1.61c0-.33-.02-.55-.07-.66a.67.67 0 0 0-.35-.3l-.9 1.97-1.2-.55 2.1-4.61ZM32.51 93.82c.14-.42.37-.8.71-1.13.34-.33.73-.54 1.17-.62.44-.09.9-.05 1.37.1.72.23 1.23.66 1.54 1.28.31.62.34 1.3.11 2.02a2.68 2.68 0 0 1-1.28 1.59c-.62.33-1.28.38-1.99.15a2.9 2.9 0 0 1-1.15-.7 2.16 2.16 0 0 1-.62-1.17c-.08-.45-.03-.96.15-1.51Zm1.27.48c-.15.48-.16.88-.02 1.21.14.33.38.54.71.65.33.11.64.07.95-.11.31-.18.54-.52.69-1 .15-.47.16-.87.02-1.2a1.1 1.1 0 0 0-.7-.65 1.1 1.1 0 0 0-.95.11c-.31.18-.54.51-.69.99ZM39.02 93.26l2.85.53c.58.11 1 .3 1.25.57.25.27.33.62.25 1.06a1.17 1.17 0 0 1-1.05.98c.32.15.55.35.67.61s.16.53.11.81a1.2 1.2 0 0 1-.6.87c-.33.19-.76.23-1.31.13l-3.1-.58.93-4.98Zm.53 4.38 1.03.19c.37.07.65.07.84.02s.3-.21.35-.44c.05-.24-.02-.43-.2-.56a3.03 3.03 0 0 0-1.11-.35l-.67-.13-.24 1.27Zm.39-2.07.84.16c.4.08.71.08.91 0 .2-.07.32-.21.36-.44.04-.21-.02-.38-.17-.5a2.12 2.12 0 0 0-.87-.3l-.84-.16-.23 1.22ZM48.62 95.99l-1.32.15c-.03-.27-.11-.47-.26-.61a.84.84 0 0 0-.59-.24c-.33-.02-.6.07-.81.29s-.34.6-.37 1.13c-.04.6.03 1.03.21 1.29a1 1 0 0 0 .77.43c.25.02.46-.04.63-.17.17-.13.3-.37.39-.72l1.28.31a2.38 2.38 0 0 1-.87 1.31c-.4.28-.93.4-1.57.36a2.26 2.26 0 0 1-1.7-.82c-.4-.5-.57-1.16-.52-1.98.06-.84.32-1.47.79-1.91a2.3 2.3 0 0 1 1.82-.57c.61.04 1.08.21 1.42.5.34.29.57.71.69 1.27ZM49.47 94.47l1.32-.05.08 2.07c.22-.03.37-.11.46-.22.09-.11.19-.36.3-.74.15-.5.32-.83.52-.98.2-.15.46-.23.78-.24h.52l.04.89c-.35.01-.57.06-.66.13-.09.07-.19.29-.29.64-.13.47-.34.77-.63.89.42.1.79.45 1.1 1.06l.06.1.79 1.37-1.42.06-.72-1.44a1.94 1.94 0 0 0-.37-.56.64.64 0 0 0-.44-.11l.08 2.16-1.32.05-.2-5.06ZM54.08 96.74c-.07-.44-.02-.88.13-1.33.15-.44.41-.8.77-1.08.36-.28.78-.45 1.27-.52.75-.11 1.4.04 1.95.46s.89 1.01 1 1.76c.12.76-.03 1.42-.44 1.99-.41.57-.98.91-1.71 1.02-.45.07-.9.03-1.34-.11a2.2 2.2 0 0 1-1.08-.77 3.09 3.09 0 0 1-.54-1.42Zm1.35-.13c.08.5.25.86.52 1.09.27.23.58.32.92.27.34-.05.61-.23.8-.53.19-.3.25-.7.17-1.2-.07-.49-.25-.85-.52-1.08s-.58-.32-.92-.27a1.1 1.1 0 0 0-.8.53c-.19.3-.25.7-.18 1.2ZM59.59 93.35l1.22-.35.87 3.06 1.09-3.62 1.25-.36 1.38 4.88-1.22.35-.88-3.12-1.1 3.68-1.22.35-1.38-4.88Zm2.49-2.85.62-.18c.08.43.03.79-.15 1.1a1.4 1.4 0 0 1-.88.63c-.4.11-.76.09-1.08-.08a1.51 1.51 0 0 1-.71-.86l.62-.18c.08.21.2.35.37.43.16.08.37.08.61 0 .25-.07.42-.18.52-.33.1-.15.13-.33.09-.56ZM67 88.86l4.32-2.18 3.15 6.25-1.24.63-2.62-5.19-1.85.94 1.34 2.67c.39.76.63 1.31.73 1.64.1.33.1.63-.01.89-.11.27-.37.51-.79.71l-.82.36-.49-.98.28-.14c.26-.13.42-.25.47-.37.05-.12.01-.31-.13-.59l-.55-1.07-1.8-3.57ZM77.53 89l1.22-.56c.14.5.12.96-.04 1.38-.16.42-.47.78-.92 1.09-.72.49-1.41.61-2.08.37-.53-.2-1-.59-1.39-1.17a2.84 2.84 0 0 1-.57-2 2.1 2.1 0 0 1 .96-1.51 2.2 2.2 0 0 1 1.88-.37c.64.17 1.23.69 1.79 1.55l-2.74 1.86c.23.32.49.52.79.59a1 1 0 0 0 .82-.15.86.86 0 0 0 .34-.44c.05-.17.04-.39-.05-.64Zm-.69-1.17c-.23-.32-.47-.5-.74-.57a.91.91 0 0 0-.74.13.88.88 0 0 0-.41.67c-.04.28.05.57.26.87l1.64-1.11ZM77.4 84.85l1-.87 1.22 1.4 1.43-1.24-1.22-1.4 1-.87 3.32 3.83-1 .87-1.4-1.61-1.43 1.24 1.4 1.61-1 .87-3.32-3.83ZM81.22 81.49l3.07-3.33.8.73-1.08 1.18 2.93 2.7-.9.97-2.93-2.7-1.09 1.18-.8-.73ZM84.72 77.75l.76-1.09 1.73 1.2.76-1.09c.3-.43.56-.73.78-.91.22-.18.48-.28.8-.29.32-.01.61.08.89.27.4.28.61.63.62 1.04.01.41-.17.89-.55 1.44l-1.62 2.32-4.16-2.9Zm4.22 1.32.7-1.01c.18-.26.27-.48.27-.66 0-.18-.1-.33-.28-.46-.2-.14-.39-.16-.57-.06-.18.1-.41.35-.69.75l-.49.7 1.06.74Zm-1.03-5.9.76-1.09 4.16 2.9-.76 1.09-4.16-2.9ZM95.02 70.82l-6.47-2.67.53-1.29 2.55 1.05 1.04-2.52-2.55-1.05.53-1.29 6.47 2.67-.53 1.29-2.83-1.17-1.04 2.52 2.83 1.17-.53 1.29ZM95.11 63.51a2.7 2.7 0 0 1-1.17-.64 2.2 2.2 0 0 1-.69-1.13c-.11-.44-.11-.9.01-1.37.19-.73.59-1.27 1.19-1.61.6-.34 1.27-.42 2.01-.23.74.19 1.3.59 1.66 1.19.36.6.45 1.26.27 1.97-.11.44-.33.84-.63 1.19a2.2 2.2 0 0 1-1.13.69c-.45.11-.95.09-1.52-.06Zm.41-1.29c.49.13.89.11 1.21-.05.32-.16.52-.41.61-.74s.03-.65-.17-.94c-.2-.29-.55-.5-1.04-.63-.48-.12-.88-.11-1.2.05-.32.16-.52.41-.61.74-.09.33-.03.65.17.94.2.3.54.51 1.03.63ZM94.16 57.08l.37-2.87c.08-.59.24-1.02.5-1.28.25-.27.6-.37 1.04-.31.28.04.52.15.7.34.19.19.3.41.34.66a1.26 1.26 0 0 1 1.38-.85c.39.05.69.23.9.55.21.31.28.75.21 1.3l-.4 3.13-5.03-.65Zm2.26-1.05.11-.84a1.9 1.9 0 0 0-.04-.9c-.08-.2-.23-.31-.46-.34-.21-.03-.37.04-.48.2-.11.16-.2.45-.25.89l-.11.84 1.23.16Zm2.08.27.13-1.04c.05-.37.04-.65-.03-.84-.07-.18-.22-.29-.46-.32-.25-.03-.43.04-.55.23-.12.18-.21.56-.29 1.13l-.09.67 1.28.16ZM97.27 51.85a2.7 2.7 0 0 1-1.29-.33 2.28 2.28 0 0 1-.95-.92 2.6 2.6 0 0 1-.32-1.33c0-.76.26-1.38.76-1.86.5-.48 1.13-.72 1.89-.72.77 0 1.4.25 1.9.74s.75 1.11.75 1.85c0 .46-.11.89-.32 1.31-.21.42-.52.73-.93.94-.41.21-.9.32-1.48.32Zm.08-1.36c.5 0 .89-.11 1.16-.35.27-.23.4-.52.4-.87s-.13-.63-.4-.87a1.78 1.78 0 0 0-1.16-.36c-.5 0-.88.11-1.15.35-.27.23-.4.52-.4.87 0 .34.13.64.4.87.27.24.65.36 1.15.36ZM95.76 41.47l.38 1.27a.95.95 0 0 0-.56.36.86.86 0 0 0-.13.62 1 1 0 0 0 .43.75c.25.17.65.22 1.18.16.6-.07 1.01-.21 1.23-.44a1 1 0 0 0 .28-.84.9.9 0 0 0-.28-.59c-.16-.14-.42-.23-.78-.25l.08-1.32c.62.07 1.1.27 1.45.62.35.35.56.84.63 1.48.08.73-.09 1.33-.5 1.82-.42.48-1.04.77-1.86.87-.83.09-1.5-.05-2.01-.43a2.3 2.3 0 0 1-.89-1.68c-.07-.61.01-1.1.23-1.49.22-.39.6-.69 1.12-.91ZM94.23 41.46l-.98-4.42 1.06-.24.35 1.56 3.89-.87.29 1.29-3.89.87.35 1.56-1.06.23ZM95.42 32.64l-.21-1.32c.52 0 .96.14 1.32.4.36.26.63.66.8 1.18.28.82.21 1.53-.2 2.11-.33.46-.83.8-1.5 1.03-.8.27-1.49.28-2.08.02-.59-.26-.99-.7-1.2-1.33a2.22 2.22 0 0 1 .14-1.91c.33-.57.99-1.01 1.97-1.32l1.06 3.14c.37-.14.63-.34.78-.6a1 1 0 0 0 .07-.83c-.07-.2-.18-.34-.33-.44s-.36-.14-.63-.13Zm-1.31.36c-.36.13-.61.32-.74.57a.95.95 0 0 0 .46 1.33c.26.11.57.1.91-.02l-.64-1.87ZM88.15 29.67l-.28-.58c.41-.15.78-.17 1.11-.04.34.13.59.38.78.76.18.38.22.74.11 1.08-.11.34-.35.63-.72.85l-.28-.58c.19-.12.31-.26.36-.44s.01-.37-.1-.61a.87.87 0 0 0-.41-.45.73.73 0 0 0-.56.01Zm3.23 1.96-.55-1.15 2.87-1.38-3.75-.45-.56-1.17 4.56-2.2.55 1.14-2.92 1.41 3.82.45.55 1.14-4.56 2.2Z" class="cls-3"/></svg>