<svg xmlns="http://www.w3.org/2000/svg" id="Layer_1" data-name="Layer 1" viewBox="0 0 300 274"><defs><style>.cls-1{fill:#231f20}</style></defs><path d="M96.76 219.41c5.81.51 9.18-4.05 9.62-9.01.41-4.6-2.27-8.7-7.93-9.2-5.59-.49-9.33 2.85-9.77 7.83-.52 5.85 2.73 9.9 8.09 10.37Zm-2.63-7.6c.13-1.47.83-1.9 2.09-1.79 1.01.09 1.78.73 1.65 2.2-.14 1.63-.42 3.06-2.2 2.68-.84-.18-1.7-1.42-1.55-3.09ZM105.1 219.63c0 .29 1.24.94 4.02 1.02 2.82.09 5.35-.96 6.76-3.13.7-1.1 1.35-3.65 1.75-7.52a16.73 16.73 0 0 1 2.82.09c.04 3.24.11 6.65.27 9.48-.02.58.01.77.54.82 1.09.1 2.74.25 4.08.29.77.02 1.51.05 2.25.04.25 0 .53.02.54-.43.04-1.15.14-3.24.29-5.93.49-8.94.59-9.93.66-10.86 0-.22-.1-.26-.41-.3a43.43 43.43 0 0 0-4.74-.37c-7.07-.22-13.8-.33-13.8-.33-.46-.01-.57.18-.58.53-.08 2.69.13 4.85-.04 10.27-.07 2.28-.83 3.89-1.85 3.86-.25 0-.56-.15-.77-.15-.63-.02-1.75 1.84-1.77 2.64ZM140.69 220.66c5.94-.48 8.56-5.56 8.15-10.51-.37-4.6-3.77-8.19-9.56-7.72-5.71.47-8.92 4.4-8.51 9.38.48 5.85 4.44 9.29 9.92 8.85Zm.8-12.48c1.03-.08 1.53.39 1.65 1.86.13 1.63-.41 2.96-1.36 3.04-.88.07-1.66-1.12-1.8-2.78-.12-1.47.22-2.01 1.51-2.12ZM155.08 213.43c.7 0 1.48-.08 2.4-.26.04 2.05.12 4.01.2 5.74.03.58.06.77.66.81 1.09.08 2.74.2 4.08.22h2.25c.53 0 .53-.03.55-1.63.05-3.85.57-10.55.63-15.33 0-.51-.1-.55-.41-.58a51.93 51.93 0 0 0-5.7-.3c-1.72-.02-2.75.03-2.75.51-.03 1.92.12 4.01.09 5.9 0 .32-.19.7-1 .69-1.09-.02-1.12-.66-1.11-1.11.02-1.76.16-3.66.18-5.68 0-.32-.24-.39-1.83-.41-2.5-.03-2.75.12-2.79.28-.08.7-.13 1.89-.15 3.14a40.1 40.1 0 0 0 .12 3.82c.18 1.93 1.21 4.12 4.56 4.17ZM168.62 219.4c0 .51.28.58 5.46.58.85 0 1.83 0 1.9-.48.14-1.12.18-1.96.25-2.89.14.26.56.54.91.47.26-.05.73-.31.89-1.02.17 1.09.56 3.02.7 3.69.07.29.32.32.63.35 1.83.13 4.15.16 5.56.16.28 0 .49-.16.53-.38.74-5.84.75-8.34.75-12.99v-3.75c0-.64-4.26-.71-5.07-.71-.95 0-3.24 0-3.24.7v8.6c-.25 0-.54.19-.66.25-.22.11-.38.21-.79-.06.32-2.89.32-6.19.32-8.79 0-.35-.18-.51-.56-.51-.81 0-2.68.03-4.89.03-1.09 0-3.27 0-3.27.7 0 1.25.07 3.4.17 6.45l.41 9.59ZM189.35 219.47c.01.7 3.23 1.19 6.82 1.13 6.62-.12 10.64-3.85 10.54-9.01-.08-4.65-4.1-6.47-8.92-6.7l-.04-2.12c0-.45-1.7-.42-3.18-.39-2.53.05-4.64.21-5.28.26-.25.04-.26 3.18-.19 6.87.07 3.66.21 7.86.25 9.97Zm11.71-4.74c.02 1.35-1.16 1.91-2.29 1.93-.28 0-.53 0-.78-.08l-.08-4.17c1.9-.03 3.12.97 3.14 2.32ZM209.43 220.26a50.61 50.61 0 0 0 6.2.02c.28 0 .77-.11.76-.72-.02-1.09-.02-3.27 0-5.74.05-6.99.13-10.33.13-10.49 0-.42-.15-.51-.68-.6-1.41-.1-3.03-.14-4.65-.11-1.02.02-2.18.07-2.71.18-.77.11-.84.37-.83.72.1 5.52.48 11.06.92 15.77.08.7.37.96.86.98ZM226 220.07c4.79.04 5.92-.28 5.99-.63.15-.87.19-1.67.2-2.85 0-.32-.07-.64-.52-.65-.88 0-1.59.08-2.32.08-.6 0-1.2 0-1.83-.08 0-.48.04-1.03.08-1.41h1.44c1.65.02 2.5-.1 2.75-.39.25-.35.57-1.38.68-2.02 0-.42-.21-.68-.73-.68-.81 0-1.27.09-4.02.16 0-.35 0-.99.05-1.35 2.71.02 3.7.16 4.19.16.46 0 1.19-3.74 1.22-7.5 0-.29-.14-.48-.52-.49l-3.94-.03c-7.46-.06-9.23.38-9.23 1.12 0 .93.47 11.78 1.04 15.57.13.93 1.12.94 5.48.97ZM75.29 227.4c-3.13.05-7.57.21-7.56.88.02 1.28.08 3.33.84 16.51 0 .29.32.32 5.36.24.77-.01 1.55-.02 1.61-.31.37-3.5.43-6.58.49-9.63.63-.04 1.27-.05 2.01-.06.09 6.09.42 9.52.46 9.81.04.16.07.22.21.22 1.9.1 4.86.09 6.09.07.35 0 .53-.04.56-.36.52-5.24.65-8.41.52-17.04 0-.45-7.22-.38-10.6-.33ZM95.97 227.04c-3.58-.28-6.89.11-6.96.97-.31 4.03-.06 17.11.49 17.8.63.11 1.36.17 3.68.35 1.61.13 3.41.2 3.46-.47l.32-2.8c4.67-.06 8.67-1.64 9.03-6.22.4-5.15-3.42-9.11-10.02-9.63Zm1.23 12.74.28-3.55c.11-.02.28-.01.42 0 .91.07 1.89.63 1.81 1.69-.09 1.12-1.06 1.85-2.51 1.86ZM117.13 227.88c-5.25-.56-8.86 2.74-9.39 7.71-.62 5.84 2.35 9.93 7.39 10.46 5.46.58 8.74-3.94 9.26-8.89.49-4.59-1.94-8.72-7.26-9.29Zm.14 10.73c-.17 1.63-.9 2.84-1.78 2.75-.81-.09-1.3-1.4-1.13-3.06.16-1.47.56-1.94 1.75-1.81.95.1 1.31.65 1.16 2.12ZM128.7 228.98c.02 2.47.25 4.43.29 9.4.01 1.62-.37 2.91-.98 3.38-3.09.08-3.61.14-3.61.46 0 1.03.19 4.05.56 6.81 0 .12.26.15 4.64.12.64 0 1.32 0 1.42-.13.31-1.5.4-2.79.49-4.09l7.8-.05c.02 2.55.19 3.76.22 3.96.03.21.87.35 5.74.32.1 0 .19-.03.23-.09.63-2.3.72-3.62.71-5.61v-1.35c-.04-.35-.59-.38-.91-.38 0-4.55.17-8.78.24-12.98 0-.21-.07-.23-.36-.26a35.71 35.71 0 0 0-4.09-.18c-6.13.04-11.93.16-11.93.16-.39 0-.45.18-.45.5Zm7.17 6.12c.35-.03.84-.06 1.22-.07.42 0 .84 0 1.23.05.04 2.03.22 4.49.4 6.61-1.42-.02-2.64-.01-3.9 0 .44-1.15.88-3.38 1.05-6.59ZM154.71 246.46a48.74 48.74 0 0 1 4.05-6.9c2.16-3.24 4.32-6.54 5.96-10.11.04-.06.04-.13.04-.13 0-.35-.63-.52-4.85-.58h-.7c-.35-.02-.7.01-.71.14a22.2 22.2 0 0 1-1.9 4.33 20.86 20.86 0 0 1-1.73-4.39c-.07-.16-.46-.17-.81-.17-1.87-.03-4.05 0-5.64.17-.35.03-.46.19-.46.38 0 .13.03.26.1.39a52.24 52.24 0 0 0 4.53 8.09 42.92 42.92 0 0 0-4.21 8.28c0 .51 4.78.74 6.04.76.11 0 .21-.06.29-.25ZM173.56 245.95c.03-1.03 0-2.02.03-3.05.02-.67.04-1.28.1-1.95a32.6 32.6 0 0 1 2.24 5.98c.07.1.1.13.24.14 1.87.06 6.48.05 6.51-.72a42.69 42.69 0 0 0-3.66-8.66 22.74 22.74 0 0 0 4.69-7.58c.08-.22.12-.38.12-.48.01-.38-4.94-.87-6.38-.91-.14 0-.25.06-.25.15-1 2.63-2.25 5.16-3.41 7.4a76.52 76.52 0 0 1-.07-6.45c0-.29.06-.64.07-.99 0-.16-.1-.23-.24-.23-5.67-.19-7.64-.25-7.65.2-.1 2.92.09 6.87.25 12.72.12 3.92.13 4.59.73 4.65.74.09 1.83.09 3.31.14 2.92.1 3.38.08 3.39-.34ZM194.47 246.76c1.37-.07 2.21-.23 2.26-.72.27-3.19.44-6.96.44-9.21l3.17-.15c.39-.02.48-.25.5-.54 0-1.32-.02-2.6-.08-3.88-.05-1.09-.1-2.02-.26-3.13-.05-.26-.23-.44-.55-.46-2.96-.05-6.13.07-9.23.22-1.55.07-3.38.16-4.81.29a.52.52 0 0 0-.5.54c-.02 1.12 0 2.09.05 3.24.06 1.25.16 2.59.29 3.81.02.32.23.47.55.46 1.13-.05 2.18-.1 3.2-.09.45 2.74.76 5.65 1.13 8.84.07.64.21.76.53.81.92.02 1.9.04 3.31-.03ZM228.29 246.18c.6-.03 1.51-.07 2.18-.14.28-.01.77-.13.74-.74-.05-1.09-.13-3.27-.18-5.74-.17-6.99-.19-10.33-.2-10.49-.02-.42-.17-.51-.7-.58a52.13 52.13 0 0 0-4.65.04 20.5 20.5 0 0 0-2.7.26c-.77.13-.83.39-.81.75.27 5.51.83 11.04 1.41 15.73.1.7.4.94.89.95 1.06.04 2.68.03 4.02-.04ZM221.27 237.63c-.23-4.65-4.3-6.34-9.13-6.42l-.1-2.11c-.02-.45-1.71-.37-3.19-.29-2.53.13-4.64.36-5.27.42-.24.04-.16 3.19.02 6.87.18 3.65.46 7.85.56 9.96.03.7 3.26 1.09 6.85.91 6.61-.33 10.51-4.18 10.26-9.34Zm-9.14.81c3.42-1.33 3.81.84 3.88 2.18s-1.38 2.28-2.51 2.34c-.28.01-1.12.03-1.37-.06v-4.46ZM77.36 250.04c-3.59-.05-11.02.75-11.03 1.23-.13 9.15.52 16.78 1.08 22.34.03.34.22.38.59.38 1.31.02 4.44.03 6.46-.08.15 0 .19-.07.23-.24.04-.31-.28-10.71-.2-17.18.78.01 1.46.02 2.13.06.07 3.23.96 12.58 1.35 16.29.07.31.89.32 1.71.33 5.34.07 5.68.04 5.68-.26.79-13.97-.01-20.59 0-21.95 0-.71-4.69-.88-8.02-.93ZM99.96 255.48h-.7c-.35 0-.7.03-.7.16a22.27 22.27 0 0 1-1.83 4.36 21.24 21.24 0 0 1-1.8-4.36c-.07-.16-.46-.16-.81-.16-1.87 0-4.05.06-5.63.26-.35.03-.46.19-.46.38 0 .13.04.26.11.39a51.78 51.78 0 0 0 4.65 8.02 42.76 42.76 0 0 0-4.08 8.34c0 .51 4.79.67 6.06.67.11 0 .21-.06.28-.26 1.09-2.5 2.5-4.71 3.94-6.96 2.11-3.27 4.22-6.61 5.81-10.2.03-.06.03-.13.03-.13 0-.35-.63-.51-4.86-.51ZM131.57 256.04c0-.29-.5-.35-5.11-.3-.7 0-1.44.05-1.51.34-.32 3.5-.35 10.91-.42 13.96-.14.03-1.23.04-2.29.05 0-.9.02-1.92.04-3.08.09-8.82.15-9.85.14-10.75 0-.22-.07-.26-.36-.28-1.34-.15-2.85-.2-4.33-.18-1.41.01-2.5.06-2.49.63.05 4.71.31 9.46.6 13.72l-2.53.03c-.06-6.09-.38-13.63-.42-14.14 0-.16-.07-.22-.21-.22-1.76-.11-4.75-.14-6.06-.13-.63 0-.58 8.83-.57 9.34.02 1.89.04 4.39.36 8.08 0 .13 13.1.35 17.82.3 1.76-.02 3.73-.07 7.08-.17.21 0 .42 0 .45-.45.09-1.16.09-1.35.09-1.7-.01-1.19-.05-4.97-.26-15.04ZM145.66 255.59c-.14 0-.25.06-.25.16a72.77 72.77 0 0 1-3.17 7.51 74.93 74.93 0 0 1-.28-6.45c0-.29.04-.64.04-.99 0-.16-.11-.22-.25-.22-5.67 0-7.64 0-7.64.45 0 2.92.32 6.86.67 12.7.25 3.91.28 4.59.88 4.62.74.06 1.83.03 3.31.03 2.92 0 3.38-.03 3.38-.45 0-1.03-.07-2.02-.07-3.05 0-.67 0-1.28.04-1.96a32.27 32.27 0 0 1 2.43 5.9c.07.1.11.13.25.13 1.87 0 6.48-.16 6.48-.93a42.46 42.46 0 0 0-3.94-8.53 22.72 22.72 0 0 0 4.44-7.73c.07-.22.11-.38.11-.48 0-.38-4.96-.71-6.41-.71ZM168.54 255.78c-1.55-.1-2.53-.1-3.1-.1-.92 0-1.27.1-1.55.38a27.38 27.38 0 0 0-4.68 5.74c0-1.7.07-3.56.07-5.26 0-.48-.04-.64-.18-.74-.14-.06-.28-.1-1.83-.1-2.39 0-2.53.06-2.61.29-.11.32-.11.71-.11 3.91 0 2.05-.07 4.07-.07 6.38 0 3.34.04 5.49.11 6 .11.77.11.93.28 1.06.18.1.35.19 2.5.19 2.96 0 3.13-.03 3.94-1.22a45.65 45.65 0 0 1 3.77-4.71c-.07 2.53-.21 3.78-.21 5.07 0 .67.14.83 1.97.83 1.72 0 2.11-.03 2.32-.29.21-.16.21-.8.21-1.41 0-1.89.11-9.72.11-15.27 0-.58-.21-.74-.95-.77ZM184.71 255.43c-.95 0-3.24 0-3.24.71v8.72c-.21-.22-.35-.35-.49-.35s-.46.1-.95.42c.32-2.89.32-6.19.32-8.79 0-.35-.18-.51-.56-.51-.81 0-2.68.03-4.89.03-1.09 0-3.27 0-3.27.71 0 1.25.07 3.4.18 6.45l.42 9.59c0 .51.28.58 5.46.58.85 0 1.83 0 1.9-.48.14-1.12.18-1.96.25-2.89.14.26.28.38.49.38.07 0 .39-.06 1.3-.93.18 1.09.56 3.02.7 3.69.07.29.32.32.63.35 1.83.13 4.15.16 5.56.16.28 0 .49-.16.53-.38.74-5.84.74-8.34.74-12.99v-3.75c0-.64-4.26-.71-5.07-.71ZM200.14 255.24c-5.28 0-8.52 3.66-8.52 8.66 0 5.87 3.38 9.62 8.45 9.62 5.49 0 8.27-4.84 8.27-9.82 0-4.62-2.85-8.47-8.2-8.47Zm.32 13.05c-.81 0-1.44-1.25-1.44-2.92 0-1.48.38-3.21 1.57-3.21.95 0 1.35 1.74 1.35 3.21 0 1.64-.6 2.92-1.48 2.92ZM217.28 255.53c-2.04 0-6.51.26-6.55.55a36.03 36.03 0 0 0-.32 5.26c0 5.04.53 11.03.99 11.52.39.38 5.74.45 7.43.45.14 0 .25-.03.25-.19a92.56 92.56 0 0 1-.11-4.43c0-1.86.04-3.78.11-5.77 2.54 0 3.59.13 4.08.13.18 0 .25-.06.25-.23-.04-1.19-.11-5.81-.25-6.77-.04-.23-1.9-.51-5.88-.51ZM233.76 255.24c-5.28 0-8.52 3.66-8.52 8.66 0 5.87 3.38 9.62 8.45 9.62 5.49 0 8.27-4.84 8.27-9.82 0-4.62-2.85-8.47-8.2-8.47Zm-.21 13.57c-.81 0-1.94-1.26-1.94-2.92 0-1.48.85-1.98 2.04-1.98.95 0 1.58 1.2 1.58 2.67 0 1.64-.8 2.24-1.68 2.24ZM250.9 254.81c-3.59-.16-6.89.34-6.92 1.21-.18 4.04.68 16.08 1.25 16.75.63.09 1.37.12 3.69.22 1.62.07 3.41.08 3.44-.59l.08-1.79c4.66-.22 8.61-1.94 8.81-6.52.22-5.16-3.73-8.99-10.35-9.28Zm1.73 11.29.15-3.56c.11-.03.28-.02.42-.01.91.04 1.91.56 1.87 1.62-.05 1.12-1 1.88-2.45 1.95ZM272.23 257.87l.08-2.12c.02-.45-1.67-.51-3.15-.57-2.53-.09-4.65-.04-5.28-.03-.25.02-.43 3.16-.57 6.85-.13 3.65-.22 7.86-.3 9.97-.03.7 3.16 1.37 6.74 1.5 6.61.24 10.83-3.26 11.02-8.42.17-4.65-3.73-6.69-8.54-7.18Zm-.05 10.79c-.28-.01-.78.07-1.03-.04l.41-4.25c1.9.07 3.06 1.14 3.01 2.49-.05 1.35-1.27 1.85-2.39 1.81ZM299.25 259.57c.13-1.93.44-3.89.42-4.47-.02-.71-2.85-1.06-6.23-.95-7 .23-11.11 3.86-10.98 7.81a6.2 6.2 0 0 0 2.88 5.3c.32.24.38.68.15 1-.69.97-1.13 2.27-1.93 3.51a.5.5 0 0 0-.1.29c.02.54 4.91 1.54 5.02 1.54.18 0 .31-.07.45-.27.6-1.08 1.48-2.13 2.65-3.1l.77 2.77c.01.42 1.78.42 3.36.37 2.15-.07 3.24-.11 4.12-.2.77-.09-1.17-4.5-.57-13.6Zm-10.93 5.05c-.04-1.12 1.04-1.7 2.27-1.74.25 0 .53.01.74.07l.14 4.17c-1.87-.07-3.1-.99-3.15-2.5ZM86.07 192.21a1.52 1.52 0 0 0-2.81-.52 687.73 687.73 0 0 1-7.7 12.47.54.54 0 0 1-.76-.14 42.94 42.94 0 0 1-5.13-11.01c-.57-1.92-2.94-1.14-3.32.36a34.4 34.4 0 0 0-1.07 8.66c-.09 1.48-.01 1.55-.07 3.92-.1 4.2.1 11.48.96 12.68.87 1.22 2.3.81 2.78.52.53-.36.86-.79.87-2.06 0-.7-.09-1.38.11-1.87.28-.66.73-.4.97.13.63 1.37 1.06 2.35 1.79 3.61.23.4.45.95 1.26.97.94.02 1.07-.57 1.27-.89.57-.95 1.16-2.95 1.67-4.07.25-.54 1.05-.35 1.03.24-.02.64.05 1.3.03 2.11-.01.65.33 1.74.96 2.05 1.06.52 3.41 1.48 6.28-.77 1.29-1.01 1.01-2.16 1.06-2.87a257.77 257.77 0 0 0 .42-17.91 35.8 35.8 0 0 0-.61-5.58ZM42.76 130.72a106.6 106.6 0 0 1-6-.24c-.33-.65-.79-2.08.24-4.02 2.22-4.21.52-5.73-4.54-6-3.97-.21-9.23 3.1-11.99 5.06-6.56-4.85-6.64-9.32-8.86-13.21-.2-.26-.69-.59-1.15-.66a4.3 4.3 0 0 0-3.14.78c-.39.29-1.15.88-1.48 1.79-1.73 6.64 3.81 17.62 9.68 21.39 8.71 5.58 20.61 3.49 26.43 1.18 1.43-.5 1.97-1.54 2.33-2.65.34-.79.37-2.08-.14-2.76-.27-.54-1.09-.63-1.37-.65Z" class="cls-1"/><path d="M279.08 41.82h-.05c-9.5 0-17.22 7.69-17.24 17.19-.01 4.41-.05 16.14-24.13 23.78-9.34 2.96-19 4.18-25.51 4.69-1.86.08-3.81.17-5.78.28-51.95-17.86-93.6-6.6-113.12 1.28l-.5-.02c1.13-2.45 2.36-5.16 3.79-8.3a637.6 637.6 0 0 0 12.48-29.09c2.69-6.43 4.92-14.6 6.57-21.66a6.14 6.14 0 0 0-9.59-6.36 2839.67 2839.67 0 0 1-48.25 34.06 2.16 2.16 0 0 1-2.59-1.72A173.9 173.9 0 0 1 53.57 7c.93-8-9.09-8.88-12.86-3.93-6.38 8.37-13.13 19.28-17.65 30.41-2.67 5.33-2.5 5.73-6.44 14.42C9.61 63.31-1.18 90.61.11 96.44c1.3 5.88 7.23 6.65 9.5 6.33 2.53-.52 4.42-1.57 6.49-6.26 1.14-2.57 1.84-5.28 3.36-6.76 2.08-2.01 3.32-.32 3.39 2.01.18 6.08.22 10.39.93 16.2.23 1.86.17 4.25 3.13 5.6 3.44 1.56 4.86-.44 6.11-1.3 3.61-2.61 8.98-9.12 12.63-12.46 1.76-1.61 4.46.36 3.44 2.52-1.1 2.33-1.87 4.88-3.22 7.87-1.08 2.37-1.54 6.98.3 9.13 2.91 3.39 9.42 10.02 21.98 7.63-.31 12.46-.69 29.65-1.2 53.75-.09 1.55 1.26 1.8 22.84 2.99 3.32.18 6.64.37 7.03-1.17a622.6 622.6 0 0 0 4.74-41.77c2.77.77 5.73 1.5 8.84 2.16-1.17 25.47-1.02 39.8-.96 41.16.1.87.24 1.22.84 1.26 8.11 1.14 20.77 2.01 26.05 2.3 1.51.08 2.27-.05 2.52-1.76a687.5 687.5 0 0 0 4.85-39.62c1.05 0 2.1-.02 3.17-.04l4.69 38.85c.12 1.51 1.66 1.66 26.25-.34 3.71-.3 7.55-.75 7.84-2.3.31-14.78-.11-28.14-.68-41.12a217.6 217.6 0 0 0 10.02-2.57c2.39 26.88 4.64 41.76 5.02 43.36.22.95.51 1.2 1.2 1.15 9.4-.08 23.85-.98 30.99-1.56.55-.04 1.08-.36 1.16-1.06a462.5 462.5 0 0 0-.86-61.09c5-.94 10.3-2.19 15.59-3.87 41.84-13.26 48.16-41.12 48.2-56.55a17.24 17.24 0 0 0-17.19-17.29Z" class="cls-1"/></svg>