<svg xmlns="http://www.w3.org/2000/svg" xmlns:xlink="http://www.w3.org/1999/xlink" viewBox="0 0 100 96.58"><defs><radialGradient id="New_Gradient_Swatch_1" cx="40.98" cy="38.22" r="2.87" data-name="New Gradient Swatch 1" fx="40.98" fy="38.22" gradientUnits="userSpaceOnUse"><stop offset="0" stop-color="#b9d6f0"/><stop offset=".32" stop-color="#b6d5ef"/><stop offset=".46" stop-color="#afd2ef"/><stop offset=".57" stop-color="#a3ceed"/><stop offset=".65" stop-color="#91c9ec"/><stop offset=".73" stop-color="#79c1e9"/><stop offset=".8" stop-color="#5db8e7"/><stop offset=".86" stop-color="#3bade3"/><stop offset=".92" stop-color="#14a0e0"/><stop offset=".95" stop-color="#009ade"/><stop offset="1" stop-color="#006094"/></radialGradient><radialGradient xlink:href="#New_Gradient_Swatch_1" id="New_Gradient_Swatch_1-2" cx="39.18" cy="44.49" r="2.6" data-name="New Gradient Swatch 1" fx="39.18" fy="44.49"/><radialGradient xlink:href="#New_Gradient_Swatch_1" id="New_Gradient_Swatch_1-3" cx="45.05" cy="43.91" r="2.71" data-name="New Gradient Swatch 1" fx="45.05" fy="43.91"/><radialGradient xlink:href="#New_Gradient_Swatch_1" id="New_Gradient_Swatch_1-4" cx="47.52" cy="38.16" r="2.86" data-name="New Gradient Swatch 1" fx="47.52" fy="38.16"/><radialGradient xlink:href="#New_Gradient_Swatch_1" id="New_Gradient_Swatch_1-5" cx="36.08" cy="31.66" r="2.61" data-name="New Gradient Swatch 1" fx="36.08" fy="31.66"/><radialGradient xlink:href="#New_Gradient_Swatch_1" id="New_Gradient_Swatch_1-6" cx="42.21" cy="32.01" r="2.79" data-name="New Gradient Swatch 1" fx="42.21" fy="32.01"/><radialGradient xlink:href="#New_Gradient_Swatch_1" id="New_Gradient_Swatch_1-7" cx="48.31" cy="32.35" r="2.25" data-name="New Gradient Swatch 1" fx="48.31" fy="32.35"/><radialGradient xlink:href="#New_Gradient_Swatch_1" id="New_Gradient_Swatch_1-8" cx="54.11" cy="32.14" r="2.54" data-name="New Gradient Swatch 1" fx="54.11" fy="32.14"/><radialGradient xlink:href="#New_Gradient_Swatch_1" id="New_Gradient_Swatch_1-9" cx="59.99" cy="31.77" r="2.22" data-name="New Gradient Swatch 1" fx="59.99" fy="31.77"/><radialGradient xlink:href="#New_Gradient_Swatch_1" id="New_Gradient_Swatch_1-10" cx="54.05" cy="37.77" r="2.68" data-name="New Gradient Swatch 1" fx="54.05" fy="37.77"/><radialGradient xlink:href="#New_Gradient_Swatch_1" id="New_Gradient_Swatch_1-11" cx="59.56" cy="37.46" r="2.51" data-name="New Gradient Swatch 1" fx="59.56" fy="37.46"/><radialGradient xlink:href="#New_Gradient_Swatch_1" id="New_Gradient_Swatch_1-12" cx="65.15" cy="31.57" r="2.3" data-name="New Gradient Swatch 1" fx="65.15" fy="31.57"/><radialGradient xlink:href="#New_Gradient_Swatch_1" id="New_Gradient_Swatch_1-13" cx="38.03" cy="50.11" r="2.54" data-name="New Gradient Swatch 1" fx="38.03" fy="50.11"/><radialGradient xlink:href="#New_Gradient_Swatch_1" id="New_Gradient_Swatch_1-14" cx="56.46" cy="50.45" r="2.66" data-name="New Gradient Swatch 1" fx="56.46" fy="50.45"/><radialGradient xlink:href="#New_Gradient_Swatch_1" id="New_Gradient_Swatch_1-15" cx="61.6" cy="43.91" r="3.2" data-name="New Gradient Swatch 1" fx="61.6" fy="43.91"/><radialGradient xlink:href="#New_Gradient_Swatch_1" id="New_Gradient_Swatch_1-16" cx="37.17" cy="56.41" r="2.95" data-name="New Gradient Swatch 1" fx="37.17" fy="56.41"/><radialGradient xlink:href="#New_Gradient_Swatch_1" id="New_Gradient_Swatch_1-17" cx="43.73" cy="56.95" r="2.85" data-name="New Gradient Swatch 1" fx="43.73" fy="56.95"/><radialGradient xlink:href="#New_Gradient_Swatch_1" id="New_Gradient_Swatch_1-18" cx="50.45" cy="56.53" r="2.34" data-name="New Gradient Swatch 1" fx="50.45" fy="56.53"/><radialGradient xlink:href="#New_Gradient_Swatch_1" id="New_Gradient_Swatch_1-19" cx="56.84" cy="56.68" r="2.69" data-name="New Gradient Swatch 1" fx="56.84" fy="56.68"/><radialGradient xlink:href="#New_Gradient_Swatch_1" id="New_Gradient_Swatch_1-20" cx="43.48" cy="26.13" r="2.42" data-name="New Gradient Swatch 1" fx="43.48" fy="26.13"/><radialGradient xlink:href="#New_Gradient_Swatch_1" id="New_Gradient_Swatch_1-21" cx="48.99" cy="26.84" r="2.27" data-name="New Gradient Swatch 1" fx="48.99" fy="26.84"/><radialGradient xlink:href="#New_Gradient_Swatch_1" id="New_Gradient_Swatch_1-22" cx="53.91" cy="26.48" r="2.39" data-name="New Gradient Swatch 1" fx="53.91" fy="26.48"/><radialGradient xlink:href="#New_Gradient_Swatch_1" id="New_Gradient_Swatch_1-23" cx="58.99" cy="26.44" r="1.89" data-name="New Gradient Swatch 1" fx="58.99" fy="26.44"/><radialGradient xlink:href="#New_Gradient_Swatch_1" id="New_Gradient_Swatch_1-24" cx="46.54" cy="21.34" r="2.13" data-name="New Gradient Swatch 1" fx="46.54" fy="21.34"/><radialGradient xlink:href="#New_Gradient_Swatch_1" id="New_Gradient_Swatch_1-25" cx="51.66" cy="21.16" r="2.55" data-name="New Gradient Swatch 1" fx="51.66" fy="21.16"/><radialGradient xlink:href="#New_Gradient_Swatch_1" id="New_Gradient_Swatch_1-26" cx="56.62" cy="21.29" r="1.9" data-name="New Gradient Swatch 1" fx="56.62" fy="21.29"/><radialGradient xlink:href="#New_Gradient_Swatch_1" id="New_Gradient_Swatch_1-27" cx="48.78" cy="15.83" r="2.11" data-name="New Gradient Swatch 1" fx="48.78" fy="15.83"/><radialGradient xlink:href="#New_Gradient_Swatch_1" id="New_Gradient_Swatch_1-28" cx="53.87" cy="15.86" r="2.28" data-name="New Gradient Swatch 1" fx="53.87" fy="15.86"/><radialGradient xlink:href="#New_Gradient_Swatch_1" id="New_Gradient_Swatch_1-29" cx="51.32" cy="10.56" r="1.71" data-name="New Gradient Swatch 1" fx="51.32" fy="10.56"/><radialGradient xlink:href="#New_Gradient_Swatch_1" id="New_Gradient_Swatch_1-30" cx="55.69" cy="43.89" r="2.38" data-name="New Gradient Swatch 1" fx="55.69" fy="43.89"/><radialGradient xlink:href="#New_Gradient_Swatch_1" id="New_Gradient_Swatch_1-31" cx="44.33" cy="50.33" r="2.18" data-name="New Gradient Swatch 1" fx="44.33" fy="50.33"/><radialGradient xlink:href="#New_Gradient_Swatch_1" id="New_Gradient_Swatch_1-32" cx="62.64" cy="53.65" r=".03" data-name="New Gradient Swatch 1" fx="62.64" fy="53.65"/><radialGradient xlink:href="#New_Gradient_Swatch_1" id="New_Gradient_Swatch_1-33" cx="62.46" cy="50.88" r="2.55" data-name="New Gradient Swatch 1" fx="62.46" fy="50.88"/><radialGradient xlink:href="#New_Gradient_Swatch_1" id="New_Gradient_Swatch_1-34" cx="63.52" cy="57.14" r="2.93" data-name="New Gradient Swatch 1" fx="63.52" fy="57.14"/><radialGradient xlink:href="#New_Gradient_Swatch_1" id="New_Gradient_Swatch_1-35" cx="64.39" cy="63.83" r="2.81" data-name="New Gradient Swatch 1" fx="64.39" fy="63.83"/><radialGradient xlink:href="#New_Gradient_Swatch_1" id="New_Gradient_Swatch_1-36" cx="57.19" cy="63.66" r="3.16" data-name="New Gradient Swatch 1" fx="57.19" fy="63.66"/><radialGradient xlink:href="#New_Gradient_Swatch_1" id="New_Gradient_Swatch_1-37" cx="50.03" cy="63.34" r="3.23" data-name="New Gradient Swatch 1" fx="50.03" fy="63.34"/><radialGradient xlink:href="#New_Gradient_Swatch_1" id="New_Gradient_Swatch_1-38" cx="42.99" cy="63.52" r="2.96" data-name="New Gradient Swatch 1" fx="42.99" fy="63.52"/><radialGradient xlink:href="#New_Gradient_Swatch_1" id="New_Gradient_Swatch_1-39" cx="35.76" cy="63.32" r="3.2" data-name="New Gradient Swatch 1" fx="35.76" fy="63.32"/><radialGradient xlink:href="#New_Gradient_Swatch_1" id="New_Gradient_Swatch_1-40" cx="51.11" cy="7.1" r="1.12" data-name="New Gradient Swatch 1" fx="51.11" fy="7.1"/><radialGradient xlink:href="#New_Gradient_Swatch_1" id="New_Gradient_Swatch_1-41" cx="51.05" cy="4.41" r="1.1" data-name="New Gradient Swatch 1" fx="51.05" fy="4.41"/><radialGradient xlink:href="#New_Gradient_Swatch_1" id="New_Gradient_Swatch_1-42" cx="51.19" cy="1.49" r="1.38" data-name="New Gradient Swatch 1" fx="51.19" fy="1.49"/><radialGradient xlink:href="#New_Gradient_Swatch_1" id="New_Gradient_Swatch_1-43" cx="53.72" cy=".95" r=".85" data-name="New Gradient Swatch 1" fx="53.72" fy=".95"/><radialGradient xlink:href="#New_Gradient_Swatch_1" id="New_Gradient_Swatch_1-44" cx="53.61" cy="3.09" r="1.11" data-name="New Gradient Swatch 1" fx="53.61" fy="3.09"/><radialGradient xlink:href="#New_Gradient_Swatch_1" id="New_Gradient_Swatch_1-45" cx="53.28" cy="5.54" r=".88" data-name="New Gradient Swatch 1" fx="53.28" fy="5.54"/><radialGradient xlink:href="#New_Gradient_Swatch_1" id="New_Gradient_Swatch_1-46" cx="55.74" cy=".95" r=".61" data-name="New Gradient Swatch 1" fx="55.74" fy=".95"/><radialGradient xlink:href="#New_Gradient_Swatch_1" id="New_Gradient_Swatch_1-47" cx="57.66" cy=".95" r=".94" data-name="New Gradient Swatch 1" fx="57.66" fy=".95"/><radialGradient xlink:href="#New_Gradient_Swatch_1" id="New_Gradient_Swatch_1-48" cx="55.96" cy="3.09" r=".98" data-name="New Gradient Swatch 1" fx="55.96" fy="3.09"/><radialGradient xlink:href="#New_Gradient_Swatch_1" id="New_Gradient_Swatch_1-49" cx="55.74" cy="5.32" r=".99" data-name="New Gradient Swatch 1" fx="55.74" fy="5.32"/><radialGradient xlink:href="#New_Gradient_Swatch_1" id="New_Gradient_Swatch_1-50" cx="57.88" cy="5.55" r=".74" data-name="New Gradient Swatch 1" fx="57.88" fy="5.55"/><radialGradient xlink:href="#New_Gradient_Swatch_1" id="New_Gradient_Swatch_1-51" cx="36.75" cy="35.94" r="1.33" data-name="New Gradient Swatch 1" fx="36.75" fy="35.94"/><radialGradient xlink:href="#New_Gradient_Swatch_1" id="New_Gradient_Swatch_1-52" cx="63.42" cy="35.5" r="1.24" data-name="New Gradient Swatch 1" fx="63.42" fy="35.5"/><radialGradient xlink:href="#New_Gradient_Swatch_1" id="New_Gradient_Swatch_1-53" cx="4.42" cy="79.02" r="4.65" data-name="New Gradient Swatch 1" fx="4.42" fy="79.02" gradientTransform="rotate(175 4.36 77.83) scale(1 .97)"/><radialGradient id="radial-gradient" cx="13.33" cy="80.11" r="4.1" fx="13.33" fy="80.11" gradientTransform="matrix(.043 1 -1.099 .047 100.99 63.04)" gradientUnits="userSpaceOnUse"><stop offset="0" stop-color="#b9d6f0"/><stop offset=".3" stop-color="#b6d5ef"/><stop offset=".44" stop-color="#afd2ef"/><stop offset=".54" stop-color="#a3ceed"/><stop offset=".62" stop-color="#91c9ec"/><stop offset=".69" stop-color="#79c1e9"/><stop offset=".76" stop-color="#5db8e7"/><stop offset=".82" stop-color="#3bade3"/><stop offset=".87" stop-color="#14a0e0"/><stop offset=".9" stop-color="#009ade"/><stop offset="1" stop-color="#006094"/></radialGradient><radialGradient xlink:href="#New_Gradient_Swatch_1" id="New_Gradient_Swatch_1-54" cx="20.92" cy="80.26" r="3.38" data-name="New Gradient Swatch 1" fx="20.92" fy="80.26" gradientTransform="rotate(175 20.86 79.06) scale(1 .97)"/><radialGradient id="radial-gradient-2" cx="30.79" cy="79.59" r="6.84" fx="30.79" fy="79.59" gradientTransform="rotate(177.2 30.52 68.45) scale(1 .72)" gradientUnits="userSpaceOnUse"><stop offset="0" stop-color="#b9d6f0"/><stop offset=".15" stop-color="#b5d4ef"/><stop offset=".28" stop-color="#aad1ee"/><stop offset=".41" stop-color="#97cbec"/><stop offset=".54" stop-color="#7dc2ea"/><stop offset=".66" stop-color="#5bb7e6"/><stop offset=".78" stop-color="#32aae2"/><stop offset=".9" stop-color="#029ade"/><stop offset=".91" stop-color="#009ade"/><stop offset="1" stop-color="#006094"/></radialGradient><radialGradient id="radial-gradient-3" cx="40.73" cy="80.17" r="4.06" fx="40.73" fy="80.17" gradientTransform="rotate(176.4 40.67 78.5) scale(1 .96)" gradientUnits="userSpaceOnUse"><stop offset="0" stop-color="#b9d6f0"/><stop offset=".26" stop-color="#b6d5ef"/><stop offset=".39" stop-color="#afd2ef"/><stop offset=".49" stop-color="#a1ceed"/><stop offset=".58" stop-color="#8ec8eb"/><stop offset=".66" stop-color="#76c0e9"/><stop offset=".73" stop-color="#58b6e6"/><stop offset=".8" stop-color="#34aae3"/><stop offset=".86" stop-color="#0b9ddf"/><stop offset=".88" stop-color="#009ade"/><stop offset="1" stop-color="#006094"/></radialGradient><radialGradient id="radial-gradient-4" cx="50.77" cy="80.08" r="5.93" fx="50.77" fy="80.08" gradientTransform="rotate(-179.8 50.8 68.34) scale(1 .71)" gradientUnits="userSpaceOnUse"><stop offset="0" stop-color="#b9d6f0"/><stop offset=".22" stop-color="#b6d5ef"/><stop offset=".36" stop-color="#add2ee"/><stop offset=".47" stop-color="#9fcded"/><stop offset=".58" stop-color="#8ac6eb"/><stop offset=".67" stop-color="#70bee8"/><stop offset=".76" stop-color="#4fb3e5"/><stop offset=".84" stop-color="#29a7e2"/><stop offset=".91" stop-color="#009ade"/><stop offset="1" stop-color="#006094"/></radialGradient><radialGradient id="radial-gradient-5" cx="60.52" cy="79.35" r="4.69" fx="60.52" fy="79.35" gradientTransform="rotate(94.4 54.15 72.48) scale(1 .83)" gradientUnits="userSpaceOnUse"><stop offset="0" stop-color="#b9d6f0"/><stop offset=".16" stop-color="#b5d4ef"/><stop offset=".29" stop-color="#abd1ee"/><stop offset=".42" stop-color="#99cbec"/><stop offset=".54" stop-color="#81c3ea"/><stop offset=".65" stop-color="#61b9e7"/><stop offset=".77" stop-color="#3aace3"/><stop offset=".88" stop-color="#0d9edf"/><stop offset=".9" stop-color="#009ade"/><stop offset="1" stop-color="#006094"/></radialGradient><radialGradient xlink:href="#New_Gradient_Swatch_1" id="New_Gradient_Swatch_1-55" cx="73.58" cy="80.25" r="3.72" data-name="New Gradient Swatch 1" fx="73.58" fy="80.25" gradientTransform="rotate(175 73.53 79.05) scale(1 .97)"/><radialGradient id="radial-gradient-6" cx="80.98" cy="81.54" r="4.81" fx="80.98" fy="81.54" gradientTransform="matrix(.007 1 -.93 .007 155.89 .03)" gradientUnits="userSpaceOnUse"><stop offset="0" stop-color="#b9d6f0"/><stop offset=".26" stop-color="#b6d5ef"/><stop offset=".4" stop-color="#aed2ee"/><stop offset=".51" stop-color="#a0ceed"/><stop offset=".61" stop-color="#8dc7eb"/><stop offset=".7" stop-color="#73bfe9"/><stop offset=".79" stop-color="#54b5e6"/><stop offset=".87" stop-color="#2fa9e2"/><stop offset=".94" stop-color="#059bde"/><stop offset=".95" stop-color="#009ade"/><stop offset="1" stop-color="#006094"/></radialGradient><radialGradient id="radial-gradient-7" cx="88.87" cy="80.21" r="3.69" fx="88.87" fy="80.21" gradientTransform="rotate(175 88.82 79) scale(1 .97)" gradientUnits="userSpaceOnUse"><stop offset="0" stop-color="#b9d6f0"/><stop offset=".3" stop-color="#b6d5ef"/><stop offset=".44" stop-color="#afd2ef"/><stop offset=".54" stop-color="#a3ceed"/><stop offset=".62" stop-color="#91c9ec"/><stop offset=".69" stop-color="#79c1e9"/><stop offset=".76" stop-color="#5db8e7"/><stop offset=".82" stop-color="#3bade3"/><stop offset=".87" stop-color="#14a0e0"/><stop offset=".9" stop-color="#009ade"/><stop offset="1" stop-color="#006094"/></radialGradient><radialGradient id="radial-gradient-8" cx="96.28" cy="81.49" r="4.09" fx="96.28" fy="81.49" gradientTransform="matrix(-.996 .087 -.101 -1.156 200.42 167.01)" gradientUnits="userSpaceOnUse"><stop offset="0" stop-color="#b9d6f0"/><stop offset=".31" stop-color="#b6d5ef"/><stop offset=".44" stop-color="#afd2ef"/><stop offset=".54" stop-color="#a3ceed"/><stop offset=".62" stop-color="#91c9ec"/><stop offset=".7" stop-color="#79c1e9"/><stop offset=".76" stop-color="#5db8e7"/><stop offset=".82" stop-color="#3bade3"/><stop offset=".88" stop-color="#14a0e0"/><stop offset=".9" stop-color="#009ade"/><stop offset="1" stop-color="#006094"/></radialGradient><radialGradient xlink:href="#New_Gradient_Swatch_1" id="New_Gradient_Swatch_1-56" cx="37.59" cy="92.02" r="4.68" data-name="New Gradient Swatch 1" fx="37.59" fy="92.02"/><radialGradient xlink:href="#New_Gradient_Swatch_1" id="New_Gradient_Swatch_1-57" cx="47.8" cy="92.05" r="4.68" data-name="New Gradient Swatch 1" fx="47.8" fy="92.05"/><radialGradient xlink:href="#New_Gradient_Swatch_1" id="New_Gradient_Swatch_1-58" cx="55.75" cy="91.9" r="3.9" data-name="New Gradient Swatch 1" fx="55.75" fy="91.9"/><radialGradient xlink:href="#New_Gradient_Swatch_1" id="New_Gradient_Swatch_1-59" cx="62.42" cy="91.9" r="3.9" data-name="New Gradient Swatch 1" fx="62.42" fy="91.9"/><filter id="luminosity-invert" width="13" height="14" x="-2" y="72" color-interpolation-filters="sRGB" filterUnits="userSpaceOnUse"><feColorMatrix result="cm" values="-1 0 0 0 1 0 -1 0 0 1 0 0 -1 0 1 0 0 0 1 0"/></filter><filter id="luminosity-invert-2" width="13" height="12" x="7" y="74" color-interpolation-filters="sRGB" filterUnits="userSpaceOnUse"><feColorMatrix result="cm" values="-1 0 0 0 1 0 -1 0 0 1 0 0 -1 0 1 0 0 0 1 0"/></filter><filter id="luminosity-invert-3" width="12" height="11" x="15" y="75" color-interpolation-filters="sRGB" filterUnits="userSpaceOnUse"><feColorMatrix result="cm" values="-1 0 0 0 1 0 -1 0 0 1 0 0 -1 0 1 0 0 0 1 0"/></filter><filter id="luminosity-invert-4" width="18" height="12" x="22" y="74" color-interpolation-filters="sRGB" filterUnits="userSpaceOnUse"><feColorMatrix result="cm" values="-1 0 0 0 1 0 -1 0 0 1 0 0 -1 0 1 0 0 0 1 0"/></filter><filter id="luminosity-invert-5" width="14" height="12" x="34" y="74" color-interpolation-filters="sRGB" filterUnits="userSpaceOnUse"><feColorMatrix result="cm" values="-1 0 0 0 1 0 -1 0 0 1 0 0 -1 0 1 0 0 0 1 0"/></filter><filter id="luminosity-invert-6" width="18" height="12" x="42" y="74" color-interpolation-filters="sRGB" filterUnits="userSpaceOnUse"><feColorMatrix result="cm" values="-1 0 0 0 1 0 -1 0 0 1 0 0 -1 0 1 0 0 0 1 0"/></filter><filter id="luminosity-invert-7" width="13" height="14" x="54" y="72" color-interpolation-filters="sRGB" filterUnits="userSpaceOnUse"><feColorMatrix result="cm" values="-1 0 0 0 1 0 -1 0 0 1 0 0 -1 0 1 0 0 0 1 0"/></filter><filter id="luminosity-invert-8" width="13" height="11" x="67" y="75" color-interpolation-filters="sRGB" filterUnits="userSpaceOnUse"><feColorMatrix result="cm" values="-1 0 0 0 1 0 -1 0 0 1 0 0 -1 0 1 0 0 0 1 0"/></filter><filter id="luminosity-invert-9" width="12" height="13" x="75" y="75" color-interpolation-filters="sRGB" filterUnits="userSpaceOnUse"><feColorMatrix result="cm" values="-1 0 0 0 1 0 -1 0 0 1 0 0 -1 0 1 0 0 0 1 0"/></filter><filter id="luminosity-invert-10" width="12" height="11" x="83" y="75" color-interpolation-filters="sRGB" filterUnits="userSpaceOnUse"><feColorMatrix result="cm" values="-1 0 0 0 1 0 -1 0 0 1 0 0 -1 0 1 0 0 0 1 0"/></filter><filter id="luminosity-invert-11" width="12" height="13" x="90" y="75" color-interpolation-filters="sRGB" filterUnits="userSpaceOnUse"><feColorMatrix result="cm" values="-1 0 0 0 1 0 -1 0 0 1 0 0 -1 0 1 0 0 0 1 0"/></filter><filter id="luminosity-invert-12" width="15" height="14" x="30" y="85" color-interpolation-filters="sRGB" filterUnits="userSpaceOnUse"><feColorMatrix result="cm" values="-1 0 0 0 1 0 -1 0 0 1 0 0 -1 0 1 0 0 0 1 0"/></filter><filter id="luminosity-invert-13" width="15" height="14" x="40" y="85" color-interpolation-filters="sRGB" filterUnits="userSpaceOnUse"><feColorMatrix result="cm" values="-1 0 0 0 1 0 -1 0 0 1 0 0 -1 0 1 0 0 0 1 0"/></filter><filter id="luminosity-invert-14" width="11" height="14" x="50" y="85" color-interpolation-filters="sRGB" filterUnits="userSpaceOnUse"><feColorMatrix result="cm" values="-1 0 0 0 1 0 -1 0 0 1 0 0 -1 0 1 0 0 0 1 0"/></filter><filter id="luminosity-invert-15" width="11" height="14" x="57" y="85" color-interpolation-filters="sRGB" filterUnits="userSpaceOnUse"><feColorMatrix result="cm" values="-1 0 0 0 1 0 -1 0 0 1 0 0 -1 0 1 0 0 0 1 0"/></filter><mask id="mask" width="13" height="14" x="-2" y="72" maskUnits="userSpaceOnUse"><g filter="url(#luminosity-invert)"/></mask><mask id="mask-1" width="13" height="12" x="7" y="74" maskUnits="userSpaceOnUse"><g filter="url(#luminosity-invert-2)"/></mask><mask id="mask-2" width="12" height="11" x="15" y="75" maskUnits="userSpaceOnUse"><g filter="url(#luminosity-invert-3)"/></mask><mask id="mask-3" width="18" height="12" x="22" y="74" maskUnits="userSpaceOnUse"><g filter="url(#luminosity-invert-4)"/></mask><mask id="mask-4" width="14" height="12" x="34" y="74" maskUnits="userSpaceOnUse"><g filter="url(#luminosity-invert-5)"/></mask><mask id="mask-5" width="18" height="12" x="42" y="74" maskUnits="userSpaceOnUse"><g filter="url(#luminosity-invert-6)"/></mask><mask id="mask-6" width="13" height="14" x="54" y="72" maskUnits="userSpaceOnUse"><g filter="url(#luminosity-invert-7)"/></mask><mask id="mask-7" width="13" height="11" x="67" y="75" maskUnits="userSpaceOnUse"><g filter="url(#luminosity-invert-8)"/></mask><mask id="mask-8" width="12" height="13" x="75" y="75" maskUnits="userSpaceOnUse"><g filter="url(#luminosity-invert-9)"/></mask><mask id="mask-9" width="12" height="11" x="83" y="75" maskUnits="userSpaceOnUse"><g filter="url(#luminosity-invert-10)"/></mask><mask id="mask-10" width="12" height="13" x="90" y="75" maskUnits="userSpaceOnUse"><g filter="url(#luminosity-invert-11)"/></mask><mask id="mask-11" width="15" height="14" x="30" y="85" maskUnits="userSpaceOnUse"><g filter="url(#luminosity-invert-12)"/></mask><mask id="mask-12" width="15" height="14" x="40" y="85" maskUnits="userSpaceOnUse"><g filter="url(#luminosity-invert-13)"/></mask><mask id="mask-13" width="11" height="14" x="50" y="85" maskUnits="userSpaceOnUse"><g filter="url(#luminosity-invert-14)"><use xlink:href="#image" transform="translate(50 85)"/></g></mask><mask id="mask-14" width="11" height="14" x="57" y="85" maskUnits="userSpaceOnUse"><g filter="url(#luminosity-invert-15)"><use xlink:href="#image" transform="translate(57 85)"/></g></mask><style>.cls-2{fill:#1998d5}.cls-74{mix-blend-mode:multiply}</style></defs><g style="isolation:isolate"><g id="snow-city"><path fill="url(#New_Gradient_Swatch_1)" d="M43.27 36.7c-.4-.57-.88-.99-1.58-1.07a1.99 1.99 0 0 0-.6-.3c-.75-.22-1.37.04-1.97.47-.4.29-.76.81-.85 1.3-.09.52-.1.65-.02 1.18l.02.14.01.06c0 .07.01.13.03.2 0 .35.08.69.24 1 .3.56.91.97 1.56 1.08a2.06 2.06 0 0 0 2.21.18c.52-.28.76-.68.98-1.19l-.15.35.21-.43c.24-.52.3-.69.38-1.25a2.56 2.56 0 0 0-.47-1.7Z"/><path fill="url(#New_Gradient_Swatch_1-2)" d="M40.62 42.3c-.78-.6-1.97-.6-2.8-.14-.47.26-.83.57-1.03 1.09-.18.47-.17 1 .03 1.46a1.83 1.83 0 0 0 .41 1.23 2.19 2.19 0 0 0 1.16 1.07c.45.16.64.14 1.11.13 1.29-.04 2.01-1.22 2.19-2.36a2.7 2.7 0 0 0-1.06-2.49Z"/><path fill="url(#New_Gradient_Swatch_1-3)" d="M45.4 41.57a1.74 1.74 0 0 0-2.53.23c-.22.3-.29.6-.31.94-.06.16-.1.32-.09.49a3.09 3.09 0 0 0 1.21 2.97c.72.52 1.74.65 2.54.23.75-.39 1.43-1.12 1.49-2 .1-1.41-.96-2.57-2.29-2.86Z"/><path fill="url(#New_Gradient_Swatch_1-4)" d="M50.27 38a1.86 1.86 0 0 1-.06-.34 2.51 2.51 0 0 0-.68-1.5c-.52-.61-1.34-.83-2.1-.9-1.03-.08-1.93.68-2.24 1.62-.3.38-.49.84-.51 1.33-.02.56.19 1.25.62 1.63.14.13.24.28.38.41.54.5 1.15.77 1.89.8.63.03 1.19-.21 1.6-.61a2.24 2.24 0 0 0 1.09-2.45Z"/><path fill="url(#New_Gradient_Swatch_1-5)" d="m38.23 30.28-.44-.44c-.15-.15-.34-.26-.51-.38-.31-.2-.66-.2-1-.22a1.5 1.5 0 0 0-.73.17h-.29c-.64.06-1.24.49-1.5 1.07l-.04.03c-.61.7-.55 1.77.06 2.43a1.82 1.82 0 0 0 2.11.99 1.97 1.97 0 0 0 1.76-.14c.3-.19.51-.44.66-.74.25-.26.43-.61.51-.95a1.96 1.96 0 0 0-.58-1.82Z"/><path fill="url(#New_Gradient_Swatch_1-6)" d="M44.71 30.79a2.86 2.86 0 0 0-.46-.77 2.34 2.34 0 0 0-2.17-.88c-.68.17-1 .26-1.58.65a2.5 2.5 0 0 0-.98 1.73c-.04.52.02.99.24 1.48.07.15.14.3.19.46.16.57.77 1.06 1.29 1.27.54.22 1.13.22 1.68.03a2.37 2.37 0 0 0 1.93-2.23l.05-.36c.02-.54.01-.86-.19-1.38Z"/><path fill="url(#New_Gradient_Swatch_1-7)" d="M50.26 31.48a2.64 2.64 0 0 0-1.22-1.16.5.5 0 0 0-.13-.04c-.41-.2-.92-.23-1.35-.07l-.05.02a2.2 2.2 0 0 0-.93.58c-.34.35-.5.84-.5 1.32a1.75 1.75 0 0 0 1.02 1.93c.18.13.36.25.56.34a1.74 1.74 0 0 0 2.1-.47l.07-.04c.37-.26.63-.66.72-1.1.1-.5-.05-.89-.28-1.32Z"/><path fill="url(#New_Gradient_Swatch_1-8)" d="M56.42 30.96a3.06 3.06 0 0 0-.54-.6l-.04-.06a1.7 1.7 0 0 0-1.58-.53l-.17.04a2.2 2.2 0 0 0-1.47.66l-.05.04a1.8 1.8 0 0 0-.21.08c-.74.37-1.23 1.45-.74 2.21.32.5.71 1.17 1.27 1.45.5.25.86.32 1.41.27h.03c.48.04.98-.07 1.42-.36a2.33 2.33 0 0 0 .67-3.19Z"/><path fill="url(#New_Gradient_Swatch_1-9)" d="M62.1 31.3a1.72 1.72 0 0 0-1.34-1.46h-.03a1.64 1.64 0 0 0-.88-.35c-.56-.04-1.24.22-1.52.73-.15.27-.31.55-.4.85-.13.46-.14.74-.1 1.21.03.39.23.69.44 1.01.21.32.56.5.9.65.64.29 1.54.06 2.03-.41.24-.23.42-.48.56-.76l.08-.1c.27-.39.35-.9.24-1.36Z"/><path fill="url(#New_Gradient_Swatch_1-10)" d="M56.53 36.93c-.19-.29-.37-.65-.64-.89-.1-.09-.36-.37-.56-.47-.46-.24-.75-.42-1.29-.42a2.64 2.64 0 0 0-2.23 1.12 3.08 3.08 0 0 0-.49 1.53c-.14 1.3 1 2.45 2.25 2.53h.29a2.4 2.4 0 0 0 2.79-1.57c.18-.54.2-1.33-.12-1.83Z"/><path fill="url(#New_Gradient_Swatch_1-11)" d="m61.81 36.72-.11-.22c-.12-.28-.19-.56-.41-.84a2.06 2.06 0 0 0-2.88-.43c-.25.19-.42.4-.55.64a2.1 2.1 0 0 0-.29 2.76v.01l.04.12c.27.87 1.26 1.4 2.13 1.31a2.06 2.06 0 0 0 1.67-1.23c.15-.16.28-.35.37-.55.22-.5.23-1.07.04-1.58Z"/><path fill="url(#New_Gradient_Swatch_1-12)" d="M67.35 30.96a3.2 3.2 0 0 0-.53-1.12c-.33-.48-1.06-.68-1.61-.59-.38.06-.68.24-.91.49a1.8 1.8 0 0 0-1.3 1.53c-.02.18-.09.34-.1.52-.06.62.23 1.23.74 1.59.33.22.75.33 1.15.3.21.11.43.19.66.21.46.04.93-.11 1.28-.41.37-.31.52-.7.6-1.16.04-.21.08-.41.08-.63 0-.24 0-.5-.06-.73Z"/><path fill="url(#New_Gradient_Swatch_1-13)" d="M40.57 49.39a2.36 2.36 0 0 0-2.5-1.7c-.5.06-.93.19-1.35.49-.31.22-.61.5-.83.81-.33.46-.54.91-.51 1.49a2.1 2.1 0 0 0 1.81 1.96 3.35 3.35 0 0 0 1.73.01c.42-.1.86-.43 1.15-.74.25-.27.52-.78.55-1.15.06-.6.06-.56-.06-1.15Z"/><path fill="url(#New_Gradient_Swatch_1-14)" d="M58.94 50.11c0-.15-.02-.29-.06-.44a2.12 2.12 0 0 0-1.05-1.69c-.44-.26-1.14-.42-1.64-.22-.61.25-.97.42-1.47.84a2.51 2.51 0 0 0-.8 1.82c-.03 1.12.78 2.02 1.71 2.53 1.05.57 2.27.24 2.92-.76.28-.44.42-.96.44-1.48 0-.2-.04-.4-.04-.6Z"/><path fill="url(#New_Gradient_Swatch_1-15)" d="M64.24 42.99c-.1-.33-.35-.63-.64-.87a2.52 2.52 0 0 0-1.45-1.51 2.46 2.46 0 0 0-1.83.05c-.62.27-1.03.76-1.29 1.37a4.3 4.3 0 0 0-.29 2.55c.21.87.63 1.77 1.43 2.26.21.13.45.29.7.36.63.19.69.16 1.33.14.24 0 .48-.11.71-.2.51-.2.72-.48 1.08-.87.32-.35.53-1.05.55-1.5a4.72 4.72 0 0 0-.29-1.78Z"/><path fill="url(#New_Gradient_Swatch_1-16)" d="M40.1 55.95a3.5 3.5 0 0 0-1.55-2.01c-.82-.57-1.95-.4-2.78.02-.61.31-1.09.94-1.4 1.53a2.28 2.28 0 0 0 .89 3.06c.27.15.55.23.85.26.23.17.5.3.78.37.52.13 1.26.09 1.71-.25.31-.14.58-.31.87-.56.67-.57.91-1.6.62-2.42Z"/><path fill="url(#New_Gradient_Swatch_1-17)" d="M46.06 55.55a2.34 2.34 0 0 0-1.2-1.4 2.4 2.4 0 0 0-3.45 1.7c-.12.22-.21.45-.26.7-.06.3-.06.57 0 .83v.16a2.54 2.54 0 0 0 1.4 2.17c.44.27.99.28 1.48.29.42-.03.81-.15 1.16-.38l.48-.4c.3-.33.49-.71.58-1.14.27-.83.01-1.71-.18-2.53Z"/><path fill="url(#New_Gradient_Swatch_1-18)" d="M52.29 55.36c-.26-.55-.86-.94-1.4-1.16-.56-.23-1.11-.31-1.66.03-.54.33-.73.83-.79 1.43-.01.13-.02.25 0 .38v.05c-.18.4-.2.85-.05 1.26v.08c-.06.9.83 1.63 1.67 1.62.39 0 .71-.14.97-.35.69-.04 1.45-.57 1.53-1.24.09-.77.08-1.37-.26-2.08Z"/><path fill="url(#New_Gradient_Swatch_1-19)" d="m59.08 55.58-.03-.03a1.93 1.93 0 0 0-.37-.76 1.79 1.79 0 0 0-1.22-.6 1.8 1.8 0 0 0-.62.08c-.74-.54-1.87-.26-2.38.45-.48.67-.39 1.47.06 2.08-.06.41 0 .82.23 1.18.16.71.76 1.37 1.52 1.39 1.07.02 2.29-.38 2.89-1.35.47-.76.54-1.73-.08-2.45Z"/><path fill="url(#New_Gradient_Swatch_1-20)" d="M44.82 24.04a2.3 2.3 0 0 0-1.11-.35c-.39.01-.85.03-1.2.27-.23.16-.41.24-.58.43-.17.19-.34.38-.49.59-.73 1-.31 2.5.69 3.13.09.06.19.1.28.14.14.08.29.16.45.21.57.18 1.2.13 1.73-.14.5-.25.99-.76 1.13-1.32.07-.28.14-.57.16-.85a2.32 2.32 0 0 0-1.06-2.1Z"/><path fill="url(#New_Gradient_Swatch_1-21)" d="M51.08 26.08a1.74 1.74 0 0 0-1.42-1.31l-.03-.02c-.4-.25-.88-.33-1.34-.22-.4.1-.88.38-1.07.77-.33.68-.56 1.41-.34 2.17.21.75.77 1.41 1.54 1.63a2.07 2.07 0 0 0 1.66-.2c.43-.31.37-.26.72-.68.26-.32.32-.77.38-1.17.05-.32-.02-.67-.09-.99Z"/><path fill="url(#New_Gradient_Swatch_1-22)" d="M55.9 24.82c-.31-.4-.78-.66-1.28-.72-.25-.03-.47 0-.69.06h-.04c-.9-.1-1.8.5-2.04 1.37-.17.24-.28.5-.32.82-.05.46.07 1.02.39 1.38.11.13.19.29.31.42.36.39.74.66 1.28.72.67.08 1.32-.22 1.73-.75.16-.21.27-.42.35-.65.39-.27.64-.81.69-1.26.06-.49-.08-.99-.39-1.38Z"/><path fill="url(#New_Gradient_Swatch_1-23)" d="M60.71 25.9c-.05-.43-.42-.88-.77-1.11a1.81 1.81 0 0 0-2.5.52l-.2.42c-.1.32-.12.64-.05.96.04.4.28.78.53 1.08.63.76 1.84.77 2.55.13.59-.53.72-1.33.45-2.01Z"/><path fill="url(#New_Gradient_Swatch_1-24)" d="M48.59 20.72a1.32 1.32 0 0 0-.41-.57l-.19-.21a1.68 1.68 0 0 0-1.59-.62c-.28.04-.56.17-.8.34l-.22.17a1.67 1.67 0 0 0-1.05 1.39c-.04.42.1.86.37 1.19.22.26.47.41.76.5.16.15.34.28.57.37.47.18 1 .1 1.44-.13a3.56 3.56 0 0 0 .96-.76c.16-.19.28-.57.3-.82.03-.38-.03-.5-.14-.85Z"/><path fill="url(#New_Gradient_Swatch_1-25)" d="M54.06 20.76c-.02-.5-.2-.99-.52-1.38-.77-.92-2.3-1.12-3.21-.28-.09.08-.2.14-.28.23-.35.38-.53.54-.72 1.03a.23.23 0 0 0-.03.11l-.13.6a2.56 2.56 0 0 0 1.64 2.54c.46.21.97.14 1.45.1h.06a2.29 2.29 0 0 0 1.74-2.95Z"/><path fill="url(#New_Gradient_Swatch_1-26)" d="M56.62 19.33c-1 0-1.83.83-1.83 1.83v.26c0 1 .83 1.83 1.83 1.83s1.83-.83 1.83-1.83v-.26c0-1-.83-1.83-1.83-1.83Z"/><path fill="url(#New_Gradient_Swatch_1-27)" d="M50.24 14.32a2.4 2.4 0 0 0-1.59-.51c-.46 0-.84.22-1.23.44-.43.25-.72.82-.8 1.29-.09.52.04 1.05.35 1.48a1.96 1.96 0 0 0 1.84.8 2 2 0 0 0 1.74-.72 2 2 0 0 0-.3-2.79Z"/><path fill="url(#New_Gradient_Swatch_1-28)" d="M53.74 13.55c-2.99 0-2.73 4.63.25 4.63s2.73-4.63-.25-4.63Z"/><path fill="url(#New_Gradient_Swatch_1-29)" d="M51.14 8.83c-2.25 0-1.84 3.46.37 3.46s1.84-3.46-.37-3.46Z"/><path fill="url(#New_Gradient_Swatch_1-30)" d="M57.49 42.26c-.43-.58-1.21-1.01-1.95-.88-.55.1-.57.12-1.07.39-.21.11-.41.34-.56.49-.34.33-.47.94-.44 1.39.03.38.18.74.41 1.03A1.92 1.92 0 0 0 55 46.26c.46.21.98.23 1.46.06.44-.16.96-.55 1.11-1.02.32-.99.59-2.12-.09-3.05Z"/><path fill="url(#New_Gradient_Swatch_1-31)" d="M46.03 48.89a1.68 1.68 0 0 0-.95-.45l-.02-.02a1.77 1.77 0 0 0-1.35-.14c-.48.15-.75.44-1.02.84a2.62 2.62 0 0 0-.57 1.56c-.03.33.14.62.27.9s.43.49.68.65c.43.28.99.25 1.46.13a4.05 4.05 0 0 0 1.58-1c.68-.67.61-1.84-.06-2.48Z"/><path fill="url(#New_Gradient_Swatch_1-32)" d="M62.68 53.64h-.06.06Z"/><path fill="url(#New_Gradient_Swatch_1-33)" d="M64.39 49.7c-.17-.23-.4-.42-.65-.55a1.9 1.9 0 0 0-3.44.08c-.19.43-.2.87-.08 1.31.11.6.13 1.21.35 1.79.19.5.58.93 1.07 1.15.31.14.65.19.98.16.08-.02.46-.08.56-.13.46-.22.44-.24.8-.59.44-.43.6-1.26.76-1.81.13-.46-.08-1.05-.35-1.42Z"/><path fill="url(#New_Gradient_Swatch_1-34)" d="M65.91 55.07a2.33 2.33 0 0 0-1.6-.81c-.38 0-.77 0-1.14.08-.61.13-.93.32-1.42.68a3.3 3.3 0 0 0-1.09 1.83c-.16.64-.2 1.23.1 1.85a2.38 2.38 0 0 0 3.18 1.09c.39-.19.79-.54 1.03-.94.25-.09.48-.22.7-.41a2.4 2.4 0 0 0 .23-3.36Z"/><path fill="url(#New_Gradient_Swatch_1-35)" d="M66.96 62.86c-.21-.5-.47-.72-.85-1.07a3.86 3.86 0 0 0-1.14-.63 2.35 2.35 0 0 0-3.17 2.23c-.18.38-.25.82-.18 1.27a2.35 2.35 0 0 0 2.63 1.97c.45-.08.92-.17 1.32-.38.57-.28.67-.41 1.09-.86.31-.33.41-.8.5-1.22.08-.4-.05-.95-.2-1.31Z"/><path fill="url(#New_Gradient_Swatch_1-36)" d="M60.05 64.18h.02c-.24-.91.03-1.9-.64-2.68a2.2 2.2 0 0 0-1.75-1.21c-1-.1-2 .53-2.35 1.46l-.01.02a4.11 4.11 0 0 0-.81 1.46 2.56 2.56 0 0 0 .95 3.18l.25.23c.96.74 2.1.36 3.09-.04.34-.16.64-.41.89-.71.2-.25.4-.77.41-1.09 0-.21 0-.41-.05-.6Z"/><path fill="url(#New_Gradient_Swatch_1-37)" d="M52.36 60.87c-.31-.21-.7-.31-1.08-.3a1.9 1.9 0 0 0-1.22-.62c-.92-.06-1.54.53-1.79 1.31l-.12.1c-.29.24-.57.49-.79.8-.86 1.26-.19 2.64.63 3.7.32.41.82.61 1.32.61.45.3 1.01.38 1.58.04 1.39-.82 1.76-2.16 2.11-3.63.19-.77.04-1.54-.65-2.02Z"/><path fill="url(#New_Gradient_Swatch_1-38)" d="M45.16 61.97a3.24 3.24 0 0 0-.36-.38 2.17 2.17 0 0 0-2.34-1.2c-.48.09-.9.35-1.2.7a2.33 2.33 0 0 0-.77 1.63c-.05.12-.1.24-.13.36-.11.52-.16.71-.07 1.25.07.48.29.75.55 1.14.36.56 1.14.88 1.74 1.09.9.32 1.93-.04 2.47-.83.8-1.16 1.03-2.6.12-3.77Z"/><path fill="url(#New_Gradient_Swatch_1-39)" d="M38.73 63.23a4.93 4.93 0 0 0-.31-1.14l-.06-.15a2 2 0 0 0-1.63-1.97 1.9 1.9 0 0 0-1.51.38c-.79 0-1.62.49-1.89 1.24a2.94 2.94 0 0 0-.57 1.79c.02 1.55 1.6 2.52 2.8 3.14.76.39 1.82.15 2.34-.53.61-.81.96-1.73.82-2.76Z"/><path fill="url(#New_Gradient_Swatch_1-40)" d="M51.76 6.45a1.03 1.03 0 0 0-.97-.46c-.55.08-.82.56-.79 1.08.03.61.56 1.14 1.18 1.14.52 0 .98-.28 1.04-.84.04-.34-.15-.74-.45-.93Z"/><path fill="url(#New_Gradient_Swatch_1-41)" d="M52.18 4.21c.04-.39-.27-.87-.7-.87-.3 0-.59 0-.88.11-.34.13-.68.49-.68.88 0 .38.09.67.4.92.14.11.31.14.47.18l.08.01h.02c.41.13.86-.04 1.02-.46.04-.1.05-.2.05-.3a.73.73 0 0 0 .23-.47Z"/><path fill="url(#New_Gradient_Swatch_1-42)" d="M52.51 1.26c-.12-.58-.63-.82-1.16-.91a.76.76 0 0 0-.34-.24.78.78 0 0 0-.98.49c-.25.69-.33 1.46.28 1.98.12.11.27.17.43.2.15.09.33.13.52.09a.8.8 0 0 0 .4-.22l.09-.04c.47-.27.89-.77.77-1.35Z"/><path fill="url(#New_Gradient_Swatch_1-43)" d="M53.8.09c-1.11 0-1.28 1.73-.17 1.73S54.91.09 53.8.09Z"/><path fill="url(#New_Gradient_Swatch_1-44)" d="M53.47 1.96c-1.46 0-1.17 2.26.28 2.26s1.17-2.26-.28-2.26Z"/><path fill="url(#New_Gradient_Swatch_1-45)" d="M53.23 4.65c-1.15 0-1.04 1.78.1 1.78s1.04-1.78-.1-1.78Z"/><path fill="url(#New_Gradient_Swatch_1-46)" d="M55.78.34c-.8 0-.87 1.24-.07 1.24s.87-1.24.07-1.24Z"/><path fill="url(#New_Gradient_Swatch_1-47)" d="M57.64 0c-1.23 0-1.19 1.91.05 1.91S58.88 0 57.64 0Z"/><path fill="url(#New_Gradient_Swatch_1-48)" d="M56.01 2.09c-1.28 0-1.4 1.99-.12 1.99s1.4-1.99.12-1.99Z"/><path fill="url(#New_Gradient_Swatch_1-49)" d="M55.85 4.32c-1.28 0-1.52 2-.21 2s1.52-2 .21-2Z"/><path fill="url(#New_Gradient_Swatch_1-50)" d="M57.84 4.79c-.98 0-.89 1.51.08 1.51s.89-1.51-.08-1.51Z"/><path fill="url(#New_Gradient_Swatch_1-51)" d="M36.72 34.58c-1.75 0-1.69 2.7.05 2.7s1.69-2.7-.05-2.7Z"/><path fill="url(#New_Gradient_Swatch_1-52)" d="M63.31 34.24c-1.63 0-1.41 2.52.21 2.52s1.41-2.52-.21-2.52Z"/><path fill="url(#New_Gradient_Swatch_1-53)" d="m8.83 79.07-.63 4.02-.4-1.59c-1.12 1.32-2.39 1.98-3.8 1.98-1.1 0-2.05-.45-2.84-1.35A4.36 4.36 0 0 1 0 79.16c0-1.38.46-2.49 1.37-3.33a4.89 4.89 0 0 1 3.45-1.26c1 0 1.89.32 2.65.97l.33-.97.6 3.19a2.37 2.37 0 0 0-2.02-1.13c-.47 0-.84.13-1.12.39a1.4 1.4 0 0 0-.42 1.08c0 .51.19.91.57 1.22.35.3.78.45 1.28.45.64 0 1.36-.23 2.16-.69Z"/><g class="cls-74" mask="url(#mask)"><path d="m8.83 79.07-.63 4.02-.4-1.59c-1.12 1.32-2.39 1.98-3.8 1.98-1.1 0-2.05-.45-2.84-1.35A4.36 4.36 0 0 1 0 79.16c0-1.38.46-2.49 1.37-3.33a4.89 4.89 0 0 1 3.45-1.26c1 0 1.89.32 2.65.97l.33-.97.6 3.19a2.37 2.37 0 0 0-2.02-1.13c-.47 0-.84.13-1.12.39a1.4 1.4 0 0 0-.42 1.08c0 .51.19.91.57 1.22.35.3.78.45 1.28.45.64 0 1.36-.23 2.16-.69Z" class="cls-2"/></g><path fill="url(#radial-gradient)" d="m17.57 82.81-4.32.48.69-.52.07-.92h-.07c-.05-.41-.13-.7-.25-.85-.16-.23-.45-.34-.88-.34-.32 0-.56.13-.74.38s-.26.55-.26.88c0 .22.03.44.1.67 0 .09.04.21.12.37l-2.95.52.73-.76v-4.75l-.7-.51 3.02-.33-.15 2.38c.15-.15.25-.22.31-.22h.06l.06.01c.06 0 .17-.03.34-.1.16-.07.31-.1.42-.1.18 0 .43.06.74.19l.04-.18.07-.52.06-.77-1.04-.69 4.04-.4-1.12.71.72 5.08.89.28Z"/><g class="cls-74" mask="url(#mask-1)"><path d="m17.57 82.81-4.32.48.69-.52.07-.92h-.07c-.05-.41-.13-.7-.25-.85-.16-.23-.45-.34-.88-.34-.32 0-.56.13-.74.38s-.26.55-.26.88c0 .22.03.44.1.67 0 .09.04.21.12.37l-2.95.52.73-.76v-4.75l-.7-.51 3.02-.33-.15 2.38c.15-.15.25-.22.31-.22h.06l.06.01c.06 0 .17-.03.34-.1.16-.07.31-.1.42-.1.18 0 .43.06.74.19l.04-.18.07-.52.06-.77-1.04-.69 4.04-.4-1.12.71.72 5.08.89.28Z" class="cls-2"/></g><path fill="url(#New_Gradient_Swatch_1-54)" d="m24.51 83.42-.52-.97a5.7 5.7 0 0 1-3.13.97c-.99 0-1.81-.23-2.46-.7-.73-.52-1.09-1.25-1.09-2.21s.32-1.79.98-2.44a3.37 3.37 0 0 1 2.46-.97c.78 0 1.48.16 2.1.48.75.4 1.13.95 1.13 1.67s-.33 1.25-1 1.67c-.57.35-1.22.52-1.95.52-.41 0-.78-.07-1.12-.22.71.49 1.43.73 2.16.73a2.6 2.6 0 0 0 2.22-1.18l.21 2.65Zm-3.48-4.54-.06-.1-.18-.43c0-.03-.11-.15-.3-.37-.83.13-1.41.56-1.74 1.3.26.22.57.32.94.32.08 0 .2 0 .35.02l.35.02c.16 0 .27-.03.34-.09.2-.16.3-.38.3-.68Z"/><g class="cls-74" mask="url(#mask-2)"><path d="m24.51 83.42-.52-.97a5.7 5.7 0 0 1-3.13.97c-.99 0-1.81-.23-2.46-.7-.73-.52-1.09-1.25-1.09-2.21s.32-1.79.98-2.44a3.37 3.37 0 0 1 2.46-.97c.78 0 1.48.16 2.1.48.75.4 1.13.95 1.13 1.67s-.33 1.25-1 1.67c-.57.35-1.22.52-1.95.52-.41 0-.78-.07-1.12-.22.71.49 1.43.73 2.16.73a2.6 2.6 0 0 0 2.22-1.18l.21 2.65Zm-3.48-4.54-.06-.1-.18-.43c0-.03-.11-.15-.3-.37-.83.13-1.41.56-1.74 1.3.26.22.57.32.94.32.08 0 .2 0 .35.02l.35.02c.16 0 .27-.03.34-.09.2-.16.3-.38.3-.68Z" class="cls-2"/></g><path fill="url(#radial-gradient-2)" d="m37.04 82.47-3.08 1.22.46-1.1-2.84-2.29.79 2.58.64.36-4.35.22.88-.85-.09-2.46-.03.19-1.77 2 .24.67-3.53.28 3.05-2.44-3.34-3.48 2.77-.73-.15.61 2.72 2.2-.07-2.17-.61-.46 3.72-.28-.54.98-.22 1.98 1.76-1.98-.28-.49 3.59-.63-3.05 2.59 3.34 3.48Z"/><g class="cls-74" mask="url(#mask-3)"><path d="m37.04 82.47-3.08 1.22.46-1.1-2.84-2.29.79 2.58.64.36-4.35.22.88-.85-.09-2.46-.03.19-1.77 2 .24.67-3.53.28 3.05-2.44-3.34-3.48 2.77-.73-.15.61 2.72 2.2-.07-2.17-.61-.46 3.72-.28-.54.98-.22 1.98 1.76-1.98-.28-.49 3.59-.63-3.05 2.59 3.34 3.48Z" class="cls-2"/></g><path fill="url(#radial-gradient-3)" d="m45.17 82.81-4.32.48.69-.52.07-.92h-.07c-.05-.41-.13-.7-.25-.85-.16-.23-.45-.34-.88-.34a.86.86 0 0 0-.74.38c-.17.25-.26.55-.26.88 0 .22.03.44.1.67 0 .09.04.21.12.37l-2.95.52.73-.76v-4.75l-.7-.51 3.02-.33-.15 2.38c.15-.15.25-.22.31-.22h.06l.06.01c.06 0 .17-.03.34-.1.16-.07.31-.1.42-.1.18 0 .43.06.74.19l.04-.18.07-.52.06-.77-1.04-.69 4.04-.4-1.12.71.72 5.08.89.28Z"/><g class="cls-74" mask="url(#mask-4)"><path d="m45.17 82.81-4.32.48.69-.52.07-.92h-.07c-.05-.41-.13-.7-.25-.85-.16-.23-.45-.34-.88-.34a.86.86 0 0 0-.74.38c-.17.25-.26.55-.26.88 0 .22.03.44.1.67 0 .09.04.21.12.37l-2.95.52.73-.76v-4.75l-.7-.51 3.02-.33-.15 2.38c.15-.15.25-.22.31-.22h.06l.06.01c.06 0 .17-.03.34-.1.16-.07.31-.1.42-.1.18 0 .43.06.74.19l.04-.18.07-.52.06-.77-1.04-.69 4.04-.4-1.12.71.72 5.08.89.28Z" class="cls-2"/></g><path fill="url(#radial-gradient-4)" d="M52.49 81.67c0 .39-.17.72-.51 1.01-.3.27-.65.43-1.06.5-.41.06-.85.1-1.33.1h-5.08l1.3-.5.4-4.92-1.58-.62 2.22-.09v-.03h.03l2.14-.07a2.6 2.6 0 0 0-.66.54c-.33.33-.56.53-.68.6v1.15h.07s.22.05.77.12a2.42 2.42 0 0 1 .65.12c.25 0 .49.02.73.04.28.03.52.08.71.15.71.29 1.16.5 1.33.62.35.28.52.71.52 1.31Zm-2.97-.35c0-.32-.08-.53-.24-.64-.09-.05-.32-.1-.68-.15-.15.06-.31.14-.49.24h.03s-.08.05-.24.1c-.16.04-.24.11-.24.2v.8c0 .21.05.34.16.39.07.04.22.06.45.06h.19s.07-.07.22-.09c.56-.09.83-.39.83-.91Zm7.5-4.44-1.34.74.1 4.78 1.24.37-4.62.51 1.04-.94-.34-4.38-.74-.49 4.66-.6Z"/><g class="cls-74" mask="url(#mask-5)"><path d="M52.49 81.67c0 .39-.17.72-.51 1.01-.3.27-.65.43-1.06.5-.41.06-.85.1-1.33.1h-5.08l1.3-.5.4-4.92-1.58-.62 2.22-.09v-.03h.03l2.14-.07a2.6 2.6 0 0 0-.66.54c-.33.33-.56.53-.68.6v1.15h.07s.22.05.77.12a2.42 2.42 0 0 1 .65.12c.25 0 .49.02.73.04.28.03.52.08.71.15.71.29 1.16.5 1.33.62.35.28.52.71.52 1.31Zm-2.97-.35c0-.32-.08-.53-.24-.64-.09-.05-.32-.1-.68-.15-.15.06-.31.14-.49.24h.03s-.08.05-.24.1c-.16.04-.24.11-.24.2v.8c0 .21.05.34.16.39.07.04.22.06.45.06h.19s.07-.07.22-.09c.56-.09.83-.39.83-.91Zm7.5-4.44-1.34.74.1 4.78 1.24.37-4.62.51 1.04-.94-.34-4.38-.74-.49 4.66-.6Z" class="cls-2"/></g><path fill="url(#radial-gradient-5)" d="m64.94 82.81-4.32.48.68-.52.54-1.21-.08.03-.25-.88-2.25 1.87v.07c0 .13.04.23.13.3l-2.95.52.73-.76.24-4.78-.94-.48 3.02-.33-.77 4.54 1.3-1.34c.69-.7 1.12-1.04 1.27-1.04l.01-.09.02-.09.07-.52.06-.77-1.04-.69 4.04-.4-1.12.71.71 5.08.89.28Zm-3.33-8.71-1.33 1.8-.57-.07-.76-1.46 2.65-.27Z"/><g class="cls-74" mask="url(#mask-6)"><path d="m64.94 82.81-4.32.48.68-.52.54-1.21-.08.03-.25-.88-2.25 1.87v.07c0 .13.04.23.13.3l-2.95.52.73-.76.24-4.78-.94-.48 3.02-.33-.77 4.54 1.3-1.34c.69-.7 1.12-1.04 1.27-1.04l.01-.09.02-.09.07-.52.06-.77-1.04-.69 4.04-.4-1.12.71.71 5.08.89.28Zm-3.33-8.71-1.33 1.8-.57-.07-.76-1.46 2.65-.27Z" class="cls-2"/></g><path fill="url(#New_Gradient_Swatch_1-55)" d="m77.2 83.4-.97-.85a5.87 5.87 0 0 1-2.87.85c-.83 0-1.56-.15-2.19-.45-.81-.39-1.21-.96-1.21-1.71 0-.63.31-1.07.94-1.33.34-.14.92-.24 1.74-.3 1.05-.08 1.58-.27 1.58-.6 0-.39-.25-.58-.76-.58s-1.08.25-1.67.74l-1.1-2.08 1.09.69c.57-.46 1.3-.69 2.2-.69.74 0 1.37.14 1.86.43.61.34.91.86.91 1.54 0 .47-.2.83-.6 1.07-.27.17-.68.3-1.25.4l-.58.1c-.27.06-.45.12-.54.19-.15.12-.22.29-.22.51 0 .47.27.71.8.71.62 0 1.31-.33 2.08-1l.74 2.34Z"/><g class="cls-74" mask="url(#mask-7)"><path d="m77.2 83.4-.97-.85a5.87 5.87 0 0 1-2.87.85c-.83 0-1.56-.15-2.19-.45-.81-.39-1.21-.96-1.21-1.71 0-.63.31-1.07.94-1.33.34-.14.92-.24 1.74-.3 1.05-.08 1.58-.27 1.58-.6 0-.39-.25-.58-.76-.58s-1.08.25-1.67.74l-1.1-2.08 1.09.69c.57-.46 1.3-.69 2.2-.69.74 0 1.37.14 1.86.43.61.34.91.86.91 1.54 0 .47-.2.83-.6 1.07-.27.17-.68.3-1.25.4l-.58.1c-.27.06-.45.12-.54.19-.15.12-.22.29-.22.51 0 .47.27.71.8.71.62 0 1.31-.33 2.08-1l.74 2.34Z" class="cls-2"/></g><path fill="url(#radial-gradient-6)" d="M84.59 79.87c0 .94-.25 1.75-.76 2.44-.57.76-1.31 1.14-2.22 1.14s-1.7-.42-2.46-1.25l.94 3.16.8.37-3.53.25.52-.59.28-7.63-.79-.37 2.9-.28-.65 1.44c.75-.96 1.62-1.44 2.59-1.44.72 0 1.31.29 1.76.86.41.52.61 1.16.61 1.9Zm-2.71-.22c0-.23-.07-.44-.21-.64l-.45-.52a3.26 3.26 0 0 0-1.44 1.71c.38.45.73.67 1.06.67s.57-.12.76-.36c.19-.24.28-.53.28-.86Z"/><g class="cls-74" mask="url(#mask-8)"><path d="M84.59 79.87c0 .94-.25 1.75-.76 2.44-.57.76-1.31 1.14-2.22 1.14s-1.7-.42-2.46-1.25l.94 3.16.8.37-3.53.25.52-.59.28-7.63-.79-.37 2.9-.28-.65 1.44c.75-.96 1.62-1.44 2.59-1.44.72 0 1.31.29 1.76.86.41.52.61 1.16.61 1.9Zm-2.71-.22c0-.23-.07-.44-.21-.64l-.45-.52a3.26 3.26 0 0 0-1.44 1.71c.38.45.73.67 1.06.67s.57-.12.76-.36c.19-.24.28-.53.28-.86Z" class="cls-2"/></g><path fill="url(#radial-gradient-7)" d="m92.48 77.31-.85.39.16 4.85.67.52-2.55.31.43-1.77c-.72 1.18-1.63 1.77-2.76 1.77-.71 0-1.3-.3-1.74-.89-.4-.54-.6-1.18-.6-1.92 0-.88.2-1.66.6-2.32.48-.78 1.13-1.18 1.95-1.18 1.12 0 1.97.59 2.55 1.76l-.36-1.8 2.49.28Zm-2.46 2.95a9.72 9.72 0 0 0-.61-1.04c-.22-.27-.55-.5-1-.7-.19.07-.4.18-.64.34-.07.14-.1.35-.1.64 0 .4.15.74.45 1.03.18.18.5.27.97.27.05 0 .14-.04.27-.13l.3-.19c.17-.08.29-.15.37-.21Z"/><g class="cls-74" mask="url(#mask-9)"><path d="m92.48 77.31-.85.39.16 4.85.67.52-2.55.31.43-1.77c-.72 1.18-1.63 1.77-2.76 1.77-.71 0-1.3-.3-1.74-.89-.4-.54-.6-1.18-.6-1.92 0-.88.2-1.66.6-2.32.48-.78 1.13-1.18 1.95-1.18 1.12 0 1.97.59 2.55 1.76l-.36-1.8 2.49.28Zm-2.46 2.95a9.72 9.72 0 0 0-.61-1.04c-.22-.27-.55-.5-1-.7-.19.07-.4.18-.64.34-.07.14-.1.35-.1.64 0 .4.15.74.45 1.03.18.18.5.27.97.27.05 0 .14-.04.27-.13l.3-.19c.17-.08.29-.15.37-.21Z" class="cls-2"/></g><path fill="url(#radial-gradient-8)" d="m100 77.27-.86.48c.55 1.78.82 3.24.82 4.38s-.27 2.05-.82 2.71a3.16 3.16 0 0 1-2.58 1.09c-.82 0-1.51-.14-2.05-.42l-1.94.28 1.53-2.05c.14.16.33.29.58.39.91.38 1.53.57 1.85.57.49 0 .89-.2 1.22-.61a2 2 0 0 0 .46-1.31c0-.4-.09-.78-.27-1.16-.67 1.07-1.53 1.61-2.59 1.61-.77 0-1.4-.29-1.89-.88a3.07 3.07 0 0 1-.69-2.01c0-.87.23-1.62.7-2.23.51-.68 1.19-1.03 2.04-1.03s1.69.44 2.49 1.33l-.54-1.33 2.53.21Zm-2.29 2.68-.33-.63a1.87 1.87 0 0 0-.98-.88l-.66-.24c-.2.24-.3.54-.3.89 0 .43.07.73.22.91.23.28.46.42.7.42.55 0 .99-.16 1.34-.48Z"/><g class="cls-74" mask="url(#mask-10)"><path d="m100 77.27-.86.48c.55 1.78.82 3.24.82 4.38s-.27 2.05-.82 2.71a3.16 3.16 0 0 1-2.58 1.09c-.82 0-1.51-.14-2.05-.42l-1.94.28 1.53-2.05c.14.16.33.29.58.39.91.38 1.53.57 1.85.57.49 0 .89-.2 1.22-.61a2 2 0 0 0 .46-1.31c0-.4-.09-.78-.27-1.16-.67 1.07-1.53 1.61-2.59 1.61-.77 0-1.4-.29-1.89-.88a3.07 3.07 0 0 1-.69-2.01c0-.87.23-1.62.7-2.23.51-.68 1.19-1.03 2.04-1.03s1.69.44 2.49 1.33l-.54-1.33 2.53.21Zm-2.29 2.68-.33-.63a1.87 1.87 0 0 0-.98-.88l-.66-.24c-.2.24-.3.54-.3.89 0 .43.07.73.22.91.23.28.46.42.7.42.55 0 .99-.16 1.34-.48Z" class="cls-2"/></g><path fill="url(#New_Gradient_Swatch_1-56)" d="m42.38 91.81-.67 4.22-8.9.55 4.14-5.16c.54-.66.81-1.2.81-1.61 0-.51-.27-.77-.8-.77-.89 0-1.73.77-2.52 2.32l-1.32-3.53 1.17 1.27a6.3 6.3 0 0 1 4-1.66c.92 0 1.69.19 2.3.57a2.18 2.18 0 0 1 1.11 1.98c0 .67-.22 1.27-.66 1.78a6.5 6.5 0 0 1-1.55 1.2l-3.35 2.06 5.31-1.37.92-1.86Z"/><g class="cls-74" mask="url(#mask-11)"><path d="m42.38 91.81-.67 4.22-8.9.55 4.14-5.16c.54-.66.81-1.2.81-1.61 0-.51-.27-.77-.8-.77-.89 0-1.73.77-2.52 2.32l-1.32-3.53 1.17 1.27a6.3 6.3 0 0 1 4-1.66c.92 0 1.69.19 2.3.57a2.18 2.18 0 0 1 1.11 1.98c0 .67-.22 1.27-.66 1.78a6.5 6.5 0 0 1-1.55 1.2l-3.35 2.06 5.31-1.37.92-1.86Z" class="cls-2"/></g><path fill="url(#New_Gradient_Swatch_1-57)" d="M52.64 92.13c0 1.32-.54 2.4-1.61 3.25a5.45 5.45 0 0 1-3.51 1.18 4.45 4.45 0 0 1-4.54-4.44c0-1.34.54-2.46 1.63-3.35a5.5 5.5 0 0 1 3.61-1.26c.94 0 1.77.24 2.48.72a4.4 4.4 0 0 1 1.6 2.03c.23.6.35 1.22.35 1.86Zm-2.12-1.53c-.59-1.03-1.4-1.57-2.42-1.6-.24.35-.35.72-.35 1.12 0 .37.14.68.41.94.28.26.6.38.97.38.29 0 .56-.08.83-.24.27-.16.45-.36.57-.61Z"/><g class="cls-74" mask="url(#mask-12)"><path d="M52.64 92.13c0 1.32-.54 2.4-1.61 3.25a5.45 5.45 0 0 1-3.51 1.18 4.45 4.45 0 0 1-4.54-4.44c0-1.34.54-2.46 1.63-3.35a5.5 5.5 0 0 1 3.61-1.26c.94 0 1.77.24 2.48.72a4.4 4.4 0 0 1 1.6 2.03c.23.6.35 1.22.35 1.86Zm-2.12-1.53c-.59-1.03-1.4-1.57-2.42-1.6-.24.35-.35.72-.35 1.12 0 .37.14.68.41.94.28.26.6.38.97.38.29 0 .56-.08.83-.24.27-.16.45-.36.57-.61Z" class="cls-2"/></g><path fill="url(#New_Gradient_Swatch_1-58)" d="m58.86 96.46-5.78-.28 1.64-.69-.2-5.72-1.89-.15 6.12-2.27-1.43 8.09 1.54 1.03Z"/><g class="cls-74" mask="url(#mask-13)"><path d="m58.86 96.46-5.78-.28 1.64-.69-.2-5.72-1.89-.15 6.12-2.27-1.43 8.09 1.54 1.03Z" class="cls-2"/></g><path fill="url(#New_Gradient_Swatch_1-59)" d="m65.53 96.46-5.78-.28 1.64-.69-.2-5.72-1.89-.15 6.12-2.27-1.43 8.09 1.53 1.03Z"/><g class="cls-74" mask="url(#mask-14)"><path d="m65.53 96.46-5.78-.28 1.64-.69-.2-5.72-1.89-.15 6.12-2.27-1.43 8.09 1.53 1.03Z" class="cls-2"/></g></g></g></svg>