<svg xmlns="http://www.w3.org/2000/svg" id="snow-city" viewBox="0 0 100 86.22"><defs><style>.cls-2{fill:#fcb823}.cls-3{fill:#231f20}</style></defs><path d="M92.18 6.59C86.43 3.06 77.53.91 65.71.18 53.52-.57 42.47 1 32.89 4.85a57 57 0 0 0-20.18 13.62C3.41 28.23.31 38.33 0 39.42h6.76a47.17 47.17 0 0 1 3.13-6.55l18.95-.25-1.52 6.8h6.56l1.54-6.88 7.62-.1a11.37 11.37 0 0 1-.73-6.39l-5.46.07L40.7 8.89a66.35 66.35 0 0 1 15.02-2.4l-2.25 10.07h.1c2.23 0 4.31.64 6.07 1.74L62.3 6.43a98.87 98.87 0 0 1 12.62 1.15l-4.31 19.29-5.66-.1a11.44 11.44 0 0 1-1.16 6.38l5.4.1-1.38 6.17h6.56l1.35-6.05 9.87.18c3.44.16 6.92-1.08 9.56-3.43a14.89 14.89 0 0 0 4.84-10.36c.23-3.68-.94-8.96-7.8-13.17ZM30.27 26.21l-16.01.21a50.37 50.37 0 0 1 19.3-14.95l-3.3 14.74Zm63.32-6.85a8.4 8.4 0 0 1-2.71 5.98 7.1 7.1 0 0 1-4.5 1.82l-9.25-.17 4.04-18.08c3.08.84 5.64 1.89 7.66 3.13 3.33 2.05 4.93 4.51 4.76 7.32Z" class="cls-3"/><path d="M45.7 34.03a9.85 9.85 0 0 0 6.95 3.88 9.35 9.35 0 0 0-8.76-11.63 9.86 9.86 0 0 0 1.81 7.75ZM61.44 22.17a9.81 9.81 0 0 0-6.94-3.88 9.38 9.38 0 0 0 8.76 11.63 9.86 9.86 0 0 0-1.81-7.75Z" class="cls-2"/><path d="M55.32 26.78a10.29 10.29 0 0 1-1.81-8.53 9.84 9.84 0 0 0-9.39 7.07 10.31 10.31 0 0 1 9.51 12.63 9.8 9.8 0 0 0 9.39-7.07 10.33 10.33 0 0 1-7.7-4.1Z" class="cls-2"/><path d="M13.21 56.86h2.15l-5.6-10.93h-1.4L2.75 56.86H4.9l1.18-2.32h5.95l1.18 2.32ZM9.06 48.7l2.05 4.05H6.99l2.07-4.05ZM61.43 54.98h-7.42v-2.63h6.45l.11-1.9h-6.56v-2.63h7.26l.16-1.89h-9.34v10.93h9.18l.16-1.88zM64.36 49.86l3.37 4.99h1.34l3.36-4.99v7h1.9V45.93h-1.56l-4.38 6.53-4.37-6.53h-1.58v10.93h1.92v-7zM84.43 49.26v7.6h1.91V45.93h-1.46l-6.86 7.61v-7.61H76.1v10.93h1.49l6.84-7.6zM90.41 45.93c-1.94 0-3.1 1.34-3.1 3.58s1.1 3.52 2.95 3.59l-3.37 3.77h2.49l3.4-3.77h2.59v3.77h1.91V45.94h-6.86Zm0 1.89h4.95v3.39h-4.95c-1.03 0-1.19-1.07-1.19-1.71s.15-1.68 1.19-1.68ZM21.8 60.51H11.38v1.9h4.3v9.03h1.91v-9.03h4.05l.16-1.9zM31.76 62.41l.16-1.9h-9.34v10.93h9.18l.16-1.88H24.5v-2.63h6.46l.11-1.89H24.5v-2.63h7.26zM43.48 71.44V60.51h-1.92v4.53h-6.7v-4.53h-1.93v10.93h1.93v-4.51h6.7v4.51h1.92zM55.8 71.44V60.51h-1.93v4.53h-6.7v-4.53h-1.93v10.93h1.93v-4.51h6.7v4.51h1.93zM67.8 71.44V60.51h-1.46l-6.86 7.62v-7.62h-1.92v10.93h1.48l6.85-7.6v7.6h1.91zM68.9 65.8c0 3.93 1.96 5.84 6.01 5.84 1 0 2.44-.12 3.67-.31l.42-.07-.17-1.91-.51.11c-1.13.25-2.55.31-3.2.31-2.24 0-4.31-.48-4.31-3.97s1.84-3.61 4.07-3.61c.93 0 2.32.08 3.45.3l.5.1.17-1.9-.43-.06c-1.43-.2-2.78-.31-3.8-.31-2.73 0-5.87.62-5.87 5.49ZM84.94 60.51l-5.61 10.93h2.15l1.18-2.32h5.95l1.18 2.32h2.15l-5.6-10.93h-1.4Zm-1.36 6.82 2.07-4.05 2.05 4.05h-4.12ZM18.79 86.03h1.92v-9.04h5.91v9.04h1.92V75.09h-9.75v10.94zM35.81 76.78c.93 0 2.32.08 3.45.3l.5.1.17-1.9-.43-.06c-1.43-.2-2.78-.31-3.8-.31-2.73 0-5.87.62-5.87 5.49 0 3.93 1.96 5.84 6.01 5.84 1 0 2.44-.12 3.67-.31l.42-.07-.17-1.91-.51.11c-1.13.25-2.55.31-3.2.31-2.24 0-4.31-.48-4.31-3.97s1.84-3.61 4.07-3.61ZM51.45 75.09h-2.53l-4.09 4.53h-1.86v-4.53h-1.92v10.94h1.92v-4.52h1.87l4.08 4.52h2.53l-4.91-5.46 4.91-5.48z" class="cls-3"/><path d="M56.04 74.9c-3.69 0-5.64 1.95-5.64 5.64s1.97 5.68 5.68 5.68 5.64-1.95 5.64-5.64-1.97-5.68-5.68-5.68Zm.04 9.46c-2.61 0-3.77-1.17-3.77-3.8s1.15-3.77 3.72-3.77 3.8 1.18 3.8 3.82-1.16 3.76-3.75 3.76ZM72.38 80.48a3.2 3.2 0 0 0 .85-2.35c0-2.24-1.48-3.04-2.87-3.04H63v10.93h7.54c1.77 0 2.87-1.17 2.87-3.04 0-1.34-.51-2.09-1.03-2.5Zm-1.84 3.66h-5.61v-2.63h5.61c.6 0 .95.5.95 1.37 0 1.13-.54 1.26-.95 1.26Zm-.18-4.52h-5.43v-2.57h5.43c.41 0 .95.12.95 1.2 0 .86-.35 1.37-.95 1.37ZM78.81 75.09 73.2 86.02h2.15l1.18-2.32h5.95l1.18 2.32h2.15l-5.6-10.93h-1.4Zm-1.36 6.82 2.07-4.05 2.05 4.05h-4.12ZM26.28 45.93h-2.53l-4.09 4.52H17.8v-4.52h-1.92v10.93h1.92v-4.51h1.87l4.08 4.51h2.53l-4.91-5.46 4.91-5.47zM32.03 45.93l-5.61 10.93h2.15l1.18-2.32h5.95l1.18 2.32h2.15l-5.6-10.93h-1.4Zm-1.36 6.81 2.07-4.05 2.05 4.05h-4.12Z" class="cls-3"/><path fill="none" d="M43.04 51.82c-.12 1.58-.19 2.34-.57 3.16h5.59v-7.15h-4.78l-.24 4Z"/><path d="M49.98 54.98v-9.05h-8.5l-.33 5.82v.1c-.2 1.84-.25 2.33-.77 3.13h-1.13v1.86h-.02V59.29h1.92v-2.42h8.1v2.42h1.92v-4.3h-1.19Zm-1.92 0h-5.59c.38-.81.45-1.58.57-3.16l.24-4h4.78v7.15Z" class="cls-3"/></svg>