<svg xmlns="http://www.w3.org/2000/svg" id="snow-city" viewBox="0 0 100 81.73"><defs><style>.cls-1{fill:#1d1d1b}</style></defs><path d="M63.56 43.96 75 32.51l-6.42-6.41-5.53 5.53-1.49-1.49 10.82-10.82-6.42-6.41-10.82 10.81-1.49-1.48L69.47 6.42 63.05 0 47.24 15.82 31.42 0 25 6.42l15.82 15.82L25 38.05l6.42 6.42 15.82-15.82 1.48 1.49-10.81 10.82 6.41 6.42 10.82-10.82 1.49 1.49-5.53 5.53L57.51 50l5.54-5.53.51-.51zM95.77 70.22 92 73.99h2.62a1.4 1.4 0 1 1 0 2.82h-8.77v3.98h8.78c.31 0 2.38-.06 3.89-1.56a5.2 5.2 0 0 0 1.47-3.81c0-3.12-2.16-4.67-4.23-5.19ZM89.27 73.79l3.77-3.77h-2.6c-.78 0-1.4-.63-1.4-1.41s.63-1.4 1.4-1.4h7.81v-3.98h-7.33c-2.35 0-5.84 1.44-5.84 5.4 0 3.1 2.14 4.64 4.19 5.16ZM73.98 73.79l3.77-3.77h-2.6c-.78 0-1.4-.63-1.4-1.41s.63-1.4 1.4-1.4h7.81v-3.98h-7.33c-2.35 0-5.84 1.44-5.84 5.4 0 3.1 2.14 4.64 4.19 5.16ZM80.48 70.22l-3.77 3.77h2.62a1.4 1.4 0 1 1 0 2.82h-8.77v3.98h8.78c.31 0 2.38-.06 3.89-1.56a5.2 5.2 0 0 0 1.47-3.81c0-3.12-2.17-4.67-4.23-5.19ZM61.05 69.92h5.62v3.97h-5.62zM58.97 80.73V63.17H55v17.56h3.97zM61.05 76.76h7.26v3.97h-7.26zM61.05 63.17h7.26v3.97h-7.26zM21.6 63.17h3.97v17.48H21.6zM29.87 63.17h-2.21v3.98h2.71c.76.01 1.38.64 1.38 1.4s-.62 1.39-1.38 1.4h-2.71v3.98h2.69c.31 0 2.38-.06 3.89-1.56a5.2 5.2 0 0 0 1.47-3.81c0-3.96-3.5-5.4-5.84-5.4ZM0 65.1l2.81-2.82 5.44 5.44-2.81 2.81zM11.2 76.3l2.8-2.81 5.44 5.43-2.8 2.81zM19.45 65.09l-2.81-2.81-6.91 6.92-.01-.01L6.91 72h.01L0 78.92l2.81 2.81 16.64-16.64zM37.94 63.17h3.97v17.48h-3.97zM48.16 73.72a5.4 5.4 0 0 0 2.42-1.35 5.2 5.2 0 0 0 1.47-3.81c0-3.96-3.5-5.4-5.84-5.4h-2.22v3.98h2.71a1.4 1.4 0 0 1 0 2.8h-2.71v3.77h4.18ZM53.36 78.92l-3.12-3.12h-5.61l5.92 5.93 2.81-2.81z" class="cls-1"/></svg>