<svg xmlns="http://www.w3.org/2000/svg" id="snow-city" viewBox="0 0 100 70.86"><defs><style>.cls-1{fill:#ffdca7}</style></defs><path d="M14.71 70.72v-6.34H9.65v6.34H8.64v-7.23h7.08v7.23h-1.01ZM23.94 70.72v-5.84l-5.18 5.84h-1.01v-7.23h1.01v5.86l5.18-5.86h1.01v7.23h-1.01ZM26.97 70.72v-7.23h4.7c1.3 0 2.48.52 2.48 1.87 0 .96-.55 1.54-1.36 1.74.87.14 1.51.7 1.51 1.72 0 1.35-1.1 1.9-2.48 1.9h-4.84Zm1.01-6.29v2.2h3.69c.8 0 1.47-.42 1.47-1.19s-.69-1.01-1.47-1.01h-3.69Zm0 3.14v2.2h3.83c.82 0 1.47-.24 1.47-1.02s-.67-1.18-1.47-1.18h-3.83ZM42.3 70.72v-3.14h-5.4v3.14h-1.01v-7.23h1.01v3.14h5.4v-3.14h1.01v7.23H42.3ZM48.96 70.86c-2.22 0-4-1.1-4-3.76s1.78-3.76 4-3.76 4 1.1 4 3.76-1.78 3.76-4 3.76Zm0-6.58c-1.64 0-2.99.81-2.99 2.82s1.34 2.82 2.99 2.82 2.99-.81 2.99-2.82-1.35-2.82-2.99-2.82ZM60.8 70.72v-5.84l-5.18 5.84h-1.01v-7.23h1.01v5.86l5.18-5.86h1.01v7.23H60.8Zm-.88-9.46c0 .9-.89 1.27-1.71 1.27s-1.7-.36-1.7-1.27h.65c0 .52.57.73 1.05.73s1.06-.22 1.06-.73h.65ZM67.21 70.72v-7.23h6.51v.89h-5.49v1.83h3.4c1.47 0 2.63.66 2.63 2.25s-1.16 2.25-2.63 2.25h-4.41Zm1.01-3.62v2.72h3.4c.88 0 1.61-.4 1.61-1.36s-.71-1.36-1.61-1.36h-3.4ZM81.63 69.1h-4.67l-.86 1.61h-1.12l3.86-7.23h.93l3.84 7.23h-1.12l-.86-1.61Zm-2.32-4.42-1.86 3.48h3.69l-1.83-3.48ZM85.77 68.29v2.42h-1.01v-7.23h4.41c1.47 0 2.63.71 2.63 2.4s-1.16 2.41-2.63 2.41h-3.4Zm0-3.86v2.93h3.4c.88 0 1.61-.41 1.61-1.47s-.71-1.46-1.61-1.46h-3.4Z" class="cls-1"/><circle cx="18.95" cy="4.05" r="4.05" class="cls-1"/><circle cx="9.28" cy="11" r="2.91" class="cls-1"/><path d="M93.83 12.84v20.57l-6.37-5.19-2.99-2.42-.05-8.28-2.96 1.34-3.8-1.58c0 .25.86 4.45.66 9.01l-1.62 1.23h.01l-.35.24-.07.05a75.7 75.7 0 0 1-9.46 5.75c.35-2.83.45-5.36.38-7.59a53.93 53.93 0 0 0-1.95-12.57s-4.61-1.95-7.42-2.77c1 2.81 1.56 4.9 2.12 7.61.24 1.17.73 3.41 1.01 6.56.28 3.16.17 6.46-.86 11.7a58.75 58.75 0 0 1-4.45 1.42 48.52 48.52 0 0 0 .77-15.26s-.38-2.84-.89-5.17l-.29-1.24a53.86 53.86 0 0 0-2.18-6.9c-.66-.14-1.31-.28-1.97-.4a51.47 51.47 0 0 0-16.83-.31c.26.84.78 2.4 1.75 6.04a65.22 65.22 0 0 1 1.46 24.81c-3.2-.32-6.4-.95-9.6-1.89a57.1 57.1 0 0 1-14.63-6.76h22.08s.04-1.51-.1-4.53a62.07 62.07 0 0 0-1.78-11.75 66.94 66.94 0 0 0-1.56-5.49c-2.77.58-4.5 1.05-6.89 1.8C10.56 15.45 2.24 25.38 1.89 25.78L0 27.96l2.05 2.03c.37.37 9.27 9.06 23.81 13.44a57.4 57.4 0 0 0 10.49 2.12 63.1 63.1 0 0 1-2.25 7.4l5.78 2.15a69.04 69.04 0 0 0 2.73-9.23c3.1-.02 6.2-.29 9.3-.83 10.11-1.76 20.13-6.31 29.81-13.54l18.29 14.9V9.36l-6.17 3.48Zm-68.02 3.8a50.4 50.4 0 0 1 1.62-.51 57.3 57.3 0 0 1 1.45 8.63h-16.7c3.56-2.73 7.24-5.98 13.63-8.12ZM49 39.28a47.5 47.5 0 0 1-5.31.43 67.44 67.44 0 0 0-1.54-25.48c2.02.02 4.04.17 6.06.46 1.06 2.62 4.14 11.94.79 24.58Z"/></svg>